<svg width="24" height="24" viewBox="0 0 24 24" fill="none" xmlns="http://www.w3.org/2000/svg">
<path d="M9.89844 14.1008L14.1002 9.89905" stroke="#161924" stroke-width="1.5" stroke-linecap="round" stroke-linejoin="round"/>
<path d="M14.2899 13.9538C14.3839 14.0478 14.3839 14.1999 14.2899 14.2929C14.1959 14.387 14.0438 14.387 13.9508 14.2929C13.8567 14.1989 13.8567 14.0468 13.9508 13.9538C14.0438 13.8598 14.1959 13.8598 14.2899 13.9538" stroke="#161924" stroke-width="1.5" stroke-linecap="round" stroke-linejoin="round"/>
<path d="M10.0485 9.70704C10.1425 9.80108 10.1425 9.95314 10.0485 10.0462C9.95446 10.1402 9.8024 10.1402 9.70936 10.0462C9.61632 9.95214 9.61532 9.80008 9.70936 9.70704C9.8034 9.614 9.95546 9.613 10.0485 9.70704" stroke="#161924" stroke-width="1.5" stroke-linecap="round" stroke-linejoin="round"/>
<path d="M9.48104 19.7442C9.77617 19.7052 10.0743 19.7852 10.3094 19.9663L11.3928 20.7976C11.751 21.0728 12.2492 21.0728 12.6063 20.7976L13.7308 19.9343C13.9409 19.7732 14.206 19.7022 14.4681 19.7372L15.8747 19.9223C16.3219 19.9813 16.7531 19.7322 16.9261 19.315L17.4674 18.0065C17.5684 17.7614 17.7625 17.5673 18.0076 17.4662L19.3161 16.925C19.7333 16.753 19.9824 16.3208 19.9234 15.8736L19.7453 14.518C19.7063 14.2229 19.7863 13.9248 19.9674 13.6897L20.7988 12.6062C21.0739 12.2481 21.0739 11.7499 20.7988 11.3927L19.9354 10.2683C19.7743 10.0582 19.7033 9.79305 19.7383 9.53094L19.9234 8.12436C19.9824 7.67717 19.7333 7.24599 19.3161 7.07292L18.0076 6.53169C17.7625 6.43065 17.5684 6.23657 17.4674 5.99147L16.9261 4.68292C16.7541 4.26575 16.3219 4.01665 15.8747 4.07567L14.4681 4.26075C14.206 4.29676 13.9409 4.22573 13.7318 4.06567L12.6073 3.20231C12.2492 2.92719 11.751 2.92719 11.3938 3.20231L10.2694 4.06567C10.0593 4.22573 9.79418 4.29676 9.53207 4.26275L8.12548 4.07767C7.67829 4.01865 7.24711 4.26775 7.07404 4.68493L6.53382 5.99347C6.43177 6.23757 6.23769 6.43165 5.99359 6.5337L4.68505 7.07392C4.26787 7.24699 4.01877 7.67817 4.07779 8.12536L4.26287 9.53194C4.29689 9.79405 4.22586 10.0592 4.06579 10.2683L3.20243 11.3927C2.92732 11.7509 2.92732 12.2491 3.20243 12.6062L4.06579 13.7307C4.22686 13.9408 4.29789 14.2059 4.26287 14.468L4.07779 15.8746C4.01877 16.3218 4.26787 16.753 4.68505 16.926L5.99359 17.4672C6.23869 17.5683 6.43278 17.7624 6.53382 18.0075L7.07504 19.316C7.24711 19.7332 7.67929 19.9823 8.12648 19.9233L9.48104 19.7442" stroke="#161924" stroke-width="1.5" stroke-linecap="round" stroke-linejoin="round"/>
</svg>
