<svg width="24" height="24" viewBox="0 0 24 24" fill="none" xmlns="http://www.w3.org/2000/svg">
<path d="M21.0042 18.0026C21.0042 19.6603 19.6606 21.0038 18.0029 21.0038" stroke="#161924" stroke-width="1.5" stroke-linecap="round" stroke-linejoin="round"/>
<path d="M21.0042 18.0026C21.0042 19.6603 19.6606 21.0038 18.0029 21.0038" stroke="#161924" stroke-width="1.5" stroke-linecap="round" stroke-linejoin="round"/>
<path d="M2.99609 5.99759C2.99609 4.3399 4.33965 2.99634 5.99734 2.99634" stroke="#161924" stroke-width="1.5" stroke-linecap="round" stroke-linejoin="round"/>
<path d="M2.99609 5.99759C2.99609 4.3399 4.33965 2.99634 5.99734 2.99634" stroke="#161924" stroke-width="1.5" stroke-linecap="round" stroke-linejoin="round"/>
<path d="M5.99734 21.0038C4.33965 21.0038 2.99609 19.6603 2.99609 18.0026" stroke="#161924" stroke-width="1.5" stroke-linecap="round" stroke-linejoin="round"/>
<path d="M18.0029 2.99634C19.6606 2.99634 21.0042 4.3399 21.0042 5.99759" stroke="#161924" stroke-width="1.5" stroke-linecap="round" stroke-linejoin="round"/>
<path d="M2.9963 13.6257V14.8763" stroke="#161924" stroke-width="1.5" stroke-linecap="round" stroke-linejoin="round"/>
<path d="M2.9963 9.1239V10.3744" stroke="#161924" stroke-width="1.5" stroke-linecap="round" stroke-linejoin="round"/>
<path d="M21.0041 10.3744V9.1239" stroke="#161924" stroke-width="1.5" stroke-linecap="round" stroke-linejoin="round"/>
<path d="M21.0041 14.8763V13.6257" stroke="#161924" stroke-width="1.5" stroke-linecap="round" stroke-linejoin="round"/>
<path d="M13.626 21.0037H14.8765" stroke="#161924" stroke-width="1.5" stroke-linecap="round" stroke-linejoin="round"/>
<path d="M9.12402 21.0037H10.3745" stroke="#161924" stroke-width="1.5" stroke-linecap="round" stroke-linejoin="round"/>
<path d="M10.3745 2.9963H9.12402" stroke="#161924" stroke-width="1.5" stroke-linecap="round" stroke-linejoin="round"/>
<path d="M14.8765 2.9963H13.626" stroke="#161924" stroke-width="1.5" stroke-linecap="round" stroke-linejoin="round"/>
<path d="M9.89844 14.1009L14.1002 9.89917" stroke="#161924" stroke-width="1.5" stroke-linecap="round" stroke-linejoin="round"/>
<path d="M14.2899 13.9538C14.3839 14.0478 14.3839 14.1999 14.2899 14.2929C14.1959 14.387 14.0438 14.387 13.9508 14.2929C13.8567 14.1989 13.8567 14.0468 13.9508 13.9538C14.0438 13.8598 14.1959 13.8598 14.2899 13.9538" stroke="#161924" stroke-width="1.5" stroke-linecap="round" stroke-linejoin="round"/>
<path d="M10.0485 9.70704C10.1425 9.80108 10.1425 9.95314 10.0485 10.0462C9.95446 10.1402 9.8024 10.1402 9.70936 10.0462C9.61632 9.95214 9.61532 9.80008 9.70936 9.70704C9.8034 9.614 9.95546 9.613 10.0485 9.70704" stroke="#161924" stroke-width="1.5" stroke-linecap="round" stroke-linejoin="round"/>
</svg>
