<svg width="24" height="24" viewBox="0 0 24 24" fill="none" xmlns="http://www.w3.org/2000/svg">
<path d="M19.7607 13.006L21.0067 14.252L22.2527 13.006" stroke="#161924" stroke-width="1.5" stroke-linecap="round" stroke-linejoin="round"/>
<path d="M4.23907 10.994L2.99307 9.74799L1.74707 10.994" stroke="#161924" stroke-width="1.5" stroke-linecap="round" stroke-linejoin="round"/>
<path d="M7.58691 10.729C7.58691 9.91801 8.24491 9.26001 9.05591 9.26001C9.86691 9.26001 10.5249 9.91801 10.5249 10.729C10.5249 12.565 7.58791 12.565 7.58791 14.739H10.5249" stroke="#161924" stroke-width="1.5259" stroke-linecap="round" stroke-linejoin="round"/>
<path d="M15.894 12.03L13.382 12.003C13.24 12.001 13.125 11.886 13.125 11.743V9.26099" stroke="#161924" stroke-width="1.5259" stroke-linecap="round" stroke-linejoin="round"/>
<path d="M15.8896 9.32001V14.74" stroke="#161924" stroke-width="1.5259" stroke-linecap="round" stroke-linejoin="round"/>
<path d="M19.0232 17.628C17.3722 19.682 14.8432 21 12.0022 21H12.0002H11.9982C7.02416 21 2.99316 16.97 2.99316 11.998C2.99316 11.304 3.07916 10.631 3.22816 9.98199" stroke="#161924" stroke-width="1.5" stroke-linecap="round" stroke-linejoin="round"/>
<path d="M4.98145 6.372C6.63145 4.318 9.16145 3 12.0024 3C16.9764 3 21.0074 7.03 21.0074 12.002C21.0074 12.696 20.9214 13.369 20.7724 14.018" stroke="#161924" stroke-width="1.5" stroke-linecap="round" stroke-linejoin="round"/>
</svg>
