<svg width="24" height="24" viewBox="0 0 24 24" fill="none" xmlns="http://www.w3.org/2000/svg">
<path d="M20.7361 5.53699V7.53699H18.7361H20.7361" stroke="#161924" stroke-width="1.5" stroke-linecap="round" stroke-linejoin="round"/>
<path d="M7.58691 10.729C7.58691 9.91801 8.24491 9.26001 9.05591 9.26001C9.86691 9.26001 10.5249 9.91801 10.5249 10.729C10.5249 12.565 7.58791 12.565 7.58791 14.739H10.5249" stroke="#161924" stroke-width="1.5" stroke-linecap="round" stroke-linejoin="round"/>
<path d="M15.894 12.03L13.382 12.003C13.24 12.001 13.125 11.886 13.125 11.743V9.26099" stroke="#161924" stroke-width="1.5" stroke-linecap="round" stroke-linejoin="round"/>
<path d="M15.8899 9.32001V14.74" stroke="#161924" stroke-width="1.5" stroke-linecap="round" stroke-linejoin="round"/>
<path d="M20.3 7.53799C18.697 4.63599 15.582 2.66699 12 2.66699C6.84499 2.66699 2.66699 6.84599 2.66699 12C2.66699 17.154 6.84499 21.333 12 21.333C17.155 21.333 21.333 17.154 21.333 12" stroke="#161924" stroke-width="1.5" stroke-linecap="round" stroke-linejoin="round"/>
</svg>
