<svg width="24" height="24" viewBox="0 0 24 24" fill="none" xmlns="http://www.w3.org/2000/svg">
<path d="M20.5854 9.35189C20.8585 10.2082 20.9995 11.1012 21.0036 12C21.0036 16.9726 16.9725 21.0037 11.9998 21.0037C7.02721 21.0037 2.99609 16.9726 2.99609 12C2.99609 7.02736 7.02721 2.99625 11.9998 2.99625C12.8987 3.00031 13.7916 3.14132 14.6479 3.41442" stroke="#161924" stroke-width="1.5" stroke-linecap="round" stroke-linejoin="round"/>
<path d="M21.0036 4.27078L19.0148 6.25961L17.7393 4.98408" stroke="#161924" stroke-width="1.5" stroke-linecap="round" stroke-linejoin="round"/>
<path d="M7.63086 10.7255C7.63086 9.91106 8.29107 9.25085 9.10547 9.25085C9.91988 9.25085 10.5801 9.91106 10.5801 10.7255C10.5801 12.5682 7.63086 12.5682 7.63086 14.7511H10.5801" stroke="#161924" stroke-width="1.5" stroke-linecap="round" stroke-linejoin="round"/>
<path d="M15.534 14.7511V9.76107C15.535 9.53363 15.385 9.3331 15.1666 9.26988C14.9481 9.20666 14.7142 9.2961 14.5936 9.48895C13.9663 10.5034 13.2821 11.6549 12.6908 12.6723C12.5924 12.8425 12.5927 13.0524 12.6914 13.2225C12.7902 13.3925 12.9724 13.4967 13.169 13.4956H16.3693" stroke="#161924" stroke-width="1.5" stroke-linecap="round" stroke-linejoin="round"/>
</svg>
