<svg width="24" height="24" viewBox="0 0 24 24" fill="none" xmlns="http://www.w3.org/2000/svg">
<path d="M17.5543 19.5643C15.2331 21.1819 12.2313 21.4569 9.65489 20.2879C7.07843 19.119 5.30847 16.679 4.99707 13.8669" stroke="#161924" stroke-width="1.5" stroke-linecap="round" stroke-linejoin="round"/>
<path d="M16.5439 12.9746V14.3132C16.5439 15.5447 17.5423 16.5431 18.7739 16.5431C20.0054 16.5431 21.0038 15.5447 21.0038 14.3132V12.9746C21.0035 8.886 17.9302 5.45082 13.8668 4.99731" stroke="#161924" stroke-width="1.5" stroke-linecap="round" stroke-linejoin="round"/>
<path d="M9.53296 13.8668C9.96484 15.5502 11.5487 16.6761 13.2805 16.5308C15.0124 16.3854 16.3864 15.0114 16.5317 13.2795C16.677 11.5477 15.5512 9.96386 13.8678 9.53198" stroke="#161924" stroke-width="1.5" stroke-linecap="round" stroke-linejoin="round"/>
<path d="M17.5543 19.5629C15.2331 21.1805 12.2313 21.4554 9.65489 20.2865C7.07843 19.1175 5.30847 16.6775 4.99707 13.8655" stroke="#161924" stroke-width="1.5" stroke-linecap="round" stroke-linejoin="round"/>
<path d="M16.5439 12.9732V14.3117C16.5439 15.5433 17.5423 16.5417 18.7739 16.5417C20.0054 16.5417 21.0038 15.5433 21.0038 14.3117V12.9732C21.0035 8.88453 17.9302 5.44935 13.8668 4.99585" stroke="#161924" stroke-width="1.5" stroke-linecap="round" stroke-linejoin="round"/>
<path d="M9.53296 13.8656C9.96484 15.549 11.5487 16.6749 13.2805 16.5295C15.0124 16.3842 16.3864 15.0102 16.5317 13.2783C16.677 11.5465 15.5512 9.96264 13.8678 9.53076" stroke="#161924" stroke-width="1.5" stroke-linecap="round" stroke-linejoin="round"/>
<circle cx="6.74783" cy="6.74783" r="4.75198" stroke="#161924" stroke-width="1.5" stroke-linecap="round" stroke-linejoin="round"/>
<path d="M8.43064 7.06588H6.42981" stroke="#161924" stroke-width="1.5" stroke-linecap="round" stroke-linejoin="round"/>
<path d="M6.42977 7.06585V4.65527" stroke="#161924" stroke-width="1.5" stroke-linecap="round" stroke-linejoin="round"/>
</svg>
