<svg width="24" height="24" viewBox="0 0 24 24" fill="none" xmlns="http://www.w3.org/2000/svg">
<path d="M6 6L8 4L6 2" stroke="#161924" stroke-width="1.5" stroke-linecap="round" stroke-linejoin="round"/>
<path d="M10.8891 12.6109C13.037 14.7588 13.037 18.2412 10.8891 20.3891C8.7412 22.537 5.25879 22.537 3.11091 20.3891C0.96303 18.2412 0.96303 14.7588 3.11091 12.6109C5.25879 10.463 8.7412 10.463 10.8891 12.6109" stroke="#161924" stroke-width="1.5" stroke-linecap="round" stroke-linejoin="round"/>
<path d="M9.4749 18.552L6.9999 13.602L4.5249 18.552" stroke="#161924" stroke-width="1.5" stroke-linecap="round" stroke-linejoin="round"/>
<path d="M5.02002 17.56H8.98002" stroke="#161924" stroke-width="1.5" stroke-linecap="round" stroke-linejoin="round"/>
<path d="M20.8891 3.61091C23.037 5.75879 23.037 9.2412 20.8891 11.3891C18.7412 13.537 15.2588 13.537 13.1109 11.3891C10.963 9.2412 10.963 5.75879 13.1109 3.61091C15.2588 1.46303 18.7412 1.46303 20.8891 3.61091" stroke="#161924" stroke-width="1.5" stroke-linecap="round" stroke-linejoin="round"/>
<path fill-rule="evenodd" clip-rule="evenodd" d="M15 7.49999V5.52499C15 5.24899 15.224 5.02499 15.5 5.02499H17.812C18.495 5.02499 19.05 5.57899 19.05 6.26199V6.26199C19.05 6.94499 18.496 7.49899 17.812 7.49899H15L15 7.49999Z" stroke="#161924" stroke-width="1.5" stroke-linecap="round" stroke-linejoin="round"/>
<path d="M15 7.5V9.475C15 9.751 15.224 9.975 15.5 9.975H18.05C18.733 9.975 19.287 9.421 19.287 8.738V8.738C19.287 8.055 18.733 7.501 18.05 7.501" stroke="#161924" stroke-width="1.5" stroke-linecap="round" stroke-linejoin="round"/>
<path d="M18 18L16 20L18 22" stroke="#161924" stroke-width="1.5" stroke-linecap="round" stroke-linejoin="round"/>
<path d="M21 16V18C21 19.105 20.105 20 19 20H16" stroke="#161924" stroke-width="1.5" stroke-linecap="round" stroke-linejoin="round"/>
<path d="M3 8V6C3 4.895 3.895 4 5 4H8" stroke="#161924" stroke-width="1.5" stroke-linecap="round" stroke-linejoin="round"/>
</svg>
