<svg width="24" height="24" viewBox="0 0 24 24" fill="none" xmlns="http://www.w3.org/2000/svg">
<path fill-rule="evenodd" clip-rule="evenodd" d="M19.002 3.99667C19.5542 3.99667 20.002 4.44439 20.002 4.99667V19.0033C20.002 19.5556 19.5542 20.0033 19.002 20.0033H12.9986C12.4463 20.0033 11.9986 19.5556 11.9986 19.0033L11.9986 4.99667C11.9986 4.44439 12.4463 3.99667 12.9986 3.99667L19.002 3.99667Z" stroke="#323232" stroke-width="1.5" stroke-linecap="round" stroke-linejoin="round"/>
<path d="M16.0002 3.99667V20.0033" stroke="#323232" stroke-width="1.5" stroke-linecap="round" stroke-linejoin="round"/>
<path fill-rule="evenodd" clip-rule="evenodd" d="M6.99805 12C7.55033 12 7.99805 12.4477 7.99805 13L7.99805 20.0038C7.99805 20.556 7.55033 21.0037 6.99805 21.0037H4.99638C4.4441 21.0037 3.99638 20.556 3.99638 20.0037L3.99638 13C3.99638 12.4477 4.4441 12 4.99638 12H6.99805Z" stroke="#323232" stroke-width="1.5" stroke-linecap="round" stroke-linejoin="round"/>
<path d="M5.99693 8.99876L3.99609 6.99792" stroke="#323232" stroke-width="1.5" stroke-linecap="round" stroke-linejoin="round"/>
<path d="M7.99693 6.99792L5.99609 8.99876" stroke="#323232" stroke-width="1.5" stroke-linecap="round" stroke-linejoin="round"/>
<path d="M5.9963 2.99625V8.99875" stroke="#323232" stroke-width="1.5" stroke-linecap="round" stroke-linejoin="round"/>
</svg>
