<svg width="24" height="24" viewBox="0 0 24 24" fill="none" xmlns="http://www.w3.org/2000/svg">
<path fill-rule="evenodd" clip-rule="evenodd" d="M21 5V18.879C21 20.05 20.05 21 18.879 21H5.121C3.95 21 3 20.05 3 18.879V5.121C3 3.95 3.95 3 5.121 3H19C20.105 3 21 3.895 21 5Z" stroke="#161924" stroke-width="1.5" stroke-linecap="round" stroke-linejoin="round"/>
<path d="M7 3V21" stroke="#161924" stroke-width="1.5" stroke-linecap="round" stroke-linejoin="round"/>
<path d="M14.001 14.015C13.172 14.015 12.501 13.343 12.501 12.515C12.501 11.687 13.173 11.015 14.001 11.015V11.015C14.83 11.015 15.501 11.687 15.501 12.515V13.181C15.501 13.87 16.061 14.431 16.751 14.431C17.441 14.431 18.001 13.872 18.001 13.181V12.515C18.001 10.306 16.21 8.51398 14 8.51398C11.79 8.51398 9.99902 10.305 9.99902 12.514C9.99902 14.723 11.79 16.515 13.999 16.515C14.51 16.515 15.029 16.418 15.531 16.211" stroke="#161924" stroke-width="1.5" stroke-linecap="round" stroke-linejoin="round"/>
<path d="M15.501 12.515C15.501 13.344 14.829 14.015 14.001 14.015" stroke="#161924" stroke-width="1.5" stroke-linecap="round" stroke-linejoin="round"/>
</svg>
