<svg width="24" height="24" viewBox="0 0 24 24" fill="none" xmlns="http://www.w3.org/2000/svg">
<path d="M14 9H15.2918C15.7575 9 16.2169 9.10844 16.6334 9.31672L17.2186 9.6093C17.7289 9.86446 18.1559 10.2599 18.4495 10.7491L21 15" stroke="#161924" stroke-width="1.5" stroke-linecap="round" stroke-linejoin="round"/>
<path d="M11 18H5C3.89543 18 3 17.1046 3 16V5C3 3.89543 3.89543 3 5 3H12C13.1046 3 14 3.89543 14 5V14" stroke="#161924" stroke-width="1.5" stroke-linecap="round" stroke-linejoin="round"/>
<path d="M16 21L13.2486 19.942C12.4383 19.6304 11.7513 19.0636 11.2914 18.3272L8.24268 13.4452C7.84854 12.814 7.94205 11.9943 8.46822 11.4682V11.4682C8.77848 11.1579 9.20263 10.9888 9.64123 11.0006C10.0798 11.0123 10.4943 11.2038 10.7876 11.5302L13.0068 14H15" stroke="#161924" stroke-width="1.5" stroke-linecap="round" stroke-linejoin="round"/>
</svg>
