<svg width="24" height="24" viewBox="0 0 24 24" fill="none" xmlns="http://www.w3.org/2000/svg">
<circle cx="12" cy="12" r="10" stroke="#161924" stroke-width="1.5" stroke-linecap="round" stroke-linejoin="round"/>
<path d="M10.5 8.96686L6.4453 11.67C6.1671 11.8555 6 12.1677 6 12.502V14.1313C6 14.3023 6.08734 14.4614 6.23156 14.5532C6.37579 14.645 6.55691 14.6567 6.71177 14.5843L10.5 12.8131" stroke="#161924" stroke-width="1.5" stroke-linecap="round" stroke-linejoin="round"/>
<path d="M13.5 12.8131L17.2882 14.5843C17.4431 14.6567 17.6242 14.645 17.7684 14.5532C17.9127 14.4614 18 14.3023 18 14.1313V12.502C18 12.1677 17.8329 11.8555 17.5547 11.67L13.5 8.96686" stroke="#161924" stroke-width="1.5" stroke-linecap="round" stroke-linejoin="round"/>
<path d="M13.5 8.96686V6.5C13.5 5.67157 12.8284 5 12 5V5C11.1716 5 10.5 5.67157 10.5 6.5V8.96686" stroke="#161924" stroke-width="1.5" stroke-linecap="round" stroke-linejoin="round"/>
<path d="M10.5 12.8131L10.5001 14.8901L9.40006 15.7149C9.1482 15.9037 8.99998 16.2002 9 16.515V17.4998C9 17.6537 9.07093 17.7991 9.19228 17.8938C9.31363 17.9886 9.47186 18.0222 9.62123 17.9848L12 17.3903L14.3788 17.9848C14.5281 18.0222 14.6864 17.9886 14.8077 17.8938C14.9291 17.7991 15 17.6537 15 17.4998V16.515C15 16.2002 14.8518 15.9038 14.5999 15.7149L13.4999 14.8902L13.5 12.8132" stroke="#161924" stroke-width="1.5" stroke-linecap="round" stroke-linejoin="round"/>
</svg>
