<svg width="24" height="24" viewBox="0 0 24 24" fill="none" xmlns="http://www.w3.org/2000/svg">
<path d="M15.3588 13L11.6517 9.29289C11.4642 9.10535 11.2098 9 10.9446 9H10.0015C9.6525 9 9.32877 9.18192 9.1473 9.48C8.96583 9.77808 8.95288 10.1492 9.11313 10.4592L10.4266 13" stroke="#161924" stroke-width="1.5" stroke-linecap="round" stroke-linejoin="round"/>
<path fill-rule="evenodd" clip-rule="evenodd" d="M9.42664 17L8.11322 19.5408C7.95297 19.8508 7.96592 20.2219 8.14739 20.52C8.32886 20.8181 8.65259 21 9.00156 21H9.94471C10.2099 21 10.4643 20.8946 10.6518 20.7071L14.3589 17H19.0002C20.1048 17 21.0002 16.1046 21.0002 15V15C21.0002 13.8954 20.1048 13 19.0002 13H6.61356L5.88995 11.5528C5.72056 11.214 5.3743 11 4.99553 11H4.00099C3.67955 11 3.3777 11.1545 3.18974 11.4153C3.00179 11.6761 2.95065 12.0113 3.0523 12.3162L4.15771 15.6325C4.42994 16.4491 5.19422 17 6.05508 17H9.42664Z" stroke="#161924" stroke-width="1.5" stroke-linecap="round" stroke-linejoin="round"/>
<circle cx="5" cy="5" r="2" stroke="#161924" stroke-width="1.5" stroke-linecap="round" stroke-linejoin="round"/>
<path fill-rule="evenodd" clip-rule="evenodd" d="M20.2293 8H16.4584C15.6545 7.9979 15.0039 7.34559 15.0039 6.54167C15.0039 5.73774 15.6545 5.08544 16.4584 5.08333C16.4557 4.04985 17.213 3.17149 18.2356 3.02202C19.2582 2.87255 20.2352 3.49743 20.5284 4.48846C21.4348 4.64269 22.0718 5.46574 21.9937 6.38181C21.9157 7.29788 21.1487 8.00131 20.2293 8Z" stroke="#161924" stroke-width="1.5" stroke-linecap="round" stroke-linejoin="round"/>
</svg>
