<svg width="24" height="24" viewBox="0 0 24 24" fill="none" xmlns="http://www.w3.org/2000/svg">
<path d="M15.5637 11L11.82 7.25628C11.6559 7.09219 11.4333 7 11.2012 7H10.376C10.0706 7 9.78736 7.15918 9.62858 7.42C9.4698 7.68082 9.45847 8.00555 9.59869 8.2768L11.0064 11" stroke="#161924" stroke-width="1.5" stroke-linecap="round" stroke-linejoin="round"/>
<path fill-rule="evenodd" clip-rule="evenodd" d="M8.43578 11L7.85037 9.82918C7.59628 9.321 7.07689 9 6.50873 9H6.00099C5.67955 9 5.3777 9.15452 5.18974 9.41529C5.00179 9.67606 4.95065 10.0113 5.0523 10.3162L5.9003 12.8604C6.12717 13.541 6.76409 14 7.48149 14H10.0068L8.5991 16.7232C8.45888 16.9945 8.47022 17.3192 8.629 17.58C8.78778 17.8408 9.07104 18 9.37639 18H10.2017C10.4337 18 10.6563 17.9078 10.8204 17.7437L14.5641 14H17.5002C18.3286 14 19.0002 13.3284 19.0002 12.5V12.5C19.0002 11.6716 18.3286 11 17.5002 11H8.43578Z" stroke="#161924" stroke-width="1.5" stroke-linecap="round" stroke-linejoin="round"/>
<rect x="2" y="2" width="20" height="20" rx="5" stroke="#161924" stroke-width="1.5" stroke-linecap="round" stroke-linejoin="round"/>
</svg>
