<svg width="24" height="24" viewBox="0 0 24 24" fill="none" xmlns="http://www.w3.org/2000/svg">
<path fill-rule="evenodd" clip-rule="evenodd" d="M13.5 13.3131L13.4999 15.8901L14.5999 16.7149C14.8518 16.9037 15 17.2002 15 17.515V18.4998C15 18.6537 14.9291 18.7991 14.8077 18.8939C14.6864 18.9886 14.5281 19.0222 14.3788 18.9848L12 18.3904L9.62123 18.9848C9.47186 19.0222 9.31363 18.9886 9.19228 18.8939C9.07093 18.7991 9 18.6537 9 18.4998V17.515C9 17.2002 9.14823 16.9038 9.4001 16.7149L10.5001 15.8902L10.5 13.3131L6.71177 15.0843C6.55691 15.1567 6.37579 15.145 6.23156 15.0532C6.08734 14.9614 6 14.8023 6 14.6313V13.0021C6 12.6677 6.1671 12.3555 6.4453 12.17L10.5 9.46686V6.5C10.5 5.67157 11.1716 5 12 5V5C12.8284 5 13.5 5.67157 13.5 6.5V9.46686L17.5547 12.17C17.8329 12.3555 18 12.6677 18 13.0021V14.6313C18 14.8023 17.9127 14.9614 17.7684 15.0532C17.6242 15.145 17.4431 15.1567 17.2882 15.0843L13.5 13.3131Z" stroke="#161924" stroke-width="1.5" stroke-linecap="round" stroke-linejoin="round"/>
<rect x="2" y="2" width="20" height="20" rx="5" stroke="#161924" stroke-width="1.5" stroke-linecap="round" stroke-linejoin="round"/>
</svg>
