<svg width="24" height="24" viewBox="0 0 24 24" fill="none" xmlns="http://www.w3.org/2000/svg">
<path fill-rule="evenodd" clip-rule="evenodd" d="M13.2085 15.4016L16.6479 17.9806C17.2286 18.4131 17.4663 19.1692 17.2377 19.8561C17.009 20.543 16.3655 21.0058 15.6415 21.0039H8.35847C7.63615 21.004 6.99483 20.5418 6.76648 19.8566C6.53813 19.1713 6.77402 18.4168 7.35205 17.9836L10.7925 15.4016C11.5084 14.8648 12.4926 14.8648 13.2085 15.4016Z" stroke="#161924" stroke-width="1.5" stroke-linecap="round" stroke-linejoin="round"/>
<path d="M6.99791 15.0013H5.9975C4.33995 15.0013 2.99625 13.6576 2.99625 12.0001V5.99759C2.99625 4.34004 4.33995 2.99634 5.9975 2.99634H18.0025C19.66 2.99634 21.0037 4.34004 21.0037 5.99759V12.0001C21.0037 13.6576 19.66 15.0013 18.0025 15.0013H17.0021" stroke="#161924" stroke-width="1.5" stroke-linecap="round" stroke-linejoin="round"/>
</svg>
