<svg width="24" height="24" viewBox="0 0 24 24" fill="none" xmlns="http://www.w3.org/2000/svg">
<circle cx="12" cy="12" r="10" stroke="#161924" stroke-width="1.5" stroke-linecap="round" stroke-linejoin="round"/>
<path d="M14.5637 14L10.82 17.7437C10.6559 17.9078 10.4333 18 10.2012 18H9.37598C9.07063 18 8.78736 17.8408 8.62858 17.58C8.4698 17.3192 8.45847 16.9945 8.59869 16.7232L10.0064 14" stroke="#161924" stroke-width="1.5" stroke-linecap="round" stroke-linejoin="round"/>
<path d="M15.5637 11L11.82 7.25628C11.6559 7.09219 11.4333 7 11.2012 7H10.376C10.0706 7 9.78736 7.15918 9.62858 7.42C9.4698 7.68082 9.45847 8.00555 9.59869 8.2768L11.0064 11" stroke="#161924" stroke-width="1.5" stroke-linecap="round" stroke-linejoin="round"/>
<path d="M8.43578 11L7.85037 9.82918C7.59628 9.321 7.07689 9 6.50873 9H6.00099C5.67955 9 5.3777 9.15452 5.18974 9.41529C5.00179 9.67606 4.95065 10.0113 5.0523 10.3162L5.9003 12.8604C6.12717 13.541 6.76409 14 7.48149 14H9.94235" stroke="#161924" stroke-width="1.5" stroke-linecap="round" stroke-linejoin="round"/>
<path d="M8.5 11H17.5C18.3284 11 19 11.6716 19 12.5V12.5C19 13.3284 18.3284 14 17.5 14" stroke="#161924" stroke-width="1.5" stroke-linecap="round" stroke-linejoin="round"/>
<path d="M17.5001 14H14.564" stroke="#161924" stroke-width="1.5" stroke-linecap="round" stroke-linejoin="round"/>
</svg>
