<svg width="24" height="24" viewBox="0 0 24 24" fill="none" xmlns="http://www.w3.org/2000/svg">
<path fill-rule="evenodd" clip-rule="evenodd" d="M7.7532 19.3172L11.2427 15.3445C11.4339 15.1265 11.7099 15.0015 12 15.0015C12.29 15.0015 12.566 15.1265 12.7573 15.3445L16.2467 19.3172C16.5099 19.6158 16.5743 20.0407 16.4114 20.4039C16.2485 20.7672 15.8885 21.0017 15.4904 21.0039H8.50952C8.11147 21.0017 7.7514 20.7672 7.58853 20.4039C7.42567 20.0407 7.49005 19.6158 7.7532 19.3172Z" stroke="#161924" stroke-width="1.5" stroke-linecap="round" stroke-linejoin="round"/>
<path d="M17.002 16.0018H19.0029C20.1079 16.0018 21.0037 15.106 21.0037 14.001V5.99766C21.0037 4.89263 20.1079 3.99683 19.0029 3.99683H4.99705C3.89202 3.99683 2.99622 4.89263 2.99622 5.99766V14.001C2.99622 15.106 3.89202 16.0018 4.99705 16.0018H6.99788" stroke="#161924" stroke-width="1.5" stroke-linecap="round" stroke-linejoin="round"/>
</svg>
