<svg width="24" height="24" viewBox="0 0 24 24" fill="none" xmlns="http://www.w3.org/2000/svg">
<path d="M20 20.8299L17.74 18.5699" stroke="#161924" stroke-width="1.5" stroke-linecap="round" stroke-linejoin="round"/>
<path d="M6.26 18.5699L4 20.8299" stroke="#161924" stroke-width="1.5" stroke-linecap="round" stroke-linejoin="round"/>
<path d="M8.939 5.61099C13.021 3.91999 17.7 5.85799 19.391 9.93999C21.082 14.022 19.143 18.701 15.062 20.391C10.98 22.082 6.301 20.143 4.611 16.062C2.92 11.981 4.858 7.30099 8.939 5.61099" stroke="#161924" stroke-width="1.5" stroke-linecap="round" stroke-linejoin="round"/>
<path d="M11.75 9.43201V13.567L15 15.549" stroke="#161924" stroke-width="1.5" stroke-linecap="round" stroke-linejoin="round"/>
<path d="M7.51403 3.1C6.31703 2.76 4.98003 3.045 4.03803 3.987C3.22703 4.799 2.90503 5.905 3.04503 6.962" stroke="#161924" stroke-width="1.5" stroke-linecap="round" stroke-linejoin="round"/>
<path d="M16.499 3.1C17.696 2.76 19.032 3.045 19.974 3.987C20.786 4.799 21.108 5.905 20.968 6.962" stroke="#161924" stroke-width="1.5" stroke-linecap="round" stroke-linejoin="round"/>
</svg>
