<svg width="24" height="24" viewBox="0 0 24 24" fill="none" xmlns="http://www.w3.org/2000/svg">
<path d="M4.66998 17.209C5.25398 18.029 5.97098 18.746 6.79098 19.33" stroke="#161924" stroke-width="1.5" stroke-linecap="round" stroke-linejoin="round"/>
<path d="M3.135 10.5C3.053 10.989 3 11.488 3 12C3 12.512 3.053 13.011 3.135 13.5" stroke="#161924" stroke-width="1.5" stroke-linecap="round" stroke-linejoin="round"/>
<path d="M4.66998 6.79095C5.25398 5.96995 5.96998 5.25395 6.79098 4.66895" stroke="#161924" stroke-width="1.5" stroke-linecap="round" stroke-linejoin="round"/>
<path d="M10.5 20.865C10.989 20.947 11.488 21 12 21C16.971 21 21 16.971 21 12C21 7.029 16.971 3 12 3C11.488 3 10.989 3.053 10.5 3.135" stroke="#161924" stroke-width="1.5" stroke-linecap="round" stroke-linejoin="round"/>
<path d="M16 10L11 15L8 12" stroke="#161924" stroke-width="1.5" stroke-linecap="round" stroke-linejoin="round"/>
</svg>
