<svg width="24" height="24" viewBox="0 0 24 24" fill="none" xmlns="http://www.w3.org/2000/svg">
<path fill-rule="evenodd" clip-rule="evenodd" d="M8.99805 6.99792C9.55033 6.99792 9.99805 7.44564 9.99805 7.99792V20.0038C9.99805 20.556 9.55033 21.0038 8.99805 21.0038H6.99638C6.4441 21.0038 5.99638 20.556 5.99638 20.0038L5.99638 7.99793C5.99638 7.44564 6.4441 6.99792 6.99638 6.99792H8.99805Z" stroke="#323232" stroke-width="1.5" stroke-linecap="round" stroke-linejoin="round"/>
<path fill-rule="evenodd" clip-rule="evenodd" d="M17.002 6.99792C17.5542 6.99792 18.002 7.44564 18.002 7.99792V14.0013C18.002 14.5535 17.5542 15.0013 17.002 15.0013H15.0003C14.448 15.0013 14.0003 14.5535 14.0003 14.0013V7.99792C14.0003 7.44564 14.448 6.99792 15.0003 6.99792H17.002Z" stroke="#323232" stroke-width="1.5" stroke-linecap="round" stroke-linejoin="round"/>
<path d="M20.0028 2.99624H3.99609" stroke="#323232" stroke-width="1.5" stroke-linecap="round" stroke-linejoin="round"/>
</svg>
