<svg width="24" height="24" viewBox="0 0 24 24" fill="none" xmlns="http://www.w3.org/2000/svg">
<path fill-rule="evenodd" clip-rule="evenodd" d="M6.99609 17.0021C6.44381 17.0021 5.99609 16.5544 5.99609 16.0021L5.99609 3.99624C5.99609 3.44396 6.44381 2.99624 6.99609 2.99624H8.99776C9.55004 2.99624 9.99776 3.44396 9.99776 3.99624V16.0021C9.99776 16.5544 9.55005 17.0021 8.99776 17.0021H6.99609Z" stroke="#323232" stroke-width="1.5" stroke-linecap="round" stroke-linejoin="round"/>
<path fill-rule="evenodd" clip-rule="evenodd" d="M15 17.0021C14.4477 17.0021 14 16.5544 14 16.0021V9.99874C14 9.44646 14.4477 8.99874 15 8.99874H17.0017C17.554 8.99874 18.0017 9.44646 18.0017 9.99874V16.0021C18.0017 16.5544 17.554 17.0021 17.0017 17.0021H15Z" stroke="#323232" stroke-width="1.5" stroke-linecap="round" stroke-linejoin="round"/>
<path d="M20.0028 21.0037H3.99609" stroke="#323232" stroke-width="1.5" stroke-linecap="round" stroke-linejoin="round"/>
</svg>
