<svg width="24" height="24" viewBox="0 0 24 24" fill="none" xmlns="http://www.w3.org/2000/svg">
<path d="M7.24776 5.9975C7.24776 5.58328 6.91197 5.2475 6.49776 5.2475C6.08355 5.2475 5.74776 5.58328 5.74776 5.9975H6.49776H7.24776ZM5.74776 18.0025C5.74776 18.4167 6.08355 18.7525 6.49776 18.7525C6.91197 18.7525 7.24776 18.4167 7.24776 18.0025H6.49776H5.74776ZM2.49609 5.2475C2.08188 5.2475 1.74609 5.58328 1.74609 5.9975C1.74609 6.41171 2.08188 6.7475 2.49609 6.7475V5.9975V5.2475ZM10.4994 6.7475C10.9136 6.7475 11.2494 6.41171 11.2494 5.9975C11.2494 5.58328 10.9136 5.2475 10.4994 5.2475V5.9975V6.7475ZM6.49776 5.9975H5.74776V18.0025H6.49776H7.24776V5.9975H6.49776ZM2.49609 5.9975V6.7475H10.4994V5.9975V5.2475H2.49609V5.9975Z" fill="#323232"/>
<path d="M18.2517 5.9975C18.2517 5.58328 17.9159 5.2475 17.5017 5.2475C17.0875 5.2475 16.7517 5.58328 16.7517 5.9975H17.5017H18.2517ZM16.7517 18.0025C16.7517 18.4167 17.0875 18.7525 17.5017 18.7525C17.9159 18.7525 18.2517 18.4167 18.2517 18.0025H17.5017H16.7517ZM13.5 5.2475C13.0858 5.2475 12.75 5.58328 12.75 5.9975C12.75 6.41171 13.0858 6.7475 13.5 6.7475V5.9975V5.2475ZM21.5033 6.7475C21.9175 6.7475 22.2533 6.41171 22.2533 5.9975C22.2533 5.58328 21.9175 5.2475 21.5033 5.2475V5.9975V6.7475ZM17.5017 5.9975H16.7517V18.0025H17.5017H18.2517V5.9975H17.5017ZM13.5 5.9975V6.7475H21.5033V5.9975V5.2475H13.5V5.9975Z" fill="#323232"/>
</svg>
