<svg width="24" height="24" viewBox="0 0 24 24" fill="none" xmlns="http://www.w3.org/2000/svg">
<path d="M3.49756 18.0027L5.9976 20.5037" stroke="#161924" stroke-width="1.5" stroke-linecap="round" stroke-linejoin="round"/>
<path d="M5.99662 18.0027L3.49658 20.5037" stroke="#161924" stroke-width="1.5" stroke-linecap="round" stroke-linejoin="round"/>
<path d="M9.99928 20.773C13.9252 21.678 17.9758 19.8734 19.9285 16.3494C21.8811 12.8254 21.2637 8.43416 18.4148 5.58532C15.566 2.73648 11.1748 2.11898 7.65073 4.07166C4.1267 6.02434 2.32211 10.075 3.22717 14.0008" stroke="#161924" stroke-width="1.5" stroke-linecap="round" stroke-linejoin="round"/>
<path d="M13.1484 6.99792C14.3681 8.37596 15.0289 10.16 15.0012 12C15.0289 13.8401 14.3681 15.6241 13.1484 17.0021" stroke="#161924" stroke-width="1.5" stroke-linecap="round" stroke-linejoin="round"/>
<path d="M11.1108 8.66565C11.8536 9.61632 12.2461 10.7939 12.2223 12C12.2461 13.2062 11.8536 14.3838 11.1108 15.3344" stroke="#161924" stroke-width="1.5" stroke-linecap="round" stroke-linejoin="round"/>
<path d="M8.99895 10.3323C9.74059 11.3204 9.74059 12.6795 8.99895 13.6677" stroke="#161924" stroke-width="1.5" stroke-linecap="round" stroke-linejoin="round"/>
</svg>
