<svg width="24" height="24" viewBox="0 0 24 24" fill="none" xmlns="http://www.w3.org/2000/svg">
<path d="M19.3574 5.01801L22.0004 5.90301L21.4254 8.64601" stroke="#161924" stroke-width="1.5" stroke-linecap="round" stroke-linejoin="round"/>
<path d="M12.2403 11.54L8.07031 13.94" stroke="#161924" stroke-width="1.5" stroke-linecap="round" stroke-linejoin="round"/>
<path d="M5.5402 12.995C5.2502 12.275 5.0752 11.512 5.0752 10.715C5.0752 8.50603 6.7702 6.14203 9.3022 6.14203C10.7472 6.14203 11.6902 6.85803 12.2392 7.50303C12.7882 6.85803 13.7432 6.14203 15.1882 6.14203C17.7072 6.14203 19.4032 8.50603 19.4032 10.715C19.4032 15.336 13.6602 18.87 12.2392 18.87C11.4782 18.87 9.4522 17.839 7.7472 16.164" stroke="#161924" stroke-width="1.5" stroke-linecap="round" stroke-linejoin="round"/>
<path d="M18.4805 7.94002L22.0005 5.90002" stroke="#161924" stroke-width="1.5" stroke-linecap="round" stroke-linejoin="round"/>
<path d="M4.47027 16.02L4.09027 18.66" stroke="#161924" stroke-width="1.5" stroke-linecap="round" stroke-linejoin="round"/>
<path d="M2 15.04L4.47 16.02" stroke="#161924" stroke-width="1.5" stroke-linecap="round" stroke-linejoin="round"/>
<path d="M5.62 12.95L2 15.04" stroke="#161924" stroke-width="1.5" stroke-linecap="round" stroke-linejoin="round"/>
<path d="M8.07012 13.94L5.62012 12.95" stroke="#161924" stroke-width="1.5" stroke-linecap="round" stroke-linejoin="round"/>
<path d="M7.68988 16.58L8.06988 13.94" stroke="#161924" stroke-width="1.5" stroke-linecap="round" stroke-linejoin="round"/>
<path d="M4.08984 18.66L7.68984 16.58" stroke="#161924" stroke-width="1.5" stroke-linecap="round" stroke-linejoin="round"/>
</svg>
