<svg width="24" height="24" viewBox="0 0 24 24" fill="none" xmlns="http://www.w3.org/2000/svg">
<path fill-rule="evenodd" clip-rule="evenodd" d="M15 19.0029C14.4477 19.0029 14 18.5552 14 18.0029V5.99707C14 5.44478 14.4477 4.99707 15 4.99707H19.0025C19.5548 4.99707 20.0025 5.44478 20.0025 5.99707V18.0029C20.0025 18.5552 19.5548 19.0029 19.0025 19.0029H15Z" stroke="#323232" stroke-width="1.5" stroke-linecap="round" stroke-linejoin="round"/>
<path fill-rule="evenodd" clip-rule="evenodd" d="M4.99609 16.0016C4.44381 16.0016 3.99609 15.5539 3.99609 15.0016L3.99609 8.99832C3.99609 8.44603 4.44381 7.99831 4.99609 7.99831H8.99859C9.55088 7.99831 9.99859 8.44603 9.99859 8.99831V15.0016C9.99859 15.5539 9.55088 16.0016 8.99859 16.0016H4.99609Z" stroke="#323232" stroke-width="1.5" stroke-linecap="round" stroke-linejoin="round"/>
<path d="M13.9997 12H9.99805" stroke="#323232" stroke-width="1.5" stroke-linecap="round" stroke-linejoin="round"/>
<path d="M17.0022 21.0037V19.0029" stroke="#323232" stroke-width="1.5" stroke-linecap="round" stroke-linejoin="round"/>
<path d="M6.9963 7.99833V2.99625" stroke="#323232" stroke-width="1.5" stroke-linecap="round" stroke-linejoin="round"/>
<path d="M6.9963 16.0016V21.0037" stroke="#323232" stroke-width="1.5" stroke-linecap="round" stroke-linejoin="round"/>
<path d="M17.0022 4.99708V2.99625" stroke="#323232" stroke-width="1.5" stroke-linecap="round" stroke-linejoin="round"/>
</svg>
