<svg width="24" height="24" viewBox="0 0 24 24" fill="none" xmlns="http://www.w3.org/2000/svg">
<path d="M14.0002 2.99625V21.0037" stroke="#323232" stroke-width="1.5" stroke-linecap="round" stroke-linejoin="round"/>
<path d="M2.9963 2.99625V21.0037" stroke="#323232" stroke-width="1.5" stroke-linecap="round" stroke-linejoin="round"/>
<path fill-rule="evenodd" clip-rule="evenodd" d="M6.99609 16.0016C6.44381 16.0016 5.99609 15.5539 5.99609 15.0016V8.99832C5.99609 8.44603 6.44381 7.99831 6.99609 7.99831H8.99776C9.55004 7.99831 9.99776 8.44603 9.99776 8.99831V15.0016C9.99776 15.5539 9.55005 16.0016 8.99776 16.0016H6.99609Z" stroke="#323232" stroke-width="1.5" stroke-linecap="round" stroke-linejoin="round"/>
<path fill-rule="evenodd" clip-rule="evenodd" d="M18.002 19.0029C17.4497 19.0029 17.002 18.5552 17.002 18.0029V5.99707C17.002 5.44478 17.4497 4.99707 18.002 4.99707H20.0036C20.5559 4.99707 21.0036 5.44478 21.0036 5.99707V18.0029C21.0036 18.5552 20.5559 19.0029 20.0036 19.0029H18.002Z" stroke="#323232" stroke-width="1.5" stroke-linecap="round" stroke-linejoin="round"/>
</svg>
