<svg width="24" height="24" viewBox="0 0 24 24" fill="none" xmlns="http://www.w3.org/2000/svg">
<path d="M12.5003 10.4996L9.99921 7.99854L7.49817 10.4996" stroke="#161924" stroke-width="1.5" stroke-linecap="round" stroke-linejoin="round"/>
<path d="M9.99915 7.99854V13.0006C9.99915 14.6582 11.3429 16.0019 13.0004 16.0019V16.0019C14.6579 16.0019 16.0016 14.6582 16.0016 13.0006" stroke="#161924" stroke-width="1.5" stroke-linecap="round" stroke-linejoin="round"/>
<path d="M18.0025 9.99918C20.2126 9.99918 22.0042 8.20758 22.0042 5.99752C22.0042 3.78746 20.2126 1.99585 18.0025 1.99585C15.7925 1.99585 14.0009 3.78746 14.0009 5.99752C14.0009 8.20758 15.7925 9.99918 18.0025 9.99918" stroke="#161924" stroke-width="1.5" stroke-linecap="round" stroke-linejoin="round"/>
<path d="M19.0636 7.05873L16.9414 4.93652" stroke="#161924" stroke-width="1.5" stroke-linecap="round" stroke-linejoin="round"/>
<path d="M19.0636 4.93652L16.9414 7.05873" stroke="#161924" stroke-width="1.5" stroke-linecap="round" stroke-linejoin="round"/>
<path d="M20.5235 9.10884C21.8733 13.0771 20.3101 17.4522 16.7512 19.6667C13.1924 21.8812 8.57686 21.3509 5.61299 18.387C2.64911 15.4232 2.11883 10.8076 4.33333 7.24878C6.54783 3.68997 10.9229 2.12677 14.8912 3.4765" stroke="#161924" stroke-width="1.5" stroke-linecap="round" stroke-linejoin="round"/>
</svg>
