<svg width="24" height="24" viewBox="0 0 24 24" fill="none" xmlns="http://www.w3.org/2000/svg">
<path d="M14.0008 18.0026C14.0008 20.2127 15.7924 22.0043 18.0025 22.0043C20.2125 22.0043 22.0042 20.2127 22.0042 18.0026C22.0042 15.7926 20.2125 14.001 18.0025 14.001C15.7924 14.001 14.0008 15.7926 14.0008 18.0026" stroke="#161924" stroke-width="1.5" stroke-linecap="round" stroke-linejoin="round"/>
<path d="M14.8912 20.5238C10.9229 21.8735 6.54783 20.3103 4.33333 16.7515C2.11883 13.1927 2.64911 8.57711 5.61299 5.61323C8.57686 2.64935 13.1924 2.11908 16.7512 4.33358C20.3101 6.54807 21.8733 10.9231 20.5235 14.8914" stroke="#161924" stroke-width="1.5" stroke-linecap="round" stroke-linejoin="round"/>
<path d="M12.5002 13.5007L9.99915 16.0018L7.49811 13.5007" stroke="#161924" stroke-width="1.5" stroke-linecap="round" stroke-linejoin="round"/>
<path d="M9.99918 16.0019V10.9998C9.99918 9.34224 11.3429 7.99854 13.0004 7.99854V7.99854C14.658 7.99854 16.0017 9.34224 16.0017 10.9998" stroke="#161924" stroke-width="1.5" stroke-linecap="round" stroke-linejoin="round"/>
<path d="M19.3861 18.0026C19.3861 18.0303 19.3637 18.0527 19.3361 18.0527C19.3084 18.0527 19.286 18.0303 19.286 18.0026C19.286 17.975 19.3084 17.9526 19.3361 17.9526" stroke="#161924" stroke-width="1.5" stroke-linecap="round" stroke-linejoin="round"/>
<path d="M19.336 17.9525C19.3637 17.9525 19.3861 17.9749 19.3861 18.0025" stroke="#161924" stroke-width="1.5" stroke-linecap="round" stroke-linejoin="round"/>
<path d="M16.719 18.0026C16.719 18.0303 16.6966 18.0527 16.6689 18.0527C16.6413 18.0527 16.6189 18.0303 16.6189 18.0026C16.6189 17.975 16.6413 17.9526 16.6689 17.9526" stroke="#161924" stroke-width="1.5" stroke-linecap="round" stroke-linejoin="round"/>
<path d="M16.6689 17.9525C16.6965 17.9525 16.7189 17.9749 16.7189 18.0025" stroke="#161924" stroke-width="1.5" stroke-linecap="round" stroke-linejoin="round"/>
</svg>
