<svg width="24" height="24" viewBox="0 0 24 24" fill="none" xmlns="http://www.w3.org/2000/svg">
<path d="M12.0003 2.99622C15.5916 2.99622 18.503 5.90758 18.503 9.49892C18.503 13.0903 15.5916 16.0016 12.0003 16.0016C8.40892 16.0016 5.49756 13.0903 5.49756 9.49892C5.49756 5.90758 8.40892 2.99622 12.0003 2.99622" stroke="#161924" stroke-width="1.5" stroke-linecap="round" stroke-linejoin="round"/>
<path d="M6.99805 16.0017H17.0022" stroke="#161924" stroke-width="1.5" stroke-linecap="round" stroke-linejoin="round"/>
<path d="M18.0037 12H19.0032C20.1083 12 21.0041 12.8958 21.0041 14.0008V19.0029C21.0041 20.1079 20.1083 21.0037 19.0032 21.0037H4.99742C3.89239 21.0037 2.99658 20.1079 2.99658 19.0029V14.0008C2.99658 12.8958 3.89239 12 4.99742 12H5.99695" stroke="#161924" stroke-width="1.5" stroke-linecap="round" stroke-linejoin="round"/>
<path d="M9.99951 9.99915L12.0003 12L14.0012 9.99915" stroke="#161924" stroke-width="1.5" stroke-linecap="round" stroke-linejoin="round"/>
<path d="M12.0002 6.99792V12" stroke="#161924" stroke-width="1.5" stroke-linecap="round" stroke-linejoin="round"/>
</svg>
