<svg width="24" height="24" viewBox="0 0 24 24" fill="none" xmlns="http://www.w3.org/2000/svg">
<path d="M6.99776 13.7643H4.99693C3.8919 13.7643 2.99609 12.8685 2.99609 11.7635V5.76097C2.99609 4.65594 3.8919 3.76013 4.99693 3.76013H19.0028C20.1078 3.76013 21.0036 4.65594 21.0036 5.76097V11.7635C21.0036 12.8685 20.1078 13.7643 19.0028 13.7643H17.0019" stroke="#161924" stroke-width="1.5" stroke-linecap="round" stroke-linejoin="round"/>
<path fill-rule="evenodd" clip-rule="evenodd" d="M17.0022 8.76221H6.99805V19.2937C6.99787 19.6846 7.15306 20.0595 7.42943 20.3358C7.7058 20.6122 8.08069 20.7674 8.47153 20.7672H15.5287C15.9196 20.7674 16.2945 20.6122 16.5708 20.3358C16.8472 20.0595 17.0024 19.6846 17.0022 19.2937V8.76221Z" stroke="#161924" stroke-width="1.5" stroke-linecap="round" stroke-linejoin="round"/>
<path d="M10.5 13.3145C10.5 12.4858 11.1719 11.8139 12.0006 11.8139C12.8294 11.8139 13.5013 12.4858 13.5013 13.3145C13.5013 14.1433 12.8294 14.8152 12.0006 14.8152C11.172 14.8148 10.5004 14.1432 10.5 13.3145" stroke="#161924" stroke-width="1.5" stroke-linecap="round" stroke-linejoin="round"/>
<path d="M10.499 17.8164H13.5003" stroke="#161924" stroke-width="1.5" stroke-linecap="round" stroke-linejoin="round"/>
</svg>
