<svg width="24" height="24" viewBox="0 0 24 24" fill="none" xmlns="http://www.w3.org/2000/svg">
<path fill-rule="evenodd" clip-rule="evenodd" d="M12 15.6015V19.203C12 20.1975 12.8063 21.0037 13.8008 21.0038H19.203C20.1975 21.0037 21.0037 20.1975 21.0037 19.203V15.6015C21.0037 14.607 20.1975 13.8009 19.203 13.8008H13.8008C12.8063 13.8009 12 14.607 12 15.6015Z" stroke="#161924" stroke-width="1.5" stroke-linecap="round" stroke-linejoin="round"/>
<path d="M21.0037 17.002H12" stroke="#161924" stroke-width="1.5" stroke-linecap="round" stroke-linejoin="round"/>
<path d="M8.99908 21.0037H2.99658" stroke="#161924" stroke-width="1.5" stroke-linecap="round" stroke-linejoin="round"/>
<path d="M3.99658 21.0037V4.99705C3.99658 3.89202 4.89239 2.99622 5.99742 2.99622H15.0012C16.1062 2.99622 17.002 3.89202 17.002 4.99705V10.9995" stroke="#161924" stroke-width="1.5" stroke-linecap="round" stroke-linejoin="round"/>
<rect x="6.99805" y="5.99744" width="7.00292" height="5.00208" rx="0.5" stroke="#161924" stroke-width="1.5" stroke-linecap="round" stroke-linejoin="round"/>
<path d="M6.99805 14.0008H8.99888" stroke="#161924" stroke-width="1.5" stroke-linecap="round" stroke-linejoin="round"/>
</svg>
