<svg width="24" height="24" viewBox="0 0 24 24" fill="none" xmlns="http://www.w3.org/2000/svg">
<path d="M13.2515 15.2194L12.3942 16.0768C11.1591 17.3103 9.15835 17.3103 7.92331 16.0768V16.0768C6.68979 14.8417 6.68979 12.8409 7.92331 11.6059L8.78067 10.7485" stroke="#161924" stroke-width="1.5" stroke-linecap="round" stroke-linejoin="round"/>
<path fill-rule="evenodd" clip-rule="evenodd" d="M16.0016 21.0038H7.9983C5.23572 21.0038 2.99622 18.7643 2.99622 16.0018V7.99842C2.99622 5.23585 5.23572 2.99634 7.9983 2.99634H16.0016C18.7642 2.99634 21.0037 5.23585 21.0037 7.99842V16.0018C21.0037 18.7643 18.7642 21.0038 16.0016 21.0038Z" stroke="#161924" stroke-width="1.5" stroke-linecap="round" stroke-linejoin="round"/>
<path d="M10.1722 13.8279L13.8278 10.1724" stroke="#161924" stroke-width="1.5" stroke-linecap="round" stroke-linejoin="round"/>
<path d="M10.7485 8.78079L11.6058 7.92343C12.8409 6.68991 14.8417 6.68991 16.0767 7.92343V7.92343C17.3102 9.15847 17.3102 11.1593 16.0767 12.3943L15.2193 13.2517" stroke="#161924" stroke-width="1.5" stroke-linecap="round" stroke-linejoin="round"/>
</svg>
