<svg width="24" height="24" viewBox="0 0 24 24" fill="none" xmlns="http://www.w3.org/2000/svg">
<path d="M15.5015 13.5008L16.1757 12.8265C16.706 12.295 17.4258 11.9963 18.1766 11.9963C18.9273 11.9963 19.6472 12.295 20.1774 12.8265V12.8265C20.7089 13.3567 21.0076 14.0766 21.0076 14.8274C21.0076 15.5781 20.7089 16.298 20.1774 16.8282L19.5031 17.5025" stroke="#161924" stroke-width="1.5" stroke-linecap="round" stroke-linejoin="round"/>
<path d="M13.5006 15.5015L12.8263 16.1757C11.7213 17.2808 11.7213 19.0724 12.8263 20.1774C13.9314 21.2824 15.723 21.2824 16.828 20.1774L17.5023 19.5031" stroke="#161924" stroke-width="1.5" stroke-linecap="round" stroke-linejoin="round"/>
<path d="M8.99872 21.0038H6.99788C4.78782 21.0038 2.99622 19.2122 2.99622 17.0022V6.998C2.99622 4.78795 4.78782 2.99634 6.99788 2.99634H17.002C19.2121 2.99634 21.0037 4.78795 21.0037 6.998V8.99884" stroke="#161924" stroke-width="1.5" stroke-linecap="round" stroke-linejoin="round"/>
<path d="M6.99792 8.99899H10.9996" stroke="#161924" stroke-width="1.5" stroke-linecap="round" stroke-linejoin="round"/>
<path d="M8.99874 10.9997V6.99805" stroke="#161924" stroke-width="1.5" stroke-linecap="round" stroke-linejoin="round"/>
<path d="M18.2526 14.7512L14.7512 18.2527" stroke="#161924" stroke-width="1.5" stroke-linecap="round" stroke-linejoin="round"/>
</svg>
