<svg width="24" height="24" viewBox="0 0 24 24" fill="none" xmlns="http://www.w3.org/2000/svg">
<path d="M19.3401 9.07096L20.0814 8.32965C20.6927 7.71874 21.0258 6.88335 21.0027 6.01945C20.9797 5.15555 20.6024 4.33914 19.9593 3.76175C18.6415 2.6593 16.6951 2.76508 15.5045 4.00385L14.8892 4.6201" stroke="#161924" stroke-width="1.5" stroke-linecap="round" stroke-linejoin="round"/>
<path d="M12.6633 6.84595L11.922 7.58726C11.3107 8.19817 10.9776 9.03355 11.0006 9.89746C11.0237 10.7614 11.401 11.5778 12.044 12.1552C13.362 13.2578 15.3088 13.1516 16.4989 11.9121L17.1142 11.2968" stroke="#161924" stroke-width="1.5" stroke-linecap="round" stroke-linejoin="round"/>
<path d="M21.0037 12.0001V17.0022C21.0037 19.2122 19.2121 21.0038 17.002 21.0038H6.99788C4.78782 21.0038 2.99622 19.2122 2.99622 17.0022V6.998C2.99622 4.78795 4.78782 2.99634 6.99788 2.99634H12" stroke="#161924" stroke-width="1.5" stroke-linecap="round" stroke-linejoin="round"/>
<path d="M17.8554 6.10376L14.1479 9.8123" stroke="#161924" stroke-width="1.5" stroke-linecap="round" stroke-linejoin="round"/>
</svg>
