<svg width="24" height="24" viewBox="0 0 24 24" fill="none" xmlns="http://www.w3.org/2000/svg">
<path d="M8.99872 13.0006H6.99788C4.78782 13.0006 2.99622 11.209 2.99622 8.99898V8.99898C2.99622 6.78892 4.78782 4.99731 6.99788 4.99731H8.99872" stroke="#161924" stroke-width="1.5" stroke-linecap="round" stroke-linejoin="round"/>
<path d="M14.0009 4.99731H16.0017C18.2117 4.99731 20.0034 6.78892 20.0034 8.99898" stroke="#161924" stroke-width="1.5" stroke-linecap="round" stroke-linejoin="round"/>
<path d="M6.99792 8.99899H15.0013" stroke="#161924" stroke-width="1.5" stroke-linecap="round" stroke-linejoin="round"/>
<path d="M16.5019 12C18.9882 12 21.0037 14.0156 21.0037 16.5019C21.0037 18.9882 18.9882 21.0037 16.5019 21.0037C14.0156 21.0037 12 18.9882 12 16.5019C12 14.0156 14.0156 12 16.5019 12" stroke="#161924" stroke-width="1.5" stroke-linecap="round" stroke-linejoin="round"/>
<path d="M15.3294 16.5019C15.3294 16.5295 15.307 16.5519 15.2794 16.5519C15.2518 16.5519 15.2294 16.5295 15.2294 16.5019C15.2294 16.4743 15.2518 16.4519 15.2794 16.4519" stroke="#161924" stroke-width="1.5" stroke-linecap="round" stroke-linejoin="round"/>
<path d="M15.2793 16.452C15.307 16.452 15.3294 16.4744 15.3294 16.502" stroke="#161924" stroke-width="1.5" stroke-linecap="round" stroke-linejoin="round"/>
<path d="M17.7744 16.5019C17.7744 16.5295 17.752 16.5519 17.7244 16.5519C17.6968 16.5519 17.6744 16.5295 17.6744 16.5019C17.6744 16.4743 17.6968 16.4519 17.7244 16.4519" stroke="#161924" stroke-width="1.5" stroke-linecap="round" stroke-linejoin="round"/>
<path d="M17.7244 16.452C17.752 16.452 17.7744 16.4744 17.7744 16.502" stroke="#161924" stroke-width="1.5" stroke-linecap="round" stroke-linejoin="round"/>
</svg>
