<svg width="24" height="24" viewBox="0 0 24 24" fill="none" xmlns="http://www.w3.org/2000/svg">
<path fill-rule="evenodd" clip-rule="evenodd" d="M19.0029 12H14.0008C12.8958 12 12 12.8958 12 14.0008V19.0029C12 20.1079 12.8958 21.0037 14.0008 21.0037H19.0029C20.1079 21.0037 21.0037 20.1079 21.0037 19.0029V14.0008C21.0037 12.8958 20.1079 12 19.0029 12Z" stroke="#161924" stroke-width="1.5" stroke-linecap="round" stroke-linejoin="round"/>
<path d="M15.1783 14.8243C15.2757 14.9221 15.2756 15.0803 15.178 15.1779C15.0803 15.2754 14.9221 15.2754 14.8244 15.1779C14.7268 15.0803 14.7266 14.9221 14.8241 14.8243C14.871 14.7773 14.9347 14.7508 15.0012 14.7508C15.0676 14.7508 15.1313 14.7773 15.1783 14.8243" stroke="#161924" stroke-width="1.5" stroke-linecap="round" stroke-linejoin="round"/>
<path d="M21.0038 16.0517C20.7968 16.0203 20.5879 16.0036 20.3785 16.0017C17.9613 16.0017 16.0017 17.9613 16.0017 20.3785V20.3785C16.0032 20.5879 16.0199 20.7969 16.0517 21.0038" stroke="#161924" stroke-width="1.5" stroke-linecap="round" stroke-linejoin="round"/>
<path d="M8.99872 13.0006H6.99788C4.78782 13.0006 2.99622 11.209 2.99622 8.99898V8.99898C2.99622 6.78892 4.78782 4.99731 6.99788 4.99731H8.99872" stroke="#161924" stroke-width="1.5" stroke-linecap="round" stroke-linejoin="round"/>
<path d="M14.0009 4.99731H16.0017C18.2117 4.99731 20.0034 6.78892 20.0034 8.99898V8.99898" stroke="#161924" stroke-width="1.5" stroke-linecap="round" stroke-linejoin="round"/>
<path d="M6.99792 8.99899H15.0013" stroke="#161924" stroke-width="1.5" stroke-linecap="round" stroke-linejoin="round"/>
</svg>
