<svg width="24" height="24" viewBox="0 0 24 24" fill="none" xmlns="http://www.w3.org/2000/svg">
<g clip-path="url(#clip0_2_10150)">
<path d="M8.33334 9H14.749C15.1522 9 15.5306 9.19446 15.7653 9.52225C16 9.85004 16.0622 10.2709 15.9324 10.6526L15.1395 12.9831C14.9327 13.5911 14.3617 14 13.7195 14H10.4374C9.70411 14 9.07833 13.4699 8.95778 12.7466L8 7" stroke="#161924" stroke-width="1.5" stroke-linecap="round" stroke-linejoin="round"/>
<rect x="3" y="3" width="18" height="18" rx="5" stroke="#161924" stroke-width="1.5" stroke-linecap="round" stroke-linejoin="round"/>
<path d="M14.5355 16.4147C14.5549 16.4343 14.5548 16.4659 14.5353 16.4854C14.5157 16.5048 14.4841 16.5048 14.4646 16.4853C14.4451 16.4658 14.4451 16.4342 14.4646 16.4147C14.484 16.3951 14.5156 16.395 14.5352 16.4145L14.5355 16.4147" stroke="#161924" stroke-width="1.5" stroke-linecap="round" stroke-linejoin="round"/>
<path d="M9.5355 16.4147C9.55492 16.4343 9.55482 16.4659 9.53528 16.4854C9.51574 16.5048 9.48414 16.5048 9.46464 16.4853C9.44515 16.4658 9.44511 16.4342 9.46457 16.4147C9.48403 16.3951 9.51563 16.395 9.53521 16.4145L9.5355 16.4147" stroke="#161924" stroke-width="1.5" stroke-linecap="round" stroke-linejoin="round"/>
</g>
<defs>
<clipPath id="clip0_2_10150">
<rect width="24" height="24" fill="white"/>
</clipPath>
</defs>
</svg>
