<svg width="24" height="24" viewBox="0 0 24 24" fill="none" xmlns="http://www.w3.org/2000/svg">
<g clip-path="url(#clip0_2_10486)">
<path d="M11 3H6C4.34315 3 3 4.34315 3 6V9" stroke="#161924" stroke-width="1.5" stroke-linecap="round" stroke-linejoin="round"/>
<path d="M16 21H18C19.6569 21 21 19.6569 21 18V12" stroke="#161924" stroke-width="1.5" stroke-linecap="round" stroke-linejoin="round"/>
<path d="M6 15C6 16.1046 6.89543 17 8 17C9.10457 17 10 16.1046 10 15" stroke="#161924" stroke-width="1.5" stroke-linecap="round" stroke-linejoin="round"/>
<rect x="3" y="12" width="10" height="9" rx="2.5" stroke="#161924" stroke-width="1.5" stroke-linecap="round" stroke-linejoin="round"/>
<path d="M17.501 5.25001C17.6389 5.25056 17.7504 5.36273 17.75 5.50067C17.7496 5.63861 17.6376 5.75019 17.4997 5.75C17.3617 5.74982 17.25 5.63795 17.25 5.50001C17.2496 5.43342 17.276 5.36947 17.3232 5.32248C17.3704 5.27549 17.4344 5.24939 17.501 5.25001" stroke="#161924" stroke-width="1.5" stroke-linecap="round" stroke-linejoin="round"/>
<path d="M14 5.5V5.5C14 3.567 15.567 2 17.5 2V2C19.433 2 21 3.567 21 5.5V5.5" stroke="#161924" stroke-width="1.5" stroke-linecap="round" stroke-linejoin="round"/>
<path d="M14 5.5C14 7.16118 15.8561 8.93784 16.8647 9.78117C17.2374 10.0728 17.761 10.073 18.1339 9.78151C19.1435 8.93828 21 7.16139 21 5.5" stroke="#161924" stroke-width="1.5" stroke-linecap="round" stroke-linejoin="round"/>
</g>
<defs>
<clipPath id="clip0_2_10486">
<rect width="24" height="24" fill="white"/>
</clipPath>
</defs>
</svg>
