<svg width="24" height="24" viewBox="0 0 24 24" fill="none" xmlns="http://www.w3.org/2000/svg">
<g clip-path="url(#clip0_2_10302)">
<path d="M3 20H12" stroke="#161924" stroke-width="1.5" stroke-linecap="round" stroke-linejoin="round"/>
<path d="M3.99995 20.0001L4.00005 9.98755" stroke="#161924" stroke-width="1.5" stroke-linecap="round" stroke-linejoin="round"/>
<path fill-rule="evenodd" clip-rule="evenodd" d="M21.7246 6.47765C22.0197 7.03345 22.0783 7.68474 21.8873 8.28433C21.5568 9.32453 20.5807 10.0228 19.4895 9.99943C18.3983 9.9761 17.4529 9.23678 17.1672 8.18341C17.1491 8.12223 17.0929 8.08025 17.0291 8.08025C16.9653 8.08025 16.9091 8.12223 16.8909 8.18341C16.5992 9.25555 15.6256 9.99951 14.5145 9.99939C13.4033 9.99927 12.4299 9.2551 12.1384 8.1829C12.1203 8.12169 12.0641 8.07968 12.0003 8.07968C11.9365 8.07968 11.8803 8.12169 11.8622 8.1829C11.5705 9.2551 10.597 9.99918 9.4858 9.99914C8.37464 9.9991 7.40114 9.25495 7.10955 8.18273C7.09142 8.12156 7.03522 8.0796 6.97142 8.0796C6.90763 8.0796 6.85142 8.12156 6.83329 8.18273C6.54756 9.23599 5.60222 9.97521 4.51114 9.99858C3.42006 10.0219 2.44394 9.32387 2.11337 8.28381C1.92224 7.68412 1.9809 7.0327 2.27609 6.47681L3.98281 3.09822C4.32305 2.4247 5.01339 2 5.76797 2H18.2323C18.9869 2 19.6772 2.4247 20.0174 3.09822L21.7246 6.47765Z" stroke="#161924" stroke-width="1.5" stroke-linecap="round" stroke-linejoin="round"/>
<path d="M15 16.5C15 18.1385 16.788 19.8888 17.808 20.7544C18.2108 21.0819 18.7882 21.0819 19.191 20.7544C20.212 19.8888 22 18.1385 22 16.5" stroke="#161924" stroke-width="1.5" stroke-linecap="round" stroke-linejoin="round"/>
<path d="M18.5002 16.45C18.5278 16.4501 18.5501 16.4725 18.55 16.5001C18.5499 16.5277 18.5275 16.55 18.4999 16.55C18.4723 16.55 18.45 16.5276 18.45 16.5C18.4499 16.4867 18.4552 16.4739 18.4646 16.4645C18.4741 16.4551 18.4869 16.4499 18.5002 16.45" stroke="#161924" stroke-width="1.5" stroke-linecap="round" stroke-linejoin="round"/>
<path d="M15 16.5V16.5C15 14.567 16.567 13 18.5 13V13C20.433 13 22 14.567 22 16.5V16.5" stroke="#161924" stroke-width="1.5" stroke-linecap="round" stroke-linejoin="round"/>
<path d="M11 13H8V16H10" stroke="#161924" stroke-width="1.5" stroke-linecap="round" stroke-linejoin="round"/>
</g>
<defs>
<clipPath id="clip0_2_10302">
<rect width="24" height="24" fill="white"/>
</clipPath>
</defs>
</svg>
