<svg width="24" height="24" viewBox="0 0 24 24" fill="none" xmlns="http://www.w3.org/2000/svg">
<g clip-path="url(#clip0_2_10795)">
<path d="M21 16V19C21 20.1046 20.1046 21 19 21H17" stroke="#161924" stroke-width="1.5" stroke-linecap="round" stroke-linejoin="round"/>
<path d="M3 9V5C3 3.89543 3.89543 3 5 3H7" stroke="#161924" stroke-width="1.5" stroke-linecap="round" stroke-linejoin="round"/>
<path d="M13.5 6.3999C13.5 7.50447 14.3954 8.3999 15.5 8.3999C16.6046 8.3999 17.5 7.50447 17.5 6.3999" stroke="#161924" stroke-width="1.5" stroke-linecap="round" stroke-linejoin="round"/>
<path d="M10 9V5.75C10 4.23122 11.2312 3 12.75 3H18.25C19.7688 3 21 4.23122 21 5.75V10.15C21 11.6688 19.7688 12.9 18.25 12.9H17" stroke="#161924" stroke-width="1.5" stroke-linecap="round" stroke-linejoin="round"/>
<path d="M6.02539 15.3L7.94558 16.2702C8.29521 16.4433 8.70565 16.4433 9.05527 16.2702L10.9754 15.3" stroke="#161924" stroke-width="1.5" stroke-linecap="round" stroke-linejoin="round"/>
<rect x="3" y="12" width="11" height="9" rx="2.25" stroke="#161924" stroke-width="1.5" stroke-linecap="round" stroke-linejoin="round"/>
</g>
<defs>
<clipPath id="clip0_2_10795">
<rect width="24" height="24" fill="white"/>
</clipPath>
</defs>
</svg>
