<svg width="24" height="24" viewBox="0 0 24 24" fill="none" xmlns="http://www.w3.org/2000/svg">
<g clip-path="url(#clip0_2_10452)">
<path d="M9 21H6C4.89543 21 4 20.1046 4 19V9C4 7.89543 4.89543 7 6 7H18C19.1046 7 20 7.89543 20 9V10" stroke="#161924" stroke-width="1.5" stroke-linecap="round" stroke-linejoin="round"/>
<path d="M15.5 7V6C15.5 4.067 13.933 2.5 12 2.5V2.5C10.067 2.5 8.5 4.067 8.5 6V6V7" stroke="#161924" stroke-width="1.5" stroke-linecap="round" stroke-linejoin="round"/>
<path d="M14 15C14 16.1046 14.8954 17 16 17C17.1046 17 18 16.1046 18 15" stroke="#161924" stroke-width="1.5" stroke-linecap="round" stroke-linejoin="round"/>
<rect x="11" y="12" width="10" height="9" rx="2.5" stroke="#161924" stroke-width="1.5" stroke-linecap="round" stroke-linejoin="round"/>
</g>
<defs>
<clipPath id="clip0_2_10452">
<rect width="24" height="24" fill="white"/>
</clipPath>
</defs>
</svg>
