<svg width="24" height="24" viewBox="0 0 24 24" fill="none" xmlns="http://www.w3.org/2000/svg">
<g clip-path="url(#clip0_2_10052)">
<path d="M16 21H18C18.5305 21.0001 19.0393 20.7895 19.4144 20.4144C19.7895 20.0393 20.0001 19.5305 20 19V8.5C19.9997 7.6717 19.3283 7.0003 18.5 7H5.5C4.6717 7.0003 4.0003 7.6717 4 8.5V17" stroke="#161924" stroke-width="1.5" stroke-linecap="round" stroke-linejoin="round"/>
<path d="M8.5 7V6C8.5 4.067 10.067 2.5 12 2.5V2.5C13.933 2.5 15.5 4.067 15.5 6V6V7" stroke="#161924" stroke-width="1.5" stroke-linecap="round" stroke-linejoin="round"/>
<path fill-rule="evenodd" clip-rule="evenodd" d="M9.29289 18.3344L12.3344 15.2929C12.5219 15.1054 12.7763 15 13.0415 15C13.3067 15 13.5611 15.1054 13.7486 15.2929L14.7071 16.2514C15.0976 16.6419 15.0976 17.2751 14.7071 17.6656L11.6656 20.7071C11.4781 20.8946 11.2237 21 10.9585 21H9.25C9.11193 21 9 20.8881 9 20.75V19.0415C9 18.7763 9.10536 18.522 9.29289 18.3344Z" stroke="#161924" stroke-width="1.5" stroke-linecap="round" stroke-linejoin="round"/>
<path d="M5.55 21.0001C5.54997 21.0277 5.52758 21.05 5.49998 21.05C5.47238 21.05 5.45001 21.0276 5.45 21C5.44999 20.9724 5.47234 20.95 5.49994 20.95C5.51322 20.95 5.52596 20.9553 5.53536 20.9646C5.54475 20.974 5.55002 20.9868 5.55 21.0001" stroke="#161924" stroke-width="1.5" stroke-linecap="round" stroke-linejoin="round"/>
<path d="M2.55 21.0001C2.54997 21.0277 2.52758 21.05 2.49998 21.05C2.47238 21.05 2.45001 21.0276 2.45 21C2.44999 20.9724 2.47234 20.95 2.49994 20.95C2.51322 20.95 2.52596 20.9553 2.53536 20.9646C2.54475 20.974 2.55002 20.9868 2.55 21.0001" stroke="#161924" stroke-width="1.5" stroke-linecap="round" stroke-linejoin="round"/>
</g>
<defs>
<clipPath id="clip0_2_10052">
<rect width="24" height="24" fill="white"/>
</clipPath>
</defs>
</svg>
