<svg width="24" height="24" viewBox="0 0 24 24" fill="none" xmlns="http://www.w3.org/2000/svg">
<g clip-path="url(#clip0_2_10805)">
<path d="M7.5 7.25H8.758L9.759 12.25H14.804L15.5 8.75H9.058" stroke="#161924" stroke-width="1.5" stroke-linecap="round" stroke-linejoin="round"/>
<path d="M10.2648 14.65C10.2924 14.6501 10.3147 14.6725 10.3146 14.7001C10.3146 14.7277 10.2922 14.75 10.2646 14.75C10.237 14.7499 10.2146 14.7275 10.2146 14.7C10.2146 14.6866 10.2199 14.6738 10.2293 14.6645C10.2387 14.6551 10.2515 14.6498 10.2648 14.65" stroke="#161924" stroke-width="1.5" stroke-linecap="round" stroke-linejoin="round"/>
<path d="M14.2932 14.65C14.3207 14.6501 14.343 14.6725 14.343 14.7001C14.3429 14.7277 14.3205 14.75 14.2929 14.75C14.2653 14.7499 14.243 14.7275 14.243 14.7C14.2429 14.6866 14.2482 14.6738 14.2576 14.6645C14.267 14.6551 14.2798 14.6498 14.2932 14.65" stroke="#161924" stroke-width="1.5" stroke-linecap="round" stroke-linejoin="round"/>
<path fill-rule="evenodd" clip-rule="evenodd" d="M9.58582 19L11.2929 20.7071C11.6834 21.0976 12.3166 21.0976 12.7071 20.7071L14.4142 19H18C19.6569 19 21 17.6569 21 16V6C21 4.34315 19.6569 3 18 3H6C4.34315 3 3 4.34315 3 6V16C3 17.6569 4.34315 19 6 19H9.58582Z" stroke="#161924" stroke-width="1.5" stroke-linecap="round" stroke-linejoin="round"/>
</g>
<defs>
<clipPath id="clip0_2_10805">
<rect width="24" height="24" fill="white"/>
</clipPath>
</defs>
</svg>
