<svg width="24" height="24" viewBox="0 0 24 24" fill="none" xmlns="http://www.w3.org/2000/svg">
<g clip-path="url(#clip0_2_10173)">
<path d="M4 15V16C4 17.1046 4.89543 18 6 18H9" stroke="#161924" stroke-width="1.5" stroke-linecap="round" stroke-linejoin="round"/>
<path d="M7.5 16.5L9 18L7.5 19.5" stroke="#161924" stroke-width="1.5" stroke-linecap="round" stroke-linejoin="round"/>
<path d="M15 7H3" stroke="#161924" stroke-width="1.5" stroke-linecap="round" stroke-linejoin="round"/>
<rect x="12.0498" y="12" width="9.9" height="9" rx="2.5" stroke="#161924" stroke-width="1.5" stroke-linecap="round" stroke-linejoin="round"/>
<path d="M15 15C15 16.1046 15.8954 17 17 17C18.1046 17 19 16.1046 19 15" stroke="#161924" stroke-width="1.5" stroke-linecap="round" stroke-linejoin="round"/>
<path d="M15 9V5.25C15 4.00736 13.9926 3 12.75 3H5.25C4.00736 3 3 4.00736 3 5.25V9.75C3 10.9926 4.00736 12 5.25 12H10" stroke="#161924" stroke-width="1.5" stroke-linecap="round" stroke-linejoin="round"/>
</g>
<defs>
<clipPath id="clip0_2_10173">
<rect width="24" height="24" fill="white"/>
</clipPath>
</defs>
</svg>
