<svg width="24" height="24" viewBox="0 0 24 24" fill="none" xmlns="http://www.w3.org/2000/svg">
<g clip-path="url(#clip0_2_10578)">
<path d="M16 21H18C19.6569 21 21 19.6569 21 18V8.50931C21 7.71366 20.6839 6.95061 20.1213 6.388L17.612 3.87868C17.0494 3.31607 16.2863 3 15.4907 3H8C6.34315 3 5 4.34315 5 6V9" stroke="#161924" stroke-width="1.5" stroke-linecap="round" stroke-linejoin="round"/>
<path d="M21 8.5H17.5C16.3954 8.5 15.5 7.60457 15.5 6.5V3" stroke="#161924" stroke-width="1.5" stroke-linecap="round" stroke-linejoin="round"/>
<path d="M6 15C6 16.1046 6.89543 17 8 17C9.10457 17 10 16.1046 10 15" stroke="#161924" stroke-width="1.5" stroke-linecap="round" stroke-linejoin="round"/>
<rect x="3" y="12" width="10" height="9" rx="2.5" stroke="#161924" stroke-width="1.5" stroke-linecap="round" stroke-linejoin="round"/>
</g>
<defs>
<clipPath id="clip0_2_10578">
<rect width="24" height="24" fill="white"/>
</clipPath>
</defs>
</svg>
