<svg width="24" height="24" viewBox="0 0 24 24" fill="none" xmlns="http://www.w3.org/2000/svg">
<g clip-path="url(#clip0_2_10439)">
<path d="M16 13H18.5C19.8807 13 21 11.8807 21 10.5V5.5C21 4.11929 19.8807 3 18.5 3H11.5C10.1193 3 9 4.11929 9 5.5V9" stroke="#161924" stroke-width="1.5" stroke-linecap="round" stroke-linejoin="round"/>
<path d="M17 6.5C17 7.60457 16.1046 8.5 15 8.5C13.8954 8.5 13 7.60457 13 6.5" stroke="#161924" stroke-width="1.5" stroke-linecap="round" stroke-linejoin="round"/>
<path d="M17 20L20 17" stroke="#161924" stroke-width="1.5" stroke-linecap="round" stroke-linejoin="round"/>
<path d="M17 17V20H20" stroke="#161924" stroke-width="1.5" stroke-linecap="round" stroke-linejoin="round"/>
<path d="M8 21V19" stroke="#161924" stroke-width="1.5" stroke-linecap="round" stroke-linejoin="round"/>
<path d="M3 21H13" stroke="#161924" stroke-width="1.5" stroke-linecap="round" stroke-linejoin="round"/>
<path d="M12 21V15.8657" stroke="#161924" stroke-width="1.5" stroke-linecap="round" stroke-linejoin="round"/>
<path d="M4 21V15.8655" stroke="#161924" stroke-width="1.5" stroke-linecap="round" stroke-linejoin="round"/>
<path d="M4.64521 15.9997C5.13622 15.9994 5.60091 15.7776 5.90987 15.396C5.9964 15.2503 6.1533 15.161 6.32274 15.161C6.49218 15.161 6.64908 15.2503 6.7356 15.396C7.04443 15.7778 7.50921 15.9996 8.00026 15.9996C8.49132 15.9996 8.95609 15.7778 9.26492 15.396C9.35145 15.2503 9.50834 15.161 9.67778 15.161C9.84722 15.161 10.0041 15.2503 10.0906 15.396C10.3996 15.7776 10.8643 15.9994 11.3553 15.9996C12.1161 15.9941 12.7758 15.4723 12.9564 14.7333C13.0426 14.3661 12.9903 13.9801 12.8095 13.6491L12.3929 12.8243C12.1376 12.3188 11.6194 12 11.0531 12H4.94732C4.38136 12 3.86359 12.3185 3.60842 12.8237L3.19135 13.6494C3.01056 13.9804 2.95825 14.3665 3.04444 14.7337C3.22507 15.4727 3.8848 15.9945 4.64558 16" stroke="#161924" stroke-width="1.5" stroke-linecap="round" stroke-linejoin="round"/>
</g>
<defs>
<clipPath id="clip0_2_10439">
<rect width="24" height="24" fill="white"/>
</clipPath>
</defs>
</svg>
