<svg width="24" height="24" viewBox="0 0 24 24" fill="none" xmlns="http://www.w3.org/2000/svg">
<g clip-path="url(#clip0_2_10407)">
<path d="M8.5 8C8.5 9.933 10.067 11.5 12 11.5C13.933 11.5 15.5 9.933 15.5 8" stroke="#161924" stroke-width="1.5" stroke-linecap="round" stroke-linejoin="round"/>
<path d="M11 20H7.90909C5.19788 20 3.00001 17.8021 3 15.0909V7.9091C2.99999 6.60713 3.5172 5.35848 4.43783 4.43784C5.35847 3.5172 6.60712 3 7.90909 3H16.0909C17.3929 3 18.6415 3.5172 19.5622 4.43784C20.4828 5.35848 21 6.60713 21 7.9091V11.0909" stroke="#161924" stroke-width="1.5" stroke-linecap="round" stroke-linejoin="round"/>
<circle cx="18" cy="17.5" r="4" stroke="#161924" stroke-width="1.5" stroke-linecap="round" stroke-linejoin="round"/>
<path d="M19.2502 17.5001C19.2502 17.5277 19.2278 17.55 19.2002 17.55C19.1726 17.55 19.1502 17.5276 19.1502 17.5C19.1502 17.4724 19.1726 17.45 19.2002 17.45C19.2278 17.45 19.2502 17.4723 19.2502 17.4999V17.5001" stroke="#161924" stroke-width="1.5" stroke-linecap="round" stroke-linejoin="round"/>
<path d="M16.8498 17.5001C16.8498 17.5277 16.8274 17.55 16.7998 17.55C16.7722 17.55 16.7498 17.5276 16.7498 17.5C16.7498 17.4724 16.7722 17.45 16.7998 17.45C16.8274 17.45 16.8498 17.4723 16.8498 17.4999V17.5001" stroke="#161924" stroke-width="1.5" stroke-linecap="round" stroke-linejoin="round"/>
</g>
<defs>
<clipPath id="clip0_2_10407">
<rect width="24" height="24" fill="white"/>
</clipPath>
</defs>
</svg>
