<svg width="24" height="24" viewBox="0 0 24 24" fill="none" xmlns="http://www.w3.org/2000/svg">
<g clip-path="url(#clip0_2_10925)">
<circle cx="12" cy="12" r="9.5" stroke="#161924" stroke-width="1.5" stroke-linecap="round" stroke-linejoin="round"/>
<path d="M17 10.3333C17.0015 10.9297 16.6841 11.4814 16.1679 11.78C15.6516 12.0787 15.0151 12.0787 14.4988 11.78C13.9826 11.4814 13.6652 10.9297 13.6667 10.3333C13.6667 11.2537 12.9205 11.9999 12 11.9999C11.0795 11.9999 10.3333 11.2537 10.3333 10.3333C10.3348 10.9297 10.0175 11.4814 9.50118 11.78C8.98492 12.0787 8.34842 12.0787 7.83216 11.78C7.31589 11.4814 6.99854 10.9297 7.00001 10.3333" stroke="#161924" stroke-width="1.5" stroke-linecap="round" stroke-linejoin="round"/>
<path d="M17 10.3333V9.51825C17 9.17836 16.9134 8.84408 16.7483 8.54697L16.4604 8.02871C16.1077 7.39378 15.4384 7 14.7121 7H9.28792C8.56158 7 7.89234 7.39378 7.5396 8.02871L7.25169 8.547C7.08663 8.8441 7 9.17837 7 9.51825V10.3333" stroke="#161924" stroke-width="1.5" stroke-linecap="round" stroke-linejoin="round"/>
<path d="M8.11133 15.9999V11.905" stroke="#161924" stroke-width="1.5" stroke-linecap="round" stroke-linejoin="round"/>
<path d="M15.8891 16H8.11133" stroke="#161924" stroke-width="1.5" stroke-linecap="round" stroke-linejoin="round"/>
<path d="M15.8887 11.905V15.9999" stroke="#161924" stroke-width="1.5" stroke-linecap="round" stroke-linejoin="round"/>
<path d="M17 16H7" stroke="#161924" stroke-width="1.5" stroke-linecap="round" stroke-linejoin="round"/>
</g>
<defs>
<clipPath id="clip0_2_10925">
<rect width="24" height="24" fill="white"/>
</clipPath>
</defs>
</svg>
