<svg width="24" height="24" viewBox="0 0 24 24" fill="none" xmlns="http://www.w3.org/2000/svg">
<g clip-path="url(#clip0_2_10651)">
<path d="M21 17V19C21 20.1046 20.1046 21 19 21H17" stroke="#161924" stroke-width="1.5" stroke-linecap="round" stroke-linejoin="round"/>
<path d="M3 9V5C3 3.89543 3.89543 3 5 3H7" stroke="#161924" stroke-width="1.5" stroke-linecap="round" stroke-linejoin="round"/>
<path d="M10 9V5C10 3.89543 10.8954 3 12 3H19C20.1046 3 21 3.89543 21 5V12C21 13.1046 20.1046 14 19 14H16" stroke="#161924" stroke-width="1.5" stroke-linecap="round" stroke-linejoin="round"/>
<path d="M13 7H18" stroke="#161924" stroke-width="1.5" stroke-linecap="round" stroke-linejoin="round"/>
<path d="M16 10H18" stroke="#161924" stroke-width="1.5" stroke-linecap="round" stroke-linejoin="round"/>
<path d="M6 15C6 16.1046 6.89543 17 8 17C9.10457 17 10 16.1046 10 15" stroke="#161924" stroke-width="1.5" stroke-linecap="round" stroke-linejoin="round"/>
<rect x="3" y="12" width="10" height="9" rx="2.5" stroke="#161924" stroke-width="1.5" stroke-linecap="round" stroke-linejoin="round"/>
</g>
<defs>
<clipPath id="clip0_2_10651">
<rect width="24" height="24" fill="white"/>
</clipPath>
</defs>
</svg>
