<svg width="24" height="24" viewBox="0 0 24 24" fill="none" xmlns="http://www.w3.org/2000/svg">
<g clip-path="url(#clip0_2_9967)">
<path d="M18.5 14H5.5C4.67157 14 4 13.3284 4 12.5V5C4 3.89543 4.89543 3 6 3H10" stroke="#161924" stroke-width="1.5" stroke-linecap="round" stroke-linejoin="round"/>
<path fill-rule="evenodd" clip-rule="evenodd" d="M18.9988 21H5.00072C4.37324 21 3.78215 20.7055 3.40427 20.2045C3.02639 19.7036 2.90556 19.0543 3.07791 18.451L4.14222 14.7253C4.26487 14.296 4.65728 14 5.10378 14H18.8958C19.3423 14 19.7347 14.296 19.8573 14.7253L20.9216 18.451C21.094 19.0543 20.9732 19.7036 20.5953 20.2045C20.2174 20.7055 19.6263 21 18.9988 21Z" stroke="#161924" stroke-width="1.5" stroke-linecap="round" stroke-linejoin="round"/>
<path d="M16 5.75C16 6.57843 16.6716 7.25 17.5 7.25C18.3284 7.25 19 6.57843 19 5.75" stroke="#161924" stroke-width="1.5" stroke-linecap="round" stroke-linejoin="round"/>
<rect x="13" y="3" width="9" height="8" rx="1.8" stroke="#161924" stroke-width="1.5" stroke-linecap="round" stroke-linejoin="round"/>
<path d="M8 6H10" stroke="#161924" stroke-width="1.5" stroke-linecap="round" stroke-linejoin="round"/>
<path d="M9 9H10" stroke="#161924" stroke-width="1.5" stroke-linecap="round" stroke-linejoin="round"/>
<path d="M10 18H14" stroke="#161924" stroke-width="1.5" stroke-linecap="round" stroke-linejoin="round"/>
</g>
<defs>
<clipPath id="clip0_2_9967">
<rect width="24" height="24" fill="white"/>
</clipPath>
</defs>
</svg>
