<svg width="24" height="24" viewBox="0 0 24 24" fill="none" xmlns="http://www.w3.org/2000/svg">
<g clip-path="url(#clip0_2_10587)">
<path d="M8.5 8C8.5 9.933 10.067 11.5 12 11.5C13.933 11.5 15.5 9.933 15.5 8" stroke="#161924" stroke-width="1.5" stroke-linecap="round" stroke-linejoin="round"/>
<path d="M11 20H7.90909C5.19788 20 3.00001 17.8021 3 15.0909V7.9091C2.99999 6.60713 3.5172 5.35848 4.43783 4.43784C5.35847 3.5172 6.60712 3 7.90909 3H16.0909C17.3929 3 18.6415 3.5172 19.5622 4.43784C20.4828 5.35848 21 6.60713 21 7.9091V11.0909" stroke="#161924" stroke-width="1.5" stroke-linecap="round" stroke-linejoin="round"/>
<circle cx="18" cy="17.5" r="4" stroke="#161924" stroke-width="1.5" stroke-linecap="round" stroke-linejoin="round"/>
<path d="M19.249 17.2222L17.999 18.2222L16.749 17.2222" stroke="#161924" stroke-width="1.5" stroke-linecap="round" stroke-linejoin="round"/>
</g>
<defs>
<clipPath id="clip0_2_10587">
<rect width="24" height="24" fill="white"/>
</clipPath>
</defs>
</svg>
