<svg width="24" height="24" viewBox="0 0 24 24" fill="none" xmlns="http://www.w3.org/2000/svg">
<g clip-path="url(#clip0_2_10377)">
<path d="M2 11H4" stroke="#161924" stroke-width="1.5" stroke-linecap="round" stroke-linejoin="round"/>
<rect x="7.5" y="8" width="9" height="8" rx="2.25" stroke="#161924" stroke-width="1.5" stroke-linecap="round" stroke-linejoin="round"/>
<path d="M3 8V6.5C3 4.567 4.567 3 6.5 3H17.5C19.433 3 21 4.567 21 6.5V17.5C21 19.433 19.433 21 17.5 21H6.5C4.567 21 3 19.433 3 17.5V17" stroke="#161924" stroke-width="1.5" stroke-linecap="round" stroke-linejoin="round"/>
<path d="M10.5 11C10.5 11.8284 11.1716 12.5 12 12.5C12.8284 12.5 13.5 11.8284 13.5 11" stroke="#161924" stroke-width="1.5" stroke-linecap="round" stroke-linejoin="round"/>
<path d="M3 14H4" stroke="#161924" stroke-width="1.5" stroke-linecap="round" stroke-linejoin="round"/>
</g>
<defs>
<clipPath id="clip0_2_10377">
<rect width="24" height="24" fill="white"/>
</clipPath>
</defs>
</svg>
