<svg width="24" height="24" viewBox="0 0 24 24" fill="none" xmlns="http://www.w3.org/2000/svg">
<g clip-path="url(#clip0_2_10477)">
<path d="M21 10V16C21 18.7614 18.7614 21 16 21H8C5.23858 21 3 18.7614 3 16V8C3 5.23858 5.23858 3 8 3H14" stroke="#161924" stroke-width="1.5" stroke-linecap="round" stroke-linejoin="round"/>
<circle cx="19.5" cy="4.5" r="2.5" stroke="#161924" stroke-width="1.5" stroke-linecap="round" stroke-linejoin="round"/>
<path d="M7.65039 8.75H8.90839L9.90939 13.75H14.9544L15.6504 10.25H9.20839" stroke="#161924" stroke-width="1.5" stroke-linecap="round" stroke-linejoin="round"/>
<path d="M14.4779 16.1647C14.4973 16.1843 14.4972 16.2159 14.4777 16.2354C14.4581 16.2548 14.4265 16.2548 14.407 16.2353C14.3875 16.2158 14.3875 16.1842 14.407 16.1647C14.4264 16.1451 14.458 16.145 14.4776 16.1645L14.4779 16.1647" stroke="#161924" stroke-width="1.5" stroke-linecap="round" stroke-linejoin="round"/>
<path d="M10.4496 16.1647C10.469 16.1843 10.4689 16.2159 10.4493 16.2354C10.4298 16.2548 10.3982 16.2548 10.3787 16.2353C10.3592 16.2158 10.3592 16.1842 10.3786 16.1647C10.3981 16.1451 10.4297 16.145 10.4493 16.1645L10.4496 16.1647" stroke="#161924" stroke-width="1.5" stroke-linecap="round" stroke-linejoin="round"/>
</g>
<defs>
<clipPath id="clip0_2_10477">
<rect width="24" height="24" fill="white"/>
</clipPath>
</defs>
</svg>
