<svg width="24" height="24" viewBox="0 0 24 24" fill="none" xmlns="http://www.w3.org/2000/svg">
<g clip-path="url(#clip0_2_10557)">
<path d="M10.5 11C10.5 11.8284 11.1716 12.5 12 12.5C12.8284 12.5 13.5 11.8284 13.5 11" stroke="#161924" stroke-width="1.5" stroke-linecap="round" stroke-linejoin="round"/>
<rect x="7.5" y="8" width="9" height="8" rx="2.25" stroke="#161924" stroke-width="1.5" stroke-linecap="round" stroke-linejoin="round"/>
<path d="M18 5.999L20.5 3.5" stroke="#161924" stroke-width="1.5" stroke-linecap="round" stroke-linejoin="round"/>
<path d="M18 3.50098L20.5 5.99998" stroke="#161924" stroke-width="1.5" stroke-linecap="round" stroke-linejoin="round"/>
<path d="M14.5 3.36823C13.6885 3.12686 12.8466 3.00286 12 3C7.02944 3 3 7.02944 3 12C3 16.9706 7.02944 21 12 21C16.9706 21 21 16.9706 21 12C20.9971 11.1534 20.8731 10.3115 20.6318 9.5" stroke="#161924" stroke-width="1.5" stroke-linecap="round" stroke-linejoin="round"/>
</g>
<defs>
<clipPath id="clip0_2_10557">
<rect width="24" height="24" fill="white"/>
</clipPath>
</defs>
</svg>
