<svg width="24" height="24" viewBox="0 0 24 24" fill="none" xmlns="http://www.w3.org/2000/svg">
<g clip-path="url(#clip0_2_9998)">
<path d="M8.50191 3.10181V4.90044C8.47697 5.20313 8.6993 5.46992 9.00153 5.49998H12.9985C13.3007 5.46992 13.523 5.20313 13.4981 4.90044V3.10181" stroke="#161924" stroke-width="1.5" stroke-linecap="round" stroke-linejoin="round"/>
<path d="M8 21H7C5.89543 21 5 20.1046 5 19V5C5 3.89543 5.89543 3 7 3H15C16.1046 3 17 3.89543 17 5V10" stroke="#161924" stroke-width="1.5" stroke-linecap="round" stroke-linejoin="round"/>
<path d="M14 15.75C14 16.5784 14.6716 17.25 15.5 17.25C16.3284 17.25 17 16.5784 17 15.75" stroke="#161924" stroke-width="1.5" stroke-linecap="round" stroke-linejoin="round"/>
<rect x="11" y="13" width="9" height="8" rx="1.8" stroke="#161924" stroke-width="1.5" stroke-linecap="round" stroke-linejoin="round"/>
</g>
<defs>
<clipPath id="clip0_2_9998">
<rect width="24" height="24" fill="white"/>
</clipPath>
</defs>
</svg>
