<svg width="24" height="24" viewBox="0 0 24 24" fill="none" xmlns="http://www.w3.org/2000/svg">
<g clip-path="url(#clip0_2_10007)">
<path d="M5 3C4.46952 2.99985 3.96073 3.21052 3.58563 3.58563C3.21052 3.96073 2.99985 4.46952 3 5" stroke="#161924" stroke-width="1.5" stroke-linecap="round" stroke-linejoin="round"/>
<path d="M3 19C2.99985 19.5305 3.21052 20.0393 3.58563 20.4144C3.96073 20.7895 4.46952 21.0001 5 21" stroke="#161924" stroke-width="1.5" stroke-linecap="round" stroke-linejoin="round"/>
<path d="M3 13.6699V15.6699" stroke="#161924" stroke-width="1.5" stroke-linecap="round" stroke-linejoin="round"/>
<path d="M3 8.33008V10.3301" stroke="#161924" stroke-width="1.5" stroke-linecap="round" stroke-linejoin="round"/>
<path d="M8.33008 21H10.3301" stroke="#161924" stroke-width="1.5" stroke-linecap="round" stroke-linejoin="round"/>
<path d="M8.33008 3H10.3301" stroke="#161924" stroke-width="1.5" stroke-linecap="round" stroke-linejoin="round"/>
<path d="M19 21C19.5305 21.0001 20.0393 20.7895 20.4144 20.4144C20.7895 20.0393 21.0001 19.5305 21 19" stroke="#161924" stroke-width="1.5" stroke-linecap="round" stroke-linejoin="round"/>
<path d="M21 5C21.0001 4.46952 20.7895 3.96073 20.4144 3.58563C20.0393 3.21052 19.5305 2.99985 19 3" stroke="#161924" stroke-width="1.5" stroke-linecap="round" stroke-linejoin="round"/>
<path d="M21 10.3301V8.33008" stroke="#161924" stroke-width="1.5" stroke-linecap="round" stroke-linejoin="round"/>
<path d="M21 15.6699V13.6699" stroke="#161924" stroke-width="1.5" stroke-linecap="round" stroke-linejoin="round"/>
<path d="M15.6699 3H13.6699" stroke="#161924" stroke-width="1.5" stroke-linecap="round" stroke-linejoin="round"/>
<path d="M15.6699 21H13.6699" stroke="#161924" stroke-width="1.5" stroke-linecap="round" stroke-linejoin="round"/>
<path fill-rule="evenodd" clip-rule="evenodd" d="M12.2576 7.74927H14.2412C15.3458 7.74927 16.2412 8.6447 16.2412 9.74927V11.7325C16.2412 12.2629 16.0305 12.7716 15.6555 13.1467L12.6391 16.1634C11.8582 16.9444 10.5919 16.9446 9.8108 16.1636L7.82716 14.1804C7.45203 13.8054 7.24126 13.2967 7.24121 12.7662C7.24116 12.2358 7.45185 11.727 7.82691 11.3519L10.8433 8.3351C11.2184 7.95999 11.7272 7.74926 12.2576 7.74927Z" stroke="#161924" stroke-width="1.5" stroke-linecap="round" stroke-linejoin="round"/>
<path d="M13.0852 10.9146C13.1047 10.9342 13.1047 10.9658 13.0851 10.9853C13.0656 11.0048 13.034 11.0048 13.0144 10.9853C12.9949 10.9658 12.9949 10.9341 13.0144 10.9146C13.0339 10.8951 13.0656 10.8951 13.0851 10.9146L13.0852 10.9146" stroke="#161924" stroke-width="1.5" stroke-linecap="round" stroke-linejoin="round"/>
</g>
<defs>
<clipPath id="clip0_2_10007">
<rect width="24" height="24" fill="white"/>
</clipPath>
</defs>
</svg>
