<svg width="24" height="24" viewBox="0 0 24 24" fill="none" xmlns="http://www.w3.org/2000/svg">
<g clip-path="url(#clip0_2_10615)">
<path d="M17.5 20.5L16 19L17.5 17.5" stroke="#161924" stroke-width="1.5" stroke-linecap="round" stroke-linejoin="round"/>
<path d="M16 19H19C20.1046 19 21 18.1046 21 17V16" stroke="#161924" stroke-width="1.5" stroke-linecap="round" stroke-linejoin="round"/>
<path d="M6.5 3.5L8 5L6.5 6.5" stroke="#161924" stroke-width="1.5" stroke-linecap="round" stroke-linejoin="round"/>
<path d="M8 5H5C3.89543 5 3 5.89543 3 7V8" stroke="#161924" stroke-width="1.5" stroke-linecap="round" stroke-linejoin="round"/>
<path d="M6 15C6 16.1046 6.89543 17 8 17C9.10457 17 10 16.1046 10 15" stroke="#161924" stroke-width="1.5" stroke-linecap="round" stroke-linejoin="round"/>
<rect x="3" y="12" width="10" height="9" rx="2.5" stroke="#161924" stroke-width="1.5" stroke-linecap="round" stroke-linejoin="round"/>
<path d="M14 6C14 7.10457 14.8954 8 16 8C17.1046 8 18 7.10457 18 6" stroke="#161924" stroke-width="1.5" stroke-linecap="round" stroke-linejoin="round"/>
<path d="M11 9V5.5C11 4.11929 12.1193 3 13.5 3H18.5C19.8807 3 21 4.11929 21 5.5V9.5C21 10.163 20.7366 10.7989 20.2678 11.2678C19.7989 11.7366 19.163 12 18.5 12H16" stroke="#161924" stroke-width="1.5" stroke-linecap="round" stroke-linejoin="round"/>
</g>
<defs>
<clipPath id="clip0_2_10615">
<rect width="24" height="24" fill="white"/>
</clipPath>
</defs>
</svg>
