<svg width="24" height="24" viewBox="0 0 24 24" fill="none" xmlns="http://www.w3.org/2000/svg">
<g clip-path="url(#clip0_2_10908)">
<path d="M12 21H6C4.89543 21 4 20.1046 4 19V9C4 7.89543 4.89543 7 6 7H18C19.1046 7 20 7.89543 20 9V10" stroke="#161924" stroke-width="1.5" stroke-linecap="round" stroke-linejoin="round"/>
<path d="M15.5 7V6C15.5 4.067 13.933 2.5 12 2.5V2.5C10.067 2.5 8.5 4.067 8.5 6V6V7" stroke="#161924" stroke-width="1.5" stroke-linecap="round" stroke-linejoin="round"/>
<path d="M17.501 16.25C17.6389 16.2506 17.7504 16.3627 17.75 16.5007C17.7496 16.6386 17.6376 16.7502 17.4997 16.75C17.3617 16.7498 17.25 16.6379 17.25 16.5C17.2496 16.4334 17.276 16.3695 17.3232 16.3225C17.3704 16.2755 17.4344 16.2494 17.501 16.25" stroke="#161924" stroke-width="1.5" stroke-linecap="round" stroke-linejoin="round"/>
<path d="M14 16.5V16.5C14 14.567 15.567 13 17.5 13V13C19.433 13 21 14.567 21 16.5V16.5" stroke="#161924" stroke-width="1.5" stroke-linecap="round" stroke-linejoin="round"/>
<path d="M14 16.5C14 18.1612 15.8561 19.9378 16.8647 20.7812C17.2374 21.0728 17.761 21.073 18.1339 20.7815C19.1435 19.9383 21.0001 18.1614 21.0001 16.5" stroke="#161924" stroke-width="1.5" stroke-linecap="round" stroke-linejoin="round"/>
</g>
<defs>
<clipPath id="clip0_2_10908">
<rect width="24" height="24" fill="white"/>
</clipPath>
</defs>
</svg>
