<svg width="24" height="24" viewBox="0 0 24 24" fill="none" xmlns="http://www.w3.org/2000/svg">
<g clip-path="url(#clip0_2_10769)">
<path d="M8.00391 9H16.0039" stroke="#161924" stroke-width="1.5" stroke-linecap="round" stroke-linejoin="round"/>
<path d="M8.99995 15H8.00395" stroke="#161924" stroke-width="1.5" stroke-linecap="round" stroke-linejoin="round"/>
<path d="M8.00391 12H9.99991" stroke="#161924" stroke-width="1.5" stroke-linecap="round" stroke-linejoin="round"/>
<path d="M20 10V4.49752C20 4.11947 19.7868 3.77374 19.449 3.604L18.459 3.10648C18.1785 2.96552 17.8481 2.96446 17.5667 3.10361L15.9942 3.8812L14.4533 3.10713C14.172 2.96581 13.8406 2.96521 13.5588 3.10551L12 3.88151L10.4412 3.10551C10.1594 2.96521 9.82799 2.96581 9.54668 3.10713L8.00578 3.8812L6.4333 3.10361C6.15191 2.96446 5.82151 2.96552 5.54102 3.10648L4.55102 3.604C4.21321 3.77374 4.00001 4.11947 4 4.49752V20C4 20.5523 4.44772 21 5 21H10" stroke="#161924" stroke-width="1.5" stroke-linecap="round" stroke-linejoin="round"/>
<path d="M16 16C16 16.8284 16.6716 17.5 17.5 17.5C18.3284 17.5 19 16.8284 19 16" stroke="#161924" stroke-width="1.5" stroke-linecap="round" stroke-linejoin="round"/>
<rect x="13" y="13" width="9" height="8" rx="2.25" stroke="#161924" stroke-width="1.5" stroke-linecap="round" stroke-linejoin="round"/>
</g>
<defs>
<clipPath id="clip0_2_10769">
<rect width="24" height="24" fill="white"/>
</clipPath>
</defs>
</svg>
