<svg width="24" height="24" viewBox="0 0 24 24" fill="none" xmlns="http://www.w3.org/2000/svg">
<g clip-path="url(#clip0_2_10228)">
<path d="M10 10.5C10 11.6046 10.8954 12.5 12 12.5C13.1046 12.5 14 11.6046 14 10.5" stroke="#161924" stroke-width="1.5" stroke-linecap="round" stroke-linejoin="round"/>
<path d="M17 12V10C17 8.61929 15.8807 7.5 14.5 7.5H9.5C8.11929 7.5 7 8.61929 7 10V14C7 15.3807 8.11929 16.5 9.5 16.5H12" stroke="#161924" stroke-width="1.5" stroke-linecap="round" stroke-linejoin="round"/>
<path d="M11.9317 21H8C5.23858 21 3 18.7614 3 16V8C3 5.23858 5.23858 3 8 3H16C18.7614 3 21 5.23858 21 8V12.1404" stroke="#161924" stroke-width="1.5" stroke-linecap="round" stroke-linejoin="round"/>
<path fill-rule="evenodd" clip-rule="evenodd" d="M21.3871 18.3938L19.6533 19.1225C19.4151 19.2226 19.2255 19.4121 19.1253 19.6503L18.3944 21.3876C18.2304 21.7774 17.839 22.0219 17.4168 21.9982C16.9945 21.9746 16.6329 21.6879 16.5134 21.2823L15.0417 16.2836C14.9384 15.9325 15.0351 15.553 15.2939 15.2942C15.5526 15.0354 15.9321 14.9386 16.2832 15.0419L21.2819 16.5127C21.6876 16.6321 21.9744 16.9939 21.998 17.4161C22.0216 17.8384 21.777 18.2299 21.3871 18.3938Z" stroke="#161924" stroke-width="1.5" stroke-linecap="round" stroke-linejoin="round"/>
</g>
<defs>
<clipPath id="clip0_2_10228">
<rect width="24" height="24" fill="white"/>
</clipPath>
</defs>
</svg>
