<svg width="24" height="24" viewBox="0 0 24 24" fill="none" xmlns="http://www.w3.org/2000/svg">
<g clip-path="url(#clip0_2_10639)">
<path d="M7 14H9" stroke="#161924" stroke-width="1.5" stroke-linecap="round" stroke-linejoin="round"/>
<path d="M8 17H9" stroke="#161924" stroke-width="1.5" stroke-linecap="round" stroke-linejoin="round"/>
<path d="M9 21H5C3.89543 21 3 20.1046 3 19V5C3 3.89543 3.89543 3 5 3H13C14.1046 3 15 3.89543 15 5V10" stroke="#161924" stroke-width="1.5" stroke-linecap="round" stroke-linejoin="round"/>
<path fill-rule="evenodd" clip-rule="evenodd" d="M6.5 3H11.5V5C11.5 5.27614 11.2761 5.5 11 5.5H7C6.72386 5.5 6.5 5.27614 6.5 5V3Z" stroke="#161924" stroke-width="1.5" stroke-linecap="round" stroke-linejoin="round"/>
<path d="M15 15.75C15 16.5784 15.6716 17.25 16.5 17.25C17.3284 17.25 18 16.5784 18 15.75" stroke="#161924" stroke-width="1.5" stroke-linecap="round" stroke-linejoin="round"/>
<rect x="12" y="13" width="9" height="8" rx="2.25" stroke="#161924" stroke-width="1.5" stroke-linecap="round" stroke-linejoin="round"/>
</g>
<defs>
<clipPath id="clip0_2_10639">
<rect width="24" height="24" fill="white"/>
</clipPath>
</defs>
</svg>
