<svg width="24" height="24" viewBox="0 0 24 24" fill="none" xmlns="http://www.w3.org/2000/svg">
<g clip-path="url(#clip0_2_10061)">
<path d="M7.5 15V16.0045" stroke="#161924" stroke-width="1.5" stroke-linecap="round" stroke-linejoin="round"/>
<path d="M7.5 19.9956V21.0001" stroke="#161924" stroke-width="1.5" stroke-linecap="round" stroke-linejoin="round"/>
<path d="M4.9051 16.5001L5.77459 16.9956" stroke="#161924" stroke-width="1.5" stroke-linecap="round" stroke-linejoin="round"/>
<path d="M9.24063 19.0044L10.0953 19.4999" stroke="#161924" stroke-width="1.5" stroke-linecap="round" stroke-linejoin="round"/>
<path d="M4.9051 19.4999L5.77459 19.0044" stroke="#161924" stroke-width="1.5" stroke-linecap="round" stroke-linejoin="round"/>
<path d="M9.24063 16.9956L10.0953 16.5001" stroke="#161924" stroke-width="1.5" stroke-linecap="round" stroke-linejoin="round"/>
<path d="M7.5 16C8.60457 16 9.5 16.8954 9.5 18C9.5 19.1046 8.60457 20 7.5 20C6.39543 20 5.5 19.1046 5.5 18C5.5 16.8954 6.39543 16 7.5 16" stroke="#161924" stroke-width="1.5" stroke-linecap="round" stroke-linejoin="round"/>
<path d="M13 21H18C18.5305 21.0001 19.0393 20.7895 19.4144 20.4144C19.7895 20.0393 20.0001 19.5305 20 19V8.5C19.9997 7.6717 19.3283 7.0003 18.5 7H5.5C4.6717 7.0003 4.0003 7.6717 4 8.5V13" stroke="#161924" stroke-width="1.5" stroke-linecap="round" stroke-linejoin="round"/>
<path d="M8.5 7V6C8.5 4.067 10.067 2.5 12 2.5V2.5C13.933 2.5 15.5 4.067 15.5 6V6V7" stroke="#161924" stroke-width="1.5" stroke-linecap="round" stroke-linejoin="round"/>
</g>
<defs>
<clipPath id="clip0_2_10061">
<rect width="24" height="24" fill="white"/>
</clipPath>
</defs>
</svg>
