<svg width="24" height="24" viewBox="0 0 24 24" fill="none" xmlns="http://www.w3.org/2000/svg">
<g clip-path="url(#clip0_2_10275)">
<path d="M10 21H6C5.46952 21.0001 4.96073 20.7895 4.58563 20.4144C4.21052 20.0393 3.99985 19.5305 4 19V8.5C4.0003 7.6717 4.6717 7.0003 5.5 7H18.5C19.3283 7.0003 19.9997 7.6717 20 8.5V11" stroke="#161924" stroke-width="1.5" stroke-linecap="round" stroke-linejoin="round"/>
<path d="M15.5 7V6C15.5 4.067 13.933 2.5 12 2.5V2.5C10.067 2.5 8.5 4.067 8.5 6V6V7" stroke="#161924" stroke-width="1.5" stroke-linecap="round" stroke-linejoin="round"/>
<path fill-rule="evenodd" clip-rule="evenodd" d="M16.0736 13.476C16.2174 13.1845 16.5142 13 16.8392 13C17.1642 13 17.4609 13.1845 17.6047 13.476L18.2292 14.742C18.3535 14.994 18.5939 15.1687 18.872 15.2091L20.2687 15.4121C20.5902 15.4588 20.8573 15.684 20.9577 15.9929C21.0582 16.3019 20.9745 16.6411 20.742 16.8679L19.731 17.8539C19.53 18.05 19.4382 18.3325 19.4857 18.6093L19.7243 20.0002C19.7793 20.3204 19.6476 20.6441 19.3848 20.8351C19.1219 21.0261 18.7735 21.0513 18.4859 20.9001L17.2363 20.2434C16.9877 20.1127 16.6907 20.1127 16.4421 20.2434L15.1925 20.9001C14.9049 21.0513 14.5564 21.0261 14.2936 20.8351C14.0307 20.6441 13.8991 20.3204 13.954 20.0002L14.1926 18.6093C14.2401 18.3325 14.1484 18.05 13.9473 17.8539L12.9364 16.8679C12.7038 16.6411 12.6201 16.3018 12.7205 15.9929C12.821 15.6839 13.0881 15.4587 13.4097 15.412L14.8064 15.209C15.0845 15.1686 15.3248 14.9939 15.4492 14.7419L16.0736 13.476Z" stroke="#161924" stroke-width="1.5" stroke-linecap="round" stroke-linejoin="round"/>
</g>
<defs>
<clipPath id="clip0_2_10275">
<rect width="24" height="24" fill="white"/>
</clipPath>
</defs>
</svg>
