<svg width="24" height="24" viewBox="0 0 24 24" fill="none" xmlns="http://www.w3.org/2000/svg">
<g clip-path="url(#clip0_2_10336)">
<path d="M2.51367 8H19.4871" stroke="#161924" stroke-width="1.5" stroke-linecap="round" stroke-linejoin="round"/>
<path d="M11 20C8.79086 20 7 15.9706 7 11C7 6.02944 8.79086 2 11 2" stroke="#161924" stroke-width="1.5" stroke-linecap="round" stroke-linejoin="round"/>
<path d="M10.941 14H2.51367" stroke="#161924" stroke-width="1.5" stroke-linecap="round" stroke-linejoin="round"/>
<path d="M11 20C6.02944 20 2 15.9706 2 11C2 6.02944 6.02944 2 11 2" stroke="#161924" stroke-width="1.5" stroke-linecap="round" stroke-linejoin="round"/>
<path d="M15.0584 11C15.0584 6.02944 13.265 2 11.0527 2" stroke="#161924" stroke-width="1.5" stroke-linecap="round" stroke-linejoin="round"/>
<path d="M11 2C15.9706 2 20 6.02944 20 11" stroke="#161924" stroke-width="1.5" stroke-linecap="round" stroke-linejoin="round"/>
<rect x="14" y="14" width="8" height="7" rx="2" stroke="#161924" stroke-width="1.5" stroke-linecap="round" stroke-linejoin="round"/>
<path d="M16.75 16.75C16.75 17.4404 17.3096 18 18 18C18.6904 18 19.25 17.4404 19.25 16.75" stroke="#161924" stroke-width="1.5" stroke-linecap="round" stroke-linejoin="round"/>
</g>
<defs>
<clipPath id="clip0_2_10336">
<rect width="24" height="24" fill="white"/>
</clipPath>
</defs>
</svg>
