<svg width="24" height="24" viewBox="0 0 24 24" fill="none" xmlns="http://www.w3.org/2000/svg">
<g clip-path="url(#clip0_2_10900)">
<path fill-rule="evenodd" clip-rule="evenodd" d="M14.7412 16H9.25801C8.78729 16 8.3803 15.6717 8.28067 15.2117L7.52267 11.7117C7.45866 11.4161 7.53182 11.1075 7.72167 10.8722C7.91151 10.6368 8.19766 10.5 8.50004 10.5H15.4993C15.8016 10.5 16.0878 10.6368 16.2776 10.8722C16.4674 11.1075 16.5406 11.4161 16.4766 11.7117L15.7186 15.2117C15.619 15.6717 15.212 16 14.7412 16Z" stroke="#161924" stroke-width="1.5" stroke-linecap="round" stroke-linejoin="round"/>
<path d="M10.0003 8L9.06027 10.5" stroke="#161924" stroke-width="1.5" stroke-linecap="round" stroke-linejoin="round"/>
<path d="M13.9997 8L14.9397 10.5" stroke="#161924" stroke-width="1.5" stroke-linecap="round" stroke-linejoin="round"/>
<rect x="3" y="3" width="18" height="18" rx="5" stroke="#161924" stroke-width="1.5" stroke-linecap="round" stroke-linejoin="round"/>
</g>
<defs>
<clipPath id="clip0_2_10900">
<rect width="24" height="24" fill="white"/>
</clipPath>
</defs>
</svg>
