<svg width="24" height="24" viewBox="0 0 24 24" fill="none" xmlns="http://www.w3.org/2000/svg">
<g clip-path="url(#clip0_2_10825)">
<path d="M7 14H9" stroke="#161924" stroke-width="1.5" stroke-linecap="round" stroke-linejoin="round"/>
<path d="M8 17H9" stroke="#161924" stroke-width="1.5" stroke-linecap="round" stroke-linejoin="round"/>
<path d="M9 21H5C3.89543 21 3 20.1046 3 19V9C3 7.89543 3.89543 7 5 7H17C18.1046 7 19 7.89543 19 9V11" stroke="#161924" stroke-width="1.5" stroke-linecap="round" stroke-linejoin="round"/>
<path d="M14.5 7V6C14.5 4.067 12.933 2.5 11 2.5V2.5C9.067 2.5 7.5 4.067 7.5 6V6V7" stroke="#161924" stroke-width="1.5" stroke-linecap="round" stroke-linejoin="round"/>
<path fill-rule="evenodd" clip-rule="evenodd" d="M12 16V19C12 20.1046 12.8954 21 14 21H19C20.1046 21 21 20.1046 21 19V16C21 14.8954 20.1046 14 19 14H14C12.8954 14 12 14.8954 12 16Z" stroke="#161924" stroke-width="1.5" stroke-linecap="round" stroke-linejoin="round"/>
<path d="M21 17H12" stroke="#161924" stroke-width="1.5" stroke-linecap="round" stroke-linejoin="round"/>
</g>
<defs>
<clipPath id="clip0_2_10825">
<rect width="24" height="24" fill="white"/>
</clipPath>
</defs>
</svg>
