<svg width="24" height="24" viewBox="0 0 24 24" fill="none" xmlns="http://www.w3.org/2000/svg">
<path d="M18.0615 9L17.9855 7.867C17.9155 6.816 17.0435 6 15.9905 6H5.73253C4.67953 6 3.80753 6.816 3.73753 7.867L3.00453 18.868C2.92753 20.022 3.84253 21 4.99953 21H5.99953" stroke="#161924" stroke-width="1.5" stroke-linecap="round" stroke-linejoin="round"/>
<path d="M7.8623 6V5C7.8623 3.343 9.2053 2 10.8623 2V2C12.5193 2 13.8623 3.343 13.8623 5V6" stroke="#161924" stroke-width="1.5" stroke-linecap="round" stroke-linejoin="round"/>
<path fill-rule="evenodd" clip-rule="evenodd" d="M10.7137 12H19.7137C20.4247 12 20.9997 12.575 20.9997 13.286V19.715C20.9997 20.425 20.4247 21 19.7137 21H10.7137C10.0037 21 9.42773 20.425 9.42773 19.714V13.285C9.42873 12.575 10.0037 12 10.7137 12V12Z" stroke="#161924" stroke-width="1.5" stroke-linecap="round" stroke-linejoin="round"/>
<path d="M12.9639 15C12.9639 16.243 13.9709 17.25 15.2139 17.25C16.4569 17.25 17.4639 16.243 17.4639 15" stroke="#161924" stroke-width="1.5" stroke-linecap="round" stroke-linejoin="round"/>
</svg>
