<svg width="24" height="24" viewBox="0 0 24 24" fill="none" xmlns="http://www.w3.org/2000/svg">
<path d="M4.5 12.75L3 14.25L1.5 12.75" stroke="#161924" stroke-width="1.5" stroke-linecap="round" stroke-linejoin="round"/>
<path d="M19.5 11.25L21 9.75L22.5 11.25" stroke="#161924" stroke-width="1.5" stroke-linecap="round" stroke-linejoin="round"/>
<path d="M19.371 6.845C17.744 4.522 15.052 3 12 3C7.029 3 3 7.029 3 12C3 12.694 3.086 13.366 3.235 14.015" stroke="#161924" stroke-width="1.5" stroke-linecap="round" stroke-linejoin="round"/>
<path d="M4.62891 17.155C6.25591 19.478 8.94791 21 11.9999 21C16.9709 21 20.9999 16.971 20.9999 12C20.9999 11.306 20.9139 10.634 20.7649 9.98499" stroke="#161924" stroke-width="1.5" stroke-linecap="round" stroke-linejoin="round"/>
<path d="M13.7059 9.091V8.315C13.7059 7.317 12.9379 6.5 11.9999 6.5C11.0619 6.5 10.2939 7.317 10.2939 8.315V9.091" stroke="#161924" stroke-width="1.5" stroke-linecap="round" stroke-linejoin="round"/>
<path fill-rule="evenodd" clip-rule="evenodd" d="M14.6688 9.091H9.33076C8.88576 9.091 8.51376 9.429 8.47076 9.873L7.97576 15.055C7.92676 15.561 8.32576 16 8.83576 16H15.1648C15.6738 16 16.0728 15.561 16.0248 15.054L15.5298 9.872C15.4868 9.429 15.1148 9.091 14.6688 9.091V9.091Z" stroke="#161924" stroke-width="1.5" stroke-linecap="round" stroke-linejoin="round"/>
</svg>
