<svg width="24" height="24" viewBox="0 0 24 24" fill="none" xmlns="http://www.w3.org/2000/svg">
<path d="M13.9754 9.5V8.601C13.9754 7.445 13.0854 6.5 11.9994 6.5C10.9134 6.5 10.0244 7.445 10.0244 8.601V9.5" stroke="#161924" stroke-width="1.5" stroke-linecap="round" stroke-linejoin="round"/>
<path fill-rule="evenodd" clip-rule="evenodd" d="M15.0907 9.5H8.9087C8.3937 9.5 7.9627 9.892 7.9137 10.405L7.3407 16.405C7.2837 16.992 7.7457 17.5 8.3357 17.5H15.6637C16.2537 17.5 16.7157 16.992 16.6587 16.405L16.0857 10.405C16.0367 9.892 15.6057 9.5 15.0907 9.5V9.5Z" stroke="#161924" stroke-width="1.5" stroke-linecap="round" stroke-linejoin="round"/>
<path fill-rule="evenodd" clip-rule="evenodd" d="M19 21H6C4.343 21 3 19.657 3 18V6C3 4.343 4.343 3 6 3H18C19.657 3 21 4.343 21 6V19C21 20.105 20.105 21 19 21Z" stroke="#161924" stroke-width="1.5" stroke-linecap="round" stroke-linejoin="round"/>
</svg>
