<svg width="24" height="24" viewBox="0 0 24 24" fill="none" xmlns="http://www.w3.org/2000/svg">
<path d="M18.0615 9L17.9235 6.933C17.8895 6.408 17.4525 6 16.9265 6H4.79753C4.27053 6 3.83453 6.408 3.79953 6.933L3.00453 18.867C2.92753 20.021 3.84253 21 4.99953 21H8.99953" stroke="#161924" stroke-width="1.5" stroke-linecap="round" stroke-linejoin="round"/>
<path fill-rule="evenodd" clip-rule="evenodd" d="M20 21H13.25C12.698 21 12.25 20.552 12.25 20V16.375C12.25 15.823 12.698 15.375 13.25 15.375H20C20.552 15.375 21 15.823 21 16.375V20C21 20.552 20.552 21 20 21Z" stroke="#161924" stroke-width="1.5" stroke-linecap="round" stroke-linejoin="round"/>
<path fill-rule="evenodd" clip-rule="evenodd" d="M16.692 15.38C17.246 15.38 18.389 15.2 19.116 14.441C19.651 13.882 19.651 12.977 19.116 12.418C18.581 11.859 17.713 11.859 17.178 12.418C16.359 13.274 16.692 15.38 16.692 15.38Z" stroke="#161924" stroke-width="1.5" stroke-linecap="round" stroke-linejoin="round"/>
<path fill-rule="evenodd" clip-rule="evenodd" d="M16.5577 15.38C16.0037 15.38 14.8607 15.2 14.1337 14.441C13.5987 13.882 13.5987 12.977 14.1337 12.418C14.6687 11.859 15.5367 11.859 16.0717 12.418C16.8907 13.274 16.5577 15.38 16.5577 15.38Z" stroke="#161924" stroke-width="1.5" stroke-linecap="round" stroke-linejoin="round"/>
<path d="M7.86133 8V5C7.86133 3.343 9.20433 2 10.8613 2V2C12.5183 2 13.8613 3.343 13.8613 5V8" stroke="#161924" stroke-width="1.5" stroke-linecap="round" stroke-linejoin="round"/>
</svg>
