<svg width="24" height="24" viewBox="0 0 24 24" fill="none" xmlns="http://www.w3.org/2000/svg">
<path d="M19.1213 14.879C20.4193 16.177 20.2793 18.366 18.7033 19.473C17.7003 20.177 16.2993 20.177 15.2963 19.473C13.7193 18.367 13.5803 16.177 14.8783 14.879C16.0503 13.707 17.9503 13.707 19.1213 14.879" stroke="#161924" stroke-width="1.5" stroke-linecap="round" stroke-linejoin="round"/>
<path d="M21.0001 21L19.1201 19.12" stroke="#161924" stroke-width="1.5" stroke-linecap="round" stroke-linejoin="round"/>
<path d="M8.63965 8V6.2V6.2C8.63965 4.433 10.0726 3 11.8396 3V3C13.6066 3 15.0396 4.433 15.0396 6.2V6.2V8" stroke="#161924" stroke-width="1.5" stroke-linecap="round" stroke-linejoin="round"/>
<path d="M19.071 11L18.911 8.923C18.871 8.402 18.437 8 17.914 8H5.76597C5.24297 8 4.80897 8.402 4.76897 8.924L4.00597 18.847C3.91697 20.008 4.83497 21 5.99997 21H12" stroke="#161924" stroke-width="1.5" stroke-linecap="round" stroke-linejoin="round"/>
</svg>
