<svg width="24" height="24" viewBox="0 0 24 24" fill="none" xmlns="http://www.w3.org/2000/svg">
<path d="M8.63965 8V6.2V6.2C8.63965 4.433 10.0726 3 11.8396 3V3C13.6066 3 15.0396 4.433 15.0396 6.2V6.2V8" stroke="#161924" stroke-width="1.5" stroke-linecap="round" stroke-linejoin="round"/>
<path d="M19.071 11L18.911 8.923C18.871 8.402 18.437 8 17.914 8H5.76597C5.24297 8 4.80897 8.402 4.76897 8.924L4.00597 18.847C3.91697 20.008 4.83497 21 5.99997 21H11" stroke="#161924" stroke-width="1.5" stroke-linecap="round" stroke-linejoin="round"/>
<path d="M20.256 17.341L20.772 16.825C21.236 17.922 21.023 19.236 20.129 20.129C19.412 20.846 18.426 21.116 17.498 20.957" stroke="#161924" stroke-width="1.5" stroke-linecap="round" stroke-linejoin="round"/>
<path d="M15.7436 18.659L15.2276 19.175C14.7636 18.078 14.9766 16.764 15.8706 15.871C16.6316 15.11 17.6956 14.854 18.6716 15.078" stroke="#161924" stroke-width="1.5" stroke-linecap="round" stroke-linejoin="round"/>
</svg>
