<svg width="24" height="24" viewBox="0 0 24 24" fill="none" xmlns="http://www.w3.org/2000/svg">
<path d="M5.99805 10.9996V8.62364C5.99805 7.51861 6.89385 6.6228 7.99888 6.6228H19.0035C20.1085 6.6228 21.0043 7.51861 21.0043 8.62364V19.003C21.0043 20.108 20.1085 21.0038 19.0035 21.0038H13.001" stroke="#161924" stroke-width="1.5" stroke-linecap="round" stroke-linejoin="round"/>
<path d="M9.99902 6.62274V5.87243C9.99902 3.93863 11.5667 2.37097 13.5005 2.37097V2.37097C14.4291 2.37097 15.3197 2.73987 15.9764 3.39653C16.633 4.05318 17.0019 4.94379 17.0019 5.87243V6.62274" stroke="#161924" stroke-width="1.5" stroke-linecap="round" stroke-linejoin="round"/>
<path d="M6.7202 19.059H6.52612C5.85538 19.059 5.2121 18.7925 4.73781 18.3182C4.26352 17.8439 3.99707 17.2007 3.99707 16.5299V16.5299C3.99707 15.1332 5.12937 14.0009 6.52612 14.0009H8.19882C8.94174 14.0009 9.65422 14.296 10.1795 14.8213C10.7049 15.3466 11 16.0591 11 16.802V16.802C11.0004 17.7753 10.4955 18.6791 9.66643 19.189L6.7202 21.0038V19.059" stroke="#161924" stroke-width="1.5" stroke-linecap="round" stroke-linejoin="round"/>
</svg>
