<svg width="24" height="24" viewBox="0 0 24 24" fill="none" xmlns="http://www.w3.org/2000/svg">
<path fill-rule="evenodd" clip-rule="evenodd" d="M4.28263 12H13.2864C13.6273 11.9997 13.9544 12.1349 14.1957 12.3758C14.437 12.6167 14.5726 12.9436 14.5729 13.2845V19.7182C14.5729 20.4282 13.9974 21.0038 13.2874 21.0038H4.28263C3.5721 21.0038 2.99609 20.4277 2.99609 19.7172V13.2855C2.99665 12.5754 3.57249 12 4.28263 12Z" stroke="#161924" stroke-width="1.5" stroke-linecap="round" stroke-linejoin="round"/>
<path d="M6.53418 15.0012C6.53418 16.2444 7.54196 17.2522 8.78512 17.2522C10.0283 17.2522 11.0361 16.2444 11.0361 15.0012" stroke="#161924" stroke-width="1.5" stroke-linecap="round" stroke-linejoin="round"/>
<path d="M2.99609 8.99872V4.99705C2.99609 3.89202 3.8919 2.99622 4.99693 2.99622H10.9994" stroke="#161924" stroke-width="1.5" stroke-linecap="round" stroke-linejoin="round"/>
<path d="M21.0036 13.0004V19.0029C21.0036 20.1079 20.1078 21.0037 19.0028 21.0037H17.002" stroke="#161924" stroke-width="1.5" stroke-linecap="round" stroke-linejoin="round"/>
<circle cx="18.0026" cy="5.99752" r="4.00167" stroke="#161924" stroke-width="1.5" stroke-linecap="round" stroke-linejoin="round"/>
<path d="M19.3367 5.33057L17.6702 6.99789L16.6689 5.99747" stroke="#161924" stroke-width="1.5" stroke-linecap="round" stroke-linejoin="round"/>
</svg>
