<svg width="24" height="24" viewBox="0 0 24 24" fill="none" xmlns="http://www.w3.org/2000/svg">
<path d="M7.49797 2.99622H5.99734C4.3398 2.99622 2.99609 4.33992 2.99609 5.99747V7.49809" stroke="#161924" stroke-width="1.5" stroke-linecap="round" stroke-linejoin="round"/>
<path d="M2.99609 16.5018V18.0025C2.99609 19.66 4.3398 21.0037 5.99734 21.0037H7.49797" stroke="#161924" stroke-width="1.5" stroke-linecap="round" stroke-linejoin="round"/>
<path d="M16.502 21.0037H18.0026C19.6601 21.0037 21.0038 19.66 21.0038 18.0025V16.5018" stroke="#161924" stroke-width="1.5" stroke-linecap="round" stroke-linejoin="round"/>
<path d="M21.0038 7.49809V5.99747C21.0038 4.33992 19.6601 2.99622 18.0026 2.99622H16.502" stroke="#161924" stroke-width="1.5" stroke-linecap="round" stroke-linejoin="round"/>
<rect x="7.49805" y="8.96777" width="9.00375" height="7.87828" rx="1.101" stroke="#161924" stroke-width="1.5" stroke-linecap="round" stroke-linejoin="round"/>
<path d="M13.773 8.96776V7.92533C13.773 6.94627 12.9793 6.15259 12.0003 6.15259V6.15259C11.0212 6.15259 10.2275 6.94627 10.2275 7.92533V7.92533V8.96776" stroke="#161924" stroke-width="1.5" stroke-linecap="round" stroke-linejoin="round"/>
</svg>
