<svg width="24" height="24" viewBox="0 0 24 24" fill="none" xmlns="http://www.w3.org/2000/svg">
<path d="M13.0003 20.9417C12.6684 20.9828 12.3343 21.0037 11.9998 21.0037C7.02721 21.0037 2.99609 16.9726 2.99609 12C2.99609 7.02733 7.02721 2.99622 11.9998 2.99622C16.9725 2.99622 21.0036 7.02733 21.0036 12C21.0036 12.3344 20.9827 12.6685 20.9416 13.0004" stroke="#161924" stroke-width="1.5" stroke-linecap="round" stroke-linejoin="round"/>
<rect x="7.99805" y="9.2489" width="8.00333" height="7.00292" rx="0.979" stroke="#161924" stroke-width="1.5" stroke-linecap="round" stroke-linejoin="round"/>
<path d="M13.5761 9.24884V8.32346C13.5761 7.45325 12.8707 6.7478 12.0005 6.7478V6.7478C11.1303 6.7478 10.4248 7.45325 10.4248 8.32346V9.24884" stroke="#161924" stroke-width="1.5" stroke-linecap="round" stroke-linejoin="round"/>
<path d="M20.003 17.5023L17.502 20.0034" stroke="#161924" stroke-width="1.5" stroke-linecap="round" stroke-linejoin="round"/>
<path d="M17.502 17.5023L20.003 20.0034" stroke="#161924" stroke-width="1.5" stroke-linecap="round" stroke-linejoin="round"/>
</svg>
