<svg width="24" height="24" viewBox="0 0 24 24" fill="none" xmlns="http://www.w3.org/2000/svg">
<path d="M11 21.0038H5.9979C5.4672 21.0039 4.9582 20.7931 4.58294 20.4179C4.20768 20.0426 3.99707 19.5336 3.99707 19.0029V8.49855C3.99737 7.6699 4.66905 6.99823 5.4977 6.99792H18.5031C19.3318 6.99823 20.0034 7.6699 20.0037 8.49855V10.9996" stroke="#161924" stroke-width="1.5" stroke-linecap="round" stroke-linejoin="round"/>
<path fill-rule="evenodd" clip-rule="evenodd" d="M18.2459 20.4887C17.9161 20.8184 17.4688 21.0037 17.0024 21.0037V21.0037C16.536 21.0037 16.0888 20.8184 15.7589 20.4887L13.6516 18.3815C12.7873 17.5193 12.7851 16.1199 13.6466 15.2549C14.5082 14.39 15.9076 14.3867 16.7732 15.2476L16.7793 15.2538L17.0024 15.4769L17.2255 15.2538C17.783 14.6933 18.5972 14.4729 19.3613 14.6758C20.1253 14.8787 20.723 15.474 20.9289 16.2373C21.1348 17.0005 20.9177 17.8156 20.3594 18.3753L20.3532 18.3815L18.2459 20.4887Z" stroke="#161924" stroke-width="1.5" stroke-linecap="round" stroke-linejoin="round"/>
<path d="M7.99805 6.99788V6.74778V6.74778C7.99805 4.67587 9.6777 2.99627 11.7496 2.99622H12.2498C14.3217 2.99627 16.0014 4.67587 16.0014 6.74778V6.74778V6.99788" stroke="#161924" stroke-width="1.5" stroke-linecap="round" stroke-linejoin="round"/>
</svg>
