<svg width="24" height="24" viewBox="0 0 24 24" fill="none" xmlns="http://www.w3.org/2000/svg">
<path d="M5.99805 10.9996V8.62364C5.99805 7.51861 6.89385 6.6228 7.99888 6.6228H19.0035C20.1085 6.6228 21.0043 7.51861 21.0043 8.62364V19.003C21.0043 20.108 20.1085 21.0038 19.0035 21.0038H13.001" stroke="#161924" stroke-width="1.5" stroke-linecap="round" stroke-linejoin="round"/>
<path d="M9.99902 6.62274V5.87243C9.99902 3.93863 11.5667 2.37097 13.5005 2.37097V2.37097C14.4291 2.37097 15.3197 2.73987 15.9764 3.39653C16.633 4.05318 17.0019 4.94379 17.0019 5.87243V6.62274" stroke="#161924" stroke-width="1.5" stroke-linecap="round" stroke-linejoin="round"/>
<circle cx="6.99776" cy="17.5023" r="4.00167" stroke="#161924" stroke-width="1.5" stroke-linecap="round" stroke-linejoin="round"/>
<path d="M8.05941 16.4408L5.93652 18.5637" stroke="#161924" stroke-width="1.5" stroke-linecap="round" stroke-linejoin="round"/>
<path d="M5.93652 16.4408L8.05941 18.5637" stroke="#161924" stroke-width="1.5" stroke-linecap="round" stroke-linejoin="round"/>
</svg>
