<svg width="24" height="24" viewBox="0 0 24 24" fill="none" xmlns="http://www.w3.org/2000/svg">
<path d="M8.49902 9.99915C8.49902 11.9329 10.0667 13.5006 12.0005 13.5006V13.5006C13.9343 13.5006 15.5019 11.9329 15.5019 9.99915" stroke="#161924" stroke-width="1.5" stroke-linecap="round" stroke-linejoin="round"/>
<path d="M8.49902 6.99788V6.49767C8.49902 4.56387 10.0667 2.99622 12.0005 2.99622V2.99622C13.9343 2.99622 15.5019 4.56387 15.5019 6.49767V6.99788" stroke="#161924" stroke-width="1.5" stroke-linecap="round" stroke-linejoin="round"/>
<path fill-rule="evenodd" clip-rule="evenodd" d="M6.46192 6.99792C5.40538 6.99792 4.53094 7.81946 4.46504 8.87395L4.00585 16.2211C3.92833 17.4614 4.36696 18.6786 5.21785 19.5843C6.06873 20.49 7.25617 21.0038 8.4989 21.0038H15.5015C16.7442 21.0038 17.9317 20.49 18.7825 19.5843C19.6334 18.6786 20.0721 17.4614 19.9946 16.2211L19.5354 8.87395C19.4695 7.81946 18.595 6.99792 17.5385 6.99792H6.46192Z" stroke="#161924" stroke-width="1.5" stroke-linecap="round" stroke-linejoin="round"/>
</svg>
