<svg width="24" height="24" viewBox="0 0 24 24" fill="none" xmlns="http://www.w3.org/2000/svg">
<path fill-rule="evenodd" clip-rule="evenodd" d="M18.0029 21.0038H5.9979C5.4672 21.0039 4.9582 20.7931 4.58294 20.4179C4.20768 20.0426 3.99707 19.5336 3.99707 19.0029V8.49855C3.99737 7.6699 4.66905 6.99823 5.4977 6.99792H18.5031C19.3318 6.99823 20.0034 7.6699 20.0037 8.49855V19.0029C20.0037 19.5336 19.7931 20.0426 19.4179 20.4179C19.0426 20.7931 18.5336 21.0039 18.0029 21.0038Z" stroke="#161924" stroke-width="1.5" stroke-linecap="round" stroke-linejoin="round"/>
<path d="M13.5559 13.2242L11.6101 15.1701L10.4434 14.0021" stroke="#161924" stroke-width="1.5" stroke-linecap="round" stroke-linejoin="round"/>
<path d="M7.99805 6.99788V6.74778V6.74778C7.99805 4.67587 9.6777 2.99627 11.7496 2.99622H12.2498C14.3217 2.99627 16.0014 4.67587 16.0014 6.74778V6.74778V6.99788" stroke="#161924" stroke-width="1.5" stroke-linecap="round" stroke-linejoin="round"/>
</svg>
