<svg width="24" height="24" viewBox="0 0 24 24" fill="none" xmlns="http://www.w3.org/2000/svg">
<path d="M14.0007 9.59509V8.49851C14.0007 7.39348 13.1049 6.49768 11.9999 6.49768V6.49768C10.8948 6.49768 9.99902 7.39348 9.99902 8.49851V9.59509" stroke="#161924" stroke-width="1.5" stroke-linecap="round" stroke-linejoin="round"/>
<path fill-rule="evenodd" clip-rule="evenodd" d="M16.4967 14.8452L16.2272 10.5331C16.1942 10.0059 15.757 9.59509 15.2287 9.59509H8.77085C8.24256 9.59509 7.80532 10.0059 7.77238 10.5331L7.50292 14.8452C7.45986 15.5343 7.70354 16.2105 8.17626 16.7137C8.64897 17.2169 9.30867 17.5023 9.99907 17.5023H14.0005C14.6909 17.5023 15.3506 17.2169 15.8233 16.7137C16.296 16.2105 16.5397 15.5343 16.4967 14.8452Z" stroke="#161924" stroke-width="1.5" stroke-linecap="round" stroke-linejoin="round"/>
<rect x="2.99609" y="2.99622" width="18.0075" height="18.0075" rx="5" stroke="#161924" stroke-width="1.5" stroke-linecap="round" stroke-linejoin="round"/>
</svg>
