<svg width="24" height="24" viewBox="0 0 24 24" fill="none" xmlns="http://www.w3.org/2000/svg">
<path d="M5.99805 10.9996V8.99876C5.99805 7.89373 6.89385 6.99792 7.99888 6.99792H19.0035C20.1085 6.99792 21.0043 7.89373 21.0043 8.99876V19.0029C21.0043 20.108 20.1085 21.0038 19.0035 21.0038H16.0022" stroke="#161924" stroke-width="1.5" stroke-linecap="round" stroke-linejoin="round"/>
<path d="M9.99902 6.99797V5.99755C9.99902 4.06375 11.5667 2.49609 13.5005 2.49609V2.49609C14.4291 2.49609 15.3197 2.865 15.9764 3.52165C16.633 4.1783 17.0019 5.06891 17.0019 5.99755V5.99755V6.99797" stroke="#161924" stroke-width="1.5" stroke-linecap="round" stroke-linejoin="round"/>
<path d="M5.74707 16.5237L7.46952 13.7185C7.82096 13.1461 8.50993 12.877 9.15628 13.0596C9.80264 13.2422 10.2489 13.832 10.2489 14.5037V15.9646" stroke="#161924" stroke-width="1.5" stroke-linecap="round" stroke-linejoin="round"/>
<path d="M10.2489 15.9646H11.4986C11.9694 15.9646 12.413 16.1856 12.6966 16.5616C12.9801 16.9375 13.0708 17.4247 12.9414 17.8775L12.2555 20.2781C12.1328 20.7076 11.7402 21.0037 11.2936 21.0037H7.62785C7.33601 21.0037 7.05328 20.902 6.82826 20.7162L5.74707 19.8232" stroke="#161924" stroke-width="1.5" stroke-linecap="round" stroke-linejoin="round"/>
<rect x="2.99609" y="15.5015" width="2.75115" height="5.50229" rx="0.5" stroke="#161924" stroke-width="1.5" stroke-linecap="round" stroke-linejoin="round"/>
</svg>
