<svg width="24" height="24" viewBox="0 0 24 24" fill="none" xmlns="http://www.w3.org/2000/svg">
<path d="M11 21H8C5.23858 21 3 18.7614 3 16V8C3 5.23858 5.23858 3 8 3H16C18.7614 3 21 5.23858 21 8V11" stroke="#161924" stroke-width="1.5" stroke-linecap="round" stroke-linejoin="round"/>
<circle cx="18" cy="18" r="4" stroke="#161924" stroke-width="1.5" stroke-linecap="round" stroke-linejoin="round"/>
<path d="M14.25 9.5V7.5C14.25 6.94772 13.8023 6.5 13.25 6.5H10.75C10.1977 6.5 9.75 6.94772 9.75 7.5V9.5" stroke="#161924" stroke-width="1.5" stroke-linecap="round" stroke-linejoin="round"/>
<path d="M11 16.5H8.5C7.67157 16.5 7 15.8284 7 15V11C7 10.1716 7.67157 9.5 8.5 9.5H15.5C16.3284 9.5 17 10.1716 17 11V11.3302" stroke="#161924" stroke-width="1.5" stroke-linecap="round" stroke-linejoin="round"/>
<path d="M16.75 17.887L17.75 18.887L19.25 17.387" stroke="#161924" stroke-width="1.5" stroke-linecap="round" stroke-linejoin="round"/>
</svg>
