<svg width="24" height="24" viewBox="0 0 24 24" fill="none" xmlns="http://www.w3.org/2000/svg">
<path d="M5.99734 21.0038H4.99693C3.8919 21.0038 2.99609 20.108 2.99609 19.003V8.62364C2.99609 7.51861 3.8919 6.6228 4.99693 6.6228H16.0015C17.1065 6.6228 18.0023 7.51861 18.0023 8.62364V8.99879" stroke="#161924" stroke-width="1.5" stroke-linecap="round" stroke-linejoin="round"/>
<path fill-rule="evenodd" clip-rule="evenodd" d="M10.7133 12H19.717C20.0583 11.9997 20.3857 12.1352 20.6271 12.3765C20.8684 12.6179 21.0038 12.9452 21.0036 13.2865V19.7182C21.0036 20.0593 20.868 20.3865 20.6267 20.6276C20.3854 20.8687 20.0582 21.004 19.717 21.0038H10.7133C10.0028 21.0038 9.42676 20.4277 9.42676 19.7172V13.2855C9.42731 12.5754 10.0032 12 10.7133 12Z" stroke="#161924" stroke-width="1.5" stroke-linecap="round" stroke-linejoin="round"/>
<path d="M12.9648 15.0012C12.9648 15.8054 13.3939 16.5485 14.0903 16.9506C14.7868 17.3527 15.6448 17.3527 16.3412 16.9506C17.0377 16.5485 17.4667 15.8054 17.4667 15.0012" stroke="#161924" stroke-width="1.5" stroke-linecap="round" stroke-linejoin="round"/>
<path d="M14.001 6.62274V5.87243C14.001 3.93863 12.4333 2.37097 10.4995 2.37097V2.37097C8.5657 2.37097 6.99805 3.93863 6.99805 5.87243V6.62274" stroke="#161924" stroke-width="1.5" stroke-linecap="round" stroke-linejoin="round"/>
</svg>
