<svg width="24" height="24" viewBox="0 0 24 24" fill="none" xmlns="http://www.w3.org/2000/svg">
<path fill-rule="evenodd" clip-rule="evenodd" d="M13.0007 5.99752H2.99658V4.39685L7.99867 1.99585L13.0007 4.39685V5.99752Z" stroke="#161924" stroke-width="1.5" stroke-linecap="round" stroke-linejoin="round"/>
<path d="M2.99658 12H9.9995" stroke="#161924" stroke-width="1.5" stroke-linecap="round" stroke-linejoin="round"/>
<path fill-rule="evenodd" clip-rule="evenodd" d="M13.0007 5.99752H2.99658V4.39685L7.99867 1.99585L13.0007 4.39685V5.99752Z" stroke="#161924" stroke-width="1.5" stroke-linecap="round" stroke-linejoin="round"/>
<path d="M2.99658 12H9.9995" stroke="#161924" stroke-width="1.5" stroke-linecap="round" stroke-linejoin="round"/>
<path d="M3.99679 12.0001V5.99756" stroke="#161924" stroke-width="1.5" stroke-linecap="round" stroke-linejoin="round"/>
<path d="M6.99826 12.0001V5.99756" stroke="#161924" stroke-width="1.5" stroke-linecap="round" stroke-linejoin="round"/>
<path d="M9.99972 12.0001V5.99756" stroke="#161924" stroke-width="1.5" stroke-linecap="round" stroke-linejoin="round"/>
<path d="M18.9052 16.803L17.1544 18.5547L16.104 17.5043" stroke="#161924" stroke-width="1.5" stroke-linecap="round" stroke-linejoin="round"/>
<path fill-rule="evenodd" clip-rule="evenodd" d="M13.2499 18.2356L13.8482 19.0179L13.9772 19.9913C14.0493 20.5316 14.4735 20.9568 15.0137 21.0288L15.9901 21.1588L16.7714 21.7561C17.2036 22.0862 17.8038 22.0872 18.237 21.7561L19.0193 21.1588H19.0173L19.9918 21.0298C20.532 20.9578 20.9572 20.5336 21.0292 19.9934L21.1592 19.0169C21.1592 19.0169 21.4614 18.6218 21.7575 18.2356C22.0876 17.8034 22.0876 17.2032 21.7575 16.771L21.1592 15.9887L21.0302 15.0153C20.9582 14.4751 20.534 14.0499 19.9938 13.9778L19.0173 13.8478L18.236 13.2505C17.8038 12.9204 17.2036 12.9194 16.7704 13.2505L15.9881 13.8478H15.9891L15.0147 13.9768C14.4745 14.0489 14.0493 14.4731 13.9772 15.0133L13.8472 15.9897C13.8472 15.9897 13.5451 16.3848 13.2489 16.771C12.9188 17.2032 12.9188 17.8034 13.2499 18.2356Z" stroke="#161924" stroke-width="1.5" stroke-linecap="round" stroke-linejoin="round"/>
<path d="M8.99908 21.0038H4.7113C3.7649 21.0038 2.99658 20.2355 2.99658 19.2891V16.0017" stroke="#161924" stroke-width="1.5" stroke-linecap="round" stroke-linejoin="round"/>
<path d="M16.002 3.9967H19.2893C20.2357 3.9967 21.004 4.76502 21.004 5.71142V8.99879" stroke="#161924" stroke-width="1.5" stroke-linecap="round" stroke-linejoin="round"/>
</svg>
