<svg width="24" height="24" viewBox="0 0 24 24" fill="none" xmlns="http://www.w3.org/2000/svg">
<path d="M8.35693 17V8.93396" stroke="#161924" stroke-width="1.5" stroke-linecap="round" stroke-linejoin="round"/>
<path d="M4 8.93396V17" stroke="#161924" stroke-width="1.5" stroke-linecap="round" stroke-linejoin="round"/>
<path d="M11 17H3L2 19V20H10" stroke="#161924" stroke-width="1.5" stroke-linecap="round" stroke-linejoin="round"/>
<path fill-rule="evenodd" clip-rule="evenodd" d="M20 5.928L11 2L2 5.928V8.934H20V5.928Z" stroke="#161924" stroke-width="1.5" stroke-linecap="round" stroke-linejoin="round"/>
<path d="M18.5 15.45C18.4724 15.45 18.45 15.4724 18.45 15.5C18.45 15.5276 18.4724 15.55 18.5 15.55C18.5276 15.55 18.55 15.5276 18.55 15.5C18.55 15.4724 18.5276 15.45 18.5 15.45V15.45" stroke="#161924" stroke-width="1.5" stroke-linecap="round" stroke-linejoin="round"/>
<path d="M15.1976 16.615L13.2922 18.5243C13.1051 18.7118 13 18.9658 13 19.2306V20C13 20.5523 13.4477 21 14 21H14.7711C15.0367 21 15.2914 20.8944 15.479 20.7064L17.3814 18.8001" stroke="#161924" stroke-width="1.5" stroke-linecap="round" stroke-linejoin="round"/>
<path d="M15.1985 16.6158C15.0715 16.2573 15.0045 15.8803 15 15.5C15 13.567 16.567 12 18.5 12C20.433 12 22 13.567 22 15.5C22 17.433 20.433 19 18.5 19C18.119 18.9955 17.7413 18.9282 17.3821 18.8008" stroke="#161924" stroke-width="1.5" stroke-linecap="round" stroke-linejoin="round"/>
</svg>
