<svg width="24" height="24" viewBox="0 0 24 24" fill="none" xmlns="http://www.w3.org/2000/svg">
<path d="M8.99874 16.0017V11.4198" stroke="#161924" stroke-width="1.5" stroke-linecap="round" stroke-linejoin="round"/>
<path d="M12.0002 16.0017V11.4198" stroke="#161924" stroke-width="1.5" stroke-linecap="round" stroke-linejoin="round"/>
<path d="M15.0012 16.0017V11.4198" stroke="#161924" stroke-width="1.5" stroke-linecap="round" stroke-linejoin="round"/>
<path d="M7.99854 16.0017H16.0019" stroke="#161924" stroke-width="1.5" stroke-linecap="round" stroke-linejoin="round"/>
<path fill-rule="evenodd" clip-rule="evenodd" d="M7.99854 11.4197H16.0019V9.63597L12.0002 7.99829L7.99854 9.63597V11.4197Z" stroke="#161924" stroke-width="1.5" stroke-linecap="round" stroke-linejoin="round"/>
<path d="M20.0037 7.99835C20.0037 6.34081 21.3474 4.9971 23.0049 4.9971C21.3474 4.9971 20.0037 3.65339 20.0037 1.99585C20.0037 3.65339 18.66 4.9971 17.0024 4.9971C18.66 4.9971 20.0037 6.34081 20.0037 7.99835" stroke="#161924" stroke-width="1.5" stroke-linecap="round" stroke-linejoin="round"/>
<path d="M21.0041 12V16.0016C21.0041 18.7642 18.7646 21.0037 16.002 21.0037H7.99867C5.23609 21.0037 2.99658 18.7642 2.99658 16.0016V7.9983C2.99658 5.23572 5.23609 2.99622 7.99867 2.99622H14.0012" stroke="#161924" stroke-width="1.5" stroke-linecap="round" stroke-linejoin="round"/>
</svg>
