<svg width="24" height="24" viewBox="0 0 24 24" fill="none" xmlns="http://www.w3.org/2000/svg">
<path d="M16.002 2.99622H19.2893C19.7441 2.99622 20.1802 3.17687 20.5018 3.49844C20.8234 3.82002 21.004 4.25616 21.004 4.71093V7.9983" stroke="#161924" stroke-width="1.5" stroke-linecap="round" stroke-linejoin="round"/>
<path d="M7.99867 21.0038H4.7113C4.25653 21.0038 3.82038 20.8231 3.49881 20.5016C3.17724 20.18 2.99658 19.7438 2.99658 19.2891V16.0017" stroke="#161924" stroke-width="1.5" stroke-linecap="round" stroke-linejoin="round"/>
<path fill-rule="evenodd" clip-rule="evenodd" d="M18.6967 12.6052L21.744 18.0205C22.093 18.6396 22.0873 19.3974 21.7291 20.0112C21.3709 20.6251 20.714 21.0029 20.0033 21.0037H13.9057C13.1948 21.0037 12.5372 20.6265 12.1784 20.0128C11.8195 19.3991 11.8133 18.641 12.162 18.0215L15.2093 12.6052C15.5637 11.9753 16.2303 11.5856 16.953 11.5856C17.6757 11.5856 18.3423 11.9753 18.6967 12.6052Z" stroke="#161924" stroke-width="1.5" stroke-linecap="round" stroke-linejoin="round"/>
<path d="M16.9533 16.4218V14.5861" stroke="#161924" stroke-width="1.5" stroke-linecap="round" stroke-linejoin="round"/>
<path d="M16.9523 18.4476C16.9283 18.4476 16.9052 18.4572 16.8883 18.4744C16.8714 18.4915 16.862 18.5146 16.8623 18.5387C16.8623 18.5756 16.8846 18.6088 16.9187 18.6229C16.9529 18.6369 16.9921 18.6289 17.0181 18.6027C17.044 18.5764 17.0516 18.5371 17.0372 18.5031C17.0227 18.4691 16.9892 18.4472 16.9523 18.4476" stroke="#161924" stroke-width="1.5" stroke-linecap="round" stroke-linejoin="round"/>
<path fill-rule="evenodd" clip-rule="evenodd" d="M12.0003 5.99752H1.99609V4.39685L6.99818 1.99585L12.0003 4.39685V5.99752Z" stroke="#161924" stroke-width="1.5" stroke-linecap="round" stroke-linejoin="round"/>
<path d="M1.99609 12H8.99901" stroke="#161924" stroke-width="1.5" stroke-linecap="round" stroke-linejoin="round"/>
<path d="M2.9963 11.9999V5.99744" stroke="#161924" stroke-width="1.5" stroke-linecap="round" stroke-linejoin="round"/>
<path d="M5.99777 11.9999V5.99744" stroke="#161924" stroke-width="1.5" stroke-linecap="round" stroke-linejoin="round"/>
<path d="M8.99874 11.9999V5.99744" stroke="#161924" stroke-width="1.5" stroke-linecap="round" stroke-linejoin="round"/>
</svg>
