<svg width="24" height="24" viewBox="0 0 24 24" fill="none" xmlns="http://www.w3.org/2000/svg">
<path d="M15.6447 8.93274V17.0021" stroke="#161924" stroke-width="1.5" stroke-linecap="round" stroke-linejoin="round"/>
<path d="M20.0036 17.0021V8.93274" stroke="#161924" stroke-width="1.5" stroke-linecap="round" stroke-linejoin="round"/>
<path d="M14.001 20.0033H22.0043V19.0029L21.0039 17.0021H14.001" stroke="#161924" stroke-width="1.5" stroke-linecap="round" stroke-linejoin="round"/>
<path fill-rule="evenodd" clip-rule="evenodd" d="M3.99707 8.93274H22.0046V5.92549L13.0008 1.99585L3.99707 5.92549V8.93274Z" stroke="#161924" stroke-width="1.5" stroke-linecap="round" stroke-linejoin="round"/>
<path fill-rule="evenodd" clip-rule="evenodd" d="M3.91089 20.4175L2.58234 19.089C2.20718 18.7138 1.99609 18.2046 1.99609 17.6744V15.3304C1.99609 14.8002 2.20718 14.291 2.58234 13.9158L3.91089 12.5872C4.28605 12.2111 4.79526 12 5.32548 12H7.66946C8.19968 12 8.70889 12.2111 9.08405 12.5862L10.4136 13.9158C10.7888 14.291 10.9998 14.7992 10.9998 15.3304V17.6734C10.9998 18.2036 10.7888 18.7128 10.4136 19.088L9.08405 20.4175C8.70989 20.7927 8.20068 21.0037 7.66946 21.0037H5.32548C4.79526 21.0037 4.28605 20.7927 3.91089 20.4175Z" stroke="#161924" stroke-width="1.5" stroke-linecap="round" stroke-linejoin="round"/>
<path d="M6.49874 16.3248V14.5701" stroke="#161924" stroke-width="1.5" stroke-linecap="round" stroke-linejoin="round"/>
<path d="M6.49776 18.2596C6.44974 18.2596 6.41073 18.2986 6.41173 18.3466C6.41173 18.3947 6.45074 18.4337 6.49876 18.4337C6.54678 18.4337 6.5848 18.3947 6.5848 18.3466C6.5848 18.2986 6.54578 18.2596 6.49776 18.2596" stroke="#161924" stroke-width="1.5" stroke-linecap="round" stroke-linejoin="round"/>
</svg>
