<svg width="24" height="24" viewBox="0 0 24 24" fill="none" xmlns="http://www.w3.org/2000/svg">
<path d="M8.35568 17.0021V8.93274" stroke="#161924" stroke-width="1.5" stroke-linecap="round" stroke-linejoin="round"/>
<path d="M3.99679 8.93274V17.0021" stroke="#161924" stroke-width="1.5" stroke-linecap="round" stroke-linejoin="round"/>
<path d="M9.99943 17.0021H2.99651L1.99609 19.0029V20.0033H9.99943" stroke="#161924" stroke-width="1.5" stroke-linecap="round" stroke-linejoin="round"/>
<path fill-rule="evenodd" clip-rule="evenodd" d="M20.0036 5.92549L10.9998 1.99585L1.99609 5.92549V8.93274H20.0036V5.92549Z" stroke="#161924" stroke-width="1.5" stroke-linecap="round" stroke-linejoin="round"/>
<path d="M17.5025 21.0038C15.6817 21.0038 14.0401 19.9069 13.3433 18.2247C12.6465 16.5424 13.0317 14.6061 14.3192 13.3186C15.6067 12.0311 17.5431 11.6459 19.2253 12.3427C20.9075 13.0395 22.0044 14.681 22.0044 16.5019C22.0044 18.9882 19.9888 21.0038 17.5025 21.0038" stroke="#161924" stroke-width="1.5" stroke-linecap="round" stroke-linejoin="round"/>
<path d="M20.6858 19.6851L17.5024 16.5018V12.007" stroke="#161924" stroke-width="1.5" stroke-linecap="round" stroke-linejoin="round"/>
</svg>
