<svg width="24" height="24" viewBox="0 0 24 24" fill="none" xmlns="http://www.w3.org/2000/svg">
<path d="M9 17V9" stroke="#161924" stroke-width="1.5" stroke-linecap="round" stroke-linejoin="round"/>
<path d="M5 9V17" stroke="#161924" stroke-width="1.5" stroke-linecap="round" stroke-linejoin="round"/>
<path d="M11 17H4L3 19V20H12" stroke="#161924" stroke-width="1.5" stroke-linecap="round" stroke-linejoin="round"/>
<path fill-rule="evenodd" clip-rule="evenodd" d="M21 5.928L12 2L3 5.928V9H21V5.928Z" stroke="#161924" stroke-width="1.5" stroke-linecap="round" stroke-linejoin="round"/>
<path d="M15 9V13" stroke="#161924" stroke-width="1.5" stroke-linecap="round" stroke-linejoin="round"/>
<path d="M19 9V13" stroke="#161924" stroke-width="1.5" stroke-linecap="round" stroke-linejoin="round"/>
<path fill-rule="evenodd" clip-rule="evenodd" d="M17.3075 16.0747L17.5013 16.2714L17.7419 16.0384C18.4983 15.3129 19.6966 15.3271 20.4356 16.0704V16.0704C21.1881 16.8436 21.1881 18.0754 20.4356 18.8487L18.8891 20.4187C18.523 20.7906 18.0231 21 17.5012 21C16.9794 21 16.4794 20.7906 16.1134 20.4187L14.5626 18.8443C13.8125 18.0735 13.8125 16.8456 14.5626 16.0748V16.0748C14.9246 15.7071 15.4191 15.5 15.9351 15.5C16.4511 15.5 16.9455 15.707 17.3075 16.0747V16.0747Z" stroke="#161924" stroke-width="1.5" stroke-linecap="round" stroke-linejoin="round"/>
</svg>
