<svg width="24" height="24" viewBox="0 0 24 24" fill="none" xmlns="http://www.w3.org/2000/svg">
<path fill-rule="evenodd" clip-rule="evenodd" d="M13.5007 17.2522H15.5015C15.7778 17.2522 16.0017 17.4761 16.0017 17.7524V21.0038H13.5007C13.2244 21.0038 13.0005 20.7798 13.0005 20.5036V17.7524C13.0005 17.4761 13.2244 17.2522 13.5007 17.2522Z" stroke="#161924" stroke-width="1.5" stroke-linecap="round" stroke-linejoin="round"/>
<path fill-rule="evenodd" clip-rule="evenodd" d="M16.5022 13.0004H18.503C18.7793 13.0004 19.0032 13.2243 19.0032 13.5006V21.0037H16.002V13.5006C16.002 13.2243 16.2259 13.0004 16.5022 13.0004Z" stroke="#161924" stroke-width="1.5" stroke-linecap="round" stroke-linejoin="round"/>
<path fill-rule="evenodd" clip-rule="evenodd" d="M19.5031 15.2513H21.504C21.7802 15.2513 22.0042 15.4753 22.0042 15.7516V20.5035C22.0042 20.7798 21.7802 21.0037 21.504 21.0037H19.0029V15.7516C19.0029 15.4753 19.2269 15.2513 19.5031 15.2513Z" stroke="#161924" stroke-width="1.5" stroke-linecap="round" stroke-linejoin="round"/>
<path d="M8.35568 17.0021V8.93274" stroke="#161924" stroke-width="1.5" stroke-linecap="round" stroke-linejoin="round"/>
<path d="M3.99679 8.93274V17.0021" stroke="#161924" stroke-width="1.5" stroke-linecap="round" stroke-linejoin="round"/>
<path d="M9.99943 17.0021H2.99651L1.99609 19.0029V20.0033H9.99943" stroke="#161924" stroke-width="1.5" stroke-linecap="round" stroke-linejoin="round"/>
<path fill-rule="evenodd" clip-rule="evenodd" d="M20.0036 5.92549L10.9998 1.99585L1.99609 5.92549V8.93274H20.0036V5.92549Z" stroke="#161924" stroke-width="1.5" stroke-linecap="round" stroke-linejoin="round"/>
</svg>
