<svg width="24" height="24" viewBox="0 0 24 24" fill="none" xmlns="http://www.w3.org/2000/svg">
<path d="M12 7.5V6.5" stroke="#161924" stroke-width="1.5" stroke-linecap="round" stroke-linejoin="round"/>
<path fill-rule="evenodd" clip-rule="evenodd" d="M15 10.5H9C9 8.84315 10.3431 7.5 12 7.5V7.5C13.6569 7.5 15 8.84315 15 10.5Z" stroke="#161924" stroke-width="1.5" stroke-linecap="round" stroke-linejoin="round"/>
<path d="M8 15.5V10.5" stroke="#161924" stroke-width="1.5" stroke-linecap="round" stroke-linejoin="round"/>
<path d="M16 15.5V10.5" stroke="#161924" stroke-width="1.5" stroke-linecap="round" stroke-linejoin="round"/>
<path d="M10.6665 15.5V10.5" stroke="#161924" stroke-width="1.5" stroke-linecap="round" stroke-linejoin="round"/>
<path d="M13.3335 15.5V10.5" stroke="#161924" stroke-width="1.5" stroke-linecap="round" stroke-linejoin="round"/>
<path d="M7 15.5H17" stroke="#161924" stroke-width="1.5" stroke-linecap="round" stroke-linejoin="round"/>
<path d="M7.5 10.5H16.5" stroke="#161924" stroke-width="1.5" stroke-linecap="round" stroke-linejoin="round"/>
<path fill-rule="evenodd" clip-rule="evenodd" d="M4.51255 16.7238C2.05306 12.8557 2.90273 7.75591 6.48348 4.89419C10.0642 2.03247 15.2258 2.32804 18.4565 5.5798C21.6872 8.83156 21.9491 13.995 19.0642 17.557C16.1792 21.1191 11.074 21.9355 7.22203 19.4509L4.65703 19.8795C4.4977 19.9061 4.33531 19.8541 4.22108 19.7399C4.10685 19.6257 4.05485 19.4633 4.08147 19.3039L4.51255 16.7238Z" stroke="#161924" stroke-width="1.5" stroke-linecap="round" stroke-linejoin="round"/>
</svg>
