<svg width="24" height="24" viewBox="0 0 24 24" fill="none" xmlns="http://www.w3.org/2000/svg">
<path d="M13.0005 8.99874H17.0022" stroke="#161924" stroke-width="1.5" stroke-linecap="round" stroke-linejoin="round"/>
<path d="M6.99805 8.72458L7.91743 9.55292L9.7682 7.88623" stroke="#161924" stroke-width="1.5" stroke-linecap="round" stroke-linejoin="round"/>
<path d="M9.9995 20.0033H7.99867C5.23609 20.0033 2.99658 17.7638 2.99658 15.0013V6.99793C2.99658 4.23536 5.23609 1.99585 7.99867 1.99585H16.002C17.3286 1.99585 18.6009 2.52285 19.539 3.46093C20.4771 4.399 21.0041 5.6713 21.0041 6.99793V10.9996" stroke="#161924" stroke-width="1.5" stroke-linecap="round" stroke-linejoin="round"/>
<path d="M6.99805 13.7267L7.91743 14.555L9.7682 12.8883" stroke="#161924" stroke-width="1.5" stroke-linecap="round" stroke-linejoin="round"/>
<path d="M14.0012 21.0037V16.5018" stroke="#161924" stroke-width="1.5" stroke-linecap="round" stroke-linejoin="round"/>
<path d="M17.0022 21.0037V16.5018" stroke="#161924" stroke-width="1.5" stroke-linecap="round" stroke-linejoin="round"/>
<path d="M20.0036 21.0037V16.5018" stroke="#161924" stroke-width="1.5" stroke-linecap="round" stroke-linejoin="round"/>
<path d="M13.0005 21.0037H21.0038" stroke="#161924" stroke-width="1.5" stroke-linecap="round" stroke-linejoin="round"/>
<path fill-rule="evenodd" clip-rule="evenodd" d="M13.0005 14.6511V16.5018H21.0038V14.6511L17.0022 13.0004L13.0005 14.6511Z" stroke="#161924" stroke-width="1.5" stroke-linecap="round" stroke-linejoin="round"/>
</svg>
