<svg width="24" height="24" viewBox="0 0 24 24" fill="none" xmlns="http://www.w3.org/2000/svg">
<path d="M20.5859 9.35186C20.859 10.2082 21 11.1011 21.0041 12C21.0041 16.9726 16.973 21.0037 12.0003 21.0037C7.0277 21.0037 2.99658 16.9726 2.99658 12C2.99658 7.02733 7.0277 2.99622 12.0003 2.99622C12.8992 3.00028 13.7921 3.14129 14.6484 3.41439" stroke="#161924" stroke-width="1.5" stroke-linecap="round" stroke-linejoin="round"/>
<path d="M21.0041 4.27075L19.0153 6.25958L17.7397 4.98405" stroke="#161924" stroke-width="1.5" stroke-linecap="round" stroke-linejoin="round"/>
<path d="M8.99874 15.7516V11.1697" stroke="#161924" stroke-width="1.5" stroke-linecap="round" stroke-linejoin="round"/>
<path d="M12.0002 15.7516V11.1697" stroke="#161924" stroke-width="1.5" stroke-linecap="round" stroke-linejoin="round"/>
<path d="M15.0012 15.7516V11.1697" stroke="#161924" stroke-width="1.5" stroke-linecap="round" stroke-linejoin="round"/>
<path d="M7.99854 15.7516H16.0019" stroke="#161924" stroke-width="1.5" stroke-linecap="round" stroke-linejoin="round"/>
<path fill-rule="evenodd" clip-rule="evenodd" d="M7.99854 11.1696H16.0019V9.38585L12.0002 7.74817L7.99854 9.38585V11.1696Z" stroke="#161924" stroke-width="1.5" stroke-linecap="round" stroke-linejoin="round"/>
</svg>
