<svg width="24" height="24" viewBox="0 0 24 24" fill="none" xmlns="http://www.w3.org/2000/svg">
<path d="M8.99874 16.0017V11.4198" stroke="#161924" stroke-width="1.5" stroke-linecap="round" stroke-linejoin="round"/>
<path d="M12.0002 16.0017V11.4198" stroke="#161924" stroke-width="1.5" stroke-linecap="round" stroke-linejoin="round"/>
<path d="M15.0012 16.0017V11.4198" stroke="#161924" stroke-width="1.5" stroke-linecap="round" stroke-linejoin="round"/>
<path d="M7.99854 16.0017H16.0019" stroke="#161924" stroke-width="1.5" stroke-linecap="round" stroke-linejoin="round"/>
<path fill-rule="evenodd" clip-rule="evenodd" d="M7.99854 11.4197H16.0019V9.63597L12.0002 7.99829L7.99854 9.63597V11.4197Z" stroke="#161924" stroke-width="1.5" stroke-linecap="round" stroke-linejoin="round"/>
<path d="M12.0003 2.99622H6.99825C4.78823 2.99622 2.99658 4.78786 2.99658 6.99788V16.0016C2.99688 18.7641 5.23621 21.0034 7.99867 21.0037H17.0024C19.2124 21.0037 21.0041 19.2121 21.0041 17.002V12" stroke="#161924" stroke-width="1.5" stroke-linecap="round" stroke-linejoin="round"/>
<path d="M16.502 1.99585C19.5408 1.99585 22.0042 4.45931 22.0042 7.49814" stroke="#161924" stroke-width="1.5" stroke-linecap="round" stroke-linejoin="round"/>
<path d="M16.502 4.99707C17.8832 4.99707 19.003 6.11682 19.003 7.49811" stroke="#161924" stroke-width="1.5" stroke-linecap="round" stroke-linejoin="round"/>
</svg>
