<svg width="24" height="24" viewBox="0 0 24 24" fill="none" xmlns="http://www.w3.org/2000/svg">
<path d="M8.99923 15.7516V11.1697" stroke="#161924" stroke-width="1.5" stroke-linecap="round" stroke-linejoin="round"/>
<path d="M12.0002 15.7516V11.1697" stroke="#161924" stroke-width="1.5" stroke-linecap="round" stroke-linejoin="round"/>
<path d="M15.0017 15.7516V11.1697" stroke="#161924" stroke-width="1.5" stroke-linecap="round" stroke-linejoin="round"/>
<path d="M7.99854 15.7516H16.0019" stroke="#161924" stroke-width="1.5" stroke-linecap="round" stroke-linejoin="round"/>
<path fill-rule="evenodd" clip-rule="evenodd" d="M7.41342 20.4185L3.58283 16.5879C3.20767 16.2127 2.99658 15.7035 2.99658 15.1733V8.82664C2.99658 8.29642 3.20767 7.78721 3.58183 7.41306L7.41242 3.58246C7.78758 3.2073 8.29679 2.99622 8.82701 2.99622H15.1717C15.7029 2.99622 16.2121 3.2073 16.5872 3.58246L20.4168 7.41206C20.793 7.78821 21.0041 8.29842 21.0041 8.82965V15.1723C21.0041 15.7025 20.793 16.2107 20.4188 16.5859L16.5882 20.4175C16.2131 20.7926 15.7039 21.0037 15.1727 21.0037H8.82701C8.29679 21.0037 7.78758 20.7926 7.41342 20.4185Z" stroke="#161924" stroke-width="1.5" stroke-linecap="round" stroke-linejoin="round"/>
<path fill-rule="evenodd" clip-rule="evenodd" d="M7.99854 11.1696H16.0019V9.38585L12.0002 7.74817L7.99854 9.38585V11.1696Z" stroke="#161924" stroke-width="1.5" stroke-linecap="round" stroke-linejoin="round"/>
</svg>
