<svg width="24" height="24" viewBox="0 0 24 24" fill="none" xmlns="http://www.w3.org/2000/svg">
<path d="M12.6252 14.7036V21.0037" stroke="#161924" stroke-width="1.5" stroke-linecap="round" stroke-linejoin="round"/>
<path d="M8.49874 14.7036V21.0037" stroke="#161924" stroke-width="1.5" stroke-linecap="round" stroke-linejoin="round"/>
<path d="M4.37179 14.7036V21.0037" stroke="#161924" stroke-width="1.5" stroke-linecap="round" stroke-linejoin="round"/>
<path d="M2.99658 21.0037H14.0012" stroke="#161924" stroke-width="1.5" stroke-linecap="round" stroke-linejoin="round"/>
<path fill-rule="evenodd" clip-rule="evenodd" d="M14.0012 12.251L8.49887 9.99915L2.99658 12.251V14.7036H14.0012V12.251Z" stroke="#161924" stroke-width="1.5" stroke-linecap="round" stroke-linejoin="round"/>
<path d="M19.0031 16.0017V21.0038" stroke="#161924" stroke-width="1.5" stroke-linecap="round" stroke-linejoin="round"/>
<path d="M17.0024 18.0025L19.0033 16.0017" stroke="#161924" stroke-width="1.5" stroke-linecap="round" stroke-linejoin="round"/>
<path d="M21.0038 18.0025L19.0029 16.0017" stroke="#161924" stroke-width="1.5" stroke-linecap="round" stroke-linejoin="round"/>
<path d="M14.4492 8.54982L17.553 5.44604" stroke="#161924" stroke-width="1.5" stroke-linecap="round" stroke-linejoin="round"/>
<path d="M14.2509 5.32195C14.251 5.28057 14.2846 5.24712 14.326 5.2472C14.3674 5.24728 14.4009 5.28085 14.4009 5.32223C14.4009 5.36361 14.3674 5.39718 14.326 5.39726C14.2846 5.39734 14.251 5.36389 14.2509 5.32251V5.32195" stroke="#161924" stroke-width="1.5" stroke-linecap="round" stroke-linejoin="round"/>
<path d="M10.9995 7.99835V4.9971C10.9995 3.33956 12.3432 1.99585 14.0008 1.99585H18.0024C19.66 1.99585 21.0037 3.33956 21.0037 4.9971V8.99877C21.0037 10.6563 19.66 12 18.0024 12H17.002" stroke="#161924" stroke-width="1.5" stroke-linecap="round" stroke-linejoin="round"/>
<path d="M17.7525 8.67395C17.7523 8.71533 17.7187 8.74878 17.6773 8.7487C17.6359 8.74862 17.6024 8.71505 17.6024 8.67367C17.6024 8.63229 17.6359 8.59872 17.6773 8.59864C17.7187 8.59856 17.7523 8.63201 17.7525 8.67339V8.67395" stroke="#161924" stroke-width="1.5" stroke-linecap="round" stroke-linejoin="round"/>
</svg>
