<svg width="24" height="24" viewBox="0 0 24 24" fill="none" xmlns="http://www.w3.org/2000/svg">
<path d="M7.90107 15.8L6.15107 17.551L5.10107 16.501" stroke="#161924" stroke-width="1.5" stroke-linecap="round" stroke-linejoin="round"/>
<path fill-rule="evenodd" clip-rule="evenodd" d="M2.24789 17.232L2.84589 18.014L2.97489 18.987C3.04689 19.527 3.47089 19.952 4.01089 20.024L4.98689 20.154L5.76789 20.751C6.19989 21.081 6.79989 21.082 7.23289 20.751L8.01489 20.154H8.01289L8.98689 20.025C9.52689 19.953 9.95189 19.529 10.0239 18.989L10.1539 18.013C10.1539 18.013 10.4559 17.618 10.7519 17.232C11.0819 16.8 11.0819 16.2 10.7519 15.768L10.1539 14.986L10.0249 14.013C9.95289 13.473 9.52889 13.048 8.98889 12.976L8.01289 12.846L7.23189 12.249C6.79989 11.919 6.19989 11.918 5.76689 12.249L4.98489 12.846H4.98589L4.01189 12.975C3.47189 13.047 3.04689 13.471 2.97489 14.011L2.84489 14.987C2.84489 14.987 2.54289 15.382 2.24689 15.768C1.91689 16.2 1.91689 16.8 2.24789 17.232V17.232Z" stroke="#161924" stroke-width="1.5" stroke-linecap="round" stroke-linejoin="round"/>
<path d="M15.6431 8.93402V17" stroke="#161924" stroke-width="1.5" stroke-linecap="round" stroke-linejoin="round"/>
<path d="M20 17V8.93402" stroke="#161924" stroke-width="1.5" stroke-linecap="round" stroke-linejoin="round"/>
<path d="M14 20H22V19L21 17H14" stroke="#161924" stroke-width="1.5" stroke-linecap="round" stroke-linejoin="round"/>
<path fill-rule="evenodd" clip-rule="evenodd" d="M4 8.934H22V5.928L13 2L4 5.928V8.934Z" stroke="#161924" stroke-width="1.5" stroke-linecap="round" stroke-linejoin="round"/>
</svg>
