<svg width="24" height="24" viewBox="0 0 24 24" fill="none" xmlns="http://www.w3.org/2000/svg">
<path fill-rule="evenodd" clip-rule="evenodd" d="M13.0007 5.99752H2.99658V4.39685L7.99867 1.99585L13.0007 4.39685V5.99752Z" stroke="#161924" stroke-width="1.5" stroke-linecap="round" stroke-linejoin="round"/>
<path d="M2.99658 12H9.9995" stroke="#161924" stroke-width="1.5" stroke-linecap="round" stroke-linejoin="round"/>
<path d="M2.99658 12H9.9995" stroke="#161924" stroke-width="1.5" stroke-linecap="round" stroke-linejoin="round"/>
<path fill-rule="evenodd" clip-rule="evenodd" d="M13.501 20.5035V20.0973C13.5043 18.9417 14.4403 18.0057 15.5958 18.0024H18.9092C20.0648 18.0057 21.0008 18.9417 21.0041 20.0973V20.5035C21.0041 20.7797 20.7802 21.0037 20.5039 21.0037H14.0012C13.7249 21.0037 13.501 20.7797 13.501 20.5035Z" stroke="#161924" stroke-width="1.5" stroke-linecap="round" stroke-linejoin="round"/>
<path fill-rule="evenodd" clip-rule="evenodd" d="M15.2515 13.4926C15.2559 12.3886 16.1537 11.4968 17.2576 11.4998C18.3616 11.5027 19.2546 12.3993 19.2531 13.5033C19.2517 14.6072 18.3563 15.5014 17.2523 15.5014C16.7203 15.5014 16.2102 15.2895 15.8347 14.9126C15.4592 14.5356 15.2494 14.0246 15.2515 13.4926V13.4926Z" stroke="#161924" stroke-width="1.5" stroke-linecap="round" stroke-linejoin="round"/>
<path d="M3.99679 11.9999V5.99744" stroke="#161924" stroke-width="1.5" stroke-linecap="round" stroke-linejoin="round"/>
<path d="M6.99826 11.9999V5.99744" stroke="#161924" stroke-width="1.5" stroke-linecap="round" stroke-linejoin="round"/>
<path d="M9.99923 11.9999V5.99744" stroke="#161924" stroke-width="1.5" stroke-linecap="round" stroke-linejoin="round"/>
<path d="M7.99867 21.0038H4.7113C3.76451 21.0032 2.99713 20.2359 2.99658 19.2891V16.0017" stroke="#161924" stroke-width="1.5" stroke-linecap="round" stroke-linejoin="round"/>
<path d="M16.002 3.9967H19.2893C20.2361 3.99726 21.0035 4.76464 21.004 5.71142V8.99879" stroke="#161924" stroke-width="1.5" stroke-linecap="round" stroke-linejoin="round"/>
</svg>
