<svg width="24" height="24" viewBox="0 0 24 24" fill="none" xmlns="http://www.w3.org/2000/svg">
<path fill-rule="evenodd" clip-rule="evenodd" d="M13.0007 5.99752H2.99658V4.39685L7.99867 1.99585L13.0007 4.39685V5.99752Z" stroke="#161924" stroke-width="1.5" stroke-linecap="round" stroke-linejoin="round"/>
<path d="M2.99658 12H9.9995" stroke="#161924" stroke-width="1.5" stroke-linecap="round" stroke-linejoin="round"/>
<path fill-rule="evenodd" clip-rule="evenodd" d="M13.0007 5.99752H2.99658V4.39685L7.99867 1.99585L13.0007 4.39685V5.99752Z" stroke="#161924" stroke-width="1.5" stroke-linecap="round" stroke-linejoin="round"/>
<path d="M2.99658 12H9.9995" stroke="#161924" stroke-width="1.5" stroke-linecap="round" stroke-linejoin="round"/>
<path d="M3.99679 12.0001V5.99756" stroke="#161924" stroke-width="1.5" stroke-linecap="round" stroke-linejoin="round"/>
<path d="M6.99826 12.0001V5.99756" stroke="#161924" stroke-width="1.5" stroke-linecap="round" stroke-linejoin="round"/>
<path d="M9.99972 12.0001V5.99756" stroke="#161924" stroke-width="1.5" stroke-linecap="round" stroke-linejoin="round"/>
<path d="M7.99867 21.0038H4.7113C3.7649 21.0038 2.99658 20.2355 2.99658 19.2891V16.0017" stroke="#161924" stroke-width="1.5" stroke-linecap="round" stroke-linejoin="round"/>
<path d="M16.002 3.9967H19.2893C20.2357 3.9967 21.004 4.76502 21.004 5.71142V8.99879" stroke="#161924" stroke-width="1.5" stroke-linecap="round" stroke-linejoin="round"/>
<path d="M21.004 21.0038L20.7199 20.2905C20.5758 19.9293 20.3527 19.6042 20.0676 19.3401V19.3401C19.5844 18.8919 18.9491 18.6438 18.2909 18.6438H14.3652" stroke="#161924" stroke-width="1.5" stroke-linecap="round" stroke-linejoin="round"/>
<path d="M17.6695 12.159C18.5489 13.0384 18.5489 14.463 17.6695 15.3424C16.7901 16.2217 15.3656 16.2217 14.4862 15.3424C13.6068 14.463 13.6068 13.0384 14.4862 12.159C15.3656 11.2797 16.7901 11.2797 17.6695 12.159" stroke="#161924" stroke-width="1.5" stroke-linecap="round" stroke-linejoin="round"/>
</svg>
