<svg width="24" height="24" viewBox="0 0 24 24" fill="none" xmlns="http://www.w3.org/2000/svg">
<path d="M13.0007 20.9417C12.6688 20.9826 12.3348 21.0033 12.0003 21.0037C7.0277 21.0037 2.99658 16.9726 2.99658 12C2.99658 7.02733 7.0277 2.99622 12.0003 2.99622C16.973 2.99622 21.0041 7.02733 21.0041 12C21.0037 12.3344 20.983 12.6685 20.9421 13.0004" stroke="#161924" stroke-width="1.5" stroke-linecap="round" stroke-linejoin="round"/>
<path d="M20.5025 18.0027L18.0024 20.5037" stroke="#161924" stroke-width="1.5" stroke-linecap="round" stroke-linejoin="round"/>
<path d="M18.0034 18.0027L20.5035 20.5037" stroke="#161924" stroke-width="1.5" stroke-linecap="round" stroke-linejoin="round"/>
<path d="M8.99874 15.7516V11.1697" stroke="#161924" stroke-width="1.5" stroke-linecap="round" stroke-linejoin="round"/>
<path d="M12.0002 15.7516V11.1697" stroke="#161924" stroke-width="1.5" stroke-linecap="round" stroke-linejoin="round"/>
<path d="M15.0012 15.7516V11.1697" stroke="#161924" stroke-width="1.5" stroke-linecap="round" stroke-linejoin="round"/>
<path d="M7.99854 15.7516H16.0019" stroke="#161924" stroke-width="1.5" stroke-linecap="round" stroke-linejoin="round"/>
<path fill-rule="evenodd" clip-rule="evenodd" d="M7.99854 11.1696H16.0019V9.38585L12.0002 7.74817L7.99854 9.38585V11.1696Z" stroke="#161924" stroke-width="1.5" stroke-linecap="round" stroke-linejoin="round"/>
</svg>
