<svg width="24" height="24" viewBox="0 0 24 24" fill="none" xmlns="http://www.w3.org/2000/svg">
<path d="M15.6447 8.99878V17.0021" stroke="#161924" stroke-width="1.5" stroke-linecap="round" stroke-linejoin="round"/>
<path d="M20.0036 17.0021V8.99878" stroke="#161924" stroke-width="1.5" stroke-linecap="round" stroke-linejoin="round"/>
<path d="M14.0008 20.0033H22.0042V19.0029L21.0037 17.0021H12" stroke="#161924" stroke-width="1.5" stroke-linecap="round" stroke-linejoin="round"/>
<path fill-rule="evenodd" clip-rule="evenodd" d="M9.63135 21.0037H3.47078C3.20889 21.0037 2.99658 20.7914 2.99658 20.5295V20.1453C2.99933 19.0503 3.88636 18.1633 4.98141 18.1605H8.11972C9.21476 18.1633 10.1018 19.0503 10.1045 20.1453V20.5295C10.1045 20.791 9.89285 21.0032 9.63135 21.0037Z" stroke="#161924" stroke-width="1.5" stroke-linecap="round" stroke-linejoin="round"/>
<path fill-rule="evenodd" clip-rule="evenodd" d="M6.55098 15.7906C5.50465 15.7887 4.65773 14.9394 4.65869 13.8931C4.65966 12.8467 5.50815 11.999 6.55448 11.999C7.60081 11.999 8.4493 12.8467 8.45027 13.8931C8.45124 14.9394 7.60431 15.7887 6.55798 15.7906H6.55098Z" stroke="#161924" stroke-width="1.5" stroke-linecap="round" stroke-linejoin="round"/>
<path fill-rule="evenodd" clip-rule="evenodd" d="M3.99658 8.99877H22.0041V5.92549L13.0003 1.99585L3.99658 5.92549V8.99877Z" stroke="#161924" stroke-width="1.5" stroke-linecap="round" stroke-linejoin="round"/>
</svg>
