<svg width="24" height="24" viewBox="0 0 24 24" fill="none" xmlns="http://www.w3.org/2000/svg">
<path d="M15.6447 8.99878V17.0021" stroke="#161924" stroke-width="1.5" stroke-linecap="round" stroke-linejoin="round"/>
<path d="M20.0036 17.0021V8.99878" stroke="#161924" stroke-width="1.5" stroke-linecap="round" stroke-linejoin="round"/>
<path d="M14.001 20.0033H22.0043V19.0029L21.0039 17.0021H14.001" stroke="#161924" stroke-width="1.5" stroke-linecap="round" stroke-linejoin="round"/>
<path fill-rule="evenodd" clip-rule="evenodd" d="M3.99658 8.99877H22.0041V5.92549L13.0003 1.99585L3.99658 5.92549V8.99877Z" stroke="#161924" stroke-width="1.5" stroke-linecap="round" stroke-linejoin="round"/>
<path d="M5.27148 17.7274L7.72251 15.2764" stroke="#161924" stroke-width="1.5" stroke-linecap="round" stroke-linejoin="round"/>
<path d="M8.12165 18.0576C8.1405 18.0768 8.1403 18.1077 8.12118 18.1266C8.10206 18.1456 8.07121 18.1456 8.05209 18.1266C8.03297 18.1077 8.03276 18.0768 8.05162 18.0576C8.0607 18.0479 8.07337 18.0424 8.08663 18.0424C8.0999 18.0424 8.11257 18.0479 8.12165 18.0576" stroke="#161924" stroke-width="1.5" stroke-linecap="round" stroke-linejoin="round"/>
<path fill-rule="evenodd" clip-rule="evenodd" d="M10.9998 16.5019C10.9998 18.9882 8.98429 21.0038 6.49797 21.0038C4.01165 21.0038 1.99609 18.9882 1.99609 16.5019C1.99609 14.0156 4.01165 12 6.49797 12C7.69251 11.9981 8.83866 12.4719 9.68333 13.3165C10.528 14.1612 11.0017 15.3073 10.9998 16.5019Z" stroke="#161924" stroke-width="1.5" stroke-linecap="round" stroke-linejoin="round"/>
<path d="M4.87437 14.9463C4.85552 14.927 4.85573 14.8962 4.87484 14.8772C4.89396 14.8582 4.92482 14.8582 4.94393 14.8772C4.96305 14.8962 4.96326 14.927 4.9444 14.9463C4.93533 14.956 4.92265 14.9614 4.90939 14.9614C4.89612 14.9614 4.88345 14.956 4.87437 14.9463" stroke="#161924" stroke-width="1.5" stroke-linecap="round" stroke-linejoin="round"/>
</svg>
