<svg width="24" height="24" viewBox="0 0 24 24" fill="none" xmlns="http://www.w3.org/2000/svg">
<path fill-rule="evenodd" clip-rule="evenodd" d="M13.9839 17.4425V15.1759C13.9838 14.6137 14.3363 14.1118 14.8652 13.9212L16.8985 13.1892C17.5992 12.9369 18.3659 12.9369 19.0665 13.1892L21.1025 13.9225C21.631 14.113 21.9834 14.6141 21.9839 15.1759V17.4425C21.9839 19.1398 19.6092 20.3958 18.5172 20.8852C18.1781 21.0383 17.7896 21.0383 17.4505 20.8852C16.3586 20.3958 13.9839 19.1372 13.9839 17.4425Z" stroke="#161924" stroke-width="1.5" stroke-linecap="round" stroke-linejoin="round"/>
<path d="M17.75 17.65L19.25 16.15" stroke="#161924" stroke-width="1.5" stroke-linecap="round" stroke-linejoin="round"/>
<path d="M16.75 16.65L17.75 17.65" stroke="#161924" stroke-width="1.5" stroke-linecap="round" stroke-linejoin="round"/>
<path d="M8.35693 17V8.93396" stroke="#161924" stroke-width="1.5" stroke-linecap="round" stroke-linejoin="round"/>
<path d="M4 8.93396V17" stroke="#161924" stroke-width="1.5" stroke-linecap="round" stroke-linejoin="round"/>
<path d="M11 17H3L2 19V20H12" stroke="#161924" stroke-width="1.5" stroke-linecap="round" stroke-linejoin="round"/>
<path fill-rule="evenodd" clip-rule="evenodd" d="M20 5.928L11 2L2 5.928V8.934H20V5.928Z" stroke="#161924" stroke-width="1.5" stroke-linecap="round" stroke-linejoin="round"/>
</svg>
