<svg width="24" height="24" viewBox="0 0 24 24" fill="none" xmlns="http://www.w3.org/2000/svg">
<path d="M8.35568 17.0021V8.93274" stroke="#161924" stroke-width="1.5" stroke-linecap="round" stroke-linejoin="round"/>
<path d="M3.99679 8.93274V17.0021" stroke="#161924" stroke-width="1.5" stroke-linecap="round" stroke-linejoin="round"/>
<path d="M8.99901 17.0021H2.99651L1.99609 19.0029V20.0033H9.99943" stroke="#161924" stroke-width="1.5" stroke-linecap="round" stroke-linejoin="round"/>
<path fill-rule="evenodd" clip-rule="evenodd" d="M13.0834 19.7712L12.9393 18.6848L12.2741 17.8144C11.908 17.3351 11.908 16.6701 12.2741 16.1907L12.9393 15.3214L13.0844 14.2349C13.1644 13.6369 13.6348 13.1664 14.2329 13.0865L15.3183 12.9424L16.1887 12.2771C16.668 11.911 17.333 11.911 17.8124 12.2771L18.6827 12.9424L19.7692 13.0875C20.3671 13.1677 20.8374 13.638 20.9177 14.2359L21.0617 15.3214L21.727 16.1907C22.0931 16.6701 22.0931 17.3351 21.727 17.8144L21.0617 18.6848L20.9167 19.7712C20.8368 20.3695 20.3664 20.8403 19.7682 20.9207L18.6827 21.0638L17.8124 21.7301C17.3327 22.0951 16.6684 22.0951 16.1887 21.7301L15.3183 21.0638L14.2319 20.9187C13.6338 20.8395 13.1631 20.3692 13.0834 19.7712Z" stroke="#161924" stroke-width="1.5" stroke-linecap="round" stroke-linejoin="round"/>
<path d="M18.5586 16.2247L16.6128 18.1705L15.4453 17.0021" stroke="#161924" stroke-width="1.5" stroke-linecap="round" stroke-linejoin="round"/>
<path fill-rule="evenodd" clip-rule="evenodd" d="M20.0036 5.92549L10.9998 1.99585L1.99609 5.92549V8.93274H20.0036V5.92549Z" stroke="#161924" stroke-width="1.5" stroke-linecap="round" stroke-linejoin="round"/>
</svg>
