<svg width="24" height="24" viewBox="0 0 24 24" fill="none" xmlns="http://www.w3.org/2000/svg">
<path d="M15.6447 8.99878V17.0021" stroke="#161924" stroke-width="1.5" stroke-linecap="round" stroke-linejoin="round"/>
<path d="M20.0036 17.0021V8.99878" stroke="#161924" stroke-width="1.5" stroke-linecap="round" stroke-linejoin="round"/>
<path d="M14.001 20.0033H22.0043V19.0029L21.0039 17.0021H14.001" stroke="#161924" stroke-width="1.5" stroke-linecap="round" stroke-linejoin="round"/>
<path fill-rule="evenodd" clip-rule="evenodd" d="M3.99658 8.99877H22.0041V5.92549L13.0003 1.99585L3.99658 5.92549V8.99877Z" stroke="#161924" stroke-width="1.5" stroke-linecap="round" stroke-linejoin="round"/>
<path d="M6.49797 12C8.98429 12 10.9998 14.0156 10.9998 16.5019C10.9998 18.9882 8.98429 21.0037 6.49797 21.0037C4.01165 21.0037 1.99609 18.9882 1.99609 16.5019C1.99609 14.0156 4.01165 12 6.49797 12" stroke="#161924" stroke-width="1.5" stroke-linecap="round" stroke-linejoin="round"/>
<path d="M7.72042 16.4519C7.6928 16.4519 7.6704 16.4743 7.6704 16.5019C7.6704 16.5295 7.6928 16.5519 7.72042 16.5519C7.74805 16.5519 7.77044 16.5295 7.77044 16.5019C7.77044 16.4743 7.74805 16.4519 7.72042 16.4519" stroke="#161924" stroke-width="1.5" stroke-linecap="round" stroke-linejoin="round"/>
<path d="M5.27411 16.4518C5.24704 16.4518 5.22509 16.4737 5.22509 16.5008V16.5008C5.22509 16.521 5.23728 16.5393 5.25597 16.547C5.27466 16.5548 5.29617 16.5505 5.31048 16.5362C5.32479 16.5219 5.32907 16.5004 5.32132 16.4817C5.31358 16.463 5.29534 16.4508 5.27511 16.4508" stroke="#161924" stroke-width="1.5" stroke-linecap="round" stroke-linejoin="round"/>
</svg>
