<svg width="24" height="24" viewBox="0 0 24 24" fill="none" xmlns="http://www.w3.org/2000/svg">
<path d="M9 14.5V10" stroke="#161924" stroke-width="1.5" stroke-linecap="round" stroke-linejoin="round"/>
<path d="M12 14.5V10" stroke="#161924" stroke-width="1.5" stroke-linecap="round" stroke-linejoin="round"/>
<path d="M15 14.5V10" stroke="#161924" stroke-width="1.5" stroke-linecap="round" stroke-linejoin="round"/>
<path d="M12.6055 17.9986L9.00968 20.8649C8.82512 21.012 8.57262 21.0404 8.35998 20.938C8.14735 20.8355 8.01218 20.6204 8.01218 20.3844V18H6C4.34315 18 3 16.6569 3 15V6C3 4.34315 4.34315 3 6 3H18C19.6569 3 21 4.34315 21 6V15C21 16.6569 19.6569 18 18 18H12.6055" stroke="#161924" stroke-width="1.5" stroke-linecap="round" stroke-linejoin="round"/>
<path d="M8 14.5H16" stroke="#161924" stroke-width="1.5" stroke-linecap="round" stroke-linejoin="round"/>
<path fill-rule="evenodd" clip-rule="evenodd" d="M8 8.15V10H16V8.15L12 6.5L8 8.15Z" stroke="#161924" stroke-width="1.5" stroke-linecap="round" stroke-linejoin="round"/>
</svg>
