<svg width="24" height="24" viewBox="0 0 24 24" fill="none" xmlns="http://www.w3.org/2000/svg">
<path d="M20.0005 9.478V6C20.0005 4.895 19.1055 4 18.0005 4H14.5225" stroke="#161924" stroke-width="1.5" stroke-linecap="round" stroke-linejoin="round"/>
<path d="M8.478 4H5C3.895 4 3 4.895 3 6V9.478" stroke="#161924" stroke-width="1.5" stroke-linecap="round" stroke-linejoin="round"/>
<path d="M3 14.522V18C3 19.105 3.895 20 5 20H8.478" stroke="#161924" stroke-width="1.5" stroke-linecap="round" stroke-linejoin="round"/>
<path d="M10.0345 15.965C10.0545 15.985 10.0545 16.016 10.0345 16.036C10.0145 16.056 9.98352 16.056 9.96352 16.036C9.94352 16.016 9.94352 15.985 9.96352 15.965C9.98352 15.945 10.0155 15.945 10.0345 15.965" stroke="#161924" stroke-width="1.5" stroke-linecap="round" stroke-linejoin="round"/>
<path d="M7 8V16" stroke="#161924" stroke-width="1.5" stroke-linecap="round" stroke-linejoin="round"/>
<path d="M13 8V11" stroke="#161924" stroke-width="1.5" stroke-linecap="round" stroke-linejoin="round"/>
<path d="M10 8V13" stroke="#161924" stroke-width="1.5" stroke-linecap="round" stroke-linejoin="round"/>
<path d="M16 8V10" stroke="#161924" stroke-width="1.5" stroke-linecap="round" stroke-linejoin="round"/>
<path d="M19.1213 13.879C20.4193 15.177 20.2793 17.366 18.7033 18.473C17.7003 19.177 16.2993 19.177 15.2963 18.473C13.7193 17.367 13.5803 15.177 14.8783 13.879C16.0503 12.707 17.9503 12.707 19.1213 13.879" stroke="#161924" stroke-width="1.5" stroke-linecap="round" stroke-linejoin="round"/>
<path d="M21.0001 20L19.1201 18.12" stroke="#161924" stroke-width="1.5" stroke-linecap="round" stroke-linejoin="round"/>
</svg>
