<svg width="24" height="24" viewBox="0 0 24 24" fill="none" xmlns="http://www.w3.org/2000/svg">
<path d="M10.5345 14.927C10.5545 14.947 10.5545 14.978 10.5345 14.998C10.5145 15.018 10.4835 15.018 10.4635 14.998C10.4435 14.978 10.4435 14.947 10.4635 14.927C10.4835 14.907 10.5155 14.908 10.5345 14.927" stroke="#161924" stroke-width="1.5" stroke-linecap="round" stroke-linejoin="round"/>
<path d="M13.5345 14.927C13.5545 14.947 13.5545 14.978 13.5345 14.998C13.5145 15.018 13.4835 15.018 13.4635 14.998C13.4435 14.978 13.4435 14.947 13.4635 14.927C13.4835 14.907 13.5155 14.908 13.5345 14.927" stroke="#161924" stroke-width="1.5" stroke-linecap="round" stroke-linejoin="round"/>
<path d="M16.5 8.98798V14.963" stroke="#161924" stroke-width="1.5" stroke-linecap="round" stroke-linejoin="round"/>
<path d="M7.5 8.98798V14.963" stroke="#161924" stroke-width="1.5" stroke-linecap="round" stroke-linejoin="round"/>
<path d="M13.5 8.98798V12.563" stroke="#161924" stroke-width="1.5" stroke-linecap="round" stroke-linejoin="round"/>
<path d="M10.5 8.98798V12.563" stroke="#161924" stroke-width="1.5" stroke-linecap="round" stroke-linejoin="round"/>
<path fill-rule="evenodd" clip-rule="evenodd" d="M12 21V21C7.029 21 3 16.971 3 12V12C3 7.029 7.029 3 12 3V3C16.971 3 21 7.029 21 12V12C21 16.971 16.971 21 12 21Z" stroke="#161924" stroke-width="1.5" stroke-linecap="round" stroke-linejoin="round"/>
</svg>
