<svg width="24" height="24" viewBox="0 0 24 24" fill="none" xmlns="http://www.w3.org/2000/svg">
<path d="M10.3675 14.927C10.3875 14.947 10.3875 14.978 10.3675 14.998C10.3475 15.018 10.3165 15.018 10.2965 14.998C10.2765 14.978 10.2765 14.947 10.2965 14.927C10.3165 14.907 10.3485 14.908 10.3675 14.927" stroke="#161924" stroke-width="1.5" stroke-linecap="round" stroke-linejoin="round"/>
<path d="M13.7035 14.927C13.7235 14.947 13.7235 14.978 13.7035 14.998C13.6835 15.018 13.6525 15.018 13.6325 14.998C13.6125 14.978 13.6125 14.947 13.6325 14.927C13.6525 14.907 13.6845 14.908 13.7035 14.927" stroke="#161924" stroke-width="1.5" stroke-linecap="round" stroke-linejoin="round"/>
<path d="M17 8.98798V14.963" stroke="#161924" stroke-width="1.5" stroke-linecap="round" stroke-linejoin="round"/>
<path d="M7 8.98798V14.963" stroke="#161924" stroke-width="1.5" stroke-linecap="round" stroke-linejoin="round"/>
<path d="M13.667 8.98798V12.563" stroke="#161924" stroke-width="1.5" stroke-linecap="round" stroke-linejoin="round"/>
<path d="M10.333 8.98798V12.563" stroke="#161924" stroke-width="1.5" stroke-linecap="round" stroke-linejoin="round"/>
<path fill-rule="evenodd" clip-rule="evenodd" d="M17 21H7C4.791 21 3 19.209 3 17V7C3 4.791 4.791 3 7 3H17C19.209 3 21 4.791 21 7V17C21 19.209 19.209 21 17 21Z" stroke="#161924" stroke-width="1.5" stroke-linecap="round" stroke-linejoin="round"/>
</svg>
