<svg width="24" height="24" viewBox="0 0 24 24" fill="none" xmlns="http://www.w3.org/2000/svg">
<path fill-rule="evenodd" clip-rule="evenodd" d="M4.31039 6.527L6.40039 3.787C6.77839 3.291 7.36639 3 7.99039 3H16.0104C16.6344 3 17.2224 3.291 17.6004 3.787L19.6904 6.527C19.9564 6.875 20.1004 7.302 20.1004 7.74V19C20.1004 20.105 19.2054 21 18.1004 21H5.90039C4.79539 21 3.90039 20.105 3.90039 19V7.74C3.90039 7.302 4.04439 6.876 4.31039 6.527Z" stroke="#161924" stroke-width="1.5" stroke-linecap="round" stroke-linejoin="round"/>
<path d="M16 10C16 12.209 14.209 14 12 14C9.791 14 8 12.209 8 10" stroke="#161924" stroke-width="1.5" stroke-linecap="round" stroke-linejoin="round"/>
<path d="M4.01953 7.07001H19.9795" stroke="#161924" stroke-width="1.5" stroke-linecap="round" stroke-linejoin="round"/>
</svg>
