<svg width="24" height="24" viewBox="0 0 24 24" fill="none" xmlns="http://www.w3.org/2000/svg">
<path fill-rule="evenodd" clip-rule="evenodd" d="M14.1241 13.5007H9.86136C9.54563 13.5005 9.26907 13.2891 9.18607 12.9844L8.5178 10.5334C8.4605 10.3231 8.5044 10.0981 8.63657 9.92474C8.76874 9.75139 8.97409 9.64948 9.19208 9.64905H14.7944C15.0126 9.64917 15.2182 9.75095 15.3506 9.92434C15.483 10.0977 15.527 10.3229 15.4697 10.5334L14.8014 12.9844C14.7182 13.2898 14.4406 13.5014 14.1241 13.5007V13.5007Z" stroke="#161924" stroke-width="1.5" stroke-linecap="round" stroke-linejoin="round"/>
<path fill-rule="evenodd" clip-rule="evenodd" d="M20.9968 6.15962V13.8098C20.997 14.6525 20.6625 15.4608 20.0668 16.0568C19.4712 16.6529 18.6631 16.9879 17.8204 16.9881H12.9944L7.99234 20.9898V16.9881H6.16658C4.41179 16.9881 2.98926 15.5656 2.98926 13.8108V13.8108V6.15962C2.98926 4.40484 4.41179 2.9823 6.16658 2.9823H17.8194C19.5742 2.9823 20.9968 4.40484 20.9968 6.15962V6.15962Z" stroke="#161924" stroke-width="1.5" stroke-linecap="round" stroke-linejoin="round"/>
<path d="M9.12109 9.66607L11.0999 6.94994C11.3072 6.6669 11.637 6.49963 11.9878 6.49963C12.3386 6.49963 12.6684 6.6669 12.8757 6.94994L14.8635 9.66807" stroke="#161924" stroke-width="1.5" stroke-linecap="round" stroke-linejoin="round"/>
</svg>
