<svg width="24" height="24" viewBox="0 0 24 24" fill="none" xmlns="http://www.w3.org/2000/svg">
<path fill-rule="evenodd" clip-rule="evenodd" d="M17.7603 20.64H6.24031C5.17951 20.64 4.32031 19.7808 4.32031 18.72V8.64001C4.32031 7.84513 4.96543 7.20001 5.76031 7.20001H18.2403C19.0352 7.20001 19.6803 7.84513 19.6803 8.64001V18.72C19.6803 19.7808 18.8211 20.64 17.7603 20.64Z" stroke="#161924" stroke-width="1.5" stroke-linecap="round" stroke-linejoin="round"/>
<path d="M15.8394 10.368C15.7069 10.368 15.5994 10.4755 15.6004 10.608C15.6004 10.7405 15.7079 10.848 15.8404 10.848C15.9728 10.848 16.0804 10.7405 16.0804 10.608C16.0804 10.4755 15.9728 10.368 15.8394 10.368" stroke="#161924" stroke-width="1.5" stroke-linecap="round" stroke-linejoin="round"/>
<path d="M8.15971 10.368C8.02723 10.368 7.91971 10.4755 7.92067 10.608C7.92067 10.7405 8.02819 10.848 8.16067 10.848C8.29315 10.848 8.40067 10.7405 8.40067 10.608C8.40067 10.4755 8.29315 10.368 8.15971 10.368" stroke="#161924" stroke-width="1.5" stroke-linecap="round" stroke-linejoin="round"/>
<path d="M8.16016 7.19999V6.95999V6.95999C8.16016 4.97183 9.772 3.35999 11.7602 3.35999H12.2402C14.2283 3.35999 15.8402 4.97183 15.8402 6.95999V6.95999V7.19999" stroke="#161924" stroke-width="1.5" stroke-linecap="round" stroke-linejoin="round"/>
</svg>
