<svg width="24" height="24" viewBox="0 0 24 24" fill="none" xmlns="http://www.w3.org/2000/svg">
<path d="M9.99901 20.0034H4.99693C3.89147 20.0034 2.99609 19.108 2.99609 18.0026V7.49818C2.99609 6.66984 3.66837 5.99756 4.49672 5.99756H17.5021C18.3305 5.99756 19.0028 6.66984 19.0028 7.49818V9.99923" stroke="#161924" stroke-width="1.5" stroke-linecap="round" stroke-linejoin="round"/>
<path d="M6.99805 5.99752V5.74741V5.74741C6.99805 3.67555 8.67775 1.99585 10.7496 1.99585H11.2498C13.3217 1.99585 15.0014 3.67555 15.0014 5.74741V5.74741V5.99752" stroke="#161924" stroke-width="1.5" stroke-linecap="round" stroke-linejoin="round"/>
<path d="M19.6912 13.3406C21.685 15.3344 21.4079 18.7399 18.8588 20.3405C17.4523 21.2249 15.5915 21.2249 14.1839 20.3405C11.6358 18.7389 11.3577 15.3344 13.3516 13.3406C15.1023 11.5909 17.9405 11.5909 19.6912 13.3406" stroke="#161924" stroke-width="1.5" stroke-linecap="round" stroke-linejoin="round"/>
<path d="M15.6786 15.6685L16.521 14.8252V18.1966" stroke="#161924" stroke-width="1.5" stroke-linecap="round" stroke-linejoin="round"/>
<path d="M15.6816 18.1987H17.3613" stroke="#161924" stroke-width="1.5" stroke-linecap="round" stroke-linejoin="round"/>
</svg>
