<svg width="24" height="24" viewBox="0 0 24 24" fill="none" xmlns="http://www.w3.org/2000/svg">
<path d="M15.0058 16.542C14.8798 16.542 14.7768 16.644 14.7788 16.771C14.7788 16.897 14.8808 17 15.0078 17C15.1348 17 15.2368 16.898 15.2368 16.771C15.2348 16.644 15.1318 16.542 15.0058 16.542" stroke="#161924" stroke-width="1.5" stroke-linecap="round" stroke-linejoin="round"/>
<path d="M9.74754 16.542C9.62154 16.542 9.51854 16.644 9.52054 16.771C9.51954 16.897 9.62254 17 9.74854 17C9.87454 17 9.97754 16.898 9.97754 16.771C9.97754 16.644 9.87454 16.542 9.74754 16.542" stroke="#161924" stroke-width="1.5" stroke-linecap="round" stroke-linejoin="round"/>
<path fill-rule="evenodd" clip-rule="evenodd" d="M17 21H7C4.791 21 3 19.209 3 17V7C3 4.791 4.791 3 7 3H17C19.209 3 21 4.791 21 7V17C21 19.209 19.209 21 17 21Z" stroke="#161924" stroke-width="1.5" stroke-linecap="round" stroke-linejoin="round"/>
<path d="M7.984 8.875H15.875C16.282 8.875 16.58 9.257 16.481 9.652L15.639 13.022C15.511 13.534 15.076 13.91 14.551 13.963L10.291 14.389C9.656 14.452 9.075 14.028 8.944 13.404L7.578 7H6.5" stroke="#161924" stroke-width="1.5" stroke-linecap="round" stroke-linejoin="round"/>
</svg>
