<svg width="24" height="24" viewBox="0 0 24 24" fill="none" xmlns="http://www.w3.org/2000/svg">
<path d="M16.0018 21.504L14.001 19.5032L16.0018 17.5023" stroke="#161924" stroke-width="1.5" stroke-linecap="round" stroke-linejoin="round"/>
<path d="M20.0035 19.5031H14.001" stroke="#161924" stroke-width="1.5" stroke-linecap="round" stroke-linejoin="round"/>
<path d="M20.0619 15.5014C21.7679 12.0648 21.1086 7.92455 18.4196 5.18773C15.7306 2.45092 11.6026 1.71884 8.13641 3.36405C4.67023 5.00926 2.62743 8.67028 3.04758 12.484C3.46774 16.2978 6.25855 19.4263 9.99975 20.2774" stroke="#161924" stroke-width="1.5" stroke-linecap="round" stroke-linejoin="round"/>
<path fill-rule="evenodd" clip-rule="evenodd" d="M13.9951 14.501H10.0045C9.55322 14.5011 9.15775 14.1991 9.03907 13.7637L8.53887 11.9119C8.45745 11.6121 8.51999 11.2914 8.70811 11.0441C8.89622 10.7968 9.18856 10.651 9.49927 10.6494H14.5013C14.8132 10.6494 15.1072 10.7947 15.2965 11.0425C15.4858 11.2902 15.5488 11.6121 15.4668 11.9129L14.9615 13.7647C14.8424 14.2 14.4465 14.5017 13.9951 14.501Z" stroke="#161924" stroke-width="1.5" stroke-linecap="round" stroke-linejoin="round"/>
<path d="M9.13477 10.7245L11.1866 7.9103C11.375 7.65244 11.6751 7.5 11.9945 7.5C12.3138 7.5 12.6139 7.65244 12.8023 7.9103L14.8612 10.7255" stroke="#161924" stroke-width="1.5" stroke-linecap="round" stroke-linejoin="round"/>
</svg>
