<svg width="24" height="24" viewBox="0 0 24 24" fill="none" xmlns="http://www.w3.org/2000/svg">
<path d="M10 20H5C3.895 20 3 19.105 3 18V7.5C3 6.672 3.672 6 4.5 6H17.5C18.328 6 19 6.672 19 7.5V10" stroke="#161924" stroke-width="1.5" stroke-linecap="round" stroke-linejoin="round"/>
<path fill-rule="evenodd" clip-rule="evenodd" d="M13.5613 18.306C13.2413 17.821 13.2413 17.181 13.5613 16.696C14.5513 15.199 16.1053 14 17.6603 14C19.2153 14 20.7683 15.199 21.7593 16.695C22.0803 17.18 22.0803 17.821 21.7593 18.305C20.7673 19.801 19.2143 21 17.6603 21C16.1053 21.001 14.5513 19.802 13.5613 18.306Z" stroke="#161924" stroke-width="1.5" stroke-linecap="round" stroke-linejoin="round"/>
<path d="M17.7762 17.384C17.8412 17.449 17.8412 17.553 17.7762 17.618C17.7112 17.683 17.6072 17.683 17.5422 17.618C17.4772 17.553 17.4772 17.449 17.5422 17.384C17.6072 17.319 17.7122 17.319 17.7762 17.384" stroke="#161924" stroke-width="1.5" stroke-linecap="round" stroke-linejoin="round"/>
<path d="M7 6V5.75V5.75C7 3.679 8.679 2 10.75 2H11.25C13.321 2 15 3.679 15 5.75V5.75V6" stroke="#161924" stroke-width="1.5" stroke-linecap="round" stroke-linejoin="round"/>
</svg>
