<svg width="24" height="24" viewBox="0 0 24 24" fill="none" xmlns="http://www.w3.org/2000/svg">
<path fill-rule="evenodd" clip-rule="evenodd" d="M15.046 16.5018H8.9535C8.50231 16.5018 8.10715 16.1997 7.9881 15.7645L7.0327 12.263C6.85963 11.6268 7.33883 10.9995 7.9991 10.9995H16.0014C16.6607 10.9995 17.1399 11.6268 16.9668 12.263L16.0114 15.7645C15.8924 16.1997 15.4972 16.5018 15.046 16.5018Z" stroke="#161924" stroke-width="1.5" stroke-linecap="round" stroke-linejoin="round"/>
<path d="M15.9579 11.0066L12.7496 7.34006C12.3504 6.88387 11.6411 6.88487 11.2429 7.34106L8.05762 10.9906" stroke="#161924" stroke-width="1.5" stroke-linecap="round" stroke-linejoin="round"/>
<path fill-rule="evenodd" clip-rule="evenodd" d="M17.0019 21.0037H6.99776C4.78784 21.0037 2.99609 19.212 2.99609 17.002V6.99788C2.99609 4.78796 4.78784 2.99622 6.99776 2.99622H17.0019C19.2118 2.99622 21.0036 4.78796 21.0036 6.99788V17.002C21.0036 19.212 19.2118 21.0037 17.0019 21.0037Z" stroke="#161924" stroke-width="1.5" stroke-linecap="round" stroke-linejoin="round"/>
</svg>
