<svg width="24" height="24" viewBox="0 0 24 24" fill="none" xmlns="http://www.w3.org/2000/svg">
<path fill-rule="evenodd" clip-rule="evenodd" d="M20 12H4C3.448 12 3 11.552 3 11V9C3 8.448 3.448 8 4 8H20C20.552 8 21 8.448 21 9V11C21 11.552 20.552 12 20 12Z" stroke="#161924" stroke-width="1.5" stroke-linecap="round" stroke-linejoin="round"/>
<path d="M14.04 3.03003L17 7.97003" stroke="#161924" stroke-width="1.5" stroke-linecap="round" stroke-linejoin="round"/>
<path d="M9.96 3.03003L7 7.97003" stroke="#161924" stroke-width="1.5" stroke-linecap="round" stroke-linejoin="round"/>
<path d="M20.5355 13.4645C22.4882 15.4171 22.4882 18.583 20.5355 20.5356C18.5829 22.4882 15.4171 22.4882 13.4645 20.5356C11.5118 18.583 11.5118 15.4171 13.4645 13.4645C15.4171 11.5119 18.5829 11.5119 20.5355 13.4645" stroke="#161924" stroke-width="1.5" stroke-linecap="round" stroke-linejoin="round"/>
<path d="M17 15V19" stroke="#161924" stroke-width="1.5" stroke-linecap="round" stroke-linejoin="round"/>
<path d="M19 17H15" stroke="#161924" stroke-width="1.5" stroke-linecap="round" stroke-linejoin="round"/>
<path d="M13.9632 20.972H7.39519C6.68919 20.972 6.07919 20.48 5.92919 19.79L4.24219 12" stroke="#161924" stroke-width="1.5" stroke-linecap="round" stroke-linejoin="round"/>
</svg>
