<svg width="24" height="24" viewBox="0 0 24 24" fill="none" xmlns="http://www.w3.org/2000/svg">
<path d="M10 20H5C3.895 20 3 19.105 3 18V7.5C3 6.672 3.672 6 4.5 6H17.5C18.328 6 19 6.672 19 7.5V10" stroke="#161924" stroke-width="1.5" stroke-linecap="round" stroke-linejoin="round"/>
<path fill-rule="evenodd" clip-rule="evenodd" d="M17.293 20.707L20.707 17.293C21.098 16.902 21.098 16.269 20.707 15.879L19.121 14.293C18.73 13.902 18.097 13.902 17.707 14.293L14.293 17.707C14.105 17.895 14 18.149 14 18.414V21H16.586C16.851 21 17.105 20.895 17.293 20.707V20.707Z" stroke="#161924" stroke-width="1.5" stroke-linecap="round" stroke-linejoin="round"/>
<path d="M7 6V5.75V5.75C7 3.679 8.679 2 10.75 2H11.25C13.321 2 15 3.679 15 5.75V5.75V6" stroke="#161924" stroke-width="1.5" stroke-linecap="round" stroke-linejoin="round"/>
</svg>
