<svg width="24" height="24" viewBox="0 0 24 24" fill="none" xmlns="http://www.w3.org/2000/svg">
<path d="M16.3018 3.57247H19.203" stroke="#161924" stroke-width="1.5" stroke-linecap="round" stroke-linejoin="round"/>
<path d="M12.0004 2.99622C7.46038 2.99037 3.6262 6.36556 3.05627 10.8697C2.48633 15.3738 5.35896 19.5977 9.75736 20.7228C14.1558 21.848 18.7038 19.5225 20.3668 15.298C22.0298 11.0734 20.2874 6.27169 16.3022 4.09669" stroke="#161924" stroke-width="1.5" stroke-linecap="round" stroke-linejoin="round"/>
<path d="M16.302 3.57251V3.57251V6.47372" stroke="#161924" stroke-width="1.5" stroke-linecap="round" stroke-linejoin="round"/>
<path fill-rule="evenodd" clip-rule="evenodd" d="M14.1311 15.5015H9.86829C9.55256 15.5013 9.276 15.2899 9.19301 14.9853L8.52473 12.5343C8.42329 12.1614 8.64312 11.7768 9.01593 11.6749C9.07551 11.6581 9.13712 11.6497 9.19901 11.6499H14.8013C15.1881 11.6499 15.5016 11.9634 15.5016 12.3502C15.5014 12.4124 15.493 12.4743 15.4766 12.5343L14.8083 14.9853C14.7252 15.2906 14.4475 15.5022 14.1311 15.5015V15.5015Z" stroke="#161924" stroke-width="1.5" stroke-linecap="round" stroke-linejoin="round"/>
<path d="M9.12793 11.6658L11.1078 8.94972C11.4667 8.45947 12.155 8.35289 12.6454 8.71162C12.7363 8.77853 12.8166 8.8588 12.8835 8.94972L14.8713 11.6678" stroke="#161924" stroke-width="1.5" stroke-linecap="round" stroke-linejoin="round"/>
</svg>
