<svg width="24" height="24" viewBox="0 0 24 24" fill="none" xmlns="http://www.w3.org/2000/svg">
<path d="M17.9248 5.237C19.3878 6.52 20.4348 8.265 20.8268 10.25" stroke="#161924" stroke-width="1.5" stroke-linecap="round" stroke-linejoin="round"/>
<path d="M6.07485 18.763C4.61185 17.48 3.56485 15.735 3.17285 13.75" stroke="#161924" stroke-width="1.5" stroke-linecap="round" stroke-linejoin="round"/>
<path d="M14.8955 20.515C13.9855 20.825 13.0135 21 11.9995 21C10.9855 21 10.0135 20.825 9.10352 20.515" stroke="#161924" stroke-width="1.5" stroke-linecap="round" stroke-linejoin="round"/>
<path d="M14.8955 3.48499C13.9855 3.17499 13.0135 2.99999 11.9995 2.99999C10.9855 2.99999 10.0135 3.17499 9.10352 3.48499" stroke="#161924" stroke-width="1.5" stroke-linecap="round" stroke-linejoin="round"/>
<path d="M17.9248 18.763C19.3878 17.48 20.4348 15.735 20.8268 13.75" stroke="#161924" stroke-width="1.5" stroke-linecap="round" stroke-linejoin="round"/>
<path d="M3.17285 10.25C3.56385 8.265 4.61085 6.521 6.07485 5.237" stroke="#161924" stroke-width="1.5" stroke-linecap="round" stroke-linejoin="round"/>
<path fill-rule="evenodd" clip-rule="evenodd" d="M8.57134 10.5H15.4293C16.0673 10.5 16.5413 11.089 16.4063 11.712L15.6483 15.212C15.5483 15.672 15.1413 16 14.6713 16H9.32934C8.85834 16 8.45134 15.672 8.35234 15.212L7.59434 11.712C7.45934 11.089 7.93434 10.5 8.57134 10.5Z" stroke="#161924" stroke-width="1.5" stroke-linecap="round" stroke-linejoin="round"/>
<path d="M10.0003 8L9.06027 10.5" stroke="#161924" stroke-width="1.5" stroke-linecap="round" stroke-linejoin="round"/>
<path d="M13.9997 8L14.9397 10.5" stroke="#161924" stroke-width="1.5" stroke-linecap="round" stroke-linejoin="round"/>
</svg>
