<svg width="24" height="24" viewBox="0 0 24 24" fill="none" xmlns="http://www.w3.org/2000/svg">
<path d="M7.5 8.5H8.758L9.759 13.5H14.804L15.5 10H9.058" stroke="#161924" stroke-width="1.5" stroke-linecap="round" stroke-linejoin="round"/>
<path d="M8 3H3" stroke="#161924" stroke-width="1.5" stroke-linecap="round" stroke-linejoin="round"/>
<path d="M3 6H6" stroke="#161924" stroke-width="1.5" stroke-linecap="round" stroke-linejoin="round"/>
<path d="M12 3C16.9706 3 21 7.02944 21 12C21 16.9706 16.9706 21 12 21C7.02944 21 3 16.9706 3 12C3.0027 11.3264 3.08262 10.6554 3.23822 10" stroke="#161924" stroke-width="1.5" stroke-linecap="round" stroke-linejoin="round"/>
<path d="M14.3285 15.9147C14.3479 15.9343 14.3478 15.9659 14.3283 15.9854C14.3087 16.0048 14.2771 16.0048 14.2576 15.9853C14.2381 15.9658 14.2381 15.9342 14.2575 15.9147C14.277 15.8951 14.3086 15.895 14.3282 15.9145L14.3285 15.9147" stroke="#161924" stroke-width="1.5" stroke-linecap="round" stroke-linejoin="round"/>
<path d="M10.3001 15.9147C10.3196 15.9343 10.3195 15.9659 10.2999 15.9854C10.2804 16.0048 10.2488 16.0048 10.2293 15.9853C10.2098 15.9658 10.2098 15.9342 10.2292 15.9147C10.2487 15.8951 10.2803 15.895 10.2999 15.9145L10.3001 15.9147" stroke="#161924" stroke-width="1.5" stroke-linecap="round" stroke-linejoin="round"/>
</svg>
