<svg width="24" height="24" viewBox="0 0 24 24" fill="none" xmlns="http://www.w3.org/2000/svg">
<path d="M21.0042 18.0024C21.0042 19.66 19.6605 21.0037 18.0029 21.0037" stroke="#161924" stroke-width="1.5" stroke-linecap="round" stroke-linejoin="round"/>
<path d="M21.0042 18.0024C21.0042 19.66 19.6605 21.0037 18.0029 21.0037" stroke="#161924" stroke-width="1.5" stroke-linecap="round" stroke-linejoin="round"/>
<path fill-rule="evenodd" clip-rule="evenodd" d="M15.0466 16.5019H8.95407C8.50281 16.502 8.10735 16.2 7.98867 15.7646L7.03327 12.2632C6.95127 11.9623 7.01422 11.6404 7.20353 11.3927C7.39284 11.1449 7.68686 10.9996 7.99868 10.9996H16.002C16.3138 10.9996 16.6078 11.1449 16.7972 11.3927C16.9865 11.6404 17.0494 11.9623 16.9674 12.2632L16.012 15.7646C15.8933 16.2 15.4979 16.502 15.0466 16.5019Z" stroke="#161924" stroke-width="1.5" stroke-linecap="round" stroke-linejoin="round"/>
<path d="M8.0498 10.9996L11.2431 7.34005C11.4331 7.12265 11.7077 6.99792 11.9964 6.99792C12.2852 6.99792 12.5598 7.12265 12.7498 7.34005L15.9521 10.9996" stroke="#161924" stroke-width="1.5" stroke-linecap="round" stroke-linejoin="round"/>
<path d="M2.99609 5.99747C2.99609 4.33992 4.3398 2.99622 5.99734 2.99622" stroke="#161924" stroke-width="1.5" stroke-linecap="round" stroke-linejoin="round"/>
<path d="M2.99609 5.99747C2.99609 4.33992 4.3398 2.99622 5.99734 2.99622" stroke="#161924" stroke-width="1.5" stroke-linecap="round" stroke-linejoin="round"/>
<path d="M5.99734 21.0037C4.3398 21.0037 2.99609 19.66 2.99609 18.0024" stroke="#161924" stroke-width="1.5" stroke-linecap="round" stroke-linejoin="round"/>
<path d="M18.0029 2.99622C19.6605 2.99622 21.0042 4.33992 21.0042 5.99747" stroke="#161924" stroke-width="1.5" stroke-linecap="round" stroke-linejoin="round"/>
<path d="M2.9963 13.6257V14.8763" stroke="#161924" stroke-width="1.5" stroke-linecap="round" stroke-linejoin="round"/>
<path d="M2.9963 9.12378V10.3743" stroke="#161924" stroke-width="1.5" stroke-linecap="round" stroke-linejoin="round"/>
<path d="M21.0041 10.3743V9.12378" stroke="#161924" stroke-width="1.5" stroke-linecap="round" stroke-linejoin="round"/>
<path d="M21.0041 14.8763V13.6257" stroke="#161924" stroke-width="1.5" stroke-linecap="round" stroke-linejoin="round"/>
<path d="M13.626 21.0037H14.8765" stroke="#161924" stroke-width="1.5" stroke-linecap="round" stroke-linejoin="round"/>
<path d="M9.12402 21.0037H10.3745" stroke="#161924" stroke-width="1.5" stroke-linecap="round" stroke-linejoin="round"/>
<path d="M10.3745 2.9963H9.12402" stroke="#161924" stroke-width="1.5" stroke-linecap="round" stroke-linejoin="round"/>
<path d="M14.8765 2.9963H13.626" stroke="#161924" stroke-width="1.5" stroke-linecap="round" stroke-linejoin="round"/>
</svg>
