<svg width="24" height="24" viewBox="0 0 24 24" fill="none" xmlns="http://www.w3.org/2000/svg">
<path d="M19 9C16.791 9 15 7.209 15 5C15 2.791 16.791 1 19 1C21.21 1 23 2.791 23 5C23 7.209 21.21 9 19 9" stroke="#161924" stroke-width="1.5" stroke-linecap="round" stroke-linejoin="round"/>
<path d="M20.7777 4.11102L18.5557 6.33302L17.2217 5.00002" stroke="#161924" stroke-width="1.5" stroke-linecap="round" stroke-linejoin="round"/>
<path d="M15.126 4H7C4.791 4 3 5.791 3 8V17C3 19.209 4.791 21 7 21H16C18.209 21 20 19.209 20 17V8.874" stroke="#161924" stroke-width="1.5" stroke-linecap="round" stroke-linejoin="round"/>
<path d="M8.57539 11H14.9754L14.2754 14.5H9.27539L8.27539 9.5H7.02539" stroke="#161924" stroke-width="1.5" stroke-linecap="round" stroke-linejoin="round"/>
<path d="M13.8099 16.965C13.8299 16.985 13.8299 17.016 13.8099 17.036C13.7899 17.056 13.7589 17.056 13.7389 17.036C13.7189 17.016 13.7189 16.985 13.7389 16.965C13.7589 16.945 13.7909 16.945 13.8099 16.965" stroke="#161924" stroke-width="1.5" stroke-linecap="round" stroke-linejoin="round"/>
<path d="M9.80991 16.965C9.82991 16.985 9.82991 17.016 9.80991 17.036C9.78991 17.056 9.75891 17.056 9.73891 17.036C9.71891 17.016 9.71891 16.985 9.73891 16.965C9.75891 16.945 9.79091 16.945 9.80991 16.965" stroke="#161924" stroke-width="1.5" stroke-linecap="round" stroke-linejoin="round"/>
</svg>
