<svg width="24" height="24" viewBox="0 0 24 24" fill="none" xmlns="http://www.w3.org/2000/svg">
<path d="M21.0036 12C21.0036 16.9726 16.9725 21.0037 11.9998 21.0037C7.02721 21.0037 2.99609 16.9726 2.99609 12C2.99609 7.02733 7.02721 2.99622 11.9998 2.99622" stroke="#161924" stroke-width="1.5" stroke-linecap="round" stroke-linejoin="round"/>
<path d="M21.0036 12C21.0036 16.9726 16.9725 21.0037 11.9998 21.0037C7.02721 21.0037 2.99609 16.9726 2.99609 12C2.99609 7.02733 7.02721 2.99622 11.9998 2.99622" stroke="#161924" stroke-width="1.5" stroke-linecap="round" stroke-linejoin="round"/>
<path fill-rule="evenodd" clip-rule="evenodd" d="M14.0013 15.5014H10.0096C9.55838 15.5015 9.16292 15.1995 9.04424 14.7641L8.54403 12.9123C8.46247 12.6132 8.52423 12.2931 8.71124 12.0458C8.89825 11.7985 9.18937 11.6518 9.49943 11.6488H14.5015C14.8133 11.6487 15.1073 11.7941 15.2967 12.0418C15.486 12.2896 15.5489 12.6115 15.4669 12.9123L14.9667 14.7641C14.848 15.1995 14.4526 15.5015 14.0013 15.5014Z" stroke="#161924" stroke-width="1.5" stroke-linecap="round" stroke-linejoin="round"/>
<path d="M9.13574 11.7239L11.1876 8.90969C11.376 8.65183 11.6761 8.49939 11.9954 8.49939C12.3148 8.49939 12.6149 8.65183 12.8033 8.90969L14.8611 11.7239" stroke="#161924" stroke-width="1.5" stroke-linecap="round" stroke-linejoin="round"/>
<path fill-rule="evenodd" clip-rule="evenodd" d="M18.343 2.38798C18.4384 2.2127 18.5995 2.08256 18.7909 2.02626C18.9824 1.96996 19.1883 1.99212 19.3634 2.08785C19.49 2.15733 19.5941 2.26144 19.6635 2.38798L20.2468 3.45342C20.3154 3.58057 20.4198 3.68489 20.5469 3.75354L21.6114 4.33679C21.8534 4.46852 22.004 4.72202 22.004 4.99756C22.004 5.27311 21.8534 5.52661 21.6114 5.65834L20.5469 6.24158C20.42 6.31051 20.3157 6.41476 20.2468 6.54171L19.6635 7.60615C19.5317 7.84766 19.2784 7.99789 19.0033 7.99789C18.7281 7.99789 18.4749 7.84766 18.343 7.60615L17.7597 6.5407C17.6908 6.41376 17.5866 6.30951 17.4596 6.24058L16.3952 5.65834C16.2199 5.56297 16.0898 5.40181 16.0335 5.21038C15.9772 5.01895 15.9993 4.81298 16.0951 4.63791C16.1637 4.51072 16.268 4.40639 16.3952 4.33779L17.4596 3.75454C17.5868 3.68589 17.6911 3.58157 17.7597 3.45442L18.343 2.38798Z" stroke="#161924" stroke-width="1.5" stroke-linecap="round" stroke-linejoin="round"/>
</svg>
