<svg width="24" height="24" viewBox="0 0 24 24" fill="none" xmlns="http://www.w3.org/2000/svg">
<path fill-rule="evenodd" clip-rule="evenodd" d="M20 12H4C3.448 12 3 11.552 3 11V9C3 8.448 3.448 8 4 8H20C20.552 8 21 8.448 21 9V11C21 11.552 20.552 12 20 12Z" stroke="#161924" stroke-width="1.5" stroke-linecap="round" stroke-linejoin="round"/>
<path d="M14.04 3.03003L17 7.97003" stroke="#161924" stroke-width="1.5" stroke-linecap="round" stroke-linejoin="round"/>
<path d="M9.96 3.03003L7 7.97003" stroke="#161924" stroke-width="1.5" stroke-linecap="round" stroke-linejoin="round"/>
<path fill-rule="evenodd" clip-rule="evenodd" d="M17.0049 22.004C14.2349 22.004 12.0049 19.764 12.0049 17.004C12.0049 14.294 14.3049 11.994 17.0049 12.004C19.7649 12.004 22.0049 14.244 22.0049 17.004C22.0049 19.764 19.7649 22.004 17.0049 22.004Z" stroke="#161924" stroke-width="1.5" stroke-linecap="round" stroke-linejoin="round"/>
<path d="M13.9632 20.972H7.39519C6.68919 20.972 6.07919 20.48 5.92919 19.79L4.24219 12" stroke="#161924" stroke-width="1.5" stroke-linecap="round" stroke-linejoin="round"/>
<path d="M19 17H15" stroke="#161924" stroke-width="1.5" stroke-linecap="round" stroke-linejoin="round"/>
<path d="M17 19L19 17L17 15" stroke="#161924" stroke-width="1.5" stroke-linecap="round" stroke-linejoin="round"/>
</svg>
