<svg width="24" height="24" viewBox="0 0 24 24" fill="none" xmlns="http://www.w3.org/2000/svg">
<path d="M20.0032 13.0005V16.752C20.0032 17.8797 19.5552 18.9611 18.7579 19.7585C17.9605 20.5558 16.879 21.0038 15.7514 21.0038H7.24786C4.89968 21.0038 2.99609 19.1002 2.99609 16.752V8.24848C2.99609 5.90029 4.89968 3.9967 7.24786 3.9967H10.9994" stroke="#161924" stroke-width="1.5" stroke-linecap="round" stroke-linejoin="round"/>
<path fill-rule="evenodd" clip-rule="evenodd" d="M17.2662 2.45402C17.4041 2.17326 17.6897 1.99536 18.0025 1.99536C18.3153 1.99536 18.6009 2.17326 18.7388 2.45402L19.3391 3.67053C19.4583 3.9132 19.6897 4.08132 19.9573 4.11972L21.3009 4.3198C21.6104 4.36446 21.8676 4.58121 21.964 4.87868C22.0605 5.17614 21.9795 5.50258 21.7551 5.72038L20.7837 6.66878C20.5897 6.85696 20.5014 7.12884 20.5476 7.39508L20.7767 8.73264C20.8298 9.04056 20.7033 9.35191 20.4506 9.53563C20.1978 9.71936 19.8627 9.74354 19.5862 9.598L18.3857 8.96673C18.1465 8.84062 17.8605 8.84062 17.6213 8.96673L16.4208 9.598C16.1443 9.74354 15.8092 9.71936 15.5564 9.53563C15.3037 9.35191 15.1772 9.04056 15.2303 8.73264L15.4594 7.39508C15.5056 7.12884 15.4173 6.85696 15.2233 6.66878L14.2519 5.72038C14.0275 5.50258 13.9465 5.17614 14.043 4.87868C14.1394 4.58121 14.3966 4.36446 14.7061 4.3198L16.0497 4.11972C16.3173 4.08132 16.5487 3.9132 16.6679 3.67053L17.2662 2.45402Z" stroke="#161924" stroke-width="1.5" stroke-linecap="round" stroke-linejoin="round"/>
<path fill-rule="evenodd" clip-rule="evenodd" d="M12.63 17.0021H8.36624C8.05051 17.0019 7.77395 16.7905 7.69096 16.4859L7.02268 14.0349C6.96533 13.8244 7.00936 13.5992 7.14176 13.4258C7.27416 13.2524 7.4798 13.1506 7.69796 13.1505H13.3003C13.5185 13.1506 13.7241 13.2524 13.8565 13.4258C13.9889 13.5992 14.0329 13.8244 13.9756 14.0349L13.3073 16.4859C13.2241 16.7912 12.9465 17.0028 12.63 17.0021V17.0021Z" stroke="#161924" stroke-width="1.5" stroke-linecap="round" stroke-linejoin="round"/>
<path d="M7.62598 13.1675L9.6058 10.4514C9.81302 10.1679 10.1431 10.0004 10.4942 10.0004C10.8453 10.0004 11.1753 10.1679 11.3825 10.4514L13.3704 13.1695" stroke="#161924" stroke-width="1.5" stroke-linecap="round" stroke-linejoin="round"/>
</svg>
