<svg width="24" height="24" viewBox="0 0 24 24" fill="none" xmlns="http://www.w3.org/2000/svg">
<path d="M1.5 11.25L3 9.75L4.5 11.25" stroke="#161924" stroke-width="1.5" stroke-linecap="round" stroke-linejoin="round"/>
<path d="M22.5 12.75L21 14.25L19.5 12.75" stroke="#161924" stroke-width="1.5" stroke-linecap="round" stroke-linejoin="round"/>
<path d="M3.235 9.98499C3.086 10.634 3 11.306 3 12C3 16.971 7.029 21 12 21C15.052 21 17.744 19.478 19.371 17.155" stroke="#161924" stroke-width="1.5" stroke-linecap="round" stroke-linejoin="round"/>
<path d="M20.7649 14.015C20.9139 13.366 20.9999 12.694 20.9999 12C20.9999 7.029 16.9709 3 11.9999 3C8.94791 3 6.25591 4.522 4.62891 6.845" stroke="#161924" stroke-width="1.5" stroke-linecap="round" stroke-linejoin="round"/>
<path d="M9.05 10.25H15.45L14.75 13.75H9.75L8.75 8.75H7.5" stroke="#161924" stroke-width="1.5" stroke-linecap="round" stroke-linejoin="round"/>
<path d="M14.2845 16.215C14.3045 16.235 14.3045 16.266 14.2845 16.286C14.2645 16.306 14.2335 16.306 14.2135 16.286C14.1935 16.266 14.1935 16.235 14.2135 16.215C14.2335 16.195 14.2655 16.195 14.2845 16.215" stroke="#161924" stroke-width="1.5" stroke-linecap="round" stroke-linejoin="round"/>
<path d="M10.2845 16.215C10.3045 16.235 10.3045 16.266 10.2845 16.286C10.2645 16.306 10.2335 16.306 10.2135 16.286C10.1935 16.266 10.1935 16.235 10.2135 16.215C10.2335 16.195 10.2655 16.195 10.2845 16.215" stroke="#161924" stroke-width="1.5" stroke-linecap="round" stroke-linejoin="round"/>
</svg>
