<svg width="24" height="24" viewBox="0 0 24 24" fill="none" xmlns="http://www.w3.org/2000/svg">
<path fill-rule="evenodd" clip-rule="evenodd" d="M22 5.00397V19C22 20.105 21.105 21 20 21H4C2.895 21 2 20.105 2 19V5.03797C2 3.93497 2.893 3.03997 3.996 3.03797L19.996 3.00397C21.102 3.00197 22 3.89797 22 5.00397Z" stroke="#161924" stroke-width="1.5" stroke-linecap="round" stroke-linejoin="round"/>
<path d="M8 5.99C7.997 5.99 7.995 5.992 7.995 5.995C7.995 5.998 7.997 6 8 6C8.003 6 8.005 5.998 8.005 5.995C8.005 5.992 8.003 5.99 8 5.99" stroke="#161924" stroke-width="1.5" stroke-linecap="round" stroke-linejoin="round"/>
<path d="M11.0049 5.995C11.0019 5.995 10.9999 5.997 10.9999 6C10.9999 6.003 11.0019 6.005 11.0049 6.005C11.0079 6.005 11.0099 6.003 11.0099 6C11.0099 5.997 11.0079 5.995 11.0049 5.995" stroke="#161924" stroke-width="1.5" stroke-linecap="round" stroke-linejoin="round"/>
<path d="M5 5.99994C4.997 5.99994 4.995 6.00194 4.995 6.00494C4.995 6.00794 4.997 6.00994 5 6.00994C5.003 6.00994 5.005 6.00794 5.005 6.00494C5.005 6.00194 5.003 5.99994 5 5.99994" stroke="#161924" stroke-width="1.5" stroke-linecap="round" stroke-linejoin="round"/>
<path d="M9.05 11.25H15.45L14.75 14.75H9.75L8.75 9.75H7.5" stroke="#161924" stroke-width="1.5" stroke-linecap="round" stroke-linejoin="round"/>
<path d="M14.2854 17.2146C14.3049 17.2341 14.3049 17.2658 14.2854 17.2853C14.2658 17.3048 14.2342 17.3048 14.2146 17.2853C14.1951 17.2658 14.1951 17.2341 14.2146 17.2146C14.2342 17.1951 14.2658 17.1951 14.2854 17.2146" stroke="#161924" stroke-width="1.5" stroke-linecap="round" stroke-linejoin="round"/>
<path d="M10.2854 17.2146C10.3049 17.2341 10.3049 17.2658 10.2854 17.2853C10.2658 17.3048 10.2342 17.3048 10.2146 17.2853C10.1951 17.2658 10.1951 17.2341 10.2146 17.2146C10.2342 17.1951 10.2658 17.1951 10.2854 17.2146" stroke="#161924" stroke-width="1.5" stroke-linecap="round" stroke-linejoin="round"/>
</svg>
