<svg width="24" height="24" viewBox="0 0 24 24" fill="none" xmlns="http://www.w3.org/2000/svg">
<path fill-rule="evenodd" clip-rule="evenodd" d="M11.9998 21.0037C16.9725 21.0037 21.0036 16.9726 21.0036 12C21.0036 7.02733 16.9725 2.99622 11.9998 2.99622C7.02721 2.99622 2.99609 7.02733 2.99609 12C2.99609 16.9726 7.02721 21.0037 11.9998 21.0037Z" stroke="#161924" stroke-width="1.5" stroke-linecap="round" stroke-linejoin="round"/>
<path fill-rule="evenodd" clip-rule="evenodd" d="M15.046 16.5018H8.9535C8.50231 16.5018 8.10715 16.1997 7.9881 15.7645L7.0327 12.263C6.85963 11.6268 7.33883 10.9995 7.9991 10.9995H16.0014C16.6607 10.9995 17.1399 11.6268 16.9668 12.263L16.0114 15.7645C15.8924 16.1997 15.4972 16.5018 15.046 16.5018Z" stroke="#161924" stroke-width="1.5" stroke-linecap="round" stroke-linejoin="round"/>
<path d="M8.04883 10.9996L11.2422 7.34008C11.6403 6.88389 12.3496 6.88289 12.7488 7.33908L15.9511 10.9996" stroke="#161924" stroke-width="1.5" stroke-linecap="round" stroke-linejoin="round"/>
</svg>
