<svg width="24" height="24" viewBox="0 0 24 24" fill="none" xmlns="http://www.w3.org/2000/svg">
<path d="M13.9697 6.99792L16.0013 9.99917" stroke="#161924" stroke-width="1.5" stroke-linecap="round" stroke-linejoin="round"/>
<path d="M10.0297 6.99792L7.99805 9.99917" stroke="#161924" stroke-width="1.5" stroke-linecap="round" stroke-linejoin="round"/>
<path d="M18.003 9.99911H5.99805" stroke="#161924" stroke-width="1.5" stroke-linecap="round" stroke-linejoin="round"/>
<path d="M9.49923 12.5002V13.5007" stroke="#161924" stroke-width="1.5" stroke-linecap="round" stroke-linejoin="round"/>
<path d="M12.0002 12.5002V13.5007" stroke="#161924" stroke-width="1.5" stroke-linecap="round" stroke-linejoin="round"/>
<path d="M14.5012 12.5002V13.5007" stroke="#161924" stroke-width="1.5" stroke-linecap="round" stroke-linejoin="round"/>
<path fill-rule="evenodd" clip-rule="evenodd" d="M14.702 17.0021H9.29878C8.32943 17.0021 7.49951 16.3072 7.32911 15.353L6.37305 9.99915H17.6277L16.6717 15.353C16.5013 16.3072 15.6714 17.0021 14.702 17.0021Z" stroke="#161924" stroke-width="1.5" stroke-linecap="round" stroke-linejoin="round"/>
<path fill-rule="evenodd" clip-rule="evenodd" d="M16.0015 2.99622H7.99818C5.2356 2.99622 2.99609 5.23572 2.99609 7.9983V16.0016C2.99609 18.7642 5.2356 21.0037 7.99818 21.0037H16.0015C18.7641 21.0037 21.0036 18.7642 21.0036 16.0016V7.9983C21.0036 5.23572 18.7641 2.99622 16.0015 2.99622Z" stroke="#161924" stroke-width="1.5" stroke-linecap="round" stroke-linejoin="round"/>
</svg>
