<svg width="24" height="24" viewBox="0 0 24 24" fill="none" xmlns="http://www.w3.org/2000/svg">
<path d="M11.9998 20.0034H4.99693C3.89147 20.0034 2.99609 19.108 2.99609 18.0026V7.49818C2.99609 6.66984 3.66837 5.99756 4.49672 5.99756H17.5021C18.3305 5.99756 19.0028 6.66984 19.0028 7.49818V10.9996" stroke="#161924" stroke-width="1.5" stroke-linecap="round" stroke-linejoin="round"/>
<path d="M6.99805 5.99752V5.74741V5.74741C6.99805 3.67555 8.67775 1.99585 10.7496 1.99585H11.2498C13.3217 1.99585 15.0014 3.67555 15.0014 5.74741V5.74741V5.99752" stroke="#161924" stroke-width="1.5" stroke-linecap="round" stroke-linejoin="round"/>
<path d="M14.5606 14.5101H21.0033L20.299 18.0336H15.2659L14.2585 13.0005H13" stroke="#161924" stroke-width="1.5" stroke-linecap="round" stroke-linejoin="round"/>
<path d="M19.8306 20.4165C19.8507 20.4365 19.8507 20.4675 19.8306 20.4875C19.8106 20.5075 19.7796 20.5075 19.7596 20.4875C19.7396 20.4675 19.7396 20.4365 19.7596 20.4165C19.7786 20.3965 19.8116 20.3965 19.8306 20.4165" stroke="#161924" stroke-width="1.5" stroke-linecap="round" stroke-linejoin="round"/>
<path d="M15.8043 20.4165C15.8243 20.4365 15.8243 20.4675 15.8043 20.4875C15.7843 20.5075 15.7533 20.5075 15.7332 20.4875C15.7132 20.4675 15.7132 20.4365 15.7332 20.4165C15.7523 20.3965 15.7843 20.3965 15.8043 20.4165" stroke="#161924" stroke-width="1.5" stroke-linecap="round" stroke-linejoin="round"/>
</svg>
