<svg width="24" height="24" viewBox="0 0 24 24" fill="none" xmlns="http://www.w3.org/2000/svg">
<path d="M17.0017 21.0037C14.7917 21.0037 13 19.212 13 17.002C13 14.7921 14.7917 13.0004 17.0017 13.0004C19.2126 13.0004 21.0033 14.7921 21.0033 17.002C21.0033 19.212 19.2126 21.0037 17.0017 21.0037" stroke="#161924" stroke-width="1.5" stroke-linecap="round" stroke-linejoin="round"/>
<path d="M18.4474 13.2695L18.9386 11.4678C19.2467 10.3363 18.3953 9.22083 17.2228 9.22083H4.77566C3.60317 9.22083 2.75081 10.3363 3.05994 11.4678L4.75765 17.6924C4.96874 18.4657 5.67103 19.0029 6.47336 19.0029H13.5363" stroke="#161924" stroke-width="1.5" stroke-linecap="round" stroke-linejoin="round"/>
<path d="M17.2236 9.22082H17.2226L12.3306 3.60648C11.6213 2.79214 10.3657 2.79214 9.65845 3.60748C8.01176 5.50627 6.16799 7.64816 4.77541 9.22082H4.77441H4.77541" stroke="#161924" stroke-width="1.5" stroke-linecap="round" stroke-linejoin="round"/>
<path d="M17.9115 16.0927L16.0928 17.9114" stroke="#161924" stroke-width="1.5" stroke-linecap="round" stroke-linejoin="round"/>
<path d="M16.0928 16.0927L17.9115 17.9114" stroke="#161924" stroke-width="1.5" stroke-linecap="round" stroke-linejoin="round"/>
</svg>
