<svg width="24" height="24" viewBox="0 0 24 24" fill="none" xmlns="http://www.w3.org/2000/svg">
<path d="M11.8627 8.52148L8.9065 11.4777L7.13477 9.70298" stroke="#161924" stroke-width="1.5" stroke-linecap="round" stroke-linejoin="round"/>
<path d="M20.0032 9.99913V6.99788C20.0032 4.78796 18.2114 2.99622 16.0015 2.99622H6.99776C4.78784 2.99622 2.99609 4.78796 2.99609 6.99788V13.0004C2.99609 15.2103 4.78784 17.002 6.99776 17.002H10.9994" stroke="#161924" stroke-width="1.5" stroke-linecap="round" stroke-linejoin="round"/>
<path d="M14.5606 14.51H21.0033L20.299 18.0335H15.2659L14.2585 13.0004H13" stroke="#161924" stroke-width="1.5" stroke-linecap="round" stroke-linejoin="round"/>
<path d="M19.8306 20.4165C19.8507 20.4365 19.8507 20.4675 19.8306 20.4875C19.8106 20.5075 19.7796 20.5075 19.7596 20.4875C19.7396 20.4675 19.7396 20.4365 19.7596 20.4165C19.7786 20.3965 19.8116 20.3965 19.8306 20.4165" stroke="#161924" stroke-width="1.5" stroke-linecap="round" stroke-linejoin="round"/>
<path d="M15.8043 20.4165C15.8243 20.4365 15.8243 20.4675 15.8043 20.4875C15.7843 20.5075 15.7533 20.5075 15.7332 20.4875C15.7132 20.4675 15.7132 20.4365 15.7332 20.4165C15.7523 20.3965 15.7843 20.3965 15.8043 20.4165" stroke="#161924" stroke-width="1.5" stroke-linecap="round" stroke-linejoin="round"/>
</svg>
