<svg width="24" height="24" viewBox="0 0 24 24" fill="none" xmlns="http://www.w3.org/2000/svg">
<path d="M20.0032 9.99913V6.99788C20.0032 4.78782 18.2116 2.99622 16.0015 2.99622H6.99776C4.7877 2.99622 2.99609 4.78782 2.99609 6.99788V13.0004C2.99609 15.2104 4.7877 17.002 6.99776 17.002H10.9994" stroke="#161924" stroke-width="1.5" stroke-linecap="round" stroke-linejoin="round"/>
<path d="M14.5616 14.51H21.0043L20.304 18.0335H15.2669L14.2595 13.0004H13.001" stroke="#161924" stroke-width="1.5" stroke-linecap="round" stroke-linejoin="round"/>
<path d="M19.8316 20.4165C19.851 20.4361 19.851 20.4677 19.8314 20.4872C19.8119 20.5066 19.7803 20.5066 19.7608 20.4872C19.7413 20.4677 19.7412 20.4361 19.7606 20.4165C19.77 20.4071 19.7828 20.4017 19.7961 20.4017C19.8094 20.4017 19.8222 20.4071 19.8316 20.4165" stroke="#161924" stroke-width="1.5" stroke-linecap="round" stroke-linejoin="round"/>
<path d="M15.8013 20.4165C15.8208 20.4361 15.8207 20.4677 15.8012 20.4872C15.7816 20.5066 15.75 20.5066 15.7305 20.4872C15.711 20.4677 15.7109 20.4361 15.7303 20.4165C15.7397 20.4071 15.7525 20.4017 15.7658 20.4017C15.7792 20.4017 15.792 20.4071 15.8013 20.4165" stroke="#161924" stroke-width="1.5" stroke-linecap="round" stroke-linejoin="round"/>
<path d="M10.4543 8.52161L7.49805 11.4768" stroke="#161924" stroke-width="1.5" stroke-linecap="round" stroke-linejoin="round"/>
<path d="M7.49805 8.52161L10.4543 11.4768" stroke="#161924" stroke-width="1.5" stroke-linecap="round" stroke-linejoin="round"/>
</svg>
