<svg width="24" height="24" viewBox="0 0 24 24" fill="none" xmlns="http://www.w3.org/2000/svg">
<path d="M8.00062 3L5.89062 6.777" stroke="#161924" stroke-width="1.5" stroke-linecap="round" stroke-linejoin="round"/>
<path d="M15 3L17.3 6.777" stroke="#161924" stroke-width="1.5" stroke-linecap="round" stroke-linejoin="round"/>
<path d="M16 21C13.239 21 11 18.761 11 16C11 13.239 13.239 11 16 11C18.762 11 21 13.239 21 16C21 18.761 18.762 21 16 21" stroke="#161924" stroke-width="1.5" stroke-linecap="round" stroke-linejoin="round"/>
<path d="M18.2223 14.889L15.4443 17.667L13.7783 16" stroke="#161924" stroke-width="1.5" stroke-linecap="round" stroke-linejoin="round"/>
<path d="M19.4415 12.375L20.1445 9.12898C20.4065 7.91998 19.4875 6.77698 18.2485 6.77698H4.94047C3.70447 6.77698 2.78347 7.91998 3.04447 9.12898L4.51547 15.921C4.70747 16.814 5.49747 17.45 6.41147 17.45H11.2155" stroke="#161924" stroke-width="1.5" stroke-linecap="round" stroke-linejoin="round"/>
</svg>
