<svg width="24" height="24" viewBox="0 0 24 24" fill="none" xmlns="http://www.w3.org/2000/svg">
<path d="M18.3639 5.63604C21.8787 9.15076 21.8787 14.8492 18.3639 18.3639C14.8492 21.8787 9.15074 21.8787 5.63604 18.3639C2.12132 14.8492 2.12132 9.15074 5.63604 5.63604C9.15076 2.12132 14.8492 2.12132 18.3639 5.63604" stroke="#161924" stroke-width="1.5" stroke-linecap="round" stroke-linejoin="round"/>
<path d="M9.05 10.25H15.45L14.75 13.75H9.75L8.75 8.75H7.5" stroke="#161924" stroke-width="1.5" stroke-linecap="round" stroke-linejoin="round"/>
<path d="M14.2854 16.2146C14.3049 16.2341 14.3049 16.2658 14.2854 16.2853C14.2658 16.3048 14.2342 16.3048 14.2146 16.2853C14.1951 16.2658 14.1951 16.2341 14.2146 16.2146C14.2342 16.1951 14.2658 16.1951 14.2854 16.2146" stroke="#161924" stroke-width="1.5" stroke-linecap="round" stroke-linejoin="round"/>
<path d="M10.2854 16.2146C10.3049 16.2341 10.3049 16.2658 10.2854 16.2853C10.2658 16.3048 10.2342 16.3048 10.2146 16.2853C10.1951 16.2658 10.1951 16.2341 10.2146 16.2146C10.2342 16.1951 10.2658 16.1951 10.2854 16.2146" stroke="#161924" stroke-width="1.5" stroke-linecap="round" stroke-linejoin="round"/>
</svg>
