<svg width="24" height="24" viewBox="0 0 24 24" fill="none" xmlns="http://www.w3.org/2000/svg">
<path d="M12 4.99703H4.99707" stroke="#161924" stroke-width="1.5" stroke-linecap="round" stroke-linejoin="round"/>
<path d="M12.0004 4.99707C16.4205 4.99707 20.0037 8.58028 20.0037 13.0004C20.0037 17.4205 16.4205 21.0037 12.0004 21.0037C7.58028 21.0037 3.99707 17.4205 3.99707 13.0004" stroke="#161924" stroke-width="1.5" stroke-linecap="round" stroke-linejoin="round"/>
<path d="M7.99832 1.99585L4.99707 4.9971" stroke="#161924" stroke-width="1.5" stroke-linecap="round" stroke-linejoin="round"/>
<path d="M7.99832 7.99832L4.99707 4.99707" stroke="#161924" stroke-width="1.5" stroke-linecap="round" stroke-linejoin="round"/>
<path fill-rule="evenodd" clip-rule="evenodd" d="M14.131 16.5149H9.86819C9.55332 16.5151 9.27703 16.3051 9.19291 16.0016L8.52463 13.5506C8.46733 13.3403 8.51124 13.1153 8.64341 12.942C8.77558 12.7686 8.98093 12.6667 9.19891 12.6663H14.8012C15.188 12.6663 15.5015 12.9798 15.5015 13.3666C15.5012 13.4287 15.4928 13.4906 15.4765 13.5506L14.8082 16.0016C14.7239 16.3058 14.4466 16.516 14.131 16.5149V16.5149Z" stroke="#161924" stroke-width="1.5" stroke-linecap="round" stroke-linejoin="round"/>
<path d="M9.12793 12.6803L11.1078 9.96412C11.4667 9.47388 12.155 9.36729 12.6454 9.72602C12.7363 9.79293 12.8166 9.8732 12.8835 9.96412L14.8713 12.6823" stroke="#161924" stroke-width="1.5" stroke-linecap="round" stroke-linejoin="round"/>
</svg>
