<svg width="24" height="24" viewBox="0 0 24 24" fill="none" xmlns="http://www.w3.org/2000/svg">
<path d="M17.0026 21.0037C14.7926 21.0037 13.001 19.2121 13.001 17.002C13.001 14.792 14.7926 13.0004 17.0026 13.0004C19.2127 13.0004 21.0043 14.792 21.0043 17.002C21.0042 19.2121 19.2127 21.0036 17.0026 21.0037" stroke="#161924" stroke-width="1.5" stroke-linecap="round" stroke-linejoin="round"/>
<path d="M18.0891 16.9576C18.0711 16.9576 18.0549 16.9684 18.048 16.985C18.0411 17.0016 18.0449 17.0208 18.0576 17.0335C18.0704 17.0462 18.0895 17.05 18.1061 17.0431C18.1227 17.0362 18.1335 17.02 18.1335 17.002V17.002C18.1335 16.9902 18.1289 16.9789 18.1205 16.9706C18.1122 16.9623 18.1009 16.9576 18.0891 16.9576" stroke="#161924" stroke-width="1.5" stroke-linecap="round" stroke-linejoin="round"/>
<path d="M15.9144 16.9576C15.9028 16.9576 15.8917 16.9622 15.8835 16.9704C15.8754 16.9785 15.8708 16.9896 15.8708 17.0012V17.0012C15.8708 17.0192 15.8816 17.0354 15.8982 17.0423C15.9148 17.0492 15.934 17.0453 15.9467 17.0326C15.9594 17.0199 15.9632 17.0008 15.9563 16.9842C15.9494 16.9676 15.9332 16.9567 15.9152 16.9567V16.9567" stroke="#161924" stroke-width="1.5" stroke-linecap="round" stroke-linejoin="round"/>
<path d="M17.0021 8.9987H17.0011L12.2836 3.58501C11.96 3.21091 11.4897 2.99602 10.995 2.99622C10.5003 2.99641 10.0302 3.21166 9.70685 3.58601C8.11892 5.4169 6.34094 7.48225 4.99805 8.9987V8.9987" stroke="#161924" stroke-width="1.5" stroke-linecap="round" stroke-linejoin="round"/>
<path d="M18.4042 13.2534L18.9377 11.2967C19.0868 10.7498 18.9724 10.1646 18.6283 9.71404C18.2843 9.26347 17.7499 8.99901 17.183 8.99878H4.81595C4.24898 8.99878 3.71445 9.26323 3.37036 9.71385C3.02627 10.1645 2.91199 10.7498 3.06128 11.2967L4.79753 17.6626C5.01338 18.4539 5.73204 19.0028 6.5522 19.0029H13.5364" stroke="#161924" stroke-width="1.5" stroke-linecap="round" stroke-linejoin="round"/>
</svg>
