<svg width="24" height="24" viewBox="0 0 24 24" fill="none" xmlns="http://www.w3.org/2000/svg">
<path fill-rule="evenodd" clip-rule="evenodd" d="M12.9895 14.0008H8.99889C8.54762 14.0009 8.15216 13.6989 8.03348 13.2635L7.53327 11.4117C7.45127 11.1109 7.51422 10.789 7.70353 10.5412C7.89284 10.2935 8.18686 10.1481 8.49868 10.1482H13.5008C13.8124 10.1484 14.1061 10.2939 14.2952 10.5416C14.4843 10.7894 14.5471 11.111 14.4652 11.4117L13.965 13.2635C13.8453 13.7025 13.4445 14.0054 12.9895 14.0008Z" stroke="#161924" stroke-width="1.5" stroke-linecap="round" stroke-linejoin="round"/>
<path d="M8.12988 10.2233L10.1817 7.40908C10.3701 7.15122 10.6702 6.99878 10.9896 6.99878C11.3089 6.99878 11.609 7.15122 11.7974 7.40908L13.8553 10.2233" stroke="#161924" stroke-width="1.5" stroke-linecap="round" stroke-linejoin="round"/>
<path d="M10.9993 20.0034C6.15627 20.0051 2.17945 16.1755 1.99858 11.3359C1.8177 6.4962 5.49757 2.38047 10.3272 2.02073C15.1569 1.66099 19.4059 5.18612 19.944 9.99919" stroke="#161924" stroke-width="1.5" stroke-linecap="round" stroke-linejoin="round"/>
<path fill-rule="evenodd" clip-rule="evenodd" d="M15.2941 17.8414L18.8376 14.2949C19.0253 14.1061 19.2806 14 19.5469 14C19.8131 14 20.0684 14.1061 20.2562 14.2949L21.7098 15.7485C21.8982 15.9362 22.0042 16.1913 22.0042 16.4573C22.0042 16.7233 21.8982 16.9784 21.7098 17.1661L18.1623 20.7106C17.9747 20.8982 17.7203 21.0037 17.455 21.0037H15.001V18.5487C15.001 18.2834 15.1065 18.029 15.2941 17.8414Z" stroke="#161924" stroke-width="1.5" stroke-linecap="round" stroke-linejoin="round"/>
</svg>
