<svg width="24" height="24" viewBox="0 0 24 24" fill="none" xmlns="http://www.w3.org/2000/svg">
<path d="M13.001 20H7C4.239 20 2 17.761 2 15V7.63397C2 7.08197 2.448 6.63397 3 6.63397H19C19.552 6.63397 20 7.08197 20 7.63397V13.002" stroke="#161924" stroke-width="1.5" stroke-linecap="round" stroke-linejoin="round"/>
<path d="M15 9V4C15 2.895 14.105 2 13 2H9C7.895 2 7 2.895 7 4V9" stroke="#161924" stroke-width="1.5" stroke-linecap="round" stroke-linejoin="round"/>
<path d="M20.5355 13.4645C22.4882 15.4171 22.4882 18.583 20.5355 20.5356C18.5829 22.4882 15.4171 22.4882 13.4645 20.5356C11.5118 18.583 11.5118 15.4171 13.4645 13.4645C15.4171 11.5119 18.5829 11.5119 20.5355 13.4645" stroke="#161924" stroke-width="1.5" stroke-linecap="round" stroke-linejoin="round"/>
<path d="M17 15V19" stroke="#161924" stroke-width="1.5" stroke-linecap="round" stroke-linejoin="round"/>
<path d="M19 17H15" stroke="#161924" stroke-width="1.5" stroke-linecap="round" stroke-linejoin="round"/>
</svg>
