<svg width="24" height="24" viewBox="0 0 24 24" fill="none" xmlns="http://www.w3.org/2000/svg">
<path d="M11.9998 21.0038H4.99693C3.8919 21.0038 2.99609 20.108 2.99609 19.0029V8.49855C2.99609 7.66978 3.66795 6.99792 4.49672 6.99792H17.5021C18.3309 6.99792 19.0028 7.66978 19.0028 8.49855V12" stroke="#161924" stroke-width="1.5" stroke-linecap="round" stroke-linejoin="round"/>
<path d="M6.99805 6.74778V6.74778C6.99805 4.67585 8.67768 2.99622 10.7496 2.99622H11.2498C13.3217 2.99622 15.0014 4.67585 15.0014 6.74778V6.74778" stroke="#161924" stroke-width="1.5" stroke-linecap="round" stroke-linejoin="round"/>
<path d="M15.0012 6.74784V6.99794" stroke="#161924" stroke-width="1.5" stroke-linecap="round" stroke-linejoin="round"/>
<path d="M19.5859 16.2708H21.0035V14.8552" stroke="#161924" stroke-width="1.5" stroke-linecap="round" stroke-linejoin="round"/>
<path d="M16.4224 19.333H15.0078V20.7486" stroke="#161924" stroke-width="1.5" stroke-linecap="round" stroke-linejoin="round"/>
<path d="M21.0038 18.8689C20.8544 19.3204 20.6028 19.7312 20.2685 20.0694C19.5547 20.783 18.5462 21.1182 17.5473 20.9739C16.5483 20.8295 15.6759 20.2226 15.1934 19.3361" stroke="#161924" stroke-width="1.5" stroke-linecap="round" stroke-linejoin="round"/>
<path d="M20.8154 16.2697C20.3328 15.3832 19.4604 14.7763 18.4615 14.6319C17.4625 14.4876 16.454 14.8228 15.7403 15.5364C15.4053 15.8746 15.1527 16.2854 15.002 16.7369" stroke="#161924" stroke-width="1.5" stroke-linecap="round" stroke-linejoin="round"/>
</svg>
