<svg width="24" height="24" viewBox="0 0 24 24" fill="none" xmlns="http://www.w3.org/2000/svg">
<path fill-rule="evenodd" clip-rule="evenodd" d="M14.131 15.5015H9.86819C9.55247 15.5013 9.2759 15.2899 9.19291 14.9853L8.52463 12.5343C8.46733 12.324 8.51124 12.0989 8.64341 11.9256C8.77558 11.7522 8.98093 11.6503 9.19891 11.6499H14.8012C15.0194 11.65 15.2251 11.7518 15.3574 11.9252C15.4898 12.0986 15.5339 12.3238 15.4765 12.5343L14.8082 14.9853C14.7251 15.2906 14.4474 15.5022 14.131 15.5015V15.5015Z" stroke="#161924" stroke-width="1.5" stroke-linecap="round" stroke-linejoin="round"/>
<path d="M9.12793 11.6668L11.1078 8.95067C11.315 8.66763 11.6448 8.50037 11.9956 8.50037C12.3464 8.50037 12.6762 8.66763 12.8835 8.95067L14.8713 11.6688" stroke="#161924" stroke-width="1.5" stroke-linecap="round" stroke-linejoin="round"/>
<path fill-rule="evenodd" clip-rule="evenodd" d="M4.14787 16.4018C1.94445 12.4749 2.97661 7.52434 6.56571 4.80514C10.1548 2.08594 15.2 2.43216 18.384 5.61616C21.568 8.80016 21.9142 13.8453 19.195 17.4344C16.4758 21.0235 11.5252 22.0557 7.59831 19.8523L2.99639 21.0037L4.14787 16.4018Z" stroke="#161924" stroke-width="1.5" stroke-linecap="round" stroke-linejoin="round"/>
</svg>
