<svg width="24" height="24" viewBox="0 0 24 24" fill="none" xmlns="http://www.w3.org/2000/svg">
<path d="M7.64844 8.74866H8.90696L9.90838 13.7507H14.9555L15.6518 10.2493H9.20709" stroke="#161924" stroke-width="1.5" stroke-linecap="round" stroke-linejoin="round"/>
<path d="M20.5854 9.35186C20.8586 10.2082 20.9996 11.1011 21.0036 12C21.0036 16.9726 16.9725 21.0037 11.9998 21.0037C7.02721 21.0037 2.99609 16.9726 2.99609 12C2.99609 7.02733 7.02721 2.99622 11.9998 2.99622C12.8987 3.00021 13.7916 3.14122 14.6479 3.41439" stroke="#161924" stroke-width="1.5" stroke-linecap="round" stroke-linejoin="round"/>
<path d="M21.0036 4.27075L19.0148 6.25958L17.7393 4.98405" stroke="#161924" stroke-width="1.5" stroke-linecap="round" stroke-linejoin="round"/>
<path d="M14.4791 16.1665C14.4985 16.1861 14.4984 16.2177 14.4789 16.2372C14.4593 16.2567 14.4277 16.2566 14.4082 16.2371C14.3887 16.2176 14.3887 16.186 14.4081 16.1664C14.4276 16.1469 14.4592 16.1468 14.4788 16.1662L14.4791 16.1665" stroke="#161924" stroke-width="1.5" stroke-linecap="round" stroke-linejoin="round"/>
<path d="M10.4498 16.1665C10.4692 16.1861 10.4691 16.2177 10.4496 16.2372C10.43 16.2567 10.3984 16.2566 10.3789 16.2371C10.3594 16.2176 10.3594 16.186 10.3788 16.1664C10.3983 16.1469 10.4299 16.1468 10.4495 16.1662L10.4498 16.1665" stroke="#161924" stroke-width="1.5" stroke-linecap="round" stroke-linejoin="round"/>
</svg>
