<svg width="24" height="24" viewBox="0 0 24 24" fill="none" xmlns="http://www.w3.org/2000/svg">
<path d="M18.3667 5.63334C20.9418 8.20839 21.7121 12.0811 20.3185 15.4455C18.9249 18.81 15.6418 21.0037 12.0001 21.0037C8.35843 21.0037 5.07533 18.81 3.68172 15.4455C2.28812 12.0811 3.05844 8.20839 5.63351 5.63334C9.14969 2.11717 14.8505 2.11717 18.3667 5.63334" stroke="#161924" stroke-width="1.5" stroke-linecap="round" stroke-linejoin="round"/>
<path fill-rule="evenodd" clip-rule="evenodd" d="M8.56941 10.4994H15.4303C15.7328 10.4994 16.0191 10.6364 16.209 10.8719C16.3988 11.1074 16.4719 11.4162 16.4077 11.7119L15.6494 15.2134C15.5495 15.6733 15.1426 16.0014 14.672 16.0017H9.32773C8.85686 16.0021 8.44964 15.6736 8.35032 15.2134L7.59201 11.7119C7.528 11.4163 7.60114 11.1076 7.79096 10.8721C7.98079 10.6366 8.26694 10.4996 8.56941 10.4994Z" stroke="#161924" stroke-width="1.5" stroke-linecap="round" stroke-linejoin="round"/>
<path d="M9.9997 7.99829L9.05931 10.4993" stroke="#161924" stroke-width="1.5" stroke-linecap="round" stroke-linejoin="round"/>
<path d="M14.0007 7.99829L14.9411 10.4993" stroke="#161924" stroke-width="1.5" stroke-linecap="round" stroke-linejoin="round"/>
</svg>
