<svg width="24" height="24" viewBox="0 0 24 24" fill="none" xmlns="http://www.w3.org/2000/svg">
<path d="M10.9998 20.0033C6.02721 20.0033 1.99609 15.9722 1.99609 10.9996C1.99609 6.02697 6.02721 1.99585 10.9998 1.99585C15.9725 1.99585 20.0036 6.02697 20.0036 10.9996" stroke="#161924" stroke-width="1.5" stroke-linecap="round" stroke-linejoin="round"/>
<path d="M15.0018 10.9996C15.0094 8.20468 14.2602 5.45984 12.8339 3.05628C12.4565 2.40025 11.7574 1.99585 11.0006 1.99585C10.2438 1.99585 9.54468 2.40025 9.16735 3.05628C6.27625 7.95758 6.27625 14.0426 9.16735 18.9439C9.54605 19.5982 10.2441 20.0017 11.0001 20.0033" stroke="#161924" stroke-width="1.5" stroke-linecap="round" stroke-linejoin="round"/>
<path fill-rule="evenodd" clip-rule="evenodd" d="M19.5621 21.0038H15.4424C15.1119 21.0047 14.8212 20.7855 14.7311 20.4676L14.0308 17.9215C13.9718 17.7017 14.0188 17.467 14.1576 17.2867C14.2965 17.1064 14.5115 17.0012 14.7391 17.0021H20.2664C20.4945 17.0003 20.7103 17.1051 20.8499 17.2855C20.9895 17.4659 21.0367 17.7012 20.9777 17.9215L20.2774 20.4676C20.1868 20.787 19.894 21.0065 19.5621 21.0038Z" stroke="#161924" stroke-width="1.5" stroke-linecap="round" stroke-linejoin="round"/>
<path d="M14.5908 16.9501L16.9438 14.249C17.0836 14.0888 17.2859 13.9968 17.4985 13.9968C17.7112 13.9968 17.9134 14.0888 18.0533 14.249L20.4132 16.9501" stroke="#161924" stroke-width="1.5" stroke-linecap="round" stroke-linejoin="round"/>
<path d="M2.50879 7.99838H19.0027" stroke="#161924" stroke-width="1.5" stroke-linecap="round" stroke-linejoin="round"/>
<path d="M2.50977 14.0008H10.9993" stroke="#161924" stroke-width="1.5" stroke-linecap="round" stroke-linejoin="round"/>
</svg>
