<svg width="24" height="24" viewBox="0 0 24 24" fill="none" xmlns="http://www.w3.org/2000/svg">
<path d="M7.99805 18.0024L9.99888 20.0033L7.99805 22.0041" stroke="#161924" stroke-width="1.5" stroke-linecap="round" stroke-linejoin="round"/>
<path d="M9.99957 20.0034H3.99707" stroke="#161924" stroke-width="1.5" stroke-linecap="round" stroke-linejoin="round"/>
<path d="M14.0008 20.7747C17.742 19.9229 20.5324 16.7938 20.9518 12.9798C21.3712 9.16584 19.3275 5.5051 15.8608 3.86067C12.3941 2.21624 8.26614 2.94945 5.57778 5.68715C2.88943 8.42485 2.23141 12.5655 3.93861 16.0017" stroke="#161924" stroke-width="1.5" stroke-linecap="round" stroke-linejoin="round"/>
<path fill-rule="evenodd" clip-rule="evenodd" d="M14.1311 15.5015H9.86829C9.55256 15.5013 9.276 15.2899 9.19301 14.9853L8.52473 12.5343C8.42329 12.1614 8.64312 11.7768 9.01593 11.6749C9.07551 11.6581 9.13712 11.6497 9.19901 11.6499H14.8013C15.1881 11.6499 15.5016 11.9634 15.5016 12.3502C15.5013 12.4124 15.4929 12.4743 15.4766 12.5343L14.8083 14.9853C14.7252 15.2906 14.4475 15.5022 14.1311 15.5015V15.5015Z" stroke="#161924" stroke-width="1.5" stroke-linecap="round" stroke-linejoin="round"/>
<path d="M9.12793 11.6668L11.1078 8.95069C11.4667 8.46045 12.155 8.35387 12.6454 8.71259C12.7363 8.7795 12.8166 8.85978 12.8835 8.95069L14.8713 11.6688" stroke="#161924" stroke-width="1.5" stroke-linecap="round" stroke-linejoin="round"/>
</svg>
