<svg width="24" height="24" viewBox="0 0 24 24" fill="none" xmlns="http://www.w3.org/2000/svg">
<path d="M20.2511 17.3432L20.7653 16.827C21.2275 17.9245 21.0154 19.239 20.1241 20.1314C19.4088 20.8487 18.4264 21.1188 17.501 20.9597" stroke="#161924" stroke-width="1.5" stroke-linecap="round" stroke-linejoin="round"/>
<path d="M15.7536 18.6608L15.2394 19.177C14.7772 18.0796 14.9893 16.765 15.8806 15.8727C16.6389 15.1114 17.7004 14.8552 18.6728 15.0793" stroke="#161924" stroke-width="1.5" stroke-linecap="round" stroke-linejoin="round"/>
<path d="M10.9994 20.0034H4.99693C3.89147 20.0034 2.99609 19.108 2.99609 18.0026V7.49818C2.99609 6.66984 3.66837 5.99756 4.49672 5.99756H17.5021C18.3305 5.99756 19.0028 6.66984 19.0028 7.49818V10.9996" stroke="#161924" stroke-width="1.5" stroke-linecap="round" stroke-linejoin="round"/>
<path d="M6.99805 5.99752V5.74741V5.74741C6.99805 3.67555 8.67775 1.99585 10.7496 1.99585H11.2498C13.3217 1.99585 15.0014 3.67555 15.0014 5.74741V5.74741V5.99752" stroke="#161924" stroke-width="1.5" stroke-linecap="round" stroke-linejoin="round"/>
</svg>
