<svg width="24" height="24" viewBox="0 0 24 24" fill="none" xmlns="http://www.w3.org/2000/svg">
<path d="M9.05382 9.58795H15.8376L15.0953 13.2985H9.79613L8.73668 7.99829H7.41113" stroke="#161924" stroke-width="1.5" stroke-linecap="round" stroke-linejoin="round"/>
<path fill-rule="evenodd" clip-rule="evenodd" d="M17.0019 21.0037H6.99776C4.78784 21.0037 2.99609 19.212 2.99609 17.002V6.99788C2.99609 4.78796 4.78784 2.99622 6.99776 2.99622H17.0019C19.2118 2.99622 21.0036 4.78796 21.0036 6.99788V17.002C21.0036 19.212 19.2118 21.0037 17.0019 21.0037Z" stroke="#161924" stroke-width="1.5" stroke-linecap="round" stroke-linejoin="round"/>
<path d="M14.6041 15.9115C14.6251 15.9326 14.6251 15.9656 14.6041 15.9866C14.5831 16.0076 14.5501 16.0076 14.5291 15.9866C14.5081 15.9656 14.5081 15.9326 14.5291 15.9115C14.5501 15.8905 14.5831 15.8905 14.6041 15.9115" stroke="#161924" stroke-width="1.5" stroke-linecap="round" stroke-linejoin="round"/>
<path d="M10.3629 15.9115C10.3839 15.9326 10.3839 15.9656 10.3629 15.9866C10.3419 16.0076 10.3089 16.0076 10.2879 15.9866C10.2669 15.9656 10.2669 15.9326 10.2879 15.9115C10.3089 15.8905 10.3429 15.8905 10.3629 15.9115" stroke="#161924" stroke-width="1.5" stroke-linecap="round" stroke-linejoin="round"/>
</svg>
