<svg width="24" height="24" viewBox="0 0 24 24" fill="none" xmlns="http://www.w3.org/2000/svg">
<path d="M9.99941 8.49854L9.2471 10.4994" stroke="#161924" stroke-width="1.5" stroke-linecap="round" stroke-linejoin="round"/>
<path d="M20.5854 9.35186C20.8586 10.2082 20.9996 11.1011 21.0036 12C21.0036 16.9726 16.9725 21.0037 11.9998 21.0037C7.02721 21.0037 2.99609 16.9726 2.99609 12C2.99609 7.02733 7.02721 2.99622 11.9998 2.99622C12.8987 3.00021 13.7916 3.14122 14.6479 3.41439" stroke="#161924" stroke-width="1.5" stroke-linecap="round" stroke-linejoin="round"/>
<path d="M21.0036 4.27075L19.0148 6.25958L17.7393 4.98405" stroke="#161924" stroke-width="1.5" stroke-linecap="round" stroke-linejoin="round"/>
<path d="M15.0014 10.4994L14.2491 8.49854" stroke="#161924" stroke-width="1.5" stroke-linecap="round" stroke-linejoin="round"/>
<path fill-rule="evenodd" clip-rule="evenodd" d="M8.99944 10.4994C8.69695 10.4994 8.41069 10.6363 8.22077 10.8717C8.03085 11.1072 7.95767 11.4159 8.0217 11.7116L8.67166 14.7128C8.77133 15.1731 9.17849 15.5015 9.64941 15.5015H14.3512C14.8221 15.5015 15.2292 15.1731 15.3289 14.7128L15.9789 11.7116C16.0429 11.4159 15.9698 11.1072 15.7798 10.8717C15.5899 10.6363 15.3037 10.4994 15.0012 10.4994H8.99944Z" stroke="#161924" stroke-width="1.5" stroke-linecap="round" stroke-linejoin="round"/>
</svg>
