<svg width="24" height="24" viewBox="0 0 24 24" fill="none" xmlns="http://www.w3.org/2000/svg">
<path d="M17 19.5H19" stroke="#161924" stroke-width="1.5" stroke-linecap="round" stroke-linejoin="round"/>
<path fill-rule="evenodd" clip-rule="evenodd" d="M20 22H16C14.9 22 14 21.1 14 20V12C14 10.9 14.9 10 16 10H20C21.1 10 22 10.9 22 12V20C22 21.1 21.1 22 20 22Z" stroke="#161924" stroke-width="1.5" stroke-linecap="round" stroke-linejoin="round"/>
<path d="M15 3H18C19.1 3 20 3.9 20 5V6" stroke="#161924" stroke-width="1.5" stroke-linecap="round" stroke-linejoin="round"/>
<path d="M10 19.1H5.7C4.8 19.1 4 18.3 4 17.4V15" stroke="#161924" stroke-width="1.5" stroke-linecap="round" stroke-linejoin="round"/>
<path d="M10.9 3H9.7L8.7 8H3.7L3 4.5H9.4" stroke="#161924" stroke-width="1.5" stroke-linecap="round" stroke-linejoin="round"/>
<path d="M4.2002 10.5C4.2002 10.4 4.2002 10.4 4.2002 10.5C4.3002 10.5 4.3002 10.5 4.2002 10.5C4.2002 10.6 4.2002 10.6 4.2002 10.5C4.1002 10.5 4.1002 10.5 4.2002 10.5" stroke="#161924" stroke-width="1.5" stroke-linecap="round" stroke-linejoin="round"/>
<path d="M8.2002 10.5C8.2002 10.4 8.2002 10.4 8.2002 10.5C8.3002 10.5 8.3002 10.5 8.2002 10.5C8.2002 10.6 8.2002 10.6 8.2002 10.5C8.1002 10.5 8.1002 10.5 8.2002 10.5" stroke="#161924" stroke-width="1.5" stroke-linecap="round" stroke-linejoin="round"/>
</svg>
