<svg width="24" height="24" viewBox="0 0 24 24" fill="none" xmlns="http://www.w3.org/2000/svg">
<path d="M13.0003 20.9417C12.6684 20.9828 12.3343 21.0037 11.9998 21.0037C7.02721 21.0037 2.99609 16.9726 2.99609 12C2.99609 7.02733 7.02721 2.99622 11.9998 2.99622C16.9725 2.99622 21.0036 7.02733 21.0036 12C21.0036 12.3344 20.9827 12.6685 20.9416 13.0004" stroke="#161924" stroke-width="1.5" stroke-linecap="round" stroke-linejoin="round"/>
<path d="M21.0036 18.0024L18.5026 20.5035L17.002 19.0029" stroke="#161924" stroke-width="1.5" stroke-linecap="round" stroke-linejoin="round"/>
<path d="M9.04869 10.2493H15.4514L14.7511 13.7507H9.74898L8.74857 8.74866H7.49805" stroke="#161924" stroke-width="1.5" stroke-linecap="round" stroke-linejoin="round"/>
<path d="M14.2866 16.2163C14.3009 16.2306 14.3051 16.2521 14.2974 16.2708C14.2897 16.2895 14.2714 16.3017 14.2512 16.3017C14.231 16.3017 14.2127 16.2895 14.205 16.2708C14.1972 16.2521 14.2015 16.2306 14.2158 16.2163C14.2353 16.1968 14.267 16.1968 14.2866 16.2163" stroke="#161924" stroke-width="1.5" stroke-linecap="round" stroke-linejoin="round"/>
<path d="M10.2846 16.2163C10.2989 16.2306 10.3032 16.2521 10.2954 16.2708C10.2877 16.2895 10.2695 16.3017 10.2492 16.3017C10.229 16.3017 10.2108 16.2895 10.203 16.2708C10.1953 16.2521 10.1996 16.2306 10.2139 16.2163C10.2334 16.1968 10.2651 16.1968 10.2846 16.2163" stroke="#161924" stroke-width="1.5" stroke-linecap="round" stroke-linejoin="round"/>
</svg>
