<svg width="24" height="24" viewBox="0 0 24 24" fill="none" xmlns="http://www.w3.org/2000/svg">
<path d="M20.0032 7.99835C20.0032 6.34081 21.3469 4.9971 23.0045 4.9971C21.3469 4.9971 20.0032 3.65339 20.0032 1.99585C20.0032 3.65339 18.6595 4.9971 17.002 4.9971C18.6595 4.9971 20.0032 6.34081 20.0032 7.99835" stroke="#161924" stroke-width="1.5" stroke-linecap="round" stroke-linejoin="round"/>
<path d="M21.0036 12V16.0016C21.0036 18.7642 18.7641 21.0037 16.0015 21.0037H7.99818C5.2356 21.0037 2.99609 18.7642 2.99609 16.0016V7.9983C2.99609 5.23572 5.2356 2.99622 7.99818 2.99622H14.0007" stroke="#161924" stroke-width="1.5" stroke-linecap="round" stroke-linejoin="round"/>
<path fill-rule="evenodd" clip-rule="evenodd" d="M14.437 16.0017H9.56301C9.20254 16.0014 8.88676 15.7601 8.79169 15.4124L8.02737 12.6113C7.96159 12.3707 8.01172 12.1132 8.16297 11.9149C8.31422 11.7165 8.54928 11.6001 8.79869 11.5999H15.2014C15.4505 11.6001 15.6854 11.7165 15.8366 11.9146C15.9878 12.1126 16.0381 12.3698 15.9727 12.6103L15.2094 15.4114C15.1146 15.7599 14.7982 16.0017 14.437 16.0017V16.0017Z" stroke="#161924" stroke-width="1.5" stroke-linecap="round" stroke-linejoin="round"/>
<path d="M8.7168 11.6198L10.9807 8.51853C11.2173 8.19444 11.5944 8.00281 11.9957 8.00281C12.3969 8.00281 12.774 8.19444 13.0106 8.51853L15.2825 11.6258" stroke="#161924" stroke-width="1.5" stroke-linecap="round" stroke-linejoin="round"/>
</svg>
