<svg width="24" height="24" viewBox="0 0 24 24" fill="none" xmlns="http://www.w3.org/2000/svg">
<path d="M2.9963 5.49731V8.49856" stroke="#161924" stroke-width="1.5" stroke-linecap="round" stroke-linejoin="round"/>
<path d="M12.0006 2.99622C8.38005 2.99524 5.11111 5.16297 3.70312 8.49851" stroke="#161924" stroke-width="1.5" stroke-linecap="round" stroke-linejoin="round"/>
<path d="M5.99734 8.4985H2.99609" stroke="#161924" stroke-width="1.5" stroke-linecap="round" stroke-linejoin="round"/>
<path d="M21.0037 12C21.0037 7.02733 16.9726 2.99622 12 2.99622" stroke="#161924" stroke-width="1.5" stroke-linecap="round" stroke-linejoin="round"/>
<path d="M12 21.0037C16.9726 21.0037 21.0037 16.9726 21.0037 12" stroke="#161924" stroke-width="1.5" stroke-linecap="round" stroke-linejoin="round"/>
<path d="M3.05566 13.0004C3.56503 17.5562 7.41614 21.002 12.0004 21.0037" stroke="#161924" stroke-width="1.5" stroke-linecap="round" stroke-linejoin="round"/>
<path fill-rule="evenodd" clip-rule="evenodd" d="M14.0013 15.5014H10.0096C9.55838 15.5015 9.16292 15.1995 9.04424 14.7641L8.54403 12.9123C8.46247 12.6132 8.52423 12.2931 8.71124 12.0458C8.89825 11.7985 9.18937 11.6518 9.49943 11.6488H14.5015C14.8133 11.6487 15.1073 11.7941 15.2967 12.0418C15.486 12.2896 15.5489 12.6115 15.4669 12.9123L14.9667 14.7641C14.848 15.1995 14.4526 15.5015 14.0013 15.5014Z" stroke="#161924" stroke-width="1.5" stroke-linecap="round" stroke-linejoin="round"/>
<path d="M9.13574 11.7239L11.1866 8.90977C11.3749 8.65151 11.6753 8.49878 11.9949 8.49878C12.3146 8.49878 12.6149 8.65151 12.8033 8.90977L14.8611 11.7239" stroke="#161924" stroke-width="1.5" stroke-linecap="round" stroke-linejoin="round"/>
</svg>
