<svg width="24" height="24" viewBox="0 0 24 24" fill="none" xmlns="http://www.w3.org/2000/svg">
<path d="M14.5616 15.5105H21.0043L20.304 19.034H15.2669L14.2595 14.0009H13.001" stroke="#161924" stroke-width="1.5" stroke-linecap="round" stroke-linejoin="round"/>
<path d="M19.8316 21.4169C19.851 21.4365 19.851 21.4681 19.8314 21.4875C19.8119 21.507 19.7803 21.507 19.7608 21.4875C19.7413 21.4681 19.7412 21.4365 19.7606 21.4169C19.77 21.4074 19.7828 21.4021 19.7961 21.4021C19.8094 21.4021 19.8222 21.4074 19.8316 21.4169" stroke="#161924" stroke-width="1.5" stroke-linecap="round" stroke-linejoin="round"/>
<path d="M15.8013 21.4169C15.8208 21.4365 15.8207 21.4681 15.8012 21.4875C15.7816 21.507 15.75 21.507 15.7305 21.4875C15.711 21.4681 15.7109 21.4365 15.7303 21.4169C15.7397 21.4074 15.7525 21.4021 15.7658 21.4021C15.7792 21.4021 15.792 21.4074 15.8013 21.4169" stroke="#161924" stroke-width="1.5" stroke-linecap="round" stroke-linejoin="round"/>
<path d="M20.0032 12V4.99705C20.0032 3.89202 19.1074 2.99622 18.0023 2.99622H4.99693C3.8919 2.99622 2.99609 3.89202 2.99609 4.99705V19.0029C2.99609 20.1079 3.8919 21.0037 4.99693 21.0037H11.9998" stroke="#161924" stroke-width="1.5" stroke-linecap="round" stroke-linejoin="round"/>
</svg>
