<svg width="24" height="24" viewBox="0 0 24 24" fill="none" xmlns="http://www.w3.org/2000/svg">
<path fill-rule="evenodd" clip-rule="evenodd" d="M3 11.251C3 13.934 4.42 16.296 6.599 17.785C6.598 18.639 6.6 19.791 6.6 21L10.131 19.253C10.735 19.369 11.359 19.432 12 19.432C16.952 19.432 21 15.789 21 11.25V11.181C21 6.643 16.952 3 12 3C7.048 3 3 6.643 3 11.182V11.251Z" stroke="#161924" stroke-width="1.5" stroke-linecap="round" stroke-linejoin="round"/>
<path d="M9.07539 9.25H15.4754L14.7754 12.75H9.77539L8.77539 7.75H7.52539" stroke="#161924" stroke-width="1.5" stroke-linecap="round" stroke-linejoin="round"/>
<path d="M14.3107 15.2146C14.3303 15.2341 14.3303 15.2658 14.3107 15.2853C14.2912 15.3048 14.2596 15.3048 14.24 15.2853C14.2205 15.2658 14.2205 15.2341 14.24 15.2146C14.2596 15.1951 14.2912 15.1951 14.3107 15.2146" stroke="#161924" stroke-width="1.5" stroke-linecap="round" stroke-linejoin="round"/>
<path d="M10.3107 15.2146C10.3303 15.2341 10.3303 15.2658 10.3107 15.2853C10.2912 15.3048 10.2596 15.3048 10.24 15.2853C10.2205 15.2658 10.2205 15.2341 10.24 15.2146C10.2596 15.1951 10.2912 15.1951 10.3107 15.2146" stroke="#161924" stroke-width="1.5" stroke-linecap="round" stroke-linejoin="round"/>
</svg>
