<svg width="24" height="24" viewBox="0 0 24 24" fill="none" xmlns="http://www.w3.org/2000/svg">
<path d="M21.268 2.732C22.244 3.708 22.244 5.291 21.268 6.268C20.292 7.245 18.709 7.244 17.732 6.268C16.756 5.292 16.756 3.709 17.732 2.732C18.709 1.756 20.291 1.756 21.268 2.732" stroke="#161924" stroke-width="1.5" stroke-linecap="round" stroke-linejoin="round"/>
<path d="M20 11V18.875C20 20.049 19.049 21 17.875 21H5.125C3.951 21 3 20.049 3 18.875V6.125C3 4.951 3.951 4 5.125 4H13" stroke="#161924" stroke-width="1.5" stroke-linecap="round" stroke-linejoin="round"/>
<path d="M8.55 10.225H14.95L14.25 13.725H9.25L8.25 8.72498H7" stroke="#161924" stroke-width="1.5" stroke-linecap="round" stroke-linejoin="round"/>
<path d="M13.7845 16.19C13.8045 16.21 13.8045 16.241 13.7845 16.261C13.7645 16.281 13.7335 16.281 13.7135 16.261C13.6935 16.241 13.6935 16.21 13.7135 16.19C13.7335 16.17 13.7655 16.17 13.7845 16.19" stroke="#161924" stroke-width="1.5" stroke-linecap="round" stroke-linejoin="round"/>
<path d="M9.78452 16.19C9.80452 16.21 9.80452 16.241 9.78452 16.261C9.76452 16.281 9.73352 16.281 9.71352 16.261C9.69352 16.241 9.69352 16.21 9.71352 16.19C9.73352 16.17 9.76552 16.17 9.78452 16.19" stroke="#161924" stroke-width="1.5" stroke-linecap="round" stroke-linejoin="round"/>
</svg>
