<svg width="24" height="24" viewBox="0 0 24 24" fill="none" xmlns="http://www.w3.org/2000/svg">
<path d="M20.0032 15.1273V6.99788C20.0032 4.78796 18.2114 2.99622 16.0015 2.99622H6.99776C4.78784 2.99622 2.99609 4.78796 2.99609 6.99788V16.0016C2.99609 18.2116 4.78784 20.0033 6.99776 20.0033H15.1271" stroke="#161924" stroke-width="1.5" stroke-linecap="round" stroke-linejoin="round"/>
<path fill-rule="evenodd" clip-rule="evenodd" d="M13.6316 15.0013H9.36787C9.05174 15.0013 8.77562 14.7902 8.69259 14.485L8.02431 12.034C7.90226 11.5888 8.2374 11.1497 8.69859 11.1497H14.3009C14.7631 11.1497 15.0983 11.5888 14.9762 12.034L14.3079 14.485C14.2249 14.7902 13.9478 15.0013 13.6316 15.0013Z" stroke="#161924" stroke-width="1.5" stroke-linecap="round" stroke-linejoin="round"/>
<path d="M8.62695 11.1666L10.6068 8.45048C11.046 7.84823 11.9433 7.84723 12.3835 8.44848L14.3713 11.1666" stroke="#161924" stroke-width="1.5" stroke-linecap="round" stroke-linejoin="round"/>
<path d="M19.0026 23.0046C16.7927 23.0046 15.001 21.2128 15.001 19.0029C15.001 16.793 16.7927 15.0012 19.0026 15.0012C21.2136 15.0012 23.0043 16.793 23.0043 19.0029C23.0043 21.2128 21.2136 23.0046 19.0026 23.0046" stroke="#161924" stroke-width="1.5" stroke-linecap="round" stroke-linejoin="round"/>
<path d="M20.3361 18.3356L18.6694 20.0033L17.6689 19.0028" stroke="#161924" stroke-width="1.5" stroke-linecap="round" stroke-linejoin="round"/>
</svg>
