<svg width="24" height="24" viewBox="0 0 24 24" fill="none" xmlns="http://www.w3.org/2000/svg">
<path d="M18 22C15.79 22 14 20.209 14 18C14 15.791 15.79 14 18 14C20.209 14 22 15.791 22 18C22 20.209 20.209 22 18 22" stroke="#161924" stroke-width="1.5" stroke-linecap="round" stroke-linejoin="round"/>
<path d="M11 21H5C3.895 21 3 20.105 3 19V8.5C3 7.672 3.672 7 4.5 7H17.5C18.328 7 19 7.672 19 8.5V11" stroke="#161924" stroke-width="1.5" stroke-linecap="round" stroke-linejoin="round"/>
<path d="M7 6.75V6.75C7 4.679 8.679 3 10.75 3H11.25C13.321 3 15 4.679 15 6.75V6.75" stroke="#161924" stroke-width="1.5" stroke-linecap="round" stroke-linejoin="round"/>
<path d="M15 6.75V7" stroke="#161924" stroke-width="1.5" stroke-linecap="round" stroke-linejoin="round"/>
<path d="M19.5563 17.222L17.6113 19.167L16.4443 18" stroke="#161924" stroke-width="1.5" stroke-linecap="round" stroke-linejoin="round"/>
</svg>
