<svg width="24" height="24" viewBox="0 0 24 24" fill="none" xmlns="http://www.w3.org/2000/svg">
<path d="M6 18C8.34315 15.6568 12.1421 15.6568 14.4853 18" stroke="#161924" stroke-width="1.5" stroke-linecap="round" stroke-linejoin="round"/>
<path fill-rule="evenodd" clip-rule="evenodd" d="M14.8154 6.41638V6.41638C17.2415 7.446 18.521 10.1213 17.7997 12.6562L17.7541 12.8175C17.6563 13.1627 17.415 13.4494 17.0914 13.6044C16.7678 13.7594 16.3931 13.7679 16.0628 13.6277L8.76199 10.5282C8.43241 10.3883 8.17865 10.1137 8.06506 9.77416C7.95147 9.4346 7.98895 9.06263 8.16799 8.75255L8.25431 8.60299C9.57716 6.32404 12.3899 5.38664 14.8154 6.41638V6.41638Z" stroke="#161924" stroke-width="1.5" stroke-linecap="round" stroke-linejoin="round"/>
<path d="M12.4453 12.0919L10.6792 16.258" stroke="#161924" stroke-width="1.5" stroke-linecap="round" stroke-linejoin="round"/>
<rect x="2" y="2" width="20" height="20" rx="5" stroke="#161924" stroke-width="1.5" stroke-linecap="round" stroke-linejoin="round"/>
</svg>
