<svg width="24" height="24" viewBox="0 0 24 24" fill="none" xmlns="http://www.w3.org/2000/svg">
<path d="M10.9996 18.0026H13.0005" stroke="#161924" stroke-width="1.5" stroke-linecap="round" stroke-linejoin="round"/>
<path d="M15.7206 15.8767V15.8767C16.0607 15.8764 16.3868 15.7411 16.6272 15.5004C16.8675 15.2596 17.0024 14.9333 17.0021 14.5932V14.5932C17.0015 14.2326 16.8576 13.8871 16.6019 13.6328L15.7496 12.7804V10.2494C15.7496 8.17822 14.0712 6.49891 12 6.4978V6.4978C9.92886 6.49891 8.25045 8.17822 8.25045 10.2494V12.7804L7.39809 13.6328C7.14245 13.8871 6.99848 14.2326 6.99792 14.5932V14.5932C6.99819 14.9333 7.13357 15.2594 7.37428 15.4998C7.61499 15.7401 7.94131 15.875 8.28146 15.8747H15.7186" stroke="#161924" stroke-width="1.5" stroke-linecap="round" stroke-linejoin="round"/>
<path d="M21.0037 9.99925V16.0018C21.0037 18.7643 18.7642 21.0038 16.0016 21.0038H7.9983C5.23572 21.0038 2.99622 18.7643 2.99622 16.0018V7.99842C2.99622 5.23585 5.23572 2.99634 7.9983 2.99634H14.0008" stroke="#161924" stroke-width="1.5" stroke-linecap="round" stroke-linejoin="round"/>
<circle cx="19.5031" cy="4.49689" r="2.50104" stroke="#161924" stroke-width="1.5" stroke-linecap="round" stroke-linejoin="round"/>
</svg>
