<svg width="24" height="24" viewBox="0 0 24 24" fill="none" xmlns="http://www.w3.org/2000/svg">
<path d="M11.9994 9.35327L12.0005 13.3549" stroke="#161924" stroke-width="1.5" stroke-linecap="round" stroke-linejoin="round"/>
<path d="M9.99915 11.3545L14.0008 11.3534" stroke="#161924" stroke-width="1.5" stroke-linecap="round" stroke-linejoin="round"/>
<path d="M9.50897 18.0027V18.5149C9.50897 19.8896 10.6234 21.0039 11.998 21.0039H12C12.6604 21.0042 13.2939 20.7421 13.761 20.2753C14.2282 19.8085 14.4908 19.1753 14.491 18.5149V18.0027" stroke="#161924" stroke-width="1.5" stroke-linecap="round" stroke-linejoin="round"/>
<path fill-rule="evenodd" clip-rule="evenodd" d="M17.9495 18.0026C19.0838 18.0026 20.0033 17.083 20.0033 15.9487V15.9487C20.0028 15.3725 19.7741 14.82 19.367 14.4121L18.0025 13.0485V8.99884C18.0025 5.68375 15.3151 2.99634 12 2.99634V2.99634C8.68489 2.99634 5.99748 5.68375 5.99748 8.99884V13.0485L4.63291 14.4121C4.22589 14.82 3.9971 15.3725 3.99664 15.9487V15.9487C3.99664 16.4934 4.21303 17.0159 4.5982 17.401C4.98338 17.7862 5.50578 18.0026 6.0505 18.0026H17.9495Z" stroke="#161924" stroke-width="1.5" stroke-linecap="round" stroke-linejoin="round"/>
</svg>
