<svg width="24" height="24" viewBox="0 0 24 24" fill="none" xmlns="http://www.w3.org/2000/svg">
<path d="M9.66467 18.1902V18.6704C9.66467 19.2893 9.91052 19.8828 10.3481 20.3204C10.7857 20.758 11.3793 21.0039 11.9981 21.0039H12C12.6191 21.0041 13.213 20.7584 13.651 20.3208C14.0889 19.8832 14.3351 19.2895 14.3354 18.6704V18.1902" stroke="#161924" stroke-width="1.5" stroke-linecap="round" stroke-linejoin="round"/>
<path fill-rule="evenodd" clip-rule="evenodd" d="M17.5776 18.1902C18.6411 18.1902 19.5031 17.3281 19.5031 16.2647V16.2647C19.5027 15.7245 19.2882 15.2065 18.9066 14.8241L17.6274 13.5458V9.74917C17.6274 6.64127 15.1079 4.12183 12 4.12183V4.12183C8.89212 4.12183 6.37267 6.64127 6.37267 9.74917V13.5458L5.09339 14.8241C4.71181 15.2065 4.49732 15.7245 4.49689 16.2647V16.2647C4.49689 17.3281 5.35896 18.1902 6.42238 18.1902H17.5776V18.1902Z" stroke="#161924" stroke-width="1.5" stroke-linecap="round" stroke-linejoin="round"/>
<path d="M22.0255 2.99634L20.0247 4.3302" stroke="#161924" stroke-width="1.5" stroke-linecap="round" stroke-linejoin="round"/>
<path d="M23.0045 8.99899H21.025" stroke="#161924" stroke-width="1.5" stroke-linecap="round" stroke-linejoin="round"/>
<path d="M1.97455 2.99634L3.97538 4.3302" stroke="#161924" stroke-width="1.5" stroke-linecap="round" stroke-linejoin="round"/>
<path d="M0.995422 8.99899H2.97495" stroke="#161924" stroke-width="1.5" stroke-linecap="round" stroke-linejoin="round"/>
</svg>
