<svg width="24" height="24" viewBox="0 0 24 24" fill="none" xmlns="http://www.w3.org/2000/svg">
<path d="M21.0037 9.99925V16.0018C21.0037 18.7643 18.7642 21.0038 16.0016 21.0038H7.9983C5.23572 21.0038 2.99622 18.7643 2.99622 16.0018V7.99842C2.99622 5.23585 5.23572 2.99634 7.9983 2.99634H14.0008" stroke="#161924" stroke-width="1.5" stroke-linecap="round" stroke-linejoin="round"/>
<circle cx="19.5031" cy="4.49689" r="2.50104" stroke="#161924" stroke-width="1.5" stroke-linecap="round" stroke-linejoin="round"/>
<path d="M10.4434 15.7107V16.2809C10.4434 17.1401 11.1398 17.8366 11.999 17.8366H12C12.4129 17.8366 12.8088 17.6726 13.1007 17.3806C13.3927 17.0887 13.5567 16.6928 13.5567 16.2799V15.7107" stroke="#161924" stroke-width="1.5" stroke-linecap="round" stroke-linejoin="round"/>
<path fill-rule="evenodd" clip-rule="evenodd" d="M15.7186 15.7107C16.0588 15.711 16.3851 15.5761 16.6258 15.3358C16.8665 15.0954 17.0019 14.7693 17.0021 14.4292V14.4272V14.4272C17.0016 14.0666 16.8576 13.721 16.602 13.4668L15.7496 12.6144V10.0833C15.7496 8.0122 14.0712 6.33289 12.0001 6.33179V6.33179C9.92813 6.33179 8.24849 8.01142 8.24849 10.0833V12.6144L7.39614 13.4668C7.1405 13.721 6.99653 14.0666 6.99597 14.4272H6.99797C6.99771 14.7673 7.13258 15.0936 7.37291 15.3343C7.61324 15.575 7.93936 15.7104 8.27951 15.7107H15.7186V15.7107Z" stroke="#161924" stroke-width="1.5" stroke-linecap="round" stroke-linejoin="round"/>
</svg>
