<svg width="24" height="24" viewBox="0 0 24 24" fill="none" xmlns="http://www.w3.org/2000/svg">
<path d="M15.7206 15.7107V15.7107C16.0607 15.7104 16.3868 15.575 16.6272 15.3343C16.8675 15.0936 17.0024 14.7673 17.0021 14.4272V14.4272C17.0015 14.0666 16.8576 13.721 16.6019 13.4668L15.7496 12.6144V10.0833C15.7496 8.0122 14.0712 6.33289 12 6.33179V6.33179C9.92886 6.33289 8.25045 8.0122 8.25045 10.0833V12.6144L7.39809 13.4668C7.14245 13.721 6.99848 14.0666 6.99792 14.4272V14.4272V14.4272C6.99819 14.7673 7.13357 15.0934 7.37428 15.3338C7.61499 15.5741 7.94131 15.709 8.28146 15.7087H15.7186" stroke="#161924" stroke-width="1.5" stroke-linecap="round" stroke-linejoin="round"/>
<path d="M10.9996 17.8366H13.0004" stroke="#161924" stroke-width="1.5" stroke-linecap="round" stroke-linejoin="round"/>
<path d="M12 21.0038C7.02733 21.0038 2.99622 16.9727 2.99622 12.0001C2.99622 7.02745 7.02733 2.99634 12 2.99634C16.9726 2.99634 21.0037 7.02745 21.0037 12.0001C21.0037 16.9727 16.9726 21.0038 12 21.0038" stroke="#161924" stroke-width="1.5" stroke-linecap="round" stroke-linejoin="round"/>
</svg>
