<svg width="24" height="24" viewBox="0 0 24 24" fill="none" xmlns="http://www.w3.org/2000/svg">
<path d="M9.56897 19.0101L9.68797 19.3551C10.1 20.5521 11.404 21.1881 12.601 20.7761V20.7761C13.798 20.3641 14.434 19.0601 14.022 17.8631L13.903 17.5181" stroke="#161924" stroke-width="1.5" stroke-linecap="round" stroke-linejoin="round"/>
<path d="M10.985 5.20403L10.686 4.33603C10.356 3.37903 9.31297 2.87003 8.35497 3.20003V3.20003C7.39797 3.53003 6.88897 4.57303 7.21797 5.53003L7.51697 6.39803" stroke="#161924" stroke-width="1.5" stroke-linecap="round" stroke-linejoin="round"/>
<path fill-rule="evenodd" clip-rule="evenodd" d="M5.55398 11.766V11.766C4.73898 9.40004 5.99698 6.82104 8.36298 6.00604L10.077 5.41604C12.443 4.60104 15.022 5.85904 15.837 8.22504V8.22504L16.747 10.869C16.92 11.371 17.285 11.783 17.761 12.015L18.576 12.412C19.053 12.645 19.418 13.057 19.59 13.558V13.558C19.93 14.545 19.405 15.621 18.418 15.961L8.28298 19.451C7.29598 19.791 6.21998 19.266 5.87998 18.279V18.279C5.70698 17.777 5.74098 17.228 5.97298 16.751L6.36998 15.936C6.60298 15.459 6.63598 14.91 6.46298 14.408L5.55398 11.766Z" stroke="#161924" stroke-width="1.5" stroke-linecap="round" stroke-linejoin="round"/>
</svg>
