<svg width="24" height="24" viewBox="0 0 24 24" fill="none" xmlns="http://www.w3.org/2000/svg">
<path fill-rule="evenodd" clip-rule="evenodd" d="M20.5286 7.99849H3.4715C3.21307 7.99876 2.96512 7.89635 2.7822 7.7138C2.59927 7.53125 2.49636 7.28352 2.49609 7.02509V4.97223C2.49583 4.7138 2.59824 4.46585 2.78078 4.28293C2.96333 4.10001 3.21107 3.99709 3.4695 3.99683H20.5296C21.0678 3.99683 21.504 4.43308 21.504 4.97123V7.02409C21.504 7.28252 21.4014 7.53036 21.2186 7.7131C21.0359 7.89583 20.788 7.99849 20.5296 7.99849H20.5286Z" stroke="#161924" stroke-width="1.5" stroke-linecap="round" stroke-linejoin="round"/>
<path fill-rule="evenodd" clip-rule="evenodd" d="M17.1622 20.0035H6.83789C5.79728 20.0035 4.93043 19.2058 4.84406 18.1688L3.9967 7.99854H20.0034L19.156 18.1688C19.0696 19.2058 18.2028 20.0035 17.1622 20.0035Z" stroke="#161924" stroke-width="1.5" stroke-linecap="round" stroke-linejoin="round"/>
<path d="M12 16.3509V12" stroke="#161924" stroke-width="1.5" stroke-linecap="round" stroke-linejoin="round"/>
<path d="M9.99915 14.3501L12 16.3509L14.0008 14.3501" stroke="#161924" stroke-width="1.5" stroke-linecap="round" stroke-linejoin="round"/>
</svg>
