<svg width="24" height="24" viewBox="0 0 24 24" fill="none" xmlns="http://www.w3.org/2000/svg">
<path fill-rule="evenodd" clip-rule="evenodd" d="M13.999 16.476H8.74902V11.975H13.998C15.241 11.975 16.249 12.983 16.249 14.226V14.226C16.249 15.469 15.242 16.476 13.999 16.476V16.476Z" stroke="#161924" stroke-width="1.5" stroke-linecap="round" stroke-linejoin="round"/>
<path d="M8.74902 11.975V7.33301H13.43C14.712 7.33301 15.751 8.37201 15.751 9.65401V9.65401C15.751 10.936 14.712 11.975 13.43 11.975" stroke="#161924" stroke-width="1.5" stroke-linecap="round" stroke-linejoin="round"/>
<path d="M18.3639 5.63604C21.8787 9.15076 21.8787 14.8492 18.3639 18.3639C14.8492 21.8787 9.15074 21.8787 5.63604 18.3639C2.12132 14.8492 2.12132 9.15074 5.63604 5.63604C9.15076 2.12132 14.8492 2.12132 18.3639 5.63604" stroke="#161924" stroke-width="1.5" stroke-linecap="round" stroke-linejoin="round"/>
<path d="M11.6802 6V7.33" stroke="#161924" stroke-width="1.5" stroke-linecap="round" stroke-linejoin="round"/>
<path d="M11.6802 18V16.5" stroke="#161924" stroke-width="1.5" stroke-linecap="round" stroke-linejoin="round"/>
</svg>
