<svg width="24" height="24" viewBox="0 0 24 24" fill="none" xmlns="http://www.w3.org/2000/svg">
<path d="M7.49829 13.2505H16.502" stroke="#161924" stroke-width="1.5" stroke-linecap="round" stroke-linejoin="round"/>
<path d="M12.0002 13.2505V7.24799" stroke="#161924" stroke-width="1.5" stroke-linecap="round" stroke-linejoin="round"/>
<path d="M15.0014 13.2505V9.24884" stroke="#161924" stroke-width="1.5" stroke-linecap="round" stroke-linejoin="round"/>
<path d="M16.0019 21.0037L15.0015 17.0021" stroke="#161924" stroke-width="1.5" stroke-linecap="round" stroke-linejoin="round"/>
<path d="M7.99854 21.0037L8.99895 17.0021" stroke="#161924" stroke-width="1.5" stroke-linecap="round" stroke-linejoin="round"/>
<path fill-rule="evenodd" clip-rule="evenodd" d="M18.928 17.002H5.0722C3.92573 17.002 2.99634 16.0727 2.99634 14.9262V5.07208C2.99634 3.92561 3.92573 2.99622 5.0722 2.99622H18.927C19.4777 2.99595 20.006 3.21454 20.3955 3.60387C20.785 3.9932 21.0038 4.52135 21.0038 5.07208V14.9252C21.0041 15.4759 20.7855 16.0042 20.3962 16.3937C20.0069 16.7832 19.4787 17.002 18.928 17.002Z" stroke="#161924" stroke-width="1.5" stroke-linecap="round" stroke-linejoin="round"/>
<path d="M8.99899 13.2505V10.2493" stroke="#161924" stroke-width="1.5" stroke-linecap="round" stroke-linejoin="round"/>
</svg>
