<svg width="24" height="24" viewBox="0 0 24 24" fill="none" xmlns="http://www.w3.org/2000/svg">
<path d="M7.99818 2.99622V6.99788C7.99818 7.5504 7.55028 7.9983 6.99776 7.9983H2.99609" stroke="#161924" stroke-width="1.5" stroke-linecap="round" stroke-linejoin="round"/>
<path d="M5.99734 21.0037H4.99693C3.8919 21.0037 2.99609 20.1079 2.99609 19.0029V7.82623C2.99609 7.29562 3.20708 6.78678 3.58234 6.41164L6.41152 3.58246C6.78666 3.2072 7.29549 2.99622 7.82611 2.99622H16.0015C17.1065 2.99622 18.0023 3.89202 18.0023 4.99705V9.99913" stroke="#161924" stroke-width="1.5" stroke-linecap="round" stroke-linejoin="round"/>
<path fill-rule="evenodd" clip-rule="evenodd" d="M10.6667 21.0038H19.3373C19.7795 21.0037 20.2035 20.8279 20.5161 20.5151C20.8287 20.2024 21.0042 19.7782 21.004 19.3361V14.6681C21.004 14.2258 20.8285 13.8015 20.5157 13.4888C20.2029 13.176 19.7787 13.0003 19.3363 13.0004H10.6657C10.2235 13.0005 9.79951 13.1763 9.48694 13.489C9.17436 13.8018 8.99885 14.2259 8.99902 14.6681V19.3371C8.99902 19.7792 9.17488 20.2033 9.48764 20.5158C9.80041 20.8284 10.2245 21.0039 10.6667 21.0038Z" stroke="#161924" stroke-width="1.5" stroke-linecap="round" stroke-linejoin="round"/>
<circle cx="15.0016" cy="17.0021" r="1.50063" stroke="#161924" stroke-width="1.5" stroke-linecap="round" stroke-linejoin="round"/>
</svg>
