<svg width="24" height="24" viewBox="0 0 24 24" fill="none" xmlns="http://www.w3.org/2000/svg">
<path fill-rule="evenodd" clip-rule="evenodd" d="M12 15.0013V19.0029C12 20.108 12.8958 21.0038 14.0008 21.0038H20.0033C21.1084 21.0038 22.0042 20.108 22.0042 19.0029V15.0013C22.0042 13.8962 21.1084 13.0004 20.0033 13.0004H14.0008C12.8958 13.0004 12 13.8962 12 15.0013Z" stroke="#161924" stroke-width="1.5" stroke-linecap="round" stroke-linejoin="round"/>
<path d="M14.751 16.0016L16.4994 17.0168C16.8101 17.1972 17.1938 17.1972 17.5045 17.0168L19.2529 16.0016" stroke="#161924" stroke-width="1.5" stroke-linecap="round" stroke-linejoin="round"/>
<path d="M7.99818 2.99622V6.99788C7.99818 7.5504 7.55028 7.9983 6.99776 7.9983H2.99609" stroke="#161924" stroke-width="1.5" stroke-linecap="round" stroke-linejoin="round"/>
<path d="M8.99859 21.0037H4.99693C3.8919 21.0037 2.99609 20.1079 2.99609 19.0029V7.82623C2.99609 7.29562 3.20708 6.78678 3.58234 6.41164L6.41152 3.58246C6.78666 3.2072 7.29549 2.99622 7.82611 2.99622H16.0015C17.1065 2.99622 18.0023 3.89202 18.0023 4.99705V9.99913" stroke="#161924" stroke-width="1.5" stroke-linecap="round" stroke-linejoin="round"/>
<path d="M6.99805 14.0008H8.99888" stroke="#161924" stroke-width="1.5" stroke-linecap="round" stroke-linejoin="round"/>
<path d="M7.99805 17.0021H8.99846" stroke="#161924" stroke-width="1.5" stroke-linecap="round" stroke-linejoin="round"/>
</svg>
