<svg width="24" height="24" viewBox="0 0 24 24" fill="none" xmlns="http://www.w3.org/2000/svg">
<path d="M9 3V7C9 7.55228 8.55228 8 8 8H4" stroke="#161924" stroke-width="1.5" stroke-linecap="round" stroke-linejoin="round"/>
<path d="M8 21H6C4.89543 21 4 20.1046 4 19V7.828C4.00011 7.29761 4.2109 6.78899 4.586 6.414L7.414 3.586C7.78899 3.2109 8.29761 3.00011 8.828 3H17C18.1046 3 19 3.89543 19 5V10" stroke="#161924" stroke-width="1.5" stroke-linecap="round" stroke-linejoin="round"/>
<path fill-rule="evenodd" clip-rule="evenodd" d="M11 15V19C11 20.1046 11.8954 21 13 21H19C20.1046 21 21 20.1046 21 19V15C21 13.8954 20.1046 13 19 13H13C11.8954 13 11 13.8954 11 15Z" stroke="#161924" stroke-width="1.5" stroke-linecap="round" stroke-linejoin="round"/>
<path d="M21 16H11" stroke="#161924" stroke-width="1.5" stroke-linecap="round" stroke-linejoin="round"/>
</svg>
