<svg width="24" height="24" viewBox="0 0 24 24" fill="none" xmlns="http://www.w3.org/2000/svg">
<path fill-rule="evenodd" clip-rule="evenodd" d="M21 15V19C21 20.1046 20.1046 21 19 21H13C11.8954 21 11 20.1046 11 19V15C11 13.8954 11.8954 13 13 13H19C20.1046 13 21 13.8954 21 15Z" stroke="#161924" stroke-width="1.5" stroke-linecap="round" stroke-linejoin="round"/>
<path d="M18.2383 16L16.4927 16.8819C16.1748 17.0394 15.8017 17.0394 15.4838 16.8819L13.7383 16" stroke="#161924" stroke-width="1.5" stroke-linecap="round" stroke-linejoin="round"/>
<path d="M20 10V6C20 4.34315 18.6569 3 17 3H9.50931C8.71366 3.00001 7.9506 3.31608 7.388 3.87869L4.87868 6.388C4.31607 6.95061 4 7.71367 4 8.50932V18C4 19.6569 5.34315 21 7 21H8" stroke="#161924" stroke-width="1.5" stroke-linecap="round" stroke-linejoin="round"/>
<path d="M9.5 3V6.5C9.5 7.60457 8.60457 8.5 7.5 8.5H4" stroke="#161924" stroke-width="1.5" stroke-linecap="round" stroke-linejoin="round"/>
</svg>
