<svg width="24" height="24" viewBox="0 0 24 24" fill="none" xmlns="http://www.w3.org/2000/svg">
<path d="M8 3V7C8 7.55228 7.55228 8 7 8H3" stroke="#161924" stroke-width="1.5" stroke-linecap="round" stroke-linejoin="round"/>
<path d="M8 21H5C3.89543 21 3 20.1046 3 19V7.828C3.00011 7.29761 3.2109 6.78899 3.586 6.414L6.414 3.586C6.78899 3.2109 7.29761 3.00011 7.828 3H16C17.1046 3 18 3.89543 18 5V10" stroke="#161924" stroke-width="1.5" stroke-linecap="round" stroke-linejoin="round"/>
<path fill-rule="evenodd" clip-rule="evenodd" d="M12 15V19C12 20.1046 12.8954 21 14 21H20C21.1046 21 22 20.1046 22 19V15C22 13.8954 21.1046 13 20 13H14C12.8954 13 12 13.8954 12 15Z" stroke="#161924" stroke-width="1.5" stroke-linecap="round" stroke-linejoin="round"/>
<path d="M22 16.3333H12" stroke="#161924" stroke-width="1.5" stroke-linecap="round" stroke-linejoin="round"/>
<path d="M6 14H9" stroke="#161924" stroke-width="1.5" stroke-linecap="round" stroke-linejoin="round"/>
<path d="M8 17H9" stroke="#161924" stroke-width="1.5" stroke-linecap="round" stroke-linejoin="round"/>
</svg>
