<svg width="24" height="24" viewBox="0 0 24 24" fill="none" xmlns="http://www.w3.org/2000/svg">
<path d="M8.49854 9.08202L14.9182 14.6263L11.4168 17.2524V6.74805L14.9182 9.37414L8.49854 14.9184" stroke="#161924" stroke-width="1.5" stroke-linecap="round" stroke-linejoin="round"/>
<path fill-rule="evenodd" clip-rule="evenodd" d="M16.0016 21.0038H7.9983C5.23572 21.0038 2.99622 18.7643 2.99622 16.0018V7.99842C2.99622 5.23585 5.23572 2.99634 7.9983 2.99634H16.0016C18.7642 2.99634 21.0037 5.23585 21.0037 7.99842V16.0018C21.0037 18.7643 18.7642 21.0038 16.0016 21.0038Z" stroke="#161924" stroke-width="1.5" stroke-linecap="round" stroke-linejoin="round"/>
<path d="M17.5933 6.99194C17.5657 6.99194 17.5433 7.01433 17.5433 7.04196C17.5433 7.06958 17.5657 7.09198 17.5933 7.09198C17.621 7.09198 17.6434 7.06958 17.6434 7.04196C17.6428 7.01455 17.6208 6.99247 17.5933 6.99194" stroke="#161924" stroke-width="1.5" stroke-linecap="round" stroke-linejoin="round"/>
</svg>
