<svg width="24" height="24" viewBox="0 0 24 24" fill="none" xmlns="http://www.w3.org/2000/svg">
<path fill-rule="evenodd" clip-rule="evenodd" d="M11.9553 7.91797H14.7438C15.0985 7.91782 15.4387 8.0586 15.6896 8.30933C15.9405 8.56006 16.0816 8.9002 16.0816 9.2549V12.0437C16.0814 12.3985 15.9403 12.7386 15.6894 12.9894L12.1489 16.5302C11.6266 17.0522 10.7801 17.0522 10.2578 16.5302L7.46926 13.7414C6.94734 13.219 6.94734 12.3725 7.46926 11.8501L11.0097 8.31019C11.2604 8.05925 11.6006 7.91817 11.9553 7.91797Z" stroke="#161924" stroke-width="1.5" stroke-linecap="round" stroke-linejoin="round"/>
<path d="M13.536 10.4641C13.5503 10.4784 13.5546 10.4999 13.5469 10.5186C13.5391 10.5373 13.5209 10.5495 13.5006 10.5495C13.4804 10.5495 13.4622 10.5373 13.4544 10.5186C13.4467 10.4999 13.451 10.4784 13.4653 10.4641C13.4747 10.4547 13.4874 10.4494 13.5006 10.4494C13.5139 10.4494 13.5266 10.4547 13.536 10.4641" stroke="#161924" stroke-width="1.5" stroke-linecap="round" stroke-linejoin="round"/>
<path d="M20.5855 9.35198C20.8586 10.2083 20.9997 11.1013 21.0037 12.0001C21.0037 16.9727 16.9726 21.0038 12 21.0038C7.02733 21.0038 2.99622 16.9727 2.99622 12.0001C2.99622 7.02745 7.02733 2.99634 12 2.99634C12.8988 3.0004 13.7917 3.14141 14.6481 3.41451" stroke="#161924" stroke-width="1.5" stroke-linecap="round" stroke-linejoin="round"/>
<path d="M19.0149 6.25966L17.7394 4.98413" stroke="#161924" stroke-width="1.5" stroke-linecap="round" stroke-linejoin="round"/>
<path d="M21.0038 4.27075L19.015 6.25961" stroke="#161924" stroke-width="1.5" stroke-linecap="round" stroke-linejoin="round"/>
</svg>
