<svg width="24" height="24" viewBox="0 0 24 24" fill="none" xmlns="http://www.w3.org/2000/svg">
<path fill-rule="evenodd" clip-rule="evenodd" d="M12 20C11.3794 18.7588 10.1107 17.9747 8.723 17.9747H5.519C4.6801 17.9747 4.00002 17.2946 4 16.4557V6.519C4 5.68008 4.68008 5 5.519 5H7.94937C10.2425 5.14373 12.0222 7.05689 12 9.35444V20Z" stroke="#323232" stroke-width="1.5" stroke-linecap="round" stroke-linejoin="round"/>
<path fill-rule="evenodd" clip-rule="evenodd" d="M12.0002 20C12.6208 18.7588 13.8895 17.9747 15.2772 17.9747H18.4812C19.3201 17.9747 20.0002 17.2946 20.0002 16.4557V6.519C20.0002 5.6801 19.3202 5.00003 18.4813 5H16.0509C13.7577 5.14373 11.978 7.05688 12.0002 9.35444V20Z" stroke="#323232" stroke-width="1.5" stroke-linecap="round" stroke-linejoin="round"/>
</svg>
