<svg width="24" height="24" viewBox="0 0 24 24" fill="none" xmlns="http://www.w3.org/2000/svg">
<path d="M20.7692 14C21.6739 10.0758 19.87 6.02684 16.3475 4.07497C12.8249 2.12311 8.43553 2.74034 5.58788 5.588C2.74022 8.43565 2.12298 12.825 4.07485 16.3476C6.02672 19.8702 10.0756 21.674 13.9999 20.7693" stroke="#161924" stroke-width="1.5" stroke-linecap="round" stroke-linejoin="round"/>
<path d="M18.749 17.25V20.25" stroke="#161924" stroke-width="1.5" stroke-linecap="round" stroke-linejoin="round"/>
<path d="M17.25 18.7491H20.25" stroke="#161924" stroke-width="1.5" stroke-linecap="round" stroke-linejoin="round"/>
<path fill-rule="evenodd" clip-rule="evenodd" d="M12.2761 7.75H14.204C15.334 7.75 16.25 8.66603 16.25 9.796V11.7235C16.25 12.2661 16.0345 12.7865 15.6508 13.1702L12.6707 16.1506C11.8718 16.9496 10.5764 16.9498 9.77732 16.1509L7.84944 14.2235C7.46567 13.8398 7.25005 13.3194 7.25 12.7767C7.24995 12.234 7.46549 11.7136 7.84919 11.3298L10.8293 8.34935C11.213 7.96559 11.7335 7.75 12.2761 7.75V7.75Z" stroke="#161924" stroke-width="1.5" stroke-linecap="round" stroke-linejoin="round"/>
<path d="M13.2854 10.7147C13.3049 10.7342 13.3049 10.7659 13.2853 10.7854C13.2658 10.8049 13.2342 10.8049 13.2146 10.7854C13.1951 10.7658 13.1951 10.7342 13.2146 10.7147C13.2341 10.6951 13.2658 10.6951 13.2853 10.7146L13.2854 10.7147" stroke="#161924" stroke-width="1.5" stroke-linecap="round" stroke-linejoin="round"/>
</svg>
