<svg width="24" height="24" viewBox="0 0 24 24" fill="none" xmlns="http://www.w3.org/2000/svg">
<path d="M15.0264 4.75305C11.2828 3.05007 6.85684 4.26955 4.51371 7.64966C2.17057 11.0298 2.58145 15.6022 5.48967 18.5104C8.39788 21.4186 12.9703 21.8295 16.3504 19.4864C19.7305 17.1432 20.95 12.7173 19.247 8.97362" stroke="#161924" stroke-width="1.5" stroke-linecap="round" stroke-linejoin="round"/>
<path fill-rule="evenodd" clip-rule="evenodd" d="M8.81079 15.384V10.5326C8.81079 9.88976 9.33164 9.36847 9.97449 9.36792H13.0803C13.7231 9.36847 14.244 9.88976 14.244 10.5326V15.384C14.2441 15.4566 14.2036 15.5232 14.139 15.5564C14.0744 15.5897 13.9966 15.584 13.9376 15.5416L11.6422 13.9C11.574 13.8529 11.4838 13.8529 11.4156 13.9L9.12018 15.5416C9.06021 15.5812 8.98358 15.5855 8.91956 15.5529C8.85553 15.5203 8.81399 15.4557 8.81079 15.3839V15.384Z" stroke="#161924" stroke-width="1.5" stroke-linecap="round" stroke-linejoin="round"/>
<path d="M19.0126 0.995605C20.6272 0.995605 22.0829 1.96823 22.7008 3.45996C23.3187 4.9517 22.9771 6.66876 21.8354 7.81048C20.6937 8.9522 18.9766 9.29375 17.4849 8.67585C15.9931 8.05796 15.0205 6.60231 15.0205 4.98767C15.0205 2.78292 16.8078 0.995605 19.0126 0.995605" stroke="#161924" stroke-width="1.5" stroke-linecap="round" stroke-linejoin="round"/>
<path d="M20.1464 4.98751C20.1464 5.01514 20.124 5.03753 20.0964 5.03753C20.0688 5.03753 20.0464 5.01514 20.0464 4.98751C20.0464 4.95989 20.0688 4.93749 20.0964 4.93749" stroke="#161924" stroke-width="1.5" stroke-linecap="round" stroke-linejoin="round"/>
<path d="M20.0964 4.9376C20.124 4.9376 20.1464 4.96 20.1464 4.98762" stroke="#161924" stroke-width="1.5" stroke-linecap="round" stroke-linejoin="round"/>
<path d="M17.9785 4.98751C17.9785 5.01514 17.9561 5.03753 17.9284 5.03753C17.9008 5.03753 17.8784 5.01514 17.8784 4.98751C17.8784 4.95989 17.9008 4.93749 17.9284 4.93749" stroke="#161924" stroke-width="1.5" stroke-linecap="round" stroke-linejoin="round"/>
<path d="M17.9284 4.9376C17.9561 4.9376 17.9785 4.96 17.9785 4.98762" stroke="#161924" stroke-width="1.5" stroke-linecap="round" stroke-linejoin="round"/>
</svg>
