<svg width="24" height="24" viewBox="0 0 24 24" fill="none" xmlns="http://www.w3.org/2000/svg">
<path fill-rule="evenodd" clip-rule="evenodd" d="M9.99944 15.0013H20.0036C20.5561 15.0013 21.004 15.4492 21.004 16.0017V16.0017C21.004 19.3168 18.3166 22.0042 15.0015 22.0042V22.0042C11.6864 22.0042 8.99902 19.3168 8.99902 16.0017V16.0017C8.99902 15.4492 9.44693 15.0013 9.99944 15.0013Z" stroke="#161924" stroke-width="1.5" stroke-linecap="round" stroke-linejoin="round"/>
<path fill-rule="evenodd" clip-rule="evenodd" d="M9.99944 15.0013H20.0036C20.5561 15.0013 21.004 15.4492 21.004 16.0017V16.0017C21.004 19.3168 18.3166 22.0042 15.0015 22.0042V22.0042C11.6864 22.0042 8.99902 19.3168 8.99902 16.0017V16.0017C8.99902 15.4492 9.44693 15.0013 9.99944 15.0013Z" stroke="#161924" stroke-width="1.5" stroke-linecap="round" stroke-linejoin="round"/>
<path d="M13.0007 10.2493H2.99658" stroke="#161924" stroke-width="1.5" stroke-linecap="round" stroke-linejoin="round"/>
<path d="M5.49756 4.49688H10.4996" stroke="#161924" stroke-width="1.5" stroke-linecap="round" stroke-linejoin="round"/>
<path d="M11.5702 20.9237C11.3846 20.9762 11.1927 21.0031 10.9999 21.0037H4.99742C3.89373 21.0005 2.99981 20.1066 2.99658 19.0029V10.5294C2.99584 9.49221 3.39752 8.4952 4.11705 7.74821L5.4376 6.38765C5.79817 6.01467 5.99914 5.51583 5.99783 4.99707V2.99624C5.99945 2.44439 6.44641 1.99743 6.99825 1.99582H8.99908C9.55093 1.99743 9.99789 2.44439 9.9995 2.99624V4.99707C9.9982 5.51583 10.1992 6.01467 10.5597 6.38765L11.8803 7.74821C12.5998 8.4952 13.0015 9.49221 13.0007 10.5294V15.0012" stroke="#161924" stroke-width="1.5" stroke-linecap="round" stroke-linejoin="round"/>
</svg>
