<svg width="24" height="24" viewBox="0 0 24 24" fill="none" xmlns="http://www.w3.org/2000/svg">
<path d="M3.14648 2.36298C3.20848 3.50798 4.33748 4.24998 5.44348 3.90698C9.59348 2.62098 14.0655 4.08498 16.1535 7.70198C18.2415 11.319 17.2735 15.924 14.0845 18.875C13.2345 19.661 13.3125 21.01 14.2725 21.637" stroke="#161924" stroke-width="1.5" stroke-linecap="round"/>
<path fill-rule="evenodd" clip-rule="evenodd" d="M20.6165 7.70595C21.9475 6.93695 22.1765 4.83295 21.9135 4.37695C21.6505 3.92195 19.7135 3.06695 18.3825 3.83595C17.8775 4.12795 17.6345 4.86795 17.9555 5.42395C18.1285 5.72295 18.4095 5.92995 18.7185 6.00195C18.8695 6.03695 18.9535 6.18295 18.9085 6.33095C18.8165 6.63395 18.8565 6.98195 19.0285 7.28195C19.3485 7.83795 20.1115 7.99795 20.6165 7.70595V7.70595Z" stroke="#161924" stroke-width="1.5" stroke-linecap="round" stroke-linejoin="round"/>
<path fill-rule="evenodd" clip-rule="evenodd" d="M4.19819 17.174L8.03419 14.96L8.44419 12.153L5.82819 11.094L1.99219 13.309L4.60819 14.368L4.19819 17.174Z" stroke="#161924" stroke-width="1.5" stroke-linecap="round" stroke-linejoin="round"/>
<path d="M18.8904 6.12L8.44043 12.15" stroke="#161924" stroke-width="1.5" stroke-linecap="round"/>
<path d="M4.44043 3.91998V11.9" stroke="#161924" stroke-width="1.5" stroke-linecap="round"/>
<path d="M13.5599 19.78L6.66992 15.75" stroke="#161924" stroke-width="1.5" stroke-linecap="round"/>
</svg>
