<svg width="24" height="24" viewBox="0 0 24 24" fill="none" xmlns="http://www.w3.org/2000/svg">
<path d="M8.9519 3.95601C9.9019 3.59601 10.9279 3.39001 12.0029 3.39001C16.0299 3.39001 19.4009 6.15701 20.3459 9.89001" stroke="#161924" stroke-width="1.5" stroke-linecap="round" stroke-linejoin="round"/>
<path d="M6.55796 18.6701C5.77196 18.0281 5.07996 17.2431 4.54196 16.3111C2.52896 12.8241 3.23996 8.52106 5.99996 5.83606" stroke="#161924" stroke-width="1.5" stroke-linecap="round" stroke-linejoin="round"/>
<path d="M20.498 13.386C20.335 14.388 20.001 15.379 19.463 16.311C17.449 19.798 13.367 21.335 9.66199 20.285" stroke="#161924" stroke-width="1.5" stroke-linecap="round" stroke-linejoin="round"/>
<path fill-rule="evenodd" clip-rule="evenodd" d="M10.586 13.414C11.367 14.195 12.633 14.195 13.414 13.414C14.195 12.633 14.195 11.367 13.414 10.585C12.633 9.80402 11.367 9.80402 10.586 10.585C9.80499 11.367 9.80499 12.633 10.586 13.414Z" stroke="#161924" stroke-width="1.5" stroke-linecap="round" stroke-linejoin="round"/>
<path d="M12 7.70998V6.99998" stroke="#161924" stroke-width="1.5" stroke-linecap="round" stroke-linejoin="round"/>
<path d="M12 16.29V17" stroke="#161924" stroke-width="1.5" stroke-linecap="round" stroke-linejoin="round"/>
<path d="M15.5399 8.45997L15.0299 8.96997" stroke="#161924" stroke-width="1.5" stroke-linecap="round" stroke-linejoin="round"/>
<path d="M8.96997 15.03L8.45997 15.54" stroke="#161924" stroke-width="1.5" stroke-linecap="round" stroke-linejoin="round"/>
<path d="M8.45997 8.45997L8.96997 8.96997" stroke="#161924" stroke-width="1.5" stroke-linecap="round" stroke-linejoin="round"/>
<path d="M15.0299 15.03L15.5399 15.54" stroke="#161924" stroke-width="1.5" stroke-linecap="round" stroke-linejoin="round"/>
<path d="M7.70998 12H6.99998" stroke="#161924" stroke-width="1.5" stroke-linecap="round" stroke-linejoin="round"/>
<path d="M17 12H16.29" stroke="#161924" stroke-width="1.5" stroke-linecap="round" stroke-linejoin="round"/>
</svg>
