<svg width="24" height="24" viewBox="0 0 24 24" fill="none" xmlns="http://www.w3.org/2000/svg">
<path d="M10 11V12C10 13.657 11.343 15 13 15H15C16.657 15 18 13.657 18 12V5C18 3.343 16.657 2 15 2H13C11.343 2 10 3.343 10 5V5" stroke="#161924" stroke-width="1.5" stroke-linecap="round" stroke-linejoin="round"/>
<path d="M22.182 16.109L20.895 15.472" stroke="#161924" stroke-width="1.5" stroke-linecap="round" stroke-linejoin="round"/>
<path d="M19.478 18.644L18.958 17.11" stroke="#161924" stroke-width="1.5" stroke-linecap="round" stroke-linejoin="round"/>
<path d="M22.455 12.4551L21.025 12.9361" stroke="#161924" stroke-width="1.5" stroke-linecap="round" stroke-linejoin="round"/>
<path d="M14 12V11C14 9.343 12.657 8 11 8H9C7.343 8 6 9.343 6 11V18C6 19.657 7.343 21 9 21H11C12.657 21 14 19.657 14 18V18" stroke="#161924" stroke-width="1.5" stroke-linecap="round" stroke-linejoin="round"/>
<path d="M1.81799 6.89097L3.10499 7.52797" stroke="#161924" stroke-width="1.5" stroke-linecap="round" stroke-linejoin="round"/>
<path d="M4.52198 4.35596L5.04198 5.88996" stroke="#161924" stroke-width="1.5" stroke-linecap="round" stroke-linejoin="round"/>
<path d="M1.54498 10.5449L2.97498 10.0639" stroke="#161924" stroke-width="1.5" stroke-linecap="round" stroke-linejoin="round"/>
</svg>
