<svg width="24" height="24" viewBox="0 0 24 24" fill="none" xmlns="http://www.w3.org/2000/svg">
<path d="M18.43 14.5699H21" stroke="#161924" stroke-width="1.5" stroke-linecap="round" stroke-linejoin="round"/>
<path d="M14.57 21.0001V18.4301" stroke="#161924" stroke-width="1.5" stroke-linecap="round" stroke-linejoin="round"/>
<path d="M19.39 19.39L17.46 17.46" stroke="#161924" stroke-width="1.5" stroke-linecap="round" stroke-linejoin="round"/>
<path d="M5.57 9.43005H3" stroke="#161924" stroke-width="1.5" stroke-linecap="round" stroke-linejoin="round"/>
<path d="M9.42999 3V5.57" stroke="#161924" stroke-width="1.5" stroke-linecap="round" stroke-linejoin="round"/>
<path d="M4.60999 4.60999L6.53999 6.53999" stroke="#161924" stroke-width="1.5" stroke-linecap="round" stroke-linejoin="round"/>
<path d="M12.643 16.0131L10.51 18.1461C9.24601 19.4101 7.19601 19.4101 5.93201 18.1461V18.1461C4.66801 16.8821 4.66801 14.8321 5.93201 13.5681L8.06501 11.4351" stroke="#161924" stroke-width="1.5" stroke-linecap="round" stroke-linejoin="round"/>
<path d="M11.412 8.00996L13.545 5.87696C14.809 4.61296 16.859 4.61296 18.123 5.87696V5.87696C19.387 7.14096 19.387 9.19096 18.123 10.455L15.99 12.588" stroke="#161924" stroke-width="1.5" stroke-linecap="round" stroke-linejoin="round"/>
</svg>
