<svg width="24" height="24" viewBox="0 0 24 24" fill="none" xmlns="http://www.w3.org/2000/svg">
<path d="M2.99609 7.99838H21.0036" stroke="#161924" stroke-width="1.5" stroke-linecap="round" stroke-linejoin="round"/>
<path d="M10.8654 5.49228L10.8604 5.49728L10.8654 5.50228L10.8704 5.49728L10.8654 5.49228" stroke="#161924" stroke-width="1.5" stroke-linecap="round" stroke-linejoin="round"/>
<path d="M8.3254 5.49228L8.3204 5.49728L8.3254 5.50228L8.33041 5.49728L8.3254 5.49228" stroke="#161924" stroke-width="1.5" stroke-linecap="round" stroke-linejoin="round"/>
<path d="M5.77658 5.48727L5.77157 5.49227L5.77658 5.49728L5.78158 5.49227L5.77658 5.48727" stroke="#161924" stroke-width="1.5" stroke-linecap="round" stroke-linejoin="round"/>
<path d="M10.9994 21.0037H4.99693C4.46642 21.0037 3.95758 20.7933 3.58235 20.4182C3.20712 20.0432 2.99609 19.5345 2.99609 19.004V4.99705C2.99609 4.46654 3.20655 3.9577 3.58157 3.58247C3.95659 3.20724 4.46532 2.99622 4.99583 2.99622H19.0028C19.5333 2.99622 20.0421 3.20667 20.4173 3.58169C20.7926 3.95672 21.0036 4.46544 21.0036 4.99595V12" stroke="#161924" stroke-width="1.5" stroke-linecap="round" stroke-linejoin="round"/>
<path d="M13.001 14.0009H14.2595L15.2609 19.0029H20.308L21.0043 15.5015H14.5596" stroke="#161924" stroke-width="1.5" stroke-linecap="round" stroke-linejoin="round"/>
<path d="M19.8316 21.4187C19.851 21.4383 19.851 21.4699 19.8314 21.4894C19.8119 21.5089 19.7802 21.5088 19.7607 21.4893C19.7412 21.4698 19.7412 21.4382 19.7607 21.4186C19.7801 21.3991 19.8117 21.399 19.8313 21.4184L19.8316 21.4187" stroke="#161924" stroke-width="1.5" stroke-linecap="round" stroke-linejoin="round"/>
<path d="M15.8013 21.4187C15.8208 21.4383 15.8207 21.4699 15.8011 21.4894C15.7816 21.5089 15.75 21.5088 15.7305 21.4893C15.711 21.4698 15.7109 21.4382 15.7304 21.4186C15.7499 21.3991 15.7815 21.399 15.8011 21.4184L15.8013 21.4187" stroke="#161924" stroke-width="1.5" stroke-linecap="round" stroke-linejoin="round"/>
</svg>
