<svg width="24" height="24" viewBox="0 0 24 24" fill="none" xmlns="http://www.w3.org/2000/svg">
<path d="M2.99658 7.99838H21.0041" stroke="#161924" stroke-width="1.5" stroke-linecap="round" stroke-linejoin="round"/>
<path d="M14.0012 21.0037V16.5018" stroke="#161924" stroke-width="1.5" stroke-linecap="round" stroke-linejoin="round"/>
<path d="M17.0022 21.0037V16.5018" stroke="#161924" stroke-width="1.5" stroke-linecap="round" stroke-linejoin="round"/>
<path d="M20.0036 21.0037V16.5018" stroke="#161924" stroke-width="1.5" stroke-linecap="round" stroke-linejoin="round"/>
<path d="M13.0005 21.0037H21.0038" stroke="#161924" stroke-width="1.5" stroke-linecap="round" stroke-linejoin="round"/>
<path fill-rule="evenodd" clip-rule="evenodd" d="M13.0005 14.6511V16.5018H21.0038V14.6511L17.0022 13.0004L13.0005 14.6511Z" stroke="#161924" stroke-width="1.5" stroke-linecap="round" stroke-linejoin="round"/>
<path d="M10.8654 5.49228L10.8604 5.49728L10.8654 5.50228L10.8704 5.49728L10.8654 5.49228" stroke="#161924" stroke-width="1.5" stroke-linecap="round" stroke-linejoin="round"/>
<path d="M8.3254 5.49228L8.3204 5.49728L8.3254 5.50228L8.33041 5.49728L8.3254 5.49228" stroke="#161924" stroke-width="1.5" stroke-linecap="round" stroke-linejoin="round"/>
<path d="M5.77658 5.48727L5.77157 5.49227L5.77658 5.49728L5.78158 5.49227L5.77658 5.48727" stroke="#161924" stroke-width="1.5" stroke-linecap="round" stroke-linejoin="round"/>
<path d="M9.9995 21.0037H4.99742C4.46691 21.0037 3.95807 20.7933 3.58284 20.4182C3.20761 20.0432 2.99658 19.5345 2.99658 19.004V4.99705C2.99658 4.46654 3.20704 3.9577 3.58206 3.58247C3.95708 3.20724 4.46581 2.99622 4.99632 2.99622H19.0032C19.5338 2.99622 20.0426 3.20667 20.4178 3.58169C20.7931 3.95672 21.0041 4.46544 21.0041 4.99595V10.9995" stroke="#161924" stroke-width="1.5" stroke-linecap="round" stroke-linejoin="round"/>
</svg>
