<svg width="24" height="24" viewBox="0 0 24 24" fill="none" xmlns="http://www.w3.org/2000/svg">
<path d="M16.0017 2.99634C18.7642 2.99634 21.0037 5.23585 21.0037 7.99842" stroke="#161924" stroke-width="1.5" stroke-linecap="round" stroke-linejoin="round"/>
<path d="M16.0017 5.99756C17.1067 5.99756 18.0025 6.89336 18.0025 7.99839" stroke="#161924" stroke-width="1.5" stroke-linecap="round" stroke-linejoin="round"/>
<path d="M12 2.99634H7.99833C5.23576 2.99634 2.99625 5.23585 2.99625 7.99842V16.0018C2.99625 18.7643 5.23576 21.0038 7.99833 21.0038H16.0017C18.7642 21.0038 21.0037 18.7643 21.0037 16.0018V12.0001" stroke="#161924" stroke-width="1.5" stroke-linecap="round" stroke-linejoin="round"/>
<path d="M2.99625 8.99878H13.0004C13.5311 8.99863 14.0401 9.20939 14.4154 9.58465C14.7906 9.95991 15.0014 10.4689 15.0012 10.9996V21.0038" stroke="#161924" stroke-width="1.5" stroke-linecap="round" stroke-linejoin="round"/>
<path d="M2.99625 14.0009H15.0012" stroke="#161924" stroke-width="1.5" stroke-linecap="round" stroke-linejoin="round"/>
<path d="M11.995 11.4898L11.99 11.4948L11.995 11.4998L12 11.4948L11.995 11.4898" stroke="#161924" stroke-width="1.5" stroke-linecap="round" stroke-linejoin="round"/>
<path d="M9.45094 11.4898L9.44594 11.4948L9.45094 11.4998L9.45594 11.4948L9.45094 11.4898" stroke="#161924" stroke-width="1.5" stroke-linecap="round" stroke-linejoin="round"/>
<path d="M6.90988 11.4898L6.90487 11.4948L6.90988 11.4998L6.91488 11.4948L6.90988 11.4898" stroke="#161924" stroke-width="1.5" stroke-linecap="round" stroke-linejoin="round"/>
</svg>
