<svg width="24" height="24" viewBox="0 0 24 24" fill="none" xmlns="http://www.w3.org/2000/svg">
<path fill-rule="evenodd" clip-rule="evenodd" d="M21.0043 12.0001V20.0034C21.0043 20.5559 20.5564 21.0038 20.0039 21.0038H14.0014C13.4489 21.0038 13.001 20.5559 13.001 20.0034V12.0001C13.001 11.4475 13.4489 10.9996 14.0014 10.9996H20.0039C20.5564 10.9996 21.0043 11.4475 21.0043 12.0001Z" stroke="#161924" stroke-width="1.5" stroke-linecap="round" stroke-linejoin="round"/>
<path d="M21.0043 14.0008H13.001" stroke="#161924" stroke-width="1.5" stroke-linecap="round" stroke-linejoin="round"/>
<path d="M9.99901 19.0029H4.99693C3.8919 19.0029 2.99609 18.1071 2.99609 17.002V4.99705C2.99609 3.89202 3.8919 2.99622 4.99693 2.99622H17.0019C18.107 2.99622 19.0028 3.89202 19.0028 4.99705V7.9983" stroke="#161924" stroke-width="1.5" stroke-linecap="round" stroke-linejoin="round"/>
<path d="M2.99609 6.99789H19.0028" stroke="#161924" stroke-width="1.5" stroke-linecap="round" stroke-linejoin="round"/>
<path d="M5.99805 10.9996H8.9993" stroke="#161924" stroke-width="1.5" stroke-linecap="round" stroke-linejoin="round"/>
<path d="M5.99805 14.0008H6.99846" stroke="#161924" stroke-width="1.5" stroke-linecap="round" stroke-linejoin="round"/>
<path d="M15.8022 16.2519C15.8021 16.2795 15.7798 16.3018 15.7521 16.3018C15.7245 16.3018 15.7022 16.2794 15.7021 16.2518C15.7021 16.2242 15.7245 16.2018 15.7521 16.2018C15.7654 16.2018 15.7781 16.207 15.7875 16.2164C15.7969 16.2258 15.8022 16.2386 15.8022 16.2519" stroke="#161924" stroke-width="1.5" stroke-linecap="round" stroke-linejoin="round"/>
<path d="M18.3032 16.2519C18.3031 16.2795 18.2807 16.3018 18.2531 16.3018C18.2255 16.3018 18.2031 16.2794 18.2031 16.2518C18.2031 16.2242 18.2255 16.2018 18.2531 16.2018C18.2664 16.2018 18.2791 16.207 18.2885 16.2164C18.2979 16.2258 18.3032 16.2386 18.3032 16.2519" stroke="#161924" stroke-width="1.5" stroke-linecap="round" stroke-linejoin="round"/>
<path d="M18.3032 18.7528C18.3031 18.7804 18.2807 18.8028 18.2531 18.8028C18.2255 18.8028 18.2031 18.7804 18.2031 18.7528C18.2031 18.7252 18.2255 18.7028 18.2531 18.7028C18.2664 18.7027 18.2791 18.708 18.2885 18.7174C18.2979 18.7268 18.3032 18.7395 18.3032 18.7528" stroke="#161924" stroke-width="1.5" stroke-linecap="round" stroke-linejoin="round"/>
<path d="M15.8022 18.7528C15.8021 18.7804 15.7798 18.8028 15.7521 18.8028C15.7245 18.8028 15.7022 18.7804 15.7021 18.7528C15.7021 18.7252 15.7245 18.7028 15.7521 18.7028C15.7654 18.7027 15.7781 18.708 15.7875 18.7174C15.7969 18.7268 15.8022 18.7395 15.8022 18.7528" stroke="#161924" stroke-width="1.5" stroke-linecap="round" stroke-linejoin="round"/>
</svg>
