<svg width="24" height="24" viewBox="0 0 24 24" fill="none" xmlns="http://www.w3.org/2000/svg">
<path d="M7 14H9" stroke="#161924" stroke-width="1.5" stroke-linecap="round" stroke-linejoin="round"/>
<path d="M8 17H9" stroke="#161924" stroke-width="1.5" stroke-linecap="round" stroke-linejoin="round"/>
<path d="M3 8H21" stroke="#161924" stroke-width="1.5" stroke-linecap="round" stroke-linejoin="round"/>
<path d="M11 5.5L10.995 5.505L11 5.51L11.005 5.505L11 5.5" stroke="#161924" stroke-width="1.5" stroke-linecap="round" stroke-linejoin="round"/>
<path d="M8.5 5.5L8.495 5.505L8.5 5.51L8.505 5.505L8.5 5.5" stroke="#161924" stroke-width="1.5" stroke-linecap="round" stroke-linejoin="round"/>
<path d="M6 5.5L5.995 5.505L6 5.51L6.005 5.505L6 5.5" stroke="#161924" stroke-width="1.5" stroke-linecap="round" stroke-linejoin="round"/>
<path d="M9 21H5C4.46952 21.0001 3.96073 20.7895 3.58563 20.4144C3.21052 20.0393 2.99985 19.5305 3 19V5C2.99985 4.46952 3.21052 3.96073 3.58563 3.58563C3.96073 3.21052 4.46952 2.99985 5 3H19C19.5305 2.99985 20.0393 3.21052 20.4144 3.58563C20.7895 3.96073 21.0001 4.46952 21 5V10" stroke="#161924" stroke-width="1.5" stroke-linecap="round" stroke-linejoin="round"/>
<path fill-rule="evenodd" clip-rule="evenodd" d="M12 15V19C12 20.1046 12.8954 21 14 21H20C21.1046 21 22 20.1046 22 19V15C22 13.8954 21.1046 13 20 13H14C12.8954 13 12 13.8954 12 15Z" stroke="#161924" stroke-width="1.5" stroke-linecap="round" stroke-linejoin="round"/>
<path d="M14.75 16L16.5556 16.8958C16.8356 17.0348 17.1645 17.0348 17.4445 16.8958L19.25 16" stroke="#161924" stroke-width="1.5" stroke-linecap="round" stroke-linejoin="round"/>
</svg>
