<svg width="24" height="24" viewBox="0 0 24 24" fill="none" xmlns="http://www.w3.org/2000/svg">
<path d="M2.99609 7.99832H21.0036" stroke="#161924" stroke-width="1.5" stroke-linecap="round" stroke-linejoin="round"/>
<path d="M10.9943 5.48727L10.9893 5.49227L10.9943 5.49728L10.9994 5.49227L10.9943 5.48727" stroke="#161924" stroke-width="1.5" stroke-linecap="round" stroke-linejoin="round"/>
<path d="M8.49337 5.48727L8.48837 5.49227L8.49337 5.49728L8.49837 5.49227L8.49337 5.48727" stroke="#161924" stroke-width="1.5" stroke-linecap="round" stroke-linejoin="round"/>
<path d="M5.9924 5.48727L5.98739 5.49227L5.9924 5.49728L5.9974 5.49227L5.9924 5.48727" stroke="#161924" stroke-width="1.5" stroke-linecap="round" stroke-linejoin="round"/>
<path d="M8.99859 20.0033H4.99693C4.46623 20.0033 3.95722 19.7927 3.58196 19.4174C3.2067 19.0422 2.99609 18.5332 2.99609 18.0025V4.99705C2.99609 4.46635 3.2067 3.95735 3.58196 3.58209C3.95722 3.20682 4.46623 2.99622 4.99693 2.99622H19.0028C19.5335 2.99622 20.0425 3.20682 20.4177 3.58209C20.793 3.95735 21.0036 4.46635 21.0036 4.99705V10.9995" stroke="#161924" stroke-width="1.5" stroke-linecap="round" stroke-linejoin="round"/>
<path fill-rule="evenodd" clip-rule="evenodd" d="M12 16.0017V20.0034C12 21.1084 12.8958 22.0042 14.0008 22.0042H20.0033C21.1084 22.0042 22.0042 21.1084 22.0042 20.0034V16.0017C22.0042 14.8967 21.1084 14.0009 20.0033 14.0009H14.0008C12.8958 14.0009 12 14.8967 12 16.0017Z" stroke="#161924" stroke-width="1.5" stroke-linecap="round" stroke-linejoin="round"/>
<path d="M14.7637 17.0021L16.51 17.8844C16.828 18.0419 17.2013 18.0419 17.5193 17.8844L19.2655 17.0021" stroke="#161924" stroke-width="1.5" stroke-linecap="round" stroke-linejoin="round"/>
</svg>
