<svg width="24" height="24" viewBox="0 0 24 24" fill="none" xmlns="http://www.w3.org/2000/svg">
<path d="M2.99609 7.99838H21.0036" stroke="#161924" stroke-width="1.5" stroke-linecap="round" stroke-linejoin="round"/>
<path d="M10.8654 5.49228L10.8604 5.49728L10.8654 5.50228L10.8704 5.49728L10.8654 5.49228" stroke="#161924" stroke-width="1.5" stroke-linecap="round" stroke-linejoin="round"/>
<path d="M8.3254 5.49228L8.3204 5.49728L8.3254 5.50228L8.33041 5.49728L8.3254 5.49228" stroke="#161924" stroke-width="1.5" stroke-linecap="round" stroke-linejoin="round"/>
<path d="M5.77658 5.48727L5.77157 5.49227L5.77658 5.49728L5.78158 5.49227L5.77658 5.48727" stroke="#161924" stroke-width="1.5" stroke-linecap="round" stroke-linejoin="round"/>
<path d="M6.99776 21.0037H4.99693C4.46642 21.0037 3.95758 20.7933 3.58235 20.4182C3.20712 20.0432 2.99609 19.5345 2.99609 19.004V4.99705C2.99609 4.46654 3.20655 3.9577 3.58157 3.58247C3.95659 3.20724 4.46532 2.99622 4.99583 2.99622H19.0028C19.5333 2.99622 20.0421 3.20667 20.4173 3.58169C20.7926 3.95672 21.0036 4.46544 21.0036 4.99595V9.99913" stroke="#161924" stroke-width="1.5" stroke-linecap="round" stroke-linejoin="round"/>
<path d="M14.001 16.0017C14.001 17.1067 14.8968 18.0025 16.0018 18.0025C17.1068 18.0025 18.0026 17.1067 18.0026 16.0017" stroke="#161924" stroke-width="1.5" stroke-linecap="round" stroke-linejoin="round"/>
<rect x="9.99902" y="13.0004" width="12.005" height="9.00375" rx="1.5" stroke="#161924" stroke-width="1.5" stroke-linecap="round" stroke-linejoin="round"/>
</svg>
