<svg width="24" height="24" viewBox="0 0 24 24" fill="none" xmlns="http://www.w3.org/2000/svg">
<path fill-rule="evenodd" clip-rule="evenodd" d="M3.99666 3.99683H14.0008C14.5533 3.99683 15.0012 4.44473 15.0012 4.99724V20.0035H3.99666C3.44415 20.0035 2.99625 19.5556 2.99625 19.0031V4.99724C2.99625 4.44473 3.44415 3.99683 3.99666 3.99683Z" stroke="#161924" stroke-width="1.5" stroke-linecap="round" stroke-linejoin="round"/>
<path fill-rule="evenodd" clip-rule="evenodd" d="M15.0013 7.99854H20.0033C20.5558 7.99854 21.0038 8.44644 21.0038 8.99895V19.0031C21.0038 19.5556 20.5558 20.0035 20.0033 20.0035H15.0013V7.99854Z" stroke="#161924" stroke-width="1.5" stroke-linecap="round" stroke-linejoin="round"/>
<path d="M6.99792 7.87345C6.92886 7.87345 6.87287 7.92943 6.87287 7.9985C6.87287 8.06756 6.92886 8.12355 6.99792 8.12355C7.06698 8.12355 7.12297 8.06756 7.12297 7.9985C7.12297 7.92943 7.06698 7.87345 6.99792 7.87345" stroke="#161924" stroke-width="1.5" stroke-linecap="round" stroke-linejoin="round"/>
<path d="M10.9996 7.87345C10.9305 7.87345 10.8745 7.92943 10.8745 7.9985C10.8745 8.06756 10.9305 8.12355 10.9996 8.12355C11.0686 8.12355 11.1246 8.06756 11.1246 7.9985C11.1246 7.92943 11.0686 7.87345 10.9996 7.87345" stroke="#161924" stroke-width="1.5" stroke-linecap="round" stroke-linejoin="round"/>
<path d="M6.99792 11.8752C6.92886 11.8752 6.87287 11.9311 6.87287 12.0002C6.87287 12.0693 6.92886 12.1253 6.99792 12.1253C7.06698 12.1253 7.12297 12.0693 7.12297 12.0002C7.12297 11.9311 7.06698 11.8752 6.99792 11.8752" stroke="#161924" stroke-width="1.5" stroke-linecap="round" stroke-linejoin="round"/>
<path d="M10.9996 11.8752C10.9305 11.8752 10.8745 11.9311 10.8745 12.0002C10.8745 12.0693 10.9305 12.1253 10.9996 12.1253C11.0686 12.1253 11.1246 12.0693 11.1246 12.0002C11.1246 11.9311 11.0686 11.8752 10.9996 11.8752" stroke="#161924" stroke-width="1.5" stroke-linecap="round" stroke-linejoin="round"/>
<path d="M6.99792 15.8766C6.92886 15.8766 6.87287 15.9326 6.87287 16.0017C6.87287 16.0707 6.92886 16.1267 6.99792 16.1267C7.06698 16.1267 7.12297 16.0707 7.12297 16.0017C7.12297 15.9326 7.06698 15.8766 6.99792 15.8766" stroke="#161924" stroke-width="1.5" stroke-linecap="round" stroke-linejoin="round"/>
<path d="M10.9996 15.8766C10.9305 15.8766 10.8745 15.9326 10.8745 16.0017C10.8745 16.0707 10.9305 16.1267 10.9996 16.1267C11.0686 16.1267 11.1246 16.0707 11.1246 16.0017C11.1246 15.9326 11.0686 15.8766 10.9996 15.8766" stroke="#161924" stroke-width="1.5" stroke-linecap="round" stroke-linejoin="round"/>
<path d="M18.0025 11.8752C17.9334 11.8752 17.8774 11.9311 17.8774 12.0002C17.8774 12.0693 17.9334 12.1253 18.0025 12.1253C18.0716 12.1253 18.1275 12.0693 18.1275 12.0002C18.1275 11.9311 18.0716 11.8752 18.0025 11.8752" stroke="#161924" stroke-width="1.5" stroke-linecap="round" stroke-linejoin="round"/>
<path d="M18.0025 15.8766C17.9334 15.8766 17.8774 15.9326 17.8774 16.0017C17.8774 16.0707 17.9334 16.1267 18.0025 16.1267C18.0716 16.1267 18.1275 16.0707 18.1275 16.0017C18.1275 15.9326 18.0716 15.8766 18.0025 15.8766" stroke="#161924" stroke-width="1.5" stroke-linecap="round" stroke-linejoin="round"/>
</svg>
