<svg width="24" height="24" viewBox="0 0 24 24" fill="none" xmlns="http://www.w3.org/2000/svg">
<path d="M8.99875 6.43673H20.0033" stroke="#161924" stroke-width="1.5" stroke-linecap="round" stroke-linejoin="round"/>
<path d="M20.0033 12.0002H8.99875" stroke="#161924" stroke-width="1.5" stroke-linecap="round" stroke-linejoin="round"/>
<path d="M8.99875 17.5634H20.0033" stroke="#161924" stroke-width="1.5" stroke-linecap="round" stroke-linejoin="round"/>
<path d="M4.49688 5.93652C4.22062 5.93652 3.99667 6.16047 3.99667 6.43673C3.99667 6.71299 4.22062 6.93694 4.49688 6.93694C4.77314 6.93694 4.99709 6.71299 4.99709 6.43673C4.99709 6.16047 4.77314 5.93652 4.49688 5.93652" stroke="#161924" stroke-width="1.5" stroke-linecap="round" stroke-linejoin="round"/>
<path d="M4.49688 11.5C4.22062 11.5 3.99667 11.724 3.99667 12.0002C3.99667 12.2765 4.22062 12.5004 4.49688 12.5004C4.77314 12.5004 4.99709 12.2765 4.99709 12.0002C4.99709 11.724 4.77314 11.5 4.49688 11.5" stroke="#161924" stroke-width="1.5" stroke-linecap="round" stroke-linejoin="round"/>
<path d="M4.49688 17.0632C4.22062 17.0632 3.99667 17.2872 3.99667 17.5634C3.99667 17.8397 4.22062 18.0636 4.49688 18.0636C4.77314 18.0636 4.99709 17.8397 4.99709 17.5634C4.99709 17.2872 4.77314 17.0632 4.49688 17.0632" stroke="#161924" stroke-width="1.5" stroke-linecap="round" stroke-linejoin="round"/>
</svg>
