<svg width="24" height="24" viewBox="0 0 24 24" fill="none" xmlns="http://www.w3.org/2000/svg">
<path fill-rule="evenodd" clip-rule="evenodd" d="M2.99651 16.0016H21.004C21.5565 16.0016 22.0044 16.4495 22.0044 17.0021V18.0025C22.0044 19.1075 21.1086 20.0033 20.0036 20.0033H3.99693C2.8919 20.0033 1.99609 19.1075 1.99609 18.0025V17.0021C1.99609 16.4495 2.444 16.0016 2.99651 16.0016Z" stroke="#161924" stroke-width="1.5" stroke-linecap="round" stroke-linejoin="round"/>
<path fill-rule="evenodd" clip-rule="evenodd" d="M12.0003 9.99916H3.10768C2.52506 10.0282 2.02839 9.58119 1.99609 8.99875C1.99609 5.68368 6.4751 2.99625 12.0003 2.99625C17.5254 2.99625 22.0044 5.68368 22.0044 8.99875C21.9721 9.58119 21.4755 10.0282 20.8929 9.99916H12.0003Z" stroke="#161924" stroke-width="1.5" stroke-linecap="round" stroke-linejoin="round"/>
<path d="M2.49609 13.0004C3.71393 12.5002 5.07985 12.5002 6.29768 13.0004C7.51551 13.5006 8.88143 13.5006 10.0993 13.0004C11.3171 12.5002 12.683 12.5002 13.9008 13.0004C15.1187 13.5006 16.4846 13.5006 17.7024 13.0004C18.9203 12.5002 20.2862 12.5002 21.504 13.0004" stroke="#161924" stroke-width="1.5" stroke-linecap="round" stroke-linejoin="round"/>
</svg>
