<svg width="24" height="24" viewBox="0 0 24 24" fill="none" xmlns="http://www.w3.org/2000/svg">
<path fill-rule="evenodd" clip-rule="evenodd" d="M3.997 16.0016H20.0037C20.5562 16.0016 21.0041 16.4495 21.0041 17.0021V18.0025C21.0041 19.1075 20.1083 20.0033 19.0032 20.0033H4.99742C3.89239 20.0033 2.99658 19.1075 2.99658 18.0025V17.0021C2.99658 16.4495 3.44448 16.0016 3.997 16.0016Z" stroke="#161924" stroke-width="1.5" stroke-linecap="round" stroke-linejoin="round"/>
<path d="M21.0041 13.0004H2.99658" stroke="#161924" stroke-width="1.5" stroke-linecap="round" stroke-linejoin="round"/>
<path fill-rule="evenodd" clip-rule="evenodd" d="M12.0003 9.99916H3.997C3.44448 9.99916 2.99658 9.55126 2.99658 8.99875C2.99658 5.68365 7.02768 2.99625 12.0003 2.99625C16.973 2.99625 21.0041 5.68365 21.0041 8.99875C21.0041 9.55126 20.5562 9.99916 20.0037 9.99916H12.0003Z" stroke="#161924" stroke-width="1.5" stroke-linecap="round" stroke-linejoin="round"/>
</svg>
