<svg width="24" height="24" viewBox="0 0 24 24" fill="none" xmlns="http://www.w3.org/2000/svg">
<path fill-rule="evenodd" clip-rule="evenodd" d="M10.9999 1.99582H16.002C16.5544 1.99602 17.0022 2.4438 17.0024 2.99624V5.99749H9.99951V2.99624C9.99971 2.4438 10.4475 1.99602 10.9999 1.99582Z" stroke="#161924" stroke-width="1.5" stroke-linecap="round" stroke-linejoin="round"/>
<path d="M2.99658 15.0012V14.0008C2.99658 13.2048 3.31272 12.4414 3.87557 11.8786C4.43843 11.3157 5.20184 10.9995 5.99783 10.9996H9.9995C10.7955 10.9995 11.5589 11.3157 12.1218 11.8786C12.6846 12.4414 13.0007 13.2048 13.0007 14.0008V15.0012" stroke="#161924" stroke-width="1.5" stroke-linecap="round" stroke-linejoin="round"/>
<path fill-rule="evenodd" clip-rule="evenodd" d="M13.0007 19.0029V18.0025H2.99658V19.0029C2.99644 19.5336 3.20719 20.0426 3.58245 20.4179C3.95771 20.7931 4.46672 21.0039 4.99742 21.0038H10.9999C11.5306 21.0039 12.0396 20.7931 12.4149 20.4179C12.7901 20.0426 13.0009 19.5336 13.0007 19.0029V19.0029Z" stroke="#161924" stroke-width="1.5" stroke-linecap="round" stroke-linejoin="round"/>
<path d="M14.0011 15.0012H1.99609" stroke="#161924" stroke-width="1.5" stroke-linecap="round" stroke-linejoin="round"/>
<path d="M5.99756 7.99833V7.49812C5.99756 6.66935 6.66941 5.9975 7.49818 5.9975H19.5032C20.332 5.9975 21.0038 6.66935 21.0038 7.49812V19.5031C21.0038 20.3319 20.332 21.0037 19.5032 21.0037H16.0017" stroke="#161924" stroke-width="1.5" stroke-linecap="round" stroke-linejoin="round"/>
</svg>
