<svg width="24" height="24" viewBox="0 0 24 24" fill="none" xmlns="http://www.w3.org/2000/svg">
<path fill-rule="evenodd" clip-rule="evenodd" d="M14.22 2.335C17.498 2.828 20.09 5.419 20.582 8.697C20.672 9.296 20.19 9.833 19.584 9.833H14.083C13.531 9.833 13.083 9.385 13.083 8.833V3.332C13.083 2.726 13.621 2.245 14.22 2.335V2.335Z" stroke="#161924" stroke-width="1.5" stroke-linecap="round" stroke-linejoin="round"/>
<path fill-rule="evenodd" clip-rule="evenodd" d="M19.1841 17.589C19.9031 16.618 20.3951 15.469 20.5821 14.22C20.6721 13.621 20.1901 13.084 19.5841 13.084H15.4971C14.6061 13.084 14.1601 14.161 14.7901 14.791L17.6811 17.682C18.1071 18.107 18.8251 18.073 19.1841 17.589V17.589Z" stroke="#161924" stroke-width="1.5" stroke-linecap="round" stroke-linejoin="round"/>
<path fill-rule="evenodd" clip-rule="evenodd" d="M8.70896 6.666C4.57596 7.28 1.53096 11.229 2.39796 15.688C2.97496 18.655 5.37296 21.042 8.34196 21.607C10.593 22.035 12.711 21.468 14.334 20.269C14.82 19.91 14.857 19.19 14.43 18.763L10.126 14.459C9.93796 14.271 9.83296 14.017 9.83296 13.752V7.662C9.83296 7.061 9.30396 6.578 8.70896 6.666V6.666Z" stroke="#161924" stroke-width="1.5" stroke-linecap="round" stroke-linejoin="round"/>
</svg>
