<svg width="24" height="24" viewBox="0 0 24 24" fill="none" xmlns="http://www.w3.org/2000/svg">
<path d="M20 12V20" stroke="#161924" stroke-width="1.5" stroke-linecap="round" stroke-linejoin="round"/>
<path d="M14.7 14.67V20" stroke="#161924" stroke-width="1.5" stroke-linecap="round" stroke-linejoin="round"/>
<path d="M4 17V20" stroke="#161924" stroke-width="1.5" stroke-linecap="round" stroke-linejoin="round"/>
<path d="M9.30005 13.6V20" stroke="#161924" stroke-width="1.5" stroke-linecap="round" stroke-linejoin="round"/>
<path d="M15.9393 8.50857C16.6228 9.19198 16.6228 10.3 15.9393 10.9834C15.2559 11.6669 14.1479 11.6669 13.4645 10.9834C12.781 10.3 12.781 9.19198 13.4645 8.50857C14.1479 7.82515 15.2559 7.82515 15.9393 8.50857" stroke="#161924" stroke-width="1.5" stroke-linecap="round" stroke-linejoin="round"/>
<path d="M21.3424 4.00558C22.0258 4.68899 22.0258 5.79703 21.3424 6.48044C20.659 7.16386 19.551 7.16386 18.8675 6.48044C18.1841 5.79703 18.1841 4.68898 18.8675 4.00558C19.551 3.32216 20.659 3.32216 21.3424 4.00558" stroke="#161924" stroke-width="1.5" stroke-linecap="round" stroke-linejoin="round"/>
<path d="M5.13245 9.40258C5.81587 10.086 5.81587 11.194 5.13245 11.8774C4.44903 12.5609 3.34099 12.5609 2.65758 11.8774C1.97417 11.194 1.97417 10.086 2.65758 9.40258C3.341 8.71916 4.44904 8.71916 5.13245 9.40258" stroke="#161924" stroke-width="1.5" stroke-linecap="round" stroke-linejoin="round"/>
<path d="M10.5365 4.90056C11.2199 5.58398 11.2199 6.69202 10.5365 7.37543C9.85309 8.05885 8.74505 8.05885 8.06164 7.37543C7.37822 6.69202 7.37822 5.58397 8.06164 4.90056C8.74505 4.21715 9.8531 4.21715 10.5365 4.90056" stroke="#161924" stroke-width="1.5" stroke-linecap="round" stroke-linejoin="round"/>
<path d="M18.77 6.36002L16.04 8.63002" stroke="#161924" stroke-width="1.5" stroke-linecap="round" stroke-linejoin="round"/>
<path d="M13.24 8.78002L10.75 7.11002" stroke="#161924" stroke-width="1.5" stroke-linecap="round" stroke-linejoin="round"/>
<path d="M5.23999 9.53001L7.95999 7.26001" stroke="#161924" stroke-width="1.5" stroke-linecap="round" stroke-linejoin="round"/>
</svg>
