<svg width="24" height="24" viewBox="0 0 24 24" fill="none" xmlns="http://www.w3.org/2000/svg">
<path d="M4 16.947V19C4 20.105 4.895 21 6 21H18C19.105 21 20 20.105 20 19V10.744" stroke="#161924" stroke-width="1.5" stroke-linecap="round" stroke-linejoin="round"/>
<path d="M4 13.447V5C4 3.895 4.895 3 6 3H18C19.105 3 20 3.895 20 5V7.244" stroke="#161924" stroke-width="1.5" stroke-linecap="round" stroke-linejoin="round"/>
<path d="M5.23133 13.9596C5.91475 14.643 5.91475 15.751 5.23133 16.4345C4.54791 17.1179 3.43987 17.1179 2.75646 16.4345C2.07304 15.751 2.07304 14.643 2.75646 13.9596C3.43988 13.2762 4.54792 13.2762 5.23133 13.9596" stroke="#161924" stroke-width="1.5" stroke-linecap="round" stroke-linejoin="round"/>
<path fill-rule="evenodd" clip-rule="evenodd" d="M12.949 14.997C12.949 14.031 13.732 13.247 14.699 13.247C15.666 13.247 16.449 14.03 16.449 14.997C16.449 15.964 15.666 16.747 14.699 16.747C13.736 16.751 12.953 15.974 12.949 15.011C12.949 15.006 12.949 15.002 12.949 14.997Z" stroke="#161924" stroke-width="1.5" stroke-linecap="round" stroke-linejoin="round"/>
<path d="M10.6254 7.75655C11.3088 8.43997 11.3088 9.54801 10.6254 10.2314C9.94195 10.9148 8.83391 10.9148 8.1505 10.2314C7.46709 9.548 7.46709 8.43996 8.1505 7.75655C8.83392 7.07313 9.94196 7.07313 10.6254 7.75655" stroke="#161924" stroke-width="1.5" stroke-linecap="round" stroke-linejoin="round"/>
<path d="M21.2433 7.75655C21.9267 8.43997 21.9267 9.54801 21.2433 10.2314C20.5599 10.9148 19.4518 10.9148 18.7684 10.2314C18.085 9.548 18.085 8.43996 18.7684 7.75655C19.4518 7.07313 20.5599 7.07313 21.2433 7.75655" stroke="#161924" stroke-width="1.5" stroke-linecap="round" stroke-linejoin="round"/>
<path d="M18.7899 10.25L15.8899 13.72" stroke="#161924" stroke-width="1.5" stroke-linecap="round" stroke-linejoin="round"/>
<path d="M5.17993 13.91L8.19993 10.27" stroke="#161924" stroke-width="1.5" stroke-linecap="round" stroke-linejoin="round"/>
<path d="M13.5098 13.72L10.5798 10.27" stroke="#161924" stroke-width="1.5" stroke-linecap="round" stroke-linejoin="round"/>
</svg>
