<svg width="24" height="24" viewBox="0 0 24 24" fill="none" xmlns="http://www.w3.org/2000/svg">
<path d="M19.1117 6.50001C18.8817 6.20101 18.6377 5.91001 18.3637 5.63601C14.8487 2.12101 9.1507 2.12101 5.6357 5.63601C5.3617 5.91001 5.1187 6.20101 4.8877 6.50001" stroke="#161924" stroke-width="1.5" stroke-linecap="round" stroke-linejoin="round"/>
<path d="M4.8877 17.5C5.1177 17.799 5.3617 18.09 5.6357 18.364C9.1507 21.879 14.8487 21.879 18.3637 18.364C18.6377 18.09 18.8807 17.799 19.1117 17.5" stroke="#161924" stroke-width="1.5" stroke-linecap="round" stroke-linejoin="round"/>
<path fill-rule="evenodd" clip-rule="evenodd" d="M6.521 14.571H3.5V12.04H6.519C7.218 12.04 7.785 12.607 7.785 13.306V13.306C7.786 14.005 7.219 14.571 6.521 14.571Z" stroke="#161924" stroke-width="1.5" stroke-linecap="round" stroke-linejoin="round"/>
<path d="M3.5 12.04V9.42902H6.2C6.921 9.42902 7.506 10.014 7.506 10.735V10.735C7.506 11.456 6.921 12.041 6.2 12.041" stroke="#161924" stroke-width="1.5" stroke-linecap="round" stroke-linejoin="round"/>
<path d="M17.2139 9.42902L19.3569 12.344L21.4999 9.42902" stroke="#161924" stroke-width="1.5" stroke-linecap="round" stroke-linejoin="round"/>
<path d="M19.3604 14.53V12.34" stroke="#161924" stroke-width="1.5" stroke-linecap="round" stroke-linejoin="round"/>
<path d="M14.6434 9.42902V12.429C14.6434 13.612 13.6844 14.572 12.5004 14.572V14.572C11.3174 14.572 10.3574 13.613 10.3574 12.429V9.42902" stroke="#161924" stroke-width="1.5" stroke-linecap="round" stroke-linejoin="round"/>
</svg>
