<svg width="24" height="24" viewBox="0 0 24 24" fill="none" xmlns="http://www.w3.org/2000/svg">
<path d="M5.95271 4.47712C6.90595 3.61277 8.35947 3.61277 9.31271 4.47712C10.2405 5.40495 10.2405 6.90928 9.31271 7.83712C8.38487 8.76495 6.88055 8.76495 5.95271 7.83712C5.49276 7.39933 5.23242 6.7921 5.23242 6.15712C5.23242 5.52213 5.49276 4.91491 5.95271 4.47712" stroke="#161924" stroke-width="1.5" stroke-linecap="round" stroke-linejoin="round"/>
<path d="M12.0008 15.3251V14.3651C12.0149 13.597 11.716 12.8563 11.1728 12.3131C10.6296 11.7699 9.88888 11.471 9.12083 11.4851H6.24083C5.47277 11.471 4.73202 11.7699 4.18883 12.3131C3.64564 12.8563 3.34674 13.597 3.36083 14.3651V15.3251" stroke="#161924" stroke-width="1.5" stroke-linecap="round" stroke-linejoin="round"/>
<path d="M6.24023 17.28H8.72849" stroke="#161924" stroke-width="1.5" stroke-linecap="round" stroke-linejoin="round"/>
<path d="M6.24074 19.7339V17.28" stroke="#161924" stroke-width="1.5" stroke-linecap="round" stroke-linejoin="round"/>
<path d="M18.1264 17.28C16.9779 19.3894 14.7682 20.7022 12.3664 20.7022C9.96467 20.7022 7.75499 19.3894 6.60645 17.28" stroke="#161924" stroke-width="1.5" stroke-linecap="round" stroke-linejoin="round"/>
<path d="M13.9209 8.62915C13.9209 9.68954 14.7805 10.5492 15.8409 10.5492C16.9013 10.5492 17.7609 9.68954 17.7609 8.62915" stroke="#161924" stroke-width="1.5" stroke-linecap="round" stroke-linejoin="round"/>
<path d="M12.9609 5.74915H18.7209C19.7813 5.74915 20.6409 6.60876 20.6409 7.66915V12.4691C20.6409 13.5295 19.7813 14.3891 18.7209 14.3891H14.8809" stroke="#161924" stroke-width="1.5" stroke-linecap="round" stroke-linejoin="round"/>
</svg>
