<svg width="24" height="24" viewBox="0 0 24 24" fill="none" xmlns="http://www.w3.org/2000/svg">
<path d="M11.9995 14.975V13.975C12.0142 13.1749 11.7028 12.4033 11.137 11.8375C10.5712 11.2717 9.79958 10.9603 8.99952 10.975H5.99952C5.19946 10.9603 4.42784 11.2717 3.86202 11.8375C3.2962 12.4033 2.98484 13.1749 2.99952 13.975V14.975" stroke="#161924" stroke-width="1.5" stroke-linecap="round" stroke-linejoin="round"/>
<path d="M14 8C14 9.10457 14.8954 10 16 10C17.1046 10 18 9.10457 18 8" stroke="#161924" stroke-width="1.5" stroke-linecap="round" stroke-linejoin="round"/>
<path d="M13 5H19C20.1046 5 21 5.89543 21 7V12C21 13.1046 20.1046 14 19 14H15" stroke="#161924" stroke-width="1.5" stroke-linecap="round" stroke-linejoin="round"/>
<path d="M17.55 17.5C16.9496 18.6286 16.0362 19.56 14.9195 20.1823C13.3852 21.0303 11.5738 21.2238 9.89506 20.7189C8.2163 20.2141 6.81206 19.0536 6 17.5" stroke="#161924" stroke-width="1.5" stroke-linecap="round" stroke-linejoin="round"/>
<circle cx="7.5" cy="5.5" r="2.5" stroke="#161924" stroke-width="1.5" stroke-linecap="round" stroke-linejoin="round"/>
<path d="M17.9999 20.0006L18 17.5007L15.5 17.5006" stroke="#161924" stroke-width="1.5" stroke-linecap="round" stroke-linejoin="round"/>
</svg>
