<svg width="24" height="24" viewBox="0 0 24 24" fill="none" xmlns="http://www.w3.org/2000/svg">
<path d="M3.24951 11.9805H21.0039" stroke="#161924" stroke-width="1.5" stroke-linecap="round" stroke-linejoin="round"/>
<path d="M2.99658 17.0021V17.0021C4.14498 16.5019 5.44969 16.5019 6.59808 17.0021V17.0021C7.74648 17.5023 9.05119 17.5023 10.1996 17.0021V17.0021C11.348 16.5019 12.6527 16.5019 13.8011 17.0021V17.0021C14.9495 17.5023 16.2542 17.5023 17.4026 17.0021V17.0021C18.551 16.5019 19.8557 16.5019 21.0041 17.0021V17.0021" stroke="#161924" stroke-width="1.5" stroke-linecap="round" stroke-linejoin="round"/>
<path fill-rule="evenodd" clip-rule="evenodd" d="M3.74751 11.3774L12.4019 4.4381C12.8314 4.09843 13.3788 3.94453 13.9224 4.01066C17.9632 4.48496 21.0078 7.91101 21.0041 11.9795V18.9984C21.0053 20.1046 20.1095 21.0025 19.0033 21.0037H4.99742C3.89113 21.0025 2.99533 20.1046 2.99658 18.9984V12.9434C2.99658 12.3345 3.27263 11.7585 3.74751 11.3774Z" stroke="#161924" stroke-width="1.5" stroke-linecap="round" stroke-linejoin="round"/>
</svg>
