<svg width="24" height="24" viewBox="0 0 24 24" fill="none" xmlns="http://www.w3.org/2000/svg">
<path fill-rule="evenodd" clip-rule="evenodd" d="M2.99658 11.7499C2.99658 12.993 4.00436 14.0008 5.24752 14.0008V14.0008C5.84466 14.0016 6.41748 13.7643 6.83918 13.3415C7.20768 12.9882 7.78924 12.9882 8.15773 13.3415C8.57943 13.7643 9.15225 14.0016 9.74939 14.0008V14.0008C10.3465 14.0016 10.9194 13.7643 11.3411 13.3415C11.7096 12.9882 12.2911 12.9882 12.6596 13.3415C13.0813 13.7643 13.6541 14.0016 14.2513 14.0008V14.0008C14.8484 14.0016 15.4212 13.7643 15.8429 13.3415C16.2114 12.9882 16.793 12.9882 17.1615 13.3415C17.5832 13.7643 18.156 14.0016 18.7531 14.0008V14.0008C19.9963 14.0008 21.0041 12.993 21.0041 11.7499V11.7499C21.0041 10.2304 19.7724 8.99872 18.2529 8.99872H5.74773C4.22831 8.99872 2.99658 10.2304 2.99658 11.7499Z" stroke="#161924" stroke-width="1.5" stroke-linecap="round" stroke-linejoin="round"/>
<path d="M22.0044 21.0037H1.99609" stroke="#161924" stroke-width="1.5" stroke-linecap="round" stroke-linejoin="round"/>
<path d="M6.99826 8.99898V6.99805" stroke="#161924" stroke-width="1.5" stroke-linecap="round" stroke-linejoin="round"/>
<path d="M17.0022 8.99898V6.99805" stroke="#161924" stroke-width="1.5" stroke-linecap="round" stroke-linejoin="round"/>
<path d="M12.0002 8.99898V6.99805" stroke="#161924" stroke-width="1.5" stroke-linecap="round" stroke-linejoin="round"/>
<path d="M6.99826 3.99663V2.99622" stroke="#161924" stroke-width="1.5" stroke-linecap="round" stroke-linejoin="round"/>
<path d="M12.0002 3.99663V2.99622" stroke="#161924" stroke-width="1.5" stroke-linecap="round" stroke-linejoin="round"/>
<path d="M17.0022 3.99663V2.99622" stroke="#161924" stroke-width="1.5" stroke-linecap="round" stroke-linejoin="round"/>
<path d="M20.0032 17.5023H3.99658" stroke="#161924" stroke-width="1.5" stroke-linecap="round" stroke-linejoin="round"/>
<path d="M20.0036 21.0038V13.9294" stroke="#161924" stroke-width="1.5" stroke-linecap="round" stroke-linejoin="round"/>
<path d="M3.99679 21.0038V13.9294" stroke="#161924" stroke-width="1.5" stroke-linecap="round" stroke-linejoin="round"/>
</svg>
