<svg width="24" height="24" viewBox="0 0 24 24" fill="none" xmlns="http://www.w3.org/2000/svg">
<path d="M6.99792 11.008H17.0021" stroke="#161924" stroke-width="1.5" stroke-linecap="round" stroke-linejoin="round"/>
<path d="M13.9452 6.8396V8.50695" stroke="#161924" stroke-width="1.5" stroke-linecap="round" stroke-linejoin="round"/>
<path d="M10.0548 6.8396V8.50695" stroke="#161924" stroke-width="1.5" stroke-linecap="round" stroke-linejoin="round"/>
<path fill-rule="evenodd" clip-rule="evenodd" d="M15.3347 17.0106H8.66529C8.22308 17.0106 7.79898 16.8349 7.48629 16.5222C7.17359 16.2095 6.99792 15.7854 6.99792 15.3432V9.3407C6.99792 8.41984 7.74443 7.67334 8.66529 7.67334H15.3347C16.2556 7.67334 17.0021 8.41984 17.0021 9.3407V15.3432C17.0021 15.7854 16.8264 16.2095 16.5137 16.5222C16.201 16.8349 15.7769 17.0106 15.3347 17.0106Z" stroke="#161924" stroke-width="1.5" stroke-linecap="round" stroke-linejoin="round"/>
<path fill-rule="evenodd" clip-rule="evenodd" d="M16.0016 21.0038H7.9983C5.23572 21.0038 2.99622 18.7643 2.99622 16.0018V7.99842C2.99622 5.23585 5.23572 2.99634 7.9983 2.99634H16.0016C18.7642 2.99634 21.0037 5.23585 21.0037 7.99842V16.0018C21.0037 18.7643 18.7642 21.0038 16.0016 21.0038Z" stroke="#161924" stroke-width="1.5" stroke-linecap="round" stroke-linejoin="round"/>
</svg>
