<svg width="24" height="24" viewBox="0 0 24 24" fill="none" xmlns="http://www.w3.org/2000/svg">
<path d="M21.0037 7.9985H2.99622" stroke="#161924" stroke-width="1.5" stroke-linecap="round" stroke-linejoin="round"/>
<path d="M22.0041 17.5024C22.0041 19.9887 19.9886 22.0042 17.5022 22.0042C15.0159 22.0042 13.0004 19.9887 13.0004 17.5024C13.0004 15.016 15.0159 13.0005 17.5022 13.0005C18.6962 13.0005 19.8413 13.4748 20.6855 14.3191C21.5298 15.1633 22.0041 16.3084 22.0041 17.5024" stroke="#161924" stroke-width="1.5" stroke-linecap="round" stroke-linejoin="round"/>
<path d="M14.6741 21.0038H5.99747C4.33992 21.0038 2.99622 19.6601 2.99622 18.0026V5.99759C2.99622 4.34004 4.33992 2.99634 5.99747 2.99634H18.0025C19.66 2.99634 21.0037 4.34004 21.0037 5.99759V14.6742" stroke="#161924" stroke-width="1.5" stroke-linecap="round" stroke-linejoin="round"/>
<path d="M18.5027 17.2522L17.5022 18.2526L16.5018 17.2522" stroke="#161924" stroke-width="1.5" stroke-linecap="round" stroke-linejoin="round"/>
<path d="M6.79681 11.5C6.79681 11.5276 6.77442 11.55 6.74679 11.55C6.71916 11.55 6.69677 11.5276 6.69677 11.5C6.69677 11.4723 6.71916 11.4499 6.74679 11.4499" stroke="#161924" stroke-width="1.5" stroke-linecap="round" stroke-linejoin="round"/>
<path d="M6.7468 11.4498C6.77443 11.4498 6.79683 11.4722 6.79683 11.4998" stroke="#161924" stroke-width="1.5" stroke-linecap="round" stroke-linejoin="round"/>
<path d="M10.2993 11.5C10.2993 11.5276 10.2769 11.55 10.2492 11.55C10.2216 11.55 10.1992 11.5276 10.1992 11.5C10.1992 11.4723 10.2216 11.4499 10.2492 11.4499" stroke="#161924" stroke-width="1.5" stroke-linecap="round" stroke-linejoin="round"/>
<path d="M10.2492 11.4498C10.2769 11.4498 10.2993 11.4722 10.2993 11.4998" stroke="#161924" stroke-width="1.5" stroke-linecap="round" stroke-linejoin="round"/>
<path d="M13.7997 11.5C13.7997 11.5276 13.7773 11.55 13.7497 11.55C13.7221 11.55 13.6997 11.5276 13.6997 11.5C13.6997 11.4723 13.7221 11.4499 13.7497 11.4499" stroke="#161924" stroke-width="1.5" stroke-linecap="round" stroke-linejoin="round"/>
<path d="M13.7497 11.4498C13.7774 11.4498 13.7998 11.4722 13.7998 11.4998" stroke="#161924" stroke-width="1.5" stroke-linecap="round" stroke-linejoin="round"/>
<path d="M6.79681 14.5012C6.79681 14.5288 6.77442 14.5512 6.74679 14.5512C6.71916 14.5512 6.69677 14.5288 6.69677 14.5012C6.69677 14.4736 6.71916 14.4512 6.74679 14.4512" stroke="#161924" stroke-width="1.5" stroke-linecap="round" stroke-linejoin="round"/>
<path d="M6.7468 14.451C6.77443 14.451 6.79683 14.4734 6.79683 14.501" stroke="#161924" stroke-width="1.5" stroke-linecap="round" stroke-linejoin="round"/>
<path d="M10.2993 14.5012C10.2993 14.5288 10.2769 14.5512 10.2492 14.5512C10.2216 14.5512 10.1992 14.5288 10.1992 14.5012C10.1992 14.4736 10.2216 14.4512 10.2492 14.4512" stroke="#161924" stroke-width="1.5" stroke-linecap="round" stroke-linejoin="round"/>
<path d="M10.2492 14.451C10.2769 14.451 10.2993 14.4734 10.2993 14.501" stroke="#161924" stroke-width="1.5" stroke-linecap="round" stroke-linejoin="round"/>
<path d="M6.79681 17.5024C6.79681 17.53 6.77442 17.5524 6.74679 17.5524C6.71916 17.5524 6.69677 17.53 6.69677 17.5024C6.69677 17.4748 6.71916 17.4524 6.74679 17.4524" stroke="#161924" stroke-width="1.5" stroke-linecap="round" stroke-linejoin="round"/>
<path d="M6.7468 17.4525C6.77443 17.4525 6.79683 17.4749 6.79683 17.5025" stroke="#161924" stroke-width="1.5" stroke-linecap="round" stroke-linejoin="round"/>
<path d="M10.2993 17.5024C10.2993 17.53 10.2769 17.5524 10.2492 17.5524C10.2216 17.5524 10.1992 17.53 10.1992 17.5024C10.1992 17.4748 10.2216 17.4524 10.2492 17.4524" stroke="#161924" stroke-width="1.5" stroke-linecap="round" stroke-linejoin="round"/>
<path d="M10.2492 17.4525C10.2769 17.4525 10.2993 17.4749 10.2993 17.5025" stroke="#161924" stroke-width="1.5" stroke-linecap="round" stroke-linejoin="round"/>
</svg>
