<svg width="24" height="24" viewBox="0 0 24 24" fill="none" xmlns="http://www.w3.org/2000/svg">
<path d="M15.0012 1.99585V3.99668" stroke="#161924" stroke-width="1.5" stroke-linecap="round" stroke-linejoin="round"/>
<path d="M6.99826 1.99585V3.99668" stroke="#161924" stroke-width="1.5" stroke-linecap="round" stroke-linejoin="round"/>
<path d="M2.99609 7.99838H19.0028" stroke="#161924" stroke-width="1.5" stroke-linecap="round" stroke-linejoin="round"/>
<path d="M19.0028 9.99913V5.99747C19.0028 4.33992 17.6591 2.99622 16.0015 2.99622H5.99734C4.3398 2.99622 2.99609 4.33992 2.99609 5.99747V15.0012C2.99609 16.6588 4.3398 18.0025 5.99734 18.0025H8.99859" stroke="#161924" stroke-width="1.5" stroke-linecap="round" stroke-linejoin="round"/>
<path d="M15.709 18.2526L18.21 15.7516" stroke="#161924" stroke-width="1.5" stroke-linecap="round" stroke-linejoin="round"/>
<path d="M18.5885 18.5617C18.6081 18.5813 18.6081 18.6131 18.5885 18.6327C18.5689 18.6523 18.5371 18.6523 18.5175 18.6327C18.508 18.6233 18.5027 18.6106 18.5027 18.5972C18.5027 18.5839 18.508 18.5711 18.5175 18.5617C18.5373 18.5425 18.5687 18.5425 18.5885 18.5617" stroke="#161924" stroke-width="1.5" stroke-linecap="round" stroke-linejoin="round"/>
<path fill-rule="evenodd" clip-rule="evenodd" d="M21.9622 17.0021C21.9622 19.7647 19.7227 22.0042 16.9601 22.0042C14.1975 22.0042 11.958 19.7647 11.958 17.0021C11.958 14.2395 14.1975 12 16.9601 12C18.2874 11.9979 19.5609 12.5242 20.4994 13.4627C21.438 14.4013 21.9643 15.6748 21.9622 17.0021Z" stroke="#161924" stroke-width="1.5" stroke-linecap="round" stroke-linejoin="round"/>
<path d="M15.3318 15.4424C15.3122 15.4228 15.3122 15.391 15.3318 15.3713C15.3515 15.3517 15.3833 15.3517 15.4029 15.3713C15.4123 15.3807 15.4177 15.3935 15.4177 15.4069C15.4177 15.4202 15.4123 15.433 15.4029 15.4424C15.3831 15.4616 15.3516 15.4616 15.3318 15.4424" stroke="#161924" stroke-width="1.5" stroke-linecap="round" stroke-linejoin="round"/>
</svg>
