<svg width="24" height="24" viewBox="0 0 24 24" fill="none" xmlns="http://www.w3.org/2000/svg">
<path d="M7.49813 2.99634V5.99759" stroke="#161924" stroke-width="1.5" stroke-linecap="round" stroke-linejoin="round"/>
<path d="M16.5019 2.99634V5.99759" stroke="#161924" stroke-width="1.5" stroke-linecap="round" stroke-linejoin="round"/>
<path d="M7.49813 2.99634V5.99759" stroke="#161924" stroke-width="1.5" stroke-linecap="round" stroke-linejoin="round"/>
<path d="M16.5019 2.99634V5.99759" stroke="#161924" stroke-width="1.5" stroke-linecap="round" stroke-linejoin="round"/>
<path d="M8.99872 21.0039H5.99747C4.33992 21.0039 2.99622 19.6602 2.99622 18.0027V7.49832C2.99622 5.84078 4.33992 4.49707 5.99747 4.49707H18.0025C19.66 4.49707 21.0037 5.84078 21.0037 7.49832V8.99895" stroke="#161924" stroke-width="1.5" stroke-linecap="round" stroke-linejoin="round"/>
<path fill-rule="evenodd" clip-rule="evenodd" d="M19.0029 12H14.0008C12.8958 12 12 12.8958 12 14.0008V19.0029C12 20.1079 12.8958 21.0037 14.0008 21.0037H19.0029C20.1079 21.0037 21.0037 20.1079 21.0037 19.0029V14.0008C21.0037 12.8958 20.1079 12 19.0029 12Z" stroke="#161924" stroke-width="1.5" stroke-linecap="round" stroke-linejoin="round"/>
<path d="M15.2517 15.0013C15.2515 15.1393 15.1395 15.2511 15.0014 15.251C14.8634 15.251 14.7515 15.1391 14.7514 15.001C14.7514 14.863 14.8632 14.751 15.0013 14.7508C15.0677 14.7508 15.1314 14.7771 15.1784 14.8241C15.2254 14.8711 15.2517 14.9348 15.2517 15.0013" stroke="#161924" stroke-width="1.5" stroke-linecap="round" stroke-linejoin="round"/>
<path d="M21.0037 16.0517C20.7967 16.0203 20.5878 16.0036 20.3785 16.0017C17.9612 16.0017 16.0016 17.9613 16.0016 20.3785V20.3785C16.0031 20.5879 16.0198 20.7969 16.0517 21.0038" stroke="#161924" stroke-width="1.5" stroke-linecap="round" stroke-linejoin="round"/>
</svg>
