<svg width="24" height="24" viewBox="0 0 24 24" fill="none" xmlns="http://www.w3.org/2000/svg">
<path fill-rule="evenodd" clip-rule="evenodd" d="M12.6895 19.157V15.8496C12.6907 15.4263 12.9201 15.0366 13.2897 14.8302L16.2769 13.1495C16.6332 12.9505 17.0672 12.9505 17.4234 13.1495L20.4107 14.8302C20.7771 15.0386 21.003 15.4281 21.0019 15.8496V19.157C21.0014 19.5789 20.774 19.9679 20.4067 20.1754L17.4174 21.8551C17.0612 22.0541 16.6272 22.0541 16.2709 21.8551L13.2837 20.1744C12.9166 19.9673 12.6895 19.5785 12.6895 19.157V19.157Z" stroke="#161924" stroke-width="1.5" stroke-linecap="round" stroke-linejoin="round"/>
<path d="M16.8479 17.5023V22.0041" stroke="#161924" stroke-width="1.5" stroke-linecap="round" stroke-linejoin="round"/>
<path d="M12.8496 15.2584L16.8463 17.5023L20.8479 15.2584" stroke="#161924" stroke-width="1.5" stroke-linecap="round" stroke-linejoin="round"/>
<path d="M15.0002 2.99622V4.99705" stroke="#161924" stroke-width="1.5" stroke-linecap="round" stroke-linejoin="round"/>
<path d="M6.9963 2.99622V4.99705" stroke="#161924" stroke-width="1.5" stroke-linecap="round" stroke-linejoin="round"/>
<path d="M2.99609 8.99874H19.0028" stroke="#161924" stroke-width="1.5" stroke-linecap="round" stroke-linejoin="round"/>
<path d="M19.0028 9.99914V6.99789C19.0028 5.34035 17.6591 3.99664 16.0015 3.99664H5.99734C4.3398 3.99664 2.99609 5.34035 2.99609 6.99789V16.0016C2.99609 17.6592 4.3398 19.0029 5.99734 19.0029H8.99859" stroke="#161924" stroke-width="1.5" stroke-linecap="round" stroke-linejoin="round"/>
</svg>
