<svg width="24" height="24" viewBox="0 0 24 24" fill="none" xmlns="http://www.w3.org/2000/svg">
<path d="M7.5 3V6" stroke="#323232" stroke-width="1.5" stroke-linecap="round" stroke-linejoin="round"/>
<path d="M16.5 3V6" stroke="#323232" stroke-width="1.5" stroke-linecap="round" stroke-linejoin="round"/>
<path d="M9 21H6C4.34315 21 3 19.6569 3 18V7.5C3 5.84315 4.34315 4.5 6 4.5H18C19.6569 4.5 21 5.84315 21 7.5V9" stroke="#323232" stroke-width="1.5" stroke-linecap="round" stroke-linejoin="round"/>
<path fill-rule="evenodd" clip-rule="evenodd" d="M20.4142 12.7081L19.2919 11.5858C18.9168 11.2107 18.4081 11 17.8777 11H14C12.8954 11 12 11.8954 12 13V19C12 20.1046 12.8954 21 14 21H19C20.1046 21 21 20.1046 21 19V14.1223C21 13.5919 20.7893 13.0832 20.4142 12.7081Z" stroke="#323232" stroke-width="1.5" stroke-linecap="round" stroke-linejoin="round"/>
<path d="M15 15H18" stroke="#323232" stroke-width="1.5" stroke-linecap="round" stroke-linejoin="round"/>
<path d="M15 18H18" stroke="#323232" stroke-width="1.5" stroke-linecap="round" stroke-linejoin="round"/>
</svg>
