<svg width="24" height="24" viewBox="0 0 24 24" fill="none" xmlns="http://www.w3.org/2000/svg">
<path d="M15.0002 2.99622V4.99705" stroke="#161924" stroke-width="1.5" stroke-linecap="round" stroke-linejoin="round"/>
<path d="M6.9963 2.99622V4.99705" stroke="#161924" stroke-width="1.5" stroke-linecap="round" stroke-linejoin="round"/>
<path d="M2.99609 8.99874H19.0028" stroke="#161924" stroke-width="1.5" stroke-linecap="round" stroke-linejoin="round"/>
<path d="M19.0028 9.99914V6.99789C19.0028 5.34035 17.6591 3.99664 16.0015 3.99664H5.99734C4.3398 3.99664 2.99609 5.34035 2.99609 6.99789V16.0016C2.99609 17.6592 4.3398 19.0029 5.99734 19.0029H8.99859" stroke="#161924" stroke-width="1.5" stroke-linecap="round" stroke-linejoin="round"/>
<path fill-rule="evenodd" clip-rule="evenodd" d="M13.2865 13.0004H19.7172C20.0584 13.0004 20.3857 13.136 20.6269 13.3772C20.8682 13.6185 21.0037 13.9458 21.0037 14.287V20.0033C21.0037 20.3446 20.8682 20.6718 20.6269 20.9131C20.3857 21.1543 20.0584 21.2899 19.7172 21.2899H13.2865C12.9453 21.2899 12.6181 21.1543 12.3768 20.9131C12.1355 20.6718 12 20.3446 12 20.0033V14.287C12 13.5764 12.576 13.0004 13.2865 13.0004Z" stroke="#161924" stroke-width="1.5" stroke-linecap="round" stroke-linejoin="round"/>
<path d="M17.5008 16.0017H15.5" stroke="#161924" stroke-width="1.5" stroke-linecap="round" stroke-linejoin="round"/>
</svg>
