<svg width="24" height="24" viewBox="0 0 24 24" fill="none" xmlns="http://www.w3.org/2000/svg">
<path d="M15.0014 1.99585V3.99668" stroke="#161924" stroke-width="1.5" stroke-linecap="round" stroke-linejoin="round"/>
<path d="M6.99801 1.99585V3.99668" stroke="#161924" stroke-width="1.5" stroke-linecap="round" stroke-linejoin="round"/>
<path d="M2.99634 7.99832H19.003" stroke="#161924" stroke-width="1.5" stroke-linecap="round" stroke-linejoin="round"/>
<path d="M19.003 8.99872V5.99747C19.003 4.33992 17.6593 2.99622 16.0018 2.99622H5.99759C4.34004 2.99622 2.99634 4.33992 2.99634 5.99747V15.0012C2.99634 16.6588 4.34004 18.0025 5.99759 18.0025H8.99884" stroke="#161924" stroke-width="1.5" stroke-linecap="round" stroke-linejoin="round"/>
<path fill-rule="evenodd" clip-rule="evenodd" d="M21.0037 19.5892V18.7238C21.0039 18.293 20.7282 17.9105 20.3195 17.7744L18.0025 17.0021V15.0013L18.7028 14.5551C19.2164 14.2259 19.4547 13.5998 19.29 13.0124V13.0124C19.1219 12.4126 18.5744 11.9985 17.9515 12H15.0503C14.4284 11.9998 13.8825 12.4137 13.7147 13.0124V13.0124C13.5501 13.5998 13.7884 14.2259 14.302 14.5551L15.0013 15.0013V17.0021L12.6843 17.7744C12.2756 17.9105 11.9999 18.293 12 18.7238V19.5892C12 19.8545 12.1055 20.1089 12.2931 20.2965L12.7073 20.7106C12.8949 20.8983 13.1493 21.0038 13.4146 21.0038H19.5892C19.8545 21.0038 20.1089 20.8983 20.2965 20.7106L20.7106 20.2965C20.8983 20.1089 21.0037 19.8545 21.0037 19.5892Z" stroke="#161924" stroke-width="1.5" stroke-linecap="round" stroke-linejoin="round"/>
</svg>
