<svg width="24" height="24" viewBox="0 0 24 24" fill="none" xmlns="http://www.w3.org/2000/svg">
<path d="M7.5 3V6" stroke="#161924" stroke-width="1.5" stroke-linecap="round" stroke-linejoin="round"/>
<path d="M16.5 3V6" stroke="#161924" stroke-width="1.5" stroke-linecap="round" stroke-linejoin="round"/>
<path d="M17.25 9.25L15.75 10.75" stroke="#161924" stroke-width="1.5" stroke-linecap="round" stroke-linejoin="round"/>
<path d="M17.25 10.75L15.75 9.25" stroke="#161924" stroke-width="1.5" stroke-linecap="round" stroke-linejoin="round"/>
<path d="M9.94831 13.6664H8" stroke="#161924" stroke-width="1.5" stroke-linecap="round" stroke-linejoin="round"/>
<path d="M8 13.6664V15.6152" stroke="#161924" stroke-width="1.5" stroke-linecap="round" stroke-linejoin="round"/>
<path d="M8.25391 13.6664C8.65988 14.412 9.27244 15.0245 10.018 15.4305" stroke="#161924" stroke-width="1.5" stroke-linecap="round" stroke-linejoin="round"/>
<path d="M16 14.4479C14.4733 16.1164 12.0064 16.5306 10.0186 15.4521" stroke="#161924" stroke-width="1.5" stroke-linecap="round" stroke-linejoin="round"/>
<path d="M7.45 10C7.45003 9.9724 7.47242 9.95005 7.50002 9.95006C7.52762 9.95007 7.54999 9.97244 7.55 10C7.55001 10.0276 7.52766 10.05 7.50006 10.0501C7.48678 10.0501 7.47404 10.0448 7.46464 10.0354C7.45525 10.026 7.44998 10.0133 7.45 10" stroke="#161924" stroke-width="1.5" stroke-linecap="round" stroke-linejoin="round"/>
<path d="M11.95 10C11.95 9.9724 11.9724 9.95005 12 9.95006C12.0276 9.95007 12.05 9.97244 12.05 10C12.05 10.0276 12.0277 10.05 12.0001 10.0501C11.9868 10.0501 11.974 10.0448 11.9646 10.0354C11.9553 10.026 11.95 10.0133 11.95 10" stroke="#161924" stroke-width="1.5" stroke-linecap="round" stroke-linejoin="round"/>
<rect x="3" y="4.5" width="18" height="16.5" rx="3" stroke="#161924" stroke-width="1.5" stroke-linecap="round" stroke-linejoin="round"/>
</svg>
