<svg width="24" height="24" viewBox="0 0 24 24" fill="none" xmlns="http://www.w3.org/2000/svg">
<path d="M15.0012 1.99585V3.99668" stroke="#161924" stroke-width="1.5" stroke-linecap="round" stroke-linejoin="round"/>
<path d="M6.99826 1.99585V3.99668" stroke="#161924" stroke-width="1.5" stroke-linecap="round" stroke-linejoin="round"/>
<path d="M2.99658 7.99838H19.0032" stroke="#161924" stroke-width="1.5" stroke-linecap="round" stroke-linejoin="round"/>
<path d="M19.0032 10.9995V5.99747C19.0032 4.33992 17.6595 2.99622 16.002 2.99622H5.99783C4.34029 2.99622 2.99658 4.33992 2.99658 5.99747V14.0008C2.99658 15.6583 4.34029 17.002 5.99783 17.002H8.99908" stroke="#161924" stroke-width="1.5" stroke-linecap="round" stroke-linejoin="round"/>
<path fill-rule="evenodd" clip-rule="evenodd" d="M12 15.6015V19.203C12 19.6806 12.1897 20.1386 12.5274 20.4764C12.8651 20.8141 13.3232 21.0038 13.8008 21.0038H19.203C19.6806 21.0038 20.1386 20.8141 20.4763 20.4764C20.814 20.1386 21.0037 19.6806 21.0037 19.203V15.6015C21.0037 14.607 20.1975 13.8008 19.203 13.8008H13.8008C12.8062 13.8008 12 14.607 12 15.6015Z" stroke="#161924" stroke-width="1.5" stroke-linecap="round" stroke-linejoin="round"/>
<path d="M21.0037 16.802H12" stroke="#161924" stroke-width="1.5" stroke-linecap="round" stroke-linejoin="round"/>
</svg>
