<svg width="24" height="24" viewBox="0 0 24 24" fill="none" xmlns="http://www.w3.org/2000/svg">
<path d="M7.49826 2.99622V5.99747" stroke="#161924" stroke-width="1.5" stroke-linecap="round" stroke-linejoin="round"/>
<path d="M16.5022 2.99622V5.99747" stroke="#161924" stroke-width="1.5" stroke-linecap="round" stroke-linejoin="round"/>
<path d="M8.99859 21.0038H5.99734C4.3398 21.0038 2.99609 19.6601 2.99609 18.0025V7.49814C2.99609 5.84059 4.3398 4.49689 5.99734 4.49689H18.0023C19.6599 4.49689 21.0036 5.84059 21.0036 7.49814V10.9996" stroke="#161924" stroke-width="1.5" stroke-linecap="round" stroke-linejoin="round"/>
<path fill-rule="evenodd" clip-rule="evenodd" d="M12 16.0017V20.0034C12 21.1084 12.8958 22.0042 14.0008 22.0042H20.0033C21.1084 22.0042 22.0042 21.1084 22.0042 20.0034V16.0017C22.0042 14.8967 21.1084 14.0009 20.0033 14.0009H14.0008C12.8958 14.0009 12 14.8967 12 16.0017Z" stroke="#161924" stroke-width="1.5" stroke-linecap="round" stroke-linejoin="round"/>
<path d="M14.7637 17.0021L16.51 17.8844C16.828 18.0419 17.2013 18.0419 17.5193 17.8844L19.2655 17.0021" stroke="#161924" stroke-width="1.5" stroke-linecap="round" stroke-linejoin="round"/>
</svg>
