<svg width="24" height="24" viewBox="0 0 24 24" fill="none" xmlns="http://www.w3.org/2000/svg">
<path d="M3.87862 13.5007H20.1213" stroke="#161924" stroke-width="1.5" stroke-linecap="round" stroke-linejoin="round"/>
<path fill-rule="evenodd" clip-rule="evenodd" d="M20.1482 13.1635L20.9746 8.33653C21.0741 7.75514 20.9121 7.15946 20.5318 6.70858C20.1515 6.25769 19.5916 5.99756 19.0018 5.99756H4.99821C4.40852 5.99756 3.8488 6.25743 3.4685 6.70811C3.08821 7.15879 2.92607 7.75426 3.02539 8.33553L3.85173 13.1625C3.88974 13.386 3.88974 13.6143 3.85173 13.8378L3.02539 18.6648C2.92588 19.2462 3.08792 19.8419 3.46822 20.2928C3.84852 20.7437 4.40835 21.0038 4.99821 21.0038H19.0028C19.5923 21.0038 20.1518 20.7436 20.5319 20.2929C20.912 19.8423 21.0739 19.2469 20.9746 18.6658L20.1483 13.8388C20.1102 13.6153 20.1102 13.387 20.1482 13.1635Z" stroke="#161924" stroke-width="1.5" stroke-linecap="round" stroke-linejoin="round"/>
<path d="M5.13931 5.99759L5.02626 5.33431C4.92692 4.75321 5.08891 4.15788 5.46898 3.70723C5.84905 3.25657 6.40852 2.99647 6.99805 2.99634H17.0017C17.5914 2.99607 18.1511 3.25607 18.5313 3.70682C18.9114 4.15758 19.0733 4.75314 18.9735 5.33431L18.8605 5.99759" stroke="#161924" stroke-width="1.5" stroke-linecap="round" stroke-linejoin="round"/>
</svg>
