<svg width="24" height="24" viewBox="0 0 24 24" fill="none" xmlns="http://www.w3.org/2000/svg">
<path d="M15.0012 2.99622V4.99705" stroke="#161924" stroke-width="1.5" stroke-linecap="round" stroke-linejoin="round"/>
<path d="M6.99826 2.99622V4.99705" stroke="#161924" stroke-width="1.5" stroke-linecap="round" stroke-linejoin="round"/>
<path d="M2.99609 8.99874H19.0028" stroke="#161924" stroke-width="1.5" stroke-linecap="round" stroke-linejoin="round"/>
<path d="M19.0028 9.9992V6.99795C19.0028 5.34041 17.6591 3.9967 16.0015 3.9967H5.99734C4.3398 3.9967 2.99609 5.34041 2.99609 6.99795V16.0017C2.99609 17.6592 4.3398 19.003 5.99734 19.003H9.99901" stroke="#161924" stroke-width="1.5" stroke-linecap="round" stroke-linejoin="round"/>
<path d="M13.4826 16.7019V21.0037" stroke="#161924" stroke-width="1.5" stroke-linecap="round" stroke-linejoin="round"/>
<path d="M20.5217 21.0037V16.7019" stroke="#161924" stroke-width="1.5" stroke-linecap="round" stroke-linejoin="round"/>
<path fill-rule="evenodd" clip-rule="evenodd" d="M15.4433 15.6685H15.4943C15.7078 16.3218 16.3171 16.7638 17.0045 16.7638C17.6918 16.7638 18.3012 16.3218 18.5146 15.6685H18.5646C18.7419 16.3491 19.3751 16.8098 20.0772 16.7689C20.5365 16.7854 20.971 16.561 21.2235 16.1771C21.4759 15.7931 21.5098 15.3053 21.3128 14.8902L20.7265 13.7337C20.4998 13.2833 20.0382 12.9995 19.534 13.0004H14.4659C13.9632 13.0002 13.503 13.2824 13.2754 13.7307L12.6912 14.8862C12.3804 15.5428 12.6608 16.3271 13.3174 16.6379C13.5093 16.7279 13.7199 16.7708 13.9317 16.7629C14.6317 16.8039 15.2637 16.3463 15.4433 15.6685Z" stroke="#161924" stroke-width="1.5" stroke-linecap="round" stroke-linejoin="round"/>
<path d="M17.0002 21.0037V19.225" stroke="#161924" stroke-width="1.5" stroke-linecap="round" stroke-linejoin="round"/>
<path d="M12.9482 21.0037H21.0516" stroke="#161924" stroke-width="1.5" stroke-linecap="round" stroke-linejoin="round"/>
</svg>
