<svg width="24" height="24" viewBox="0 0 24 24" fill="none" xmlns="http://www.w3.org/2000/svg">
<path d="M7.49826 2.99622V5.99747" stroke="#161924" stroke-width="1.5" stroke-linecap="round" stroke-linejoin="round"/>
<path d="M16.5022 2.99622V5.99747" stroke="#161924" stroke-width="1.5" stroke-linecap="round" stroke-linejoin="round"/>
<rect x="2.99609" y="4.49683" width="18.0075" height="16.5069" rx="3" stroke="#161924" stroke-width="1.5" stroke-linecap="round" stroke-linejoin="round"/>
<path d="M9.77734 15.4785L14.2236 11.0322" stroke="#161924" stroke-width="1.5" stroke-linecap="round" stroke-linejoin="round"/>
<path d="M14.5019 15.6175C14.5017 15.6939 14.4396 15.7556 14.3632 15.7555C14.2869 15.7553 14.2251 15.6934 14.2251 15.617C14.2251 15.5407 14.2869 15.4787 14.3632 15.4786C14.4396 15.4785 14.5017 15.5402 14.5019 15.6165V15.6175" stroke="#161924" stroke-width="1.5" stroke-linecap="round" stroke-linejoin="round"/>
<path d="M9.50045 10.8933C9.50073 10.8169 9.56278 10.7552 9.63913 10.7553C9.71548 10.7555 9.77731 10.8174 9.77731 10.8938C9.77731 10.9701 9.71548 11.0321 9.63913 11.0322C9.56278 11.0323 9.50073 10.9706 9.50045 10.8943V10.8933" stroke="#161924" stroke-width="1.5" stroke-linecap="round" stroke-linejoin="round"/>
</svg>
