<svg width="24" height="24" viewBox="0 0 24 24" fill="none" xmlns="http://www.w3.org/2000/svg">
<path fill-rule="evenodd" clip-rule="evenodd" d="M15.904 14.8949L13.8383 13.6215V11.3792L15.904 10.1059C16.0644 10.007 16.2656 10.0027 16.43 10.0945C16.5945 10.1863 16.6964 10.3599 16.6964 10.5482V14.4525C16.6964 14.6409 16.5945 14.8145 16.43 14.9063C16.2656 14.9981 16.0644 14.9937 15.904 14.8949V14.8949Z" stroke="#161924" stroke-width="1.5" stroke-linecap="round" stroke-linejoin="round"/>
<rect x="6.30322" y="9.12256" width="7.53508" height="6.75559" rx="1.55833" stroke="#161924" stroke-width="1.5" stroke-linecap="round" stroke-linejoin="round"/>
<path d="M20.0033 9.99933V16.2797C20.0033 18.8888 17.8882 21.0039 15.2791 21.0039H7.7204C5.11131 21.0039 2.99622 18.8888 2.99622 16.2797V8.72101C2.99622 6.11192 5.11131 3.99683 7.7204 3.99683H14.0008" stroke="#161924" stroke-width="1.5" stroke-linecap="round" stroke-linejoin="round"/>
<circle cx="19.0029" cy="4.99717" r="2.00083" stroke="#161924" stroke-width="1.5" stroke-linecap="round" stroke-linejoin="round"/>
</svg>
