<svg width="24" height="24" viewBox="0 0 24 24" fill="none" xmlns="http://www.w3.org/2000/svg">
<path d="M7 5H17" stroke="#161924" stroke-width="1.5" stroke-linecap="round" stroke-linejoin="round"/>
<path fill-rule="evenodd" clip-rule="evenodd" d="M20 22H18C17.45 22 17 21.55 17 21V17C17 16.45 17.45 16 18 16H20C20.55 16 21 16.45 21 17V21C21 21.55 20.55 22 20 22Z" stroke="#161924" stroke-width="1.5" stroke-linecap="round" stroke-linejoin="round"/>
<path d="M7 19H17" stroke="#161924" stroke-width="1.5" stroke-linecap="round" stroke-linejoin="round"/>
<path fill-rule="evenodd" clip-rule="evenodd" d="M6 22H4C3.45 22 3 21.55 3 21V17C3 16.45 3.45 16 4 16H6C6.55 16 7 16.45 7 17V21C7 21.55 6.55 22 6 22Z" stroke="#161924" stroke-width="1.5" stroke-linecap="round" stroke-linejoin="round"/>
<path fill-rule="evenodd" clip-rule="evenodd" d="M20 8H18C17.45 8 17 7.55 17 7V3C17 2.45 17.45 2 18 2H20C20.55 2 21 2.45 21 3V7C21 7.55 20.55 8 20 8Z" stroke="#161924" stroke-width="1.5" stroke-linecap="round" stroke-linejoin="round"/>
<path fill-rule="evenodd" clip-rule="evenodd" d="M6 8H4C3.45 8 3 7.55 3 7V3C3 2.45 3.45 2 4 2H6C6.55 2 7 2.45 7 3V7C7 7.55 6.55 8 6 8Z" stroke="#161924" stroke-width="1.5" stroke-linecap="round" stroke-linejoin="round"/>
<path d="M12.3 15L13.8 12H10.2L11.7 9" stroke="#161924" stroke-width="1.5" stroke-linecap="round" stroke-linejoin="round"/>
</svg>
