<svg width="24" height="24" viewBox="0 0 24 24" fill="none" xmlns="http://www.w3.org/2000/svg">
<path d="M7.75879 7.25431C8.88338 6.12934 10.4089 5.49731 11.9996 5.49731C13.5902 5.49731 15.1157 6.12934 16.2403 7.25431" stroke="#161924" stroke-width="1.5" stroke-linecap="round" stroke-linejoin="round"/>
<path d="M5.27686 4.78069C8.98999 1.06757 15.0101 1.06757 18.7233 4.78069" stroke="#161924" stroke-width="1.5" stroke-linecap="round" stroke-linejoin="round"/>
<path d="M3.14633 9.03821C1.59698 13.0014 2.87022 17.5114 6.26336 20.0792C9.6565 22.6471 14.3428 22.6471 17.7359 20.0792C21.1291 17.5114 22.4023 13.0014 20.853 9.03821" stroke="#161924" stroke-width="1.5" stroke-linecap="round" stroke-linejoin="round"/>
<path fill-rule="evenodd" clip-rule="evenodd" d="M14.001 16.0017H9.9993V16.5019C9.9993 17.0544 9.55139 17.5023 8.99888 17.5023H7.99846C7.44595 17.5023 6.99805 17.0544 6.99805 16.5019V14.7512C6.99805 13.7843 7.78188 13.0004 8.74878 13.0004H15.2515C16.2184 13.0004 17.0022 13.7843 17.0022 14.7512V16.5019C17.0022 17.0544 16.5543 17.5023 16.0018 17.5023H15.0014C14.4489 17.5023 14.001 17.0544 14.001 16.5019V16.0017Z" stroke="#161924" stroke-width="1.5" stroke-linecap="round" stroke-linejoin="round"/>
<path d="M8.26392 13.077L8.71283 11.158C8.8716 10.4792 9.47691 9.99915 10.174 9.99915H13.8261C14.5232 9.99915 15.1285 10.4792 15.2872 11.158L15.7361 13.077" stroke="#161924" stroke-width="1.5" stroke-linecap="round" stroke-linejoin="round"/>
<path d="M8.35634 12.6824L6.99805 12" stroke="#161924" stroke-width="1.5" stroke-linecap="round" stroke-linejoin="round"/>
<path d="M17.0021 12L15.6438 12.6824" stroke="#161924" stroke-width="1.5" stroke-linecap="round" stroke-linejoin="round"/>
</svg>
