<svg width="24" height="24" viewBox="0 0 24 24" fill="none" xmlns="http://www.w3.org/2000/svg">
<path d="M8.25 11.5H6.25" stroke="#161924" stroke-width="1.5" stroke-linecap="round" stroke-linejoin="round"/>
<path d="M17.8831 8.29399L20.0001 7.23499" stroke="#161924" stroke-width="1.5" stroke-linecap="round" stroke-linejoin="round"/>
<path d="M5.118 8.29399L3 7.23499" stroke="#161924" stroke-width="1.5" stroke-linecap="round" stroke-linejoin="round"/>
<path d="M17.95 8.65553L16.9862 4.54362C16.7743 3.63937 15.9678 3 15.039 3H7.96076C7.03201 3 6.22547 3.63937 6.01353 4.54362L5.0498 8.65553" stroke="#161924" stroke-width="1.5" stroke-linecap="round" stroke-linejoin="round"/>
<path d="M14.75 11.5H16.75" stroke="#161924" stroke-width="1.5" stroke-linecap="round" stroke-linejoin="round"/>
<path d="M20 12V11.5C20 9.84315 18.6569 8.5 17 8.5H6C4.34315 8.5 3 9.84315 3 11.5V16C3 16.5523 3.44772 17 4 17H6.236C6.78828 17 7.236 16.5523 7.236 16V14.5H13" stroke="#161924" stroke-width="1.5" stroke-linecap="round" stroke-linejoin="round"/>
<path d="M18 15V16.25" stroke="#161924" stroke-width="1.5" stroke-linecap="round" stroke-linejoin="round"/>
<path d="M18 20.75V22" stroke="#161924" stroke-width="1.5" stroke-linecap="round" stroke-linejoin="round"/>
<path d="M19.9485 19.625L20.9999 20.2321" stroke="#161924" stroke-width="1.5" stroke-linecap="round" stroke-linejoin="round"/>
<path d="M20.9999 16.7679L19.9485 17.375" stroke="#161924" stroke-width="1.5" stroke-linecap="round" stroke-linejoin="round"/>
<path d="M18 20.75C16.7574 20.75 15.75 19.7426 15.75 18.5C15.75 17.2574 16.7574 16.25 18 16.25C19.2426 16.25 20.25 17.2574 20.25 18.5C20.25 19.7426 19.2426 20.75 18 20.75" stroke="#161924" stroke-width="1.5" stroke-linecap="round" stroke-linejoin="round"/>
<path d="M16.0515 17.375L15 16.7679" stroke="#161924" stroke-width="1.5" stroke-linecap="round" stroke-linejoin="round"/>
<path d="M15 20.2321L16.0515 19.625" stroke="#161924" stroke-width="1.5" stroke-linecap="round" stroke-linejoin="round"/>
</svg>
