<svg width="24" height="24" viewBox="0 0 24 24" fill="none" xmlns="http://www.w3.org/2000/svg">
<path fill-rule="evenodd" clip-rule="evenodd" d="M6.87024 21.408L2.59224 17.13C1.80324 16.341 1.80324 15.063 2.59224 14.274L13.2902 3.576C14.4732 2.393 16.3912 2.393 17.5742 3.576L20.4242 6.426C21.6072 7.609 21.6072 9.527 20.4242 10.71L9.72624 21.408C8.93824 22.196 7.65924 22.196 6.87024 21.408Z" stroke="#161924" stroke-width="1.5" stroke-linecap="round" stroke-linejoin="round"/>
<path d="M16.1462 14.988L16.5492 13.041C16.7562 12.043 16.4462 11.008 15.7252 10.287L13.7122 8.27401C12.9912 7.55301 11.9562 7.24401 10.9582 7.45001L9.01221 7.85401" stroke="#161924" stroke-width="1.5" stroke-linecap="round" stroke-linejoin="round"/>
<path d="M9.00984 7.84999L7.58984 6.42999" stroke="#161924" stroke-width="1.5" stroke-linecap="round" stroke-linejoin="round"/>
<path d="M4.72998 12.14L11.86 19.27" stroke="#161924" stroke-width="1.5" stroke-linecap="round" stroke-linejoin="round"/>
<path d="M9.72998 1.99999V2.85999" stroke="#161924" stroke-width="1.5" stroke-linecap="round" stroke-linejoin="round"/>
<path d="M3.15984 8.57001H4.01984" stroke="#161924" stroke-width="1.5" stroke-linecap="round" stroke-linejoin="round"/>
<path d="M4.72984 3.56999L5.44984 4.28999" stroke="#161924" stroke-width="1.5" stroke-linecap="round" stroke-linejoin="round"/>
<path d="M15.4302 20.84V19.98" stroke="#161924" stroke-width="1.5" stroke-linecap="round" stroke-linejoin="round"/>
<path d="M21.9998 14.27H21.1398" stroke="#161924" stroke-width="1.5" stroke-linecap="round" stroke-linejoin="round"/>
<path d="M20.4298 19.27L19.7098 18.56" stroke="#161924" stroke-width="1.5" stroke-linecap="round" stroke-linejoin="round"/>
<path d="M17.5699 16.42L16.1499 14.99" stroke="#161924" stroke-width="1.5" stroke-linecap="round" stroke-linejoin="round"/>
</svg>
