<svg width="24" height="24" viewBox="0 0 24 24" fill="none" xmlns="http://www.w3.org/2000/svg">
<path fill-rule="evenodd" clip-rule="evenodd" d="M14 14.5H10V15C10 15.5523 9.55228 16 9 16H8C7.44772 16 7 15.5523 7 15V13.25C7 12.2835 7.7835 11.5 8.75 11.5H15.25C16.2165 11.5 17 12.2835 17 13.25V15C17 15.5523 16.5523 16 16 16H15C14.4477 16 14 15.5523 14 15V14.5Z" stroke="#161924" stroke-width="1.5" stroke-linecap="round" stroke-linejoin="round"/>
<path d="M8.13916 11.6157L8.71406 9.15831C8.87279 8.47984 9.47783 8 10.1746 8H13.8251C14.5219 8 15.127 8.47984 15.2857 9.15831L15.8606 11.6157" stroke="#161924" stroke-width="1.5" stroke-linecap="round" stroke-linejoin="round"/>
<path d="M8.23913 11.1225L7 10.5" stroke="#161924" stroke-width="1.5" stroke-linecap="round" stroke-linejoin="round"/>
<path d="M15.761 11.1225L17.0001 10.5" stroke="#161924" stroke-width="1.5" stroke-linecap="round" stroke-linejoin="round"/>
<rect x="3" y="3" width="18" height="18" rx="5" stroke="#161924" stroke-width="1.5" stroke-linecap="round" stroke-linejoin="round"/>
</svg>
