<svg width="24" height="24" viewBox="0 0 24 24" fill="none" xmlns="http://www.w3.org/2000/svg">
<circle cx="12" cy="12" r="10" stroke="#161924" stroke-width="1.5" stroke-linecap="round" stroke-linejoin="round"/>
<circle cx="12" cy="12" r="2.5" stroke="#161924" stroke-width="1.5" stroke-linecap="round" stroke-linejoin="round"/>
<path d="M11.1165 9.66867C11.2555 8.66212 11.7812 7.74933 12.5821 7.12402C12.8366 6.92506 12.9833 6.61846 12.9786 6.29546C12.9739 5.97245 12.8183 5.67026 12.5581 5.47882C11.8981 5.01434 11.0617 4.87757 10.2881 5.1076C9.43114 5.35843 8.76544 6.03557 8.52924 6.8967C8.34021 7.56776 8.42661 8.2865 8.7693 8.89364C9.11199 9.50078 9.68267 9.94618 10.3549 10.1311" stroke="#161924" stroke-width="1.5" stroke-linecap="round" stroke-linejoin="round"/>
<path d="M12.8837 14.3314C12.7447 15.3379 12.219 16.2507 11.4181 16.876C11.1636 17.075 11.0169 17.3816 11.0216 17.7046C11.0263 18.0276 11.1819 18.3297 11.4421 18.5212C12.1021 18.9857 12.9385 19.1225 13.7121 18.8925C14.569 18.6416 15.2348 17.9645 15.471 17.1033C15.66 16.4323 15.5737 15.7135 15.231 15.1064C14.8883 14.4992 14.3176 14.0538 13.6454 13.8688" stroke="#161924" stroke-width="1.5" stroke-linecap="round" stroke-linejoin="round"/>
<path d="M9.66853 12.8835C8.66199 12.7446 7.74921 12.2189 7.12389 11.418C6.92494 11.1635 6.61834 11.0168 6.29533 11.0215C5.97233 11.0262 5.67014 11.1818 5.47869 11.442C5.01422 12.102 4.87745 12.9384 5.10747 13.7119C5.35833 14.5689 6.03548 15.2346 6.8966 15.4709C7.56766 15.6599 8.2864 15.5735 8.89354 15.2308C9.50068 14.8881 9.94608 14.3174 10.131 13.6452" stroke="#161924" stroke-width="1.5" stroke-linecap="round" stroke-linejoin="round"/>
<path d="M14.3311 11.1164C15.3376 11.2554 16.2504 11.7811 16.8758 12.582C17.0747 12.8365 17.3813 12.9833 17.7044 12.9785C18.0274 12.9738 18.3296 12.8182 18.521 12.558C18.9855 11.898 19.1222 11.0617 18.8922 10.2881C18.6413 9.43113 17.9642 8.76542 17.1031 8.52919C16.432 8.34015 15.7133 8.42654 15.1061 8.76924C14.499 9.11193 14.0536 9.68262 13.8687 10.3548" stroke="#161924" stroke-width="1.5" stroke-linecap="round" stroke-linejoin="round"/>
</svg>
