<svg width="24" height="24" viewBox="0 0 24 24" fill="none" xmlns="http://www.w3.org/2000/svg">
<path d="M11 12H8C7.44772 12 7 12.4477 7 13V21" stroke="#161924" stroke-width="1.5" stroke-linecap="round" stroke-linejoin="round"/>
<path d="M9 16.5H7" stroke="#161924" stroke-width="1.5" stroke-linecap="round" stroke-linejoin="round"/>
<path d="M10 8H14" stroke="#161924" stroke-width="1.5" stroke-linecap="round" stroke-linejoin="round"/>
<path fill-rule="evenodd" clip-rule="evenodd" d="M19 19.5H15V20C15 20.5523 14.5523 21 14 21H13C12.4477 21 12 20.5523 12 20V18.25C12 17.2835 12.7835 16.5 13.75 16.5H20.25C21.2165 16.5 22 17.2835 22 18.25V20C22 20.5523 21.5523 21 21 21H20C19.4477 21 19 20.5523 19 20V19.5Z" stroke="#161924" stroke-width="1.5" stroke-linecap="round" stroke-linejoin="round"/>
<path d="M13.1392 16.6157L13.7141 14.1583C13.8728 13.4798 14.4778 13 15.1746 13H18.8251C19.5219 13 20.127 13.4798 20.2857 14.1583L20.8606 16.6157" stroke="#161924" stroke-width="1.5" stroke-linecap="round" stroke-linejoin="round"/>
<path d="M13.2391 16.1225L12 15.5" stroke="#161924" stroke-width="1.5" stroke-linecap="round" stroke-linejoin="round"/>
<path d="M20.7607 16.1225L21.9999 15.5" stroke="#161924" stroke-width="1.5" stroke-linecap="round" stroke-linejoin="round"/>
<path d="M9 21H5C3.89543 21 3 20.1046 3 19V8.70044C2.99999 7.59256 3.61057 6.57485 4.58809 6.05344L10.5881 2.85302C11.4705 2.38233 12.5295 2.38233 13.4119 2.85302L19.4119 6.05344C20.3894 6.57485 21 7.59256 21 8.70044V10" stroke="#161924" stroke-width="1.5" stroke-linecap="round" stroke-linejoin="round"/>
</svg>
