<svg width="24" height="24" viewBox="0 0 24 24" fill="none" xmlns="http://www.w3.org/2000/svg">
<path d="M17 18C17 19.6569 15.6569 21 14 21H10C8.34315 21 7 19.6569 7 18" stroke="#161924" stroke-width="1.5" stroke-linecap="round" stroke-linejoin="round"/>
<path d="M7 18V14" stroke="#161924" stroke-width="1.5" stroke-linecap="round" stroke-linejoin="round"/>
<path d="M17 14V18" stroke="#161924" stroke-width="1.5" stroke-linecap="round" stroke-linejoin="round"/>
<path d="M19 11L17 14" stroke="#161924" stroke-width="1.5" stroke-linecap="round" stroke-linejoin="round"/>
<path d="M5 11L7 14" stroke="#161924" stroke-width="1.5" stroke-linecap="round" stroke-linejoin="round"/>
<path d="M14.5 14C12.9 14.6667 11.1 14.6667 9.5 14" stroke="#161924" stroke-width="1.5" stroke-linecap="round" stroke-linejoin="round"/>
<path d="M17 9V5.38854C16.9971 4.48089 16.3878 3.68717 15.5117 3.44982C13.209 2.85006 10.791 2.85006 8.48828 3.44982C7.61221 3.68717 7.0029 4.48089 7 5.38854V9" stroke="#161924" stroke-width="1.5" stroke-linecap="round" stroke-linejoin="round"/>
<path d="M9.5 8.00005L14.5 7.99995" stroke="#161924" stroke-width="1.5" stroke-linecap="round" stroke-linejoin="round"/>
</svg>
