<svg width="24" height="24" viewBox="0 0 24 24" fill="none" xmlns="http://www.w3.org/2000/svg">
<circle cx="12" cy="12" r="10" stroke="#161924" stroke-width="1.5" stroke-linecap="round" stroke-linejoin="round"/>
<path fill-rule="evenodd" clip-rule="evenodd" d="M14 14.5H10V15C10 15.5523 9.55228 16 9 16H8C7.44772 16 7 15.5523 7 15V13.25C7 12.2835 7.7835 11.5 8.75 11.5H15.25C16.2165 11.5 17 12.2835 17 13.25V15C17 15.5523 16.5523 16 16 16H15C14.4477 16 14 15.5523 14 15V14.5Z" stroke="#161924" stroke-width="1.5" stroke-linecap="round" stroke-linejoin="round"/>
<path d="M15.8593 11.6094L15.2859 9.15831C15.1272 8.47984 14.5222 8 13.8254 8H10.1748C9.47805 8 8.873 8.47984 8.71428 9.15831L8.14087 11.6094" stroke="#161924" stroke-width="1.5" stroke-linecap="round" stroke-linejoin="round"/>
<path d="M15.7471 11.1294L17 10.5" stroke="#161924" stroke-width="1.5" stroke-linecap="round" stroke-linejoin="round"/>
<path d="M8.25293 11.1294L7 10.5" stroke="#161924" stroke-width="1.5" stroke-linecap="round" stroke-linejoin="round"/>
</svg>
