<svg width="24" height="24" viewBox="0 0 24 24" fill="none" xmlns="http://www.w3.org/2000/svg">
<path fill-rule="evenodd" clip-rule="evenodd" d="M14 14.5H10V15C10 15.5523 9.55228 16 9 16H8C7.44772 16 7 15.5523 7 15V13.25C7 12.2835 7.7835 11.5 8.75 11.5H15.25C16.2165 11.5 17 12.2835 17 13.25V15C17 15.5523 16.5523 16 16 16H15C14.4477 16 14 15.5523 14 15V14.5Z" stroke="#161924" stroke-width="1.5" stroke-linecap="round" stroke-linejoin="round"/>
<path d="M15.8591 11.6094L15.2857 9.15831C15.127 8.47984 14.5219 8 13.8251 8H10.1746C9.4778 8 8.87276 8.47984 8.71403 9.15831L8.14062 11.6094" stroke="#161924" stroke-width="1.5" stroke-linecap="round" stroke-linejoin="round"/>
<path d="M15.7471 11.1294L17 10.5" stroke="#161924" stroke-width="1.5" stroke-linecap="round" stroke-linejoin="round"/>
<path d="M8.25293 11.1294L7 10.5" stroke="#161924" stroke-width="1.5" stroke-linecap="round" stroke-linejoin="round"/>
<path d="M16 21H18C19.6569 21 21 19.6569 21 18V16" stroke="#161924" stroke-width="1.5" stroke-linecap="round" stroke-linejoin="round"/>
<path d="M16 3H18C19.6569 3 21 4.34315 21 6V8" stroke="#161924" stroke-width="1.5" stroke-linecap="round" stroke-linejoin="round"/>
<path d="M3 16V18C3 19.6569 4.34315 21 6 21H8" stroke="#161924" stroke-width="1.5" stroke-linecap="round" stroke-linejoin="round"/>
<path d="M3 8V6C3 4.34315 4.34315 3 6 3H8" stroke="#161924" stroke-width="1.5" stroke-linecap="round" stroke-linejoin="round"/>
</svg>
