<svg width="24" height="24" viewBox="0 0 24 24" fill="none" xmlns="http://www.w3.org/2000/svg">
<path d="M8.24864 11.4998H6.2478" stroke="#161924" stroke-width="1.5" stroke-linecap="round" stroke-linejoin="round"/>
<path d="M17.8855 8.29247L20.0034 7.23303" stroke="#161924" stroke-width="1.5" stroke-linecap="round" stroke-linejoin="round"/>
<path d="M5.11522 8.29247L2.99634 7.23303" stroke="#161924" stroke-width="1.5" stroke-linecap="round" stroke-linejoin="round"/>
<path d="M17.9527 8.6541L16.9885 4.54048C16.7765 3.63585 15.9696 2.99622 15.0405 2.99622H7.95929C7.03015 2.99622 6.22327 3.63585 6.01125 4.54048L5.04712 8.6541" stroke="#161924" stroke-width="1.5" stroke-linecap="round" stroke-linejoin="round"/>
<path d="M20.0034 12V11.4998C20.0034 9.84224 18.6597 8.49854 17.0022 8.49854H5.99759C4.34004 8.49854 2.99634 9.84224 2.99634 11.4998V16.0017C2.99634 16.5542 3.44424 17.0021 3.99675 17.0021H6.23369C6.7862 17.0021 7.2341 16.5542 7.2341 16.0017V14.501H11.9711" stroke="#161924" stroke-width="1.5" stroke-linecap="round" stroke-linejoin="round"/>
<path d="M14.7512 11.4998H16.7521" stroke="#161924" stroke-width="1.5" stroke-linecap="round" stroke-linejoin="round"/>
<path fill-rule="evenodd" clip-rule="evenodd" d="M18.0027 21.0038C18.0027 19.07 16.435 17.5023 14.5012 17.5023C16.435 17.5023 18.0027 15.9347 18.0027 14.0009C18.0027 15.9347 19.5703 17.5023 21.5041 17.5023C19.5703 17.5023 18.0027 19.07 18.0027 21.0038Z" stroke="#161924" stroke-width="1.5" stroke-linecap="round" stroke-linejoin="round"/>
</svg>
