<svg width="24" height="24" viewBox="0 0 24 24" fill="none" xmlns="http://www.w3.org/2000/svg">
<path d="M8.24839 11.4998H6.24756" stroke="#161924" stroke-width="1.5" stroke-linecap="round" stroke-linejoin="round"/>
<path d="M17.8857 8.29247L20.0036 7.23303" stroke="#161924" stroke-width="1.5" stroke-linecap="round" stroke-linejoin="round"/>
<path d="M5.11546 8.29247L2.99658 7.23303" stroke="#161924" stroke-width="1.5" stroke-linecap="round" stroke-linejoin="round"/>
<path d="M17.9529 8.6541L16.9888 4.54048C16.7767 3.63585 15.9699 2.99622 15.0407 2.99622H7.95954C7.0304 2.99622 6.22352 3.63585 6.01149 4.54048L5.04736 8.6541" stroke="#161924" stroke-width="1.5" stroke-linecap="round" stroke-linejoin="round"/>
<path d="M20.0037 12V11.4998C20.0037 9.84224 18.66 8.49854 17.0024 8.49854H5.99783C4.34029 8.49854 2.99658 9.84224 2.99658 11.4998V16.0017C2.99658 16.5542 3.44448 17.0021 3.997 17.0021H6.23393C6.78645 17.0021 7.23435 16.5542 7.23435 16.0017V14.501H10.9999" stroke="#161924" stroke-width="1.5" stroke-linecap="round" stroke-linejoin="round"/>
<path d="M14.7515 11.4998H16.7523" stroke="#161924" stroke-width="1.5" stroke-linecap="round" stroke-linejoin="round"/>
<path d="M14.0983 17.718L12.7582 19.0618C12.5936 19.2279 12.501 19.4521 12.5005 19.6859V20.6211C12.5005 21.1087 12.8957 21.504 13.3833 21.504H14.3225C14.5569 21.5042 14.7816 21.4107 14.9466 21.2442L16.2821 19.9048" stroke="#161924" stroke-width="1.5" stroke-linecap="round" stroke-linejoin="round"/>
<path d="M14.0983 17.718C13.7727 16.409 14.3602 15.0436 15.5345 14.3801C16.7089 13.7166 18.1817 13.918 19.1348 14.8724C20.0879 15.8269 20.2873 17.2999 19.6221 18.4734C18.9569 19.6468 17.5907 20.2324 16.2822 19.9049" stroke="#161924" stroke-width="1.5" stroke-linecap="round" stroke-linejoin="round"/>
<path d="M17.0522 17.0022C17.0521 17.0298 17.0297 17.0521 17.0021 17.0521C16.9745 17.0521 16.9521 17.0297 16.9521 17.0021C16.9521 16.9745 16.9745 16.9521 17.0021 16.9521C17.0154 16.9521 17.0281 16.9573 17.0375 16.9667C17.0469 16.9761 17.0522 16.9889 17.0522 17.0022" stroke="#161924" stroke-width="1.5" stroke-linecap="round" stroke-linejoin="round"/>
</svg>
