<svg width="24" height="24" viewBox="0 0 24 24" fill="none" xmlns="http://www.w3.org/2000/svg">
<path d="M16.8022 12.6403C16.8022 11.7563 16.0856 11.0396 15.2016 11.0396H8.79891C7.91489 11.0396 7.19824 11.7563 7.19824 12.6403" stroke="#161924" stroke-width="1.5" stroke-linecap="round" stroke-linejoin="round"/>
<path d="M7.19824 12.6403V14.7011C7.19824 15.1431 7.55656 15.5015 7.99858 15.5015H9.19908C9.64109 15.5015 9.99941 15.1431 9.99941 14.7011V14.1721H14.0011V14.7011C14.0011 15.1431 14.3594 15.5015 14.8014 15.5015H16.0019C16.4439 15.5015 16.8022 15.1431 16.8022 14.7011V12.6403" stroke="#161924" stroke-width="1.5" stroke-linecap="round" stroke-linejoin="round"/>
<path d="M15.6055 10.9892L16.802 10.3913" stroke="#161924" stroke-width="1.5" stroke-linecap="round" stroke-linejoin="round"/>
<path d="M8.39874 10.9892L7.19824 10.3913" stroke="#161924" stroke-width="1.5" stroke-linecap="round" stroke-linejoin="round"/>
<path d="M10.0536 7.99835C9.49804 7.99975 9.01604 8.38211 8.88827 8.92274L8.38086 11.0916L8.88827 8.92274C9.01604 8.38211 9.49804 7.99975 10.0536 7.99835H13.9464C14.5019 7.99975 14.9839 8.38211 15.1117 8.92274L15.6191 11.0916" stroke="#161924" stroke-width="1.5" stroke-linecap="round" stroke-linejoin="round"/>
<path d="M20.5036 17.7524L18.5027 19.7532L17.3022 18.5527" stroke="#161924" stroke-width="1.5" stroke-linecap="round" stroke-linejoin="round"/>
<path d="M14.0011 20.773C10.0752 21.678 6.02459 19.8734 4.07191 16.3494C2.11923 12.8254 2.73672 8.43416 5.58556 5.58532C8.4344 2.73648 12.8256 2.11898 16.3496 4.07166C19.8737 6.02434 21.6783 10.075 20.7732 14.0008" stroke="#161924" stroke-width="1.5" stroke-linecap="round" stroke-linejoin="round"/>
</svg>
