<svg width="24" height="24" viewBox="0 0 24 24" fill="none" xmlns="http://www.w3.org/2000/svg">
<path d="M8.24839 11.4998H6.24756" stroke="#161924" stroke-width="1.5" stroke-linecap="round" stroke-linejoin="round"/>
<path d="M17.8857 8.29247L20.0036 7.23303" stroke="#161924" stroke-width="1.5" stroke-linecap="round" stroke-linejoin="round"/>
<path d="M5.11546 8.29247L2.99658 7.23303" stroke="#161924" stroke-width="1.5" stroke-linecap="round" stroke-linejoin="round"/>
<path d="M17.9529 8.6541L16.9888 4.54048C16.7767 3.63585 15.9699 2.99622 15.0407 2.99622H7.95954C7.0304 2.99622 6.22352 3.63585 6.01149 4.54048L5.04736 8.6541" stroke="#161924" stroke-width="1.5" stroke-linecap="round" stroke-linejoin="round"/>
<path d="M20.0037 12V11.4998C20.0037 9.84224 18.66 8.49854 17.0024 8.49854H5.99783C4.34029 8.49854 2.99658 9.84224 2.99658 11.4998V16.0017C2.99658 16.5542 3.44448 17.0021 3.997 17.0021H6.23393C6.78645 17.0021 7.23435 16.5542 7.23435 16.0017V14.501H11.9713" stroke="#161924" stroke-width="1.5" stroke-linecap="round" stroke-linejoin="round"/>
<path d="M19.6814 15.3899C20.8664 16.575 20.8664 18.4963 19.6813 19.6814C18.4963 20.8665 16.5749 20.8665 15.3898 19.6814C14.2047 18.4963 14.2047 16.575 15.3898 15.3899C15.9589 14.8208 16.7307 14.501 17.5356 14.501C18.3404 14.501 19.1123 14.8208 19.6814 15.3899V15.3899V15.3899" stroke="#161924" stroke-width="1.5" stroke-linecap="round" stroke-linejoin="round"/>
<path d="M19.7031 19.7032L21.0037 21.0037" stroke="#161924" stroke-width="1.5" stroke-linecap="round" stroke-linejoin="round"/>
<path d="M14.7515 11.4998H16.7523" stroke="#161924" stroke-width="1.5" stroke-linecap="round" stroke-linejoin="round"/>
</svg>
