<svg width="24" height="24" viewBox="0 0 24 24" fill="none" xmlns="http://www.w3.org/2000/svg">
<path d="M20.0037 9.98294V8.60961C20.0037 7.883 19.6097 7.21349 18.9746 6.8606L12.4724 3.24809C11.868 2.91234 11.1332 2.91234 10.5289 3.24809L4.02568 6.86116C3.39051 7.21405 2.99658 7.88356 2.99658 8.61018V20.0033H7.99867V13.0004H10.9999" stroke="#161924" stroke-width="1.5" stroke-linecap="round" stroke-linejoin="round"/>
<path fill-rule="evenodd" clip-rule="evenodd" d="M19.0029 20.5035H15.0013V21.0037C15.0013 21.5562 14.5533 22.0041 14.0008 22.0041H13.0004C12.4479 22.0041 12 21.5562 12 21.0037V19.253C12 18.2861 12.7838 17.5023 13.7507 17.5023H20.2534C21.2203 17.5023 22.0042 18.2861 22.0042 19.253V21.0037C22.0042 21.5562 21.5563 22.0041 21.0037 22.0041H20.0033C19.4508 22.0041 19.0029 21.5562 19.0029 21.0037V20.5035Z" stroke="#161924" stroke-width="1.5" stroke-linecap="round" stroke-linejoin="round"/>
<path d="M13.1396 17.6181L13.7148 15.1596C13.8736 14.4809 14.4789 14.0009 15.176 14.0009H18.828C19.5251 14.0009 20.1304 14.4809 20.2892 15.1596L20.8643 17.6181" stroke="#161924" stroke-width="1.5" stroke-linecap="round" stroke-linejoin="round"/>
<path d="M13.2396 17.1246L12 16.5019" stroke="#161924" stroke-width="1.5" stroke-linecap="round" stroke-linejoin="round"/>
<path d="M20.7646 17.1246L22.0043 16.5019" stroke="#161924" stroke-width="1.5" stroke-linecap="round" stroke-linejoin="round"/>
</svg>
