<svg width="24" height="24" viewBox="0 0 24 24" fill="none" xmlns="http://www.w3.org/2000/svg">
<path fill-rule="evenodd" clip-rule="evenodd" d="M14.001 13.0004H9.9993V13.5006C9.9993 14.0531 9.55139 14.501 8.99888 14.501H7.99846C7.44595 14.501 6.99805 14.0531 6.99805 13.5006V11.7499C6.99805 10.783 7.78188 9.99915 8.74878 9.99915H15.2515C16.2184 9.99915 17.0022 10.783 17.0022 11.7499V13.5006C17.0022 14.0531 16.5543 14.501 16.0018 14.501H15.0014C14.4489 14.501 14.001 14.0531 14.001 13.5006V13.0004Z" stroke="#161924" stroke-width="1.5" stroke-linecap="round" stroke-linejoin="round"/>
<path d="M8.1377 10.1149L8.71283 7.65647C8.87163 6.97772 9.47692 6.49768 10.174 6.49768H13.826C14.5231 6.49768 15.1284 6.97772 15.2872 7.65647L15.8624 10.1149" stroke="#161924" stroke-width="1.5" stroke-linecap="round" stroke-linejoin="round"/>
<path d="M8.23769 9.62152L6.99805 8.99877" stroke="#161924" stroke-width="1.5" stroke-linecap="round" stroke-linejoin="round"/>
<path d="M15.7627 9.62152L17.0023 8.99877" stroke="#161924" stroke-width="1.5" stroke-linecap="round" stroke-linejoin="round"/>
<path fill-rule="evenodd" clip-rule="evenodd" d="M17.9733 4.97868V4.97868C21.2725 8.2934 21.2725 13.6511 17.9733 16.9658V16.9658L14.4761 20.4748C13.8224 21.1316 12.9346 21.5018 12.008 21.504C11.0813 21.5062 10.1918 21.1402 9.53501 20.4865L9.52333 20.4748L6.0261 16.9659C2.727 13.6511 2.72698 8.29346 6.02604 4.97868V4.97868C7.60287 3.39437 9.74449 2.50136 11.9798 2.49606C14.215 2.4908 16.3608 3.3737 17.9451 4.95054L17.9733 4.97868H17.9733Z" stroke="#161924" stroke-width="1.5" stroke-linecap="round" stroke-linejoin="round"/>
</svg>
