<svg width="24" height="24" viewBox="0 0 24 24" fill="none" xmlns="http://www.w3.org/2000/svg">
<path d="M18.0026 14.0008C20.2127 14.0008 22.0043 15.7924 22.0043 18.0025C22.0043 20.2125 20.2127 22.0042 18.0026 22.0042C15.7926 22.0042 14.001 20.2125 14.001 18.0025C14.001 15.7924 15.7926 14.0008 18.0026 14.0008" stroke="#161924" stroke-width="1.5" stroke-linecap="round" stroke-linejoin="round"/>
<path d="M19.3514 17.3292L17.6667 19.0189L16.6543 18.0025" stroke="#161924" stroke-width="1.5" stroke-linecap="round" stroke-linejoin="round"/>
<path d="M8.3225 11.4708H6.20361" stroke="#161924" stroke-width="1.5" stroke-linecap="round" stroke-linejoin="round"/>
<path d="M16.8552 11.4708H14.7363" stroke="#161924" stroke-width="1.5" stroke-linecap="round" stroke-linejoin="round"/>
<path d="M17.9146 8.29244L20.0324 7.233" stroke="#161924" stroke-width="1.5" stroke-linecap="round" stroke-linejoin="round"/>
<path d="M5.14427 8.29244L3.02539 7.233" stroke="#161924" stroke-width="1.5" stroke-linecap="round" stroke-linejoin="round"/>
<path d="M8.0824 2.99625C7.09785 2.99635 6.24296 3.6743 6.01854 4.63293L5.11816 8.47453L6.01854 4.63293C6.24296 3.6743 7.09785 2.99635 8.0824 2.99625H14.9763C15.9607 2.99608 16.8155 3.67424 17.0391 4.63293L17.9395 8.47453" stroke="#161924" stroke-width="1.5" stroke-linecap="round" stroke-linejoin="round"/>
<path d="M20.0325 12V11.2097C20.0325 9.64596 18.766 8.3777 17.2023 8.37549H5.86057C5.10873 8.37522 4.38758 8.67371 3.85586 9.20525C3.32413 9.73679 3.02539 10.4578 3.02539 11.2097V16.0017C3.02539 16.5542 3.47329 17.0021 4.02581 17.0021H6.26274C6.81525 17.0021 7.26316 16.5542 7.26316 16.0017V14.6481H12.0001" stroke="#161924" stroke-width="1.5" stroke-linecap="round" stroke-linejoin="round"/>
</svg>
