<svg width="24" height="24" viewBox="0 0 24 24" fill="none" xmlns="http://www.w3.org/2000/svg">
<path fill-rule="evenodd" clip-rule="evenodd" d="M18.0024 19.5031H14.0008V20.0034C14.0008 20.5559 13.5529 21.0038 13.0003 21.0038H11.9999C11.4474 21.0038 10.9995 20.5559 10.9995 20.0034V18.2526C10.9995 17.2857 11.7833 16.5019 12.7502 16.5019H19.2529C20.2198 16.5019 21.0037 17.2857 21.0037 18.2526V20.0034C21.0037 20.5559 20.5558 21.0038 20.0033 21.0038H19.0028C18.4503 21.0038 18.0024 20.5559 18.0024 20.0034V19.5031Z" stroke="#161924" stroke-width="1.5" stroke-linecap="round" stroke-linejoin="round"/>
<path d="M12.1396 16.6177L12.7148 14.1592C12.8736 13.4805 13.4789 13.0004 14.176 13.0004H17.828C18.5251 13.0004 19.1304 13.4805 19.2892 14.1592L19.8643 16.6177" stroke="#161924" stroke-width="1.5" stroke-linecap="round" stroke-linejoin="round"/>
<path d="M12.2392 16.1242L10.9995 15.5015" stroke="#161924" stroke-width="1.5" stroke-linecap="round" stroke-linejoin="round"/>
<path d="M19.7642 16.1242L21.0038 15.5015" stroke="#161924" stroke-width="1.5" stroke-linecap="round" stroke-linejoin="round"/>
<path d="M7.99826 6.99792V11.4998" stroke="#161924" stroke-width="1.5" stroke-linecap="round" stroke-linejoin="round"/>
<path d="M7.99854 6.99792H9.57419C9.95228 6.99792 10.3149 7.14812 10.5822 7.41547C10.8496 7.68282 10.9998 8.04543 10.9998 8.42352V8.42352C10.9998 9.21085 10.3615 9.84911 9.57419 9.84911H7.99854" stroke="#161924" stroke-width="1.5" stroke-linecap="round" stroke-linejoin="round"/>
<path d="M16.0016 9.02221C16.004 7.15958 15.2661 5.37233 13.9505 4.05384H13.9504L13.9271 4.03039C11.1746 1.31437 6.74326 1.33808 4.01998 4.08339C1.29671 6.82869 1.3087 11.2601 4.04681 13.9906L7.04831 17.0021" stroke="#161924" stroke-width="1.5" stroke-linecap="round" stroke-linejoin="round"/>
</svg>
