<svg width="24" height="24" viewBox="0 0 24 24" fill="none" xmlns="http://www.w3.org/2000/svg">
<path d="M21 13V16C21 18.7614 18.7614 21 16 21V21" stroke="#161924" stroke-width="1.5" stroke-linecap="round" stroke-linejoin="round"/>
<path d="M10 3H8C5.23858 3 3 5.23858 3 8V10" stroke="#161924" stroke-width="1.5" stroke-linecap="round" stroke-linejoin="round"/>
<path fill-rule="evenodd" clip-rule="evenodd" d="M10 19.5H6V20C6 20.5523 5.55228 21 5 21H4C3.44772 21 3 20.5523 3 20V18.25C3 17.2835 3.7835 16.5 4.75 16.5H11.25C12.2165 16.5 13 17.2835 13 18.25V20C13 20.5523 12.5523 21 12 21H11C10.4477 21 10 20.5523 10 20V19.5Z" stroke="#161924" stroke-width="1.5" stroke-linecap="round" stroke-linejoin="round"/>
<path d="M4.13916 16.6157L4.71406 14.1583C4.87279 13.4798 5.47783 13 6.17462 13H9.82514C10.5219 13 11.127 13.4798 11.2857 14.1583L11.8606 16.6157" stroke="#161924" stroke-width="1.5" stroke-linecap="round" stroke-linejoin="round"/>
<path d="M4.23915 16.1225L3 15.5" stroke="#161924" stroke-width="1.5" stroke-linecap="round" stroke-linejoin="round"/>
<path d="M11.7607 16.1225L12.9999 15.5" stroke="#161924" stroke-width="1.5" stroke-linecap="round" stroke-linejoin="round"/>
<circle cx="17.5" cy="6" r="4" stroke="#161924" stroke-width="1.5" stroke-linecap="round" stroke-linejoin="round"/>
<path d="M17.25 4.59998V6.24998H18.9" stroke="#161924" stroke-width="1.5" stroke-linecap="round" stroke-linejoin="round"/>
</svg>
