<svg width="24" height="24" viewBox="0 0 24 24" fill="none" xmlns="http://www.w3.org/2000/svg">
<path fill-rule="evenodd" clip-rule="evenodd" d="M4 12.562V9.078C4 7.973 4.895 7.078 6 7.078H18C19.105 7.078 20 7.973 20 9.078V12.562V14C20 14.552 19.552 15 19 15H17C16.448 15 16 14.552 16 14V13H8V14C8 14.552 7.552 15 7 15H5C4.448 15 4 14.552 4 14V12.562Z" stroke="#161924" stroke-width="1.5" stroke-linecap="round" stroke-linejoin="round"/>
<path d="M6 7.078L6.826 3.544C7.038 2.64 7.845 2 8.774 2H15.313C16.26 2 17.077 2.664 17.271 3.59L18 7.078" stroke="#161924" stroke-width="1.5" stroke-linecap="round" stroke-linejoin="round"/>
<path d="M16.9399 10H14.9399" stroke="#161924" stroke-width="1.5" stroke-linecap="round" stroke-linejoin="round"/>
<path d="M9 10H7" stroke="#161924" stroke-width="1.5" stroke-linecap="round" stroke-linejoin="round"/>
<path d="M18 7L20 6" stroke="#161924" stroke-width="1.5" stroke-linecap="round" stroke-linejoin="round"/>
<path d="M6 7L4 6" stroke="#161924" stroke-width="1.5" stroke-linecap="round" stroke-linejoin="round"/>
<path d="M9.57701 22C10.347 21.448 10.347 20.552 9.57701 20C8.80701 19.448 8.80701 18.552 9.57701 18" stroke="#161924" stroke-width="1.5" stroke-linecap="round" stroke-linejoin="round"/>
<path d="M14.423 22C15.193 21.448 15.193 20.552 14.423 20C13.653 19.448 13.653 18.552 14.423 18" stroke="#161924" stroke-width="1.5" stroke-linecap="round" stroke-linejoin="round"/>
</svg>
