<svg width="24" height="24" viewBox="0 0 24 24" fill="none" xmlns="http://www.w3.org/2000/svg">
<path d="M10.667 21L12 19.667L10.667 18.334" stroke="#161924" stroke-width="1.5" stroke-linecap="round" stroke-linejoin="round"/>
<path d="M20.8889 14.006C21.5179 14.3885 21.9296 15.0452 21.9999 15.778C21.9999 17.414 19.3999 18.811 15.7219 19.386" stroke="#161924" stroke-width="1.5" stroke-linecap="round" stroke-linejoin="round"/>
<path d="M3.111 14.006C2.48205 14.3885 2.07031 15.0452 2 15.778C2 17.926 6.477 19.667 12 19.667" stroke="#161924" stroke-width="1.5" stroke-linecap="round" stroke-linejoin="round"/>
<path fill-rule="evenodd" clip-rule="evenodd" d="M14.4 11H9.6V11.8C9.6 12.4627 9.06274 13 8.4 13H7.2C6.53726 13 6 12.4627 6 11.8V9.1C6 7.9402 6.9402 7 8.1 7H15.9C16.457 7 16.9911 7.22125 17.3849 7.61508C17.7788 8.0089 18 8.54305 18 9.1V11.8C18 12.4627 17.4627 13 16.8 13H15.6C14.9373 13 14.4 12.4627 14.4 11.8V11Z" stroke="#161924" stroke-width="1.5" stroke-linecap="round" stroke-linejoin="round"/>
<path d="M16.58 7.11263L15.9431 4.39C15.7526 3.57581 15.0266 3 14.1904 3H9.80979C8.97362 3 8.24756 3.57581 8.0571 4.39L7.42017 7.11263" stroke="#161924" stroke-width="1.5" stroke-linecap="round" stroke-linejoin="round"/>
<path d="M7.5036 6.75537L6 6" stroke="#161924" stroke-width="1.5" stroke-linecap="round" stroke-linejoin="round"/>
<path d="M16.4963 6.75537L17.9999 6" stroke="#161924" stroke-width="1.5" stroke-linecap="round" stroke-linejoin="round"/>
</svg>
