<svg width="24" height="24" viewBox="0 0 24 24" fill="none" xmlns="http://www.w3.org/2000/svg">
<path d="M14.0969 6C13.7159 5.408 12.9229 5 11.9999 5C11.0769 5 10.2839 5.408 9.89795 6" stroke="#161924" stroke-width="1.5" stroke-linecap="round" stroke-linejoin="round"/>
<path d="M16.6502 3.972C15.6262 2.781 13.9272 2 11.9992 2C10.0692 2 8.36921 2.783 7.34521 3.975" stroke="#161924" stroke-width="1.5" stroke-linecap="round" stroke-linejoin="round"/>
<path fill-rule="evenodd" clip-rule="evenodd" d="M4 19.562V16.078C4 14.973 4.895 14.078 6 14.078H18C19.105 14.078 20 14.973 20 16.078V19.562V21C20 21.552 19.552 22 19 22H17C16.448 22 16 21.552 16 21V20H8V21C8 21.552 7.552 22 7 22H5C4.448 22 4 21.552 4 21V19.562V19.562Z" stroke="#161924" stroke-width="1.5" stroke-linecap="round" stroke-linejoin="round"/>
<path d="M6 14.078L6.826 10.544C7.038 9.64 7.845 9 8.774 9H15.313C16.26 9 17.077 9.664 17.271 10.59L18 14.078" stroke="#161924" stroke-width="1.5" stroke-linecap="round" stroke-linejoin="round"/>
<path d="M16.9399 17H14.9399" stroke="#161924" stroke-width="1.5" stroke-linecap="round" stroke-linejoin="round"/>
<path d="M9 17H7" stroke="#161924" stroke-width="1.5" stroke-linecap="round" stroke-linejoin="round"/>
<path d="M18 14L20 13" stroke="#161924" stroke-width="1.5" stroke-linecap="round" stroke-linejoin="round"/>
<path d="M6 14L4 13" stroke="#161924" stroke-width="1.5" stroke-linecap="round" stroke-linejoin="round"/>
</svg>
