<svg width="24" height="24" viewBox="0 0 24 24" fill="none" xmlns="http://www.w3.org/2000/svg">
<path d="M7.05713 11.6469L8.46972 11.6539V11.6539L9.34008 12.9104C9.71363 13.4502 10.3283 13.7725 10.9848 13.7727H13.0156C13.6721 13.7725 14.2867 13.4502 14.6603 12.9104L15.5307 11.6539V11.6539L16.9432 11.6469" stroke="#161924" stroke-width="1.5" stroke-linecap="round" stroke-linejoin="round"/>
<path fill-rule="evenodd" clip-rule="evenodd" d="M13.0296 18.0025H10.9708C9.58948 18.0025 8.46973 16.8827 8.46973 15.5015V7.99833C8.46973 6.8933 9.36553 5.9975 10.4706 5.9975H13.5298C14.6349 5.9975 15.5307 6.8933 15.5307 7.99833V15.5015C15.5307 16.8827 14.4109 18.0025 13.0296 18.0025V18.0025Z" stroke="#161924" stroke-width="1.5" stroke-linecap="round" stroke-linejoin="round"/>
<rect x="2.99658" y="2.99625" width="18.0075" height="18.0075" rx="5" stroke="#161924" stroke-width="1.5" stroke-linecap="round" stroke-linejoin="round"/>
<path d="M15.5307 8.82266H8.46973" stroke="#161924" stroke-width="1.5" stroke-linecap="round" stroke-linejoin="round"/>
</svg>
