<svg width="24" height="24" viewBox="0 0 24 24" fill="none" xmlns="http://www.w3.org/2000/svg">
<path d="M2.99658 8.99872V5.99747C2.99658 4.33992 4.34029 2.99622 5.99783 2.99622H10.9999" stroke="#161924" stroke-width="1.5" stroke-linecap="round" stroke-linejoin="round"/>
<path d="M21.0041 12V18.0025C21.0041 19.66 19.6604 21.0037 18.0029 21.0037H17.0024" stroke="#161924" stroke-width="1.5" stroke-linecap="round" stroke-linejoin="round"/>
<circle cx="18.0026" cy="5.99752" r="4.00167" stroke="#161924" stroke-width="1.5" stroke-linecap="round" stroke-linejoin="round"/>
<path d="M19.3367 5.33057L17.6702 6.99789L16.6689 5.99747" stroke="#161924" stroke-width="1.5" stroke-linecap="round" stroke-linejoin="round"/>
<path fill-rule="evenodd" clip-rule="evenodd" d="M14.0011 16.802V20.0033C14.0011 20.5558 13.5532 21.0037 13.0007 21.0037H12.0103C11.4577 21.0037 11.0098 20.5558 11.0098 20.0033V19.342H4.98734V20.0033C4.98734 20.5558 4.53944 21.0037 3.98692 21.0037H2.99651C2.444 21.0037 1.99609 20.5558 1.99609 20.0033V16.802C1.99609 15.697 2.8919 14.8011 3.99693 14.8011H12.0003C13.1053 14.8011 14.0011 15.697 14.0011 16.802Z" stroke="#161924" stroke-width="1.5" stroke-linecap="round" stroke-linejoin="round"/>
<path d="M5.9977 17.0021H4.49707" stroke="#161924" stroke-width="1.5" stroke-linecap="round" stroke-linejoin="round"/>
<path d="M11.5001 17.0021H9.99951" stroke="#161924" stroke-width="1.5" stroke-linecap="round" stroke-linejoin="round"/>
<path d="M12.5054 14.7381L14.001 13.9908" stroke="#161924" stroke-width="1.5" stroke-linecap="round" stroke-linejoin="round"/>
<path d="M3.49672 14.7381L1.99609 13.9908" stroke="#161924" stroke-width="1.5" stroke-linecap="round" stroke-linejoin="round"/>
<path d="M5.56548 10.9996C4.87108 11.0013 4.26858 11.4793 4.10887 12.1551L3.47461 14.8662L4.10887 12.1551C4.26858 11.4793 4.87108 11.0013 5.56548 10.9996H10.4315C11.1259 11.0013 11.7284 11.4793 11.8881 12.1551L12.5224 14.8662" stroke="#161924" stroke-width="1.5" stroke-linecap="round" stroke-linejoin="round"/>
</svg>
