<svg width="24" height="24" viewBox="0 0 24 24" fill="none" xmlns="http://www.w3.org/2000/svg">
<rect x="2.99829" y="2.99625" width="18.0075" height="18.0075" rx="5" stroke="#161924" stroke-width="1.5" stroke-linecap="round" stroke-linejoin="round"/>
<path d="M18.0026 12.8003C18.0026 11.6953 17.1068 10.7995 16.0017 10.7995H7.99839C6.89336 10.7995 5.99756 11.6953 5.99756 12.8003" stroke="#161924" stroke-width="1.5" stroke-linecap="round" stroke-linejoin="round"/>
<path d="M5.99756 12.8003V16.0017C5.99756 16.5542 6.44546 17.0021 6.99798 17.0021H7.98839C8.5409 17.0021 8.9888 16.5542 8.9888 16.0017V15.3404H15.0113V16.0017C15.0113 16.5542 15.4592 17.0021 16.0117 17.0021H17.0021C17.5547 17.0021 18.0026 16.5542 18.0026 16.0017V12.8003" stroke="#161924" stroke-width="1.5" stroke-linecap="round" stroke-linejoin="round"/>
<path d="M9.73817 13.1005H8.23755" stroke="#161924" stroke-width="1.5" stroke-linecap="round" stroke-linejoin="round"/>
<path d="M15.7617 13.1005H14.2661" stroke="#161924" stroke-width="1.5" stroke-linecap="round" stroke-linejoin="round"/>
<path d="M16.509 10.7365L18.0027 9.98916" stroke="#161924" stroke-width="1.5" stroke-linecap="round" stroke-linejoin="round"/>
<path d="M7.49818 10.7365L5.99756 9.98916" stroke="#161924" stroke-width="1.5" stroke-linecap="round" stroke-linejoin="round"/>
<path d="M9.56912 6.99792C8.87472 6.99968 8.27222 7.47762 8.11251 8.15341L7.47925 10.8645L8.11251 8.15341C8.27222 7.47762 8.87472 6.99968 9.56912 6.99792H14.4351C15.1295 6.99968 15.732 7.47762 15.8918 8.15341L16.526 10.8645" stroke="#161924" stroke-width="1.5" stroke-linecap="round" stroke-linejoin="round"/>
</svg>
