<svg width="24" height="24" viewBox="0 0 24 24" fill="none" xmlns="http://www.w3.org/2000/svg">
<path d="M16.7622 15.4724H14.6433" stroke="#161924" stroke-width="1.5" stroke-linecap="round" stroke-linejoin="round"/>
<path fill-rule="evenodd" clip-rule="evenodd" d="M20.0034 19.5862V15.2113C20.0034 13.6461 18.7345 12.3772 17.1692 12.3772H5.83052C4.26524 12.3772 2.99634 13.6461 2.99634 15.2113V19.5862C2.99607 19.9622 3.14534 20.3229 3.41125 20.5889C3.67716 20.8548 4.03788 21.004 4.41393 21.0038H5.81451C6.19039 21.0038 6.55086 20.8544 6.81655 20.5885C7.08224 20.3226 7.23137 19.962 7.2311 19.5862V18.6498H15.7647V19.5862C15.7644 19.9624 15.9138 20.3233 16.1799 20.5892C16.446 20.8551 16.807 21.0043 17.1832 21.0038H18.5838C18.9602 21.0046 19.3215 20.8555 19.5878 20.5896C19.8541 20.3236 20.0037 19.9626 20.0034 19.5862Z" stroke="#161924" stroke-width="1.5" stroke-linecap="round" stroke-linejoin="round"/>
<path d="M17.9076 12.4762L17.0953 8.99875" stroke="#161924" stroke-width="1.5" stroke-linecap="round" stroke-linejoin="round"/>
<path d="M14.0011 6.99792H8.05359C7.06904 6.99803 6.21415 7.67597 5.98973 8.63461L5.08936 12.4762" stroke="#161924" stroke-width="1.5" stroke-linecap="round" stroke-linejoin="round"/>
<rect x="14.001" y="1.99582" width="7.00292" height="7.00292" rx="2" stroke="#161924" stroke-width="1.5" stroke-linecap="round" stroke-linejoin="round"/>
<path d="M18.6378 4.68494L17.1632 6.16355L16.2769 5.27418" stroke="#161924" stroke-width="1.5" stroke-linecap="round" stroke-linejoin="round"/>
<path d="M8.29247 15.4724H6.17358" stroke="#161924" stroke-width="1.5" stroke-linecap="round" stroke-linejoin="round"/>
<path d="M16.8262 15.4724H14.7073" stroke="#161924" stroke-width="1.5" stroke-linecap="round" stroke-linejoin="round"/>
<path d="M17.8845 12.2941L20.0034 11.2347" stroke="#161924" stroke-width="1.5" stroke-linecap="round" stroke-linejoin="round"/>
<path d="M5.11522 12.2941L2.99634 11.2347" stroke="#161924" stroke-width="1.5" stroke-linecap="round" stroke-linejoin="round"/>
</svg>
