<svg width="24" height="24" viewBox="0 0 24 24" fill="none" xmlns="http://www.w3.org/2000/svg">
<path d="M8.25 11.5H6.25" stroke="#161924" stroke-width="1.5" stroke-linecap="round" stroke-linejoin="round"/>
<path d="M17.8831 8.29399L20.0001 7.23499" stroke="#161924" stroke-width="1.5" stroke-linecap="round" stroke-linejoin="round"/>
<path d="M5.118 8.29399L3 7.23499" stroke="#161924" stroke-width="1.5" stroke-linecap="round" stroke-linejoin="round"/>
<path d="M17.95 8.65553L16.9862 4.54362C16.7743 3.63937 15.9678 3 15.039 3H7.96076C7.03201 3 6.22547 3.63937 6.01353 4.54362L5.0498 8.65553" stroke="#161924" stroke-width="1.5" stroke-linecap="round" stroke-linejoin="round"/>
<path d="M20 12V11.5C20 9.84315 18.6569 8.5 17 8.5H6C4.34315 8.5 3 9.84315 3 11.5V16C3 16.5523 3.44772 17 4 17H6.236C6.78828 17 7.236 16.5523 7.236 16V14.5H11" stroke="#161924" stroke-width="1.5" stroke-linecap="round" stroke-linejoin="round"/>
<path d="M14.75 11.5H16.75" stroke="#161924" stroke-width="1.5" stroke-linecap="round" stroke-linejoin="round"/>
<path fill-rule="evenodd" clip-rule="evenodd" d="M14 16.5978V18.4948C14 20.1783 16.1183 21.4244 17.0607 21.8957C17.3373 22.0349 17.6635 22.0348 17.94 21.8953C18.8827 21.4238 21 20.1805 21 18.4948V16.5978C20.9919 16.3363 20.7878 16.1229 20.5268 16.1034C19.6406 16.0221 18.7923 15.7049 18.0702 15.1847C17.7299 14.9384 17.27 14.9384 16.9298 15.1847C16.2076 15.7049 15.3594 16.0221 14.4732 16.1034C14.2122 16.1229 14.008 16.3363 14 16.5978Z" stroke="#161924" stroke-width="1.5" stroke-linecap="round" stroke-linejoin="round"/>
</svg>
