<svg width="24" height="24" viewBox="0 0 24 24" fill="none" xmlns="http://www.w3.org/2000/svg">
<path d="M8.3225 11.4708H6.20361" stroke="#161924" stroke-width="1.5" stroke-linecap="round" stroke-linejoin="round"/>
<path d="M16.8552 11.4708H14.7363" stroke="#161924" stroke-width="1.5" stroke-linecap="round" stroke-linejoin="round"/>
<path d="M17.9146 8.29244L20.0324 7.233" stroke="#161924" stroke-width="1.5" stroke-linecap="round" stroke-linejoin="round"/>
<path d="M5.14427 8.29244L3.02539 7.233" stroke="#161924" stroke-width="1.5" stroke-linecap="round" stroke-linejoin="round"/>
<path d="M8.0824 2.99625C7.09785 2.99635 6.24296 3.6743 6.01854 4.63293L5.11816 8.47453L6.01854 4.63293C6.24296 3.6743 7.09785 2.99635 8.0824 2.99625H14.9763C15.9607 2.99608 16.8155 3.67424 17.0391 4.63293L17.9395 8.47453" stroke="#161924" stroke-width="1.5" stroke-linecap="round" stroke-linejoin="round"/>
<path d="M20.0325 11.2097C20.0325 9.64596 18.766 8.3777 17.2023 8.37549H5.86057C5.10873 8.37522 4.38758 8.67371 3.85586 9.20525C3.32413 9.73679 3.02539 10.4578 3.02539 11.2097V16.0017C3.02539 16.5542 3.47329 17.0021 4.02581 17.0021H6.26274C6.81525 17.0021 7.26316 16.5542 7.26316 16.0017V14.6481H13.0005" stroke="#161924" stroke-width="1.5" stroke-linecap="round" stroke-linejoin="round"/>
<path fill-rule="evenodd" clip-rule="evenodd" d="M16.002 17.7294C16.002 19.0009 17.7837 19.9453 18.603 20.3124C18.8574 20.4273 19.149 20.4273 19.4034 20.3124C20.2227 19.9453 22.0045 19.0029 22.0045 17.7294V15.6895C22.0041 15.2681 21.7397 14.892 21.3432 14.7491L19.8155 14.1989C19.2898 14.0096 18.7146 14.0096 18.1889 14.1989L16.6632 14.7481C16.2664 14.8911 16.0019 15.2677 16.002 15.6895V17.7294Z" stroke="#161924" stroke-width="1.5" stroke-linecap="round" stroke-linejoin="round"/>
</svg>
