<svg width="24" height="24" viewBox="0 0 24 24" fill="none" xmlns="http://www.w3.org/2000/svg">
<path d="M16 16H18.5C19.8807 16 21 14.8807 21 13.5V5.5C21 4.11929 19.8807 3 18.5 3H5.5C4.11929 3 3 4.11929 3 5.5V13.5C3 14.8807 4.11929 16 5.5 16H8" stroke="#161924" stroke-width="1.5" stroke-linecap="round" stroke-linejoin="round"/>
<path d="M13.5 18V19.5C13.5 20.3284 12.8284 21 12 21V21C11.1716 21 10.5 20.3284 10.5 19.5V18" stroke="#161924" stroke-width="1.5" stroke-linecap="round" stroke-linejoin="round"/>
<path fill-rule="evenodd" clip-rule="evenodd" d="M12 11V11C14.2091 11 16 12.7909 16 15V17C16 17.5523 15.5523 18 15 18H9C8.44772 18 8 17.5523 8 17V15C8 12.7909 9.79086 11 12 11Z" stroke="#161924" stroke-width="1.5" stroke-linecap="round" stroke-linejoin="round"/>
<path d="M3 7.00001L21 6.99999" stroke="#161924" stroke-width="1.5" stroke-linecap="round" stroke-linejoin="round"/>
</svg>
