<svg width="24" height="24" viewBox="0 0 24 24" fill="none" xmlns="http://www.w3.org/2000/svg">
<path fill-rule="evenodd" clip-rule="evenodd" d="M17.6566 5.35098V5.35098C20.7808 8.48993 20.7808 13.5635 17.6566 16.7025V16.7025L14.3448 20.0254C13.0558 21.3205 10.9609 21.3255 9.66578 20.0365L9.65478 20.0254L6.34288 16.7025C3.21874 13.5635 3.21871 8.48998 6.34282 5.35098V5.35098C9.45231 2.22678 14.5057 2.21485 17.6299 5.32433L17.6566 5.35098H17.6566Z" stroke="#161924" stroke-width="1.5" stroke-linecap="round" stroke-linejoin="round"/>
<path d="M12 7.5V8.30786" stroke="#161924" stroke-width="1.5" stroke-linecap="round" stroke-linejoin="round"/>
<path d="M10 9.92356C10.1168 8.93098 11.005 8.21345 12 8.30784" stroke="#161924" stroke-width="1.5" stroke-linecap="round" stroke-linejoin="round"/>
<path d="M12 15.5V14.6921" stroke="#161924" stroke-width="1.5" stroke-linecap="round" stroke-linejoin="round"/>
<path d="M14 13.0764C13.8832 14.069 12.995 14.7865 12 14.6921" stroke="#161924" stroke-width="1.5" stroke-linecap="round" stroke-linejoin="round"/>
<path d="M13.9491 9.57109C13.6482 8.76698 12.8569 8.25415 12 8.30787" stroke="#161924" stroke-width="1.5" stroke-linecap="round" stroke-linejoin="round"/>
<path d="M10.051 13.4289C10.3519 14.233 11.1432 14.7458 12.0001 14.6921" stroke="#161924" stroke-width="1.5" stroke-linecap="round" stroke-linejoin="round"/>
<path d="M10 9.92358V9.92358C10 10.6076 10.4828 11.1966 11.1536 11.3307L12.8464 11.6693C13.5172 11.8034 14 12.3924 14 13.0764V13.0764" stroke="#161924" stroke-width="1.5" stroke-linecap="round" stroke-linejoin="round"/>
</svg>
