<svg width="24" height="24" viewBox="0 0 24 24" fill="none" xmlns="http://www.w3.org/2000/svg">
<path d="M20.9894 14.9827V18.9781C20.9894 20.0813 20.095 20.9757 18.9917 20.9757H15.9951" stroke="#161924" stroke-width="1.5" stroke-linecap="round" stroke-linejoin="round"/>
<path d="M3.00977 7.99082V4.99428C3.00977 3.89098 3.90416 2.99658 5.00746 2.99658H6.00631" stroke="#161924" stroke-width="1.5" stroke-linecap="round" stroke-linejoin="round"/>
<circle cx="14.9963" cy="7.49131" r="1.49827" stroke="#161924" stroke-width="1.5" stroke-linecap="round" stroke-linejoin="round"/>
<path d="M15.9949 11.9862H18.9914C20.0947 11.9862 20.9891 11.0918 20.9891 9.98851V4.99428C20.9891 3.89098 20.0947 2.99658 18.9914 2.99658H11.0006C9.89733 2.99658 9.00293 3.89098 9.00293 4.99428V7.99082" stroke="#161924" stroke-width="1.5" stroke-linecap="round" stroke-linejoin="round"/>
<path d="M6.50586 17.5075L9.5024 14.511" stroke="#161924" stroke-width="1.5" stroke-linecap="round" stroke-linejoin="round"/>
<rect x="3.01074" y="11.015" width="9.98847" height="9.98847" rx="3" stroke="#161924" stroke-width="1.5" stroke-linecap="round" stroke-linejoin="round"/>
<path d="M6.33174 14.2613C6.37308 14.2615 6.40647 14.2951 6.40637 14.3364C6.40626 14.3777 6.37269 14.4112 6.33136 14.4111C6.29002 14.4111 6.25654 14.3776 6.25654 14.3362C6.25643 14.3163 6.26433 14.2971 6.27847 14.283C6.2926 14.2689 6.31179 14.2611 6.33174 14.2613" stroke="#161924" stroke-width="1.5" stroke-linecap="round" stroke-linejoin="round"/>
<path d="M9.67784 17.7572C9.63651 17.757 9.60311 17.7234 9.60322 17.6821C9.60333 17.6408 9.63689 17.6073 9.67823 17.6074C9.71957 17.6074 9.75305 17.6409 9.75305 17.6823C9.75316 17.7022 9.74526 17.7214 9.73112 17.7355C9.71699 17.7496 9.6978 17.7574 9.67784 17.7572" stroke="#161924" stroke-width="1.5" stroke-linecap="round" stroke-linejoin="round"/>
</svg>
