<svg width="24" height="24" viewBox="0 0 24 24" fill="none" xmlns="http://www.w3.org/2000/svg">
<path fill-rule="evenodd" clip-rule="evenodd" d="M8.49874 7.49808H5.49749C4.94505 7.49788 4.49727 7.05009 4.49707 6.49766V5.49724C4.49727 4.94481 4.94505 4.49702 5.49749 4.49683H8.49874C9.05117 4.49702 9.49895 4.94481 9.49915 5.49724V6.49766C9.49895 7.05009 9.05117 7.49788 8.49874 7.49808Z" stroke="#161924" stroke-width="1.5" stroke-linecap="round" stroke-linejoin="round"/>
<path fill-rule="evenodd" clip-rule="evenodd" d="M4.99749 9.99915H11C11.5525 9.99915 12.0004 10.447 12.0004 10.9996V14.501H3.99707V10.9996C3.99707 10.447 4.44497 9.99915 4.99749 9.99915Z" stroke="#161924" stroke-width="1.5" stroke-linecap="round" stroke-linejoin="round"/>
<path d="M6.99826 7.49817V9.99921" stroke="#161924" stroke-width="1.5" stroke-linecap="round" stroke-linejoin="round"/>
<path d="M15.001 9.99915H18.0022C19.1059 10.0023 19.9999 10.8963 20.0031 12" stroke="#161924" stroke-width="1.5" stroke-linecap="round" stroke-linejoin="round"/>
<path fill-rule="evenodd" clip-rule="evenodd" d="M16.3946 7.4981C15.7275 7.50744 15.1087 7.15116 14.782 6.56953C14.2907 5.77778 14.4072 4.75228 15.0637 4.09098C15.7201 3.42968 16.7447 3.30559 17.5401 3.79105C18.3354 4.27652 18.6934 5.24454 18.4053 6.13069C18.1021 6.97393 17.2903 7.52598 16.3946 7.4981Z" stroke="#161924" stroke-width="1.5" stroke-linecap="round" stroke-linejoin="round"/>
<path fill-rule="evenodd" clip-rule="evenodd" d="M2.99609 21.0037H21.0036V15.5014C21.0036 14.9489 20.5557 14.501 20.0032 14.501H3.99651C3.444 14.501 2.99609 14.9489 2.99609 15.5014V21.0037Z" stroke="#161924" stroke-width="1.5" stroke-linecap="round" stroke-linejoin="round"/>
</svg>
