<svg width="24" height="24" viewBox="0 0 24 24" fill="none" xmlns="http://www.w3.org/2000/svg">
<path d="M8.9997 20H4.9C3.85113 20.0005 3.00047 19.1506 3 18.1017V4.9C2.99978 4.39631 3.19965 3.91316 3.55566 3.55685C3.91166 3.20053 4.39463 3.00022 4.89832 3H14C14.5037 2.99978 14.9868 3.19965 15.3432 3.55566C15.6995 3.91166 15.8998 4.39463 15.9 4.89832V9" stroke="#161924" stroke-width="1.5" stroke-linecap="round" stroke-linejoin="round"/>
<path d="M7.8379 13.1617C6.92183 12.2437 6.92262 10.7571 7.83967 9.84003C8.75671 8.92299 10.2433 8.9222 11.1613 9.83827" stroke="#161924" stroke-width="1.5" stroke-linecap="round" stroke-linejoin="round"/>
<path d="M7 17H6" stroke="#161924" stroke-width="1.5" stroke-linecap="round" stroke-linejoin="round"/>
<path d="M13 6H12" stroke="#161924" stroke-width="1.5" stroke-linecap="round" stroke-linejoin="round"/>
<circle cx="16.5" cy="16.9723" r="4.5" stroke="#161924" stroke-width="1.5" stroke-linecap="round" stroke-linejoin="round"/>
<path d="M15.25 16.822L16.25 17.822L17.75 16.322" stroke="#161924" stroke-width="1.5" stroke-linecap="round" stroke-linejoin="round"/>
</svg>
