<svg width="24" height="24" viewBox="0 0 24 24" fill="none" xmlns="http://www.w3.org/2000/svg">
<path d="M10 18H6C4.34315 18 3 16.6569 3 15V7C3 5.34315 4.34315 4 6 4H18C19.6569 4 21 5.34315 21 7V10" stroke="#161924" stroke-width="1.5" stroke-linecap="round" stroke-linejoin="round"/>
<path d="M6 15H7" stroke="#161924" stroke-width="1.5" stroke-linecap="round" stroke-linejoin="round"/>
<path d="M17 7H18" stroke="#161924" stroke-width="1.5" stroke-linecap="round" stroke-linejoin="round"/>
<path d="M10.2322 12.7678C9.25592 11.7915 9.25592 10.2085 10.2322 9.23223C11.2085 8.25592 12.7915 8.25592 13.7678 9.23223" stroke="#161924" stroke-width="1.5" stroke-linecap="round" stroke-linejoin="round"/>
<path d="M17.5001 21C15.6801 21 14.0392 19.9036 13.3427 18.2221C12.6462 16.5406 13.0312 14.605 14.3182 13.318C15.6051 12.031 17.5407 11.646 19.2222 12.3426C20.9037 13.0391 22.0001 14.6799 22.0001 16.5C22.0001 18.9853 19.9854 21 17.5001 21V21" stroke="#161924" stroke-width="1.5" stroke-linecap="round" stroke-linejoin="round"/>
<path d="M18.8498 16.5001C18.8498 16.5277 18.8274 16.55 18.7998 16.55C18.7722 16.55 18.7498 16.5276 18.7498 16.5C18.7498 16.4724 18.7722 16.45 18.7998 16.45C18.8274 16.45 18.8498 16.4723 18.8498 16.4999V16.5001" stroke="#161924" stroke-width="1.5" stroke-linecap="round" stroke-linejoin="round"/>
<path d="M16.2502 16.5001C16.2502 16.5277 16.2278 16.55 16.2002 16.55C16.1726 16.55 16.1502 16.5276 16.1502 16.5C16.1502 16.4724 16.1726 16.45 16.2002 16.45C16.2278 16.45 16.2502 16.4723 16.2502 16.4999V16.5001" stroke="#161924" stroke-width="1.5" stroke-linecap="round" stroke-linejoin="round"/>
</svg>
