<svg width="24" height="24" viewBox="0 0 24 24" fill="none" xmlns="http://www.w3.org/2000/svg">
<path d="M18 7H17" stroke="#161924" stroke-width="1.5" stroke-linecap="round" stroke-linejoin="round"/>
<path d="M6 15H7" stroke="#161924" stroke-width="1.5" stroke-linecap="round" stroke-linejoin="round"/>
<path d="M10.2322 12.7678C9.25592 11.7915 9.25592 10.2085 10.2322 9.23223C11.2085 8.25592 12.7915 8.25592 13.7678 9.23223" stroke="#161924" stroke-width="1.5" stroke-linecap="round" stroke-linejoin="round"/>
<path d="M19.4751 13.0251C20.5635 14.1239 20.8028 15.8062 20.064 17.1649C19.3252 18.5237 17.7831 19.2373 16.2692 18.9211C14.7553 18.6049 13.6277 17.3336 13.4945 15.7927C13.3614 14.2519 14.2541 12.806 15.6914 12.2348C16.9953 11.6974 18.4952 12.0106 19.4751 13.0251V13.0251V13.0251" stroke="#161924" stroke-width="1.5" stroke-linecap="round" stroke-linejoin="round"/>
<path d="M19.5 18L21 19.5" stroke="#161924" stroke-width="1.5" stroke-linecap="round" stroke-linejoin="round"/>
<path d="M10 18H6C4.34315 18 3 16.6569 3 15V7C3 5.34315 4.34315 4 6 4H18C19.6569 4 21 5.34315 21 7V10" stroke="#161924" stroke-width="1.5" stroke-linecap="round" stroke-linejoin="round"/>
</svg>
