<svg width="24" height="24" viewBox="0 0 24 24" fill="none" xmlns="http://www.w3.org/2000/svg">
<path d="M6 15H7" stroke="#161924" stroke-width="1.5" stroke-linecap="round" stroke-linejoin="round"/>
<path d="M17 7H18" stroke="#161924" stroke-width="1.5" stroke-linecap="round" stroke-linejoin="round"/>
<path d="M10.2323 12.7678C9.60073 12.1363 9.35407 11.2157 9.58524 10.353C9.81641 9.49028 10.4903 8.81641 11.353 8.58524C12.2157 8.35407 13.1363 8.60073 13.7678 9.23229" stroke="#161924" stroke-width="1.5" stroke-linecap="round" stroke-linejoin="round"/>
<path d="M8 18H6C4.34315 18 3 16.6569 3 15V7C3 5.34315 4.34315 4 6 4H18C19.6569 4 21 5.34315 21 7V11" stroke="#161924" stroke-width="1.5" stroke-linecap="round" stroke-linejoin="round"/>
<path fill-rule="evenodd" clip-rule="evenodd" d="M12.5 17H14.5C14.7761 17 15 17.2239 15 17.5V21H12.5C12.2239 21 12 20.7761 12 20.5V17.5C12 17.2239 12.2239 17 12.5 17Z" stroke="#161924" stroke-width="1.5" stroke-linecap="round" stroke-linejoin="round"/>
<path fill-rule="evenodd" clip-rule="evenodd" d="M15.5 13H17.5C17.7761 13 18 13.2239 18 13.5V21H15V13.5C15 13.2239 15.2239 13 15.5 13Z" stroke="#161924" stroke-width="1.5" stroke-linecap="round" stroke-linejoin="round"/>
<path fill-rule="evenodd" clip-rule="evenodd" d="M18.5 15H20.5C20.7761 15 21 15.2239 21 15.5V20.5C21 20.7761 20.7761 21 20.5 21H18V15.5C18 15.2239 18.2239 15 18.5 15Z" stroke="#161924" stroke-width="1.5" stroke-linecap="round" stroke-linejoin="round"/>
</svg>
