<svg width="24" height="24" viewBox="0 0 24 24" fill="none" xmlns="http://www.w3.org/2000/svg">
<path d="M20.582 9.353C20.8551 10.209 20.996 11.1016 21 12C21 16.9706 16.9706 21 12 21C7.02944 21 3 16.9706 3 12C3 7.02944 7.02944 3 12 3C12.8984 3.00399 13.791 3.14495 14.647 3.418" stroke="#161924" stroke-width="1.5" stroke-linecap="round" stroke-linejoin="round"/>
<path d="M17.7988 5.06196L18.9999 6.26196L20.9988 4.26196" stroke="#161924" stroke-width="1.5" stroke-linecap="round" stroke-linejoin="round"/>
<path fill-rule="evenodd" clip-rule="evenodd" d="M7 10V14C7 15.1046 7.89543 16 9 16H15C16.1046 16 17 15.1046 17 14V10C17 8.89543 16.1046 8 15 8H9C7.89543 8 7 8.89543 7 10Z" stroke="#161924" stroke-width="1.5" stroke-linecap="round" stroke-linejoin="round"/>
<circle cx="12" cy="12" r="1.5" stroke="#161924" stroke-width="1.5" stroke-linecap="round" stroke-linejoin="round"/>
</svg>
