<svg width="24" height="24" viewBox="0 0 24 24" fill="none" xmlns="http://www.w3.org/2000/svg">
<path d="M6 15H7" stroke="#161924" stroke-width="1.5" stroke-linecap="round" stroke-linejoin="round"/>
<path d="M17 7H18" stroke="#161924" stroke-width="1.5" stroke-linecap="round" stroke-linejoin="round"/>
<path d="M10.2323 12.7678C9.60073 12.1363 9.35407 11.2157 9.58524 10.353C9.81641 9.49028 10.4903 8.81641 11.353 8.58524C12.2157 8.35407 13.1363 8.60073 13.7678 9.23229" stroke="#161924" stroke-width="1.5" stroke-linecap="round" stroke-linejoin="round"/>
<path d="M10 18H6C4.34315 18 3 16.6569 3 15V7C3 5.34315 4.34315 4 6 4H18C19.6569 4 21 5.34315 21 7V10" stroke="#161924" stroke-width="1.5" stroke-linecap="round" stroke-linejoin="round"/>
<path d="M13 13.5V20.4C13.0011 21.2834 14.7909 22 17 22C19.2091 22 20.9989 21.2834 21 20.4L20.9989 13.5" stroke="#161924" stroke-width="1.5" stroke-linecap="round" stroke-linejoin="round"/>
<path d="M20.9989 13.5C20.9989 14.3282 19.208 15 16.9989 15C14.7897 15 13 14.3282 13 13.5C13 12.6707 14.792 12 17 12C19.208 12 20.9989 12.6718 21 13.5" stroke="#161924" stroke-width="1.5" stroke-linecap="round" stroke-linejoin="round"/>
<path d="M20.9998 17C20.9998 17.8282 19.209 18.5 16.9998 18.5C14.7907 18.5 13.001 17.8282 13.001 17" stroke="#161924" stroke-width="1.5" stroke-linecap="round" stroke-linejoin="round"/>
</svg>
