<svg width="24" height="24" viewBox="0 0 24 24" fill="none" xmlns="http://www.w3.org/2000/svg">
<path d="M12.0003 2.99622C15.5916 2.99622 18.503 5.90758 18.503 9.49892C18.503 13.0903 15.5916 16.0016 12.0003 16.0016C8.40892 16.0016 5.49756 13.0903 5.49756 9.49892C5.49756 5.90758 8.40892 2.99622 12.0003 2.99622" stroke="#161924" stroke-width="1.5" stroke-linecap="round" stroke-linejoin="round"/>
<path d="M6.99805 16.0017H17.0022" stroke="#161924" stroke-width="1.5" stroke-linecap="round" stroke-linejoin="round"/>
<path d="M12.0002 7.02184V6.1961" stroke="#161924" stroke-width="1.5" stroke-linecap="round" stroke-linejoin="round"/>
<path d="M12.0002 11.9763V12.802" stroke="#161924" stroke-width="1.5" stroke-linecap="round" stroke-linejoin="round"/>
<path d="M10.5682 11.3866C10.7804 11.7488 11.1674 11.9727 11.5872 11.9762H12.4955C13.0903 11.991 13.5992 11.5521 13.6718 10.9615C13.7444 10.371 13.3569 9.82186 12.7763 9.69223L11.2288 9.30331C10.655 9.16886 10.2741 8.62418 10.3449 8.03903C10.4156 7.45387 10.9152 7.01563 11.5046 7.02179H12.4129C12.8331 7.02463 13.2206 7.24869 13.4327 7.61137" stroke="#161924" stroke-width="1.5" stroke-linecap="round" stroke-linejoin="round"/>
<path d="M18.0037 12H19.0032C20.1083 12 21.0041 12.8958 21.0041 14.0008V19.0029C21.0041 20.1079 20.1083 21.0037 19.0032 21.0037H4.99742C3.89239 21.0037 2.99658 20.1079 2.99658 19.0029V14.0008C2.99658 12.8958 3.89239 12 4.99742 12H5.99695" stroke="#161924" stroke-width="1.5" stroke-linecap="round" stroke-linejoin="round"/>
</svg>
