<svg width="24" height="24" viewBox="0 0 24 24" fill="none" xmlns="http://www.w3.org/2000/svg">
<path d="M21 15V19C21 20.1046 20.1046 21 19 21H18" stroke="#161924" stroke-width="1.5" stroke-linecap="round" stroke-linejoin="round"/>
<path d="M3 9V5C3 3.89543 3.89543 3 5 3H6" stroke="#161924" stroke-width="1.5" stroke-linecap="round" stroke-linejoin="round"/>
<circle cx="9" cy="16.5" r="1.75" stroke="#161924" stroke-width="1.5" stroke-linecap="round" stroke-linejoin="round"/>
<path fill-rule="evenodd" clip-rule="evenodd" d="M3 14V19C3 20.1046 3.89543 21 5 21H13C14.1046 21 15 20.1046 15 19V14C15 12.8954 14.1046 12 13 12H5C3.89543 12 3 12.8954 3 14Z" stroke="#161924" stroke-width="1.5" stroke-linecap="round" stroke-linejoin="round"/>
<circle cx="15" cy="7.5" r="1.75" stroke="#161924" stroke-width="1.5" stroke-linecap="round" stroke-linejoin="round"/>
<path d="M18 12H19C20.1046 12 21 11.1046 21 10V5C21 3.89543 20.1046 3 19 3H11C9.89543 3 9 3.89543 9 5V9" stroke="#161924" stroke-width="1.5" stroke-linecap="round" stroke-linejoin="round"/>
</svg>
