<svg width="24" height="24" viewBox="0 0 24 24" fill="none" xmlns="http://www.w3.org/2000/svg">
<path d="M8 20H5C3.89543 20 3 19.1046 3 18V5C3 3.89543 3.89543 3 5 3H14C15.1046 3 16 3.89543 16 5V9" stroke="#161924" stroke-width="1.5" stroke-linecap="round" stroke-linejoin="round"/>
<path d="M7.8379 13.1617C6.92183 12.2437 6.92262 10.7571 7.83967 9.84003C8.75671 8.92299 10.2433 8.9222 11.1613 9.83827" stroke="#161924" stroke-width="1.5" stroke-linecap="round" stroke-linejoin="round"/>
<path d="M7 17H6" stroke="#161924" stroke-width="1.5" stroke-linecap="round" stroke-linejoin="round"/>
<path d="M13 6H12" stroke="#161924" stroke-width="1.5" stroke-linecap="round" stroke-linejoin="round"/>
<path d="M21 16H11" stroke="#161924" stroke-width="1.5" stroke-linecap="round" stroke-linejoin="round"/>
<path fill-rule="evenodd" clip-rule="evenodd" d="M19 13H13C11.8954 13 11 13.8954 11 15V19C11 20.1046 11.8954 21 13 21H19C20.1046 21 21 20.1046 21 19V15C21 13.8954 20.1046 13 19 13Z" stroke="#161924" stroke-width="1.5" stroke-linecap="round" stroke-linejoin="round"/>
</svg>
