<svg width="24" height="24" viewBox="0 0 24 24" fill="none" xmlns="http://www.w3.org/2000/svg">
<path d="M15 18H18C19.6569 18 21 16.6569 21 15V7C21 5.34315 19.6569 4 18 4H6C4.34315 4 3 5.34315 3 7V9" stroke="#161924" stroke-width="1.5" stroke-linecap="round" stroke-linejoin="round"/>
<path d="M18 15H17" stroke="#161924" stroke-width="1.5" stroke-linecap="round" stroke-linejoin="round"/>
<path d="M7 7H6" stroke="#161924" stroke-width="1.5" stroke-linecap="round" stroke-linejoin="round"/>
<path d="M13.768 12.7678C14.7443 11.7915 14.7443 10.2085 13.768 9.23223C12.7916 8.25592 11.2087 8.25592 10.2324 9.23223" stroke="#161924" stroke-width="1.5" stroke-linecap="round" stroke-linejoin="round"/>
<path d="M5.5 19C3.567 19 2 17.433 2 15.5C2 13.567 3.567 12 5.5 12C7.433 12 9 13.567 9 15.5C9.00017 16.4283 8.63148 17.3186 7.97506 17.9751C7.31865 18.6315 6.42831 19.0002 5.5 19" stroke="#161924" stroke-width="1.5" stroke-linecap="round" stroke-linejoin="round"/>
<path d="M5.34473 18.9919C6.07232 20.5415 7.81565 21.3354 9.46221 20.8671C11.1088 20.3988 12.1734 18.8063 11.9766 17.1058C11.7798 15.4052 10.3797 14.0979 8.66973 14.0179" stroke="#161924" stroke-width="1.5" stroke-linecap="round" stroke-linejoin="round"/>
</svg>
