<svg width="24" height="24" viewBox="0 0 24 24" fill="none" xmlns="http://www.w3.org/2000/svg">
<path d="M10 18H6C4.34315 18 3 16.6569 3 15V7C3 5.34315 4.34315 4 6 4H18C19.6569 4 21 5.34315 21 7V10" stroke="#161924" stroke-width="1.5" stroke-linecap="round" stroke-linejoin="round"/>
<path d="M6 15H7" stroke="#161924" stroke-width="1.5" stroke-linecap="round" stroke-linejoin="round"/>
<path d="M17 7H18" stroke="#161924" stroke-width="1.5" stroke-linecap="round" stroke-linejoin="round"/>
<path d="M10.2322 12.7678C9.25592 11.7915 9.25592 10.2085 10.2322 9.23223C11.2085 8.25592 12.7915 8.25592 13.7678 9.23223" stroke="#161924" stroke-width="1.5" stroke-linecap="round" stroke-linejoin="round"/>
<path d="M17.5 12C19.9853 12 22 14.0147 22 16.5C22 18.9853 19.9853 21 17.5 21C15.0147 21 13 18.9853 13 16.5C13 14.0147 15.0147 12 17.5 12" stroke="#161924" stroke-width="1.5" stroke-linecap="round" stroke-linejoin="round"/>
<path d="M17.5098 16.05V14.8" stroke="#161924" stroke-width="1.5" stroke-linecap="round" stroke-linejoin="round"/>
<path d="M17.5055 18.2003C17.4854 18.1981 17.466 18.2083 17.4563 18.226C17.4466 18.2438 17.4485 18.2656 17.4612 18.2814C17.4739 18.2971 17.4948 18.3037 17.5142 18.298C17.5336 18.2923 17.5477 18.2755 17.5499 18.2553V18.2446C17.5473 18.2213 17.5289 18.2028 17.5055 18.2003" stroke="#161924" stroke-width="1.5" stroke-linecap="round" stroke-linejoin="round"/>
</svg>
