<svg width="24" height="24" viewBox="0 0 24 24" fill="none" xmlns="http://www.w3.org/2000/svg">
<path d="M3 8V6.5C3 4.567 4.567 3 6.5 3H17.5C19.433 3 21 4.567 21 6.5V17.5C21 19.433 19.433 21 17.5 21H6.5C4.567 21 3 19.433 3 17.5V17" stroke="#161924" stroke-width="1.5" stroke-linecap="round" stroke-linejoin="round"/>
<path d="M2 11H4" stroke="#161924" stroke-width="1.5" stroke-linecap="round" stroke-linejoin="round"/>
<path d="M3 14H4" stroke="#161924" stroke-width="1.5" stroke-linecap="round" stroke-linejoin="round"/>
<path fill-rule="evenodd" clip-rule="evenodd" d="M7 10V14C7 15.1046 7.89543 16 9 16H15C16.1046 16 17 15.1046 17 14V10C17 8.89543 16.1046 8 15 8H9C7.89543 8 7 8.89543 7 10Z" stroke="#161924" stroke-width="1.5" stroke-linecap="round" stroke-linejoin="round"/>
<circle cx="12" cy="12" r="1.5" stroke="#161924" stroke-width="1.5" stroke-linecap="round" stroke-linejoin="round"/>
</svg>
