<svg width="24" height="24" viewBox="0 0 24 24" fill="none" xmlns="http://www.w3.org/2000/svg">
<path d="M8 20H4.9C3.85113 20.0005 3.00047 19.1506 3 18.1017V4.9C2.99978 4.39631 3.19965 3.91316 3.55566 3.55685C3.91166 3.20053 4.39463 3.00022 4.89832 3H14C14.5037 2.99978 14.9868 3.19965 15.3432 3.55566C15.6995 3.91166 15.8998 4.39463 15.9 4.89832V9" stroke="#161924" stroke-width="1.5" stroke-linecap="round" stroke-linejoin="round"/>
<path d="M7.8379 13.1617C6.92183 12.2437 6.92262 10.7571 7.83967 9.84003C8.75671 8.92299 10.2433 8.9222 11.1613 9.83827" stroke="#161924" stroke-width="1.5" stroke-linecap="round" stroke-linejoin="round"/>
<path d="M7 17H6" stroke="#161924" stroke-width="1.5" stroke-linecap="round" stroke-linejoin="round"/>
<path d="M13 6H12" stroke="#161924" stroke-width="1.5" stroke-linecap="round" stroke-linejoin="round"/>
<path d="M14.499 18.5L17.499 15.5" stroke="#161924" stroke-width="1.5" stroke-linecap="round" stroke-linejoin="round"/>
<path d="M14.2502 15.3247C14.2503 15.2833 14.284 15.2499 14.3253 15.25C14.3667 15.25 14.4002 15.2836 14.4002 15.325C14.4002 15.3663 14.3667 15.3999 14.3253 15.4C14.284 15.4 14.2503 15.3666 14.2502 15.3252V15.3247" stroke="#161924" stroke-width="1.5" stroke-linecap="round" stroke-linejoin="round"/>
<rect x="11" y="12" width="10" height="10" rx="3" stroke="#161924" stroke-width="1.5" stroke-linecap="round" stroke-linejoin="round"/>
<path d="M17.7498 18.6753C17.7497 18.7167 17.716 18.7501 17.6747 18.75C17.6333 18.75 17.5998 18.7164 17.5998 18.675C17.5998 18.6337 17.6333 18.6001 17.6747 18.6C17.716 18.6 17.7497 18.6334 17.7498 18.6748V18.6753" stroke="#161924" stroke-width="1.5" stroke-linecap="round" stroke-linejoin="round"/>
</svg>
