<svg width="24" height="24" viewBox="0 0 24 24" fill="none" xmlns="http://www.w3.org/2000/svg">
<path d="M10 3V9" stroke="#161924" stroke-width="1.5" stroke-linecap="round" stroke-linejoin="round"/>
<path d="M13 5.5V6.5" stroke="#161924" stroke-width="1.5" stroke-linecap="round" stroke-linejoin="round"/>
<path d="M16 5.5V6.5" stroke="#161924" stroke-width="1.5" stroke-linecap="round" stroke-linejoin="round"/>
<path fill-rule="evenodd" clip-rule="evenodd" d="M20.923 15.731L19.077 9.27C19.026 9.091 19 8.906 19 8.72V4C19 3.448 18.552 3 18 3H6C5.448 3 5 3.448 5 4V8.72C5 8.906 4.974 9.091 4.923 9.269L3.077 15.73C3.026 15.909 3 16.094 3 16.28V20C3 20.552 3.448 21 4 21H20C20.552 21 21 20.552 21 20V16.28C21 16.094 20.974 15.909 20.923 15.731V15.731Z" stroke="#161924" stroke-width="1.5" stroke-linecap="round" stroke-linejoin="round"/>
<path d="M4.98047 9H19.0205" stroke="#161924" stroke-width="1.5" stroke-linecap="round" stroke-linejoin="round"/>
<path d="M3.04004 16H20.96" stroke="#161924" stroke-width="1.5" stroke-linecap="round" stroke-linejoin="round"/>
</svg>
