<svg width="24" height="24" viewBox="0 0 24 24" fill="none" xmlns="http://www.w3.org/2000/svg">
<path d="M10 18H6C4.34315 18 3 16.6569 3 15V7C3 5.34315 4.34315 4 6 4H18C19.6569 4 21 5.34315 21 7V11" stroke="#161924" stroke-width="1.5" stroke-linecap="round" stroke-linejoin="round"/>
<path d="M6 15H7" stroke="#161924" stroke-width="1.5" stroke-linecap="round" stroke-linejoin="round"/>
<path d="M17 7H18" stroke="#161924" stroke-width="1.5" stroke-linecap="round" stroke-linejoin="round"/>
<path d="M10.2322 12.7678C9.25592 11.7915 9.25592 10.2085 10.2322 9.23223C11.2085 8.25592 12.7915 8.25592 13.7678 9.23223" stroke="#161924" stroke-width="1.5" stroke-linecap="round" stroke-linejoin="round"/>
<path fill-rule="evenodd" clip-rule="evenodd" d="M14 17.4948C14 19.1783 16.1184 20.4244 17.0607 20.8957C17.3373 21.0349 17.6635 21.0348 17.9399 20.8953C18.8826 20.4238 21 19.1806 21 17.4948V15.0978C20.992 14.8363 20.7878 14.6229 20.5268 14.6034C19.6406 14.5221 18.7924 14.2049 18.0702 13.6847C17.73 13.4384 17.2701 13.4384 16.9298 13.6847C16.2077 14.2049 15.3594 14.5221 14.4732 14.6034C14.2123 14.6229 14.0081 14.8363 14 15.0978L14 17.4948Z" stroke="#161924" stroke-width="1.5" stroke-linecap="round" stroke-linejoin="round"/>
</svg>
