<svg width="24" height="24" viewBox="0 0 24 24" fill="none" xmlns="http://www.w3.org/2000/svg">
<path d="M9.48092 19.7442C9.77605 19.7052 10.0742 19.7852 10.3093 19.9663L11.3927 20.7976C11.7509 21.0728 12.2491 21.0728 12.6062 20.7976L13.7307 19.9343C13.9408 19.7732 14.2059 19.7022 14.468 19.7372L15.8746 19.9223C16.3218 19.9813 16.753 19.7322 16.926 19.315L17.4672 18.0065C17.5683 17.7614 17.7624 17.5673 18.0075 17.4662L19.316 16.925C19.7332 16.753 19.9823 16.3208 19.9233 15.8736L19.7452 14.518C19.7062 14.2229 19.7862 13.9248 19.9673 13.6897L20.7986 12.6062C21.0738 12.2481 21.0738 11.7499 20.7986 11.3927L19.9353 10.2683C19.7742 10.0582 19.7032 9.79305 19.7382 9.53094L19.9233 8.12436C19.9823 7.67717 19.7332 7.24599 19.316 7.07292L18.0075 6.53169C17.7624 6.43065 17.5683 6.23657 17.4672 5.99147L16.926 4.68292C16.754 4.26575 16.3218 4.01665 15.8746 4.07567L14.468 4.26075C14.2059 4.29676 13.9408 4.22573 13.7317 4.06567L12.6072 3.20231C12.2491 2.92719 11.7509 2.92719 11.3937 3.20231L10.2693 4.06567C10.0592 4.22573 9.79405 4.29676 9.53194 4.26275L8.12536 4.07767C7.67817 4.01865 7.24699 4.26775 7.07392 4.68493L6.5337 5.99347C6.43165 6.23757 6.23757 6.43165 5.99347 6.5337L4.68493 7.07392C4.26775 7.24699 4.01865 7.67817 4.07767 8.12536L4.26275 9.53194C4.29676 9.79405 4.22573 10.0592 4.06567 10.2683L3.20231 11.3927C2.92719 11.7509 2.92719 12.2491 3.20231 12.6062L4.06567 13.7307C4.22673 13.9408 4.29776 14.2059 4.26275 14.468L4.07767 15.8746C4.01865 16.3218 4.26775 16.753 4.68493 16.926L5.99347 17.4672C6.23857 17.5683 6.43265 17.7624 6.5337 18.0075L7.07492 19.316C7.24699 19.7332 7.67917 19.9823 8.12636 19.9233L9.48092 19.7442" stroke="#161924" stroke-width="1.5" stroke-linecap="round" stroke-linejoin="round"/>
<path d="M14.8001 10.6003L11.2977 14.1028L9.19781 12.0019" stroke="#161924" stroke-width="1.5" stroke-linecap="round" stroke-linejoin="round"/>
</svg>
