<svg width="24" height="24" viewBox="0 0 24 24" fill="none" xmlns="http://www.w3.org/2000/svg">
<path fill-rule="evenodd" clip-rule="evenodd" d="M19.1292 17.141V17.141C20.8252 16.525 21.5792 14.546 20.7232 12.958L18.1962 8.267C17.9612 7.83 17.4412 7.632 16.9742 7.801L14.6812 8.634C14.2072 8.806 13.9362 9.304 14.0472 9.795L15.2332 15.016C15.6292 16.752 17.4562 17.748 19.1292 17.141Z" stroke="#161924" stroke-width="1.5" stroke-linecap="round" stroke-linejoin="round"/>
<path d="M21.9999 19.77L18.6299 21" stroke="#161924" stroke-width="1.5" stroke-linecap="round" stroke-linejoin="round"/>
<path d="M14.6904 12.61H20.5304" stroke="#161924" stroke-width="1.5" stroke-linecap="round" stroke-linejoin="round"/>
<path d="M19.1299 17.14L20.3099 20.39" stroke="#161924" stroke-width="1.5" stroke-linecap="round" stroke-linejoin="round"/>
<path fill-rule="evenodd" clip-rule="evenodd" d="M4.87093 17.141V17.141C3.17493 16.525 2.42093 14.546 3.27693 12.958L5.80393 8.267C6.03893 7.83 6.55893 7.632 7.02593 7.801L9.31893 8.634C9.79293 8.806 10.0639 9.304 9.95293 9.795L8.76693 15.016C8.37093 16.752 6.54393 17.748 4.87093 17.141Z" stroke="#161924" stroke-width="1.5" stroke-linecap="round" stroke-linejoin="round"/>
<path d="M2 19.77L5.37 21" stroke="#161924" stroke-width="1.5" stroke-linecap="round" stroke-linejoin="round"/>
<path d="M9.30996 12.61H3.45996" stroke="#161924" stroke-width="1.5" stroke-linecap="round" stroke-linejoin="round"/>
<path d="M4.87043 17.14L3.69043 20.39" stroke="#161924" stroke-width="1.5" stroke-linecap="round" stroke-linejoin="round"/>
<path d="M15 5L16 4" stroke="#161924" stroke-width="1.5" stroke-linecap="round" stroke-linejoin="round"/>
<path d="M9 5L8 4" stroke="#161924" stroke-width="1.5" stroke-linecap="round" stroke-linejoin="round"/>
<path d="M12 4V3" stroke="#161924" stroke-width="1.5" stroke-linecap="round" stroke-linejoin="round"/>
</svg>
