<svg width="24" height="24" viewBox="0 0 24 24" fill="none" xmlns="http://www.w3.org/2000/svg">
<path fill-rule="evenodd" clip-rule="evenodd" d="M19.1292 18.141V18.141C20.8252 17.525 21.5792 15.546 20.7232 13.958L18.1962 9.267C17.9612 8.83 17.4412 8.632 16.9742 8.801L14.6812 9.634C14.2072 9.806 13.9362 10.304 14.0472 10.795L15.2332 16.016C15.6292 17.752 17.4562 18.748 19.1292 18.141Z" stroke="#161924" stroke-width="1.5" stroke-linecap="round" stroke-linejoin="round"/>
<path d="M21.9999 20.77L18.6299 22" stroke="#161924" stroke-width="1.5" stroke-linecap="round" stroke-linejoin="round"/>
<path d="M14.6904 13.61H20.5304" stroke="#161924" stroke-width="1.5" stroke-linecap="round" stroke-linejoin="round"/>
<path d="M19.1299 18.14L20.3099 21.39" stroke="#161924" stroke-width="1.5" stroke-linecap="round" stroke-linejoin="round"/>
<path fill-rule="evenodd" clip-rule="evenodd" d="M4.87093 18.141V18.141C3.17493 17.525 2.42093 15.546 3.27693 13.958L5.80393 9.267C6.03893 8.83 6.55893 8.632 7.02593 8.801L9.31893 9.634C9.79293 9.806 10.0639 10.304 9.95293 10.795L8.76693 16.016C8.37093 17.752 6.54393 18.748 4.87093 18.141Z" stroke="#161924" stroke-width="1.5" stroke-linecap="round" stroke-linejoin="round"/>
<path d="M2 20.77L5.37 22" stroke="#161924" stroke-width="1.5" stroke-linecap="round" stroke-linejoin="round"/>
<path d="M9.30996 13.61H3.45996" stroke="#161924" stroke-width="1.5" stroke-linecap="round" stroke-linejoin="round"/>
<path d="M4.87043 18.14L3.69043 21.39" stroke="#161924" stroke-width="1.5" stroke-linecap="round" stroke-linejoin="round"/>
<path d="M13.194 2C14.219 2 14.907 2.931 14.907 3.798C14.907 5.559 12.052 7 12 7" stroke="#161924" stroke-width="1.5" stroke-linecap="round" stroke-linejoin="round"/>
<path d="M10.8058 2C9.78077 2 9.09277 2.931 9.09277 3.798C9.09277 5.559 11.9478 7 11.9998 7" stroke="#161924" stroke-width="1.5" stroke-linecap="round" stroke-linejoin="round"/>
<path d="M12 2.53499C12.223 2.28299 12.608 1.99999 13.194 1.99999" stroke="#161924" stroke-width="1.5" stroke-linecap="round" stroke-linejoin="round"/>
<path d="M11.9997 2.53499C11.7767 2.28299 11.3917 1.99999 10.8057 1.99999" stroke="#161924" stroke-width="1.5" stroke-linecap="round" stroke-linejoin="round"/>
</svg>
