<svg width="24" height="24" viewBox="0 0 24 24" fill="none" xmlns="http://www.w3.org/2000/svg">
<path d="M7.35229 15.4995H15.3556" stroke="#161924" stroke-width="1.5" stroke-linecap="round" stroke-linejoin="round"/>
<path d="M11.354 15.4994V9.49695" stroke="#161924" stroke-width="1.5" stroke-linecap="round" stroke-linejoin="round"/>
<path d="M19.0031 8.99876C16.7931 8.99876 15.0015 7.20715 15.0015 4.99709C15.0015 2.78703 16.7931 0.995422 19.0031 0.995422C21.2132 0.995422 23.0048 2.78703 23.0048 4.99709C23.0048 6.0584 22.5832 7.07624 21.8327 7.82669C21.0823 8.57715 20.0644 8.99876 19.0031 8.99876" stroke="#161924" stroke-width="1.5" stroke-linecap="round" stroke-linejoin="round"/>
<path d="M15.0013 4.75596C11.2509 3.05639 6.82182 4.28143 4.47786 7.66659C2.1339 11.0518 2.5456 15.6287 5.45606 18.5412C8.36652 21.4537 12.9432 21.8687 16.33 19.5271C19.7168 17.1855 20.945 12.7573 19.248 9.00573" stroke="#161924" stroke-width="1.5" stroke-linecap="round" stroke-linejoin="round"/>
<path d="M19.0031 8.99876C16.7931 8.99876 15.0015 7.20715 15.0015 4.99709C15.0015 2.78703 16.7931 0.995422 19.0031 0.995422C21.2132 0.995422 23.0048 2.78703 23.0048 4.99709C23.0048 6.0584 22.5832 7.07624 21.8327 7.82669C21.0823 8.57715 20.0644 8.99876 19.0031 8.99876" stroke="#161924" stroke-width="1.5" stroke-linecap="round" stroke-linejoin="round"/>
<path d="M20.0035 3.99664L18.0027 5.99748" stroke="#161924" stroke-width="1.5" stroke-linecap="round" stroke-linejoin="round"/>
<path d="M18.0027 3.99664L20.0035 5.99748" stroke="#161924" stroke-width="1.5" stroke-linecap="round" stroke-linejoin="round"/>
<path d="M14.0219 15.4995V11.2117" stroke="#161924" stroke-width="1.5" stroke-linecap="round" stroke-linejoin="round"/>
<path d="M8.68576 15.4995V12.069" stroke="#161924" stroke-width="1.5" stroke-linecap="round" stroke-linejoin="round"/>
</svg>
