<svg width="24" height="24" viewBox="0 0 24 24" fill="none" xmlns="http://www.w3.org/2000/svg">
<path d="M13.2505 10.4995H15.7515C16.0278 10.4995 16.2517 10.7235 16.2517 10.9997V16.0018C16.2517 16.2781 16.0278 16.502 15.7515 16.502H13.2505" stroke="#161924" stroke-width="1.5" stroke-linecap="round" stroke-linejoin="round"/>
<path d="M10.2493 16.5019H7.74826C7.472 16.5019 7.24805 16.278 7.24805 16.0017V13.0005C7.24805 12.7242 7.472 12.5002 7.74826 12.5002H10.2493" stroke="#161924" stroke-width="1.5" stroke-linecap="round" stroke-linejoin="round"/>
<path fill-rule="evenodd" clip-rule="evenodd" d="M13.2505 16.502H10.2493V7.9985C10.2493 7.72224 10.4732 7.49829 10.7495 7.49829H12.7503C13.0266 7.49829 13.2505 7.72224 13.2505 7.9985V16.502Z" stroke="#161924" stroke-width="1.5" stroke-linecap="round" stroke-linejoin="round"/>
<path d="M20.5855 9.35198C20.8586 10.2083 20.9997 11.1013 21.0037 12.0001C21.0037 16.9727 16.9726 21.0038 12 21.0038C7.02733 21.0038 2.99622 16.9727 2.99622 12.0001C2.99622 7.02745 7.02733 2.99634 12 2.99634C12.8988 3.0004 13.7917 3.14141 14.6481 3.41451" stroke="#161924" stroke-width="1.5" stroke-linecap="round" stroke-linejoin="round"/>
<path d="M19.0149 6.25966L17.7394 4.98413" stroke="#161924" stroke-width="1.5" stroke-linecap="round" stroke-linejoin="round"/>
<path d="M21.0037 4.27075L19.0149 6.25961" stroke="#161924" stroke-width="1.5" stroke-linecap="round" stroke-linejoin="round"/>
</svg>
