<svg width="24" height="24" viewBox="0 0 24 24" fill="none" xmlns="http://www.w3.org/2000/svg">
<path fill-rule="evenodd" clip-rule="evenodd" d="M4.99717 21.0037H19.003C20.108 21.0037 21.0038 20.1079 21.0038 19.0029V4.99705C21.0038 3.89202 20.108 2.99622 19.003 2.99622H7.82635C7.29623 2.99622 6.78782 3.20682 6.41276 3.58146L3.58258 6.41164C3.20708 6.78703 2.99634 7.29627 2.99634 7.82723V19.0029C2.99634 20.1079 3.89214 21.0037 4.99717 21.0037Z" stroke="#161924" stroke-width="1.5" stroke-linecap="round" stroke-linejoin="round"/>
<path d="M7.99842 2.99622V6.99788C7.99842 7.5504 7.55052 7.9983 6.998 7.9983H2.99634" stroke="#161924" stroke-width="1.5" stroke-linecap="round" stroke-linejoin="round"/>
<rect x="7.49829" y="12.2501" width="3.00125" height="3.75156" stroke="#161924" stroke-width="1.5" stroke-linecap="round" stroke-linejoin="round"/>
<rect x="10.4995" y="7.99835" width="3.00125" height="8.00333" stroke="#161924" stroke-width="1.5" stroke-linecap="round" stroke-linejoin="round"/>
<rect x="13.5007" y="10.2493" width="3.00125" height="5.7524" stroke="#161924" stroke-width="1.5" stroke-linecap="round" stroke-linejoin="round"/>
</svg>
