<svg width="24" height="24" viewBox="0 0 24 24" fill="none" xmlns="http://www.w3.org/2000/svg">
<path fill-rule="evenodd" clip-rule="evenodd" d="M4.62847 17.1637C1.95054 13.3415 2.63856 8.10651 6.21315 5.10613C9.78773 2.10574 15.0628 2.33559 18.3629 5.63552C21.6629 8.93545 21.893 14.2105 18.8927 17.7852C15.8925 21.3599 10.6575 22.0482 6.83526 19.3704L3.99799 20.0008L4.62847 17.1637Z" stroke="#161924" stroke-width="1.5" stroke-linecap="round" stroke-linejoin="round"/>
<path fill-rule="evenodd" clip-rule="evenodd" d="M11.7739 9.90748L12 10.1371L12.2261 9.90745C12.6376 9.48699 13.201 9.25 13.7893 9.25C14.3776 9.25 14.9411 9.48699 15.3525 9.90745V9.90745C16.2158 10.7895 16.2158 12.1999 15.3525 13.0819L13.2374 15.2296C12.9117 15.5624 12.4657 15.75 12 15.75C11.5343 15.75 11.0882 15.5624 10.7625 15.2296L8.6475 13.082C7.78417 12.1999 7.78417 10.7896 8.6475 9.90749V9.90749C9.05893 9.48702 9.62241 9.25003 10.2107 9.25002C10.799 9.25002 11.3624 9.48701 11.7739 9.90748Z" stroke="#161924" stroke-width="1.5" stroke-linecap="round" stroke-linejoin="round"/>
</svg>
