<svg width="24" height="24" viewBox="0 0 24 24" fill="none" xmlns="http://www.w3.org/2000/svg">
<path fill-rule="evenodd" clip-rule="evenodd" d="M9.58582 19L11.2929 20.7071C11.6834 21.0976 12.3166 21.0976 12.7071 20.7071L14.4142 19H18C19.6569 19 21 17.6569 21 16V6C21 4.34315 19.6569 3 18 3H6C4.34315 3 3 4.34315 3 6V16C3 17.6569 4.34315 19 6 19H9.58582Z" stroke="#161924" stroke-width="1.5" stroke-linecap="round" stroke-linejoin="round"/>
<path d="M12 7V6" stroke="#161924" stroke-width="1.5" stroke-linecap="round" stroke-linejoin="round"/>
<path d="M9 10V10C9 8.34315 10.3431 7 12 7V7C13.6569 7 15 8.34315 15 10V10" stroke="#161924" stroke-width="1.5" stroke-linecap="round" stroke-linejoin="round"/>
<path d="M8 15V10" stroke="#161924" stroke-width="1.5" stroke-linecap="round" stroke-linejoin="round"/>
<path d="M16 15V10" stroke="#161924" stroke-width="1.5" stroke-linecap="round" stroke-linejoin="round"/>
<path d="M7 15H17" stroke="#161924" stroke-width="1.5" stroke-linecap="round" stroke-linejoin="round"/>
<path d="M7.5 10H16.5" stroke="#161924" stroke-width="1.5" stroke-linecap="round" stroke-linejoin="round"/>
<path d="M13.3335 15V10" stroke="#161924" stroke-width="1.5" stroke-linecap="round" stroke-linejoin="round"/>
<path d="M10.6665 15V10" stroke="#161924" stroke-width="1.5" stroke-linecap="round" stroke-linejoin="round"/>
</svg>
