<svg width="24" height="24" viewBox="0 0 24 24" fill="none" xmlns="http://www.w3.org/2000/svg">
<path d="M7.07783 21.808C9.78583 21.808 11.9818 19.612 11.9818 16.904C11.9818 14.196 9.78683 12 7.07783 12C4.36883 12 2.17383 14.196 2.17383 16.904" stroke="#161924" stroke-width="1.5" stroke-linecap="round" stroke-linejoin="round"/>
<path d="M7.083 21.813C6.345 21.813 5.646 21.65 5.018 21.359L2 22L2.631 18.976C2.338 18.346 2.174 17.644 2.174 16.904" stroke="#161924" stroke-width="1.5" stroke-linecap="round" stroke-linejoin="round"/>
<path d="M6.557 12.028C6.199 11.207 6 10.312 6 9.373C6 5.356 9.598 2.133 14 2.133C18.402 2.133 22 5.356 22 9.373C22 11.747 20.738 13.837 18.801 15.155C18.802 15.911 18.8 16.93 18.8 18L15.661 16.454C15.124 16.557 14.569 16.613 14 16.613C13.293 16.613 12.607 16.529 11.953 16.372" stroke="#161924" stroke-width="1.5" stroke-linecap="round" stroke-linejoin="round"/>
<path d="M4.79512 16.9646C4.81465 16.9841 4.81465 17.0158 4.79512 17.0353C4.77559 17.0549 4.74394 17.0549 4.72441 17.0353C4.70488 17.0158 4.70488 16.9841 4.72441 16.9646C4.74394 16.9451 4.77559 16.9451 4.79512 16.9646" stroke="#161924" stroke-width="1.5" stroke-linecap="round" stroke-linejoin="round"/>
<path d="M7.04512 16.9646C7.06465 16.9841 7.06465 17.0158 7.04512 17.0353C7.02559 17.0549 6.99394 17.0549 6.97441 17.0353C6.95488 17.0158 6.95488 16.9841 6.97441 16.9646C6.99394 16.9451 7.02559 16.9451 7.04512 16.9646" stroke="#161924" stroke-width="1.5" stroke-linecap="round" stroke-linejoin="round"/>
<path d="M9.29512 16.9646C9.31465 16.9841 9.31465 17.0158 9.29512 17.0353C9.27559 17.0549 9.24394 17.0549 9.22441 17.0353C9.20488 17.0158 9.20488 16.9841 9.22441 16.9646C9.24394 16.9451 9.27559 16.9451 9.29512 16.9646" stroke="#161924" stroke-width="1.5" stroke-linecap="round" stroke-linejoin="round"/>
<path fill-rule="evenodd" clip-rule="evenodd" d="M14 7.535C14.23 7.283 14.627 7 15.232 7C16.29 7 17 7.931 17 8.798C17 10.611 14.593 12 14 12C13.407 12 11 10.611 11 8.798C11 7.931 11.71 7 12.768 7C13.373 7 13.77 7.283 14 7.535Z" stroke="#161924" stroke-width="1.5" stroke-linecap="round" stroke-linejoin="round"/>
</svg>
