<svg width="24" height="24" viewBox="0 0 24 24" fill="none" xmlns="http://www.w3.org/2000/svg">
<path d="M8.24298 9.73428C8.38958 9.8807 8.38973 10.1182 8.24331 10.2648C8.09689 10.4114 7.85936 10.4116 7.71276 10.2652C7.56616 10.1187 7.56601 9.88121 7.71243 9.73461L7.71276 9.73428C7.85923 9.58799 8.09651 9.58799 8.24298 9.73428" stroke="#161924" stroke-width="1.5" stroke-linecap="round" stroke-linejoin="round"/>
<path d="M12.6608 9.73428C12.8074 9.8807 12.8076 10.1182 12.6612 10.2648C12.5147 10.4114 12.2772 10.4116 12.1306 10.2652C11.984 10.1187 11.9839 9.88121 12.1303 9.73461L12.1306 9.73428C12.2771 9.58799 12.5144 9.58799 12.6608 9.73428" stroke="#161924" stroke-width="1.5" stroke-linecap="round" stroke-linejoin="round"/>
<path d="M13.0004 17.0022H18.0025C18.7985 17.0022 19.5619 16.686 20.1247 16.1232C20.6876 15.5603 21.0037 14.7969 21.0037 14.0009V5.99759C21.0037 5.20159 20.6876 4.43818 20.1247 3.87533C19.5619 3.31247 18.7985 2.99634 18.0025 2.99634H5.99747C5.20147 2.99634 4.43806 3.31247 3.87521 3.87533C3.31235 4.43818 2.99622 5.20159 2.99622 5.99759V14.0009C2.99622 14.7969 3.31235 15.5603 3.87521 16.1232C4.43806 16.686 5.20147 17.0022 5.99747 17.0022H7.9983V21.0038L13.0004 17.0022" stroke="#161924" stroke-width="1.5" stroke-linecap="round" stroke-linejoin="round"/>
<path d="M16.3973 12.5004V7.49829" stroke="#161924" stroke-width="1.5" stroke-linecap="round" stroke-linejoin="round"/>
</svg>
