<svg width="24" height="24" viewBox="0 0 24 24" fill="none" xmlns="http://www.w3.org/2000/svg">
<path d="M7.74826 11.4207V14.7901" stroke="#161924" stroke-width="1.5" stroke-linecap="round" stroke-linejoin="round"/>
<path fill-rule="evenodd" clip-rule="evenodd" d="M10.1445 14.1589V14.1589C10.1445 14.6241 10.5217 15.0012 10.9869 15.0012H14.5103C14.7919 15.0014 15.0548 14.8605 15.2106 14.6261L16.111 13.2735C16.2031 13.1347 16.2521 12.9719 16.2521 12.8053V11.1576V11.1576C16.2521 10.9342 16.1633 10.72 16.0054 10.562C15.8474 10.404 15.6331 10.3153 15.4097 10.3153H13.8511V8.88269C13.8511 8.39427 13.4551 7.99832 12.9667 7.99832H12.4615C12.1652 7.99782 11.8904 8.15324 11.7382 8.40749L10.3846 10.6644C10.2276 10.9261 10.1446 11.2256 10.1445 11.5308V14.1589Z" stroke="#161924" stroke-width="1.5" stroke-linecap="round" stroke-linejoin="round"/>
<path fill-rule="evenodd" clip-rule="evenodd" d="M4.62861 17.1604L3.99688 20.0033L6.8398 19.3716C10.6695 22.0547 15.9149 21.3652 18.9211 17.7835C21.9273 14.2018 21.6968 8.91634 18.3903 5.60985C15.0839 2.30335 9.79842 2.07293 6.21672 5.07913C2.63502 8.08534 1.94551 13.3307 4.62861 17.1604Z" stroke="#161924" stroke-width="1.5" stroke-linecap="round" stroke-linejoin="round"/>
</svg>
