<svg width="24" height="24" viewBox="0 0 24 24" fill="none" xmlns="http://www.w3.org/2000/svg">
<path fill-rule="evenodd" clip-rule="evenodd" d="M12.666 2.00001C9.279 1.99501 6.156 3.82801 4.509 6.78801C2.862 9.74801 2.951 13.369 4.741 16.244L3 21L7.755 19.259C11.119 21.344 15.433 21.08 18.517 18.599C21.601 16.118 22.784 11.961 21.468 8.22801C20.153 4.49401 16.624 1.99801 12.666 2.00001V2.00001Z" stroke="#161924" stroke-width="1.5" stroke-linecap="round" stroke-linejoin="round"/>
<path fill-rule="evenodd" clip-rule="evenodd" d="M14.496 8C15.994 8 17 9.397 17 10.698C17 13.338 12.826 15.5 12.75 15.5C12.674 15.5 8.5 13.338 8.5 10.698C8.5 9.397 9.506 8 11.004 8C11.861 8 12.424 8.424 12.75 8.802C13.075 8.424 13.638 8 14.496 8Z" stroke="#161924" stroke-width="1.5" stroke-linecap="round" stroke-linejoin="round"/>
</svg>
