<svg width="24" height="24" viewBox="0 0 24 24" fill="none" xmlns="http://www.w3.org/2000/svg">
<path fill-rule="evenodd" clip-rule="evenodd" d="M3 12C2.99872 13.846 3.5682 15.6472 4.63043 17.1569L3.99843 20.0009L6.84231 19.3689C10.2391 21.7431 14.8184 21.4893 17.9321 18.7544C21.0458 16.0195 21.8882 11.5113 19.9721 7.83658C18.056 4.16186 13.8774 2.27169 9.85247 3.25905C5.82755 4.2464 2.998 7.85576 3 12V12Z" stroke="#161924" stroke-width="1.5" stroke-linecap="round" stroke-linejoin="round"/>
<path d="M12 8V8.80786" stroke="#161924" stroke-width="1.5" stroke-linecap="round" stroke-linejoin="round"/>
<path d="M10 10.4236C10.1168 9.43098 11.005 8.71345 12 8.80784" stroke="#161924" stroke-width="1.5" stroke-linecap="round" stroke-linejoin="round"/>
<path d="M12 16V15.1921" stroke="#161924" stroke-width="1.5" stroke-linecap="round" stroke-linejoin="round"/>
<path d="M14 13.5764C13.8832 14.569 12.995 15.2865 12 15.1921" stroke="#161924" stroke-width="1.5" stroke-linecap="round" stroke-linejoin="round"/>
<path d="M13.9491 10.0711C13.6482 9.26698 12.8569 8.75415 12 8.80787" stroke="#161924" stroke-width="1.5" stroke-linecap="round" stroke-linejoin="round"/>
<path d="M10.051 13.9289C10.3519 14.733 11.1432 15.2458 12.0001 15.1921" stroke="#161924" stroke-width="1.5" stroke-linecap="round" stroke-linejoin="round"/>
<path d="M10 10.4236V10.4236C10 11.1076 10.4828 11.6966 11.1536 11.8307L12.8464 12.1693C13.5172 12.3034 14 12.8924 14 13.5764V13.5764" stroke="#161924" stroke-width="1.5" stroke-linecap="round" stroke-linejoin="round"/>
</svg>
