<svg width="24" height="24" viewBox="0 0 24 24" fill="none" xmlns="http://www.w3.org/2000/svg">
<path fill-rule="evenodd" clip-rule="evenodd" d="M13.727 7.65274L16.7453 13.0176C17.0908 13.6313 17.0846 14.3821 16.7291 14.9901C16.3737 15.598 15.7224 15.9716 15.0182 15.9716H8.98245C8.27825 15.9716 7.62692 15.598 7.27148 14.99C6.91603 14.3821 6.90986 13.6313 7.25527 13.0176L10.2736 7.65274C10.6248 7.02935 11.2848 6.64368 12.0003 6.64368C12.7158 6.64368 13.3758 7.02935 13.727 7.65274V7.65274Z" stroke="#161924" stroke-width="1.5" stroke-linecap="round" stroke-linejoin="round"/>
<path d="M11.9778 13.5147L11.9779 13.5146C11.9974 13.4951 12.0291 13.4951 12.0486 13.5147C12.0681 13.5342 12.0681 13.5658 12.0485 13.5853C12.029 13.6049 11.9974 13.6049 11.9779 13.5854C11.9583 13.5659 11.9583 13.5342 11.9778 13.5147" stroke="#161924" stroke-width="1.5" stroke-linecap="round" stroke-linejoin="round"/>
<path d="M12 11.35V9.84998" stroke="#161924" stroke-width="1.5" stroke-linecap="round" stroke-linejoin="round"/>
<path fill-rule="evenodd" clip-rule="evenodd" d="M3 12C2.99872 13.846 3.5682 15.6472 4.63043 17.1569L3.99843 20.0009L6.84231 19.3689C10.2391 21.7431 14.8184 21.4893 17.9321 18.7544C21.0458 16.0195 21.8882 11.5113 19.9721 7.83658C18.056 4.16186 13.8774 2.27169 9.85247 3.25905C5.82755 4.2464 2.998 7.85576 3 12V12Z" stroke="#161924" stroke-width="1.5" stroke-linecap="round" stroke-linejoin="round"/>
</svg>
