<svg width="24" height="24" viewBox="0 0 24 24" fill="none" xmlns="http://www.w3.org/2000/svg">
<path fill-rule="evenodd" clip-rule="evenodd" d="M17.5364 5.75C18.3824 5.75 18.9504 6.495 18.9504 7.189C18.9504 8.597 16.5934 9.75 16.5504 9.75C16.5074 9.75 14.1504 8.597 14.1504 7.189C14.1504 6.495 14.7184 5.75 15.5644 5.75C16.0484 5.75 16.3664 5.976 16.5504 6.178C16.7344 5.976 17.0524 5.75 17.5364 5.75V5.75Z" stroke="#161924" stroke-width="1.5" stroke-linecap="round" stroke-linejoin="round"/>
<path d="M16.6106 12.795C15.7986 12.795 15.0296 12.616 14.3386 12.295L11.0186 13L11.7136 9.67399C11.3906 8.98199 11.2106 8.20899 11.2106 7.39499" stroke="#161924" stroke-width="1.5" stroke-linecap="round" stroke-linejoin="round"/>
<path d="M16.605 12.789C19.584 12.789 22 10.374 22 7.394C22 4.414 19.585 2 16.605 2C13.625 2 11.21 4.415 11.21 7.395" stroke="#161924" stroke-width="1.5" stroke-linecap="round" stroke-linejoin="round"/>
<path d="M8.28027 19H10.7203" stroke="#161924" stroke-width="1.4832" stroke-linecap="round" stroke-linejoin="round"/>
<path d="M15 12.549V19.75C15 20.993 14.015 22 12.8 22H6.2C4.985 22 4 20.993 4 19.75V6.25C4 5.007 4.985 4 6.2 4H12.413" stroke="#161924" stroke-width="1.4832" stroke-linecap="round" stroke-linejoin="round"/>
</svg>
