<svg width="24" height="24" viewBox="0 0 24 24" fill="none" xmlns="http://www.w3.org/2000/svg">
<path d="M13.0004 17.0022H18.0025C18.7985 17.0022 19.5619 16.686 20.1247 16.1232C20.6876 15.5603 21.0037 14.7969 21.0037 14.0009V5.99759C21.0037 5.20159 20.6876 4.43818 20.1247 3.87533C19.5619 3.31247 18.7985 2.99634 18.0025 2.99634H5.99747C5.20147 2.99634 4.43806 3.31247 3.87521 3.87533C3.31235 4.43818 2.99622 5.20159 2.99622 5.99759V14.0009C2.99622 14.7969 3.31235 15.5603 3.87521 16.1232C4.43806 16.686 5.20147 17.0022 5.99747 17.0022H7.9983V21.0038L13.0004 17.0022" stroke="#161924" stroke-width="1.5" stroke-linecap="round" stroke-linejoin="round"/>
<path fill-rule="evenodd" clip-rule="evenodd" d="M11.3859 13.5007H8.99872V11.1136C8.99851 10.8687 9.09584 10.6339 9.26919 10.4609L12.9616 6.7685C13.1346 6.59519 13.3694 6.4978 13.6142 6.4978C13.8591 6.4978 14.0939 6.59519 14.2669 6.7685L15.7309 8.23252C15.9042 8.40549 16.0016 8.64029 16.0016 8.88515C16.0016 9.13001 15.9042 9.36481 15.7309 9.53778L12.0385 13.2302C11.8653 13.4032 11.6306 13.5005 11.3859 13.5007V13.5007Z" stroke="#161924" stroke-width="1.5" stroke-linecap="round" stroke-linejoin="round"/>
</svg>
