<svg width="24" height="24" viewBox="0 0 24 24" fill="none" xmlns="http://www.w3.org/2000/svg">
<path fill-rule="evenodd" clip-rule="evenodd" d="M3 11.291C3 13.974 4.42 16.336 6.599 17.825C6.598 18.68 6.6 19.832 6.6 21.041L10.131 19.294C10.735 19.41 11.359 19.473 12 19.473C16.952 19.473 21 15.83 21 11.291C21 6.75201 16.952 3.10901 12 3.10901C7.048 3.10901 3 6.75201 3 11.291Z" stroke="#161924" stroke-width="1.5" stroke-linecap="round" stroke-linejoin="round"/>
<path d="M11.8992 12.328V12.121C11.8992 11.443 12.3182 11.076 12.7382 10.794C13.1482 10.518 13.5592 10.158 13.5592 9.49402C13.5592 8.57702 12.8162 7.83502 11.9002 7.83502C10.9842 7.83502 10.2402 8.57602 10.2402 9.49302" stroke="#161924" stroke-width="1.5" stroke-linecap="round" stroke-linejoin="round"/>
<path d="M11.8984 14.667C11.8154 14.667 11.7484 14.734 11.7494 14.817C11.7494 14.9 11.8164 14.967 11.8994 14.967C11.9824 14.967 12.0494 14.9 12.0494 14.817C12.0494 14.734 11.9834 14.667 11.8984 14.667" stroke="#161924" stroke-width="1.5" stroke-linecap="round" stroke-linejoin="round"/>
</svg>
