<svg width="24" height="24" viewBox="0 0 24 24" fill="none" xmlns="http://www.w3.org/2000/svg">
<path d="M12.0885 11.6615C12.1373 11.7104 12.1373 11.7896 12.0884 11.8384C12.0396 11.8872 11.9604 11.8872 11.9116 11.8384C11.8628 11.7896 11.8628 11.7104 11.9116 11.6615C11.9351 11.6381 11.9669 11.6249 12 11.6249C12.0332 11.6249 12.065 11.6381 12.0885 11.6615" stroke="#161924" stroke-width="1.5" stroke-linecap="round" stroke-linejoin="round"/>
<path fill-rule="evenodd" clip-rule="evenodd" d="M12 3.99683C7.02789 3.99683 2.99622 7.35691 2.99622 11.497C3.07137 13.9954 4.44922 16.2719 6.62773 17.4972C6.41133 18.0853 6.11043 18.6387 5.7345 19.14C5.527 19.4429 5.53214 19.8436 5.74732 20.1411C5.96251 20.4386 6.34137 20.569 6.69406 20.4668C7.89689 20.1166 9.02904 19.5583 10.0391 18.8173C10.6857 18.9385 11.3422 18.9987 12 18.9973C16.972 18.9973 21.0037 15.6372 21.0037 11.497C21.0037 7.35692 16.972 3.99683 12 3.99683Z" stroke="#161924" stroke-width="1.5" stroke-linecap="round" stroke-linejoin="round"/>
<path d="M16.0901 11.6615C16.1389 11.7104 16.1389 11.7896 16.0901 11.8384C16.0413 11.8872 15.9621 11.8872 15.9132 11.8384C15.8644 11.7896 15.8644 11.7104 15.9132 11.6615C15.9367 11.6381 15.9685 11.6249 16.0017 11.6249C16.0348 11.6249 16.0666 11.6381 16.0901 11.6615" stroke="#161924" stroke-width="1.5" stroke-linecap="round" stroke-linejoin="round"/>
<path d="M8.08674 11.6615C8.13558 11.7104 8.13558 11.7896 8.08674 11.8384C8.03791 11.8872 7.95873 11.8872 7.90989 11.8384C7.86106 11.7896 7.86105 11.7104 7.90989 11.6615C7.93334 11.6381 7.96515 11.6249 7.99832 11.6249C8.03148 11.6249 8.06329 11.6381 8.08674 11.6615" stroke="#161924" stroke-width="1.5" stroke-linecap="round" stroke-linejoin="round"/>
</svg>
