<svg width="24" height="24" viewBox="0 0 24 24" fill="none" xmlns="http://www.w3.org/2000/svg">
<path d="M10.3326 7.58154L8.04119 9.87417L6.6644 8.49859" stroke="#161924" stroke-width="1.5" stroke-linecap="round" stroke-linejoin="round"/>
<path d="M13.789 6.99797C13.067 4.44851 10.6299 2.77615 7.99142 3.01956C5.35289 3.26297 3.26291 5.35295 3.0195 7.99148C2.77609 10.63 4.44845 13.0671 6.99791 13.7891" stroke="#161924" stroke-width="1.5" stroke-linecap="round" stroke-linejoin="round"/>
<path d="M15.5015 15.8904V17.7245" stroke="#161924" stroke-width="1.5" stroke-linecap="round" stroke-linejoin="round"/>
<path d="M15.5015 13.3177C15.4677 13.3177 15.4403 13.3451 15.4403 13.3789C15.4403 13.4126 15.4677 13.44 15.5015 13.44C15.5352 13.44 15.5626 13.4126 15.5626 13.3789C15.5626 13.3627 15.5562 13.3471 15.5447 13.3356C15.5332 13.3242 15.5177 13.3177 15.5015 13.3177V13.3177" stroke="#161924" stroke-width="1.5" stroke-linecap="round" stroke-linejoin="round"/>
<rect x="9.99918" y="9.99927" width="11.0046" height="11.0046" rx="4" stroke="#161924" stroke-width="1.5" stroke-linecap="round" stroke-linejoin="round"/>
</svg>
