<svg width="24" height="24" viewBox="0 0 24 24" fill="none" xmlns="http://www.w3.org/2000/svg">
<path d="M7.99831 4.99731H5.99748C4.89245 4.99731 3.99664 5.89312 3.99664 6.99815V19.0031C3.99664 20.1082 4.89245 21.004 5.99748 21.004H10.9996" stroke="#161924" stroke-width="1.5" stroke-linecap="round" stroke-linejoin="round"/>
<rect x="7.99835" y="2.99634" width="8.00333" height="4.00167" rx="1" stroke="#161924" stroke-width="1.5" stroke-linecap="round" stroke-linejoin="round"/>
<path d="M16.0016 4.99731H18.0025C19.1075 4.99731 20.0033 5.89312 20.0033 6.99815V9.9994" stroke="#161924" stroke-width="1.5" stroke-linecap="round" stroke-linejoin="round"/>
<path d="M17.5023 13.0005C19.9886 13.0005 22.0042 15.016 22.0042 17.5024C22.0042 19.9887 19.9886 22.0042 17.5023 22.0042C15.016 22.0042 13.0004 19.9887 13.0004 17.5024C13.0004 15.016 15.016 13.0005 17.5023 13.0005" stroke="#161924" stroke-width="1.5" stroke-linecap="round" stroke-linejoin="round"/>
<path d="M19.0329 16.7146L17.1197 18.6279L15.9694 17.481" stroke="#161924" stroke-width="1.5" stroke-linecap="round" stroke-linejoin="round"/>
</svg>
