<svg width="24" height="24" viewBox="0 0 24 24" fill="none" xmlns="http://www.w3.org/2000/svg">
<path fill-rule="evenodd" clip-rule="evenodd" d="M16.062 3.00401C16.734 2.33201 17.824 2.33101 18.496 3.00401V3.00401C19.168 3.67601 19.168 4.76601 18.496 5.43801L10.722 13.207C10.534 13.394 10.28 13.5 10.015 13.5H8V11.485C8 11.22 8.105 10.966 8.293 10.778L16.062 3.00401V3.00401Z" stroke="#161924" stroke-width="1.5" stroke-linecap="round" stroke-linejoin="round"/>
<path d="M15 13.5H17" stroke="#161924" stroke-width="1.5" stroke-linecap="round" stroke-linejoin="round"/>
<path d="M7 17.5H17" stroke="#161924" stroke-width="1.5" stroke-linecap="round" stroke-linejoin="round"/>
<path d="M19 10.5V10.5C20.105 10.5 21 11.395 21 12.5V19.5C21 20.605 20.105 21.5 19 21.5H5C3.895 21.5 3 20.605 3 19.5V12.5C3 11.395 3.895 10.5 5 10.5V10.5" stroke="#161924" stroke-width="1.5" stroke-linecap="round" stroke-linejoin="round"/>
<path d="M14.0698 5L16.4998 7.43" stroke="#161924" stroke-width="1.5" stroke-linecap="round" stroke-linejoin="round"/>
<path d="M10.0659 5.56602L11.7069 3.92502C12.1809 3.45102 12.9499 3.45102 13.4249 3.92502V3.92502C13.8989 4.39902 13.8989 5.16802 13.4249 5.64302L12.2839 6.78402" stroke="#161924" stroke-width="1.5" stroke-linecap="round" stroke-linejoin="round"/>
</svg>
