<svg width="24" height="24" viewBox="0 0 24 24" fill="none" xmlns="http://www.w3.org/2000/svg">
<path d="M13.001 8.99874H17.0026" stroke="#161924" stroke-width="1.5" stroke-linecap="round" stroke-linejoin="round"/>
<path d="M9.99901 21.0037H7.99818C5.2356 21.0037 2.99609 18.7642 2.99609 16.0017V7.99833C2.99609 5.23576 5.2356 2.99625 7.99818 2.99625H16.0015C18.7641 2.99625 21.0036 5.23576 21.0036 7.99833V9.99916" stroke="#161924" stroke-width="1.5" stroke-linecap="round" stroke-linejoin="round"/>
<path d="M6.99805 8.72464L7.91743 9.55299L9.7682 7.88629" stroke="#161924" stroke-width="1.5" stroke-linecap="round" stroke-linejoin="round"/>
<path d="M6.99805 13.7267L7.91743 14.5551L9.7682 12.8884" stroke="#161924" stroke-width="1.5" stroke-linecap="round" stroke-linejoin="round"/>
<path fill-rule="evenodd" clip-rule="evenodd" d="M14.001 21.504V21.0978C14.0043 19.9422 14.9403 19.0062 16.0958 19.0029H18.909C20.0646 19.0062 21.0006 19.9422 21.0039 21.0978V21.504C21.0039 21.7802 20.7799 22.0042 20.5037 22.0042H14.5012C14.3685 22.0042 14.2413 21.9515 14.1475 21.8577C14.0537 21.7639 14.001 21.6366 14.001 21.504Z" stroke="#161924" stroke-width="1.5" stroke-linecap="round" stroke-linejoin="round"/>
<circle cx="17.5028" cy="14.7511" r="2.00083" stroke="#161924" stroke-width="1.5" stroke-linecap="round" stroke-linejoin="round"/>
</svg>
