<svg width="24" height="24" viewBox="0 0 24 24" fill="none" xmlns="http://www.w3.org/2000/svg">
<path d="M16.0017 12.0002H10.9996" stroke="#161924" stroke-width="1.5" stroke-linecap="round" stroke-linejoin="round"/>
<path d="M16.0017 16.0017H10.9996" stroke="#161924" stroke-width="1.5" stroke-linecap="round" stroke-linejoin="round"/>
<path d="M8.12338 11.8752C8.05431 11.8752 7.99833 11.9311 7.99833 12.0002C7.99833 12.0693 8.05431 12.1253 8.12338 12.1253C8.19244 12.1253 8.24843 12.0693 8.24843 12.0002C8.24843 11.9311 8.19244 11.8752 8.12338 11.8752" stroke="#161924" stroke-width="1.5" stroke-linecap="round" stroke-linejoin="round"/>
<path d="M8.12338 15.8766C8.05431 15.8766 7.99833 15.9326 7.99833 16.0017C7.99833 16.0707 8.05431 16.1267 8.12338 16.1267C8.19244 16.1267 8.24843 16.0707 8.24843 16.0017C8.24843 15.9326 8.19244 15.8766 8.12338 15.8766" stroke="#161924" stroke-width="1.5" stroke-linecap="round" stroke-linejoin="round"/>
<rect x="7.99832" y="2.99634" width="8.00333" height="4.00167" rx="1" stroke="#161924" stroke-width="1.5" stroke-linecap="round" stroke-linejoin="round"/>
<path d="M16.0017 4.99731H18.0025C19.1075 4.99731 20.0033 5.89312 20.0033 6.99815V19.0031C20.0033 20.1082 19.1075 21.004 18.0025 21.004H5.99751C4.89248 21.004 3.99667 20.1082 3.99667 19.0031V6.99815C3.99667 5.89312 4.89248 4.99731 5.99751 4.99731H7.99834" stroke="#161924" stroke-width="1.5" stroke-linecap="round" stroke-linejoin="round"/>
</svg>
