<svg width="24" height="24" viewBox="0 0 24 24" fill="none" xmlns="http://www.w3.org/2000/svg">
<path d="M7.99834 4.99731H5.99751C4.89248 4.99731 3.99667 5.89312 3.99667 6.99815V19.0031C3.99667 20.1082 4.89248 21.004 5.99751 21.004H8.99876" stroke="#161924" stroke-width="1.5" stroke-linecap="round" stroke-linejoin="round"/>
<rect x="7.99832" y="2.99634" width="8.00333" height="4.00167" rx="1" stroke="#161924" stroke-width="1.5" stroke-linecap="round" stroke-linejoin="round"/>
<path d="M16.0016 4.99731H18.0025C19.1075 4.99731 20.0033 5.89312 20.0033 6.99815V12.0002" stroke="#161924" stroke-width="1.5" stroke-linecap="round" stroke-linejoin="round"/>
<path d="M15.0013 21.004C13.3441 21.0029 12.001 19.6598 12 18.0027V18.0027C12.001 16.3456 13.3441 15.0025 15.0013 15.0015" stroke="#161924" stroke-width="1.5" stroke-linecap="round" stroke-linejoin="round"/>
<path d="M18.0025 15.0015C19.6596 15.0025 21.0027 16.3456 21.0038 18.0027V18.0027C21.0027 19.6598 19.6596 21.0029 18.0025 21.004" stroke="#161924" stroke-width="1.5" stroke-linecap="round" stroke-linejoin="round"/>
<path d="M15.0013 18.0026H18.0025" stroke="#161924" stroke-width="1.5" stroke-linecap="round" stroke-linejoin="round"/>
</svg>
