<svg width="24" height="24" viewBox="0 0 24 24" fill="none" xmlns="http://www.w3.org/2000/svg">
<path d="M10.9995 21.0038H5.99747C4.33992 21.0038 2.99622 19.6601 2.99622 18.0026V5.99759C2.99622 4.34004 4.33992 2.99634 5.99747 2.99634H18.0025C19.66 2.99634 21.0037 4.34004 21.0037 5.99759V10.9997" stroke="#161924" stroke-width="1.5" stroke-linecap="round" stroke-linejoin="round"/>
<path d="M10.9996 16.0017H12" stroke="#161924" stroke-width="1.5" stroke-linecap="round" stroke-linejoin="round"/>
<path fill-rule="evenodd" clip-rule="evenodd" d="M19.555 14.768L21.8005 18.7628C22.0623 19.2286 22.0574 19.7982 21.7876 20.2593C21.5178 20.7205 21.0237 21.0039 20.4894 21.0039H15.9988C15.4646 21.0039 14.9704 20.7205 14.7006 20.2594C14.4308 19.7983 14.4259 19.2287 14.6876 18.763L16.9327 14.7681C17.199 14.2943 17.7003 14.001 18.2438 14.001C18.7874 14.001 19.2887 14.2942 19.555 14.768V14.768Z" stroke="#161924" stroke-width="1.5" stroke-linecap="round" stroke-linejoin="round"/>
<path d="M15.0012 12.0002H10.9996" stroke="#161924" stroke-width="1.5" stroke-linecap="round" stroke-linejoin="round"/>
<path d="M17.0021 7.9985H10.9996" stroke="#161924" stroke-width="1.5" stroke-linecap="round" stroke-linejoin="round"/>
<path d="M6.99789 8.12355C7.06695 8.12355 7.12294 8.06756 7.12294 7.9985C7.12294 7.92943 7.06695 7.87344 6.99789 7.87344C6.92882 7.87344 6.87284 7.92943 6.87284 7.9985V8.0015C6.87323 8.03426 6.88663 8.06553 6.91008 8.08842C6.93354 8.11131 6.96512 8.12395 6.99789 8.12355" stroke="#161924" stroke-width="1.5" stroke-linecap="round" stroke-linejoin="round"/>
<path d="M6.99789 16.1267C7.06695 16.1267 7.12294 16.0707 7.12294 16.0017C7.12294 15.9326 7.06695 15.8766 6.99789 15.8766C6.92882 15.8766 6.87284 15.9326 6.87284 16.0017V16.0047C6.87323 16.0374 6.88663 16.0687 6.91008 16.0916C6.93354 16.1145 6.96512 16.1271 6.99789 16.1267" stroke="#161924" stroke-width="1.5" stroke-linecap="round" stroke-linejoin="round"/>
<path d="M6.99789 12.1253C7.06695 12.1253 7.12294 12.0693 7.12294 12.0002C7.12294 11.9311 7.06695 11.8752 6.99789 11.8752C6.92882 11.8752 6.87284 11.9311 6.87284 12.0002V12.0032C6.87323 12.036 6.88663 12.0672 6.91008 12.0901C6.93354 12.113 6.96512 12.1257 6.99789 12.1253" stroke="#161924" stroke-width="1.5" stroke-linecap="round" stroke-linejoin="round"/>
</svg>
