<svg width="24" height="24" viewBox="0 0 24 24" fill="none" xmlns="http://www.w3.org/2000/svg">
<path d="M13.001 8.99874H17.0026" stroke="#161924" stroke-width="1.5" stroke-linecap="round" stroke-linejoin="round"/>
<path d="M6.99805 8.72464L7.91743 9.55299L9.7682 7.88629" stroke="#161924" stroke-width="1.5" stroke-linecap="round" stroke-linejoin="round"/>
<path d="M9.99901 20.0033H7.99818C5.2356 20.0033 2.99609 17.7638 2.99609 15.0013V6.99793C2.99609 4.23536 5.2356 1.99585 7.99818 1.99585H16.0015C17.3281 1.99585 18.6004 2.52285 19.5385 3.46093C20.4766 4.399 21.0036 5.6713 21.0036 6.99793V9.99918" stroke="#161924" stroke-width="1.5" stroke-linecap="round" stroke-linejoin="round"/>
<path d="M6.99805 13.7267L7.91743 14.5551L9.7682 12.8884" stroke="#161924" stroke-width="1.5" stroke-linecap="round" stroke-linejoin="round"/>
<path d="M14.001 13.9006V19.6033C14.002 20.3766 15.5684 21.0037 17.5019 21.0037C19.4355 21.0037 21.0019 20.3766 21.0029 19.6033V13.9006" stroke="#161924" stroke-width="1.5" stroke-linecap="round" stroke-linejoin="round"/>
<path d="M14.002 16.752C14.002 17.5252 15.5694 18.1523 17.5029 18.1523C19.4364 18.1523 21.0039 17.5252 21.0039 16.752" stroke="#161924" stroke-width="1.5" stroke-linecap="round" stroke-linejoin="round"/>
<path d="M14.002 13.9006C14.002 14.6738 15.5694 15.3009 17.5029 15.3009C19.4365 15.3009 21.0029 14.6738 21.0029 13.9006C21.0029 13.1264 19.4345 12.5002 17.5019 12.5002C15.5694 12.5002 14.002 13.1274 14.001 13.9006" stroke="#161924" stroke-width="1.5" stroke-linecap="round" stroke-linejoin="round"/>
</svg>
