<svg width="24" height="24" viewBox="0 0 24 24" fill="none" xmlns="http://www.w3.org/2000/svg">
<path d="M2.99609 21.0037V13.0004C2.99609 12.4479 3.444 12 3.99651 12H5.99734" stroke="#161924" stroke-width="1.5" stroke-linecap="round" stroke-linejoin="round"/>
<path d="M18.0029 12H20.0038C20.5563 12 21.0042 12.4479 21.0042 13.0004V21.0037" stroke="#161924" stroke-width="1.5" stroke-linecap="round" stroke-linejoin="round"/>
<path d="M5.99805 21.0037V10.8565C5.99734 10.4984 6.18812 10.1672 6.49826 9.98815L11.5003 7.12996C11.8078 6.95432 12.1853 6.95432 12.4928 7.12996L17.4948 9.98815C17.805 10.1672 17.9958 10.4984 17.995 10.8565V21.0037" stroke="#161924" stroke-width="1.5" stroke-linecap="round" stroke-linejoin="round"/>
<path d="M12.0002 10.9496C11.8622 10.9501 11.7507 11.0623 11.7511 11.2003C11.7514 11.3383 11.8635 11.45 12.0015 11.4498C12.1395 11.4496 12.2513 11.3377 12.2513 11.1997C12.2516 11.1331 12.2252 11.0692 12.178 11.0222C12.1308 10.9752 12.0668 10.949 12.0002 10.9496" stroke="#161924" stroke-width="1.5" stroke-linecap="round" stroke-linejoin="round"/>
<path d="M15.0012 16.0016V21.0037" stroke="#161924" stroke-width="1.5" stroke-linecap="round" stroke-linejoin="round"/>
<path d="M8.99923 21.0037V16.0016" stroke="#161924" stroke-width="1.5" stroke-linecap="round" stroke-linejoin="round"/>
<path d="M12.0002 16.0016V21.0037" stroke="#161924" stroke-width="1.5" stroke-linecap="round" stroke-linejoin="round"/>
<path d="M1.99609 21.0037H22.0044" stroke="#161924" stroke-width="1.5" stroke-linecap="round" stroke-linejoin="round"/>
<path d="M12.0002 2.99625V6.99791" stroke="#161924" stroke-width="1.5" stroke-linecap="round" stroke-linejoin="round"/>
<path d="M10.499 4.49688H13.5003" stroke="#161924" stroke-width="1.5" stroke-linecap="round" stroke-linejoin="round"/>
<path d="M8.99902 16.0017H15.0015" stroke="#161924" stroke-width="1.5" stroke-linecap="round" stroke-linejoin="round"/>
<path d="M8.49902 16.0017H15.5019" stroke="#161924" stroke-width="1.5" stroke-linecap="round" stroke-linejoin="round"/>
</svg>
