<svg width="24" height="24" viewBox="0 0 24 24" fill="none" xmlns="http://www.w3.org/2000/svg">
<circle cx="12" cy="12.0001" r="9.00375" stroke="#161924" stroke-width="1.5" stroke-linecap="round" stroke-linejoin="round"/>
<path d="M12.5002 7.9985C12.5002 7.72224 12.2762 7.49829 12 7.49829C11.7237 7.49829 11.4998 7.72224 11.4998 7.9985C11.4998 8.27476 11.7237 8.49871 12 8.49871C12.2762 8.49871 12.5002 8.27476 12.5002 7.9985" stroke="#161924" stroke-width="1.5" stroke-linecap="round" stroke-linejoin="round"/>
<path d="M9.03478 14.0009C9.03478 13.7247 8.81083 13.5007 8.53457 13.5007C8.25831 13.5007 8.03436 13.7247 8.03436 14.0009C8.03436 14.2772 8.25831 14.5011 8.53457 14.5011C8.81083 14.5011 9.03478 14.2772 9.03478 14.0009" stroke="#161924" stroke-width="1.5" stroke-linecap="round" stroke-linejoin="round"/>
<path d="M15.9656 14.0009C15.9656 13.7247 15.7417 13.5007 15.4654 13.5007C15.1892 13.5007 14.9652 13.7247 14.9652 14.0009C14.9652 14.2772 15.1892 14.5011 15.4654 14.5011C15.7417 14.5011 15.9656 14.2772 15.9656 14.0009" stroke="#161924" stroke-width="1.5" stroke-linecap="round" stroke-linejoin="round"/>
</svg>
