<svg width="24" height="24" viewBox="0 0 24 24" fill="none" xmlns="http://www.w3.org/2000/svg">
<path d="M16.0017 21.5041L14.0008 19.5033L16.0017 17.5024" stroke="#161924" stroke-width="1.5" stroke-linecap="round" stroke-linejoin="round"/>
<path d="M20.0033 19.5031H14.0008" stroke="#161924" stroke-width="1.5" stroke-linecap="round" stroke-linejoin="round"/>
<path d="M20.0616 15.5052C21.7684 12.0697 21.1105 7.93005 18.4228 5.19298C15.735 2.45591 11.6079 1.72288 8.14201 3.36696C4.67608 5.01103 2.63284 8.67096 3.05217 12.4841C3.4715 16.2972 6.26126 19.4256 10.0016 20.2772" stroke="#161924" stroke-width="1.5" stroke-linecap="round" stroke-linejoin="round"/>
<path d="M11.2927 12.7074L14.476 9.52411C15.0623 8.93884 16.0117 8.93884 16.5979 9.52411V9.52411C17.1832 10.1103 17.1832 11.0598 16.5979 11.646L12.7073 15.5366C12.1445 16.0996 11.381 16.416 10.5849 16.416C9.78881 16.416 9.02534 16.0996 8.46253 15.5366V15.5366C7.89949 14.9738 7.58316 14.2103 7.58316 13.4142C7.58316 12.6181 7.89949 11.8547 8.46253 11.2918L12 7.75537" stroke="#161924" stroke-width="1.5" stroke-linecap="round" stroke-linejoin="round"/>
</svg>
