<svg width="24" height="24" viewBox="0 0 24 24" fill="none" xmlns="http://www.w3.org/2000/svg">
<path d="M7 11.5H11.5V6" stroke="#161924" stroke-width="1.5" stroke-linecap="round" stroke-linejoin="round"/>
<path d="M22 17V14C22 13.1707 20.32 12.5 18.25 12.5C16.18 12.5 14.5011 13.1718 14.5 14V20C14.5011 20.8282 16.1789 21.5 18.25 21.5C20.3211 21.5 21.9989 20.8282 22 20V14" stroke="#161924" stroke-width="1.5" stroke-linecap="round" stroke-linejoin="round"/>
<path d="M14.5 14C14.5 14.8282 16.1792 15.5 18.2505 15.5C20.3219 15.5 22 14.8282 22 14" stroke="#161924" stroke-width="1.5" stroke-linecap="round" stroke-linejoin="round"/>
<path d="M14.5 17C14.5 17.8282 16.1789 18.5 18.25 18.5C20.3211 18.5 22 17.8282 22 17" stroke="#161924" stroke-width="1.5" stroke-linecap="round" stroke-linejoin="round"/>
<path d="M19.7696 8.99997C18.7217 4.40947 14.3117 1.40332 9.65572 2.10567C4.9998 2.80803 1.67282 6.98131 2.02564 11.6767C2.37846 16.3721 6.29173 20.0013 11.0003 20" stroke="#161924" stroke-width="1.5" stroke-linecap="round" stroke-linejoin="round"/>
</svg>
