<svg width="24" height="24" viewBox="0 0 24 24" fill="none" xmlns="http://www.w3.org/2000/svg">
<path d="M17.6919 18.3765L20.0033 20.6879" stroke="#161924" stroke-width="1.5" stroke-linecap="round" stroke-linejoin="round"/>
<path d="M6.30786 18.3767L3.99664 20.6879" stroke="#161924" stroke-width="1.5" stroke-linecap="round" stroke-linejoin="round"/>
<circle cx="12" cy="12.7504" r="8.00333" stroke="#161924" stroke-width="1.5"/>
<path fill-rule="evenodd" clip-rule="evenodd" d="M6.49768 3.24658C7.79774 3.24913 8.99038 3.96856 9.59898 5.11736C8.36716 5.49796 7.24738 6.17464 6.33762 7.08818C5.59883 7.83203 5.0111 8.71192 4.6069 9.67926C3.60198 9.04388 2.99375 7.93697 2.99622 6.74804C2.99835 4.81512 4.56476 3.2487 6.49768 3.24658Z" stroke="#161924" stroke-width="1.5"/>
<path fill-rule="evenodd" clip-rule="evenodd" d="M17.5023 3.24658C19.4352 3.2487 21.0016 4.81512 21.0038 6.74804C21.0062 7.93697 20.398 9.04388 19.3931 9.67926C18.9889 8.71192 18.4011 7.83203 17.6624 7.08818C16.7526 6.17464 15.6328 5.49796 14.401 5.11736C15.0096 3.96856 16.2022 3.24913 17.5023 3.24658Z" stroke="#161924" stroke-width="1.5"/>
<path d="M14.2341 11.6013L11.443 14.3925L9.76428 12.7198" stroke="#161924" stroke-width="1.5" stroke-linecap="round" stroke-linejoin="round"/>
</svg>
