<svg width="24" height="24" viewBox="0 0 24 24" fill="none" xmlns="http://www.w3.org/2000/svg">
<path d="M7.62988 13.8661L11.2859 11.6371V6.98608" stroke="#161924" stroke-width="1.5" stroke-linecap="round" stroke-linejoin="round"/>
<path d="M22 17V14C22 13.1707 20.32 12.5 18.25 12.5C16.18 12.5 14.5011 13.1718 14.5 14V20C14.5011 20.8282 16.1789 21.5 18.25 21.5C20.3211 21.5 21.9989 20.8282 22 20V14" stroke="#161924" stroke-width="1.5" stroke-linecap="round" stroke-linejoin="round"/>
<path d="M14.501 14C14.501 14.8282 16.1799 15.5 18.251 15.5C20.322 15.5 21.9999 14.8282 21.9999 14" stroke="#161924" stroke-width="1.5" stroke-linecap="round" stroke-linejoin="round"/>
<path d="M14.5 17C14.5 17.8282 16.1789 18.5 18.25 18.5C20.3211 18.5 22 17.8282 22 17" stroke="#161924" stroke-width="1.5" stroke-linecap="round" stroke-linejoin="round"/>
<path d="M19.7691 9.00008C18.721 4.40917 14.3104 1.40298 9.65414 2.10596C4.99789 2.80895 1.67132 6.98328 2.02531 11.679C2.37931 16.3747 6.2941 20.0031 11.0031 20.0001" stroke="#161924" stroke-width="1.5" stroke-linecap="round" stroke-linejoin="round"/>
</svg>
