<svg width="24" height="24" viewBox="0 0 24 24" fill="none" xmlns="http://www.w3.org/2000/svg">
<path d="M7.72024 17.4524C7.69261 17.4524 7.67022 17.4748 7.67022 17.5024C7.67022 17.53 7.69261 17.5524 7.72024 17.5524C7.74787 17.5524 7.77026 17.53 7.77026 17.5024C7.77026 17.4748 7.74787 17.4524 7.72024 17.4524" stroke="#161924" stroke-width="1.5" stroke-linecap="round" stroke-linejoin="round"/>
<path d="M5.27418 17.4524C5.261 17.4524 5.24838 17.4577 5.23916 17.4671C5.22993 17.4765 5.22489 17.4892 5.22516 17.5024C5.22516 17.53 5.24755 17.5524 5.27517 17.5524C5.3028 17.5524 5.3252 17.53 5.3252 17.5024C5.3252 17.4748 5.3028 17.4524 5.27517 17.4524" stroke="#161924" stroke-width="1.5" stroke-linecap="round" stroke-linejoin="round"/>
<circle cx="6.49772" cy="17.5024" r="4.50187" stroke="#161924" stroke-width="1.5" stroke-linecap="round" stroke-linejoin="round"/>
<path d="M4.36583 13.5367C3.20097 9.58021 4.86815 5.3376 8.41493 3.23263C11.9617 1.12765 16.4845 1.69659 19.3994 4.61441C22.3144 7.53222 22.8789 12.0556 20.7704 15.6003C18.6619 19.145 14.4177 20.808 10.4624 19.6392" stroke="#161924" stroke-width="1.5" stroke-linecap="round" stroke-linejoin="round"/>
<path d="M16.893 11.3908H12.5002V5.99756" stroke="#161924" stroke-width="1.5" stroke-linecap="round" stroke-linejoin="round"/>
</svg>
