<svg width="24" height="24" viewBox="0 0 24 24" fill="none" xmlns="http://www.w3.org/2000/svg">
<path d="M15.4492 18.554L18.553 15.4502" stroke="#161924" stroke-width="1.5" stroke-linecap="round" stroke-linejoin="round"/>
<path d="M15.2513 15.3261C15.2515 15.2847 15.2851 15.2513 15.3265 15.2513C15.3679 15.2514 15.4014 15.285 15.4014 15.3264C15.4014 15.3678 15.3679 15.4013 15.3265 15.4014C15.2851 15.4015 15.2515 15.368 15.2513 15.3267V15.3261" stroke="#161924" stroke-width="1.5" stroke-linecap="round" stroke-linejoin="round"/>
<rect x="12" y="12" width="10.0042" height="10.0042" rx="3" stroke="#161924" stroke-width="1.5" stroke-linecap="round" stroke-linejoin="round"/>
<path d="M18.753 18.6781C18.7528 18.7195 18.7192 18.7529 18.6778 18.7529C18.6364 18.7528 18.6029 18.7192 18.6029 18.6778C18.6029 18.6364 18.6364 18.6029 18.6778 18.6028C18.7192 18.6027 18.7528 18.6362 18.753 18.6775V18.6781" stroke="#161924" stroke-width="1.5" stroke-linecap="round" stroke-linejoin="round"/>
<path d="M9.01084 17.002C5.00004 16.7363 1.90931 13.3601 1.99795 9.34146C2.0866 5.32284 5.32321 2.08623 9.34182 1.99759C13.3604 1.90894 16.7366 4.99968 17.0024 9.01047" stroke="#161924" stroke-width="1.5" stroke-linecap="round" stroke-linejoin="round"/>
<path d="M6.69531 11.8883L9.74324 10.03V6.15259" stroke="#161924" stroke-width="1.5" stroke-linecap="round" stroke-linejoin="round"/>
</svg>
