<svg width="24" height="24" viewBox="0 0 24 24" fill="none" xmlns="http://www.w3.org/2000/svg">
<path d="M17.0039 17.98C17.0009 17.98 16.9989 17.982 16.9989 17.985C16.9989 17.988 17.0009 17.99 17.0039 17.99C17.0069 17.99 17.0089 17.988 17.0089 17.985C17.0089 17.982 17.0069 17.98 17.0039 17.98" stroke="#161924" stroke-width="1.5" stroke-linecap="round" stroke-linejoin="round"/>
<path d="M11.0039 17.985C11.0009 17.985 10.9989 17.987 10.9989 17.99C10.9989 17.993 11.0009 17.995 11.0039 17.995C11.0069 17.995 11.0089 17.993 11.0089 17.99C11.0089 17.987 11.0069 17.985 11.0039 17.985" stroke="#161924" stroke-width="1.5" stroke-linecap="round" stroke-linejoin="round"/>
<path d="M5.00391 17.98C5.00091 17.98 4.99891 17.982 4.99891 17.985C4.99891 17.988 5.00091 17.99 5.00391 17.99C5.00691 17.99 5.00891 17.988 5.00891 17.985C5.00891 17.982 5.00691 17.98 5.00391 17.98" stroke="#161924" stroke-width="1.5" stroke-linecap="round" stroke-linejoin="round"/>
<path d="M8.00391 20.99C8.00091 20.99 7.99891 20.992 7.99891 20.995C7.99891 20.998 8.00091 21 8.00391 21C8.00691 21 8.00891 20.998 8.00891 20.995C8.00891 20.992 8.00691 20.99 8.00391 20.99" stroke="#161924" stroke-width="1.5" stroke-linecap="round" stroke-linejoin="round"/>
<path d="M14 20.985C13.997 20.985 13.995 20.987 13.995 20.99C13.995 20.993 13.997 20.995 14 20.995C14.003 20.995 14.005 20.993 14.005 20.99C14.005 20.987 14.003 20.985 14 20.985" stroke="#161924" stroke-width="1.5" stroke-linecap="round" stroke-linejoin="round"/>
<path fill-rule="evenodd" clip-rule="evenodd" d="M15.9706 8.77601C15.4926 8.77601 15.0426 8.87401 14.6486 9.07101C14.3536 7.12801 12.6656 5.63501 10.6396 5.63501C8.43061 5.63501 6.63061 7.40901 6.57361 9.60601C5.25161 9.77501 4.22461 10.901 4.22461 12.296C4.22361 13.789 5.43261 15 6.92461 15H15.9696C17.6856 15 19.0786 13.606 19.0786 11.888C19.0786 10.17 17.6856 8.77601 15.9706 8.77601Z" stroke="#161924" stroke-width="1.5" stroke-linecap="round" stroke-linejoin="round"/>
<path d="M11.4648 5.72799C11.6988 3.64499 13.4478 2.01999 15.5958 2.01999C15.5958 4.32399 17.4668 6.19299 19.7738 6.19299C19.7738 7.58799 19.0808 8.81699 18.0278 9.57399" stroke="#161924" stroke-width="1.5" stroke-linecap="round" stroke-linejoin="round"/>
</svg>
