<svg width="24" height="24" viewBox="0 0 24 24" fill="none" xmlns="http://www.w3.org/2000/svg">
<path d="M6.5 18L5.5 20" stroke="#161924" stroke-width="1.5" stroke-linecap="round" stroke-linejoin="round"/>
<path d="M14.5 18L13.5 20" stroke="#161924" stroke-width="1.5" stroke-linecap="round" stroke-linejoin="round"/>
<path d="M10.5 19L9.5 21" stroke="#161924" stroke-width="1.5" stroke-linecap="round" stroke-linejoin="round"/>
<path d="M18 19L17.5 20" stroke="#161924" stroke-width="1.5" stroke-linecap="round" stroke-linejoin="round"/>
<path fill-rule="evenodd" clip-rule="evenodd" d="M15.9706 8.77601C15.4926 8.77601 15.0426 8.87401 14.6486 9.07101C14.3536 7.12801 12.6656 5.63501 10.6396 5.63501C8.43061 5.63501 6.63061 7.40901 6.57361 9.60601C5.25161 9.77501 4.22461 10.901 4.22461 12.296C4.22361 13.789 5.43261 15 6.92461 15H15.9696C17.6856 15 19.0786 13.606 19.0786 11.888C19.0786 10.17 17.6856 8.77601 15.9706 8.77601Z" stroke="#161924" stroke-width="1.5" stroke-linecap="round" stroke-linejoin="round"/>
<path d="M11.4648 5.72799C11.6988 3.64499 13.4478 2.01999 15.5958 2.01999C15.5958 4.32399 17.4668 6.19299 19.7738 6.19299C19.7738 7.58799 19.0808 8.81699 18.0278 9.57399" stroke="#161924" stroke-width="1.5" stroke-linecap="round" stroke-linejoin="round"/>
</svg>
