<svg width="24" height="24" viewBox="0 0 24 24" fill="none" xmlns="http://www.w3.org/2000/svg">
<path fill-rule="evenodd" clip-rule="evenodd" d="M17.0786 6.689C16.5166 6.689 15.9866 6.805 15.5236 7.036C15.1766 4.753 13.1916 3 10.8096 3C8.21258 3 6.09558 5.084 6.02958 7.665C4.47458 7.863 3.26758 9.187 3.26758 10.824C3.26658 12.577 4.68958 14 6.44258 14H17.0786C19.0966 14 20.7346 12.362 20.7346 10.344C20.7346 8.326 19.0966 6.689 17.0786 6.689V6.689Z" stroke="#161924" stroke-width="1.5" stroke-linecap="round" stroke-linejoin="round"/>
<path d="M12.2008 21L13.2008 19H10.8008L11.8008 17" stroke="#161924" stroke-width="1.5" stroke-linecap="round" stroke-linejoin="round"/>
<path d="M18 17L16.5 20" stroke="#161924" stroke-width="1.5" stroke-linecap="round" stroke-linejoin="round"/>
<path d="M7.5 17L6 20" stroke="#161924" stroke-width="1.5" stroke-linecap="round" stroke-linejoin="round"/>
</svg>
