<svg width="24" height="24" viewBox="0 0 24 24" fill="none" xmlns="http://www.w3.org/2000/svg">
<path fill-rule="evenodd" clip-rule="evenodd" d="M17.0786 6.689C16.5166 6.689 15.9866 6.805 15.5236 7.036C15.1766 4.753 13.1916 3 10.8096 3C8.21258 3 6.09558 5.084 6.02958 7.665C4.47458 7.863 3.26758 9.187 3.26758 10.824C3.26658 12.577 4.68958 14 6.44258 14H17.0786C19.0966 14 20.7346 12.362 20.7346 10.344C20.7346 8.326 19.0966 6.689 17.0786 6.689V6.689Z" stroke="#161924" stroke-width="1.5" stroke-linecap="round" stroke-linejoin="round"/>
<path d="M18 17L17.5 18" stroke="#161924" stroke-width="1.5" stroke-linecap="round" stroke-linejoin="round"/>
<path d="M9 20L8.5 21" stroke="#161924" stroke-width="1.5" stroke-linecap="round" stroke-linejoin="round"/>
<path d="M5.99609 16.995C5.99309 16.995 5.99109 16.997 5.99109 17C5.99109 17.003 5.99309 17.005 5.99609 17.005C5.99909 17.005 6.00109 17.003 6.00109 17C6.00109 16.997 5.99909 16.995 5.99609 16.995" stroke="#161924" stroke-width="1.5" stroke-linecap="round" stroke-linejoin="round"/>
<path d="M11.9961 16.995C11.9931 16.995 11.9911 16.997 11.9911 17C11.9911 17.003 11.9931 17.005 11.9961 17.005C11.9991 17.005 12.0011 17.003 12.0011 17C12.0011 16.997 11.9991 16.995 11.9961 16.995" stroke="#161924" stroke-width="1.5" stroke-linecap="round" stroke-linejoin="round"/>
<path d="M14 19.99C13.997 19.99 13.995 19.992 13.995 19.995C13.995 19.998 13.997 20 14 20C14.003 20 14.005 19.998 14.005 19.995C14.005 19.992 14.003 19.99 14 19.99" stroke="#161924" stroke-width="1.5" stroke-linecap="round" stroke-linejoin="round"/>
</svg>
