<svg width="24" height="24" viewBox="0 0 24 24" fill="none" xmlns="http://www.w3.org/2000/svg">
<path d="M16.0016 2.99634C18.7642 2.99634 21.0037 5.23585 21.0037 7.99842" stroke="#161924" stroke-width="1.5" stroke-linecap="round" stroke-linejoin="round"/>
<path d="M16.0016 5.99756C17.1067 5.99756 18.0025 6.89336 18.0025 7.99839" stroke="#161924" stroke-width="1.5" stroke-linecap="round" stroke-linejoin="round"/>
<path d="M12 2.99634H7.99833C5.23576 2.99634 2.99625 5.23585 2.99625 7.99842V16.0018C2.99625 18.7643 5.23576 21.0038 7.99833 21.0038H16.0017C18.7642 21.0038 21.0037 18.7643 21.0037 16.0018V12.0001" stroke="#161924" stroke-width="1.5" stroke-linecap="round" stroke-linejoin="round"/>
<path fill-rule="evenodd" clip-rule="evenodd" d="M14.6191 10.8996C14.052 8.97709 12.1169 7.80033 10.1491 8.18131C8.18126 8.56228 6.82515 10.3762 7.01655 12.3714C7.20795 14.3666 8.88418 15.8896 10.8885 15.8896H14.501C15.818 15.835 16.8665 14.7676 16.8977 13.4499C16.9288 12.1322 15.932 11.0164 14.6191 10.8996Z" stroke="#161924" stroke-width="1.5" stroke-linecap="round" stroke-linejoin="round"/>
</svg>
