<svg width="24" height="24" viewBox="0 0 24 24" fill="none" xmlns="http://www.w3.org/2000/svg">
<path d="M18 16.99C17.997 16.99 17.995 16.992 17.995 16.995C17.995 16.998 17.997 17 18 17C18.003 17 18.005 16.998 18.005 16.995C18.005 16.992 18.003 16.99 18 16.99" stroke="#161924" stroke-width="1.5" stroke-linecap="round" stroke-linejoin="round"/>
<path fill-rule="evenodd" clip-rule="evenodd" d="M17.0776 6.689C16.5156 6.689 15.9856 6.805 15.5226 7.036C15.1756 4.753 13.1906 3 10.8086 3C8.2116 3 6.0946 5.084 6.0286 7.665C4.4736 7.863 3.2666 9.187 3.2666 10.824C3.2656 12.577 4.6886 14 6.4416 14H17.0776C19.0956 14 20.7336 12.362 20.7336 10.344C20.7336 8.326 19.0956 6.689 17.0776 6.689V6.689Z" stroke="#161924" stroke-width="1.5" stroke-linecap="round" stroke-linejoin="round"/>
<path d="M12 16.995C11.997 16.995 11.995 16.997 11.995 17C11.995 17.003 11.997 17.005 12 17.005C12.003 17.005 12.005 17.003 12.005 17C12.005 16.997 12.003 16.995 12 16.995" stroke="#161924" stroke-width="1.5" stroke-linecap="round" stroke-linejoin="round"/>
<path d="M6 16.99C5.997 16.99 5.995 16.992 5.995 16.995C5.995 16.998 5.997 17 6 17C6.003 17 6.005 16.998 6.005 16.995C6.005 16.992 6.003 16.99 6 16.99" stroke="#161924" stroke-width="1.5" stroke-linecap="round" stroke-linejoin="round"/>
<path d="M9 20C8.997 20 8.995 20.002 8.995 20.005C8.995 20.008 8.997 20.01 9 20.01C9.003 20.01 9.005 20.008 9.005 20.005C9.005 20.002 9.003 20 9 20" stroke="#161924" stroke-width="1.5" stroke-linecap="round" stroke-linejoin="round"/>
<path d="M14.9941 19.995C14.9911 19.995 14.9891 19.997 14.9891 20C14.9891 20.003 14.9911 20.005 14.9941 20.005C14.9971 20.005 14.9991 20.003 14.9991 20C14.9991 19.997 14.9971 19.995 14.9941 19.995" stroke="#161924" stroke-width="1.5" stroke-linecap="round" stroke-linejoin="round"/>
</svg>
