<svg width="24" height="24" viewBox="0 0 24 24" fill="none" xmlns="http://www.w3.org/2000/svg">
<path d="M6.5 4V6" stroke="#161924" stroke-width="1.5" stroke-linecap="round" stroke-linejoin="round"/>
<path d="M7.5 5H5.5" stroke="#161924" stroke-width="1.5" stroke-linecap="round" stroke-linejoin="round"/>
<path fill-rule="evenodd" clip-rule="evenodd" d="M16.903 13.297C16.388 13.297 15.903 13.403 15.479 13.615C15.161 11.522 13.343 9.914 11.161 9.914C8.78195 9.914 6.84295 11.825 6.78195 14.191C5.35795 14.373 4.25195 15.586 4.25195 17.088C4.25095 18.696 5.55395 20 7.15995 20H16.902C18.75 20 20.25 18.499 20.25 16.648C20.251 14.798 18.751 13.297 16.903 13.297V13.297Z" stroke="#161924" stroke-width="1.5" stroke-linecap="round" stroke-linejoin="round"/>
<path d="M12.0508 10.014C12.3028 7.77002 14.1868 6.02002 16.5008 6.02002C16.5008 8.50202 18.5158 10.514 21.0008 10.514C21.0008 12.017 20.2548 13.34 19.1198 14.155" stroke="#161924" stroke-width="1.5" stroke-linecap="round" stroke-linejoin="round"/>
<path d="M4 9.98999H3" stroke="#161924" stroke-width="1.5" stroke-linecap="round" stroke-linejoin="round"/>
<path d="M3.5 9.48999V10.49" stroke="#161924" stroke-width="1.5" stroke-linecap="round" stroke-linejoin="round"/>
</svg>
