<svg width="24" height="24" viewBox="0 0 24 24" fill="none" xmlns="http://www.w3.org/2000/svg">
<path fill-rule="evenodd" clip-rule="evenodd" d="M15.9706 8.77601C15.4926 8.77601 15.0426 8.87401 14.6486 9.07101C14.3536 7.12801 12.6656 5.63501 10.6396 5.63501C8.43061 5.63501 6.63061 7.40901 6.57361 9.60601C5.25161 9.77501 4.22461 10.901 4.22461 12.296C4.22361 13.789 5.43261 15 6.92461 15H15.9696C17.6856 15 19.0786 13.606 19.0786 11.888C19.0786 10.17 17.6856 8.77601 15.9706 8.77601Z" stroke="#161924" stroke-width="1.5" stroke-linecap="round" stroke-linejoin="round"/>
<path d="M17.5098 18L17.0098 19" stroke="#161924" stroke-width="1.5" stroke-linecap="round" stroke-linejoin="round"/>
<path d="M8.50977 21L8.00977 22" stroke="#161924" stroke-width="1.5" stroke-linecap="round" stroke-linejoin="round"/>
<path d="M5.50391 17.995C5.50091 17.995 5.49891 17.997 5.49891 18C5.49891 18.003 5.50091 18.005 5.50391 18.005C5.50691 18.005 5.50891 18.003 5.50891 18C5.50891 17.997 5.50691 17.995 5.50391 17.995" stroke="#161924" stroke-width="1.5" stroke-linecap="round" stroke-linejoin="round"/>
<path d="M11.5039 17.995C11.5009 17.995 11.4989 17.997 11.4989 18C11.4989 18.003 11.5009 18.005 11.5039 18.005C11.5069 18.005 11.5089 18.003 11.5089 18C11.5089 17.997 11.5069 17.995 11.5039 17.995" stroke="#161924" stroke-width="1.5" stroke-linecap="round" stroke-linejoin="round"/>
<path d="M13.5098 20.99C13.5068 20.99 13.5048 20.992 13.5048 20.995C13.5048 20.998 13.5068 21 13.5098 21C13.5128 21 13.5148 20.998 13.5148 20.995C13.5148 20.992 13.5128 20.99 13.5098 20.99" stroke="#161924" stroke-width="1.5" stroke-linecap="round" stroke-linejoin="round"/>
<path d="M11.4648 5.72799C11.6988 3.64499 13.4478 2.01999 15.5958 2.01999C15.5958 4.32399 17.4668 6.19299 19.7738 6.19299C19.7738 7.58799 19.0808 8.81699 18.0278 9.57399" stroke="#161924" stroke-width="1.5" stroke-linecap="round" stroke-linejoin="round"/>
</svg>
