<svg width="24" height="24" viewBox="0 0 24 24" fill="none" xmlns="http://www.w3.org/2000/svg">
<path d="M20.5855 9.35198C20.8586 10.2083 20.9997 11.1013 21.0037 12.0001C21.0037 16.9727 16.9726 21.0038 12 21.0038C7.02733 21.0038 2.99622 16.9727 2.99622 12.0001C2.99622 7.02745 7.02733 2.99634 12 2.99634C12.8988 3.0004 13.7917 3.14141 14.6481 3.41451" stroke="#161924" stroke-width="1.5" stroke-linecap="round" stroke-linejoin="round"/>
<path fill-rule="evenodd" clip-rule="evenodd" d="M14.6191 10.8996C14.052 8.97709 12.1169 7.80033 10.149 8.18131C8.18122 8.56228 6.82512 10.3762 7.01652 12.3714C7.20792 14.3666 8.88415 15.8896 10.8885 15.8896H14.501C15.818 15.835 16.8665 14.7676 16.8976 13.4499C16.9288 12.1322 15.932 11.0164 14.6191 10.8996Z" stroke="#161924" stroke-width="1.5" stroke-linecap="round" stroke-linejoin="round"/>
<path d="M19.0149 6.25966L17.7394 4.98413" stroke="#161924" stroke-width="1.5" stroke-linecap="round" stroke-linejoin="round"/>
<path d="M21.0038 4.27075L19.015 6.25961" stroke="#161924" stroke-width="1.5" stroke-linecap="round" stroke-linejoin="round"/>
</svg>
