<svg width="24" height="24" viewBox="0 0 24 24" fill="none" xmlns="http://www.w3.org/2000/svg">
<path d="M18.503 8.99875L17.2945 19.2375C17.1756 20.2448 16.3217 21.0037 15.3074 21.0037H8.69415C7.67993 21.0037 6.82613 20.2449 6.70714 19.2377L5.49756 8.99875" stroke="#161924" stroke-width="1.5" stroke-linecap="round" stroke-linejoin="round"/>
<path fill-rule="evenodd" clip-rule="evenodd" d="M15.612 2.99625H8.38828C7.49513 2.99625 6.71015 3.5882 6.46456 4.44692L6.16421 5.49729H5.49767C5.06697 5.49727 4.68462 5.77293 4.54855 6.18157L4.04883 7.6822C3.94722 7.98726 3.99844 8.32257 4.18648 8.58339C4.37452 8.84422 4.67647 8.99875 4.99801 8.99875H19.0023C19.3238 8.99875 19.6258 8.84422 19.8138 8.58339C20.0018 8.32257 20.0531 7.98726 19.9515 7.6822L19.4517 6.18157C19.3157 5.77293 18.9333 5.49727 18.5026 5.49729H17.8361L17.5357 4.44692C17.2901 3.58819 16.5051 2.99625 15.612 2.99625Z" stroke="#161924" stroke-width="1.5" stroke-linecap="round" stroke-linejoin="round"/>
</svg>
