<svg width="24" height="24" viewBox="0 0 24 24" fill="none" xmlns="http://www.w3.org/2000/svg">
<path fill-rule="evenodd" clip-rule="evenodd" d="M11.5001 1.99582H15.5018C16.3306 1.99582 17.0024 2.66767 17.0024 3.49644V5.99749H9.99951V3.49644C9.99951 2.66767 10.6714 1.99582 11.5001 1.99582Z" stroke="#161924" stroke-width="1.5" stroke-linecap="round" stroke-linejoin="round"/>
<path d="M13.0007 14.501L1.99609 14.5011" stroke="#161924" stroke-width="1.5" stroke-linecap="round" stroke-linejoin="round"/>
<path d="M5.99756 7.99833V7.49812C5.99756 6.66935 6.66941 5.9975 7.49818 5.9975H19.5032C20.332 5.9975 21.0038 6.66935 21.0038 7.49812V19.0029C21.0038 20.1079 20.108 21.0037 19.003 21.0037H14.0009" stroke="#161924" stroke-width="1.5" stroke-linecap="round" stroke-linejoin="round"/>
<path fill-rule="evenodd" clip-rule="evenodd" d="M3.24346 15.3296L4.06199 21.0593C4.13943 21.6015 4.60373 22.0042 5.15136 22.0042H9.84532C10.393 22.0042 10.8573 21.6015 10.9347 21.0593L11.7532 15.3296C11.8499 14.6531 11.7877 13.9634 11.5716 13.3151L11.176 12.1283C10.9513 11.4542 10.3205 10.9996 9.60997 10.9996H5.38671C4.67621 10.9996 4.04542 11.4542 3.82074 12.1283L3.42511 13.3151C3.20901 13.9634 3.14682 14.6531 3.24346 15.3296Z" stroke="#161924" stroke-width="1.5" stroke-linecap="round" stroke-linejoin="round"/>
</svg>
