<svg width="24" height="24" viewBox="0 0 24 24" fill="none" xmlns="http://www.w3.org/2000/svg">
<path fill-rule="evenodd" clip-rule="evenodd" d="M3.997 10.4994H16.002C16.5545 10.4994 17.0024 10.9473 17.0024 11.4998V14.501C17.0024 17.8161 14.315 20.5035 10.9999 20.5035H8.99908C5.68399 20.5035 2.99658 17.8161 2.99658 14.501V11.4998C2.99658 10.9473 3.44448 10.4994 3.997 10.4994Z" stroke="#161924" stroke-width="1.5" stroke-linecap="round" stroke-linejoin="round"/>
<path d="M13.5007 7.49812C12.8338 6.79782 12.8338 5.69737 13.5007 4.99707C14.1676 4.29678 14.1676 3.19632 13.5007 2.49603" stroke="#161924" stroke-width="1.5" stroke-linecap="round" stroke-linejoin="round"/>
<path d="M9.99923 7.49812C9.33229 6.79782 9.33229 5.69737 9.99923 4.99707C10.6662 4.29678 10.6662 3.19633 9.99923 2.49603" stroke="#161924" stroke-width="1.5" stroke-linecap="round" stroke-linejoin="round"/>
<path d="M6.49777 7.49812C5.83082 6.79783 5.83082 5.69736 6.49777 4.99707C7.16471 4.29678 7.16471 3.19633 6.49777 2.49603" stroke="#161924" stroke-width="1.5" stroke-linecap="round" stroke-linejoin="round"/>
<path d="M16.1295 17.6173L17.9761 17.1947C19.7476 16.7893 21.0038 15.2132 21.0038 13.3959V13.3959C21.0038 12.6277 20.6986 11.891 20.1554 11.3477C19.6122 10.8045 18.8754 10.4994 18.1072 10.4994H15.5015" stroke="#161924" stroke-width="1.5" stroke-linecap="round" stroke-linejoin="round"/>
</svg>
