<svg width="24" height="24" viewBox="0 0 24 24" fill="none" xmlns="http://www.w3.org/2000/svg">
<ellipse cx="8.99859" cy="9.99915" rx="6.0025" ry="2.50104" stroke="#161924" stroke-width="1.5" stroke-linecap="round" stroke-linejoin="round"/>
<path d="M15.0011 13.5006C15.0011 14.8819 12.3137 16.0017 8.99859 16.0017C5.6835 16.0017 2.99609 14.8819 2.99609 13.5006" stroke="#161924" stroke-width="1.5" stroke-linecap="round" stroke-linejoin="round"/>
<path d="M21.0035 9.99915C21.0035 11.3804 18.3161 12.5002 15.001 12.5002" stroke="#161924" stroke-width="1.5" stroke-linecap="round" stroke-linejoin="round"/>
<path d="M15.0011 9.99915V17.5023C15.0011 18.8836 12.3137 20.0033 8.99859 20.0033C5.6835 20.0033 2.99609 18.8836 2.99609 17.5023V9.99915" stroke="#161924" stroke-width="1.5" stroke-linecap="round" stroke-linejoin="round"/>
<path d="M21.0035 6.49768V14.0008C21.0035 15.3821 18.3161 16.5018 15.001 16.5018" stroke="#161924" stroke-width="1.5" stroke-linecap="round" stroke-linejoin="round"/>
<path d="M9.49923 7.50811C9.20224 7.25317 9.02168 6.88843 8.99902 6.49768C8.99902 5.11711 11.6901 3.99664 15.0015 3.99664C18.3129 3.99664 21.004 5.11711 21.004 6.49768C21.004 7.87826 18.3129 8.99873 15.0015 8.99873C14.8315 8.99873 14.6614 8.99873 14.5013 8.98872" stroke="#161924" stroke-width="1.5" stroke-linecap="round" stroke-linejoin="round"/>
</svg>
