<svg width="24" height="24" viewBox="0 0 24 24" fill="none" xmlns="http://www.w3.org/2000/svg">
<path d="M18.407 14.016C18.787 13.085 19 12.068 19 11C19 6.582 15.418 3 11 3C6.582 3 3 6.582 3 11C3 15.418 6.582 19 11 19C12.068 19 13.086 18.787 14.018 18.407" stroke="#161924" stroke-width="1.5" stroke-linecap="round" stroke-linejoin="round"/>
<path d="M11 8.13198V7.49498" stroke="#161924" stroke-width="1.5" stroke-linecap="round" stroke-linejoin="round"/>
<path d="M11 13.859V14.495" stroke="#161924" stroke-width="1.5" stroke-linecap="round" stroke-linejoin="round"/>
<path d="M9.34284 13.176C9.58984 13.581 10.0118 13.86 10.5228 13.86H10.9998H11.5688C12.3098 13.86 12.9088 13.26 12.9088 12.52C12.9088 11.905 12.4898 11.37 11.8938 11.219L10.1038 10.769C9.50884 10.62 9.08984 10.085 9.08984 9.47C9.08984 8.729 9.68984 8.13 10.4298 8.13H10.9998H11.4768C11.9858 8.13 12.4078 8.409 12.6538 8.813" stroke="#161924" stroke-width="1.5" stroke-linecap="round" stroke-linejoin="round"/>
<path d="M18 14C20.209 14 22 15.791 22 18C22 20.209 20.209 22 18 22C15.791 22 14 20.209 14 18C14 15.791 15.791 14 18 14" stroke="#161924" stroke-width="1.5" stroke-linecap="round" stroke-linejoin="round"/>
<path d="M16.6802 18.131H19.3602" stroke="#161924" stroke-width="1.5" stroke-linecap="round" stroke-linejoin="round"/>
<path d="M18.019 19.471V16.791" stroke="#161924" stroke-width="1.5" stroke-linecap="round" stroke-linejoin="round"/>
</svg>
