<svg width="24" height="24" viewBox="0 0 24 24" fill="none" xmlns="http://www.w3.org/2000/svg">
<path d="M20.5854 9.35186C20.8586 10.2082 20.9996 11.1011 21.0036 12C21.0036 16.9726 16.9725 21.0037 11.9998 21.0037C7.02721 21.0037 2.99609 16.9726 2.99609 12C2.99609 7.02733 7.02721 2.99622 11.9998 2.99622C12.8987 3.00021 13.7916 3.14122 14.6479 3.41439" stroke="#161924" stroke-width="1.5" stroke-linecap="round" stroke-linejoin="round"/>
<path d="M21.0036 4.27075L19.0148 6.25958L17.7393 4.98405" stroke="#161924" stroke-width="1.5" stroke-linecap="round" stroke-linejoin="round"/>
<path d="M13.5005 14.501C11.5667 14.501 9.99902 12.9334 9.99902 10.9996C9.99902 9.06576 11.5667 7.49811 13.5005 7.49811C15.4343 7.49811 17.0019 9.06576 17.0019 10.9996C17.0019 12.9334 15.4343 14.501 13.5005 14.501" stroke="#161924" stroke-width="1.5" stroke-linecap="round" stroke-linejoin="round"/>
<path d="M10.3291 9.51697C8.61861 9.59709 7.21816 10.9049 7.02139 12.606C6.82463 14.307 7.88953 15.9001 9.53659 16.3686C11.1836 16.8371 12.9275 16.043 13.6555 14.493" stroke="#161924" stroke-width="1.5" stroke-linecap="round" stroke-linejoin="round"/>
</svg>
