<svg width="24" height="24" viewBox="0 0 24 24" fill="none" xmlns="http://www.w3.org/2000/svg">
<path d="M17.0018 8.99876V6.99792H15.001" stroke="#161924" stroke-width="1.5" stroke-linecap="round" stroke-linejoin="round"/>
<path d="M9.99902 9.28488L11.2856 7.99834L14.0007 9.99917L17.0019 6.99792" stroke="#161924" stroke-width="1.5" stroke-linecap="round" stroke-linejoin="round"/>
<path d="M14.001 13.5006L17.0022 13.5007" stroke="#161924" stroke-width="1.5" stroke-linecap="round" stroke-linejoin="round"/>
<path d="M14.001 16.5019L17.0022 16.502" stroke="#161924" stroke-width="1.5" stroke-linecap="round" stroke-linejoin="round"/>
<path d="M2.99609 13.6006V20.4035C2.99723 21.2873 4.7877 22.0041 6.99776 22.0041C9.20782 22.0041 10.9983 21.2873 10.9994 20.4035V13.6006" stroke="#161924" stroke-width="1.5" stroke-linecap="round" stroke-linejoin="round"/>
<path d="M10.9983 13.6007C10.9983 14.4845 9.20668 15.2013 6.99662 15.2013C4.78656 15.2013 2.99609 14.4845 2.99609 13.6007C2.99609 12.7157 4.78884 12 6.99776 12C9.20668 12 10.9983 12.7169 10.9994 13.6007" stroke="#161924" stroke-width="1.5" stroke-linecap="round" stroke-linejoin="round"/>
<path d="M2.99707 17.0021C2.99707 17.8859 4.78754 18.6027 6.9976 18.6027C9.20766 18.6027 10.9993 17.8859 10.9993 17.0021" stroke="#161924" stroke-width="1.5" stroke-linecap="round" stroke-linejoin="round"/>
<path d="M4.99707 8.99872V4.99705C4.99707 3.89202 5.89287 2.99622 6.9979 2.99622H19.0029C20.1079 2.99622 21.0037 3.89202 21.0037 4.99705V18.0025C21.0037 19.1075 20.1079 20.0033 19.0029 20.0033H14.0008" stroke="#161924" stroke-width="1.5" stroke-linecap="round" stroke-linejoin="round"/>
</svg>
