<svg width="24" height="24" viewBox="0 0 24 24" fill="none" xmlns="http://www.w3.org/2000/svg">
<path d="M11.793 9.20523L15.2071 5.79108" stroke="#161924" stroke-width="1.5" stroke-linecap="round" stroke-linejoin="round"/>
<path d="M11.5749 5.65457C11.5751 5.60905 11.6121 5.57225 11.6576 5.57234C11.7031 5.57242 11.74 5.60935 11.74 5.65487C11.74 5.7004 11.7031 5.73732 11.6576 5.73741C11.6121 5.73749 11.5751 5.7007 11.5749 5.65517V5.65457" stroke="#161924" stroke-width="1.5" stroke-linecap="round" stroke-linejoin="round"/>
<path d="M7.99805 6.99793V5.29722C7.99805 3.47393 9.47612 1.99585 11.2994 1.99585H15.7013C17.5246 1.99585 19.0026 3.47393 19.0026 5.29722V9.69906C19.0026 11.5224 17.5246 13.0004 15.7013 13.0004H15.001" stroke="#161924" stroke-width="1.5" stroke-linecap="round" stroke-linejoin="round"/>
<path d="M15.4265 9.3417C15.4263 9.38722 15.3893 9.42401 15.3438 9.42393C15.2983 9.42385 15.2614 9.38692 15.2614 9.34139C15.2614 9.29587 15.2983 9.25894 15.3438 9.25886C15.3893 9.25878 15.4263 9.29557 15.4265 9.34109V9.3417" stroke="#161924" stroke-width="1.5" stroke-linecap="round" stroke-linejoin="round"/>
<path d="M19.0031 16.0016V21.0037" stroke="#161924" stroke-width="1.5" stroke-linecap="round" stroke-linejoin="round"/>
<path d="M17.002 18.0025L19.0028 16.0016" stroke="#161924" stroke-width="1.5" stroke-linecap="round" stroke-linejoin="round"/>
<path d="M21.0038 18.0025L19.0029 16.0016" stroke="#161924" stroke-width="1.5" stroke-linecap="round" stroke-linejoin="round"/>
<path d="M2.99609 12.6002V19.4031C2.99723 20.2869 4.7877 21.0037 6.99776 21.0037C9.20782 21.0037 10.9983 20.2869 10.9994 19.4031V12.6002" stroke="#161924" stroke-width="1.5" stroke-linecap="round" stroke-linejoin="round"/>
<path d="M10.9983 12.6002C10.9983 13.484 9.20668 14.2009 6.99662 14.2009C4.78656 14.2009 2.99609 13.484 2.99609 12.6002C2.99609 11.7153 4.78884 10.9996 6.99776 10.9996C9.20668 10.9996 10.9983 11.7164 10.9994 12.6002" stroke="#161924" stroke-width="1.5" stroke-linecap="round" stroke-linejoin="round"/>
<path d="M2.99707 16.0016C2.99707 16.8854 4.78754 17.6023 6.9976 17.6023C9.20766 17.6023 10.9993 16.8854 10.9993 16.0016" stroke="#161924" stroke-width="1.5" stroke-linecap="round" stroke-linejoin="round"/>
</svg>
