<svg width="24" height="24" viewBox="0 0 24 24" fill="none" xmlns="http://www.w3.org/2000/svg">
<path d="M18.3639 5.63604C21.8787 9.15076 21.8787 14.8492 18.3639 18.3639C14.8492 21.8787 9.15074 21.8787 5.63604 18.3639C2.12132 14.8492 2.12132 9.15074 5.63604 5.63604C9.15076 2.12132 14.8492 2.12132 18.3639 5.63604" stroke="#161924" stroke-width="1.5" stroke-linecap="round" stroke-linejoin="round"/>
<path d="M13.5 14.5C11.567 14.5 10 12.933 10 11C10 9.067 11.567 7.5 13.5 7.5C15.434 7.5 17 9.067 17 11C17 12.933 15.434 14.5 13.5 14.5" stroke="#161924" stroke-width="1.5" stroke-linecap="round" stroke-linejoin="round"/>
<path d="M10.33 9.51801C8.478 9.60801 7 11.126 7 13C7 14.933 8.567 16.5 10.5 16.5C11.897 16.5 13.093 15.676 13.655 14.492" stroke="#161924" stroke-width="1.5" stroke-linecap="round" stroke-linejoin="round"/>
</svg>
