<svg width="24" height="24" viewBox="0 0 24 24" fill="none" xmlns="http://www.w3.org/2000/svg">
<path fill-rule="evenodd" clip-rule="evenodd" d="M12 21.0038C16.9726 21.0038 21.0037 16.9727 21.0037 12.0001C21.0037 7.02745 16.9726 2.99634 12 2.99634C7.02733 2.99634 2.99622 7.02745 2.99622 12.0001C2.99622 16.9727 7.02733 21.0038 12 21.0038V21.0038Z" stroke="#161924" stroke-width="1.5" stroke-linecap="round" stroke-linejoin="round"/>
<path d="M5.56018 5.71143L7.84655 7.99844" stroke="#161924" stroke-width="1.5" stroke-linecap="round" stroke-linejoin="round"/>
<path d="M15.8473 16.0017L18.286 18.4411" stroke="#161924" stroke-width="1.5" stroke-linecap="round" stroke-linejoin="round"/>
<path fill-rule="evenodd" clip-rule="evenodd" d="M8.26469 15.1027L9.816 10.4487C9.91558 10.15 10.15 9.91558 10.4487 9.816L15.1027 8.26469C15.2824 8.20478 15.4806 8.25157 15.6145 8.38553C15.7485 8.5195 15.7953 8.71767 15.7354 8.89741L14.1841 13.5513C14.0845 13.8501 13.8501 14.0845 13.5513 14.1841L8.89741 15.7354C8.71767 15.7953 8.5195 15.7485 8.38553 15.6145C8.25157 15.4806 8.20478 15.2824 8.26469 15.1027Z" stroke="#161924" stroke-width="1.5" stroke-linecap="round" stroke-linejoin="round"/>
</svg>
