<svg width="24" height="24" viewBox="0 0 24 24" fill="none" xmlns="http://www.w3.org/2000/svg">
<path d="M13.0004 20.9418C12.6685 20.983 12.3344 21.0038 12 21.0038C7.02733 21.0038 2.99622 16.9727 2.99622 12.0001C2.99622 7.02745 7.02733 2.99634 12 2.99634C16.9726 2.99634 21.0037 7.02745 21.0037 12.0001C21.0037 12.3345 20.9828 12.6686 20.9417 13.0005" stroke="#161924" stroke-width="1.5" stroke-linecap="round" stroke-linejoin="round"/>
<path fill-rule="evenodd" clip-rule="evenodd" d="M13.5806 15.0435L9.85207 15.9579C9.34428 16.0799 8.80957 15.9292 8.44029 15.5599C8.071 15.1906 7.92027 14.6559 8.04231 14.1481L8.95669 10.4195C9.13487 9.69827 9.69803 9.13511 10.4193 8.95694L14.1479 8.04256C14.6556 7.92051 15.1904 8.07125 15.5596 8.44053C15.9289 8.80981 16.0797 9.34453 15.9576 9.85231L15.0432 13.5809C14.8651 14.3021 14.3019 14.8653 13.5806 15.0435Z" stroke="#161924" stroke-width="1.5" stroke-linecap="round" stroke-linejoin="round"/>
<path d="M19.4901 17.0142L17.014 19.4902" stroke="#161924" stroke-width="1.5" stroke-linecap="round" stroke-linejoin="round"/>
<path d="M17.0151 17.0142L19.4912 19.4902" stroke="#161924" stroke-width="1.5" stroke-linecap="round" stroke-linejoin="round"/>
<path d="M11.9999 11.7501C11.8619 11.7507 11.7505 11.8629 11.7508 12.0009C11.7512 12.1389 11.8633 12.2505 12.0013 12.2503C12.1393 12.2501 12.251 12.1382 12.251 12.0002C12.2513 11.9336 12.2249 11.8697 12.1777 11.8227C12.1306 11.7757 12.0665 11.7496 11.9999 11.7501" stroke="#161924" stroke-width="1.5" stroke-linecap="round" stroke-linejoin="round"/>
</svg>
