<svg width="24" height="24" viewBox="0 0 24 24" fill="none" xmlns="http://www.w3.org/2000/svg">
<path d="M6.49805 2.49609L7.99867 3.99672L6.49805 5.49734" stroke="#161924" stroke-width="1.5" stroke-linecap="round" stroke-linejoin="round"/>
<path d="M7.99867 3.9967H5.99783C4.34029 3.9967 2.99658 5.34041 2.99658 6.99795" stroke="#161924" stroke-width="1.5" stroke-linecap="round" stroke-linejoin="round"/>
<path d="M17.5026 21.5039L16.002 20.0033L17.5026 18.5027" stroke="#161924" stroke-width="1.5" stroke-linecap="round" stroke-linejoin="round"/>
<path d="M10.9998 13.0004L7.99854 16.0016" stroke="#161924" stroke-width="1.5" stroke-linecap="round" stroke-linejoin="round"/>
<path d="M10.9998 16.0016L7.99854 13.0004" stroke="#161924" stroke-width="1.5" stroke-linecap="round" stroke-linejoin="round"/>
<path fill-rule="evenodd" clip-rule="evenodd" d="M9.49887 20.0034C12.5377 20.0034 15.0012 17.5399 15.0012 14.5011C15.0012 11.4622 12.5377 8.99878 9.49887 8.99878C6.46004 8.99878 3.99658 11.4622 3.99658 14.5011C3.99658 17.5399 6.46004 20.0034 9.49887 20.0034Z" stroke="#161924" stroke-width="1.5" stroke-linecap="round" stroke-linejoin="round"/>
<path d="M16.002 20.0033H18.0028C19.6603 20.0033 21.004 18.6596 21.004 17.0021" stroke="#161924" stroke-width="1.5" stroke-linecap="round" stroke-linejoin="round"/>
<path d="M10.1523 6.15053C10.2924 5.95947 10.4455 5.77829 10.6105 5.60831C12.7634 3.48408 16.2272 3.49568 18.3658 5.63429C20.5044 7.77289 20.516 11.2367 18.3918 13.3895C18.2212 13.5544 18.0383 13.7059 17.8445 13.8427" stroke="#161924" stroke-width="1.5" stroke-linecap="round" stroke-linejoin="round"/>
</svg>
