<svg width="24" height="24" viewBox="0 0 24 24" fill="none" xmlns="http://www.w3.org/2000/svg">
<path d="M7.99867 3.9967L6.49805 5.49733" stroke="#161924" stroke-width="1.5" stroke-linecap="round" stroke-linejoin="round"/>
<path d="M6.49805 2.49609L7.99867 3.99672" stroke="#161924" stroke-width="1.5" stroke-linecap="round" stroke-linejoin="round"/>
<path d="M5.99783 3.9967C4.34029 3.9967 2.99658 5.34041 2.99658 6.99795" stroke="#161924" stroke-width="1.5" stroke-linecap="round" stroke-linejoin="round"/>
<path d="M5.99756 3.99667H7.99839" stroke="#161924" stroke-width="1.5" stroke-linecap="round" stroke-linejoin="round"/>
<path d="M16.002 20.0033L17.5026 18.5027" stroke="#161924" stroke-width="1.5" stroke-linecap="round" stroke-linejoin="round"/>
<path d="M17.5026 21.5039L16.002 20.0033" stroke="#161924" stroke-width="1.5" stroke-linecap="round" stroke-linejoin="round"/>
<path d="M18.0024 20.0033C19.66 20.0033 21.0037 18.6596 21.0037 17.0021" stroke="#161924" stroke-width="1.5" stroke-linecap="round" stroke-linejoin="round"/>
<path d="M18.0028 20.0034H16.002" stroke="#161924" stroke-width="1.5" stroke-linecap="round" stroke-linejoin="round"/>
<path fill-rule="evenodd" clip-rule="evenodd" d="M9.49887 20.0034C12.5377 20.0034 15.0012 17.5399 15.0012 14.5011C15.0012 11.4622 12.5377 8.99878 9.49887 8.99878C6.46004 8.99878 3.99658 11.4622 3.99658 14.5011C4.01407 17.5326 6.46731 19.9859 9.49887 20.0034Z" stroke="#161924" stroke-width="1.5" stroke-linecap="round" stroke-linejoin="round"/>
<path d="M11.0557 13.7238L9.11087 15.6686L7.94238 14.5011" stroke="#161924" stroke-width="1.5" stroke-linecap="round" stroke-linejoin="round"/>
<path d="M18.392 5.60828C20.5318 7.76067 20.5318 11.2371 18.392 13.3895C18.2213 13.5543 18.0384 13.7058 17.8447 13.8427" stroke="#161924" stroke-width="1.5" stroke-linecap="round" stroke-linejoin="round"/>
<path d="M18.3918 5.60832C16.2394 3.46845 12.7629 3.46845 10.6105 5.60832C10.4456 5.7784 10.2925 5.95957 10.1523 6.15054" stroke="#161924" stroke-width="1.5" stroke-linecap="round" stroke-linejoin="round"/>
</svg>
