<svg width="24" height="24" viewBox="0 0 24 24" fill="none" xmlns="http://www.w3.org/2000/svg">
<path d="M9.33245 13.2837C9.30508 13.2837 9.28289 13.3059 9.28289 13.3332V13.3332V13.3337C9.28289 13.3613 9.30529 13.3837 9.33291 13.3837C9.36054 13.3837 9.38293 13.3613 9.38293 13.3337C9.38293 13.3061 9.36054 13.2837 9.33291 13.2837H9.33245" stroke="#161924" stroke-width="1.5" stroke-linecap="round" stroke-linejoin="round"/>
<path d="M9.99917 9.94824C9.98603 9.94811 9.97338 9.95321 9.964 9.96242C9.95461 9.97162 9.94928 9.98417 9.94915 9.99732V9.99732V9.99873C9.94941 10.0263 9.97192 10.0484 9.99948 10.0483C10.027 10.0481 10.0493 10.0257 10.0492 9.9981C10.0491 9.97054 10.0267 9.94824 9.99917 9.94824" stroke="#161924" stroke-width="1.5" stroke-linecap="round" stroke-linejoin="round"/>
<path d="M12.6668 14.6181C12.6394 14.6181 12.6172 14.6403 12.6172 14.6677V14.6677V14.6683C12.6172 14.6959 12.6396 14.7182 12.6672 14.7182C12.6948 14.7182 12.7172 14.6958 12.7172 14.6682C12.7172 14.6406 12.6949 14.6182 12.6673 14.6182" stroke="#161924" stroke-width="1.5" stroke-linecap="round" stroke-linejoin="round"/>
<path d="M12.0005 11.9492C11.9874 11.9492 11.9748 11.9544 11.9655 11.9637C11.9562 11.973 11.951 11.9856 11.951 11.9988V11.9997C11.9512 12.0199 11.9635 12.0381 11.9823 12.0456C12.0011 12.0532 12.0225 12.0487 12.0367 12.0343C12.0509 12.0198 12.0549 11.9983 12.047 11.9797C12.0391 11.961 12.0208 11.949 12.0005 11.9492" stroke="#161924" stroke-width="1.5" stroke-linecap="round" stroke-linejoin="round"/>
<path fill-rule="evenodd" clip-rule="evenodd" d="M12 5.99756C12 9.31265 14.6874 12.0001 18.0025 12.0001C18.0025 15.3151 15.3151 18.0026 12 18.0026C8.68491 18.0026 5.9975 15.3151 5.9975 12.0001C5.9975 8.68497 8.68491 5.99756 12 5.99756Z" stroke="#161924" stroke-width="1.5" stroke-linecap="round" stroke-linejoin="round"/>
<path d="M20.5855 9.35198C20.8587 10.2083 20.9997 11.1013 21.0037 12.0001C21.0037 16.9727 16.9726 21.0038 12 21.0038C7.02733 21.0038 2.99622 16.9727 2.99622 12.0001C2.99622 7.02745 7.02733 2.99634 12 2.99634C12.8988 3.00033 13.7918 3.14134 14.6481 3.41451" stroke="#161924" stroke-width="1.5" stroke-linecap="round" stroke-linejoin="round"/>
<path d="M21.0037 4.27197L19.0159 6.2598L17.7394 4.98527" stroke="#161924" stroke-width="1.5" stroke-linecap="round" stroke-linejoin="round"/>
</svg>
