<svg width="24" height="24" viewBox="0 0 24 24" fill="none" xmlns="http://www.w3.org/2000/svg">
<path d="M5.99805 13.5006V11.4998C5.99805 10.9473 6.44595 10.4994 6.99846 10.4994H17.0026C17.5551 10.4994 18.003 10.9473 18.003 11.4998V13.5006" stroke="#161924" stroke-width="1.5" stroke-linecap="round" stroke-linejoin="round"/>
<path d="M9.99923 13.5006V18.0025" stroke="#161924" stroke-width="1.5" stroke-linecap="round" stroke-linejoin="round"/>
<path d="M6.99826 18.0025V13.5006" stroke="#161924" stroke-width="1.5" stroke-linecap="round" stroke-linejoin="round"/>
<path d="M14.0012 13.5006V18.0025" stroke="#161924" stroke-width="1.5" stroke-linecap="round" stroke-linejoin="round"/>
<path d="M17.0022 18.0025V13.5006" stroke="#161924" stroke-width="1.5" stroke-linecap="round" stroke-linejoin="round"/>
<path d="M15.9686 10.4994C15.9686 8.30756 14.1917 6.53073 11.9999 6.53073C9.80808 6.53073 8.03125 8.30756 8.03125 10.4994" stroke="#161924" stroke-width="1.5" stroke-linecap="round" stroke-linejoin="round"/>
<path d="M20.0037 18.0025V14.501C20.0037 13.9485 19.5558 13.5006 19.0033 13.5006H4.99749C4.44497 13.5006 3.99707 13.9485 3.99707 14.501V18.0025" stroke="#161924" stroke-width="1.5" stroke-linecap="round" stroke-linejoin="round"/>
<path d="M21.0036 21.0038V19.4171C21.0036 19.1518 20.8981 18.8974 20.7105 18.7098L20.0032 18.0025H3.99651L3.28922 18.7098C3.10159 18.8974 2.99609 19.1518 2.99609 19.4171V21.0038" stroke="#161924" stroke-width="1.5" stroke-linecap="round" stroke-linejoin="round"/>
<path d="M22.0044 21.0037H1.99609" stroke="#161924" stroke-width="1.5" stroke-linecap="round" stroke-linejoin="round"/>
<path d="M12 6.49769V2.49603C12 2.21977 12.224 1.99582 12.5002 1.99582H15.5015C15.7777 1.99582 16.0017 2.21977 16.0017 2.49603V3.91462C16.0017 4.19088 15.7777 4.41483 15.5015 4.41483H12" stroke="#161924" stroke-width="1.5" stroke-linecap="round" stroke-linejoin="round"/>
</svg>
