<svg width="24" height="24" viewBox="0 0 24 24" fill="none" xmlns="http://www.w3.org/2000/svg">
<path d="M19.0032 14.0008V17.0021C19.0032 19.2121 17.2116 21.0037 15.0016 21.0037H6.99825C4.78819 21.0037 2.99658 19.2121 2.99658 17.0021V8.99874C2.99658 6.78868 4.78819 4.99707 6.99825 4.99707H9.9995" stroke="#161924" stroke-width="1.5" stroke-linecap="round" stroke-linejoin="round"/>
<path fill-rule="evenodd" clip-rule="evenodd" d="M5.99756 13.8007V16.6019C5.99756 17.3754 6.62462 18.0025 7.39814 18.0025H11.5999C12.3734 18.0025 13.0005 17.3754 13.0005 16.6019V13.8007C13.0005 13.0272 12.3734 12.4001 11.5999 12.4001H7.39814C6.62462 12.4001 5.99756 13.0272 5.99756 13.8007Z" stroke="#161924" stroke-width="1.5" stroke-linecap="round" stroke-linejoin="round"/>
<path d="M13.0005 15.0012H5.99756" stroke="#161924" stroke-width="1.5" stroke-linecap="round" stroke-linejoin="round"/>
<path d="M17.0022 2.99622C19.2122 2.99622 21.0038 4.78782 21.0038 6.99788C21.0038 9.20794 19.2122 10.9995 17.0022 10.9995C14.7921 10.9995 13.0005 9.20794 13.0005 6.99788C13.0005 4.78782 14.7921 2.99622 17.0022 2.99622" stroke="#161924" stroke-width="1.5" stroke-linecap="round" stroke-linejoin="round"/>
<path d="M18.5586 6.22058L16.6138 8.16539L15.4453 6.9979" stroke="#161924" stroke-width="1.5" stroke-linecap="round" stroke-linejoin="round"/>
</svg>
