<svg width="24" height="24" viewBox="0 0 24 24" fill="none" xmlns="http://www.w3.org/2000/svg">
<path d="M3 8H21" stroke="#161924" stroke-width="1.5" stroke-linecap="round" stroke-linejoin="round"/>
<path d="M9 12H6.479" stroke="#161924" stroke-width="1.5" stroke-linecap="round" stroke-linejoin="round"/>
<path d="M10 18H6C4.34315 18 3 16.6569 3 15V7C3 5.34315 4.34315 4 6 4H18C19.6569 4 21 5.34315 21 7V10" stroke="#161924" stroke-width="1.5" stroke-linecap="round" stroke-linejoin="round"/>
<path d="M17.5 12C19.9853 12 22 14.0147 22 16.5C22 18.9853 19.9853 21 17.5 21C15.0147 21 13 18.9853 13 16.5C13 14.0147 15.0147 12 17.5 12" stroke="#161924" stroke-width="1.5" stroke-linecap="round" stroke-linejoin="round"/>
<path d="M19.0935 16.801H17.1987" stroke="#161924" stroke-width="1.5" stroke-linecap="round" stroke-linejoin="round"/>
<path d="M17.1987 16.8012V14.9065" stroke="#161924" stroke-width="1.5" stroke-linecap="round" stroke-linejoin="round"/>
</svg>
