<svg width="24" height="24" viewBox="0 0 24 24" fill="none" xmlns="http://www.w3.org/2000/svg">
<path d="M6.2998 18.5H10.6998" stroke="#161924" stroke-width="1.5" stroke-linecap="round" stroke-linejoin="round"/>
<path fill-rule="evenodd" clip-rule="evenodd" d="M14 9H20C20.553 9 21 9.448 21 10V14C21 14.553 20.552 15 20 15H14C13.447 15 13 14.552 13 14V10C13 9.448 13.448 9 14 9Z" stroke="#161924" stroke-width="1.5" stroke-linecap="round" stroke-linejoin="round"/>
<path d="M8 10L10 12.001L8 14" stroke="#161924" stroke-width="1.5" stroke-linecap="round" stroke-linejoin="round"/>
<path d="M10 12H6" stroke="#161924" stroke-width="1.5" stroke-linecap="round" stroke-linejoin="round"/>
<path d="M14 18V19C14 20.105 13.105 21 12 21H5C3.895 21 3 20.105 3 19V5C3 3.895 3.895 3 5 3H12C13.105 3 14 3.895 14 5V6" stroke="#161924" stroke-width="1.5" stroke-linecap="round" stroke-linejoin="round"/>
</svg>
