<svg width="24" height="24" viewBox="0 0 24 24" fill="none" xmlns="http://www.w3.org/2000/svg">
<path d="M17 21C14.239 21 12 18.761 12 16C12 13.239 14.239 11 17 11C19.762 11 22 13.239 22 16C22 18.761 19.762 21 17 21" stroke="#161924" stroke-width="1.5" stroke-linecap="round" stroke-linejoin="round"/>
<path d="M2 6.84998H21" stroke="#161924" stroke-width="1.5" stroke-linecap="round" stroke-linejoin="round"/>
<path d="M21 13V5C21 3.895 20.105 3 19 3H4C2.895 3 2 3.895 2 5V14C2 15.105 2.895 16 4 16H12" stroke="#161924" stroke-width="1.5" stroke-linecap="round" stroke-linejoin="round"/>
<path d="M18.771 15.483L19.176 15.078C19.541 15.939 19.373 16.971 18.671 17.672C18.108 18.235 17.334 18.447 16.606 18.322" stroke="#161924" stroke-width="1.5" stroke-linecap="round" stroke-linejoin="round"/>
<path d="M15.2291 16.517L14.8241 16.922C14.4591 16.061 14.6271 15.029 15.3291 14.328C15.9261 13.731 16.7621 13.53 17.5281 13.705" stroke="#161924" stroke-width="1.5" stroke-linecap="round" stroke-linejoin="round"/>
</svg>
