<svg width="24" height="24" viewBox="0 0 24 24" fill="none" xmlns="http://www.w3.org/2000/svg">
<path fill-rule="evenodd" clip-rule="evenodd" d="M16.0711 8H10.4891C9.97608 8 9.55908 8.417 9.55908 8.93V12.279C9.55908 12.793 9.97608 13.209 10.4891 13.209H16.0701C16.5831 13.209 17.0001 12.792 17.0001 12.279V8.93C17.0001 8.416 16.5841 8 16.0711 8Z" stroke="#161924" stroke-width="1.5" stroke-linecap="round" stroke-linejoin="round"/>
<path d="M14.443 13.209V15.07C14.443 15.583 14.026 16 13.513 16H7.93C7.417 16 7 15.583 7 15.07V11.489C7 10.975 7.417 10.559 7.93 10.559H9.558" stroke="#161924" stroke-width="1.5" stroke-linecap="round" stroke-linejoin="round"/>
<path d="M17.834 16.773H19.955V18.894" stroke="#161924" stroke-width="1.5" stroke-linecap="round" stroke-linejoin="round"/>
<path d="M6.16592 7.22702H4.04492V5.10602" stroke="#161924" stroke-width="1.5" stroke-linecap="round" stroke-linejoin="round"/>
<path d="M4.37988 7.227C5.97188 4.691 8.78488 3 11.9999 3C16.9709 3 20.9999 7.029 20.9999 12" stroke="#161924" stroke-width="1.5" stroke-linecap="round" stroke-linejoin="round"/>
<path d="M3.126 10.558C3.05 11.029 3 11.508 3 12C3 16.971 7.029 21 12 21C15.215 21 18.029 19.309 19.62 16.773" stroke="#161924" stroke-width="1.5" stroke-linecap="round" stroke-linejoin="round"/>
</svg>
