<svg width="24" height="24" viewBox="0 0 24 24" fill="none" xmlns="http://www.w3.org/2000/svg">
<path d="M4 16V17C4 18.1046 4.89543 19 6 19H9" stroke="#161924" stroke-width="1.5" stroke-linecap="round" stroke-linejoin="round"/>
<path d="M9 19L7.5 20.5" stroke="#161924" stroke-width="1.5" stroke-linecap="round" stroke-linejoin="round"/>
<path d="M7.5 17.5L9 19" stroke="#161924" stroke-width="1.5" stroke-linecap="round" stroke-linejoin="round"/>
<path fill-rule="evenodd" clip-rule="evenodd" d="M19 21H15C13.8954 21 13 20.1046 13 19V12C13 10.8954 13.8954 10 15 10H19C20.1046 10 21 10.8954 21 12V19C21 20.1046 20.1046 21 19 21Z" stroke="#161924" stroke-width="1.5" stroke-linecap="round" stroke-linejoin="round"/>
<path d="M16 18.3332L18 18.3333" stroke="#161924" stroke-width="1.5" stroke-linecap="round" stroke-linejoin="round"/>
<path d="M15 5.7V5.16C15 3.96706 14.0329 3 12.84 3H5.16C3.96706 3 3 3.96706 3 5.16V9.84C3 11.0329 3.96706 12 5.16 12H10" stroke="#161924" stroke-width="1.5" stroke-linecap="round" stroke-linejoin="round"/>
<path d="M15 7H3" stroke="#161924" stroke-width="1.5" stroke-linecap="round" stroke-linejoin="round"/>
<path d="M15 6.99995V5.69995" stroke="#161924" stroke-width="1.5" stroke-linecap="round" stroke-linejoin="round"/>
</svg>
