<svg width="24" height="24" viewBox="0 0 24 24" fill="none" xmlns="http://www.w3.org/2000/svg">
<path d="M21 15V19C21 20.1046 20.1046 21 19 21H17" stroke="#161924" stroke-width="1.5" stroke-linecap="round" stroke-linejoin="round"/>
<path d="M3 9V5C3 3.89543 3.89543 3 5 3H7" stroke="#161924" stroke-width="1.5" stroke-linecap="round" stroke-linejoin="round"/>
<path fill-rule="evenodd" clip-rule="evenodd" d="M3 14.2V18.8C3 20.015 3.98497 21 5.2 21H11.8C13.015 21 14 20.015 14 18.8V14.2C14 12.985 13.015 12 11.8 12H5.2C3.98497 12 3 12.985 3 14.2Z" stroke="#161924" stroke-width="1.5" stroke-linecap="round" stroke-linejoin="round"/>
<path d="M17 12H18.75C19.9926 12 21 10.9926 21 9.75V5.25C21 4.00736 19.9926 3 18.75 3H12.25C11.0074 3 10 4.00736 10 5.25V9" stroke="#161924" stroke-width="1.5" stroke-linecap="round" stroke-linejoin="round"/>
<path d="M21 6.5H10" stroke="#161924" stroke-width="1.5" stroke-linecap="round" stroke-linejoin="round"/>
<path d="M14 15.5H3" stroke="#161924" stroke-width="1.5" stroke-linecap="round" stroke-linejoin="round"/>
</svg>
