<svg width="24" height="24" viewBox="0 0 24 24" fill="none" xmlns="http://www.w3.org/2000/svg">
<path d="M5.63576 5.63601C9.15076 2.12101 14.8488 2.12101 18.3638 5.63601C21.8788 9.15001 21.8778 14.849 18.3638 18.364C14.8498 21.879 9.15076 21.878 5.63576 18.364C2.12076 14.85 2.12076 9.15101 5.63576 5.63601" stroke="#161924" stroke-width="1.5" stroke-linecap="round" stroke-linejoin="round"/>
<path fill-rule="evenodd" clip-rule="evenodd" d="M15.9996 8H10.5576C10.0056 8 9.55762 8.448 9.55762 9V12.279C9.55762 12.793 9.97362 13.209 10.4876 13.209H15.9996C16.5516 13.209 16.9996 12.761 16.9996 12.209V9C16.9996 8.448 16.5516 8 15.9996 8Z" stroke="#161924" stroke-width="1.5" stroke-linecap="round" stroke-linejoin="round"/>
<path d="M14.443 13.209V15C14.443 15.552 13.995 16 13.443 16H8C7.448 16 7 15.552 7 15V11.558C7 11.006 7.448 10.558 8 10.558H9.558" stroke="#161924" stroke-width="1.5" stroke-linecap="round" stroke-linejoin="round"/>
</svg>
