<svg width="24" height="24" viewBox="0 0 24 24" fill="none" xmlns="http://www.w3.org/2000/svg">
<path d="M2.99658 7.99838H21.0041" stroke="#161924" stroke-width="1.5" stroke-linecap="round" stroke-linejoin="round"/>
<path d="M9.49909 12H6.99805" stroke="#161924" stroke-width="1.5" stroke-linecap="round" stroke-linejoin="round"/>
<path d="M10.9999 18.0025H5.99783C4.34029 18.0025 2.99658 16.6588 2.99658 15.0013V6.99795C2.99658 5.34041 4.34029 3.9967 5.99783 3.9967H18.0028C19.6604 3.9967 21.0041 5.34041 21.0041 6.99795V12" stroke="#161924" stroke-width="1.5" stroke-linecap="round" stroke-linejoin="round"/>
<path fill-rule="evenodd" clip-rule="evenodd" d="M14.2937 17.8411L17.8372 14.2949C18.0253 14.1066 18.2805 14.0008 18.5467 14.0007C18.8128 14.0006 19.0681 14.1063 19.2563 14.2944L20.7101 15.7474C20.8982 15.9354 21.0039 16.1904 21.0039 16.4564C21.0039 16.7223 20.8982 16.9774 20.7101 17.1654L17.1624 20.711C16.9748 20.8985 16.7204 21.0038 16.4551 21.0038H14.001V18.5483C14.001 18.2831 14.1063 18.0287 14.2937 17.8411Z" stroke="#161924" stroke-width="1.5" stroke-linecap="round" stroke-linejoin="round"/>
</svg>
