<svg width="24" height="24" viewBox="0 0 24 24" fill="none" xmlns="http://www.w3.org/2000/svg">
<path fill-rule="evenodd" clip-rule="evenodd" d="M16.002 21.0037H7.99867C5.23609 21.0037 2.99658 18.7642 2.99658 16.0016V7.9983C2.99658 5.23572 5.23609 2.99622 7.99867 2.99622H16.002C18.7646 2.99622 21.0041 5.23572 21.0041 7.9983V16.0016C21.0041 18.7642 18.7646 21.0037 16.002 21.0037Z" stroke="#161924" stroke-width="1.5" stroke-linecap="round" stroke-linejoin="round"/>
<path fill-rule="evenodd" clip-rule="evenodd" d="M14.2791 15.0012V12.4446C14.2791 11.6158 13.6072 10.944 12.7784 10.944H7.99867C7.1699 10.944 6.49805 11.6158 6.49805 12.4446V15.0012C6.49805 15.83 7.1699 16.5018 7.99867 16.5018H12.7784C13.6072 16.5018 14.2791 15.83 14.2791 15.0012V15.0012Z" stroke="#161924" stroke-width="1.5" stroke-linecap="round" stroke-linejoin="round"/>
<path d="M9.30908 10.9395L9.93934 8.60854C10.0411 8.22491 10.2913 7.89753 10.6348 7.6986C10.9782 7.49966 11.3867 7.44552 11.7701 7.54809L16.392 8.78861C16.777 8.89168 17.1052 9.14367 17.3041 9.48901C17.5031 9.83434 17.5564 10.2446 17.4525 10.6294L16.6922 13.4706C16.5313 14.0613 15.9227 14.4104 15.3316 14.2509L14.2812 13.9708" stroke="#161924" stroke-width="1.5" stroke-linecap="round" stroke-linejoin="round"/>
</svg>
