<svg width="24" height="24" viewBox="0 0 24 24" fill="none" xmlns="http://www.w3.org/2000/svg">
<path d="M5.99756 2.49609L7.49818 3.99672L5.99756 5.49734" stroke="#161924" stroke-width="1.5" stroke-linecap="round" stroke-linejoin="round"/>
<path d="M7.49818 3.9967H5.49734C4.70135 3.99665 3.93794 4.31284 3.37508 4.87569C2.81223 5.43855 2.49604 6.20196 2.49609 6.99795" stroke="#161924" stroke-width="1.5" stroke-linecap="round" stroke-linejoin="round"/>
<path d="M18.0026 21.5039L16.502 20.0033L18.0026 18.5027" stroke="#161924" stroke-width="1.5" stroke-linecap="round" stroke-linejoin="round"/>
<path d="M16.502 20.0033H18.5028C19.2988 20.0034 20.0622 19.6872 20.625 19.1243C21.1879 18.5615 21.5041 17.7981 21.504 17.0021" stroke="#161924" stroke-width="1.5" stroke-linecap="round" stroke-linejoin="round"/>
<path d="M14.668 14.0008V16.0016C14.668 17.1067 13.7722 18.0025 12.6672 18.0025H5.99742C5.46672 18.0026 4.95771 17.7919 4.58245 17.4166C4.20719 17.0413 3.99658 16.5323 3.99658 16.0016V12C3.99658 11.4693 4.20719 10.9603 4.58245 10.585C4.95771 10.2098 5.46672 9.999 5.99742 9.99915H20.0032" stroke="#161924" stroke-width="1.5" stroke-linecap="round" stroke-linejoin="round"/>
<path fill-rule="evenodd" clip-rule="evenodd" d="M11.3329 14.0008H18.0026C19.1077 14.0008 20.0035 13.105 20.0035 11.9999V7.99827C20.0035 6.89324 19.1077 5.99744 18.0026 5.99744H11.3329C10.2278 5.99744 9.33203 6.89324 9.33203 7.99827V11.9999C9.33203 13.105 10.2278 14.0008 11.3329 14.0008Z" stroke="#161924" stroke-width="1.5" stroke-linecap="round" stroke-linejoin="round"/>
</svg>
