<svg width="24" height="24" viewBox="0 0 24 24" fill="none" xmlns="http://www.w3.org/2000/svg">
<path d="M3 8H21" stroke="#161924" stroke-width="1.5" stroke-linecap="round" stroke-linejoin="round"/>
<path fill-rule="evenodd" clip-rule="evenodd" d="M18.6942 12.605L21.7402 18.019C22.4902 19.352 21.5272 21 19.9972 21H13.9062C12.3762 21 11.4132 19.353 12.1632 18.019L15.2092 12.605C15.9722 11.245 17.9292 11.245 18.6942 12.605Z" stroke="#161924" stroke-width="1.5" stroke-linecap="round" stroke-linejoin="round"/>
<path d="M16.9512 16.42V14.585" stroke="#161924" stroke-width="1.5" stroke-linecap="round" stroke-linejoin="round"/>
<path d="M16.9502 18.444C16.9002 18.444 16.8592 18.485 16.8602 18.535C16.8602 18.585 16.9012 18.626 16.9512 18.626C17.0012 18.626 17.0412 18.585 17.0412 18.535C17.0412 18.485 17.0012 18.444 16.9502 18.444" stroke="#161924" stroke-width="1.5" stroke-linecap="round" stroke-linejoin="round"/>
<path d="M9.5 12H7" stroke="#161924" stroke-width="1.5" stroke-linecap="round" stroke-linejoin="round"/>
<path d="M9 18H6C4.343 18 3 16.657 3 15V7C3 5.343 4.343 4 6 4H18C19.657 4 21 5.343 21 7V11" stroke="#161924" stroke-width="1.5" stroke-linecap="round" stroke-linejoin="round"/>
</svg>
