<svg width="24" height="24" viewBox="0 0 24 24" fill="none" xmlns="http://www.w3.org/2000/svg">
<path d="M3 8H21" stroke="#161924" stroke-width="1.5" stroke-linecap="round" stroke-linejoin="round"/>
<path d="M9 12H6.479" stroke="#161924" stroke-width="1.5" stroke-linecap="round" stroke-linejoin="round"/>
<path d="M10 18H6C4.34315 18 3 16.6569 3 15V7C3 5.34315 4.34315 4 6 4H18C19.6569 4 21 5.34315 21 7V10" stroke="#161924" stroke-width="1.5" stroke-linecap="round" stroke-linejoin="round"/>
<path d="M17.5001 20.9999C15.6801 20.9999 14.0392 19.9035 13.3427 18.222C12.6462 16.5404 13.0312 14.6049 14.3182 13.3179C15.6051 12.0309 17.5407 11.6459 19.2222 12.3424C20.9037 13.0389 22.0001 14.6798 22.0001 16.4999C22.0001 18.9852 19.9854 20.9999 17.5001 20.9999" stroke="#161924" stroke-width="1.5" stroke-linecap="round" stroke-linejoin="round"/>
<path d="M17.4902 16.95V18.2" stroke="#161924" stroke-width="1.5" stroke-linecap="round" stroke-linejoin="round"/>
<path d="M17.4945 14.7997C17.5146 14.8019 17.534 14.7917 17.5437 14.774C17.5534 14.7562 17.5515 14.7344 17.5388 14.7186C17.5261 14.7029 17.5052 14.6963 17.4858 14.702C17.4664 14.7077 17.4523 14.7245 17.4501 14.7447V14.7554C17.4527 14.7787 17.4711 14.7972 17.4945 14.7997" stroke="#161924" stroke-width="1.5" stroke-linecap="round" stroke-linejoin="round"/>
</svg>
