<svg width="24" height="24" viewBox="0 0 24 24" fill="none" xmlns="http://www.w3.org/2000/svg">
<path d="M2.99658 7.99838H21.0041" stroke="#161924" stroke-width="1.5" stroke-linecap="round" stroke-linejoin="round"/>
<path d="M9.49909 12H6.99805" stroke="#161924" stroke-width="1.5" stroke-linecap="round" stroke-linejoin="round"/>
<path d="M9.9995 18.0025H5.99783C4.34029 18.0025 2.99658 16.6588 2.99658 15.0013V6.99795C2.99658 5.34041 4.34029 3.9967 5.99783 3.9967H18.0028C19.6604 3.9967 21.0041 5.34041 21.0041 6.99795V12" stroke="#161924" stroke-width="1.5" stroke-linecap="round" stroke-linejoin="round"/>
<path fill-rule="evenodd" clip-rule="evenodd" d="M13.5619 18.3086C13.2417 17.8195 13.2417 17.1871 13.5619 16.698C14.4195 15.1944 15.9435 14.1908 17.6636 13.9968C19.3835 14.1912 20.9073 15.1947 21.7653 16.698C22.0865 17.1868 22.0865 17.8198 21.7653 18.3086C20.907 19.8115 19.3833 20.8149 17.6636 21.0097C15.9434 20.8163 14.4191 19.8125 13.5619 18.3086Z" stroke="#161924" stroke-width="1.5" stroke-linecap="round" stroke-linejoin="round"/>
<path d="M17.7784 17.3863C17.8426 17.4508 17.8424 17.5552 17.778 17.6195C17.7135 17.6838 17.6092 17.6838 17.5447 17.6195C17.4803 17.5552 17.4801 17.4508 17.5443 17.3863C17.5753 17.3551 17.6174 17.3376 17.6613 17.3376C17.7053 17.3376 17.7474 17.3551 17.7784 17.3863" stroke="#161924" stroke-width="1.5" stroke-linecap="round" stroke-linejoin="round"/>
</svg>
