<svg width="24" height="24" viewBox="0 0 24 24" fill="none" xmlns="http://www.w3.org/2000/svg">
<path fill-rule="evenodd" clip-rule="evenodd" d="M16.9998 12C14.3328 14.768 14.3328 19.231 16.9998 21.999C19.6668 19.232 19.6668 14.768 16.9998 12Z" stroke="#161924" stroke-width="1.5" stroke-linecap="round" stroke-linejoin="round"/>
<path d="M3 7H21" stroke="#161924" stroke-width="1.5" stroke-linecap="round" stroke-linejoin="round"/>
<path d="M9.57 11H7" stroke="#161924" stroke-width="1.5" stroke-linecap="round" stroke-linejoin="round"/>
<path d="M9 17H6C4.343 17 3 15.657 3 14V6C3 4.343 4.343 3 6 3H18C19.657 3 21 4.343 21 6V10" stroke="#161924" stroke-width="1.5" stroke-linecap="round" stroke-linejoin="round"/>
<path fill-rule="evenodd" clip-rule="evenodd" d="M16.9998 12C14.3328 14.768 14.3328 19.231 16.9998 21.999C19.6668 19.232 19.6668 14.768 16.9998 12Z" stroke="#161924" stroke-width="1.5" stroke-linecap="round" stroke-linejoin="round"/>
<path fill-rule="evenodd" clip-rule="evenodd" d="M22 17C22 19.768 19.768 22 17 22C14.232 22 12 19.768 12 17C12 14.232 14.232 12 17 12C19.768 12 22 14.232 22 17Z" stroke="#161924" stroke-width="1.5" stroke-linecap="round" stroke-linejoin="round"/>
<path d="M12.002 17H21.998" stroke="#161924" stroke-width="1.5" stroke-linecap="round" stroke-linejoin="round"/>
</svg>
