<svg width="24" height="24" viewBox="0 0 24 24" fill="none" xmlns="http://www.w3.org/2000/svg">
<path d="M2.99609 6.99789H21.0036" stroke="#161924" stroke-width="1.5" stroke-linecap="round" stroke-linejoin="round"/>
<path d="M8.99861 10.9996H6.47656" stroke="#161924" stroke-width="1.5" stroke-linecap="round" stroke-linejoin="round"/>
<path d="M9.99901 17.002H5.99734C4.3398 17.002 2.99609 15.6583 2.99609 14.0008V5.99747C2.99609 4.33992 4.3398 2.99622 5.99734 2.99622H18.0023C19.6599 2.99622 21.0036 4.33992 21.0036 5.99747V8.99872" stroke="#161924" stroke-width="1.5" stroke-linecap="round" stroke-linejoin="round"/>
<path d="M13.001 12.6002V19.4031C13.0021 20.2869 14.7926 21.0037 17.0026 21.0037C19.2127 21.0037 21.0032 20.2869 21.0043 19.4031V12.6002" stroke="#161924" stroke-width="1.5" stroke-linecap="round" stroke-linejoin="round"/>
<path d="M21.0032 12.6002C21.0032 13.484 19.2116 14.2009 17.0015 14.2009C14.7914 14.2009 13.001 13.484 13.001 12.6002C13.001 11.7153 14.7937 10.9996 17.0026 10.9996C19.2116 10.9996 21.0032 11.7164 21.0043 12.6002" stroke="#161924" stroke-width="1.5" stroke-linecap="round" stroke-linejoin="round"/>
<path d="M13.001 16.0016C13.001 16.8854 14.7914 17.6023 17.0015 17.6023C19.2116 17.6023 21.0032 16.8854 21.0032 16.0016" stroke="#161924" stroke-width="1.5" stroke-linecap="round" stroke-linejoin="round"/>
</svg>
