<svg width="24" height="24" viewBox="0 0 24 24" fill="none" xmlns="http://www.w3.org/2000/svg">
<path d="M7.99854 17.5023L9.99937 19.5032L7.99854 21.504" stroke="#161924" stroke-width="1.5" stroke-linecap="round" stroke-linejoin="round"/>
<path d="M9.99908 19.5031H3.99658" stroke="#161924" stroke-width="1.5" stroke-linecap="round" stroke-linejoin="round"/>
<path d="M14.0008 20.2744C17.742 19.4227 20.5324 16.2935 20.9518 12.4796C21.3712 8.6656 19.3275 5.00485 15.8608 3.36042C12.3941 1.71599 8.26614 2.44921 5.57778 5.1869C2.88943 7.9246 2.23141 12.0652 3.93861 15.5015" stroke="#161924" stroke-width="1.5" stroke-linecap="round" stroke-linejoin="round"/>
<path fill-rule="evenodd" clip-rule="evenodd" d="M8.24854 10.4994V13.5007C8.24854 14.3294 8.92039 15.0013 9.74916 15.0013H14.251C15.0798 15.0013 15.7517 14.3294 15.7517 13.5007V10.4994C15.7517 9.67063 15.0798 8.99878 14.251 8.99878H9.74916C8.92039 8.99878 8.24854 9.67063 8.24854 10.4994Z" stroke="#161924" stroke-width="1.5" stroke-linecap="round" stroke-linejoin="round"/>
<path d="M15.7517 11.4998H8.24854" stroke="#161924" stroke-width="1.5" stroke-linecap="round" stroke-linejoin="round"/>
</svg>
