<svg width="24" height="24" viewBox="0 0 24 24" fill="none" xmlns="http://www.w3.org/2000/svg">
<path d="M2 6.84998H21" stroke="#161924" stroke-width="1.5" stroke-linecap="round" stroke-linejoin="round"/>
<path d="M21 13V5C21 3.895 20.105 3 19 3H4C2.895 3 2 3.895 2 5V14C2 15.105 2.895 16 4 16H12" stroke="#161924" stroke-width="1.5" stroke-linecap="round" stroke-linejoin="round"/>
<path d="M20.5362 12.464C22.4892 14.417 22.4892 17.582 20.5362 19.535C18.5832 21.488 15.4182 21.488 13.4652 19.535C11.5122 17.582 11.5122 14.417 13.4652 12.464C15.4182 10.511 18.5832 10.512 20.5362 12.464" stroke="#161924" stroke-width="1.5" stroke-linecap="round" stroke-linejoin="round"/>
<path d="M17 18.65C16.973 18.65 16.95 18.673 16.95 18.7C16.95 18.727 16.973 18.75 17 18.75C17.027 18.75 17.05 18.727 17.05 18.7C17.05 18.673 17.027 18.65 17 18.65V18.65" stroke="#161924" stroke-width="1.5" stroke-linecap="round" stroke-linejoin="round"/>
<path d="M16.9998 16.625C17.8628 16.625 18.5628 15.925 18.5628 15.062C18.5628 14.199 17.8638 13.499 16.9998 13.499C16.1578 13.499 15.4768 14.165 15.4438 14.999" stroke="#161924" stroke-width="1.5" stroke-linecap="round" stroke-linejoin="round"/>
</svg>
