<svg width="24" height="24" viewBox="0 0 24 24" fill="none" xmlns="http://www.w3.org/2000/svg">
<path d="M9 12H7.5C6.948 12 6.5 12.448 6.5 13V19C6.5 20.105 7.395 21 8.5 21H15.5C16.605 21 17.5 20.105 17.5 19V13C17.5 12.448 17.052 12 16.5 12H15" stroke="#161924" stroke-width="1.5" stroke-linecap="round" stroke-linejoin="round"/>
<path d="M12 17V8" stroke="#161924" stroke-width="1.5" stroke-linecap="round" stroke-linejoin="round"/>
<path d="M10 15L12 17L14 15" stroke="#161924" stroke-width="1.5" stroke-linecap="round" stroke-linejoin="round"/>
<path d="M19 3C20.105 3 21 3.895 21 5V14C21 15.105 20.105 16 19 16H17.5" stroke="#161924" stroke-width="1.5" stroke-linecap="round" stroke-linejoin="round"/>
<path d="M6.5 16H5C3.895 16 3 15.105 3 14V5C3 3.895 3.895 3 5 3H19" stroke="#161924" stroke-width="1.5" stroke-linecap="round" stroke-linejoin="round"/>
</svg>
