<svg width="24" height="24" viewBox="0 0 24 24" fill="none" xmlns="http://www.w3.org/2000/svg">
<path fill-rule="evenodd" clip-rule="evenodd" d="M17.0024 18.0025V12C17.0026 11.4693 16.7918 10.9603 16.4165 10.585C16.0413 10.2098 15.5323 9.999 15.0016 9.99915H4.99742C4.46672 9.999 3.95771 10.2098 3.58245 10.585C3.20719 10.9603 2.99644 11.4693 2.99658 12V18.0025C2.99644 18.5332 3.20719 19.0422 3.58245 19.4174C3.95771 19.7927 4.46672 20.0035 4.99742 20.0033H15.0016C16.1066 20.0033 17.0024 19.1075 17.0024 18.0025Z" stroke="#161924" stroke-width="1.5" stroke-linecap="round" stroke-linejoin="round"/>
<path d="M2.99658 14.0799H17.0024" stroke="#161924" stroke-width="1.5" stroke-linecap="round" stroke-linejoin="round"/>
<path d="M6.19775 9.99913L7.40826 5.47724C7.5456 4.96477 7.88123 4.52801 8.34107 4.26337C8.80092 3.99872 9.34717 3.92794 9.85928 4.06665L19.5233 6.65773C20.0358 6.79508 20.4725 7.13071 20.7372 7.59055C21.0018 8.05039 21.0726 8.59665 20.9339 9.10875L19.3832 14.9012C19.1073 15.9436 18.0522 16.5776 17.0023 16.3318" stroke="#161924" stroke-width="1.5" stroke-linecap="round" stroke-linejoin="round"/>
</svg>
