<svg width="24" height="24" viewBox="0 0 24 24" fill="none" xmlns="http://www.w3.org/2000/svg">
<path d="M21 17V18C21 19.6569 19.6569 21 18 21H17" stroke="#161924" stroke-width="1.5" stroke-linecap="round" stroke-linejoin="round"/>
<path d="M3 9V6C3 4.34315 4.34315 3 6 3H7" stroke="#161924" stroke-width="1.5" stroke-linecap="round" stroke-linejoin="round"/>
<path fill-rule="evenodd" clip-rule="evenodd" d="M3 14.25V18.75C3 19.9926 4.00736 21 5.25 21H11.75C12.9926 21 14 19.9926 14 18.75V14.25C14 13.0074 12.9926 12 11.75 12H5.25C4.00736 12 3 13.0074 3 14.25Z" stroke="#161924" stroke-width="1.5" stroke-linecap="round" stroke-linejoin="round"/>
<path d="M14 15.5H3" stroke="#161924" stroke-width="1.5" stroke-linecap="round" stroke-linejoin="round"/>
<path d="M10 9V5C10 3.89543 10.8954 3 12 3H19C20.1046 3 21 3.89543 21 5V12C21 13.1046 20.1046 14 19 14H17" stroke="#161924" stroke-width="1.5" stroke-linecap="round" stroke-linejoin="round"/>
<path d="M13 7H18" stroke="#161924" stroke-width="1.5" stroke-linecap="round" stroke-linejoin="round"/>
<path d="M16 10H18" stroke="#161924" stroke-width="1.5" stroke-linecap="round" stroke-linejoin="round"/>
</svg>
