<svg width="24" height="24" viewBox="0 0 24 24" fill="none" xmlns="http://www.w3.org/2000/svg">
<path fill-rule="evenodd" clip-rule="evenodd" d="M12.0002 10.4993C12.6961 11.4273 12.6627 12.712 11.9195 13.6025C11.1763 14.493 9.9183 14.7557 8.88083 14.237C7.84336 13.7182 7.2987 12.5542 7.5652 11.4253C7.83169 10.2964 8.83941 9.49891 9.99933 9.49891C10.787 9.49686 11.5292 9.86793 12.0002 10.4993Z" stroke="#161924" stroke-width="1.5" stroke-linecap="round" stroke-linejoin="round"/>
<path d="M12 10.4994C12.6459 9.63814 13.7705 9.28686 14.7917 9.62729C15.813 9.96771 16.5019 10.9235 16.5019 12C16.5019 13.0765 15.813 14.0323 14.7917 14.3727C13.7705 14.7131 12.6459 14.3618 12 13.5006" stroke="#161924" stroke-width="1.5" stroke-linecap="round" stroke-linejoin="round"/>
<path fill-rule="evenodd" clip-rule="evenodd" d="M18.0028 19.0029H5.99783C4.34029 19.0029 2.99658 17.6592 2.99658 16.0017V7.99832C2.99658 6.34078 4.34029 4.99707 5.99783 4.99707H18.0028C19.6604 4.99707 21.0041 6.34078 21.0041 7.99832V16.0017C21.0041 17.6592 19.6604 19.0029 18.0028 19.0029Z" stroke="#161924" stroke-width="1.5" stroke-linecap="round" stroke-linejoin="round"/>
</svg>
