<svg width="24" height="24" viewBox="0 0 24 24" fill="none" xmlns="http://www.w3.org/2000/svg">
<path d="M2.99658 6.99789H21.0041" stroke="#161924" stroke-width="1.5" stroke-linecap="round" stroke-linejoin="round"/>
<path d="M8.9991 10.9996H6.47705" stroke="#161924" stroke-width="1.5" stroke-linecap="round" stroke-linejoin="round"/>
<path d="M9.9995 17.002H5.99783C4.34029 17.002 2.99658 15.6583 2.99658 14.0008V5.99747C2.99658 4.33992 4.34029 2.99622 5.99783 2.99622H18.0028C19.6604 2.99622 21.0041 4.33992 21.0041 5.99747V8.99872" stroke="#161924" stroke-width="1.5" stroke-linecap="round" stroke-linejoin="round"/>
<path fill-rule="evenodd" clip-rule="evenodd" d="M15.1641 16.6518L13.2582 18.5617C13.0936 18.7277 13.001 18.9519 13.0005 19.1858V20.1209C13.0005 20.6085 13.3957 21.0038 13.8833 21.0038H14.8224C15.0568 21.0041 15.2816 20.9106 15.4465 20.7441L17.3485 18.8382C17.6968 18.9601 18.0627 19.0245 18.4318 19.0288C19.9645 19.054 21.3368 18.083 21.8229 16.6292C22.309 15.1754 21.7968 13.5742 20.5572 12.6724C19.3175 11.7707 17.6365 11.7764 16.403 12.6865C15.1695 13.5967 14.6682 15.2013 15.1641 16.6518V16.6518Z" stroke="#161924" stroke-width="1.5" stroke-linecap="round" stroke-linejoin="round"/>
<path d="M18.4318 15.5223C18.4042 15.5223 18.3818 15.5447 18.3818 15.5724C18.3818 15.6 18.4042 15.6224 18.4318 15.6224C18.4595 15.6224 18.4819 15.6 18.4819 15.5724C18.4819 15.5447 18.4595 15.5223 18.4318 15.5223V15.5223" stroke="#161924" stroke-width="1.5" stroke-linecap="round" stroke-linejoin="round"/>
</svg>
