<svg width="24" height="24" viewBox="0 0 24 24" fill="none" xmlns="http://www.w3.org/2000/svg">
<path fill-rule="evenodd" clip-rule="evenodd" d="M8.24854 10.4994V13.5007C8.24854 14.3294 8.92039 15.0013 9.74916 15.0013H14.251C15.0798 15.0013 15.7517 14.3294 15.7517 13.5007V10.4994C15.7517 9.67063 15.0798 8.99878 14.251 8.99878H9.74916C8.92039 8.99878 8.24854 9.67063 8.24854 10.4994Z" stroke="#161924" stroke-width="1.5" stroke-linecap="round" stroke-linejoin="round"/>
<path d="M18.2517 16.5018V20.0033" stroke="#161924" stroke-width="1.5" stroke-linecap="round" stroke-linejoin="round"/>
<path d="M16.502 18.2516H20.0034" stroke="#161924" stroke-width="1.5" stroke-linecap="round" stroke-linejoin="round"/>
<path d="M13.0007 20.9417C12.6689 20.9828 12.3348 21.0037 12.0003 21.0037C7.0277 21.0037 2.99658 16.9726 2.99658 12C2.99658 7.02733 7.0277 2.99622 12.0003 2.99622C16.973 2.99622 21.0041 7.02733 21.0041 12C21.0041 12.3344 20.9832 12.6685 20.9421 13.0004" stroke="#161924" stroke-width="1.5" stroke-linecap="round" stroke-linejoin="round"/>
<path d="M15.7517 11.4998H8.24854" stroke="#161924" stroke-width="1.5" stroke-linecap="round" stroke-linejoin="round"/>
</svg>
