<svg width="24" height="24" viewBox="0 0 24 24" fill="none" xmlns="http://www.w3.org/2000/svg">
<path fill-rule="evenodd" clip-rule="evenodd" d="M7.49805 10.1992V13.8007C7.49805 14.7952 8.30427 15.6014 9.2988 15.6014H14.701C15.6956 15.6014 16.5018 14.7952 16.5018 13.8007V10.1992C16.5018 9.7216 16.3121 9.26357 15.9744 8.92586C15.6367 8.58816 15.1786 8.39844 14.701 8.39844H9.2988C8.82121 8.39844 8.36318 8.58816 8.02547 8.92586C7.68777 9.26357 7.49805 9.7216 7.49805 10.1992V10.1992Z" stroke="#161924" stroke-width="1.5" stroke-linecap="round" stroke-linejoin="round"/>
<path fill-rule="evenodd" clip-rule="evenodd" d="M7.1193 20.1243L3.87495 16.88C3.31243 16.3171 2.99658 15.5539 2.99658 14.7581V9.24182C2.99658 8.4459 3.31307 7.68265 3.87595 7.11993L7.1203 3.87558C7.68301 3.3127 8.44627 2.99622 9.24218 2.99622H14.7585C15.5544 2.99622 16.3177 3.3127 16.8804 3.87558L20.1257 7.12093C20.6882 7.68381 21.0041 8.44705 21.0041 9.24282V14.7581C21.0041 15.5539 20.6882 16.3171 20.1257 16.88L16.8814 20.1253C16.3182 20.6881 15.5546 21.0041 14.7585 21.0037H9.24218C8.44592 21.0037 7.68226 20.6875 7.1193 20.1243V20.1243Z" stroke="#161924" stroke-width="1.5" stroke-linecap="round" stroke-linejoin="round"/>
<path d="M16.5018 11.3997H7.49805" stroke="#161924" stroke-width="1.5" stroke-linecap="round" stroke-linejoin="round"/>
</svg>
