<svg width="24" height="24" viewBox="0 0 24 24" fill="none" xmlns="http://www.w3.org/2000/svg">
<path d="M2.99658 7.99838H21.0041" stroke="#161924" stroke-width="1.5" stroke-linecap="round" stroke-linejoin="round"/>
<path d="M9.49909 12H6.99805" stroke="#161924" stroke-width="1.5" stroke-linecap="round" stroke-linejoin="round"/>
<path d="M9.9995 18.0025H5.99783C4.34029 18.0025 2.99658 16.6588 2.99658 15.0013V6.99795C2.99658 5.34041 4.34029 3.9967 5.99783 3.9967H18.0028C19.6604 3.9967 21.0041 5.34041 21.0041 6.99795V10.9996" stroke="#161924" stroke-width="1.5" stroke-linecap="round" stroke-linejoin="round"/>
<path d="M16.1129 18.7806H15.8906C14.2944 18.7806 13.0005 17.4866 13.0005 15.8905V15.8905C13.0005 14.2943 14.2944 13.0004 15.8906 13.0004H17.8004C19.5696 13.0004 21.0038 14.4346 21.0038 16.2038V16.2038C21.0038 17.3163 20.4267 18.349 19.4793 18.9321L16.1129 21.0037V18.7806" stroke="#161924" stroke-width="1.5" stroke-linecap="round" stroke-linejoin="round"/>
</svg>
