<svg width="24" height="24" viewBox="0 0 24 24" fill="none" xmlns="http://www.w3.org/2000/svg">
<path d="M2.99658 6.99789H21.0041" stroke="#161924" stroke-width="1.5" stroke-linecap="round" stroke-linejoin="round"/>
<path d="M9.56912 10.9996H6.99805" stroke="#161924" stroke-width="1.5" stroke-linecap="round" stroke-linejoin="round"/>
<path d="M8.99908 17.002H5.99783C4.34029 17.002 2.99658 15.6583 2.99658 14.0008V5.99747C2.99658 4.33992 4.34029 2.99622 5.99783 2.99622H18.0028C19.6604 2.99622 21.0041 4.33992 21.0041 5.99747V9.99913" stroke="#161924" stroke-width="1.5" stroke-linecap="round" stroke-linejoin="round"/>
<path d="M15.7505 18.2526L18.2515 15.7516" stroke="#161924" stroke-width="1.5" stroke-linecap="round" stroke-linejoin="round"/>
<path d="M18.631 18.5617C18.6437 18.5744 18.6486 18.5929 18.644 18.6102C18.6393 18.6275 18.6258 18.6411 18.6085 18.6457C18.5911 18.6504 18.5726 18.6454 18.56 18.6327C18.5505 18.6233 18.5452 18.6106 18.5452 18.5972C18.5452 18.5839 18.5505 18.5711 18.56 18.5617C18.5797 18.5425 18.6112 18.5425 18.631 18.5617" stroke="#161924" stroke-width="1.5" stroke-linecap="round" stroke-linejoin="round"/>
<path fill-rule="evenodd" clip-rule="evenodd" d="M22.0042 17.0021C22.0042 19.7647 19.7647 22.0042 17.0021 22.0042C14.2395 22.0042 12 19.7647 12 17.0021C12 14.2395 14.2395 12 17.0021 12C18.3294 11.9979 19.6029 12.5242 20.5414 13.4627C21.48 14.4013 22.0063 15.6748 22.0042 17.0021Z" stroke="#161924" stroke-width="1.5" stroke-linecap="round" stroke-linejoin="round"/>
<path d="M15.3733 15.4424C15.3607 15.4297 15.3557 15.4112 15.3603 15.3939C15.365 15.3765 15.3785 15.363 15.3959 15.3583C15.4132 15.3537 15.4317 15.3587 15.4444 15.3713C15.4538 15.3807 15.4592 15.3935 15.4592 15.4069C15.4592 15.4202 15.4538 15.433 15.4444 15.4424C15.4246 15.4616 15.3931 15.4616 15.3733 15.4424" stroke="#161924" stroke-width="1.5" stroke-linecap="round" stroke-linejoin="round"/>
</svg>
