<svg width="24" height="24" viewBox="0 0 24 24" fill="none" xmlns="http://www.w3.org/2000/svg">
<path d="M11.0027 20.0034C6.15968 20.0051 2.18287 16.1755 2.002 11.3359C1.82112 6.4962 5.50099 2.38047 10.3307 2.02073C15.1603 1.66099 19.4093 5.18612 19.9475 9.99919" stroke="#161924" stroke-width="1.5" stroke-linecap="round" stroke-linejoin="round"/>
<path fill-rule="evenodd" clip-rule="evenodd" d="M7.2417 9.49892V12.5002C7.2417 13.3289 7.91355 14.0008 8.74232 14.0008H13.2442C14.073 14.0008 14.7448 13.3289 14.7448 12.5002V9.49892C14.7448 8.67014 14.073 7.99829 13.2442 7.99829H8.74232C8.34433 7.99829 7.96264 8.15639 7.68122 8.43781C7.3998 8.71924 7.2417 9.10093 7.2417 9.49892V9.49892Z" stroke="#161924" stroke-width="1.5" stroke-linecap="round" stroke-linejoin="round"/>
<path d="M14.7448 10.4994H7.2417" stroke="#161924" stroke-width="1.5" stroke-linecap="round" stroke-linejoin="round"/>
<path fill-rule="evenodd" clip-rule="evenodd" d="M15.2942 17.8411L18.8377 14.2949C19.0258 14.1066 19.281 14.0008 19.5471 14.0007C19.8133 14.0006 20.0685 14.1063 20.2568 14.2944L21.7106 15.7474C21.8987 15.9354 22.0043 16.1904 22.0043 16.4564C22.0043 16.7223 21.8987 16.9774 21.7106 17.1654L18.1628 20.711C17.9752 20.8984 17.7208 21.0038 17.4556 21.0038H15.0015V18.5482C15.0015 18.2831 15.1068 18.0287 15.2942 17.8411Z" stroke="#161924" stroke-width="1.5" stroke-linecap="round" stroke-linejoin="round"/>
</svg>
