<svg width="24" height="24" viewBox="0 0 24 24" fill="none" xmlns="http://www.w3.org/2000/svg">
<path d="M2.99658 7.99838H21.0041" stroke="#161924" stroke-width="1.5" stroke-linecap="round" stroke-linejoin="round"/>
<path d="M9.49909 12H6.99805" stroke="#161924" stroke-width="1.5" stroke-linecap="round" stroke-linejoin="round"/>
<path d="M9.9995 18.0025H5.99783C4.34029 18.0025 2.99658 16.6588 2.99658 15.0013V6.99795C2.99658 5.34041 4.34029 3.9967 5.99783 3.9967H18.0028C19.6604 3.9967 21.0041 5.34041 21.0041 6.99795V10.9996" stroke="#161924" stroke-width="1.5" stroke-linecap="round" stroke-linejoin="round"/>
<path fill-rule="evenodd" clip-rule="evenodd" d="M13.4287 17.6353C13.4287 19.236 15.6776 20.4365 16.7111 20.8947C17.0323 21.0397 17.4003 21.0397 17.7215 20.8947C18.7549 20.4315 21.0039 19.242 21.0039 17.6353V15.0602C21.0034 14.5285 20.6697 14.0541 20.1695 13.8737L18.2417 13.1794C17.5783 12.9403 16.8523 12.9403 16.1889 13.1794L14.2631 13.8727C13.7623 14.0529 13.4285 14.528 13.4287 15.0602V17.6353Z" stroke="#161924" stroke-width="1.5" stroke-linecap="round" stroke-linejoin="round"/>
</svg>
