<svg width="24" height="24" viewBox="0 0 24 24" fill="none" xmlns="http://www.w3.org/2000/svg">
<path d="M17.5 16H19C20.3807 16 21.5 14.8807 21.5 13.5V6.5C21.5 5.11929 20.3807 4 19 4H8C6.61929 4 5.5 5.11929 5.5 6.5V8" stroke="#161924" stroke-width="1.5" stroke-linecap="round" stroke-linejoin="round"/>
<path fill-rule="evenodd" clip-rule="evenodd" d="M17.5 17.5C17.5 18.8807 16.3807 20 15 20L5 20C3.61929 20 2.5 18.8807 2.5 17.5L2.49999 10.5C2.49998 9.11931 3.61927 8.00002 4.99998 8.00002L15 8C16.3807 8 17.5 9.11929 17.5 10.5L17.5 17.5Z" stroke="#161924" stroke-width="1.5" stroke-linecap="round" stroke-linejoin="round"/>
<path d="M11.25 15.2485L8.75 12.7515" stroke="#161924" stroke-width="1.5" stroke-linecap="round" stroke-linejoin="round"/>
<path d="M11.2485 12.75L8.75146 15.25" stroke="#161924" stroke-width="1.5" stroke-linecap="round" stroke-linejoin="round"/>
<path d="M11.2485 12.75L8.75146 15.25" stroke="#161924" stroke-width="1.5" stroke-linecap="round" stroke-linejoin="round"/>
</svg>
