<svg width="24" height="24" viewBox="0 0 24 24" fill="none" xmlns="http://www.w3.org/2000/svg">
<path fill-rule="evenodd" clip-rule="evenodd" d="M6.99805 9.99912V14.0008C6.99805 15.1058 7.89385 16.0016 8.99888 16.0016H15.0014C16.1064 16.0016 17.0022 15.1058 17.0022 14.0008V9.99912C17.0022 8.89409 16.1064 7.99829 15.0014 7.99829H8.99888C7.89385 7.99829 6.99805 8.89409 6.99805 9.99912Z" stroke="#161924" stroke-width="1.5" stroke-linecap="round" stroke-linejoin="round"/>
<path d="M17.0022 11.3327H6.99805" stroke="#161924" stroke-width="1.5" stroke-linecap="round" stroke-linejoin="round"/>
<path fill-rule="evenodd" clip-rule="evenodd" d="M20.0037 7.99835C20.0037 6.34081 21.3474 4.9971 23.0049 4.9971C21.3474 4.9971 20.0037 3.65339 20.0037 1.99585C20.0037 3.65339 18.66 4.9971 17.0024 4.9971C18.66 4.9971 20.0037 6.34081 20.0037 7.99835Z" stroke="#161924" stroke-width="1.5" stroke-linecap="round" stroke-linejoin="round"/>
<path d="M21.0041 12V17.002C21.0041 19.2121 19.2125 21.0037 17.0024 21.0037H6.99825C4.78819 21.0037 2.99658 19.2121 2.99658 17.002V6.99788C2.99658 4.78782 4.78819 2.99622 6.99825 2.99622H14.0012" stroke="#161924" stroke-width="1.5" stroke-linecap="round" stroke-linejoin="round"/>
</svg>
