<svg width="24" height="24" viewBox="0 0 24 24" fill="none" xmlns="http://www.w3.org/2000/svg">
<path fill-rule="evenodd" clip-rule="evenodd" d="M19.0032 17.0021H15.5367C15.2026 17.0021 14.8895 17.1691 14.7044 17.4473L14.2982 18.0565C14.1131 18.3346 13.8 18.5017 13.4659 18.5017H8.53382C8.19968 18.5017 7.88655 18.3346 7.70147 18.0565L7.2953 17.4473C7.10922 17.1691 6.79709 17.0021 6.46195 17.0021H2.99651C2.44428 17.0021 1.99609 17.4503 1.99609 18.0025V19.0029C1.99609 20.1084 2.89147 21.0037 3.99693 21.0037H18.0028C19.1082 21.0037 20.0036 20.1084 20.0036 19.0029V18.0025C20.0036 17.4503 19.5554 17.0021 19.0032 17.0021Z" stroke="#161924" stroke-width="1.5" stroke-linecap="round" stroke-linejoin="round"/>
<path d="M19.0031 17.0021V12" stroke="#161924" stroke-width="1.5" stroke-linecap="round" stroke-linejoin="round"/>
<path d="M2.99658 17.0021V6.9979C2.99658 5.89244 3.89195 4.99707 4.99742 4.99707H8.99908" stroke="#161924" stroke-width="1.5" stroke-linecap="round" stroke-linejoin="round"/>
<path fill-rule="evenodd" clip-rule="evenodd" d="M12.0005 3.7966V7.3981C12.0005 8.39251 12.8068 9.19885 13.8012 9.19885H19.2035C20.1979 9.19885 21.0042 8.39251 21.0042 7.3981V3.7966C21.0042 2.80219 20.1979 1.99585 19.2035 1.99585H13.8012C12.8068 1.99585 12.0005 2.80219 12.0005 3.7966Z" stroke="#161924" stroke-width="1.5" stroke-linecap="round" stroke-linejoin="round"/>
<path d="M21.0042 4.99716H12.0005" stroke="#161924" stroke-width="1.5" stroke-linecap="round" stroke-linejoin="round"/>
</svg>
