<svg width="24" height="24" viewBox="0 0 24 24" fill="none" xmlns="http://www.w3.org/2000/svg">
<path d="M3 7H21" stroke="#161924" stroke-width="1.5" stroke-linecap="round" stroke-linejoin="round"/>
<path d="M9.57 11H7" stroke="#161924" stroke-width="1.5" stroke-linecap="round" stroke-linejoin="round"/>
<path d="M9 17H6C4.343 17 3 15.657 3 14V6C3 4.343 4.343 3 6 3H18C19.657 3 21 4.343 21 6V10" stroke="#161924" stroke-width="1.5" stroke-linecap="round" stroke-linejoin="round"/>
<path d="M17.001 16.815V14.98" stroke="#161924" stroke-width="1.5" stroke-linecap="round" stroke-linejoin="round"/>
<path d="M17 18.839C16.95 18.839 16.909 18.88 16.91 18.93C16.91 18.98 16.951 19.021 17.001 19.021C17.051 19.021 17.091 18.98 17.091 18.93C17.091 18.88 17.051 18.839 17 18.839" stroke="#161924" stroke-width="1.5" stroke-linecap="round" stroke-linejoin="round"/>
<path d="M17 22C14.239 22 12 19.761 12 17C12 14.239 14.239 12 17 12C19.762 12 22 14.239 22 17C22 19.761 19.762 22 17 22" stroke="#161924" stroke-width="1.5" stroke-linecap="round" stroke-linejoin="round"/>
</svg>
