<svg width="24" height="24" viewBox="0 0 24 24" fill="none" xmlns="http://www.w3.org/2000/svg">
<path d="M17 21C14.239 21 12 18.761 12 16C12 13.239 14.239 11 17 11C19.762 11 22 13.239 22 16C22 18.761 19.762 21 17 21" stroke="#161924" stroke-width="1.5" stroke-linecap="round" stroke-linejoin="round"/>
<path d="M15.25 17.75L18.75 14.25" stroke="#161924" stroke-width="1.5" stroke-linecap="round" stroke-linejoin="round"/>
<path d="M2 6.84998H21" stroke="#161924" stroke-width="1.5" stroke-linecap="round" stroke-linejoin="round"/>
<path d="M21 13V5C21 3.895 20.105 3 19 3H4C2.895 3 2 3.895 2 5V14C2 15.105 2.895 16 4 16H12" stroke="#161924" stroke-width="1.5" stroke-linecap="round" stroke-linejoin="round"/>
<path d="M18.9085 17.6276C18.9866 17.7057 18.9866 17.8324 18.9085 17.9105C18.8304 17.9886 18.7038 17.9886 18.6257 17.9105C18.5476 17.8324 18.5476 17.7057 18.6257 17.6276C18.7038 17.5495 18.8304 17.5495 18.9085 17.6276" stroke="#161924" stroke-width="1.5" stroke-linecap="round" stroke-linejoin="round"/>
<path d="M15.3753 14.0896C15.4534 14.1677 15.4534 14.2943 15.3753 14.3724C15.2972 14.4505 15.1706 14.4505 15.0925 14.3724C15.0144 14.2943 15.0144 14.1677 15.0925 14.0896C15.1706 14.0115 15.2972 14.0115 15.3753 14.0896" stroke="#161924" stroke-width="1.5" stroke-linecap="round" stroke-linejoin="round"/>
</svg>
