<svg width="24" height="24" viewBox="0 0 24 24" fill="none" xmlns="http://www.w3.org/2000/svg">
<path d="M16.7593 8.99878C17.5553 9.79473 18.0025 10.8743 18.0025 12C18.0025 13.1257 17.5553 14.2053 16.7593 15.0013" stroke="#161924" stroke-width="1.5" stroke-linecap="round" stroke-linejoin="round"/>
<path d="M6.63379 5.63337C9.20884 3.05832 13.0815 2.28799 16.446 3.6816C19.8105 5.07521 22.0042 8.35831 22.0042 12C22.0042 15.6417 19.8105 18.9248 16.446 20.3184C13.0815 21.712 9.20884 20.9417 6.63379 18.3666" stroke="#161924" stroke-width="1.5" stroke-linecap="round" stroke-linejoin="round"/>
<path d="M14.38 10.4994C15.2084 11.3283 15.2084 12.6717 14.38 13.5006" stroke="#161924" stroke-width="1.5" stroke-linecap="round" stroke-linejoin="round"/>
<path fill-rule="evenodd" clip-rule="evenodd" d="M1.99609 10.1992V13.8007C1.99609 14.7952 2.80235 15.6014 3.79684 15.6014H9.19909C9.67672 15.6016 10.1348 15.4119 10.4726 15.0742C10.8103 14.7364 11 14.2783 10.9998 13.8007V10.1992C11 9.72156 10.8103 9.26345 10.4726 8.92572C10.1348 8.58798 9.67672 8.3983 9.19909 8.39844H3.79684C3.31921 8.3983 2.86111 8.58798 2.52337 8.92572C2.18564 9.26345 1.99596 9.72156 1.99609 10.1992V10.1992Z" stroke="#161924" stroke-width="1.5" stroke-linecap="round" stroke-linejoin="round"/>
<path d="M10.9998 10.9996H1.99609" stroke="#161924" stroke-width="1.5" stroke-linecap="round" stroke-linejoin="round"/>
</svg>
