<svg width="24" height="24" viewBox="0 0 24 24" fill="none" xmlns="http://www.w3.org/2000/svg">
<path d="M17.5542 6.44436L20.1666 3.83203" stroke="#161924" stroke-width="1.5" stroke-linecap="round" stroke-linejoin="round"/>
<path d="M17.5542 3.8335L20.1666 6.44587" stroke="#161924" stroke-width="1.5" stroke-linecap="round" stroke-linejoin="round"/>
<path d="M21 12C20.9973 11.3264 20.9173 10.6554 20.7617 10" stroke="#161924" stroke-width="1.5" stroke-linecap="round" stroke-linejoin="round"/>
<path d="M3 12C3 16.9706 7.02944 21 12 21C16.9706 21 21 16.9706 21 12" stroke="#161924" stroke-width="1.5" stroke-linecap="round" stroke-linejoin="round"/>
<path d="M14 3.23822C13.3446 3.08262 12.6736 3.00269 12 3C7.02944 3 3 7.02944 3 12" stroke="#161924" stroke-width="1.5" stroke-linecap="round" stroke-linejoin="round"/>
<path fill-rule="evenodd" clip-rule="evenodd" d="M7.5 10.5V13.5C7.5 14.6046 8.39543 15.5 9.5 15.5H14.5C15.6046 15.5 16.5 14.6046 16.5 13.5V10.5C16.5 9.39543 15.6046 8.5 14.5 8.5H9.5C8.39543 8.5 7.5 9.39543 7.5 10.5Z" stroke="#161924" stroke-width="1.5" stroke-linecap="round" stroke-linejoin="round"/>
<path d="M16.5 11.5H7.5" stroke="#161924" stroke-width="1.5" stroke-linecap="round" stroke-linejoin="round"/>
</svg>
