<svg width="24" height="24" viewBox="0 0 24 24" fill="none" xmlns="http://www.w3.org/2000/svg">
<path d="M11.7178 7.98328V12.6362L15.3753 14.8661" stroke="#161924" stroke-width="1.5" stroke-linecap="round" stroke-linejoin="round"/>
<path d="M3.05518 10.9996C3.59329 6.18649 7.8423 2.66136 12.672 3.0211C17.5016 3.38084 21.1815 7.49657 21.0006 12.3362C20.8198 17.1759 16.843 21.0055 11.9999 21.0037" stroke="#161924" stroke-width="1.5" stroke-linecap="round" stroke-linejoin="round"/>
<path fill-rule="evenodd" clip-rule="evenodd" d="M1.99609 16.4018V19.203C1.99609 19.9765 2.62316 20.6036 3.39668 20.6036H7.59843C8.37195 20.6036 8.99901 19.9765 8.99901 19.203V16.4018C8.99901 15.6283 8.37195 15.0012 7.59843 15.0012H3.39668C2.62316 15.0012 1.99609 15.6283 1.99609 16.4018Z" stroke="#161924" stroke-width="1.5" stroke-linecap="round" stroke-linejoin="round"/>
<path d="M8.99901 17.6024H1.99609" stroke="#161924" stroke-width="1.5" stroke-linecap="round" stroke-linejoin="round"/>
</svg>
