<svg width="24" height="24" viewBox="0 0 24 24" fill="none" xmlns="http://www.w3.org/2000/svg">
<path d="M20.5859 9.35186C20.859 10.2082 21 11.1011 21.0041 12C21.0041 16.9726 16.973 21.0037 12.0003 21.0037C7.0277 21.0037 2.99658 16.9726 2.99658 12C2.99658 7.02733 7.0277 2.99622 12.0003 2.99622C12.8992 3.00028 13.7921 3.14129 14.6484 3.41439" stroke="#161924" stroke-width="1.5" stroke-linecap="round" stroke-linejoin="round"/>
<path d="M19.0153 6.25966L17.7397 4.98413" stroke="#161924" stroke-width="1.5" stroke-linecap="round" stroke-linejoin="round"/>
<path d="M21.0039 4.27075L19.0151 6.25961" stroke="#161924" stroke-width="1.5" stroke-linecap="round" stroke-linejoin="round"/>
<path fill-rule="evenodd" clip-rule="evenodd" d="M8.24854 10.4994V13.5007C8.24854 14.3294 8.92039 15.0013 9.74916 15.0013H14.251C15.0798 15.0013 15.7517 14.3294 15.7517 13.5007V10.4994C15.7517 9.67063 15.0798 8.99878 14.251 8.99878H9.74916C8.92039 8.99878 8.24854 9.67063 8.24854 10.4994Z" stroke="#161924" stroke-width="1.5" stroke-linecap="round" stroke-linejoin="round"/>
<path d="M15.7517 11.4998H8.24854" stroke="#161924" stroke-width="1.5" stroke-linecap="round" stroke-linejoin="round"/>
</svg>
