<svg width="24" height="24" viewBox="0 0 24 24" fill="none" xmlns="http://www.w3.org/2000/svg">
<path fill-rule="evenodd" clip-rule="evenodd" d="M7.5 9.5V12.5C7.5 13.6046 8.39543 14.5 9.5 14.5H14.5C15.6046 14.5 16.5 13.6046 16.5 12.5V9.5C16.5 8.39543 15.6046 7.5 14.5 7.5H9.5C8.39543 7.5 7.5 8.39543 7.5 9.5Z" stroke="#161924" stroke-width="1.5" stroke-linecap="round" stroke-linejoin="round"/>
<path d="M16.5 10.5H7.5" stroke="#161924" stroke-width="1.5" stroke-linecap="round" stroke-linejoin="round"/>
<path fill-rule="evenodd" clip-rule="evenodd" d="M18.0104 4.98157V4.98157C19.6041 6.56799 20.5 8.72399 20.5 10.9727C20.5 13.2213 19.6041 15.3773 18.0104 16.9637V16.9637L14.4916 20.4713C13.1183 21.8383 10.8999 21.8435 9.52013 20.4829L9.50839 20.4713L5.98958 16.9638C4.39593 15.3774 3.50001 13.2214 3.5 10.9727C3.49999 8.72403 4.39589 6.56802 5.98952 4.98157V4.98157C9.30238 1.6838 14.6537 1.67125 17.982 4.95344L18.0103 4.98157H18.0104Z" stroke="#161924" stroke-width="1.5" stroke-linecap="round" stroke-linejoin="round"/>
</svg>
