<svg width="24" height="24" viewBox="0 0 24 24" fill="none" xmlns="http://www.w3.org/2000/svg">
<path d="M15.0016 8.99874H2.99658" stroke="#161924" stroke-width="1.5" stroke-linecap="round" stroke-linejoin="round"/>
<path d="M6.99825 3.9967H4.99742C3.89195 3.9967 2.99658 4.89208 2.99658 5.99754V20.0034C2.99658 21.1088 3.89195 22.0042 4.99742 22.0042H13.0007C14.1062 22.0042 15.0016 21.1088 15.0016 20.0034V5.99754C15.0016 4.89208 14.1062 3.9967 13.0007 3.9967H10.9999" stroke="#161924" stroke-width="1.5" stroke-linecap="round" stroke-linejoin="round"/>
<path d="M20.0039 17.5023L22.0047 19.5032L20.0039 21.504" stroke="#161924" stroke-width="1.5" stroke-linecap="round" stroke-linejoin="round"/>
<path d="M18.0029 19.5031H22.0046" stroke="#161924" stroke-width="1.5" stroke-linecap="round" stroke-linejoin="round"/>
<path d="M15.0016 13.0305H2.99658" stroke="#161924" stroke-width="1.5" stroke-linecap="round" stroke-linejoin="round"/>
<path fill-rule="evenodd" clip-rule="evenodd" d="M6.99805 1.99585H10.9997V5.99752H6.99805V1.99585Z" stroke="#161924" stroke-width="1.5" stroke-linecap="round" stroke-linejoin="round"/>
<path d="M5.99677 15.8346C5.90473 15.8346 5.8297 15.9096 5.8307 16.0017C5.8307 16.0937 5.90573 16.1687 5.99777 16.1687C6.08981 16.1687 6.16484 16.0937 6.16484 16.0017C6.16484 15.9096 6.08981 15.8346 5.99677 15.8346" stroke="#161924" stroke-width="1.5" stroke-linecap="round" stroke-linejoin="round"/>
<path d="M8.99824 15.8346C8.9062 15.8346 8.83117 15.9096 8.83217 16.0017C8.83217 16.0937 8.9072 16.1687 8.99923 16.1687C9.09128 16.1687 9.16631 16.0937 9.16631 16.0017C9.16631 15.9096 9.09128 15.8346 8.99824 15.8346" stroke="#161924" stroke-width="1.5" stroke-linecap="round" stroke-linejoin="round"/>
<path d="M11.9992 18.8358C11.9072 18.8358 11.8321 18.9109 11.8331 19.0029C11.8331 19.0949 11.9082 19.17 12.0002 19.17C12.0923 19.17 12.1673 19.0949 12.1673 19.0029C12.1673 18.9109 12.0923 18.8358 11.9992 18.8358" stroke="#161924" stroke-width="1.5" stroke-linecap="round" stroke-linejoin="round"/>
<path d="M5.99677 18.8358C5.90473 18.8358 5.8297 18.9109 5.8307 19.0029C5.8307 19.0949 5.90573 19.17 5.99777 19.17C6.08981 19.17 6.16484 19.0949 6.16484 19.0029C6.16484 18.9109 6.08981 18.8358 5.99677 18.8358" stroke="#161924" stroke-width="1.5" stroke-linecap="round" stroke-linejoin="round"/>
<path d="M8.99824 18.8358C8.9062 18.8358 8.83117 18.9109 8.83217 19.0029C8.83217 19.0949 8.9072 19.17 8.99923 19.17C9.09128 19.17 9.16631 19.0949 9.16631 19.0029C9.16631 18.9109 9.09128 18.8358 8.99824 18.8358" stroke="#161924" stroke-width="1.5" stroke-linecap="round" stroke-linejoin="round"/>
<path d="M15.0015 6.99792H20.0035C20.5558 6.99792 21.004 7.44611 21.004 7.99834V13.0004C21.004 13.5527 20.5558 14.0008 20.0035 14.0008H15.0015" stroke="#161924" stroke-width="1.5" stroke-linecap="round" stroke-linejoin="round"/>
<path d="M15.0015 9.99923H21.004" stroke="#161924" stroke-width="1.5" stroke-linecap="round" stroke-linejoin="round"/>
<path d="M11.9992 15.8346C11.9072 15.8346 11.8321 15.9096 11.8331 16.0017C11.8331 16.0937 11.9082 16.1687 12.0002 16.1687C12.0923 16.1687 12.1673 16.0937 12.1673 16.0017C12.1673 15.9096 12.0923 15.8346 11.9992 15.8346" stroke="#161924" stroke-width="1.5" stroke-linecap="round" stroke-linejoin="round"/>
</svg>
