<svg width="24" height="24" viewBox="0 0 24 24" fill="none" xmlns="http://www.w3.org/2000/svg">
<path fill-rule="evenodd" clip-rule="evenodd" d="M10 9.357V3.643C10 3.011 10.511 2.5 11.143 2.5H19.857C20.488 2.5 21 3.011 21 3.643V9.357C21 9.989 20.488 10.5 19.857 10.5H11.143C10.511 10.5 10 9.989 10 9.357Z" stroke="#161924" stroke-width="1.5" stroke-linecap="round" stroke-linejoin="round"/>
<path d="M10 5.5H21" stroke="#161924" stroke-width="1.5" stroke-linecap="round" stroke-linejoin="round"/>
<path fill-rule="evenodd" clip-rule="evenodd" d="M3 7.65601C3 8.42601 3.833 8.90701 4.5 8.52201L6.502 7.36601C7.169 6.98101 7.169 6.01901 6.502 5.63401L4.5 4.47801C3.833 4.09301 3 4.57401 3 5.34401V7.65601Z" stroke="#161924" stroke-width="1.5" stroke-linecap="round" stroke-linejoin="round"/>
<path fill-rule="evenodd" clip-rule="evenodd" d="M3 20.357V14.643C3 14.011 3.511 13.5 4.143 13.5H12.857C13.488 13.5 14 14.011 14 14.643V20.357C14 20.989 13.488 21.5 12.857 21.5H4.143C3.511 21.5 3 20.989 3 20.357Z" stroke="#161924" stroke-width="1.5" stroke-linecap="round" stroke-linejoin="round"/>
<path d="M3 16.5H14" stroke="#161924" stroke-width="1.5" stroke-linecap="round" stroke-linejoin="round"/>
<path fill-rule="evenodd" clip-rule="evenodd" d="M20.9998 16.344C20.9998 15.574 20.1668 15.093 19.4998 15.478L17.4978 16.634C16.8308 17.019 16.8308 17.981 17.4978 18.366L19.4998 19.522C20.1668 19.907 20.9998 19.426 20.9998 18.656V16.344V16.344Z" stroke="#161924" stroke-width="1.5" stroke-linecap="round" stroke-linejoin="round"/>
</svg>
