<svg width="24" height="24" viewBox="0 0 24 24" fill="none" xmlns="http://www.w3.org/2000/svg">
<path d="M14.9798 16L20.4138 10.566C21.1948 9.78497 21.1948 8.51897 20.4138 7.73797L17.2628 4.58697C16.4818 3.80597 15.2158 3.80597 14.4348 4.58697L8.29376 10.728C7.51276 11.509 7.51276 12.775 8.29376 13.556L10.7378 16" stroke="#161924" stroke-width="1.5" stroke-linecap="round" stroke-linejoin="round"/>
<path fill-rule="evenodd" clip-rule="evenodd" d="M20 20H4C3.448 20 3 19.552 3 19V17C3 16.448 3.448 16 4 16H20C20.552 16 21 16.448 21 17V19C21 19.552 20.552 20 20 20Z" stroke="#161924" stroke-width="1.5" stroke-linecap="round" stroke-linejoin="round"/>
<path d="M3 4H8" stroke="#161924" stroke-width="1.5" stroke-linecap="round" stroke-linejoin="round"/>
<path d="M3 7H6" stroke="#161924" stroke-width="1.5" stroke-linecap="round" stroke-linejoin="round"/>
<path d="M3 10H4" stroke="#161924" stroke-width="1.5" stroke-linecap="round" stroke-linejoin="round"/>
<path d="M9.12012 14.38L18.0901 5.40997" stroke="#161924" stroke-width="1.5" stroke-linecap="round" stroke-linejoin="round"/>
</svg>
