<svg width="24" height="24" viewBox="0 0 24 24" fill="none" xmlns="http://www.w3.org/2000/svg">
<path d="M2.99658 7.99838H21.0041" stroke="#161924" stroke-width="1.5" stroke-linecap="round" stroke-linejoin="round"/>
<path d="M9.49909 12H6.99805" stroke="#161924" stroke-width="1.5" stroke-linecap="round" stroke-linejoin="round"/>
<path d="M21.0028 17.0021C21.0031 19.2119 19.2119 21.0035 17.0021 21.0038C14.8051 20.9713 13.032 19.1982 12.9995 17.0012C12.9998 14.7912 14.7916 12.9998 17.0016 13C19.2117 13.0002 21.0031 14.7921 21.0028 17.0021" stroke="#161924" stroke-width="1.5" stroke-linecap="round" stroke-linejoin="round"/>
<path d="M16.8965 15.5028V17.2395L18.2624 18.0728" stroke="#161924" stroke-width="1.5" stroke-linecap="round" stroke-linejoin="round"/>
<path d="M9.9995 18.0025H5.99783C4.34029 18.0025 2.99658 16.6588 2.99658 15.0013V6.99795C2.99658 5.34041 4.34029 3.9967 5.99783 3.9967H18.0028C19.6604 3.9967 21.0041 5.34041 21.0041 6.99795V10.9996" stroke="#161924" stroke-width="1.5" stroke-linecap="round" stroke-linejoin="round"/>
</svg>
