<svg width="24" height="24" viewBox="0 0 24 24" fill="none" xmlns="http://www.w3.org/2000/svg">
<path d="M3 8H21" stroke="#161924" stroke-width="1.5" stroke-linecap="round" stroke-linejoin="round"/>
<path d="M7 12.91H10" stroke="#161924" stroke-width="1.5" stroke-linecap="round" stroke-linejoin="round"/>
<path d="M11 17H5C3.895 17 3 16.105 3 15V6C3 4.895 3.895 4 5 4H19C20.105 4 21 4.895 21 6V11" stroke="#161924" stroke-width="1.5" stroke-linecap="round" stroke-linejoin="round"/>
<path d="M20.121 14.879C21.293 16.051 21.293 17.95 20.121 19.122C18.949 20.294 17.05 20.294 15.878 19.122C14.706 17.95 14.706 16.051 15.878 14.879C17.05 13.707 18.95 13.707 20.121 14.879" stroke="#161924" stroke-width="1.5" stroke-linecap="round" stroke-linejoin="round"/>
<path d="M22.0001 21L20.1211 19.122" stroke="#161924" stroke-width="1.5" stroke-linecap="round" stroke-linejoin="round"/>
</svg>
