<svg width="24" height="24" viewBox="0 0 24 24" fill="none" xmlns="http://www.w3.org/2000/svg">
<path d="M9.996 6.59998H5.795C4.804 6.59998 4 7.40398 4 8.39498V19.206C4 20.196 4.804 21 5.795 21H12.942C13.933 21 14.737 20.196 14.737 19.205V18.442" stroke="#161924" stroke-width="1.5" stroke-linecap="round" stroke-linejoin="round"/>
<path fill-rule="evenodd" clip-rule="evenodd" d="M9.29505 16.976L15.8041 18.73C16.8731 19.018 17.9721 18.383 18.2571 17.314L20.9331 7.26999C21.2151 6.20999 20.5801 5.10999 19.5211 4.82399L13.0121 3.06999C11.9431 2.78199 10.8441 3.41699 10.5591 4.48599L7.88305 14.53C7.60005 15.595 8.23105 16.689 9.29505 16.976V16.976Z" stroke="#161924" stroke-width="1.5" stroke-linecap="round" stroke-linejoin="round"/>
<path d="M11.3999 17.54L15.1199 3.64001" stroke="#161924" stroke-width="1.5" stroke-linecap="round" stroke-linejoin="round"/>
</svg>
