<svg width="24" height="24" viewBox="0 0 24 24" fill="none" xmlns="http://www.w3.org/2000/svg">
<path d="M3 8H21" stroke="#161924" stroke-width="1.5" stroke-linecap="round" stroke-linejoin="round"/>
<path d="M7 18H6C4.34315 18 3 16.6569 3 15V7C3 5.34315 4.34315 4 6 4H18C19.6569 4 21 5.34315 21 7V11" stroke="#161924" stroke-width="1.5" stroke-linecap="round" stroke-linejoin="round"/>
<rect x="10" y="14" width="12" height="7" rx="2" stroke="#161924" stroke-width="1.5" stroke-linecap="round" stroke-linejoin="round"/>
<path d="M12.995 17.5L13 17.505L13.005 17.5L13 17.495L12.995 17.5" stroke="#161924" stroke-width="1.5" stroke-linecap="round" stroke-linejoin="round"/>
<path d="M15.995 17.5L16 17.505L16.005 17.5L16 17.495L15.995 17.5" stroke="#161924" stroke-width="1.5" stroke-linecap="round" stroke-linejoin="round"/>
<path d="M18.9955 17.5L19.0005 17.505L19.0055 17.5L19.0005 17.495L18.9955 17.5" stroke="#161924" stroke-width="1.5" stroke-linecap="round" stroke-linejoin="round"/>
</svg>
