<svg width="24" height="24" viewBox="0 0 24 24" fill="none" xmlns="http://www.w3.org/2000/svg">
<path d="M15.9971 3H19.2831C20.2301 3 20.9971 3.767 20.9971 4.714V8" stroke="#161924" stroke-width="1.5" stroke-linecap="round" stroke-linejoin="round"/>
<path d="M8 21H4.714C3.767 21 3 20.233 3 19.286V16" stroke="#161924" stroke-width="1.5" stroke-linecap="round" stroke-linejoin="round"/>
<path fill-rule="evenodd" clip-rule="evenodd" d="M2 5V9C2 10.105 2.895 11 4 11H10C11.105 11 12 10.105 12 9V5C12 3.895 11.105 3 10 3H4C2.895 3 2 3.895 2 5Z" stroke="#161924" stroke-width="1.5" stroke-linecap="round" stroke-linejoin="round"/>
<path d="M12 6H2" stroke="#161924" stroke-width="1.5" stroke-linecap="round" stroke-linejoin="round"/>
<path d="M17.3931 15.983V17.741L18.7751 18.584" stroke="#161924" stroke-width="1.5" stroke-linecap="round" stroke-linejoin="round"/>
<path d="M17.5 22C15.015 22 13 19.986 13 17.5C13 15.066 15.07 12.997 17.504 13C19.988 13.002 22 15.016 22 17.5C22 19.985 19.986 22 17.5 22" stroke="#161924" stroke-width="1.5"/>
</svg>
