<svg width="24" height="24" viewBox="0 0 24 24" fill="none" xmlns="http://www.w3.org/2000/svg">
<path d="M8 3H3" stroke="#161924" stroke-width="1.5" stroke-linecap="round" stroke-linejoin="round"/>
<path d="M3 6H6" stroke="#161924" stroke-width="1.5" stroke-linecap="round" stroke-linejoin="round"/>
<path d="M12 3C16.9706 3 21 7.02944 21 12C21 16.9706 16.9706 21 12 21C7.02944 21 3 16.9706 3 12C3.0027 11.3264 3.08262 10.6554 3.23822 10" stroke="#161924" stroke-width="1.5" stroke-linecap="round" stroke-linejoin="round"/>
<path d="M16.44 11.25H7.85986" stroke="#161924" stroke-width="1.5" stroke-linecap="round" stroke-linejoin="round"/>
<path fill-rule="evenodd" clip-rule="evenodd" d="M15.249 8.5H9.80099C9.13857 8.5 8.55458 8.93451 8.36424 9.569L7.31424 13.069C7.178 13.5232 7.26452 14.015 7.54756 14.3954C7.8306 14.7758 8.27684 15 8.75099 15H14.199C14.8614 15 15.4454 14.5655 15.6357 13.931L16.6857 10.431C16.822 9.97684 16.7355 9.48501 16.4524 9.1046C16.1694 8.72419 15.7231 8.5 15.249 8.5Z" stroke="#161924" stroke-width="1.5" stroke-linecap="round" stroke-linejoin="round"/>
</svg>
