<svg width="24" height="24" viewBox="0 0 24 24" fill="none" xmlns="http://www.w3.org/2000/svg">
<path d="M2.5 7.5L4 9L5.5 7.5" stroke="#161924" stroke-width="1.5" stroke-linecap="round" stroke-linejoin="round"/>
<path d="M4 9V7C4 5.343 5.343 4 7 4" stroke="#161924" stroke-width="1.5" stroke-linecap="round" stroke-linejoin="round"/>
<path fill-rule="evenodd" clip-rule="evenodd" d="M11.857 21H3.143C2.512 21 2 20.489 2 19.857V14C2 13.368 2.512 12.857 3.143 12.857H11.857C12.489 12.857 13 13.368 13 14V19.857C13 20.489 12.489 21 11.857 21Z" stroke="#161924" stroke-width="1.5" stroke-linecap="round" stroke-linejoin="round"/>
<path d="M2 15.86H13" stroke="#161924" stroke-width="1.5" stroke-linecap="round" stroke-linejoin="round"/>
<path d="M21.5 16.5L20 15L18.5 16.5" stroke="#161924" stroke-width="1.5" stroke-linecap="round" stroke-linejoin="round"/>
<path d="M20 15V17C20 18.657 18.657 20 17 20" stroke="#161924" stroke-width="1.5" stroke-linecap="round" stroke-linejoin="round"/>
<path d="M18.5 9C16.567 9 15 7.433 15 5.5C15 3.567 16.567 2 18.5 2C20.434 2 22 3.567 22 5.5C22 7.433 20.434 9 18.5 9" stroke="#161924" stroke-width="1.5" stroke-linecap="round" stroke-linejoin="round"/>
<path d="M15.33 4.01801C13.478 4.10801 12 5.62601 12 7.50001C12 9.43301 13.567 11 15.5 11C16.897 11 18.093 10.176 18.655 8.99201" stroke="#161924" stroke-width="1.5" stroke-linecap="round" stroke-linejoin="round"/>
</svg>
