<svg width="24" height="24" viewBox="0 0 24 24" fill="none" xmlns="http://www.w3.org/2000/svg">
<path d="M4.99742 2.99622C3.89239 2.99622 2.99658 3.89202 2.99658 4.99705" stroke="#161924" stroke-width="1.5" stroke-linecap="round" stroke-linejoin="round"/>
<path d="M2.9963 8.32849V10.3293" stroke="#161924" stroke-width="1.5" stroke-linecap="round" stroke-linejoin="round"/>
<path d="M8.32861 2.9963H10.3294" stroke="#161924" stroke-width="1.5" stroke-linecap="round" stroke-linejoin="round"/>
<path d="M19.0029 21.0038C20.108 21.0038 21.0038 20.108 21.0038 19.0029" stroke="#161924" stroke-width="1.5" stroke-linecap="round" stroke-linejoin="round"/>
<path d="M21.0036 15.6715V13.6707" stroke="#161924" stroke-width="1.5" stroke-linecap="round" stroke-linejoin="round"/>
<path d="M15.6717 21.0037H13.6709" stroke="#161924" stroke-width="1.5" stroke-linecap="round" stroke-linejoin="round"/>
<path fill-rule="evenodd" clip-rule="evenodd" d="M8.99901 14.0009H3.74682C3.28242 14.0006 2.83696 14.185 2.50858 14.5133C2.18019 14.8417 1.99583 15.2872 1.99609 15.7516V19.253C1.99583 19.7174 2.18019 20.1629 2.50858 20.4913C2.83696 20.8197 3.28242 21.004 3.74682 21.0038H8.99901C9.46341 21.004 9.90887 20.8197 10.2373 20.4913C10.5656 20.1629 10.75 19.7174 10.7497 19.253V15.7516C10.75 15.2872 10.5656 14.8417 10.2373 14.5133C9.90887 14.185 9.46341 14.0006 8.99901 14.0009Z" stroke="#161924" stroke-width="1.5" stroke-linecap="round" stroke-linejoin="round"/>
<path d="M10.7497 16.6269H1.99609" stroke="#161924" stroke-width="1.5" stroke-linecap="round" stroke-linejoin="round"/>
<path fill-rule="evenodd" clip-rule="evenodd" d="M20.2534 2.99622H15.0012C14.5368 2.99595 14.0914 3.18032 13.763 3.5087C13.4346 3.83708 13.2502 4.28254 13.2505 4.74695V8.2484C13.2502 8.71281 13.4346 9.15827 13.763 9.48665C14.0914 9.81503 14.5368 9.9994 15.0012 9.99913H20.2534C20.7178 9.9994 21.1633 9.81503 21.4917 9.48665C21.82 9.15827 22.0044 8.71281 22.0041 8.2484V4.74695C22.0044 4.28254 21.82 3.83708 21.4917 3.5087C21.1633 3.18032 20.7178 2.99595 20.2534 2.99622Z" stroke="#161924" stroke-width="1.5" stroke-linecap="round" stroke-linejoin="round"/>
<path d="M22.0041 5.62228H13.2505" stroke="#161924" stroke-width="1.5" stroke-linecap="round" stroke-linejoin="round"/>
</svg>
