<svg width="24" height="24" viewBox="0 0 24 24" fill="none" xmlns="http://www.w3.org/2000/svg">
<path d="M3 7H21" stroke="#161924" stroke-width="1.5" stroke-linecap="round" stroke-linejoin="round"/>
<path d="M9 11H6.479" stroke="#161924" stroke-width="1.5" stroke-linecap="round" stroke-linejoin="round"/>
<path d="M10 17H6C4.34315 17 3 15.6569 3 14V6C3 4.34315 4.34315 3 6 3H18C19.6569 3 21 4.34315 21 6V10" stroke="#161924" stroke-width="1.5" stroke-linecap="round" stroke-linejoin="round"/>
<path d="M16.75 16.5L17.75 17.5" stroke="#161924" stroke-width="1.5" stroke-linecap="round" stroke-linejoin="round"/>
<path d="M17.75 17.5L19.25 16" stroke="#161924" stroke-width="1.5" stroke-linecap="round" stroke-linejoin="round"/>
<path fill-rule="evenodd" clip-rule="evenodd" d="M14 17.4425V15.1759C13.9999 14.6137 14.3524 14.1118 14.8813 13.9212L16.9147 13.1892C17.6153 12.9369 18.382 12.9369 19.0827 13.1892L21.1187 13.9225C21.6471 14.113 21.9996 14.6141 22 15.1759V17.4425C22 19.1398 19.6253 20.3958 18.5333 20.8852C18.1943 21.0383 17.8057 21.0383 17.4667 20.8852C16.3747 20.3958 14 19.1372 14 17.4425Z" stroke="#161924" stroke-width="1.5" stroke-linecap="round" stroke-linejoin="round"/>
</svg>
