<svg width="24" height="24" viewBox="0 0 24 24" fill="none" xmlns="http://www.w3.org/2000/svg">
<path d="M14 15V19.129C14 20.162 13.162 21 12.129 21H4.871C3.838 21 3 20.162 3 19.129V4.871C3 3.838 3.838 3 4.871 3H12.128C13.162 3 14 3.838 14 4.871V7" stroke="#161924" stroke-width="1.5" stroke-linecap="round" stroke-linejoin="round"/>
<path d="M6.2998 18.5H10.6998" stroke="#161924" stroke-width="1.5" stroke-linecap="round" stroke-linejoin="round"/>
<path fill-rule="evenodd" clip-rule="evenodd" d="M10.333 7H19.666C20.403 7 21 7.597 21 8.333V13.666C21 14.403 20.403 15 19.667 15H10.334C9.597 15 9 14.403 9 13.667V8.333C9 7.597 9.597 7 10.333 7Z" stroke="#161924" stroke-width="1.5" stroke-linecap="round" stroke-linejoin="round"/>
<path d="M9 10H21" stroke="#161924" stroke-width="1.5" stroke-linecap="round" stroke-linejoin="round"/>
</svg>
