<svg width="24" height="24" viewBox="0 0 24 24" fill="none" xmlns="http://www.w3.org/2000/svg">
<path d="M18.9032 16.802L17.1525 18.5537L16.1021 17.5023" stroke="#161924" stroke-width="1.5" stroke-linecap="round" stroke-linejoin="round"/>
<path fill-rule="evenodd" clip-rule="evenodd" d="M13.2497 18.2356L13.85 19.018L13.979 19.9914C14.0506 20.5315 14.4753 20.9567 15.0154 21.0288L15.9919 21.1588L16.7732 21.7591C17.2057 22.0898 17.8062 22.0898 18.2388 21.7591L19.0211 21.1588L19.9955 21.0298C20.5357 20.9582 20.9609 20.5335 21.033 19.9934L21.163 19.017L21.7633 18.2356C22.0935 17.8033 22.0935 17.2034 21.7633 16.771L21.163 15.9887L21.034 15.0153C20.9624 14.4751 20.5376 14.0499 19.9975 13.9779L19.0211 13.8478L18.2398 13.2476C17.8072 12.9168 17.2067 12.9168 16.7742 13.2476L15.9919 13.8478L15.0174 13.9769C14.4773 14.0484 14.0521 14.4732 13.98 15.0133L13.85 15.9897L13.2497 16.771C12.9174 17.2027 12.9174 17.804 13.2497 18.2356Z" stroke="#161924" stroke-width="1.5" stroke-linecap="round" stroke-linejoin="round"/>
<path d="M8.99908 21.0038H4.7113C3.76451 21.0032 2.99713 20.2359 2.99658 19.2891V16.0017" stroke="#161924" stroke-width="1.5" stroke-linecap="round" stroke-linejoin="round"/>
<path d="M16.002 3.9967H19.2893C20.2361 3.99726 21.0035 4.76464 21.004 5.71142V8.99879" stroke="#161924" stroke-width="1.5" stroke-linecap="round" stroke-linejoin="round"/>
<path fill-rule="evenodd" clip-rule="evenodd" d="M1.99609 4.99705V8.99872C1.99609 10.1037 2.8919 10.9995 3.99693 10.9995H9.99943C11.1045 10.9995 12.0003 10.1037 12.0003 8.99872V4.99705C12.0003 3.89202 11.1045 2.99622 9.99943 2.99622H3.99693C2.8919 2.99622 1.99609 3.89202 1.99609 4.99705Z" stroke="#161924" stroke-width="1.5" stroke-linecap="round" stroke-linejoin="round"/>
<path d="M12.0003 5.99752H1.99609" stroke="#161924" stroke-width="1.5" stroke-linecap="round" stroke-linejoin="round"/>
</svg>
