<svg width="24" height="24" viewBox="0 0 24 24" fill="none" xmlns="http://www.w3.org/2000/svg">
<path fill-rule="evenodd" clip-rule="evenodd" d="M7.5 10.5V13.5C7.5 14.6046 8.39543 15.5 9.5 15.5H14.5C15.6046 15.5 16.5 14.6046 16.5 13.5V10.5C16.5 9.39543 15.6046 8.5 14.5 8.5H9.5C8.39543 8.5 7.5 9.39543 7.5 10.5Z" stroke="#161924" stroke-width="1.5" stroke-linecap="round" stroke-linejoin="round"/>
<path d="M16.5 11.5H7.5" stroke="#161924" stroke-width="1.5" stroke-linecap="round" stroke-linejoin="round"/>
<path d="M13.9999 3.23074C10.0757 2.32605 6.02673 4.12988 4.07486 7.65245C2.12299 11.175 2.74022 15.5644 5.58787 18.412C8.43552 21.2597 12.8249 21.8769 16.3475 19.9251C19.87 17.9732 21.6739 13.9243 20.7692 10" stroke="#161924" stroke-width="1.5" stroke-linecap="round" stroke-linejoin="round"/>
<path d="M17.25 5.25073H20.25" stroke="#161924" stroke-width="1.5" stroke-linecap="round" stroke-linejoin="round"/>
<path d="M18.749 6.75V3.75" stroke="#161924" stroke-width="1.5" stroke-linecap="round" stroke-linejoin="round"/>
</svg>
