<svg width="24" height="24" viewBox="0 0 24 24" fill="none" xmlns="http://www.w3.org/2000/svg">
<path d="M2.99658 6.99789H21.0041" stroke="#161924" stroke-width="1.5" stroke-linecap="round" stroke-linejoin="round"/>
<path d="M14.4492 17.5536L17.553 14.4498" stroke="#161924" stroke-width="1.5" stroke-linecap="round" stroke-linejoin="round"/>
<path d="M14.2509 14.3257C14.251 14.2844 14.2846 14.2509 14.326 14.251C14.3674 14.2511 14.4009 14.2846 14.4009 14.326C14.4009 14.3674 14.3674 14.401 14.326 14.401C14.2846 14.4011 14.251 14.3677 14.2509 14.3263V14.3257" stroke="#161924" stroke-width="1.5" stroke-linecap="round" stroke-linejoin="round"/>
<rect x="10.9995" y="10.9996" width="10.0042" height="10.0042" rx="3" stroke="#161924" stroke-width="1.5" stroke-linecap="round" stroke-linejoin="round"/>
<path d="M17.7525 17.6776C17.7523 17.719 17.7187 17.7524 17.6773 17.7524C17.6359 17.7523 17.6024 17.7187 17.6024 17.6773C17.6024 17.6359 17.6359 17.6024 17.6773 17.6023C17.7187 17.6022 17.7523 17.6357 17.7525 17.6771V17.6776" stroke="#161924" stroke-width="1.5" stroke-linecap="round" stroke-linejoin="round"/>
<rect x="21.0039" y="21.0038" width="10.0042" height="10.0042" rx="3" transform="rotate(180 21.0039 21.0038)" stroke="#161924" stroke-width="1.5" stroke-linecap="round" stroke-linejoin="round"/>
<path d="M7.99867 17.002H5.99783C4.34029 17.002 2.99658 15.6583 2.99658 14.0008V5.99747C2.99658 4.33992 4.34029 2.99622 5.99783 2.99622H18.0028C19.6604 2.99622 21.0041 4.33992 21.0041 5.99747V8.99872" stroke="#161924" stroke-width="1.5" stroke-linecap="round" stroke-linejoin="round"/>
</svg>
