<svg width="24" height="24" viewBox="0 0 24 24" fill="none" xmlns="http://www.w3.org/2000/svg">
<path d="M2.99658 5.49731V8.49856H5.99783" stroke="#161924" stroke-width="1.5" stroke-linecap="round" stroke-linejoin="round"/>
<path d="M3.05518 13.0004C3.56417 17.4947 7.33228 20.9115 11.8548 20.9797C16.3774 21.0478 20.2467 17.746 20.8909 13.2691C21.535 8.79209 18.7535 4.5334 14.3952 3.32374C10.0369 2.11407 5.45835 4.32995 3.70292 8.49848" stroke="#161924" stroke-width="1.5" stroke-linecap="round" stroke-linejoin="round"/>
<path fill-rule="evenodd" clip-rule="evenodd" d="M8.24854 10.4994V13.5007C8.24854 14.3294 8.92039 15.0013 9.74916 15.0013H14.251C15.0798 15.0013 15.7517 14.3294 15.7517 13.5007V10.4994C15.7517 9.67063 15.0798 8.99878 14.251 8.99878H9.74916C8.92039 8.99878 8.24854 9.67063 8.24854 10.4994Z" stroke="#161924" stroke-width="1.5" stroke-linecap="round" stroke-linejoin="round"/>
<path d="M15.7517 11.4998H8.24854" stroke="#161924" stroke-width="1.5" stroke-linecap="round" stroke-linejoin="round"/>
</svg>
