<svg width="24" height="24" viewBox="0 0 24 24" fill="none" xmlns="http://www.w3.org/2000/svg">
<path d="M13.0007 15.0012H2.99658" stroke="#161924" stroke-width="1.5" stroke-linecap="round" stroke-linejoin="round"/>
<path fill-rule="evenodd" clip-rule="evenodd" d="M10.9999 12H4.99742C3.89239 12 2.99658 12.8958 2.99658 14.0008V18.0025C2.99658 19.1075 3.89239 20.0033 4.99742 20.0033H10.9999C12.1049 20.0033 13.0007 19.1075 13.0007 18.0025V14.0008C13.0007 12.8958 12.1049 12 10.9999 12Z" stroke="#161924" stroke-width="1.5" stroke-linecap="round" stroke-linejoin="round"/>
<path d="M6.49805 2.49609L7.99867 3.99672L6.49805 5.49734" stroke="#161924" stroke-width="1.5" stroke-linecap="round" stroke-linejoin="round"/>
<path d="M7.99867 3.9967H5.99783C5.2019 3.99665 4.43855 4.31279 3.87571 4.87556C3.31286 5.43833 2.99663 6.20164 2.99658 6.99757V6.99795" stroke="#161924" stroke-width="1.5" stroke-linecap="round" stroke-linejoin="round"/>
<path d="M17.5026 21.5039L16.002 20.0033L17.5026 18.5027" stroke="#161924" stroke-width="1.5" stroke-linecap="round" stroke-linejoin="round"/>
<path d="M16.002 20.0033H18.0028C18.7987 20.0034 19.5621 19.6872 20.1249 19.1245C20.6878 18.5617 21.004 17.7984 21.004 17.0025V17.0021" stroke="#161924" stroke-width="1.5" stroke-linecap="round" stroke-linejoin="round"/>
<path d="M14.4492 10.5507L17.553 7.4469" stroke="#161924" stroke-width="1.5" stroke-linecap="round" stroke-linejoin="round"/>
<path d="M14.2509 7.3228C14.251 7.28142 14.2846 7.24798 14.326 7.24805C14.3674 7.24813 14.4009 7.2817 14.4009 7.32308C14.4009 7.36447 14.3674 7.39804 14.326 7.39812C14.2846 7.39819 14.251 7.36475 14.2509 7.32336V7.3228" stroke="#161924" stroke-width="1.5" stroke-linecap="round" stroke-linejoin="round"/>
<path d="M10.9995 8.99879V6.99795C10.9995 5.34041 12.3432 3.9967 14.0008 3.9967H18.0024C19.66 3.9967 21.0037 5.34041 21.0037 6.99795V10.9996C21.0037 12.6572 19.66 14.0009 18.0024 14.0009H16.0016" stroke="#161924" stroke-width="1.5" stroke-linecap="round" stroke-linejoin="round"/>
<path d="M17.7525 10.6747C17.7523 10.7161 17.7187 10.7495 17.6773 10.7494C17.6359 10.7494 17.6024 10.7158 17.6024 10.6744C17.6024 10.633 17.6359 10.5994 17.6773 10.5994C17.7187 10.5993 17.7523 10.6327 17.7525 10.6741V10.6747" stroke="#161924" stroke-width="1.5" stroke-linecap="round" stroke-linejoin="round"/>
</svg>
