<svg width="24" height="24" viewBox="0 0 24 24" fill="none" xmlns="http://www.w3.org/2000/svg">
<path d="M2.99658 7.99838H21.0041" stroke="#161924" stroke-width="1.5" stroke-linecap="round" stroke-linejoin="round"/>
<path d="M9.49909 12H6.99805" stroke="#161924" stroke-width="1.5" stroke-linecap="round" stroke-linejoin="round"/>
<path d="M9.9995 18.0025H5.99783C4.34029 18.0025 2.99658 16.6588 2.99658 15.0013V6.99795C2.99658 5.34041 4.34029 3.9967 5.99783 3.9967H18.0028C19.6604 3.9967 21.0041 5.34041 21.0041 6.99795V10.9996" stroke="#161924" stroke-width="1.5" stroke-linecap="round" stroke-linejoin="round"/>
<circle cx="17.0022" cy="17.002" r="4.00167" stroke="#161924" stroke-width="1.5" stroke-linecap="round" stroke-linejoin="round"/>
<path d="M15.9091 17.0019C15.9091 17.0295 15.8867 17.0519 15.8591 17.0519C15.8315 17.0519 15.8091 17.0295 15.8091 17.0019C15.8091 16.9743 15.8315 16.9519 15.8591 16.9519" stroke="#161924" stroke-width="1.5" stroke-linecap="round" stroke-linejoin="round"/>
<path d="M15.859 16.9519C15.8866 16.9519 15.909 16.9743 15.909 17.0019" stroke="#161924" stroke-width="1.5" stroke-linecap="round" stroke-linejoin="round"/>
<path d="M18.1957 17.0019C18.1957 17.0295 18.1733 17.0519 18.1457 17.0519C18.1181 17.0519 18.0957 17.0295 18.0957 17.0019C18.0957 16.9743 18.1181 16.9519 18.1457 16.9519" stroke="#161924" stroke-width="1.5" stroke-linecap="round" stroke-linejoin="round"/>
<path d="M18.1456 16.9519C18.1732 16.9519 18.1956 16.9743 18.1956 17.0019" stroke="#161924" stroke-width="1.5" stroke-linecap="round" stroke-linejoin="round"/>
</svg>
