<svg width="24" height="24" viewBox="0 0 24 24" fill="none" xmlns="http://www.w3.org/2000/svg">
<path d="M2.99658 6.99789H21.0041" stroke="#161924" stroke-width="1.5" stroke-linecap="round" stroke-linejoin="round"/>
<path d="M9.56912 10.9996H6.99805" stroke="#161924" stroke-width="1.5" stroke-linecap="round" stroke-linejoin="round"/>
<path d="M8.99908 17.002H5.99783C4.34014 17.002 2.99658 15.6585 2.99658 14.0008V5.99747C2.99658 4.33978 4.34014 2.99622 5.99783 2.99622H18.0028C19.6605 2.99622 21.0041 4.33978 21.0041 5.99747V9.99913" stroke="#161924" stroke-width="1.5" stroke-linecap="round" stroke-linejoin="round"/>
<path fill-rule="evenodd" clip-rule="evenodd" d="M14.9158 21.4179L13.5872 20.0893C13.2121 19.7142 13.001 19.205 13.001 18.6747V16.3308C13.001 15.8005 13.2121 15.2913 13.5872 14.9162L14.9158 13.5876C15.2909 13.2115 15.8001 13.0004 16.3304 13.0004H18.6743C19.2046 13.0004 19.7138 13.2115 20.0889 13.5866L21.4185 14.9162C21.7936 15.2913 22.0047 15.7995 22.0047 16.3308V18.6737C22.0047 19.2039 21.7936 19.7132 21.4185 20.0883L20.0889 21.4179C19.7148 21.793 19.2056 22.0041 18.6743 22.0041H16.3304C15.8001 22.0041 15.2909 21.793 14.9158 21.4179Z" stroke="#161924" stroke-width="1.5" stroke-linecap="round" stroke-linejoin="round"/>
<path d="M17.5036 17.3252V15.5704" stroke="#161924" stroke-width="1.5" stroke-linecap="round" stroke-linejoin="round"/>
<path d="M17.5026 19.26C17.4546 19.26 17.4156 19.299 17.4166 19.347C17.4166 19.395 17.4556 19.434 17.5036 19.434C17.5517 19.434 17.5897 19.395 17.5897 19.347C17.5897 19.299 17.5507 19.26 17.5026 19.26" stroke="#161924" stroke-width="1.5" stroke-linecap="round" stroke-linejoin="round"/>
</svg>
