<svg width="24" height="24" viewBox="0 0 24 24" fill="none" xmlns="http://www.w3.org/2000/svg">
<path d="M2.99609 6.99789H21.0036" stroke="#161924" stroke-width="1.5" stroke-linecap="round" stroke-linejoin="round"/>
<path d="M8.99861 10.9996H6.47656" stroke="#161924" stroke-width="1.5" stroke-linecap="round" stroke-linejoin="round"/>
<path d="M9.99901 17.002H5.99734C4.3398 17.002 2.99609 15.6583 2.99609 14.0008V5.99747C2.99609 4.33992 4.3398 2.99622 5.99734 2.99622H18.0023C19.6599 2.99622 21.0036 4.33992 21.0036 5.99747V10.9995" stroke="#161924" stroke-width="1.5" stroke-linecap="round" stroke-linejoin="round"/>
<path d="M13.001 14.0009H14.2595L15.2609 19.0029H20.308L21.0043 15.5015H14.5596" stroke="#161924" stroke-width="1.5" stroke-linecap="round" stroke-linejoin="round"/>
<path d="M19.8461 21.454C19.8461 21.4816 19.8237 21.504 19.7961 21.504C19.7685 21.504 19.7461 21.4816 19.7461 21.454C19.7461 21.4264 19.7684 21.404 19.796 21.4039C19.8093 21.4039 19.8221 21.4092 19.8315 21.4186C19.8409 21.428 19.8461 21.4407 19.8461 21.454" stroke="#161924" stroke-width="1.5" stroke-linecap="round" stroke-linejoin="round"/>
<path d="M15.8159 21.454C15.8158 21.4816 15.7934 21.504 15.7658 21.504C15.7382 21.504 15.7158 21.4816 15.7158 21.454C15.7158 21.4264 15.7382 21.404 15.7658 21.4039C15.7791 21.4039 15.7918 21.4092 15.8012 21.4186C15.8106 21.428 15.8159 21.4407 15.8159 21.454" stroke="#161924" stroke-width="1.5" stroke-linecap="round" stroke-linejoin="round"/>
</svg>
