<svg width="24" height="24" viewBox="0 0 24 24" fill="none" xmlns="http://www.w3.org/2000/svg">
<path d="M2.99609 6.99789H21.0036" stroke="#161924" stroke-width="1.5" stroke-linecap="round" stroke-linejoin="round"/>
<path d="M6.99776 17.002H5.99734C4.3398 17.002 2.99609 15.6583 2.99609 14.0008V5.99747C2.99609 4.33992 4.3398 2.99622 5.99734 2.99622H18.0023C19.6599 2.99622 21.0036 4.33992 21.0036 5.99747V8.99872" stroke="#161924" stroke-width="1.5" stroke-linecap="round" stroke-linejoin="round"/>
<path fill-rule="evenodd" clip-rule="evenodd" d="M11.7143 12H20.718C21.059 11.9997 21.3861 12.1349 21.6273 12.3758C21.8686 12.6167 22.0043 12.9436 22.0046 13.2845V19.7182C22.0046 20.4282 21.429 21.0038 20.719 21.0038H11.7143C11.0037 21.0038 10.4277 20.4277 10.4277 19.7172V13.2855C10.4283 12.5754 11.0041 12 11.7143 12Z" stroke="#161924" stroke-width="1.5" stroke-linecap="round" stroke-linejoin="round"/>
<path d="M13.9648 15.0012C13.9648 16.2444 14.9726 17.2522 16.2158 17.2522C17.4589 17.2522 18.4667 16.2444 18.4667 15.0012" stroke="#161924" stroke-width="1.5" stroke-linecap="round" stroke-linejoin="round"/>
</svg>
