<svg width="24" height="24" viewBox="0 0 24 24" fill="none" xmlns="http://www.w3.org/2000/svg">
<path d="M2.99658 6.99789H21.0041" stroke="#161924" stroke-width="1.5" stroke-linecap="round" stroke-linejoin="round"/>
<path d="M9.56912 10.9996H6.99805" stroke="#161924" stroke-width="1.5" stroke-linecap="round" stroke-linejoin="round"/>
<path d="M8.99908 17.002H5.99783C4.34014 17.002 2.99658 15.6585 2.99658 14.0008V5.99747C2.99658 4.33978 4.34014 2.99622 5.99783 2.99622H18.0028C19.6605 2.99622 21.0041 4.33978 21.0041 5.99747V9.99913" stroke="#161924" stroke-width="1.5" stroke-linecap="round" stroke-linejoin="round"/>
<path fill-rule="evenodd" clip-rule="evenodd" d="M13.5619 18.3086C13.2417 17.8234 13.2417 17.1832 13.5619 16.698C14.5523 15.2004 16.1069 14.0009 17.6626 14.0009C19.2182 14.0009 20.7719 15.2004 21.7633 16.697C22.0844 17.1822 22.0844 17.8234 21.7633 18.3076C20.7709 19.8043 19.2172 21.0038 17.6626 21.0038C16.1069 21.0048 14.5523 19.8053 13.5619 18.3086Z" stroke="#161924" stroke-width="1.5" stroke-linecap="round" stroke-linejoin="round"/>
<path d="M17.7789 17.3862C17.8439 17.4512 17.8439 17.5553 17.7789 17.6203C17.7139 17.6853 17.6098 17.6853 17.5448 17.6203C17.4798 17.5553 17.4798 17.4512 17.5448 17.3862C17.6098 17.3212 17.7149 17.3212 17.7789 17.3862" stroke="#161924" stroke-width="1.5" stroke-linecap="round" stroke-linejoin="round"/>
</svg>
