<svg width="24" height="24" viewBox="0 0 24 24" fill="none" xmlns="http://www.w3.org/2000/svg">
<path d="M17 19H19" stroke="#161924" stroke-width="1.5" stroke-linecap="round" stroke-linejoin="round"/>
<path fill-rule="evenodd" clip-rule="evenodd" d="M1.84619 3V8C1.84619 8.552 2.29419 9 2.84619 9H10.0002C10.5522 9 11.0002 8.552 11.0002 8V3C11.0002 2.448 10.5522 2 10.0002 2H2.84619C2.29419 2 1.84619 2.448 1.84619 3Z" stroke="#161924" stroke-width="1.5" stroke-linecap="round" stroke-linejoin="round"/>
<path d="M11 5H2" stroke="#161924" stroke-width="1.5" stroke-linecap="round" stroke-linejoin="round"/>
<path fill-rule="evenodd" clip-rule="evenodd" d="M20 22H16C14.895 22 14 21.105 14 20V12C14 10.895 14.895 10 16 10H20C21.105 10 22 10.895 22 12V20C22 21.105 21.105 22 20 22Z" stroke="#161924" stroke-width="1.5" stroke-linecap="round" stroke-linejoin="round"/>
<path d="M10 19H6C4.895 19 4 18.105 4 17V13" stroke="#161924" stroke-width="1.5" stroke-linecap="round" stroke-linejoin="round"/>
<path d="M16 3H18C19.105 3 20 3.895 20 5V7" stroke="#161924" stroke-width="1.5" stroke-linecap="round" stroke-linejoin="round"/>
</svg>
