<svg width="24" height="24" viewBox="0 0 24 24" fill="none" xmlns="http://www.w3.org/2000/svg">
<path d="M15.8299 16.34L6.85986 7.37" stroke="#161924" stroke-width="1.5" stroke-linecap="round" stroke-linejoin="round"/>
<path fill-rule="evenodd" clip-rule="evenodd" d="M20 21H4C3.448 21 3 20.552 3 20V18C3 17.448 3.448 17 4 17H20C20.552 17 21 17.448 21 18V20C21 20.552 20.552 21 20 21Z" stroke="#161924" stroke-width="1.5" stroke-linecap="round" stroke-linejoin="round"/>
<path d="M17 7V3" stroke="#161924" stroke-width="1.5" stroke-linecap="round" stroke-linejoin="round"/>
<path d="M14 3V5" stroke="#161924" stroke-width="1.5" stroke-linecap="round" stroke-linejoin="round"/>
<path d="M15.168 17L16.579 15.589C17.405 14.763 17.405 13.425 16.579 12.599L10.599 6.61901C9.77301 5.79301 8.43501 5.79301 7.60901 6.61901L4.61901 9.60901C3.79301 10.435 3.79301 11.773 4.61901 12.599L9.02001 17" stroke="#161924" stroke-width="1.5" stroke-linecap="round" stroke-linejoin="round"/>
</svg>
