<svg width="24" height="24" viewBox="0 0 24 24" fill="none" xmlns="http://www.w3.org/2000/svg">
<path d="M3 8H21" stroke="#161924" stroke-width="1.5" stroke-linecap="round" stroke-linejoin="round"/>
<path d="M9.5 12H7" stroke="#161924" stroke-width="1.5" stroke-linecap="round" stroke-linejoin="round"/>
<path d="M9 18H6C4.343 18 3 16.657 3 15V7C3 5.343 4.343 4 6 4H18C19.657 4 21 5.343 21 7V11" stroke="#161924" stroke-width="1.5" stroke-linecap="round" stroke-linejoin="round"/>
<path fill-rule="evenodd" clip-rule="evenodd" d="M13.083 19.767L12.939 18.682C12.939 18.682 12.939 18.682 12.939 18.681L12.274 17.811C11.908 17.332 11.908 16.667 12.274 16.188L12.939 15.318C12.939 15.318 12.939 15.318 12.939 15.317L13.084 14.231C13.164 13.633 13.634 13.163 14.232 13.083L15.317 12.939C15.317 12.939 15.317 12.939 15.318 12.939L16.188 12.274C16.667 11.908 17.332 11.908 17.811 12.274L18.681 12.939C18.681 12.939 18.681 12.939 18.682 12.939L19.768 13.084C20.366 13.164 20.836 13.634 20.916 14.232L21.06 15.317C21.06 15.317 21.06 15.317 21.06 15.318L21.725 16.188C22.091 16.667 22.091 17.332 21.725 17.811L21.06 18.681C21.06 18.681 21.06 18.681 21.06 18.682L20.915 19.768C20.835 20.366 20.365 20.836 19.767 20.916L18.682 21.06C18.682 21.06 18.682 21.06 18.681 21.06L17.811 21.725C17.332 22.091 16.667 22.091 16.188 21.725L15.318 21.06C15.318 21.06 15.318 21.06 15.317 21.06L14.231 20.915C13.634 20.837 13.163 20.365 13.083 19.767V19.767Z" stroke="#161924" stroke-width="1.5" stroke-linecap="round" stroke-linejoin="round"/>
<path d="M18.5558 16.222L16.6108 18.167L15.4438 17" stroke="#161924" stroke-width="1.5" stroke-linecap="round" stroke-linejoin="round"/>
</svg>
