<svg width="24" height="24" viewBox="0 0 24 24" fill="none" xmlns="http://www.w3.org/2000/svg">
<path d="M3 8H21" stroke="#161924" stroke-width="1.5" stroke-linecap="round" stroke-linejoin="round"/>
<path d="M7 12.91H10" stroke="#161924" stroke-width="1.5" stroke-linecap="round" stroke-linejoin="round"/>
<path d="M10 17H5C3.895 17 3 16.105 3 15V6C3 4.895 3.895 4 5 4H19C20.105 4 21 4.895 21 6V11" stroke="#161924" stroke-width="1.5" stroke-linecap="round" stroke-linejoin="round"/>
<path fill-rule="evenodd" clip-rule="evenodd" d="M13.5618 18.306C13.2418 17.821 13.2418 17.181 13.5618 16.696C14.5518 15.199 16.1058 14 17.6608 14C19.2158 14 20.7688 15.199 21.7598 16.695C22.0808 17.18 22.0808 17.821 21.7598 18.305C20.7678 19.801 19.2148 21 17.6608 21C16.1058 21.001 14.5518 19.802 13.5618 18.306Z" stroke="#161924" stroke-width="1.5" stroke-linecap="round" stroke-linejoin="round"/>
<path d="M17.7772 17.384C17.8422 17.449 17.8422 17.553 17.7772 17.618C17.7122 17.683 17.6082 17.683 17.5432 17.618C17.4782 17.553 17.4782 17.449 17.5432 17.384C17.6082 17.319 17.7132 17.319 17.7772 17.384" stroke="#161924" stroke-width="1.5" stroke-linecap="round" stroke-linejoin="round"/>
</svg>
