<svg width="24" height="24" viewBox="0 0 24 24" fill="none" xmlns="http://www.w3.org/2000/svg">
<path d="M15 13.1818V17.7501C15 18.9927 13.9927 20 12.7501 20H5.24993C4.65338 20.0002 4.08119 19.7633 3.65925 19.3416C3.2373 18.9199 3.00016 18.3479 3 17.7513V13.2499C2.99984 12.6534 3.23666 12.0812 3.65837 11.6592C4.08008 11.2373 4.65214 11.0002 5.24869 11H9" stroke="#161924" stroke-width="1.5" stroke-linecap="round" stroke-linejoin="round"/>
<path fill-rule="evenodd" clip-rule="evenodd" d="M11.2499 12.9997H18.7501C19.9927 12.9997 21 11.9924 21 10.7498V6.24993C21 5.00733 19.9927 4 18.7501 4H11.2499C10.6532 4 10.0809 4.23705 9.65899 4.65899C9.23705 5.08093 9 5.65321 9 6.24993V10.7498C9 11.9924 10.0073 12.9997 11.2499 12.9997Z" stroke="#161924" stroke-width="1.5" stroke-linecap="round" stroke-linejoin="round"/>
<path d="M21 18L18 21" stroke="#161924" stroke-width="1.5" stroke-linecap="round" stroke-linejoin="round"/>
<path d="M21 21V18H18" stroke="#161924" stroke-width="1.5" stroke-linecap="round" stroke-linejoin="round"/>
<path d="M3 6L6 3" stroke="#161924" stroke-width="1.5" stroke-linecap="round" stroke-linejoin="round"/>
<path d="M3 3V6H6" stroke="#161924" stroke-width="1.5" stroke-linecap="round" stroke-linejoin="round"/>
<path d="M21 8H9" stroke="#161924" stroke-width="1.5" stroke-linecap="round" stroke-linejoin="round"/>
<path d="M6 17H8" stroke="#161924" stroke-width="1.5" stroke-linecap="round" stroke-linejoin="round"/>
</svg>
