<svg width="24" height="24" viewBox="0 0 24 24" fill="none" xmlns="http://www.w3.org/2000/svg">
<path fill-rule="evenodd" clip-rule="evenodd" d="M21.0041 18.5027H18.0029C17.4503 18.5027 17.0024 18.9506 17.0024 19.5031V21.0037C17.0024 21.5562 17.4503 22.0041 18.0029 22.0041H21.0041C21.5566 22.0041 22.0045 21.5562 22.0045 21.0037V19.5031C22.0045 18.9506 21.5566 18.5027 21.0041 18.5027Z" stroke="#161924" stroke-width="1.5" stroke-linecap="round" stroke-linejoin="round"/>
<path d="M21.0037 18.5027V17.0021C21.0037 16.1733 20.3318 15.5015 19.5031 15.5015V15.5015C18.6743 15.5015 18.0024 16.1733 18.0024 17.0021V18.5027" stroke="#161924" stroke-width="1.5" stroke-linecap="round" stroke-linejoin="round"/>
<path fill-rule="evenodd" clip-rule="evenodd" d="M8.24854 10.4994V13.5007C8.24854 14.3294 8.92039 15.0013 9.74916 15.0013H14.251C15.0798 15.0013 15.7517 14.3294 15.7517 13.5007V10.4994C15.7517 9.67063 15.0798 8.99878 14.251 8.99878H9.74916C8.92039 8.99878 8.24854 9.67063 8.24854 10.4994Z" stroke="#161924" stroke-width="1.5" stroke-linecap="round" stroke-linejoin="round"/>
<path d="M13.132 20.9233C12.7569 20.9748 12.3788 21.0017 12.0001 21.0037C8.35843 21.0037 5.07534 18.81 3.68173 15.4456C2.28812 12.0811 3.05844 8.20843 5.63349 5.63337C8.20855 3.05832 12.0812 2.288 15.4457 3.6816C18.8102 5.07521 21.0039 8.35831 21.0039 12" stroke="#161924" stroke-width="1.5" stroke-linecap="round" stroke-linejoin="round"/>
<path d="M15.7517 11.4998H8.24854" stroke="#161924" stroke-width="1.5" stroke-linecap="round" stroke-linejoin="round"/>
</svg>
