<svg width="24" height="24" viewBox="0 0 24 24" fill="none" xmlns="http://www.w3.org/2000/svg">
<rect x="16" y="18" width="6" height="4" rx="1.25" stroke="#161924" stroke-width="1.5" stroke-linecap="round" stroke-linejoin="round"/>
<path d="M17.25 18V16.75C17.25 15.7835 18.0335 15 19 15V15C19.9665 15 20.75 15.7835 20.75 16.75V18" stroke="#161924" stroke-width="1.5" stroke-linecap="round" stroke-linejoin="round"/>
<path fill-rule="evenodd" clip-rule="evenodd" d="M8.25 9.5V12.5C8.25 13.3284 8.92157 14 9.75 14H14.25C15.0784 14 15.75 13.3284 15.75 12.5V9.5C15.75 8.67157 15.0784 8 14.25 8H9.75C9.35218 8 8.97064 8.15804 8.68934 8.43934C8.40804 8.72064 8.25 9.10218 8.25 9.5Z" stroke="#161924" stroke-width="1.5" stroke-linecap="round" stroke-linejoin="round"/>
<path d="M15.75 10.5H8.25" stroke="#161924" stroke-width="1.5" stroke-linecap="round" stroke-linejoin="round"/>
<path d="M12 20C7.02944 20 3 15.9706 3 11C3 6.02944 7.02944 2 12 2C16.9706 2 21 6.02944 21 11" stroke="#161924" stroke-width="1.5" stroke-linecap="round" stroke-linejoin="round"/>
</svg>
