<svg width="24" height="24" viewBox="0 0 24 24" fill="none" xmlns="http://www.w3.org/2000/svg">
<path d="M7.67 8H5C3.895 8 3 8.895 3 10V19C3 20.105 3.895 21 5 21H19C20.105 21 21 20.105 21 19V10C21 8.895 20.105 8 19 8H16.33" stroke="#161924" stroke-width="1.5" stroke-linecap="round" stroke-linejoin="round"/>
<path d="M12 11.75C9.584 11.75 7.625 9.791 7.625 7.375C7.625 4.959 9.584 3 12 3C14.417 3 16.375 4.959 16.375 7.375C16.375 9.791 14.417 11.75 12 11.75" stroke="#161924" stroke-width="1.5" stroke-linecap="round" stroke-linejoin="round"/>
<path d="M13.6112 6.57001L11.5972 8.58401L10.3892 7.37501" stroke="#161924" stroke-width="1.5" stroke-linecap="round" stroke-linejoin="round"/>
<path d="M7 17H11" stroke="#161924" stroke-width="1.5" stroke-linecap="round" stroke-linejoin="round"/>
</svg>
