<svg width="24" height="24" viewBox="0 0 24 24" fill="none" xmlns="http://www.w3.org/2000/svg">
<path d="M17 21C14.239 21 12 18.762 12 16.001C12 13.296 14.3 10.998 17.005 11C19.764 11.002 22 13.24 22 16C22 18.761 19.762 21 17 21" stroke="#161924" stroke-width="1.5" stroke-linecap="round" stroke-linejoin="round"/>
<path d="M2 6.84998H21" stroke="#161924" stroke-width="1.5" stroke-linecap="round" stroke-linejoin="round"/>
<path d="M21 13V5C21 3.895 20.105 3 19 3H4C2.895 3 2 3.895 2 5V14C2 15.105 2.895 16 4 16H12" stroke="#161924" stroke-width="1.5" stroke-linecap="round" stroke-linejoin="round"/>
<path fill-rule="evenodd" clip-rule="evenodd" d="M18.5502 18.062H15.4502C15.1742 18.062 14.9502 17.838 14.9502 17.562V16.312C14.9502 16.036 15.1742 15.812 15.4502 15.812H18.5502C18.8262 15.812 19.0502 16.036 19.0502 16.312V17.562C19.0502 17.839 18.8262 18.062 18.5502 18.062Z" stroke="#161924" stroke-width="1.5" stroke-linecap="round" stroke-linejoin="round"/>
<path d="M15.75 15.812V14.687C15.75 13.997 16.31 13.437 17 13.437V13.437C17.69 13.437 18.25 13.997 18.25 14.687V15.812" stroke="#161924" stroke-width="1.5" stroke-linecap="round" stroke-linejoin="round"/>
</svg>
