<svg width="24" height="24" viewBox="0 0 24 24" fill="none" xmlns="http://www.w3.org/2000/svg">
<path d="M7.66853 7.99829H4.99742C3.89195 7.99829 2.99658 8.89366 2.99658 9.99912V19.0029C2.99658 20.1083 3.89195 21.0037 4.99742 21.0037H19.0032C20.1087 21.0037 21.0041 20.1083 21.0041 19.0029V9.99912C21.0041 8.89366 20.1087 7.99829 19.0032 7.99829H16.3321" stroke="#161924" stroke-width="1.5" stroke-linecap="round" stroke-linejoin="round"/>
<path d="M6.99805 17.002H10.9997" stroke="#161924" stroke-width="1.5" stroke-linecap="round" stroke-linejoin="round"/>
<path fill-rule="evenodd" clip-rule="evenodd" d="M16.3772 7.37304C16.3772 9.79605 14.4234 11.7499 12.0004 11.7499C9.57735 11.7499 7.62354 9.79605 7.62354 7.37304C7.62354 4.95003 9.57735 2.99622 12.0004 2.99622C14.4234 2.99622 16.3772 4.95003 16.3772 7.37304Z" stroke="#161924" stroke-width="1.5" stroke-linecap="round" stroke-linejoin="round"/>
<path d="M8.90625 10.4674L15.0938 4.27979" stroke="#161924" stroke-width="1.5" stroke-linecap="round" stroke-linejoin="round"/>
</svg>
