<svg width="24" height="24" viewBox="0 0 24 24" fill="none" xmlns="http://www.w3.org/2000/svg">
<path fill-rule="evenodd" clip-rule="evenodd" d="M11.0555 13H4.94444C3.87056 13 3.00001 13.8706 3 14.9444V19.0556C3.00001 20.1294 3.87056 21 4.94444 21H11.0555C12.1294 21 13 20.1294 13 19.0556V14.9444C13 13.8706 12.1294 13 11.0555 13V13Z" stroke="#161924" stroke-width="1.5" stroke-linecap="round" stroke-linejoin="round"/>
<path d="M2.5 6.5L4 8L5.5 6.5" stroke="#161924" stroke-width="1.5" stroke-linecap="round" stroke-linejoin="round"/>
<path d="M4 8V5.99962C4.00001 4.34298 5.34298 3.00001 6.99962 3H7" stroke="#161924" stroke-width="1.5" stroke-linecap="round" stroke-linejoin="round"/>
<path d="M21.4995 16.5L19.9995 15L18.4995 16.5" stroke="#161924" stroke-width="1.5" stroke-linecap="round" stroke-linejoin="round"/>
<path d="M19.9995 15V17.0004C19.9995 18.657 18.6565 20 16.9999 20H16.9995" stroke="#161924" stroke-width="1.5" stroke-linecap="round" stroke-linejoin="round"/>
<path d="M13 16.0001L3 15.9999" stroke="#161924" stroke-width="1.5" stroke-linecap="round" stroke-linejoin="round"/>
<path fill-rule="evenodd" clip-rule="evenodd" d="M19.0555 2H12.9444C11.8706 2.00001 11 2.87056 11 3.94444V8.05556C11 9.12944 11.8706 9.99999 12.9444 10H19.0555C20.1294 10 21 9.12945 21 8.05556V3.94444C21 2.87055 20.1294 2 19.0555 2Z" stroke="#161924" stroke-width="1.5" stroke-linecap="round" stroke-linejoin="round"/>
<path d="M21 5.00005L11 4.99995" stroke="#161924" stroke-width="1.5" stroke-linecap="round" stroke-linejoin="round"/>
</svg>
