<svg width="24" height="24" viewBox="0 0 24 24" fill="none" xmlns="http://www.w3.org/2000/svg">
<path d="M12.6898 9.64321C13.9914 10.9448 13.9914 13.0552 12.6898 14.3568C11.3882 15.6584 9.27782 15.6584 7.97622 14.3568C6.67459 13.0552 6.67459 10.9448 7.97622 9.64321C9.27784 8.34159 11.3882 8.34159 12.6898 9.64321" stroke="#161924" stroke-width="1.5" stroke-linecap="round" stroke-linejoin="round"/>
<path d="M16.0238 9.64321C17.3254 10.9448 17.3254 13.0552 16.0238 14.3568C14.7221 15.6584 12.6118 15.6584 11.3102 14.3568C10.0086 13.0552 10.0086 10.9448 11.3102 9.64321C12.6118 8.34159 14.7222 8.34159 16.0238 9.64321" stroke="#161924" stroke-width="1.5" stroke-linecap="round" stroke-linejoin="round"/>
<path fill-rule="evenodd" clip-rule="evenodd" d="M19 19H5C3.343 19 2 17.657 2 16V8C2 6.343 3.343 5 5 5H19C20.657 5 22 6.343 22 8V16C22 17.657 20.657 19 19 19Z" stroke="#161924" stroke-width="1.5" stroke-linecap="round" stroke-linejoin="round"/>
</svg>
