<svg width="24" height="24" viewBox="0 0 24 24" fill="none" xmlns="http://www.w3.org/2000/svg">
<path fill-rule="evenodd" clip-rule="evenodd" d="M9.99951 12C9.99951 12.8288 10.6714 13.5007 11.5001 13.5007H15.5018C16.3306 13.5007 17.0024 12.8288 17.0024 12V8.99879C17.0024 8.17002 16.3306 7.49817 15.5018 7.49817H11.5001C10.6714 7.49817 9.99951 8.17002 9.99951 8.99879V12Z" stroke="#161924" stroke-width="1.5" stroke-linecap="round" stroke-linejoin="round"/>
<path d="M17.0022 10.4994H8.49867C7.6699 10.4994 6.99805 11.1712 6.99805 12V15.0013V15.0013C6.99805 15.83 7.6699 16.5019 8.49867 16.5019H12.5003C13.3291 16.5019 14.001 15.83 14.001 15.0013V13.5006" stroke="#161924" stroke-width="1.5" stroke-linecap="round" stroke-linejoin="round"/>
<path d="M5.63337 5.63328C7.92216 3.30504 11.292 2.39822 14.4401 3.26339C17.5882 4.12856 20.0214 6.63013 20.7989 9.80105C21.5764 12.972 20.5764 16.3153 18.1856 18.5387C14.6981 21.7685 9.31264 21.7716 5.82145 18.5457C4.0525 16.8759 3.03443 14.5615 2.999 12.1292C2.96358 9.69694 3.9138 7.35383 5.63337 5.63328" stroke="#161924" stroke-width="1.5" stroke-linecap="round" stroke-linejoin="round"/>
</svg>
