<svg width="24" height="24" viewBox="0 0 24 24" fill="none" xmlns="http://www.w3.org/2000/svg">
<path d="M12 11H16.2918C16.7575 11 17.2169 11.1084 17.6334 11.3167L18.2186 11.6093C18.7289 11.8645 19.1559 12.2599 19.4495 12.7491L22 17" stroke="#161924" stroke-width="1.5" stroke-linecap="round" stroke-linejoin="round"/>
<path d="M17 22L14.2486 20.942C13.4383 20.6304 12.7513 20.0636 12.2914 19.3272L9.24268 14.4452C8.84854 13.814 8.94205 12.9943 9.46822 12.4682V12.4682C9.77848 12.1579 10.2026 11.9888 10.6412 12.0006C11.0798 12.0123 11.4943 12.2038 11.7876 12.5302L14.0068 15H16" stroke="#161924" stroke-width="1.5" stroke-linecap="round" stroke-linejoin="round"/>
<path d="M17 5H21" stroke="#161924" stroke-width="1.5" stroke-linecap="round" stroke-linejoin="round"/>
<path d="M18 3L16 5" stroke="#161924" stroke-width="1.5" stroke-linecap="round" stroke-linejoin="round"/>
<path d="M18 7L16 5" stroke="#161924" stroke-width="1.5" stroke-linecap="round" stroke-linejoin="round"/>
<path d="M12 12.7666V6.5C12 5.83696 11.7366 5.20107 11.2678 4.73223C10.7989 4.26339 10.163 4 9.5 4H4.5C3.11929 4 2 5.11929 2 6.5V15.5C2 16.8807 3.11929 18 4.5 18H11.4626" stroke="#161924" stroke-width="1.5" stroke-linecap="round" stroke-linejoin="round"/>
<path d="M5.5 18V4" stroke="#161924" stroke-width="1.5" stroke-linecap="round" stroke-linejoin="round"/>
</svg>
