<svg width="24" height="24" viewBox="0 0 24 24" fill="none" xmlns="http://www.w3.org/2000/svg">
<path d="M3 8H21" stroke="#161924" stroke-width="1.5" stroke-linecap="round" stroke-linejoin="round"/>
<path d="M8.99952 12H6.47852" stroke="#161924" stroke-width="1.5" stroke-linecap="round" stroke-linejoin="round"/>
<path d="M9 18H6C4.34315 18 3 16.6569 3 15V7C3 5.34315 4.34315 4 6 4H18C19.6569 4 21 5.34315 21 7V11" stroke="#161924" stroke-width="1.5" stroke-linecap="round" stroke-linejoin="round"/>
<path d="M13 14H14.258L15.259 19H20.304L21 15.5H14.558" stroke="#161924" stroke-width="1.5" stroke-linecap="round" stroke-linejoin="round"/>
<path d="M19.8285 21.4147C19.8479 21.4343 19.8478 21.4659 19.8283 21.4854C19.8087 21.5048 19.7771 21.5048 19.7576 21.4853C19.7381 21.4658 19.7381 21.4342 19.7575 21.4147C19.777 21.3951 19.8086 21.395 19.8282 21.4145L19.8285 21.4147" stroke="#161924" stroke-width="1.5" stroke-linecap="round" stroke-linejoin="round"/>
<path d="M15.8001 21.4147C15.8196 21.4343 15.8195 21.4659 15.7999 21.4854C15.7804 21.5048 15.7488 21.5048 15.7293 21.4853C15.7098 21.4658 15.7098 21.4342 15.7292 21.4147C15.7487 21.3951 15.7803 21.395 15.7999 21.4145L15.8001 21.4147" stroke="#161924" stroke-width="1.5" stroke-linecap="round" stroke-linejoin="round"/>
</svg>
