<svg width="24" height="24" viewBox="0 0 24 24" fill="none" xmlns="http://www.w3.org/2000/svg">
<circle cx="16.0017" cy="5.99752" r="4.00167" stroke="#161924" stroke-width="1.5" stroke-linecap="round" stroke-linejoin="round"/>
<path d="M21.004 10.9996L18.8311 8.82666" stroke="#161924" stroke-width="1.5" stroke-linecap="round" stroke-linejoin="round"/>
<path d="M15.0015 21.0037H18.0027C19.6603 21.0037 21.004 19.66 21.004 18.0025V15.0012" stroke="#161924" stroke-width="1.5" stroke-linecap="round" stroke-linejoin="round"/>
<path d="M2.99658 9.9992V6.99795C2.99658 5.34041 4.34029 3.9967 5.99783 3.9967H7.99867" stroke="#161924" stroke-width="1.5" stroke-linecap="round" stroke-linejoin="round"/>
<path fill-rule="evenodd" clip-rule="evenodd" d="M2.99658 15.6015V19.203C2.99658 20.1975 3.80284 21.0037 4.79733 21.0038H10.1996C11.1941 21.0037 12.0003 20.1975 12.0003 19.203V15.6015C12.0003 14.607 11.1941 13.8009 10.1996 13.8008H4.79733C3.80284 13.8009 2.99658 14.607 2.99658 15.6015Z" stroke="#161924" stroke-width="1.5" stroke-linecap="round" stroke-linejoin="round"/>
<path d="M12.0003 17.002H2.99658" stroke="#161924" stroke-width="1.5" stroke-linecap="round" stroke-linejoin="round"/>
</svg>
