<svg width="24" height="24" viewBox="0 0 24 24" fill="none" xmlns="http://www.w3.org/2000/svg">
<path d="M4 9.00005L3 8.99995" stroke="#161924" stroke-width="1.5" stroke-linecap="round" stroke-linejoin="round"/>
<path d="M4 15.0001L3 14.9999" stroke="#161924" stroke-width="1.5" stroke-linecap="round" stroke-linejoin="round"/>
<path d="M3.99998 12H2" stroke="#161924" stroke-width="1.5" stroke-linecap="round" stroke-linejoin="round"/>
<path d="M5.23682 5.28253C7.95379 2.56554 12.0399 1.75276 15.5898 3.22317C19.1397 4.69359 21.4543 8.15764 21.4543 12C21.4543 15.8424 19.1397 19.3065 15.5898 20.7769C12.0399 22.2473 7.95379 21.4345 5.23682 18.7175" stroke="#161924" stroke-width="1.5" stroke-linecap="round" stroke-linejoin="round"/>
<path fill-rule="evenodd" clip-rule="evenodd" d="M7.5 10.5V13.5C7.5 14.6046 8.39543 15.5 9.5 15.5H14.5C15.6046 15.5 16.5 14.6046 16.5 13.5V10.5C16.5 9.39543 15.6046 8.5 14.5 8.5H9.5C8.39543 8.5 7.5 9.39543 7.5 10.5Z" stroke="#161924" stroke-width="1.5" stroke-linecap="round" stroke-linejoin="round"/>
<path d="M16.5 11.5H7.5" stroke="#161924" stroke-width="1.5" stroke-linecap="round" stroke-linejoin="round"/>
</svg>
