<svg width="24" height="24" viewBox="0 0 24 24" fill="none" xmlns="http://www.w3.org/2000/svg">
<path d="M3 7H21" stroke="#161924" stroke-width="1.5" stroke-linecap="round" stroke-linejoin="round"/>
<path d="M17 22C14.239 22 12 19.761 12 17C12 14.239 14.239 12 17 12C19.762 12 22 14.239 22 17C22 19.761 19.762 22 17 22" stroke="#161924" stroke-width="1.5" stroke-linecap="round" stroke-linejoin="round"/>
<path d="M17 14.778V15.522" stroke="#161924" stroke-width="1.5" stroke-linecap="round" stroke-linejoin="round"/>
<path d="M17 18.478V19.222" stroke="#161924" stroke-width="1.5" stroke-linecap="round" stroke-linejoin="round"/>
<path d="M15.0779 15.889L15.7219 16.256" stroke="#161924" stroke-width="1.5" stroke-linecap="round" stroke-linejoin="round"/>
<path d="M18.289 17.744L18.922 18.111" stroke="#161924" stroke-width="1.5" stroke-linecap="round" stroke-linejoin="round"/>
<path d="M15.0779 18.111L15.7219 17.744" stroke="#161924" stroke-width="1.5" stroke-linecap="round" stroke-linejoin="round"/>
<path d="M18.289 16.256L18.922 15.889" stroke="#161924" stroke-width="1.5" stroke-linecap="round" stroke-linejoin="round"/>
<path d="M17.0001 15.518C17.8191 15.518 18.4821 16.182 18.4821 17C18.4821 17.818 17.8191 18.482 17.0001 18.482C16.1811 18.482 15.5181 17.819 15.5181 17C15.5181 16.181 16.1811 15.518 17.0001 15.518" stroke="#161924" stroke-width="1.5" stroke-linecap="round" stroke-linejoin="round"/>
<path d="M9.57 11H7" stroke="#161924" stroke-width="1.5" stroke-linecap="round" stroke-linejoin="round"/>
<path d="M9 17H6C4.343 17 3 15.657 3 14V6C3 4.343 4.343 3 6 3H18C19.657 3 21 4.343 21 6V10" stroke="#161924" stroke-width="1.5" stroke-linecap="round" stroke-linejoin="round"/>
</svg>
