<svg width="24" height="24" viewBox="0 0 24 24" fill="none" xmlns="http://www.w3.org/2000/svg">
<path d="M6.99792 14.5012C6.99792 15.0537 7.44583 15.5016 7.99834 15.5016H16.0017C16.5542 15.5016 17.0021 15.0537 17.0021 14.5012" stroke="#161924" stroke-width="1.5" stroke-linecap="round" stroke-linejoin="round"/>
<path d="M6.99792 14.501V9.53185C6.99792 9.34738 7.09947 9.17788 7.26212 9.09085C7.42476 9.00381 7.62211 9.01335 7.7756 9.11567L9.99917 10.598L11.5838 8.22104C11.6766 8.08188 11.8328 7.99829 12 7.99829C12.1673 7.99829 12.3235 8.08188 12.4162 8.22104L14.0008 10.598L16.2244 9.11565C16.3779 9.01333 16.5753 9.00379 16.7379 9.09083C16.9006 9.17787 17.0021 9.34737 17.0021 9.53185V14.501" stroke="#161924" stroke-width="1.5" stroke-linecap="round" stroke-linejoin="round"/>
<circle cx="12" cy="12.0001" r="9.00375" stroke="#161924" stroke-width="1.5" stroke-linecap="round" stroke-linejoin="round"/>
</svg>
