<svg width="24" height="24" viewBox="0 0 24 24" fill="none" xmlns="http://www.w3.org/2000/svg">
<path d="M11.9981 8.99599C10.4931 8.99599 9.26807 7.77999 9.26807 6.26599" stroke="#161924" stroke-width="1.5" stroke-linecap="round" stroke-linejoin="round"/>
<path d="M9.26709 6.26599C9.26709 5.07599 9.81009 4.21799 10.9031 4.21799" stroke="#161924" stroke-width="1.5" stroke-linecap="round" stroke-linejoin="round"/>
<path d="M11.998 8.99599C13.512 8.99599 14.737 7.77999 14.737 6.26599" stroke="#161924" stroke-width="1.5" stroke-linecap="round" stroke-linejoin="round"/>
<path d="M14.7358 6.26599C14.7358 5.07599 14.1848 4.21799 13.0908 4.21799" stroke="#161924" stroke-width="1.5" stroke-linecap="round" stroke-linejoin="round"/>
<path d="M13.0908 4.21899C12.5478 4.21899 12.2328 4.39399 11.9968 4.39399C11.7608 4.39399 11.4538 4.21899 10.9028 4.21899" stroke="#161924" stroke-width="1.5" stroke-linecap="round" stroke-linejoin="round"/>
<path d="M12 4.392V3.4C12 2.627 12.627 2 13.4 2" stroke="#161924" stroke-width="1.5" stroke-linecap="round" stroke-linejoin="round"/>
<path d="M9.275 6.37201C6.201 7.22401 4 9.46901 4 12.113V12.182C4 13.496 4.872 14.7 6.139 14.948C7.112 15.138 8.015 14.789 8.611 14.143C9.013 13.707 9.673 13.738 10.081 14.169C10.565 14.681 11.246 15 12 15C12.754 15 13.435 14.681 13.92 14.169C14.328 13.738 14.987 13.707 15.39 14.143C15.986 14.789 16.889 15.138 17.862 14.948C19.128 14.701 20 13.497 20 12.183V12.114C20 9.47101 17.8 7.22601 14.727 6.37301" stroke="#161924" stroke-width="1.5" stroke-linecap="round" stroke-linejoin="round"/>
<path d="M17.855 14.949L17.191 19.302C17.042 20.278 16.202 21 15.214 21H8.78602C7.79802 21 6.95802 20.278 6.80902 19.302L6.14502 14.949" stroke="#161924" stroke-width="1.5" stroke-linecap="round" stroke-linejoin="round"/>
</svg>
