<svg width="24" height="24" viewBox="0 0 24 24" fill="none" xmlns="http://www.w3.org/2000/svg">
<path fill-rule="evenodd" clip-rule="evenodd" d="M17.25 13.5C15.188 13.5 13.5 15.188 13.5 17.25C13.5 19.312 15.188 21 17.25 21C19.312 21 21 19.312 21 17.25C21 16.409 20.716 15.632 20.243 15.005C19.558 14.094 18.471 13.5 17.25 13.5Z" stroke="#161924" stroke-width="1.5" stroke-linecap="round" stroke-linejoin="round"/>
<path d="M18.75 17.25H15.75" stroke="#161924" stroke-width="1.5" stroke-linecap="round" stroke-linejoin="round"/>
<path d="M17.25 18.75V15.75" stroke="#161924" stroke-width="1.5" stroke-linecap="round" stroke-linejoin="round"/>
<path d="M14.1889 8.48999L10.7699 11.91L8.48994 9.62999L6.21094 11.91" stroke="#161924" stroke-width="1.5" stroke-linecap="round" stroke-linejoin="round"/>
<path d="M17.4 13.5V4.92C17.4 3.86 16.54 3 15.48 3H4.92C3.86 3 3 3.86 3 4.92V15.48C3 16.54 3.86 17.4 4.92 17.4H13.5" stroke="#161924" stroke-width="1.5" stroke-linecap="round" stroke-linejoin="round"/>
</svg>
