<svg width="24" height="24" viewBox="0 0 24 24" fill="none" xmlns="http://www.w3.org/2000/svg">
<path d="M8.43634 15.3819C6.52069 13.4636 6.52176 10.3559 8.43874 8.43893C10.3557 6.52195 13.4634 6.52087 15.3817 8.43653" stroke="#161924" stroke-width="1.5" stroke-linecap="round" stroke-linejoin="round"/>
<circle cx="12" cy="12.0001" r="9.00375" stroke="#161924" stroke-width="1.5" stroke-linecap="round" stroke-linejoin="round"/>
<path fill-rule="evenodd" clip-rule="evenodd" d="M16.093 12.1331L11.2872 10.5312C11.0724 10.4596 10.8356 10.5155 10.6755 10.6756C10.5154 10.8357 10.4595 11.0725 10.5311 11.2873L12.133 16.0931C12.2069 16.3146 12.4029 16.4728 12.6349 16.4983C12.8669 16.5238 13.0926 16.4118 13.2127 16.2116L14.1835 14.5936C14.2845 14.4254 14.4253 14.2845 14.5936 14.1836L16.2116 13.2128C16.4117 13.0926 16.5237 12.867 16.4982 12.635C16.4727 12.4029 16.3145 12.207 16.093 12.1331V12.1331Z" stroke="#161924" stroke-width="1.5" stroke-linecap="round" stroke-linejoin="round"/>
<path d="M16.195 16.1951L14.3633 14.3633" stroke="#161924" stroke-width="1.5" stroke-linecap="round" stroke-linejoin="round"/>
</svg>
