<svg width="24" height="24" viewBox="0 0 24 24" fill="none" xmlns="http://www.w3.org/2000/svg">
<path fill-rule="evenodd" clip-rule="evenodd" d="M14.0742 19.6312V16.8741C14.0755 16.5214 14.2667 16.1969 14.5744 16.0247L17.0645 14.6241C17.3613 14.4581 17.723 14.4581 18.0199 14.6241L20.5099 16.0247C20.8181 16.1964 21.0094 16.5213 21.0101 16.8741V19.6312C21.0086 19.9838 20.8175 20.3082 20.5099 20.4806L18.0189 21.8811C17.7223 22.0482 17.36 22.0482 17.0635 21.8811L14.5734 20.4806C14.2658 20.3084 14.0749 19.9837 14.0742 19.6312V19.6312Z" stroke="#161924" stroke-width="1.5" stroke-linecap="round" stroke-linejoin="round"/>
<path d="M17.5393 18.2516V22.0041" stroke="#161924" stroke-width="1.5" stroke-linecap="round" stroke-linejoin="round"/>
<path d="M14.209 16.3818L17.5404 18.2516L20.8718 16.3818" stroke="#161924" stroke-width="1.5" stroke-linecap="round" stroke-linejoin="round"/>
<path d="M3.99609 20.0033C3.99609 17.517 6.01165 15.5015 8.49797 15.5015H11.082" stroke="#161924" stroke-width="1.5" stroke-linecap="round" stroke-linejoin="round"/>
<path d="M15.0062 5.24217C16.2223 6.45812 16.5862 8.28693 15.9281 9.87578C15.2701 11.4646 13.7197 12.5006 11.9999 12.5006C10.2802 12.5006 8.72982 11.4646 8.07176 9.87578C7.4137 8.28693 7.77757 6.45812 8.99369 5.24217C9.7909 4.44469 10.8723 3.99664 11.9999 3.99664C13.1276 3.99664 14.209 4.44469 15.0062 5.24217" stroke="#161924" stroke-width="1.5" stroke-linecap="round" stroke-linejoin="round"/>
</svg>
