<svg width="24" height="24" viewBox="0 0 24 24" fill="none" xmlns="http://www.w3.org/2000/svg">
<path d="M3.99609 20.0033V20.0033C3.99609 17.517 6.01165 15.5015 8.49797 15.5015H11.082" stroke="#161924" stroke-width="1.5" stroke-linecap="round" stroke-linejoin="round"/>
<path d="M17.5022 15.0012V18.0025" stroke="#161924" stroke-width="1.5" stroke-linecap="round" stroke-linejoin="round"/>
<path d="M21.0029 18.7808C21.0029 18.351 20.6544 18.0025 20.2246 18.0025H14.7783C14.3485 18.0025 14 18.351 14 18.7808" stroke="#161924" stroke-width="1.5" stroke-linecap="round" stroke-linejoin="round"/>
<path fill-rule="evenodd" clip-rule="evenodd" d="M15.0004 22.0041H20.0025C20.555 22.0041 21.0029 21.5562 21.0029 21.0037V17.4372C21.0028 17.0318 20.9208 16.6306 20.7618 16.2577L20.4837 15.6085C20.3264 15.2403 19.9647 15.0014 19.5643 15.0012H15.4386C15.0379 15.001 14.6757 15.24 14.5182 15.6085L14.2411 16.2567C14.0821 16.6296 14.0001 17.0308 14 17.4362V21.0037C14 21.5562 14.4479 22.0041 15.0004 22.0041Z" stroke="#161924" stroke-width="1.5" stroke-linecap="round" stroke-linejoin="round"/>
<path d="M15.0062 5.24217C16.2223 6.45812 16.5862 8.28693 15.9281 9.87578C15.2701 11.4646 13.7197 12.5006 11.9999 12.5006C10.2802 12.5006 8.72982 11.4646 8.07176 9.87578C7.4137 8.28693 7.77757 6.45812 8.99369 5.24217C9.7909 4.44469 10.8723 3.99664 11.9999 3.99664C13.1276 3.99664 14.209 4.44469 15.0062 5.24217" stroke="#161924" stroke-width="1.5" stroke-linecap="round" stroke-linejoin="round"/>
</svg>
