<svg width="24" height="24" viewBox="0 0 24 24" fill="none" xmlns="http://www.w3.org/2000/svg">
<path fill-rule="evenodd" clip-rule="evenodd" d="M19.1213 6.08801L16.612 3.57869C16.0494 3.01609 15.2863 2.70002 14.4907 2.70001H7C5.34315 2.70001 4 4.04316 4 5.70001V18.3C4 19.9569 5.34315 21.3 7 21.3H17C18.6569 21.3 20 19.9569 20 18.3V8.20932C20 7.41368 19.6839 6.65062 19.1213 6.08801Z" stroke="#161924" stroke-width="1.5" stroke-linecap="round" stroke-linejoin="round"/>
<path d="M12.75 11L13.875 15H14.626L15.75 11" stroke="#161924" stroke-width="1.5" stroke-linecap="round" stroke-linejoin="round"/>
<path d="M10.533 11H9.25C8.69772 11 8.25 11.4477 8.25 12V14C8.25 14.5523 8.69772 15 9.25 15H10.533" stroke="#161924" stroke-width="1.5" stroke-linecap="round" stroke-linejoin="round"/>
</svg>
