<svg width="24" height="24" viewBox="0 0 24 24" fill="none" xmlns="http://www.w3.org/2000/svg">
<path d="M3.11788 13.4149C3.00459 12.7135 2.97514 12.0011 3.03017 11.2927" stroke="#161924" stroke-width="1.5" stroke-linecap="round" stroke-linejoin="round"/>
<path d="M16.2373 4.05591C18.6187 5.3256 20.3045 7.59716 20.8298 10.2443" stroke="#161924" stroke-width="1.5" stroke-linecap="round" stroke-linejoin="round"/>
<path d="M5.63333 5.63354C4.91127 6.35815 4.31863 7.20106 3.8811 8.12572" stroke="#161924" stroke-width="1.5" stroke-linecap="round" stroke-linejoin="round"/>
<path d="M20.8163 13.7424C20.0902 17.4814 17.0857 20.3564 13.3184 20.9172C9.55113 21.478 5.83953 19.6028 4.05585 16.2375" stroke="#161924" stroke-width="1.5" stroke-linecap="round" stroke-linejoin="round"/>
<path d="M8.12695 3.88282C9.77217 3.09985 11.6158 2.83302 13.4155 3.11741" stroke="#161924" stroke-width="1.5" stroke-linecap="round" stroke-linejoin="round"/>
<path fill-rule="evenodd" clip-rule="evenodd" d="M12 14.001C12.5654 14.001 13.1 13.7438 13.453 13.3022C13.8059 12.8606 13.9388 12.2824 13.8142 11.7309L12.9083 7.72394C12.8124 7.29946 12.4352 6.99805 12 6.99805V6.99805C11.5648 6.99805 11.1877 7.29946 11.0917 7.72394L10.1859 11.7309C10.0612 12.2824 10.1941 12.8606 10.5471 13.3022C10.9 13.7438 11.4347 14.001 12 14.001Z" stroke="#161924" stroke-width="1.5" stroke-linecap="round" stroke-linejoin="round"/>
</svg>
