<svg width="24" height="24" viewBox="0 0 24 24" fill="none" xmlns="http://www.w3.org/2000/svg">
<path fill-rule="evenodd" clip-rule="evenodd" d="M15.6148 8.02036L11.3601 9.77226C10.681 10.0519 10.1865 10.6525 10.0425 11.3728C9.8984 12.093 10.1238 12.8376 10.6432 13.3569V13.3569C11.1626 13.8763 11.9072 14.1018 12.6274 13.9578C13.3477 13.8137 13.9483 13.3192 14.2279 12.6401L15.9799 8.38536C16.0229 8.28098 15.9989 8.16098 15.919 8.08116C15.8392 8.00133 15.7192 7.97735 15.6148 8.02036Z" stroke="#161924" stroke-width="1.5" stroke-linecap="round" stroke-linejoin="round"/>
<path d="M16.0378 3.96066C12.0821 1.96966 7.26618 3.14472 4.67204 6.73382C2.07789 10.3229 2.47292 15.2644 5.60432 18.3958C8.73571 21.5272 13.6772 21.9222 17.2663 19.328C20.8554 16.7339 22.0304 11.918 20.0394 7.96233" stroke="#161924" stroke-width="1.5" stroke-linecap="round" stroke-linejoin="round"/>
</svg>
