<svg width="24" height="24" viewBox="0 0 24 24" fill="none" xmlns="http://www.w3.org/2000/svg">
<circle cx="12" cy="12.0001" r="9.00375" stroke="#161924" stroke-width="1.5" stroke-linecap="round" stroke-linejoin="round"/>
<path d="M12.007 10.3125C11.0744 10.3087 10.3152 11.0616 10.3113 11.9942C10.3075 12.9269 11.0604 13.686 11.993 13.6899C12.9256 13.6938 13.6848 12.9409 13.6887 12.0082V12.0002C13.6876 11.0709 12.9363 10.3169 12.007 10.3125" stroke="#161924" stroke-width="1.5" stroke-linecap="round" stroke-linejoin="round"/>
<path d="M13.2005 10.7996L16.2018 7.79834" stroke="#161924" stroke-width="1.5" stroke-linecap="round" stroke-linejoin="round"/>
<path d="M12.125 17.6726C12.125 17.7416 12.0691 17.7976 12 17.7976C11.9309 17.7976 11.8749 17.7416 11.8749 17.6726C11.8749 17.6035 11.9309 17.5475 12 17.5475" stroke="#161924" stroke-width="1.5" stroke-linecap="round" stroke-linejoin="round"/>
<path d="M12 17.5475C12.0691 17.5475 12.1251 17.6035 12.1251 17.6726" stroke="#161924" stroke-width="1.5" stroke-linecap="round" stroke-linejoin="round"/>
<path d="M12.125 6.37789C12.125 6.44696 12.0691 6.50295 12 6.50295C11.9309 6.50295 11.8749 6.44696 11.8749 6.37789C11.8749 6.30883 11.9309 6.25284 12 6.25284" stroke="#161924" stroke-width="1.5" stroke-linecap="round" stroke-linejoin="round"/>
<path d="M12 6.25262C12.0691 6.25262 12.1251 6.30861 12.1251 6.37768" stroke="#161924" stroke-width="1.5" stroke-linecap="round" stroke-linejoin="round"/>
<path d="M6.35264 12.1502C6.28358 12.1502 6.22759 12.0942 6.22759 12.0251C6.22759 11.956 6.28358 11.9001 6.35264 11.9001C6.4217 11.9001 6.47769 11.956 6.47769 12.0251" stroke="#161924" stroke-width="1.5" stroke-linecap="round" stroke-linejoin="round"/>
<path d="M6.4777 12.0251C6.4777 12.0941 6.42171 12.1501 6.35265 12.1501" stroke="#161924" stroke-width="1.5" stroke-linecap="round" stroke-linejoin="round"/>
<path d="M17.6473 12.1502C17.5783 12.1502 17.5223 12.0942 17.5223 12.0251C17.5223 11.956 17.5783 11.9001 17.6473 11.9001C17.7164 11.9001 17.7724 11.956 17.7724 12.0251" stroke="#161924" stroke-width="1.5" stroke-linecap="round" stroke-linejoin="round"/>
<path d="M17.7724 12.0251C17.7724 12.0941 17.7164 12.1501 17.6474 12.1501" stroke="#161924" stroke-width="1.5" stroke-linecap="round" stroke-linejoin="round"/>
<path d="M7.9183 8.12037C7.86946 8.07154 7.86946 7.99236 7.9183 7.94352C7.96713 7.89469 8.04631 7.89469 8.09515 7.94352C8.14398 7.99236 8.14399 8.07154 8.09515 8.12037" stroke="#161924" stroke-width="1.5" stroke-linecap="round" stroke-linejoin="round"/>
<path d="M8.09517 8.12032C8.07171 8.14377 8.03991 8.15695 8.00674 8.15695C7.97357 8.15695 7.94176 8.14377 7.91831 8.12032" stroke="#161924" stroke-width="1.5" stroke-linecap="round" stroke-linejoin="round"/>
<path d="M15.9048 16.1069C15.856 16.0581 15.856 15.9789 15.9048 15.9301C15.9537 15.8813 16.0328 15.8813 16.0817 15.9301C16.1305 15.9789 16.1305 16.0581 16.0817 16.1069" stroke="#161924" stroke-width="1.5" stroke-linecap="round" stroke-linejoin="round"/>
<path d="M16.0817 16.1069C16.0582 16.1303 16.0264 16.1435 15.9933 16.1435C15.9601 16.1435 15.9283 16.1303 15.9048 16.1069" stroke="#161924" stroke-width="1.5" stroke-linecap="round" stroke-linejoin="round"/>
<path d="M8.09515 16.1069C8.05939 16.1427 8.0056 16.1534 7.95887 16.1341C7.91214 16.1147 7.88167 16.0691 7.88167 16.0185C7.88167 15.9679 7.91214 15.9223 7.95887 15.903C8.0056 15.8836 8.05939 15.8943 8.09515 15.9301" stroke="#161924" stroke-width="1.5" stroke-linecap="round" stroke-linejoin="round"/>
<path d="M8.09516 15.9299C8.14399 15.9787 8.14399 16.0579 8.09516 16.1067" stroke="#161924" stroke-width="1.5" stroke-linecap="round" stroke-linejoin="round"/>
</svg>
