<svg width="24" height="24" viewBox="0 0 24 24" fill="none" xmlns="http://www.w3.org/2000/svg">
<path d="M5.63337 5.63349C2.59604 8.67083 2.12723 13.4308 4.51364 17.0023C6.90005 20.5738 11.477 21.9623 15.4455 20.3185C19.414 18.6747 21.6687 14.4566 20.8308 10.2436C19.9928 6.03072 16.2956 2.99634 12.0001 2.99634V4.99717" stroke="#161924" stroke-width="1.5" stroke-linecap="round" stroke-linejoin="round"/>
<path fill-rule="evenodd" clip-rule="evenodd" d="M8.38516 8.02034L12.6399 9.77224C13.319 10.0519 13.8135 10.6525 13.9575 11.3727C14.1016 12.093 13.8761 12.8375 13.3568 13.3569V13.3569C12.8374 13.8763 12.0928 14.1018 11.3726 13.9577C10.6523 13.8137 10.0517 13.3192 9.77206 12.64L8.02016 8.38534C7.97717 8.28097 8.00117 8.16099 8.08098 8.08117C8.1608 8.00135 8.28079 7.97736 8.38516 8.02034Z" stroke="#161924" stroke-width="1.5" stroke-linecap="round" stroke-linejoin="round"/>
</svg>
