<svg width="24" height="24" viewBox="0 0 24 24" fill="none" xmlns="http://www.w3.org/2000/svg">
<path fill-rule="evenodd" clip-rule="evenodd" d="M12.9091 7.72514L13.8147 11.7326C13.9549 12.3549 13.7663 13.0055 13.315 13.4563V13.4563C12.9662 13.805 12.4932 14.001 12 14.001C11.5068 14.001 11.0338 13.805 10.685 13.4563V13.4563C10.2337 13.0055 10.0451 12.3549 10.1853 11.7326L11.0909 7.72514C11.1296 7.5531 11.2164 7.39559 11.3411 7.27095V7.27095C11.705 6.90708 12.295 6.90708 12.6588 7.27095V7.27095C12.7836 7.39559 12.8704 7.5531 12.9091 7.72514V7.72514Z" stroke="#161924" stroke-width="1.5" stroke-linecap="round" stroke-linejoin="round"/>
<path fill-rule="evenodd" clip-rule="evenodd" d="M16.0016 21.0038H7.9983C5.23572 21.0038 2.99622 18.7643 2.99622 16.0018V7.99842C2.99622 5.23585 5.23572 2.99634 7.9983 2.99634H16.0016C18.7642 2.99634 21.0037 5.23585 21.0037 7.99842V16.0018C21.0037 18.7643 18.7642 21.0038 16.0016 21.0038Z" stroke="#161924" stroke-width="1.5" stroke-linecap="round" stroke-linejoin="round"/>
</svg>
