<svg width="24" height="24" viewBox="0 0 24 24" fill="none" xmlns="http://www.w3.org/2000/svg">
<path d="M12.007 10.3125C11.0744 10.3087 10.3152 11.0616 10.3113 11.9942C10.3075 12.9269 11.0604 13.686 11.993 13.6899C12.9256 13.6938 13.6848 12.9409 13.6887 12.0082V12.0002C13.6876 11.0709 12.9363 10.3169 12.007 10.3125" stroke="#161924" stroke-width="1.5" stroke-linecap="round" stroke-linejoin="round"/>
<path d="M9.49895 14.5013L10.7495 13.2507" stroke="#161924" stroke-width="1.5" stroke-linecap="round" stroke-linejoin="round"/>
<path d="M12 2.99634C7.70455 2.99634 4.0073 6.03069 3.16933 10.2436C2.33137 14.4565 4.58606 18.6747 8.55455 20.3185C12.523 21.9623 17.1 20.5738 19.4864 17.0023C21.8729 13.4308 21.4041 8.67083 18.3667 5.63349" stroke="#161924" stroke-width="1.5" stroke-linecap="round" stroke-linejoin="round"/>
<path d="M16.0017 7.99854L13.1922 10.8081" stroke="#161924" stroke-width="1.5" stroke-linecap="round" stroke-linejoin="round"/>
</svg>
