<svg width="24" height="24" viewBox="0 0 24 24" fill="none" xmlns="http://www.w3.org/2000/svg">
<path d="M18.3667 5.63352C21.8828 9.14971 21.8828 14.8506 18.3666 18.3667C14.8504 21.8829 9.14957 21.8829 5.63339 18.3667C2.11722 14.8505 2.11721 9.14968 5.63337 5.6335C9.14954 2.11731 14.8504 2.11728 18.3666 5.63344L18.3667 5.63352" stroke="#161924" stroke-width="1.5" stroke-linecap="round" stroke-linejoin="round"/>
<path d="M12.007 10.3125C11.0744 10.3087 10.3152 11.0616 10.3113 11.9942C10.3075 12.9269 11.0604 13.686 11.993 13.6899C12.9256 13.6938 13.6848 12.9409 13.6887 12.0082V12.0002C13.6876 11.0709 12.9363 10.3169 12.007 10.3125" stroke="#161924" stroke-width="1.5" stroke-linecap="round" stroke-linejoin="round"/>
<path d="M13.2005 10.7996L16.2018 7.79834" stroke="#161924" stroke-width="1.5" stroke-linecap="round" stroke-linejoin="round"/>
<path d="M5.63335 18.3667C2.1172 14.8505 2.11723 9.14962 5.63341 5.63346C9.1496 2.11729 14.8504 2.1173 18.3666 5.63348C21.8828 9.14965 21.8828 14.8505 18.3666 18.3667C14.8505 21.8829 9.14963 21.8829 5.63343 18.3667L5.63335 18.3667" stroke="#161924" stroke-width="1.5" stroke-linecap="round" stroke-linejoin="round"/>
<path d="M12.1251 17.8776C12.1251 17.9467 12.0691 18.0027 12 18.0027C11.9309 18.0027 11.875 17.9467 11.875 17.8776C11.875 17.8086 11.9309 17.7526 12 17.7526" stroke="#161924" stroke-width="1.5" stroke-linecap="round" stroke-linejoin="round"/>
<path d="M12 17.7526C12.0691 17.7526 12.1251 17.8086 12.1251 17.8777" stroke="#161924" stroke-width="1.5" stroke-linecap="round" stroke-linejoin="round"/>
<path d="M12.1251 6.12277C12.1251 6.19183 12.0691 6.24782 12 6.24782C11.9309 6.24782 11.875 6.19183 11.875 6.12277C11.875 6.0537 11.9309 5.99771 12 5.99771" stroke="#161924" stroke-width="1.5" stroke-linecap="round" stroke-linejoin="round"/>
<path d="M12 5.9975C12.0691 5.9975 12.1251 6.05348 12.1251 6.12255" stroke="#161924" stroke-width="1.5" stroke-linecap="round" stroke-linejoin="round"/>
<path d="M6.12255 12.1253C6.05349 12.1253 5.9975 12.0693 5.9975 12.0002C5.9975 11.9311 6.05349 11.8752 6.12255 11.8752C6.19162 11.8752 6.24761 11.9311 6.24761 12.0002" stroke="#161924" stroke-width="1.5" stroke-linecap="round" stroke-linejoin="round"/>
<path d="M6.24761 12.0002C6.24761 12.0692 6.19162 12.1252 6.12256 12.1252" stroke="#161924" stroke-width="1.5" stroke-linecap="round" stroke-linejoin="round"/>
<path d="M17.8775 12.1253C17.8084 12.1253 17.7524 12.0693 17.7524 12.0002C17.7524 11.9311 17.8084 11.8752 17.8775 11.8752C17.9465 11.8752 18.0025 11.9311 18.0025 12.0002" stroke="#161924" stroke-width="1.5" stroke-linecap="round" stroke-linejoin="round"/>
<path d="M18.0025 12.0002C18.0025 12.0692 17.9465 12.1252 17.8774 12.1252" stroke="#161924" stroke-width="1.5" stroke-linecap="round" stroke-linejoin="round"/>
</svg>
