<svg width="24" height="24" viewBox="0 0 24 24" fill="none" xmlns="http://www.w3.org/2000/svg">
<path fill-rule="evenodd" clip-rule="evenodd" d="M16.5019 12.0002C16.5019 14.4865 14.4863 16.502 12 16.502C9.51367 16.502 7.49811 14.4865 7.49811 12.0002C7.49811 9.51386 9.51367 7.4983 12 7.4983C13.1945 7.49644 14.3407 7.97014 15.1853 8.81481C16.03 9.65948 16.5037 10.8056 16.5019 12.0002Z" stroke="#161924" stroke-width="1.5" stroke-linecap="round" stroke-linejoin="round"/>
<path d="M8.81766 15.1825L15.1823 8.81787" stroke="#161924" stroke-width="1.5" stroke-linecap="round" stroke-linejoin="round"/>
<path fill-rule="evenodd" clip-rule="evenodd" d="M15.6015 21.0038H8.3985C5.41492 21.0038 2.99625 18.5852 2.99625 15.6016V8.39859C2.99625 5.41501 5.41492 2.99634 8.3985 2.99634H15.6015C18.5851 2.99634 21.0037 5.41501 21.0037 8.39859V15.6016C21.0037 18.5852 18.5851 21.0038 15.6015 21.0038Z" stroke="#161924" stroke-width="1.5" stroke-linecap="round" stroke-linejoin="round"/>
</svg>
