<svg width="24" height="24" viewBox="0 0 24 24" fill="none" xmlns="http://www.w3.org/2000/svg">
<path d="M20.5856 9.35198C20.8587 10.2083 20.9997 11.1013 21.0037 12.0001C21.0037 16.9727 16.9726 21.0038 12 21.0038C7.02736 21.0038 2.99625 16.9727 2.99625 12.0001C2.99625 7.02745 7.02736 2.99634 12 2.99634C12.8988 3.0004 13.7918 3.14141 14.6481 3.41451" stroke="#161924" stroke-width="1.5" stroke-linecap="round" stroke-linejoin="round"/>
<path d="M7.99832 9.93331H16.0017" stroke="#161924" stroke-width="1.5" stroke-linecap="round" stroke-linejoin="round"/>
<path d="M10.2493 9.93317V8.43255C10.2172 7.91541 10.6078 7.46901 11.1246 7.43213H12.8754C13.3922 7.46901 13.7828 7.91541 13.7507 8.43255V9.93317" stroke="#161924" stroke-width="1.5" stroke-linecap="round" stroke-linejoin="round"/>
<path d="M8.87369 9.93335V15.6857C8.87369 16.2383 9.32159 16.6862 9.8741 16.6862H14.1259C14.6784 16.6862 15.1263 16.2383 15.1263 15.6857V9.93335" stroke="#161924" stroke-width="1.5" stroke-linecap="round" stroke-linejoin="round"/>
<path d="M18.0025 5.99787L20.5035 3.49683" stroke="#161924" stroke-width="1.5" stroke-linecap="round" stroke-linejoin="round"/>
<path d="M18.0025 3.4978L20.5035 5.99884" stroke="#161924" stroke-width="1.5" stroke-linecap="round" stroke-linejoin="round"/>
</svg>
