<svg width="24" height="24" viewBox="0 0 24 24" fill="none" xmlns="http://www.w3.org/2000/svg">
<path fill-rule="evenodd" clip-rule="evenodd" d="M3 16.041V7.95899C3 7.24399 3.381 6.58399 4 6.22699L11 2.18599C11.619 1.82899 12.381 1.82899 13 2.18599L20 6.22699C20.619 6.58399 21 7.24499 21 7.95899V16.042C21 16.757 20.619 17.417 20 17.774L13 21.815C12.381 22.172 11.619 22.172 11 21.815L4 17.774C3.381 17.416 3 16.756 3 16.041Z" stroke="#161924" stroke-width="1.5" stroke-linecap="round" stroke-linejoin="round"/>
<path d="M16.49 12.86V9.39599L7.5 4.20599" stroke="#161924" stroke-width="1.5" stroke-linecap="round" stroke-linejoin="round"/>
<path d="M9.04 17L6 15.24" stroke="#161924" stroke-width="1.5" stroke-linecap="round" stroke-linejoin="round"/>
<path d="M12 12V22.08" stroke="#161924" stroke-width="1.5" stroke-linecap="round" stroke-linejoin="round"/>
<path d="M3.26758 6.95898L11.9996 12L20.7316 6.95898" stroke="#161924" stroke-width="1.5" stroke-linecap="round" stroke-linejoin="round"/>
</svg>
