<svg width="24" height="24" viewBox="0 0 24 24" fill="none" xmlns="http://www.w3.org/2000/svg">
<path d="M8 17L10 19L8 21" stroke="#161924" stroke-width="1.5" stroke-linecap="round" stroke-linejoin="round"/>
<path d="M3 15V17C3 18.1 3.9 19 5 19H10" stroke="#161924" stroke-width="1.5" stroke-linecap="round" stroke-linejoin="round"/>
<path d="M21 9V7C21 5.9 20.1 5 19 5H14" stroke="#161924" stroke-width="1.5" stroke-linecap="round" stroke-linejoin="round"/>
<path d="M16 7L14 5L16 3" stroke="#161924" stroke-width="1.5" stroke-linecap="round" stroke-linejoin="round"/>
<path fill-rule="evenodd" clip-rule="evenodd" d="M11 8.89999V5.09999C11 4.69999 10.8 4.29999 10.4 4.09999L7.1 2.19999C6.7 1.99999 6.3 1.99999 5.9 2.19999L2.6 4.09999C2.2 4.29999 2 4.69999 2 5.09999V8.89999C2 9.29999 2.2 9.69999 2.6 9.89999L5.9 11.8C6.3 12 6.7 12 7.1 11.8L10.4 9.89999C10.8 9.69999 11 9.29999 11 8.89999Z" stroke="#161924" stroke-width="1.5" stroke-linecap="round" stroke-linejoin="round"/>
<path d="M2.19922 4.5L6.49922 7L10.7992 4.5" stroke="#161924" stroke-width="1.5" stroke-linecap="round" stroke-linejoin="round"/>
<path d="M6.5 7V12" stroke="#161924" stroke-width="1.5" stroke-linecap="round" stroke-linejoin="round"/>
<path fill-rule="evenodd" clip-rule="evenodd" d="M22 18.9V15.1C22 14.7 21.8 14.3 21.4 14.1L18.1 12.2C17.7 12 17.3 12 16.9 12.2L13.6 14.1C13.2 14.3 13 14.7 13 15.1V18.9C13 19.3 13.2 19.7 13.6 19.9L16.9 21.8C17.3 22 17.7 22 18.1 21.8L21.4 19.9C21.8 19.7 22 19.3 22 18.9Z" stroke="#161924" stroke-width="1.5" stroke-linecap="round" stroke-linejoin="round"/>
<path d="M13.1992 14.5L17.4992 17L21.7992 14.5" stroke="#161924" stroke-width="1.5" stroke-linecap="round" stroke-linejoin="round"/>
<path d="M17.5 17V22" stroke="#161924" stroke-width="1.5" stroke-linecap="round" stroke-linejoin="round"/>
</svg>
