<svg width="24" height="24" viewBox="0 0 24 24" fill="none" xmlns="http://www.w3.org/2000/svg">
<path d="M5 16H7" stroke="#161924" stroke-width="1.5" stroke-linecap="round" stroke-linejoin="round"/>
<path d="M13 19H4C2.895 19 2 18.105 2 17V7.569C2 7.299 2.055 7.031 2.161 6.783L3.259 4.214C3.574 3.478 4.297 3 5.098 3H14.902C15.703 3 16.426 3.478 16.741 4.214L17.839 6.783C17.945 7.032 18 7.299 18 7.569V11.1" stroke="#161924" stroke-width="1.5" stroke-linecap="round" stroke-linejoin="round"/>
<path d="M10 3V7.44" stroke="#161924" stroke-width="1.5" stroke-linecap="round" stroke-linejoin="round"/>
<path d="M17.99 7.44H2" stroke="#161924" stroke-width="1.5" stroke-linecap="round" stroke-linejoin="round"/>
<path d="M20.5355 12.4645C22.4882 14.4171 22.4882 17.5829 20.5355 19.5356C18.5829 21.4882 15.4171 21.4882 13.4645 19.5356C11.5118 17.5829 11.5118 14.4171 13.4645 12.4645C15.4171 10.5119 18.5829 10.5119 20.5355 12.4645" stroke="#161924" stroke-width="1.5" stroke-linecap="round" stroke-linejoin="round"/>
<path d="M18.1254 14.2975C18.9061 15.0782 18.9061 16.3438 18.1254 17.1245C17.3447 17.9052 16.079 17.9052 15.2984 17.1245C14.5177 16.3439 14.5177 15.0782 15.2984 14.2975C16.079 13.5168 17.3447 13.5168 18.1254 14.2975" stroke="#161924" stroke-width="1.5" stroke-linecap="round" stroke-linejoin="round"/>
<path d="M19.0005 18L18.1205 17.12" stroke="#161924" stroke-width="1.5" stroke-linecap="round" stroke-linejoin="round"/>
</svg>
