<svg width="24" height="24" viewBox="0 0 24 24" fill="none" xmlns="http://www.w3.org/2000/svg">
<path d="M15 7.99835H19.3248C19.7338 7.99861 20.1015 8.24781 20.2532 8.62761L21.8599 12.6433C21.9541 12.8794 22.0027 13.1313 22.0029 13.3856V19.4231C22.0029 19.9756 21.555 20.4235 21.0025 20.4235H19.1707" stroke="#161924" stroke-width="1.5" stroke-linecap="round" stroke-linejoin="round"/>
<path d="M16.0012 20.4235H8.16797" stroke="#161924" stroke-width="1.5" stroke-linecap="round" stroke-linejoin="round"/>
<path d="M22.0036 15.0012H18.002V10.9996H21.2033" stroke="#161924" stroke-width="1.5" stroke-linecap="round" stroke-linejoin="round"/>
<path d="M12.5545 5.9975H13.9991C14.5517 5.9975 14.9996 6.4454 14.9996 6.99791V16.0017H1.99414" stroke="#161924" stroke-width="1.5" stroke-linecap="round" stroke-linejoin="round"/>
<path d="M18.7013 19.3031C19.1545 19.7563 19.2901 20.4379 19.0449 21.03C18.7996 21.6222 18.2217 22.0083 17.5808 22.0083C16.9399 22.0083 16.362 21.6222 16.1167 21.03C15.8715 20.4379 16.0071 19.7563 16.4603 19.3031C16.7574 19.0057 17.1605 18.8386 17.5808 18.8386C18.0011 18.8386 18.4042 19.0057 18.7013 19.3031" stroke="#161924" stroke-width="1.5" stroke-linecap="round" stroke-linejoin="round"/>
<path d="M7.69736 19.3031C8.1506 19.7563 8.28621 20.4379 8.04094 21.03C7.79568 21.6222 7.21784 22.0083 6.57689 22.0083C5.93594 22.0083 5.35811 21.6222 5.11284 21.03C4.86758 20.4379 5.00318 19.7563 5.45643 19.3031C5.75347 19.0057 6.15656 18.8386 6.57689 18.8386C6.99723 18.8386 7.40031 19.0057 7.69736 19.3031" stroke="#161924" stroke-width="1.5" stroke-linecap="round" stroke-linejoin="round"/>
<path d="M4.99539 20.4195H2.99456C2.44204 20.4195 1.99414 19.9716 1.99414 19.4191V6.99791C1.99414 6.4454 2.44204 5.9975 2.99456 5.9975H4.23307" stroke="#161924" stroke-width="1.5" stroke-linecap="round" stroke-linejoin="round"/>
<path d="M7.41406 5.17615L9.37588 7.13796" stroke="#161924" stroke-width="1.5" stroke-linecap="round" stroke-linejoin="round"/>
<path d="M7.41406 7.13796L9.37588 5.17615" stroke="#161924" stroke-width="1.5" stroke-linecap="round" stroke-linejoin="round"/>
<path fill-rule="evenodd" clip-rule="evenodd" d="M8.39511 10.3173C10.693 10.3173 12.5558 8.45449 12.5558 6.15658C12.5558 3.85867 10.693 1.99585 8.39511 1.99585C6.0972 1.99585 4.23438 3.85867 4.23438 6.15658C4.23438 8.45449 6.0972 10.3173 8.39511 10.3173Z" stroke="#161924" stroke-width="1.5" stroke-linecap="round" stroke-linejoin="round"/>
</svg>
