<svg width="24" height="24" viewBox="0 0 24 24" fill="none" xmlns="http://www.w3.org/2000/svg">
<path d="M14 20H5.125C3.951 20 3 19.049 3 17.875V7.855C3 7.568 3.058 7.283 3.171 7.02L4.338 4.29C4.672 3.508 5.441 3 6.292 3H16.709C17.56 3 18.328 3.508 18.663 4.29L19.83 7.02C19.942 7.284 20 7.568 20 7.855V12" stroke="#161924" stroke-width="1.5" stroke-linecap="round" stroke-linejoin="round"/>
<path d="M11.5 3V7.44" stroke="#161924" stroke-width="1.5" stroke-linecap="round" stroke-linejoin="round"/>
<path d="M19.957 7.44H3.04297" stroke="#161924" stroke-width="1.5" stroke-linecap="round" stroke-linejoin="round"/>
<path d="M17 21C14.239 21 12 18.761 12 16C12 13.239 14.239 11 17 11C19.762 11 22 13.239 22 16C22 18.761 19.762 21 17 21" stroke="#161924" stroke-width="1.5" stroke-linecap="round" stroke-linejoin="round"/>
<path d="M17 13.778V14.522" stroke="#161924" stroke-width="1.5" stroke-linecap="round" stroke-linejoin="round"/>
<path d="M17 17.478V18.222" stroke="#161924" stroke-width="1.5" stroke-linecap="round" stroke-linejoin="round"/>
<path d="M15.0784 14.889L15.7224 15.256" stroke="#161924" stroke-width="1.5" stroke-linecap="round" stroke-linejoin="round"/>
<path d="M18.289 16.744L18.922 17.111" stroke="#161924" stroke-width="1.5" stroke-linecap="round" stroke-linejoin="round"/>
<path d="M15.0784 17.111L15.7224 16.744" stroke="#161924" stroke-width="1.5" stroke-linecap="round" stroke-linejoin="round"/>
<path d="M18.289 15.256L18.922 14.889" stroke="#161924" stroke-width="1.5" stroke-linecap="round" stroke-linejoin="round"/>
<path d="M16.9996 14.518C17.8186 14.518 18.4816 15.182 18.4816 16C18.4816 16.818 17.8186 17.482 16.9996 17.482C16.1806 17.482 15.5176 16.819 15.5176 16C15.5176 15.181 16.1806 14.518 16.9996 14.518" stroke="#161924" stroke-width="1.5" stroke-linecap="round" stroke-linejoin="round"/>
<path d="M6 16H8" stroke="#161924" stroke-width="1.5" stroke-linecap="round" stroke-linejoin="round"/>
</svg>
