<svg width="24" height="24" viewBox="0 0 24 24" fill="none" xmlns="http://www.w3.org/2000/svg">
<path d="M7.95898 9.66699L12 12L16.041 9.66699" stroke="#161924" stroke-width="1.5" stroke-linecap="round" stroke-linejoin="round"/>
<path d="M12 12V16.67" stroke="#161924" stroke-width="1.5" stroke-linecap="round" stroke-linejoin="round"/>
<path fill-rule="evenodd" clip-rule="evenodd" d="M16.164 13.871V10.13C16.164 9.799 15.988 9.494 15.701 9.328L12.461 7.457C12.175 7.292 11.822 7.292 11.535 7.457L8.29503 9.328C8.00903 9.493 7.83203 9.799 7.83203 10.13V13.871C7.83203 14.202 8.00803 14.507 8.29503 14.673L11.535 16.544C11.821 16.709 12.174 16.709 12.461 16.544L15.701 14.673C15.988 14.507 16.164 14.201 16.164 13.871Z" stroke="#161924" stroke-width="1.5" stroke-linecap="round" stroke-linejoin="round"/>
<path d="M20.7363 4.53699V7.53699H17.7363H20.7363" stroke="#161924" stroke-width="1.5" stroke-linecap="round" stroke-linejoin="round"/>
<path d="M20.199 7.53699C18.616 4.63599 15.539 2.66699 12.001 2.66699C6.84597 2.66699 2.66797 6.84599 2.66797 12C2.66797 17.154 6.84597 21.333 12.001 21.333C17.156 21.333 21.334 17.154 21.334 12" stroke="#161924" stroke-width="1.5" stroke-linecap="round" stroke-linejoin="round"/>
</svg>
