<svg width="24" height="24" viewBox="0 0 24 24" fill="none" xmlns="http://www.w3.org/2000/svg">
<path fill-rule="evenodd" clip-rule="evenodd" d="M2.848 20.875H21.152C21.62 20.875 22 20.495 22 20.027V18.848C22 18.38 21.62 18 21.152 18H2.848C2.38 18 2 18.38 2 18.848V20.027C2 20.495 2.38 20.875 2.848 20.875Z" stroke="#161924" stroke-width="1.5" stroke-linecap="round" stroke-linejoin="round"/>
<path d="M14.0156 18V12C14.0156 11.448 14.4636 11 15.0156 11H19.9996C20.5516 11 20.9996 11.448 20.9996 12V18" stroke="#161924" stroke-width="1.5" stroke-linecap="round" stroke-linejoin="round"/>
<path d="M17 15H18" stroke="#161924" stroke-width="1.5" stroke-linecap="round" stroke-linejoin="round"/>
<path d="M8.5857 5.9732C9.39526 6.78275 9.39526 8.09531 8.5857 8.90486C7.77615 9.71441 6.46359 9.71441 5.65404 8.90486C4.84449 8.0953 4.84449 6.78275 5.65404 5.9732C6.4636 5.16364 7.77615 5.16364 8.5857 5.9732" stroke="#161924" stroke-width="1.5" stroke-linecap="round" stroke-linejoin="round"/>
<path d="M3.18359 18L3.84259 14.038C4.00259 13.073 4.83759 12.366 5.81559 12.366H8.44459C9.41459 12.366 10.2446 13.062 10.4136 14.017L11.1206 18" stroke="#161924" stroke-width="1.5" stroke-linecap="round" stroke-linejoin="round"/>
</svg>
