<svg width="24" height="24" viewBox="0 0 24 24" fill="none" xmlns="http://www.w3.org/2000/svg">
<path d="M15 2.51099V6.99999C15 7.55199 14.552 7.99999 14 7.99999H10C9.448 7.99999 9 7.55199 9 6.99999V2.43399" stroke="#161924" stroke-width="1.5" stroke-linecap="round" stroke-linejoin="round"/>
<path fill-rule="evenodd" clip-rule="evenodd" d="M19.5412 14.758L21.8062 18.783C22.3632 19.774 21.6472 21 20.5102 21H15.9812C14.8432 21 14.1282 19.776 14.6852 18.783L16.9502 14.758C17.5172 13.747 18.9722 13.747 19.5412 14.758V14.758Z" stroke="#161924" stroke-width="1.5" stroke-linecap="round" stroke-linejoin="round"/>
<path d="M21 10.434V4.43399C21 3.32899 20.105 2.43399 19 2.43399H5C3.895 2.43399 3 3.32899 3 4.43399V18C3 19.105 3.895 20 5 20H10" stroke="#161924" stroke-width="1.5" stroke-linecap="round" stroke-linejoin="round"/>
</svg>
