<svg width="24" height="24" viewBox="0 0 24 24" fill="none" xmlns="http://www.w3.org/2000/svg">
<path fill-rule="evenodd" clip-rule="evenodd" d="M17.1967 14.423V9.57697C17.1967 9.21997 17.0057 8.88997 16.6967 8.71097L12.5007 6.28897C12.1917 6.10997 11.8097 6.10997 11.5007 6.28897L7.30469 8.71097C6.99569 8.88997 6.80469 9.21997 6.80469 9.57697V14.422C6.80469 14.779 6.99569 15.109 7.30469 15.288L11.5007 17.711C11.8097 17.89 12.1917 17.89 12.5007 17.711L16.6967 15.288C17.0067 15.11 17.1967 14.78 17.1967 14.423Z" stroke="#161924" stroke-width="1.25" stroke-linecap="round" stroke-linejoin="round"/>
<path d="M7.5 3H5C3.895 3 3 3.895 3 5V7.5" stroke="#161924" stroke-width="1.3825" stroke-linecap="round" stroke-linejoin="round"/>
<path d="M3 16.5V19C3 20.105 3.895 21 5 21H7.5" stroke="#161924" stroke-width="1.3825" stroke-linecap="round" stroke-linejoin="round"/>
<path d="M16.5 21H19C20.105 21 21 20.105 21 19V16.5" stroke="#161924" stroke-width="1.3825" stroke-linecap="round" stroke-linejoin="round"/>
<path d="M21 7.5V5C21 3.895 20.105 3 19 3H16.5" stroke="#161924" stroke-width="1.3825" stroke-linecap="round" stroke-linejoin="round"/>
<path d="M12 17.84V12" stroke="#161924" stroke-width="1.25" stroke-linecap="round" stroke-linejoin="round"/>
<path d="M6.9375 9.07703L11.9995 12L17.0615 9.07703" stroke="#161924" stroke-width="1.25" stroke-linecap="round" stroke-linejoin="round"/>
</svg>
