<svg width="24" height="24" viewBox="0 0 24 24" fill="none" xmlns="http://www.w3.org/2000/svg">
<path d="M20.5855 9.35198C20.8586 10.2083 20.9997 11.1013 21.0037 12.0001C21.0037 16.9727 16.9726 21.0038 12 21.0038C7.02733 21.0038 2.99622 16.9727 2.99622 12.0001C2.99622 7.02745 7.02733 2.99634 12 2.99634C12.8988 3.0004 13.7917 3.14141 14.6481 3.41451" stroke="#161924" stroke-width="1.5" stroke-linecap="round" stroke-linejoin="round"/>
<path d="M19.0149 6.25966L17.7394 4.98413" stroke="#161924" stroke-width="1.5" stroke-linecap="round" stroke-linejoin="round"/>
<path d="M21.0038 4.27075L19.015 6.25961" stroke="#161924" stroke-width="1.5" stroke-linecap="round" stroke-linejoin="round"/>
<path fill-rule="evenodd" clip-rule="evenodd" d="M9.38054 15.1727L11.6205 14.2587C11.8626 14.16 12.1338 14.16 12.3759 14.2587L14.6196 15.1739C15.0115 15.3335 15.4615 15.2294 15.7434 14.9138C16.0253 14.5982 16.0782 14.1394 15.8755 13.7679L12.878 8.26987C12.7027 7.94836 12.3659 7.74829 11.9997 7.74829C11.6336 7.74829 11.2967 7.94836 11.1215 8.26987L8.1245 13.7668C7.92176 14.1383 7.97466 14.5971 8.25662 14.9128C8.53858 15.2284 8.98861 15.3325 9.38054 15.1727Z" stroke="#161924" stroke-width="1.5" stroke-linecap="round" stroke-linejoin="round"/>
</svg>
