<svg width="24" height="24" viewBox="0 0 24 24" fill="none" xmlns="http://www.w3.org/2000/svg">
<path d="M9.32812 14.6711L14.6704 9.32886" stroke="#161924" stroke-width="1.5" stroke-linecap="round" stroke-linejoin="round"/>
<path d="M14.9111 14.484C15.0256 14.6022 15.0235 14.7905 14.9066 14.9062C14.7897 15.0219 14.6014 15.0219 14.4844 14.9062C14.3675 14.7905 14.3655 14.6022 14.4799 14.484C14.5365 14.4257 14.6143 14.3927 14.6955 14.3927C14.7768 14.3927 14.8546 14.4257 14.9111 14.484" stroke="#161924" stroke-width="1.5" stroke-linecap="round" stroke-linejoin="round"/>
<path d="M9.51951 9.08475C9.63396 9.20292 9.63195 9.39119 9.515 9.50689C9.39806 9.62259 9.20978 9.62259 9.09283 9.50689C8.97589 9.39119 8.97388 9.20292 9.08833 9.08475C9.14486 9.02637 9.22266 8.99342 9.30392 8.99342C9.38518 8.99342 9.46297 9.02637 9.51951 9.08475" stroke="#161924" stroke-width="1.5" stroke-linecap="round" stroke-linejoin="round"/>
<rect x="2.99609" y="2.99622" width="18.0075" height="18.0075" rx="5" stroke="#161924" stroke-width="1.5" stroke-linecap="round" stroke-linejoin="round"/>
</svg>
