<svg width="24" height="24" viewBox="0 0 24 24" fill="none" xmlns="http://www.w3.org/2000/svg">
<rect x="1.99609" y="10.9996" width="14.0058" height="10.0042" rx="2" stroke="#161924" stroke-width="1.5" stroke-linecap="round" stroke-linejoin="round"/>
<path d="M7.49707 17.5022L10.4983 14.501" stroke="#161924" stroke-width="1.5" stroke-linecap="round" stroke-linejoin="round"/>
<path d="M6.6582 10.9996L8.40893 4.47688C8.54627 3.9644 8.8819 3.52764 9.34175 3.263C9.80159 2.99835 10.3478 2.92758 10.86 3.06629L20.524 5.65737C21.0365 5.79471 21.4732 6.13034 21.7379 6.59018C22.0025 7.05003 22.0733 7.59628 21.9346 8.10839L20.3839 13.9008C20.0973 14.9683 19.0017 15.6034 17.9329 15.3214L16.0021 14.8012" stroke="#161924" stroke-width="1.5" stroke-linecap="round" stroke-linejoin="round"/>
<path d="M10.7494 17.7024C10.7494 17.73 10.727 17.7524 10.6994 17.7524C10.6718 17.7524 10.6494 17.73 10.6494 17.7024C10.6494 17.6748 10.6718 17.6524 10.6994 17.6523C10.7127 17.6523 10.7254 17.6576 10.7348 17.667C10.7442 17.6764 10.7495 17.6891 10.7494 17.7024" stroke="#161924" stroke-width="1.5" stroke-linecap="round" stroke-linejoin="round"/>
<path d="M7.34808 14.301C7.34805 14.3287 7.32565 14.351 7.29804 14.351C7.27043 14.351 7.24805 14.3286 7.24804 14.301C7.24803 14.2734 7.27039 14.251 7.298 14.251C7.31129 14.251 7.32403 14.2562 7.33343 14.2656C7.34283 14.275 7.3481 14.2878 7.34808 14.301" stroke="#161924" stroke-width="1.5" stroke-linecap="round" stroke-linejoin="round"/>
</svg>
