<svg width="24" height="24" viewBox="0 0 24 24" fill="none" xmlns="http://www.w3.org/2000/svg">
<path d="M4.62988 18.7418L7.14607 15.2785C7.52238 14.7606 7.62799 14.0938 7.43015 13.4849C7.23231 12.876 6.75495 12.3987 6.14607 12.2008L2.06738 10.8756" stroke="#161924" stroke-width="1.5" stroke-linecap="round" stroke-linejoin="round"/>
<path d="M3.30518 7.072L7.38213 8.39662C7.991 8.59444 8.65778 8.48882 9.17571 8.11252C9.69364 7.73621 10.0001 7.1347 10.0001 6.4945V2.20087" stroke="#161924" stroke-width="1.5" stroke-linecap="round" stroke-linejoin="round"/>
<path d="M20.695 7.0719L16.6181 8.39662C16.0092 8.59446 15.3424 8.48886 14.8244 8.11255C14.3065 7.73625 14 7.13472 14 6.49451V2.20087" stroke="#161924" stroke-width="1.5" stroke-linecap="round" stroke-linejoin="round"/>
<path d="M19.3703 18.7418L16.8541 15.2785C16.4778 14.7606 16.3722 14.0938 16.5701 13.4849C16.7679 12.876 17.2453 12.3987 17.8541 12.2008L21.9328 10.8756" stroke="#161924" stroke-width="1.5" stroke-linecap="round" stroke-linejoin="round"/>
<path d="M7.86328 21.0964L10.3821 17.6297C10.7584 17.1117 11.3599 16.8052 12.0001 16.8052C12.6403 16.8052 13.2418 17.1117 13.6181 17.6297L16.1369 21.0965" stroke="#161924" stroke-width="1.5" stroke-linecap="round" stroke-linejoin="round"/>
<circle cx="12" cy="12" r="10" stroke="#161924" stroke-width="1.5" stroke-linecap="round" stroke-linejoin="round"/>
<circle cx="12" cy="12" r="2" stroke="#161924" stroke-width="1.5" stroke-linecap="round" stroke-linejoin="round"/>
</svg>
