<svg width="24" height="24" viewBox="0 0 24 24" fill="none" xmlns="http://www.w3.org/2000/svg">
<path d="M13.5738 3.14501C12.5334 2.95168 11.4662 2.95168 10.4258 3.14501" stroke="#161924" stroke-width="1.5" stroke-linecap="round" stroke-linejoin="round"/>
<path d="M20.5184 8.97302C20.8835 9.96588 21.0714 11.0152 21.0734 12.073" stroke="#161924" stroke-width="1.5" stroke-linecap="round" stroke-linejoin="round"/>
<path d="M18.9482 6.24305C18.2667 5.43427 17.4494 4.75038 16.5332 4.22205" stroke="#161924" stroke-width="1.5" stroke-linecap="round" stroke-linejoin="round"/>
<path d="M7.46676 4.22205C6.5507 4.75064 5.73353 5.4345 5.05176 6.24305" stroke="#161924" stroke-width="1.5" stroke-linecap="round" stroke-linejoin="round"/>
<path d="M2.9266 12.073C2.92845 11.0151 3.11631 9.96583 3.4816 8.97302" stroke="#161924" stroke-width="1.5" stroke-linecap="round" stroke-linejoin="round"/>
<path d="M7.4668 19.924C8.3822 20.4538 9.38387 20.818 10.4258 21" stroke="#161924" stroke-width="1.5" stroke-linecap="round" stroke-linejoin="round"/>
<path d="M3.48242 15.173C3.84259 16.1675 4.37393 17.0915 5.05242 17.903" stroke="#161924" stroke-width="1.5" stroke-linecap="round" stroke-linejoin="round"/>
<path d="M13.5742 21C14.6161 20.8179 15.6177 20.4536 16.5332 19.924" stroke="#161924" stroke-width="1.5" stroke-linecap="round" stroke-linejoin="round"/>
<path d="M18.9482 17.903C19.6267 17.0915 20.1581 16.1675 20.5182 15.173" stroke="#161924" stroke-width="1.5" stroke-linecap="round" stroke-linejoin="round"/>
<path d="M9.7832 14.2161L14.2154 9.78394" stroke="#161924" stroke-width="1.5" stroke-linecap="round" stroke-linejoin="round"/>
<path d="M14.5004 14.4004C14.5002 14.4556 14.4554 14.5001 14.4002 14.5C14.345 14.4999 14.3004 14.4552 14.3004 14.4C14.3004 14.3449 14.345 14.3001 14.4002 14.3C14.4554 14.2999 14.5002 14.3445 14.5004 14.3997V14.4004" stroke="#161924" stroke-width="1.5" stroke-linecap="round" stroke-linejoin="round"/>
<path d="M9.49961 9.59961C9.49981 9.54445 9.54464 9.49987 9.59979 9.49998C9.65495 9.50008 9.69961 9.54482 9.69961 9.59998C9.69961 9.65513 9.65495 9.69987 9.59979 9.69998C9.54464 9.70008 9.49981 9.6555 9.49961 9.60035V9.59961" stroke="#161924" stroke-width="1.5" stroke-linecap="round" stroke-linejoin="round"/>
</svg>
