<svg width="24" height="24" viewBox="0 0 24 24" fill="none" xmlns="http://www.w3.org/2000/svg">
<path fill-rule="evenodd" clip-rule="evenodd" d="M12.6065 3.27102L14.0565 2.56202C14.7255 2.23502 15.5345 2.49702 15.8835 3.15602L16.6405 4.58202C16.8405 4.95802 17.2025 5.22102 17.6225 5.29502L19.2125 5.57402C19.9465 5.70302 20.4455 6.39002 20.3415 7.12802L20.1155 8.72602C20.0555 9.14802 20.1945 9.57402 20.4905 9.88002L21.6125 11.04C22.1305 11.575 22.1305 12.425 21.6125 12.961L20.4905 14.121C20.1945 14.427 20.0555 14.853 20.1155 15.275L20.3415 16.873C20.4455 17.611 19.9465 18.298 19.2125 18.427L17.6225 18.706C17.2025 18.78 16.8405 19.043 16.6405 19.419L15.8835 20.845C15.5345 21.503 14.7265 21.766 14.0565 21.439L12.6065 20.73C12.2235 20.543 11.7765 20.543 11.3935 20.73L9.94352 21.439C9.27452 21.766 8.46552 21.504 8.11652 20.845L7.35952 19.418C7.15952 19.042 6.79752 18.779 6.37752 18.705L4.78752 18.426C4.05352 18.297 3.55452 17.61 3.65852 16.872L3.88452 15.274C3.94452 14.852 3.80552 14.426 3.50952 14.12L2.38752 12.96C1.86952 12.425 1.86952 11.575 2.38752 11.039L3.50952 9.87902C3.80552 9.57302 3.94452 9.14702 3.88452 8.72502L3.65952 7.12702C3.55452 6.39002 4.05452 5.70202 4.78852 5.57402L6.37852 5.29502C6.79752 5.22102 7.15952 4.95802 7.35952 4.58202L8.11652 3.15602C8.46552 2.49802 9.27352 2.23502 9.94352 2.56202L11.3935 3.27102C11.7755 3.45802 12.2235 3.45802 12.6065 3.27102Z" stroke="#161924" stroke-width="1.5" stroke-linecap="round" stroke-linejoin="round"/>
<path fill-rule="evenodd" clip-rule="evenodd" d="M14.5331 14.5V14.5C13.8451 14.5 13.2871 13.942 13.2871 13.254V10.747C13.2871 10.059 13.8451 9.50098 14.5331 9.50098V9.50098C15.2211 9.50098 15.7791 10.059 15.7791 10.747V13.254C15.7791 13.942 15.2211 14.5 14.5331 14.5Z" stroke="#161924" stroke-width="1.5" stroke-linecap="round" stroke-linejoin="round"/>
<path d="M8.19629 13.811C8.46729 14.224 8.92129 14.5 9.45429 14.5C10.3083 14.5 11.0003 13.808 11.0003 12.955C11.0003 12.265 10.4403 11.705 9.75029 11.705H8.37529L8.62529 9.5H10.7863" stroke="#161924" stroke-width="1.5" stroke-linecap="round" stroke-linejoin="round"/>
</svg>
