<svg width="24" height="24" viewBox="0 0 24 24" fill="none" xmlns="http://www.w3.org/2000/svg">
<path d="M9.99902 21.0037H14.0007" stroke="#161924" stroke-width="1.5" stroke-linecap="round" stroke-linejoin="round"/>
<path d="M9.99902 2.9963H14.0007" stroke="#161924" stroke-width="1.5" stroke-linecap="round" stroke-linejoin="round"/>
<path d="M2.9963 9.99915V14.0008" stroke="#161924" stroke-width="1.5" stroke-linecap="round" stroke-linejoin="round"/>
<path d="M21.0041 9.99915V14.0008" stroke="#161924" stroke-width="1.5" stroke-linecap="round" stroke-linejoin="round"/>
<path d="M6.99776 21.0037V21.0037C4.7877 21.0037 2.99609 19.2121 2.99609 17.0021V17.0021" stroke="#161924" stroke-width="1.5" stroke-linecap="round" stroke-linejoin="round"/>
<path d="M6.99776 21.0037C4.7877 21.0037 2.99609 19.2121 2.99609 17.0021" stroke="#161924" stroke-width="1.5" stroke-linecap="round" stroke-linejoin="round"/>
<path d="M17.002 2.99622C19.212 2.99622 21.0036 4.78782 21.0036 6.99788" stroke="#161924" stroke-width="1.5" stroke-linecap="round" stroke-linejoin="round"/>
<path d="M9.32324 14.6756L14.6744 9.32446" stroke="#161924" stroke-width="1.5" stroke-linecap="round" stroke-linejoin="round"/>
<path d="M14.9164 14.4882C15.0312 14.6068 15.0289 14.7958 14.9113 14.9116C14.7936 15.0274 14.6046 15.0267 14.4878 14.9099C14.3711 14.7932 14.3703 14.6042 14.4861 14.4865C14.6019 14.3688 14.791 14.3665 14.9095 14.4814L14.9164 14.4882" stroke="#161924" stroke-width="1.5" stroke-linecap="round" stroke-linejoin="round"/>
<path d="M9.51498 9.07988C9.62984 9.19847 9.62757 9.38749 9.5099 9.50329C9.39223 9.61909 9.2032 9.61834 9.08646 9.5016C8.96972 9.38486 8.96897 9.19583 9.08477 9.07816C9.20057 8.96049 9.38959 8.95822 9.50818 9.07308L9.51498 9.07988" stroke="#161924" stroke-width="1.5" stroke-linecap="round" stroke-linejoin="round"/>
<path d="M2.99609 6.99788C2.99609 4.78782 4.7877 2.99622 6.99776 2.99622" stroke="#161924" stroke-width="1.5" stroke-linecap="round" stroke-linejoin="round"/>
<path d="M21.0036 17.0021C21.0036 19.2121 19.212 21.0037 17.002 21.0037" stroke="#161924" stroke-width="1.5" stroke-linecap="round" stroke-linejoin="round"/>
</svg>
