<svg width="24" height="24" viewBox="0 0 24 24" fill="none" xmlns="http://www.w3.org/2000/svg">
<path d="M16.5769 20.8845L13.143 16.8446C12.858 16.5093 12.4402 16.3161 12.0001 16.3161C11.5601 16.3161 11.1422 16.5093 10.8572 16.8446L7.42334 20.8845" stroke="#161924" stroke-width="1.5" stroke-linecap="round" stroke-linejoin="round"/>
<circle cx="12" cy="12" r="10" stroke="#161924" stroke-width="1.5" stroke-linecap="round" stroke-linejoin="round"/>
<path d="M4.96484 19.0983L7.74584 14.584C7.97666 14.2094 8.03131 13.7523 7.89533 13.3338C7.75935 12.9153 7.44645 12.5776 7.0395 12.4102L2.13623 10.3927" stroke="#161924" stroke-width="1.5" stroke-linecap="round" stroke-linejoin="round"/>
<path d="M3.0752 7.50246L8.22785 8.75237C8.65548 8.85611 9.10711 8.76684 9.46311 8.50818C9.81911 8.24953 10.0436 7.8476 10.077 7.40883L10.4806 2.12213" stroke="#161924" stroke-width="1.5" stroke-linecap="round" stroke-linejoin="round"/>
<path d="M13.5195 2.12213L13.9231 7.40883C13.9565 7.8476 14.181 8.24954 14.537 8.50819C14.893 8.76685 15.3446 8.85612 15.7723 8.75237L20.9249 7.50246" stroke="#161924" stroke-width="1.5" stroke-linecap="round" stroke-linejoin="round"/>
<path d="M21.8638 10.3927L16.9605 12.4102C16.5535 12.5776 16.2406 12.9153 16.1047 13.3338C15.9687 13.7523 16.0233 14.2094 16.2542 14.584L19.0352 19.0983" stroke="#161924" stroke-width="1.5" stroke-linecap="round" stroke-linejoin="round"/>
<circle cx="12" cy="12" r="2" stroke="#161924" stroke-width="1.5" stroke-linecap="round" stroke-linejoin="round"/>
</svg>
