<svg width="24" height="24" viewBox="0 0 24 24" fill="none" xmlns="http://www.w3.org/2000/svg">
<path d="M8 17H6C4.34315 17 3 15.6569 3 14V6C3 4.34315 4.34315 3 6 3H18C19.6569 3 21 4.34315 21 6V11" stroke="#161924" stroke-width="1.5" stroke-linecap="round" stroke-linejoin="round"/>
<path fill-rule="evenodd" clip-rule="evenodd" d="M19.5558 22H15.0524C14.3836 22 13.7591 21.6658 13.3882 21.1093L11.2613 17.9186C10.8499 17.3015 10.9313 16.4799 11.4557 15.9555V15.9555C11.7475 15.6637 12.1432 15.4998 12.5559 15.4998C12.9685 15.4998 13.3642 15.6637 13.656 15.9555L14.5 16.7995V11.5C14.5 11.1022 14.658 10.7206 14.9393 10.4393C15.2206 10.158 15.6022 10 16 10V10C16.8284 10 17.5 10.6716 17.5 11.5V14.0131L20.3218 14.4733C21.3832 14.6464 22.1177 15.628 21.9844 16.6951L21.5404 20.248C21.4153 21.2489 20.5645 22 19.5558 22V22Z" stroke="#161924" stroke-width="1.5" stroke-linecap="round" stroke-linejoin="round"/>
<path d="M7.19824 10.3012L10.3007 7.19873" stroke="#161924" stroke-width="1.5" stroke-linecap="round" stroke-linejoin="round"/>
<path d="M7.0002 7.07467C7.00035 7.0333 7.03397 6.99987 7.07534 6.99995C7.1167 7.00003 7.1502 7.03358 7.1502 7.07495C7.1502 7.11632 7.1167 7.14987 7.07534 7.14995C7.03397 7.15003 7.00035 7.1166 7.0002 7.07523V7.07467" stroke="#161924" stroke-width="1.5" stroke-linecap="round" stroke-linejoin="round"/>
<path d="M10.4998 10.4253C10.4997 10.4667 10.466 10.5001 10.4247 10.5C10.3833 10.5 10.3498 10.4664 10.3498 10.425C10.3498 10.3837 10.3833 10.3501 10.4247 10.35C10.466 10.35 10.4997 10.3834 10.4998 10.4248V10.4253" stroke="#161924" stroke-width="1.5" stroke-linecap="round" stroke-linejoin="round"/>
</svg>
