<svg width="24" height="24" viewBox="0 0 24 24" fill="none" xmlns="http://www.w3.org/2000/svg">
<path d="M10.749 13.2506L13.2501 10.7495" stroke="#161924" stroke-width="1.5" stroke-linecap="round" stroke-linejoin="round"/>
<path d="M13.6285 13.5596C13.6482 13.5792 13.6482 13.611 13.6285 13.6307C13.6089 13.6503 13.5771 13.6503 13.5575 13.6307C13.548 13.6213 13.5427 13.6085 13.5427 13.5951C13.5427 13.5818 13.548 13.569 13.5575 13.5596C13.5773 13.5404 13.6087 13.5404 13.6285 13.5596" stroke="#161924" stroke-width="1.5" stroke-linecap="round" stroke-linejoin="round"/>
<path fill-rule="evenodd" clip-rule="evenodd" d="M17.2524 12C17.2524 14.9007 14.9009 17.2522 12.0002 17.2522C9.09953 17.2522 6.74805 14.9007 6.74805 12C6.74805 9.0993 9.09953 6.74781 12.0002 6.74781C13.3939 6.74569 14.731 7.29836 15.7164 8.28379C16.7019 9.26923 17.2546 10.6064 17.2524 12Z" stroke="#161924" stroke-width="1.5" stroke-linecap="round" stroke-linejoin="round"/>
<path fill-rule="evenodd" clip-rule="evenodd" d="M3.49682 13.4646L4.69732 15.0303L4.95542 16.9771C5.09773 18.0554 5.94363 18.9054 7.02128 19.0529L8.9741 19.313L10.5367 20.5035C11.4019 21.165 12.6028 21.165 13.468 20.5035L15.0326 19.309L16.9814 19.0509C18.0619 18.9074 18.9122 18.0575 19.0563 16.9771L19.3164 15.0243L20.5169 13.4606C21.1773 12.5959 21.1773 11.3961 20.5169 10.5314L19.3164 8.96573L19.0583 7.01892C18.9132 5.93861 18.0621 5.08958 16.9814 4.94706L15.0286 4.68695L13.466 3.49645C12.6008 2.835 11.3999 2.835 10.5347 3.49645L8.97009 4.68695L7.02128 4.94506C5.94155 5.08946 5.0923 5.93911 4.94842 7.01892L4.68831 8.97173L3.49682 10.5354C2.8357 11.3999 2.8357 12.6001 3.49682 13.4646Z" stroke="#161924" stroke-width="1.5" stroke-linecap="round" stroke-linejoin="round"/>
<path d="M10.3719 10.4403C10.3592 10.4276 10.3542 10.4091 10.3589 10.3918C10.3635 10.3745 10.3771 10.3609 10.3944 10.3563C10.4117 10.3516 10.4302 10.3566 10.4429 10.3693C10.4524 10.3787 10.4577 10.3915 10.4577 10.4048C10.4577 10.4181 10.4524 10.4309 10.4429 10.4403C10.4231 10.4595 10.3917 10.4595 10.3719 10.4403" stroke="#161924" stroke-width="1.5" stroke-linecap="round" stroke-linejoin="round"/>
</svg>
