<svg width="24" height="24" viewBox="0 0 24 24" fill="none" xmlns="http://www.w3.org/2000/svg">
<path fill-rule="evenodd" clip-rule="evenodd" d="M18.4157 6.41164L15.5865 3.58246C15.2114 3.2072 14.7025 2.99622 14.1719 2.99622H6.99693C5.8919 2.99622 4.99609 3.89202 4.99609 4.99705V19.0029C4.99609 20.1079 5.8919 21.0037 6.99693 21.0037H17.0011C18.1061 21.0037 19.0019 20.1079 19.0019 19.0029V7.82623C19.0019 7.29562 18.7909 6.78678 18.4157 6.41164Z" stroke="#323232" stroke-width="1.5" stroke-linecap="round" stroke-linejoin="round"/>
<path d="M10.7846 11.6869C10.8122 11.7145 10.8122 11.7593 10.7846 11.7869C10.757 11.8145 10.7122 11.8145 10.6846 11.7869C10.6569 11.7593 10.6569 11.7145 10.6846 11.6869C10.7122 11.6593 10.757 11.6593 10.7846 11.6869" stroke="#323232" stroke-width="1.5" stroke-linecap="round" stroke-linejoin="round"/>
<path d="M15.5006 12.2651C14.4242 12.0997 13.3294 12.4149 12.5057 13.1273C11.682 13.8397 11.2123 14.8776 11.2208 15.9667C11.222 16.1459 11.2364 16.3248 11.2638 16.5019" stroke="#323232" stroke-width="1.5" stroke-linecap="round" stroke-linejoin="round"/>
<rect x="8.49805" y="9.49896" width="7.00292" height="7.00292" rx="2.1" stroke="#323232" stroke-width="1.5" stroke-linecap="round" stroke-linejoin="round"/>
</svg>
