<svg width="24" height="24" viewBox="0 0 24 24" fill="none" xmlns="http://www.w3.org/2000/svg">
<path fill-rule="evenodd" clip-rule="evenodd" d="M12.8543 14.6471C12.6273 14.8736 12.3197 15.001 11.999 15.0012V15.0012C11.6782 15.001 11.3707 14.8736 11.1436 14.6471L9.69803 13.2005C9.1237 12.6026 9.1332 11.6552 9.71941 11.069C10.3056 10.4828 11.2531 10.4733 11.8509 11.0476L11.999 11.1997L12.152 11.0456C12.537 10.661 13.0979 10.511 13.6234 10.6521C14.1489 10.7932 14.5592 11.2039 14.6998 11.7295C14.8404 12.2552 14.6899 12.8159 14.3049 13.2005L12.8543 14.6471Z" stroke="#323232" stroke-width="1.5" stroke-linecap="round" stroke-linejoin="round"/>
<path fill-rule="evenodd" clip-rule="evenodd" d="M18.4157 6.41164L15.5865 3.58246C15.2114 3.2072 14.7025 2.99622 14.1719 2.99622H6.99693C5.8919 2.99622 4.99609 3.89202 4.99609 4.99705V19.0029C4.99609 20.1079 5.8919 21.0037 6.99693 21.0037H17.0011C18.1061 21.0037 19.0019 20.1079 19.0019 19.0029V7.82623C19.0019 7.29562 18.7909 6.78678 18.4157 6.41164Z" stroke="#323232" stroke-width="1.5" stroke-linecap="round" stroke-linejoin="round"/>
</svg>
