<svg width="24" height="24" viewBox="0 0 24 24" fill="none" xmlns="http://www.w3.org/2000/svg">
<path fill-rule="evenodd" clip-rule="evenodd" d="M15.0007 19.4031V10.8625C15.0007 10.4377 14.832 10.0303 14.5315 9.73006L12.2685 7.46712C11.9683 7.16665 11.5609 6.99792 11.1361 6.99792H5.59676C4.71274 6.99792 3.99609 7.71457 3.99609 8.59859V19.4031C3.99609 20.2871 4.71274 21.0038 5.59676 21.0038H13.4C14.284 21.0038 15.0007 20.2871 15.0007 19.4031V19.4031Z" stroke="#323232" stroke-width="1.5" stroke-linecap="round" stroke-linejoin="round"/>
<path d="M15.0005 17.002H18.402C19.286 17.002 20.0026 16.2854 20.0026 15.4014V4.99705C20.0026 3.89202 19.1068 2.99622 18.0018 2.99622H10.5987C9.71469 2.99622 8.99805 3.71286 8.99805 4.59688V6.99788" stroke="#323232" stroke-width="1.5" stroke-linecap="round" stroke-linejoin="round"/>
<path d="M14.9997 10.9996H11.7984C11.3564 10.9996 10.998 10.6413 10.998 10.1993V6.99792" stroke="#323232" stroke-width="1.5" stroke-linecap="round" stroke-linejoin="round"/>
</svg>
