<svg width="24" height="24" viewBox="0 0 24 24" fill="none" xmlns="http://www.w3.org/2000/svg">
<path d="M11.9992 15.4014C11.972 15.402 11.9502 15.4242 11.9502 15.4514C11.9502 15.4718 11.9625 15.4901 11.9813 15.4978C12.0001 15.5054 12.0217 15.501 12.0359 15.4865C12.0502 15.4719 12.0542 15.4503 12.0461 15.4316C12.0381 15.4129 12.0195 15.401 11.9992 15.4014V15.4014" stroke="#323232" stroke-width="1.5" stroke-linecap="round" stroke-linejoin="round"/>
<path d="M12 13.3756C12.8561 13.3787 13.5556 12.6928 13.5692 11.8368C13.5828 10.9808 12.9055 10.273 12.0497 10.2489C11.1939 10.2249 10.4779 10.8935 10.4434 11.7489" stroke="#323232" stroke-width="1.5" stroke-linecap="round" stroke-linejoin="round"/>
<path fill-rule="evenodd" clip-rule="evenodd" d="M18.4157 6.41164L15.5865 3.58246C15.2114 3.2072 14.7025 2.99622 14.1719 2.99622H6.99693C5.8919 2.99622 4.99609 3.89202 4.99609 4.99705V19.0029C4.99609 20.1079 5.8919 21.0037 6.99693 21.0037H17.0011C18.1061 21.0037 19.0019 20.1079 19.0019 19.0029V7.82623C19.0019 7.29562 18.7909 6.78678 18.4157 6.41164Z" stroke="#323232" stroke-width="1.5" stroke-linecap="round" stroke-linejoin="round"/>
</svg>
