<svg width="24" height="24" viewBox="0 0 24 24" fill="none" xmlns="http://www.w3.org/2000/svg">
<path fill-rule="evenodd" clip-rule="evenodd" d="M19.3303 3.01726L19.5 3.18957L19.6754 3.00416C19.9731 2.68656 20.3876 2.50445 20.8229 2.50008C21.2582 2.49571 21.6764 2.66946 21.9804 2.98102L22.016 3.01723C22.6613 3.68031 22.6613 4.73661 22.016 5.39969L20.2617 7.18096C20.0608 7.38508 19.7864 7.50003 19.5 7.50003C19.2135 7.50003 18.9391 7.38508 18.7382 7.18096L16.9839 5.39973C16.3387 4.73664 16.3387 3.68035 16.9839 3.01726V3.01726C17.2934 2.70292 17.716 2.5259 18.1571 2.5259C18.5982 2.5259 19.0208 2.70292 19.3303 3.01726Z" stroke="#323232" stroke-width="1.5" stroke-linecap="round" stroke-linejoin="round"/>
<path d="M13.8947 3.21254C9.97295 2.36051 5.95994 4.20189 4.04831 7.73058C2.13667 11.2593 2.7862 15.6265 5.64201 18.4462C8.49781 21.2658 12.873 21.8596 16.377 19.9032C19.8811 17.9467 21.6712 13.9106 20.7692 10" stroke="#323232" stroke-width="1.5" stroke-linecap="round" stroke-linejoin="round"/>
<path fill-rule="evenodd" clip-rule="evenodd" d="M15.5607 9.34711L14.1529 7.93934C13.8716 7.65804 13.4901 7.5 13.0922 7.5H9.5C8.67157 7.5 8 8.17157 8 9V15C8 15.8284 8.67157 16.5 9.5 16.5H14.5C15.3284 16.5 16 15.8284 16 15V10.4078C16 10.0099 15.842 9.62841 15.5607 9.34711V9.34711Z" stroke="#323232" stroke-width="1.5" stroke-linecap="round" stroke-linejoin="round"/>
</svg>
