<svg width="24" height="24" viewBox="0 0 24 24" fill="none" xmlns="http://www.w3.org/2000/svg">
<path d="M7.9338 15.0012V8.99872" stroke="#323232" stroke-width="1.5" stroke-linecap="round" stroke-linejoin="round"/>
<path d="M7.93359 8.99872H9.73434C10.6542 9.00037 11.399 9.74654 11.399 10.6664V10.6664C11.399 11.5875 10.6524 12.3341 9.73134 12.3341H7.99762" stroke="#323232" stroke-width="1.5" stroke-linecap="round" stroke-linejoin="round"/>
<path d="M13.5992 14.6291C13.7958 14.8636 14.0856 14.9997 14.3916 15.0012H14.9598C15.486 14.9995 15.9287 14.6066 15.993 14.0844C16.0572 13.5621 15.723 13.0736 15.2129 12.9444L14.7377 12.8253L14.2625 12.7063C13.7523 12.577 13.418 12.0882 13.4826 11.5658C13.5471 11.0434 13.9903 10.6507 14.5166 10.6494H15.0849C15.3908 10.6512 15.6805 10.7873 15.8772 11.0216" stroke="#323232" stroke-width="1.5" stroke-linecap="round" stroke-linejoin="round"/>
<path fill-rule="evenodd" clip-rule="evenodd" d="M5.99693 2.99622H18.0019C19.107 2.99622 20.0028 3.89202 20.0028 4.99705V19.0029C20.0028 20.1079 19.107 21.0037 18.0019 21.0037H5.99693C4.8919 21.0037 3.99609 20.1079 3.99609 19.0029V4.99705C3.99609 3.89202 4.8919 2.99622 5.99693 2.99622Z" stroke="#323232" stroke-width="1.5" stroke-linecap="round" stroke-linejoin="round"/>
</svg>
