<svg width="24" height="24" viewBox="0 0 24 24" fill="none" xmlns="http://www.w3.org/2000/svg">
<path fill-rule="evenodd" clip-rule="evenodd" d="M15.0007 19.403V10.8625C15.0007 10.4373 14.8316 10.0301 14.5315 9.73L12.2685 7.46706C11.9684 7.16693 11.5612 6.99786 11.1361 6.99786H5.59676C4.71239 6.99786 3.99609 7.71416 3.99609 8.59853V19.403C3.99609 20.2874 4.71239 21.0037 5.59676 21.0037H13.4C14.2844 21.0037 15.0007 20.2874 15.0007 19.403Z" stroke="#323232" stroke-width="1.5" stroke-linecap="round" stroke-linejoin="round"/>
<path d="M15.0005 17.002H18.402C19.2863 17.002 20.0026 16.2858 20.0026 15.4014V6.86083C20.0026 6.43565 19.8336 6.02848 19.5334 5.72835L17.2705 3.46541C16.9704 3.16529 16.5632 2.99622 16.138 2.99622H10.5987C9.71435 2.99622 8.99805 3.71251 8.99805 4.59688V6.99788" stroke="#323232" stroke-width="1.5" stroke-linecap="round" stroke-linejoin="round"/>
<path d="M20.0017 6.99788H16.8003C16.3581 6.99788 16 6.63973 16 6.19755V2.99622" stroke="#323232" stroke-width="1.5" stroke-linecap="round" stroke-linejoin="round"/>
<path d="M14.9997 10.9995H11.7984C11.3562 10.9995 10.998 10.6414 10.998 10.1992V6.99786" stroke="#323232" stroke-width="1.5" stroke-linecap="round" stroke-linejoin="round"/>
</svg>
