<svg width="24" height="24" viewBox="0 0 24 24" fill="none" xmlns="http://www.w3.org/2000/svg">
<path d="M6.99609 6.99788V4.99705C6.99609 3.89202 7.8919 2.99622 8.99693 2.99622H19.0011C20.1061 2.99622 21.0019 3.89202 21.0019 4.99705V19.0029C21.0019 20.1079 20.1061 21.0037 19.0011 21.0037H8.99693C7.8919 21.0037 6.99609 20.1079 6.99609 19.0029V17.002" stroke="#323232" stroke-width="1.5" stroke-linecap="round" stroke-linejoin="round"/>
<rect x="2.99609" y="6.99792" width="10.0042" height="10.0042" rx="2" stroke="#323232" stroke-width="1.5" stroke-linecap="round" stroke-linejoin="round"/>
<path d="M21.0029 9.07876H14" stroke="#323232" stroke-width="1.5" stroke-linecap="round" stroke-linejoin="round"/>
<path d="M21.0029 15.0012H14" stroke="#323232" stroke-width="1.5" stroke-linecap="round" stroke-linejoin="round"/>
<path d="M7.91036 11.8149V9.97913" stroke="#323232" stroke-width="1.5" stroke-linecap="round" stroke-linejoin="round"/>
<path d="M7.90937 13.8398C7.88531 13.8398 7.86226 13.8494 7.84534 13.8665C7.82843 13.8836 7.81906 13.9068 7.81933 13.9308C7.81933 13.9677 7.84162 14.001 7.87576 14.015C7.9099 14.029 7.94914 14.0211 7.97509 13.9948C8.00105 13.9686 8.00859 13.9293 7.99418 13.8953C7.97978 13.8613 7.94628 13.8394 7.90937 13.8398" stroke="#323232" stroke-width="1.5" stroke-linecap="round" stroke-linejoin="round"/>
</svg>
