<svg width="24" height="24" viewBox="0 0 24 24" fill="none" xmlns="http://www.w3.org/2000/svg">
<path d="M20.0021 7.9983H16.0004C15.4479 7.9983 15 7.5504 15 6.99788V2.99622" stroke="#323232" stroke-width="1.5" stroke-linecap="round" stroke-linejoin="round"/>
<path d="M5.99609 7.9983V4.99705C5.99609 3.89202 6.8919 2.99622 7.99693 2.99622H15.1719C15.7025 2.99622 16.2114 3.2072 16.5865 3.58246L19.4157 6.41164C19.7909 6.78678 20.0019 7.29562 20.0019 7.82623V19.0029C20.0019 20.1079 19.1061 21.0037 18.0011 21.0037H7.99693C6.8919 21.0037 5.99609 20.1079 5.99609 19.0029V18.0025" stroke="#323232" stroke-width="1.5" stroke-linecap="round" stroke-linejoin="round"/>
<rect x="2.99609" y="7.99835" width="10.0042" height="10.0042" rx="3" stroke="#323232" stroke-width="1.5" stroke-linecap="round" stroke-linejoin="round"/>
<path fill-rule="evenodd" clip-rule="evenodd" d="M8.73803 11.4328L10.0386 13.7337C10.1866 13.9979 10.1832 14.3209 10.0295 14.5819C9.87585 14.8428 9.59512 15.0025 9.29227 15.0013H6.70319C6.40115 15.001 6.12191 14.8406 5.96958 14.5798C5.81726 14.3189 5.8147 13.9969 5.96288 13.7337L7.25742 11.4328C7.40784 11.1653 7.69085 10.9998 7.99773 10.9998C8.3046 10.9998 8.58761 11.1653 8.73803 11.4328Z" stroke="#323232" stroke-width="1.5" stroke-linecap="round" stroke-linejoin="round"/>
</svg>
