<svg width="24" height="24" viewBox="0 0 24 24" fill="none" xmlns="http://www.w3.org/2000/svg">
<path d="M18.0019 10.9995V7.82623C18.0019 7.29601 17.7908 6.78679 17.4157 6.41164L14.5865 3.58246C14.2113 3.2073 13.7021 2.99622 13.1719 2.99622H5.99693C4.89147 2.99622 3.99609 3.89159 3.99609 4.99705V19.0029C3.99609 20.1083 4.89147 21.0037 5.99693 21.0037H10.999" stroke="#323232" stroke-width="1.5" stroke-linecap="round" stroke-linejoin="round"/>
<path d="M19.4531 15.8286H21.0008V14.2809" stroke="#323232" stroke-width="1.5" stroke-linecap="round" stroke-linejoin="round"/>
<path d="M15.993 19.176H14.4453V20.7236" stroke="#323232" stroke-width="1.5" stroke-linecap="round" stroke-linejoin="round"/>
<path d="M21.0031 18.6697C20.839 19.1469 20.5809 19.5971 20.1987 19.9783C18.8312 21.3459 16.6143 21.3459 15.2467 19.9783C15.0036 19.7352 14.8055 19.4641 14.6484 19.177" stroke="#323232" stroke-width="1.5" stroke-linecap="round" stroke-linejoin="round"/>
<path d="M20.7971 15.8276C20.64 15.5404 20.443 15.2693 20.1989 15.0262C18.8313 13.6587 16.6144 13.6587 15.2468 15.0262C14.8656 15.4074 14.6035 15.8576 14.4395 16.3348" stroke="#323232" stroke-width="1.5" stroke-linecap="round" stroke-linejoin="round"/>
<path d="M18.0021 7.9983H14.0004C13.4482 7.9983 13 7.55011 13 6.99788V2.99622" stroke="#323232" stroke-width="1.5" stroke-linecap="round" stroke-linejoin="round"/>
</svg>
