<svg width="24" height="24" viewBox="0 0 24 24" fill="none" xmlns="http://www.w3.org/2000/svg">
<path fill-rule="evenodd" clip-rule="evenodd" d="M21.0038 11.4998V20.0033C21.0038 20.5559 20.5559 21.0038 20.0034 21.0038H14.0009C13.4484 21.0038 13.0005 20.5559 13.0005 20.0033V11.4998C13.0005 10.9473 13.4484 10.4994 14.0009 10.4994H20.0034C20.5559 10.4994 21.0038 10.9473 21.0038 11.4998Z" stroke="#161924" stroke-width="1.5" stroke-linecap="round" stroke-linejoin="round"/>
<path d="M21.0038 14.0008H13.0005" stroke="#161924" stroke-width="1.5" stroke-linecap="round" stroke-linejoin="round"/>
<path d="M6.4978 6.99789H15.0013" stroke="#161924" stroke-width="1.5" stroke-linecap="round" stroke-linejoin="round"/>
<path d="M6.4978 10.4994H8.99884" stroke="#161924" stroke-width="1.5" stroke-linecap="round" stroke-linejoin="round"/>
<path d="M6.4978 14.0008H8.99884" stroke="#161924" stroke-width="1.5" stroke-linecap="round" stroke-linejoin="round"/>
<path d="M9.99925 18.0025H4.99717C3.89214 18.0025 2.99634 17.1067 2.99634 16.0016V4.99705C2.99634 3.89202 3.89214 2.99622 4.99717 2.99622H17.0022C18.1072 2.99622 19.003 3.89202 19.003 4.99705V7.9983" stroke="#161924" stroke-width="1.5" stroke-linecap="round" stroke-linejoin="round"/>
<path d="M15.7517 16.2018C15.724 16.2018 15.7017 16.2242 15.7017 16.2518C15.7017 16.2794 15.724 16.3018 15.7517 16.3018C15.7793 16.3018 15.8017 16.2794 15.8017 16.2518C15.8017 16.2242 15.7793 16.2018 15.7517 16.2018" stroke="#161924" stroke-width="1.5" stroke-linecap="round" stroke-linejoin="round"/>
<path d="M18.2526 16.2018C18.225 16.2018 18.2026 16.2242 18.2026 16.2518C18.2026 16.2794 18.225 16.3018 18.2526 16.3018C18.2803 16.3018 18.3027 16.2794 18.3027 16.2518C18.3027 16.2242 18.2803 16.2018 18.2526 16.2018" stroke="#161924" stroke-width="1.5" stroke-linecap="round" stroke-linejoin="round"/>
<path d="M15.7517 18.7028C15.724 18.7028 15.7017 18.7252 15.7017 18.7528C15.7017 18.7805 15.724 18.8029 15.7517 18.8029C15.7793 18.8029 15.8017 18.7805 15.8017 18.7528C15.8017 18.7252 15.7793 18.7028 15.7517 18.7028" stroke="#161924" stroke-width="1.5" stroke-linecap="round" stroke-linejoin="round"/>
<path d="M18.2526 18.7028C18.225 18.7028 18.2026 18.7252 18.2026 18.7528C18.2026 18.7805 18.225 18.8029 18.2526 18.8029C18.2803 18.8029 18.3027 18.7805 18.3027 18.7528C18.3027 18.7252 18.2803 18.7028 18.2526 18.7028" stroke="#161924" stroke-width="1.5" stroke-linecap="round" stroke-linejoin="round"/>
</svg>
