<svg width="24" height="24" viewBox="0 0 24 24" fill="none" xmlns="http://www.w3.org/2000/svg">
<path d="M20.0021 7.9983H16.0004C15.4479 7.9983 15 7.5504 15 6.99788V2.99622" stroke="#323232" stroke-width="1.5" stroke-linecap="round" stroke-linejoin="round"/>
<path d="M5.99609 7.9983V4.99705C5.99609 3.89202 6.8919 2.99622 7.99693 2.99622H15.1719C15.7025 2.99622 16.2114 3.2072 16.5865 3.58246L19.4157 6.41164C19.7909 6.78678 20.0019 7.29562 20.0019 7.82623V19.0029C20.0019 20.1079 19.1061 21.0037 18.0011 21.0037H7.99693C6.8919 21.0037 5.99609 20.1079 5.99609 19.0029V18.0025" stroke="#323232" stroke-width="1.5" stroke-linecap="round" stroke-linejoin="round"/>
<path fill-rule="evenodd" clip-rule="evenodd" d="M5.12398 17.3513L3.64737 15.8746C3.22979 15.4575 2.99545 14.8912 2.9961 14.301V11.6999C2.99598 11.1103 3.23028 10.5449 3.64737 10.1282L5.12398 8.65063C5.5408 8.2324 6.10717 7.99764 6.69764 7.99835H9.29872C9.88828 7.99824 10.4537 8.23254 10.8704 8.64963L12.348 10.1272C12.7659 10.5439 13.0006 11.1098 13.0003 11.6999V14.301C13.0004 14.8905 12.7661 15.456 12.349 15.8726L10.8714 17.3503C10.4549 17.7683 9.88886 18.0031 9.29872 18.0025H6.69764C6.10738 18.0032 5.54115 17.7688 5.12398 17.3513Z" stroke="#323232" stroke-width="1.5" stroke-linecap="round" stroke-linejoin="round"/>
<path d="M7.99826 12.8003V10.8535" stroke="#323232" stroke-width="1.5" stroke-linecap="round" stroke-linejoin="round"/>
<path d="M7.99826 14.9532C7.943 14.9532 7.89821 14.998 7.89821 15.0532C7.89821 15.1085 7.943 15.1533 7.99826 15.1533C8.05351 15.1533 8.0983 15.1085 8.0983 15.0532C8.0983 14.998 8.05351 14.9532 7.99826 14.9532" stroke="#323232" stroke-width="1.5" stroke-linecap="round" stroke-linejoin="round"/>
</svg>
