<svg width="24" height="24" viewBox="0 0 24 24" fill="none" xmlns="http://www.w3.org/2000/svg">
<path d="M17.5 21.5L16 20L17.5 18.5" stroke="#323232" stroke-width="1.5" stroke-linecap="round" stroke-linejoin="round"/>
<path d="M16 20H18C19.6569 20 21 18.6569 21 17" stroke="#323232" stroke-width="1.5" stroke-linecap="round" stroke-linejoin="round"/>
<path fill-rule="evenodd" clip-rule="evenodd" d="M5 21H11C12.1046 21 13 20.1046 13 19V12C13 10.8954 12.1046 10 11 10H5C3.89543 10 3 10.8954 3 12V19C3 20.1046 3.89543 21 5 21Z" stroke="#323232" stroke-width="1.5" stroke-linecap="round" stroke-linejoin="round"/>
<path d="M16.235 14H19C20.1046 14 21 13.1046 21 12V5C21 3.89543 20.1046 3 19 3H13C11.8954 3 11 3.89543 11 5V7" stroke="#323232" stroke-width="1.5" stroke-linecap="round" stroke-linejoin="round"/>
<path d="M6.5 2.5L8 4L6.5 5.5" stroke="#323232" stroke-width="1.5" stroke-linecap="round" stroke-linejoin="round"/>
<path d="M8 4H6C4.34315 4 3 5.34315 3 7" stroke="#323232" stroke-width="1.5" stroke-linecap="round" stroke-linejoin="round"/>
</svg>
