<svg width="24" height="24" viewBox="0 0 24 24" fill="none" xmlns="http://www.w3.org/2000/svg">
<path d="M13.9999 3.23074C10.0756 2.32605 6.02672 4.12988 4.07485 7.65245C2.12298 11.175 2.74022 15.5644 5.58788 18.4121C8.43553 21.2597 12.8249 21.8769 16.3475 19.9251C19.87 17.9732 21.6739 13.9243 20.7692 10" stroke="#323232" stroke-width="1.5" stroke-linecap="round" stroke-linejoin="round"/>
<path d="M17 5.50085H20" stroke="#323232" stroke-width="1.5" stroke-linecap="round" stroke-linejoin="round"/>
<path d="M18.5 7V4" stroke="#323232" stroke-width="1.5" stroke-linecap="round" stroke-linejoin="round"/>
<path fill-rule="evenodd" clip-rule="evenodd" d="M15.5607 9.34711L14.1529 7.93934C13.8716 7.65804 13.4901 7.5 13.0922 7.5H9.5C8.67157 7.5 8 8.17157 8 9V15C8 15.8284 8.67157 16.5 9.5 16.5H14.5C15.3284 16.5 16 15.8284 16 15V10.4078C16 10.0099 15.842 9.62841 15.5607 9.34711V9.34711Z" stroke="#323232" stroke-width="1.5" stroke-linecap="round" stroke-linejoin="round"/>
</svg>
