<svg width="24" height="24" viewBox="0 0 24 24" fill="none" xmlns="http://www.w3.org/2000/svg">
<path d="M6.99609 6.99788V4.99705C6.99609 3.89202 7.8919 2.99622 8.99693 2.99622H19.0011C20.1061 2.99622 21.0019 3.89202 21.0019 4.99705V19.0029C21.0019 20.1079 20.1061 21.0037 19.0011 21.0037H8.99693C7.8919 21.0037 6.99609 20.1079 6.99609 19.0029V17.002" stroke="#323232" stroke-width="1.5" stroke-linecap="round" stroke-linejoin="round"/>
<rect x="2.99609" y="6.99792" width="10.0042" height="10.0042" rx="2" stroke="#323232" stroke-width="1.5" stroke-linecap="round" stroke-linejoin="round"/>
<path d="M21.0033 9.07876H13" stroke="#323232" stroke-width="1.5" stroke-linecap="round" stroke-linejoin="round"/>
<path d="M21.0033 15.0012H13" stroke="#323232" stroke-width="1.5" stroke-linecap="round" stroke-linejoin="round"/>
<path d="M6.41406 9.97717H8.9151C9.46762 9.97717 9.91552 10.4251 9.91552 10.9776V11.4778C9.91552 12.0303 9.46762 12.4782 8.9151 12.4782H6.41406" stroke="#323232" stroke-width="1.5" stroke-linecap="round" stroke-linejoin="round"/>
<path d="M6.41427 13.9788V9.97717" stroke="#323232" stroke-width="1.5" stroke-linecap="round" stroke-linejoin="round"/>
</svg>
