<svg width="24" height="24" viewBox="0 0 24 24" fill="none" xmlns="http://www.w3.org/2000/svg">
<path fill-rule="evenodd" clip-rule="evenodd" d="M17 21H7C4.79354 20.9935 3.00646 19.2065 3 17V7C3.00646 4.79354 4.79354 3.00646 7 3H17C19.2065 3.00646 20.9935 4.79354 21 7V17C20.9935 19.2065 19.2065 20.9935 17 21Z" stroke="#323232" stroke-width="1.5" stroke-linecap="round" stroke-linejoin="round"/>
<path fill-rule="evenodd" clip-rule="evenodd" d="M15.5607 8.694L14.306 7.43934C14.0247 7.15804 13.6432 7 13.2453 7H9.5C8.67157 7 8 7.67157 8 8.5V15.5C8 16.3284 8.67157 17 9.5 17H14.5C15.3284 17 16 16.3284 16 15.5V9.75465C16 9.35683 15.842 8.9753 15.5607 8.694V8.694Z" stroke="#323232" stroke-width="1.5" stroke-linecap="round" stroke-linejoin="round"/>
</svg>
