<svg width="24" height="24" viewBox="0 0 24 24" fill="none" xmlns="http://www.w3.org/2000/svg">
<path d="M17 1.5C19.7614 1.5 22 3.73858 22 6.5" stroke="#323232" stroke-width="1.5" stroke-linecap="round" stroke-linejoin="round"/>
<path d="M17 4.5C18.1046 4.5 19 5.39543 19 6.5" stroke="#323232" stroke-width="1.5" stroke-linecap="round" stroke-linejoin="round"/>
<path d="M13 3H8C5.23858 3 3 5.23858 3 8V16C3 18.7614 5.23858 21 8 21H16C18.7614 21 21 18.7614 21 16V11" stroke="#323232" stroke-width="1.5" stroke-linecap="round" stroke-linejoin="round"/>
<path fill-rule="evenodd" clip-rule="evenodd" d="M15.5607 9.34711L14.1529 7.93934C13.8716 7.65804 13.4901 7.5 13.0922 7.5H9.5C8.67157 7.5 8 8.17157 8 9V15C8 15.8284 8.67157 16.5 9.5 16.5H14.5C15.3284 16.5 16 15.8284 16 15V10.4078C16 10.0099 15.842 9.62841 15.5607 9.34711V9.34711Z" stroke="#323232" stroke-width="1.5" stroke-linecap="round" stroke-linejoin="round"/>
</svg>
