<svg width="24" height="24" viewBox="0 0 24 24" fill="none" xmlns="http://www.w3.org/2000/svg">
<path d="M20.582 9.353C20.8551 10.209 20.996 11.1016 21 12C21 16.9706 16.9706 21 12 21C7.02944 21 3 16.9706 3 12C3 7.02944 7.02944 3 12 3C12.8984 3.00399 13.791 3.14495 14.647 3.418" stroke="#323232" stroke-width="1.5" stroke-linecap="round" stroke-linejoin="round"/>
<path d="M17.7988 5.06196L18.9999 6.26196L20.9988 4.26196" stroke="#323232" stroke-width="1.5" stroke-linecap="round" stroke-linejoin="round"/>
<path fill-rule="evenodd" clip-rule="evenodd" d="M15.5607 9.34711L14.1529 7.93934C13.8716 7.65804 13.4901 7.5 13.0922 7.5H9.5C8.67157 7.5 8 8.17157 8 9V15C8 15.8284 8.67157 16.5 9.5 16.5H14.5C15.3284 16.5 16 15.8284 16 15V10.4078C16 10.0099 15.842 9.62841 15.5607 9.34711V9.34711Z" stroke="#323232" stroke-width="1.5" stroke-linecap="round" stroke-linejoin="round"/>
</svg>
