<svg width="24" height="24" viewBox="0 0 24 24" fill="none" xmlns="http://www.w3.org/2000/svg">
<path d="M11.9992 14.9012C11.972 14.9017 11.9502 14.924 11.9502 14.9512C11.9502 14.9715 11.9625 14.9898 11.9813 14.9975C12.0001 15.0052 12.0217 15.0007 12.0359 14.9862C12.0502 14.9717 12.0542 14.95 12.0461 14.9314C12.0381 14.9127 12.0195 14.9008 11.9992 14.9012V14.9012" stroke="#323232" stroke-width="1.5" stroke-linecap="round" stroke-linejoin="round"/>
<path d="M12 12.8754C12.8561 12.8785 13.5556 12.1926 13.5692 11.3365C13.5828 10.4805 12.9055 9.77273 12.0497 9.74868C11.1939 9.72462 10.4779 10.3932 10.4434 11.2487" stroke="#323232" stroke-width="1.5" stroke-linecap="round" stroke-linejoin="round"/>
<path fill-rule="evenodd" clip-rule="evenodd" d="M18.4157 6.41164L15.5865 3.58246C15.2114 3.2072 14.7025 2.99622 14.1719 2.99622H6.99693C5.8919 2.99622 4.99609 3.89202 4.99609 4.99705V19.0029C4.99609 20.1079 5.8919 21.0037 6.99693 21.0037H17.0011C18.1061 21.0037 19.0019 20.1079 19.0019 19.0029V7.82623C19.0019 7.29562 18.7909 6.78678 18.4157 6.41164Z" stroke="#323232" stroke-width="1.5" stroke-linecap="round" stroke-linejoin="round"/>
</svg>
