<svg width="24" height="24" viewBox="0 0 24 24" fill="none" xmlns="http://www.w3.org/2000/svg">
<path fill-rule="evenodd" clip-rule="evenodd" d="M18.414 6.414L15.586 3.586C15.211 3.211 14.702 3 14.172 3H7C5.895 3 5 3.895 5 5V19C5 20.105 5.895 21 7 21H17C18.105 21 19 20.105 19 19V7.828C19 7.298 18.789 6.789 18.414 6.414V6.414Z" stroke="#323232" stroke-width="1.5" stroke-linecap="round" stroke-linejoin="round"/>
<path d="M19 8H15C14.448 8 14 7.552 14 7V3" stroke="#323232" stroke-width="1.5" stroke-linecap="round" stroke-linejoin="round"/>
<path d="M10.0059 6C10.0029 6 10.0009 6.002 10.0009 6.005C10.0009 6.008 10.0029 6.01 10.0059 6.01C10.0089 6.01 10.0109 6.008 10.0109 6.005C10.0109 6.002 10.0089 6 10.0059 6" stroke="#323232" stroke-width="1.5" stroke-linecap="round" stroke-linejoin="round"/>
<path d="M9.99414 9C9.99114 9 9.98914 9.002 9.98914 9.005C9.98914 9.008 9.99114 9.01 9.99414 9.01C9.99714 9.01 9.99914 9.008 9.99914 9.005C9.99914 9.002 9.99714 9 9.99414 9" stroke="#323232" stroke-width="1.5" stroke-linecap="round" stroke-linejoin="round"/>
<path d="M10.0059 11.99C10.0029 11.99 10.0009 11.992 10.0009 11.995C10.0009 11.998 10.0029 12 10.0059 12C10.0089 12 10.0109 11.998 10.0109 11.995C10.0109 11.992 10.0089 11.99 10.0059 11.99" stroke="#323232" stroke-width="1.5" stroke-linecap="round" stroke-linejoin="round"/>
<path d="M9.99414 15C9.99114 15 9.98914 15.002 9.98914 15.005C9.98914 15.008 9.99114 15.01 9.99414 15.01C9.99714 15.01 9.99914 15.008 9.99914 15.005C9.99914 15.002 9.99714 15 9.99414 15" stroke="#323232" stroke-width="1.5" stroke-linecap="round" stroke-linejoin="round"/>
<path d="M10.0059 17.99C10.0029 17.99 10.0009 17.992 10.0009 17.995C10.0009 17.998 10.0029 18 10.0059 18C10.0089 18 10.0109 17.998 10.0109 17.995C10.0109 17.992 10.0089 17.99 10.0059 17.99" stroke="#323232" stroke-width="1.5" stroke-linecap="round" stroke-linejoin="round"/>
</svg>
