<svg width="24" height="24" viewBox="0 0 24 24" fill="none" xmlns="http://www.w3.org/2000/svg">
<path d="M12.9995 9.49896H12.1912C10.7038 9.49896 9.49805 10.7047 9.49805 12.1921V13.0004" stroke="#323232" stroke-width="1.5" stroke-linecap="round" stroke-linejoin="round"/>
<path fill-rule="evenodd" clip-rule="evenodd" d="M9.99888 16.0017H8.99846C8.44595 16.0017 7.99805 15.5538 7.99805 15.0013V14.0008C7.99805 13.4483 8.44595 13.0004 8.99846 13.0004H9.99888C10.5514 13.0004 10.9993 13.4483 10.9993 14.0008V15.0013C10.9993 15.5538 10.5514 16.0017 9.99888 16.0017Z" stroke="#323232" stroke-width="1.5" stroke-linecap="round" stroke-linejoin="round"/>
<path fill-rule="evenodd" clip-rule="evenodd" d="M15.0008 10.9996H14.0004C13.4479 10.9996 13 10.5517 13 9.99919V8.99877C13 8.44625 13.4479 7.99835 14.0004 7.99835H15.0008C15.5533 7.99835 16.0013 8.44625 16.0013 8.99877V9.99919C16.0013 10.5517 15.5533 10.9996 15.0008 10.9996Z" stroke="#323232" stroke-width="1.5" stroke-linecap="round" stroke-linejoin="round"/>
<path fill-rule="evenodd" clip-rule="evenodd" d="M5.99693 2.99622H18.0019C19.107 2.99622 20.0028 3.89202 20.0028 4.99705V19.0029C20.0028 20.1079 19.107 21.0037 18.0019 21.0037H5.99693C4.8919 21.0037 3.99609 20.1079 3.99609 19.0029V4.99705C3.99609 3.89202 4.8919 2.99622 5.99693 2.99622Z" stroke="#323232" stroke-width="1.5" stroke-linecap="round" stroke-linejoin="round"/>
</svg>
