<svg width="24" height="24" viewBox="0 0 24 24" fill="none" xmlns="http://www.w3.org/2000/svg">
<path d="M19.0019 12V7.82623C19.0019 7.29601 18.7908 6.78679 18.4157 6.41164L15.5865 3.58246C15.2113 3.2073 14.7021 2.99622 14.1719 2.99622H6.99693C5.89147 2.99622 4.99609 3.89159 4.99609 4.99705V19.0029C4.99609 20.1083 5.89147 21.0037 6.99693 21.0037H10.9986" stroke="#323232" stroke-width="1.5" stroke-linecap="round" stroke-linejoin="round"/>
<path d="M19.0021 7.9983H15.0004C14.4482 7.9983 14 7.55011 14 6.99788V2.99622" stroke="#323232" stroke-width="1.5" stroke-linecap="round" stroke-linejoin="round"/>
<path d="M16.0008 17.0021L14 19.0029L16.0008 21.0037" stroke="#323232" stroke-width="1.5" stroke-linecap="round" stroke-linejoin="round"/>
<path d="M18.0114 15.0012H19.0118C20.1173 15.0012 21.0127 15.8966 21.0127 17.0021V17.0021C21.0127 18.1075 20.1173 19.0029 19.0118 19.0029H14.0098" stroke="#323232" stroke-width="1.5" stroke-linecap="round" stroke-linejoin="round"/>
</svg>
