<svg width="24" height="24" viewBox="0 0 24 24" fill="none" xmlns="http://www.w3.org/2000/svg">
<path d="M20.0021 7.9983H16.0004C15.4479 7.9983 15 7.5504 15 6.99788V2.99622" stroke="#323232" stroke-width="1.5" stroke-linecap="round" stroke-linejoin="round"/>
<path d="M5.99609 7.9983V4.99705C5.99609 3.89202 6.8919 2.99622 7.99693 2.99622H15.1719C15.702 2.99622 16.2104 3.20682 16.5855 3.58146L19.4157 6.41164C19.7912 6.78703 20.0021 7.29627 20.0019 7.82723V19.0029C20.0019 20.1079 19.1061 21.0037 18.0011 21.0037H7.99693C6.8919 21.0037 5.99609 20.1079 5.99609 19.0029V18.0025" stroke="#323232" stroke-width="1.5" stroke-linecap="round" stroke-linejoin="round"/>
<path d="M6.08789 11.4417H9.90748" stroke="#323232" stroke-width="1.5" stroke-linecap="round" stroke-linejoin="round"/>
<path d="M7.99826 11.4418V14.9432" stroke="#323232" stroke-width="1.5" stroke-linecap="round" stroke-linejoin="round"/>
<rect x="2.99609" y="7.99835" width="10.0042" height="10.0042" rx="3" stroke="#323232" stroke-width="1.5" stroke-linecap="round" stroke-linejoin="round"/>
</svg>
