<svg width="24" height="24" viewBox="0 0 24 24" fill="none" xmlns="http://www.w3.org/2000/svg">
<path fill-rule="evenodd" clip-rule="evenodd" d="M9.5391 12.4342L11.789 14.9082C11.8429 14.9674 11.9192 15.0011 11.9991 15.0011C12.0791 15.0011 12.1554 14.9674 12.2092 14.9082L14.4591 12.4342C14.5478 12.3369 14.5577 12.1915 14.4832 12.083L13.4827 10.6214C13.4306 10.5451 13.3441 10.4994 13.2516 10.4994H10.7426C10.6498 10.4993 10.563 10.545 10.5105 10.6214L9.51009 12.083C9.43763 12.1928 9.44961 12.3378 9.5391 12.4342V12.4342Z" stroke="#323232" stroke-width="1.5" stroke-linecap="round" stroke-linejoin="round"/>
<path fill-rule="evenodd" clip-rule="evenodd" d="M18.4157 6.41164L15.5865 3.58246C15.2114 3.2072 14.7025 2.99622 14.1719 2.99622H6.99693C5.8919 2.99622 4.99609 3.89202 4.99609 4.99705V19.0029C4.99609 20.1079 5.8919 21.0037 6.99693 21.0037H17.0011C18.1061 21.0037 19.0019 20.1079 19.0019 19.0029V7.82623C19.0019 7.29562 18.7909 6.78678 18.4157 6.41164Z" stroke="#323232" stroke-width="1.5" stroke-linecap="round" stroke-linejoin="round"/>
</svg>
