<svg width="24" height="24" viewBox="0 0 24 24" fill="none" xmlns="http://www.w3.org/2000/svg">
<path d="M20 10V5C20 3.89543 19.1046 3 18 3H5C3.89543 3 3 3.89543 3 5V19C3 20.1046 3.89543 21 5 21H9" stroke="#161924" stroke-width="1.5" stroke-linecap="round" stroke-linejoin="round"/>
<path d="M7 8H16" stroke="#161924" stroke-width="1.5" stroke-linecap="round" stroke-linejoin="round"/>
<path d="M7 12H9" stroke="#161924" stroke-width="1.5" stroke-linecap="round" stroke-linejoin="round"/>
<path d="M7 16H8" stroke="#161924" stroke-width="1.5" stroke-linecap="round" stroke-linejoin="round"/>
<path fill-rule="evenodd" clip-rule="evenodd" d="M22 15V19C22 20.1046 21.1046 21 20 21H14C12.8954 21 12 20.1046 12 19V15C12 13.8954 12.8954 13 14 13H20C21.1046 13 22 13.8954 22 15Z" stroke="#161924" stroke-width="1.5" stroke-linecap="round" stroke-linejoin="round"/>
<path d="M19.2383 16L17.4927 16.8819C17.1748 17.0394 16.8017 17.0394 16.4838 16.8819L14.7383 16" stroke="#161924" stroke-width="1.5" stroke-linecap="round" stroke-linejoin="round"/>
</svg>
