<svg width="24" height="24" viewBox="0 0 24 24" fill="none" xmlns="http://www.w3.org/2000/svg">
<path d="M19 12.981V7.828C19 7.298 18.789 6.789 18.414 6.414L15.586 3.586C15.211 3.211 14.702 3 14.172 3H7C5.895 3 5 3.895 5 5V19C5 20.105 5.895 21 7 21H14.868" stroke="#323232" stroke-width="1.5" stroke-linecap="round" stroke-linejoin="round"/>
<path d="M19 8H15C14.448 8 14 7.552 14 7V3" stroke="#323232" stroke-width="1.5" stroke-linecap="round" stroke-linejoin="round"/>
<path d="M18.5554 16.223L16.6104 18.168L15.4434 17.001" stroke="#323232" stroke-width="1.5" stroke-linecap="round" stroke-linejoin="round"/>
<path fill-rule="evenodd" clip-rule="evenodd" d="M12.2752 17.814L12.9392 18.683L13.0833 19.764C13.1633 20.364 13.6343 20.836 14.2343 20.916L15.3182 21.061L16.1863 21.725C16.6663 22.092 17.3333 22.092 17.8133 21.725L18.6823 21.061H18.6813L19.7632 20.917C20.3632 20.837 20.8352 20.366 20.9152 19.766L21.0603 18.682C21.0603 18.683 21.3962 18.243 21.7242 17.814C22.0912 17.334 22.0912 16.667 21.7242 16.187L21.0603 15.318L20.9163 14.237C20.8363 13.637 20.3653 13.165 19.7653 13.085L18.6813 12.94L17.8133 12.276C17.3333 11.909 16.6663 11.909 16.1863 12.276L15.3173 12.94H15.3182L14.2362 13.084C13.6362 13.164 13.1642 13.635 13.0842 14.235L12.9392 15.319C12.9392 15.318 12.6032 15.758 12.2752 16.187C11.9082 16.667 11.9082 17.333 12.2752 17.814V17.814Z" stroke="#323232" stroke-width="1.5" stroke-linecap="round" stroke-linejoin="round"/>
</svg>
