<svg width="24" height="24" viewBox="0 0 24 24" fill="none" xmlns="http://www.w3.org/2000/svg">
<path fill-rule="evenodd" clip-rule="evenodd" d="M5.99693 2.99622H18.0019C19.107 2.99622 20.0028 3.89202 20.0028 4.99705V19.0029C20.0028 20.1079 19.107 21.0037 18.0019 21.0037H5.99693C4.8919 21.0037 3.99609 20.1079 3.99609 19.0029V4.99705C3.99609 3.89202 4.8919 2.99622 5.99693 2.99622Z" stroke="#323232" stroke-width="1.5" stroke-linecap="round" stroke-linejoin="round"/>
<path d="M15.7502 9.8991C15.7226 9.8991 15.7002 9.9215 15.7002 9.94912C15.7002 9.97675 15.7226 9.99914 15.7502 9.99914C15.7778 9.99914 15.8002 9.97675 15.8002 9.94912C15.8002 9.9215 15.7778 9.8991 15.7502 9.8991" stroke="#323232" stroke-width="1.5" stroke-linecap="round" stroke-linejoin="round"/>
<path d="M15.7502 12.2501V15.0013" stroke="#323232" stroke-width="1.5" stroke-linecap="round" stroke-linejoin="round"/>
<path d="M8.51953 13.4346H12.4772" stroke="#323232" stroke-width="1.5" stroke-linecap="round" stroke-linejoin="round"/>
<path d="M7.99805 15.0012L9.94186 9.16979C9.97586 9.0677 10.0714 8.9988 10.179 8.99872H10.8192C10.9268 8.9988 11.0223 9.0677 11.0563 9.16979L13.0001 15.0012" stroke="#323232" stroke-width="1.5" stroke-linecap="round" stroke-linejoin="round"/>
</svg>
