<svg width="24" height="24" viewBox="0 0 24 24" fill="none" xmlns="http://www.w3.org/2000/svg">
<path fill-rule="evenodd" clip-rule="evenodd" d="M18.414 6.414L15.586 3.586C15.211 3.211 14.702 3 14.172 3H7C5.895 3 5 3.895 5 5V19C5 20.105 5.895 21 7 21H17C18.105 21 19 20.105 19 19V7.828C19 7.298 18.789 6.789 18.414 6.414V6.414Z" stroke="#323232" stroke-width="1.5" stroke-linecap="round" stroke-linejoin="round"/>
<path d="M19 8H15C14.448 8 14 7.552 14 7V3" stroke="#323232" stroke-width="1.5" stroke-linecap="round" stroke-linejoin="round"/>
<path d="M15.1947 18C15.0397 17.61 14.7987 17.259 14.4907 16.974V16.974C13.9687 16.491 13.2847 16.222 12.5737 16.222H11.4257C10.7147 16.222 10.0297 16.491 9.50869 16.974V16.974C9.19969 17.259 8.95969 17.61 8.80469 18" stroke="#323232" stroke-width="1.5" stroke-linecap="round" stroke-linejoin="round"/>
<path d="M13.1491 11.069C13.7837 11.7036 13.7837 12.7325 13.1491 13.3671C12.5144 14.0017 11.4856 14.0017 10.851 13.3671C10.2163 12.7325 10.2163 11.7036 10.851 11.069C11.4856 10.4344 12.5145 10.4344 13.1491 11.069" stroke="#323232" stroke-width="1.5" stroke-linecap="round" stroke-linejoin="round"/>
</svg>
