<svg width="24" height="24" viewBox="0 0 24 24" fill="none" xmlns="http://www.w3.org/2000/svg">
<path d="M13 21H17C18.6569 21 20 19.6569 20 18V8.50931C20 7.71366 19.6839 6.95061 19.1213 6.388L16.612 3.87868C16.0494 3.31607 15.2863 3 14.4907 3H7C5.34315 3 4 4.34315 4 6V9" stroke="#323232" stroke-width="1.5" stroke-linecap="round" stroke-linejoin="round"/>
<path d="M20 8.5H16.5C15.3954 8.5 14.5 7.60457 14.5 6.5V3" stroke="#323232" stroke-width="1.5" stroke-linecap="round" stroke-linejoin="round"/>
<path d="M6.50013 21C4.68005 21 3.03919 19.9036 2.34267 18.2221C1.64616 16.5406 2.03116 14.605 3.31815 13.318C4.60514 12.031 6.54067 11.646 8.22221 12.3426C9.90374 13.0391 11.0001 14.6799 11.0001 16.5C11.0001 18.9853 8.98541 21 6.50013 21" stroke="#323232" stroke-width="1.5" stroke-linecap="round" stroke-linejoin="round"/>
<path d="M7.74922 16.5001C7.74919 16.5277 7.72679 16.55 7.69919 16.55C7.67159 16.55 7.64922 16.5276 7.64922 16.5C7.64922 16.4724 7.67159 16.45 7.69919 16.45C7.72679 16.45 7.74919 16.4723 7.74922 16.4999V16.5001" stroke="#323232" stroke-width="1.5" stroke-linecap="round" stroke-linejoin="round"/>
<path d="M5.35078 16.5001C5.35075 16.5277 5.32835 16.55 5.30075 16.55C5.27315 16.55 5.25078 16.5276 5.25078 16.5C5.25078 16.4724 5.27315 16.45 5.30075 16.45C5.32835 16.45 5.35075 16.4723 5.35078 16.4999V16.5001" stroke="#323232" stroke-width="1.5" stroke-linecap="round" stroke-linejoin="round"/>
</svg>
