<svg width="24" height="24" viewBox="0 0 24 24" fill="none" xmlns="http://www.w3.org/2000/svg">
<path d="M18.0019 9.99913V7.82623C18.0019 7.29601 17.7908 6.78679 17.4157 6.41164L14.5865 3.58246C14.2113 3.2073 13.7021 2.99622 13.1719 2.99622H5.99693C4.89147 2.99622 3.99609 3.89159 3.99609 4.99705V19.0029C3.99609 20.1083 4.89147 21.0037 5.99693 21.0037H10.999" stroke="#323232" stroke-width="1.5" stroke-linecap="round" stroke-linejoin="round"/>
<path d="M18.0021 7.9983H14.0004C13.4482 7.9983 13 7.55011 13 6.99788V2.99622" stroke="#323232" stroke-width="1.5" stroke-linecap="round" stroke-linejoin="round"/>
<path d="M21.003 21.0037L19.3633 19.364" stroke="#323232" stroke-width="1.5" stroke-linecap="round" stroke-linejoin="round"/>
<path d="M16.7256 13.0004C18.7834 13.0004 20.4511 14.6691 20.4511 16.7259C20.4511 18.7828 18.7824 20.4515 16.7256 20.4515C14.6687 20.4515 13 18.7838 13 16.7259C13 14.6681 14.6687 13.0004 16.7256 13.0004" stroke="#323232" stroke-width="1.5" stroke-linecap="round" stroke-linejoin="round"/>
<path d="M18.1746 16.0016L16.3628 17.8134L15.2754 16.7259" stroke="#323232" stroke-width="1.5" stroke-linecap="round" stroke-linejoin="round"/>
</svg>
