<svg width="24" height="24" viewBox="0 0 24 24" fill="none" xmlns="http://www.w3.org/2000/svg">
<path d="M4 8.5H7.5C8.60457 8.5 9.5 7.60457 9.5 6.5V3" stroke="#161924" stroke-width="1.5" stroke-linecap="round" stroke-linejoin="round"/>
<path d="M15 21H7C5.34315 21 4 19.6569 4 18V8.50931C4 7.71366 4.31607 6.95061 4.87868 6.388L7.388 3.87868C7.95061 3.31607 8.71366 3 9.50931 3H17C18.6569 3 20 4.34315 20 6V9" stroke="#161924" stroke-width="1.5" stroke-linecap="round" stroke-linejoin="round"/>
<path d="M13 15H15" stroke="#161924" stroke-width="1.5" stroke-linecap="round" stroke-linejoin="round"/>
<path d="M14 18H15" stroke="#161924" stroke-width="1.5" stroke-linecap="round" stroke-linejoin="round"/>
<path d="M20 12V12.8079" stroke="#161924" stroke-width="1.5" stroke-linecap="round" stroke-linejoin="round"/>
<path d="M18 14.4236C18.1168 13.431 19.005 12.7134 20 12.8078" stroke="#161924" stroke-width="1.5" stroke-linecap="round" stroke-linejoin="round"/>
<path d="M20 20V19.1921" stroke="#161924" stroke-width="1.5" stroke-linecap="round" stroke-linejoin="round"/>
<path d="M22 17.5764C21.8832 18.569 20.995 19.2865 20 19.1921" stroke="#161924" stroke-width="1.5" stroke-linecap="round" stroke-linejoin="round"/>
<path d="M21.9491 14.0711C21.6482 13.267 20.8569 12.7542 20 12.8079" stroke="#161924" stroke-width="1.5" stroke-linecap="round" stroke-linejoin="round"/>
<path d="M18.051 17.9289C18.3519 18.733 19.1432 19.2458 20.0001 19.1921" stroke="#161924" stroke-width="1.5" stroke-linecap="round" stroke-linejoin="round"/>
<path d="M18 14.4236V14.4236C18 15.1076 18.4828 15.6966 19.1536 15.8307L20.8464 16.1693C21.5172 16.3034 22 16.8924 22 17.5764V17.5764" stroke="#161924" stroke-width="1.5" stroke-linecap="round" stroke-linejoin="round"/>
</svg>
