<svg width="24" height="24" viewBox="0 0 24 24" fill="none" xmlns="http://www.w3.org/2000/svg">
<rect x="12" y="17.2522" width="3.00125" height="3.75156" stroke="#161924" stroke-width="1.5" stroke-linecap="round" stroke-linejoin="round"/>
<rect x="15.0015" y="13.0004" width="3.00125" height="8.00333" stroke="#161924" stroke-width="1.5" stroke-linecap="round" stroke-linejoin="round"/>
<path d="M20.0034 9.99913V4.99705C20.0034 3.89202 19.1076 2.99622 18.0026 2.99622H4.99717C3.89214 2.99622 2.99634 3.89202 2.99634 4.99705V17.002C2.99634 18.1071 3.89214 19.0029 4.99717 19.0029H8.99884" stroke="#161924" stroke-width="1.5" stroke-linecap="round" stroke-linejoin="round"/>
<path d="M9.24902 10.9996H12.0002" stroke="#161924" stroke-width="1.5" stroke-linecap="round" stroke-linejoin="round"/>
<path d="M9.24902 7.12295H16.0018" stroke="#161924" stroke-width="1.5" stroke-linecap="round" stroke-linejoin="round"/>
<path d="M6.12277 11.1247C6.19183 11.1247 6.24782 11.0687 6.24782 10.9996C6.24782 10.9305 6.19183 10.8745 6.12277 10.8745C6.0537 10.8745 5.99771 10.9305 5.99771 10.9996C5.99771 11.0687 6.0537 11.1247 6.12277 11.1247" stroke="#161924" stroke-width="1.5" stroke-linecap="round" stroke-linejoin="round"/>
<path d="M6.12277 7.248C6.19183 7.248 6.24782 7.19201 6.24782 7.12295C6.24782 7.05389 6.19183 6.9979 6.12277 6.9979C6.0537 6.9979 5.99771 7.05389 5.99771 7.12295C5.99771 7.19201 6.0537 7.248 6.12277 7.248" stroke="#161924" stroke-width="1.5" stroke-linecap="round" stroke-linejoin="round"/>
<rect x="18.0027" y="15.2513" width="3.00125" height="5.7524" stroke="#161924" stroke-width="1.5" stroke-linecap="round" stroke-linejoin="round"/>
</svg>
