<svg width="24" height="24" viewBox="0 0 24 24" fill="none" xmlns="http://www.w3.org/2000/svg">
<path fill-rule="evenodd" clip-rule="evenodd" d="M18.4157 6.41164L15.5865 3.58246C15.2114 3.2072 14.7025 2.99622 14.1719 2.99622H6.99693C5.8919 2.99622 4.99609 3.89202 4.99609 4.99705V19.0029C4.99609 20.1079 5.8919 21.0037 6.99693 21.0037H17.0011C18.1061 21.0037 19.0019 20.1079 19.0019 19.0029V7.82623C19.0019 7.29562 18.7909 6.78678 18.4157 6.41164Z" stroke="#323232" stroke-width="1.5" stroke-linecap="round" stroke-linejoin="round"/>
<path fill-rule="evenodd" clip-rule="evenodd" d="M12.74 11.4328L14.0405 13.7337C14.1886 13.9979 14.1851 14.3209 14.0315 14.5819C13.8778 14.8428 13.5971 15.0025 13.2942 15.0013H10.7051C10.4031 15.001 10.1239 14.8406 9.97154 14.5798C9.81921 14.3189 9.81666 13.9969 9.96483 13.7337L11.2594 11.4328C11.4098 11.1653 11.6928 10.9998 11.9997 10.9998C12.3066 10.9998 12.5896 11.1653 12.74 11.4328Z" stroke="#323232" stroke-width="1.5" stroke-linecap="round" stroke-linejoin="round"/>
</svg>
