<svg width="24" height="24" viewBox="0 0 24 24" fill="none" xmlns="http://www.w3.org/2000/svg">
<path d="M19 11V7.828C19 7.298 18.789 6.789 18.414 6.414L15.586 3.586C15.211 3.211 14.702 3 14.172 3H7C5.895 3 5 3.895 5 5V19C5 20.105 5.895 21 7 21H11" stroke="#323232" stroke-width="1.5" stroke-linecap="round" stroke-linejoin="round"/>
<path d="M19 8H15C14.448 8 14 7.552 14 7V3" stroke="#323232" stroke-width="1.5" stroke-linecap="round" stroke-linejoin="round"/>
<path fill-rule="evenodd" clip-rule="evenodd" d="M13.5603 18.306C13.2403 17.821 13.2403 17.181 13.5603 16.696C14.5503 15.199 16.1043 14 17.6593 14C19.2143 14 20.7673 15.199 21.7583 16.695C22.0793 17.18 22.0793 17.821 21.7583 18.305C20.7663 19.801 19.2133 21 17.6593 21C16.1043 21.001 14.5503 19.802 13.5603 18.306Z" stroke="#323232" stroke-width="1.5" stroke-linecap="round" stroke-linejoin="round"/>
<path d="M17.7752 17.384C17.8402 17.449 17.8402 17.553 17.7752 17.618C17.7102 17.683 17.6062 17.683 17.5412 17.618C17.4762 17.553 17.4762 17.449 17.5412 17.384C17.6062 17.319 17.7112 17.319 17.7752 17.384" stroke="#323232" stroke-width="1.5" stroke-linecap="round" stroke-linejoin="round"/>
</svg>
