<svg width="24" height="24" viewBox="0 0 24 24" fill="none" xmlns="http://www.w3.org/2000/svg">
<path d="M19 11V7.828C19 7.298 18.789 6.789 18.414 6.414L15.586 3.586C15.211 3.211 14.702 3 14.172 3H7C5.895 3 5 3.895 5 5V19C5 20.105 5.895 21 7 21H11" stroke="#323232" stroke-width="1.5" stroke-linecap="round" stroke-linejoin="round"/>
<path d="M19 8H15C14.448 8 14 7.552 14 7V3" stroke="#323232" stroke-width="1.5" stroke-linecap="round" stroke-linejoin="round"/>
<path fill-rule="evenodd" clip-rule="evenodd" d="M15.489 20.544L14.456 19.511C14.164 19.22 14 18.824 14 18.412V16.59C14 16.178 14.164 15.782 14.456 15.49L15.489 14.457C15.78 14.164 16.176 14 16.588 14H18.41C18.822 14 19.218 14.164 19.51 14.456L20.544 15.49C20.836 15.782 21 16.177 21 16.59V18.412C21 18.824 20.836 19.22 20.544 19.512L19.51 20.546C19.22 20.836 18.824 21 18.411 21H16.589C16.176 21 15.78 20.836 15.489 20.544V20.544Z" stroke="#323232" stroke-width="1.5" stroke-linecap="round" stroke-linejoin="round"/>
</svg>
