<svg width="24" height="24" viewBox="0 0 24 24" fill="none" xmlns="http://www.w3.org/2000/svg">
<path d="M15 17H19C20.1046 17 21 16.1046 21 15V7.45411C21 6.65846 20.684 5.8954 20.1214 5.33279L18.6672 3.87868C18.1046 3.31607 17.3416 3 16.5459 3H10.957C9.85246 3 8.95703 3.89543 8.95703 5V7" stroke="#323232" stroke-width="1.5" stroke-linecap="round" stroke-linejoin="round"/>
<path fill-rule="evenodd" clip-rule="evenodd" d="M14.1213 9.33279L12.6672 7.87868C12.1046 7.31607 11.3415 7 10.5459 7H5C3.89543 7 3 7.89543 3 9V19C3 20.1046 3.89543 21 5 21H13C14.1046 21 15 20.1046 15 19V11.4541C15 10.6585 14.6839 9.8954 14.1213 9.33279Z" stroke="#323232" stroke-width="1.5" stroke-linecap="round" stroke-linejoin="round"/>
</svg>
