<svg width="24" height="24" viewBox="0 0 24 24" fill="none" xmlns="http://www.w3.org/2000/svg">
<path d="M19.0019 10.9995V7.82623C19.0019 7.29601 18.7908 6.78679 18.4157 6.41164L15.5865 3.58246C15.2113 3.2073 14.7021 2.99622 14.1719 2.99622H6.99693C5.89147 2.99622 4.99609 3.89159 4.99609 4.99705V19.0029C4.99609 20.1083 5.89147 21.0037 6.99693 21.0037H11.999" stroke="#323232" stroke-width="1.5" stroke-linecap="round" stroke-linejoin="round"/>
<path d="M19.0021 7.9983H15.0004C14.4482 7.9983 14 7.55011 14 6.99788V2.99622" stroke="#323232" stroke-width="1.5" stroke-linecap="round" stroke-linejoin="round"/>
<path fill-rule="evenodd" clip-rule="evenodd" d="M15.7783 14.0008C15.3481 14.0008 15 14.3489 15 14.7791V21.0037L16.5566 19.4471H21.2256C21.6558 19.4471 22.0039 19.0989 22.0039 18.6687V14.7781C22.0029 14.3489 21.6548 14.0008 21.2246 14.0008H15.7783Z" stroke="#323232" stroke-width="1.5" stroke-linecap="round" stroke-linejoin="round"/>
</svg>
