<svg width="24" height="24" viewBox="0 0 24 24" fill="none" xmlns="http://www.w3.org/2000/svg">
<path d="M19 11V7.828C19 7.298 18.789 6.789 18.414 6.414L15.586 3.586C15.211 3.211 14.702 3 14.172 3H7C5.895 3 5 3.895 5 5V19C5 20.105 5.895 21 7 21H11" stroke="#323232" stroke-width="1.5" stroke-linecap="round" stroke-linejoin="round"/>
<path d="M19 8H15C14.448 8 14 7.552 14 7V3" stroke="#323232" stroke-width="1.5" stroke-linecap="round" stroke-linejoin="round"/>
<path fill-rule="evenodd" clip-rule="evenodd" d="M17.1465 20.707L20.7065 17.147C21.0975 16.756 21.0975 16.123 20.7065 15.733L19.1205 14.147C18.7295 13.756 18.0965 13.756 17.7065 14.147L14.1465 17.707C13.9585 17.895 13.8535 18.149 13.8535 18.414V21H16.4395C16.7045 21 16.9585 20.895 17.1465 20.707Z" stroke="#323232" stroke-width="1.5" stroke-linecap="round" stroke-linejoin="round"/>
</svg>
