<svg width="24" height="24" viewBox="0 0 24 24" fill="none" xmlns="http://www.w3.org/2000/svg">
<path d="M18.0025 14.0009V19.003C18.0025 20.108 17.1067 21.0038 16.0017 21.0038H4.99708C3.89205 21.0038 2.99625 20.108 2.99625 19.003V4.99717C2.99625 3.89214 3.89205 2.99634 4.99708 2.99634H16.0017C17.1067 2.99634 18.0025 3.89214 18.0025 4.99717V7.99842" stroke="#161924" stroke-width="1.5" stroke-linecap="round" stroke-linejoin="round"/>
<path fill-rule="evenodd" clip-rule="evenodd" d="M13.0004 13.4146V16.0017H15.5875C15.8528 16.0017 16.1072 15.8962 16.2948 15.7085L20.3825 11.6208C21.2109 10.7919 21.2109 9.44852 20.3825 8.61959V8.61959C19.5536 7.79119 18.2102 7.79119 17.3813 8.61959L13.2935 12.7073C13.1059 12.8949 13.0004 13.1493 13.0004 13.4146Z" stroke="#161924" stroke-width="1.5" stroke-linecap="round" stroke-linejoin="round"/>
<path d="M6.99792 12.0002H9.99917" stroke="#161924" stroke-width="1.5" stroke-linecap="round" stroke-linejoin="round"/>
<path d="M6.99792 16.0017H9.99917" stroke="#161924" stroke-width="1.5" stroke-linecap="round" stroke-linejoin="round"/>
<path d="M6.99792 7.9985H14.0008" stroke="#161924" stroke-width="1.5" stroke-linecap="round" stroke-linejoin="round"/>
</svg>
