<svg width="24" height="24" viewBox="0 0 24 24" fill="none" xmlns="http://www.w3.org/2000/svg">
<path d="M19.0019 10.9995V7.82623C19.0019 7.29601 18.7908 6.78679 18.4157 6.41164L15.5865 3.58246C15.2113 3.2073 14.7021 2.99622 14.1719 2.99622H6.99693C5.89147 2.99622 4.99609 3.89159 4.99609 4.99705V19.0029C4.99609 20.1083 5.89147 21.0037 6.99693 21.0037H11.999" stroke="#323232" stroke-width="1.5" stroke-linecap="round" stroke-linejoin="round"/>
<path d="M19.0021 7.9983H15.0004C14.4482 7.9983 14 7.55011 14 6.99788V2.99622" stroke="#323232" stroke-width="1.5" stroke-linecap="round" stroke-linejoin="round"/>
<path d="M18.3454 20.0263L20.1012 20.9487C20.4433 21.1288 20.8425 20.8377 20.7774 20.4575L20.4423 18.5027L21.8629 17.1191C22.14 16.85 21.9869 16.3798 21.6048 16.3248L19.642 16.0397L18.7646 14.2599C18.5935 13.9138 18.0993 13.9138 17.9292 14.2599L17.0519 16.0397L15.0891 16.3248C14.7069 16.3808 14.5538 16.85 14.831 17.1191L16.2515 18.5027L15.9154 20.4585C15.8504 20.8387 16.2495 21.1288 16.5917 20.9497L18.3474 20.0273" stroke="#323232" stroke-width="1.5" stroke-linecap="round" stroke-linejoin="round"/>
</svg>
