<svg width="24" height="24" viewBox="0 0 24 24" fill="none" xmlns="http://www.w3.org/2000/svg">
<path fill-rule="evenodd" clip-rule="evenodd" d="M5.99693 2.99622H18.0019C19.107 2.99622 20.0028 3.89202 20.0028 4.99705V19.0029C20.0028 20.1079 19.107 21.0037 18.0019 21.0037H5.99693C4.8919 21.0037 3.99609 20.1079 3.99609 19.0029V4.99705C3.99609 3.89202 4.8919 2.99622 5.99693 2.99622Z" stroke="#323232" stroke-width="1.5" stroke-linecap="round" stroke-linejoin="round"/>
<path fill-rule="evenodd" clip-rule="evenodd" d="M8.71985 11.5788L11.7211 14.8802C11.7928 14.9592 11.8945 15.0043 12.0012 15.0043C12.1079 15.0043 12.2097 14.9592 12.2813 14.8802L15.2826 11.5788C15.4002 11.4497 15.4134 11.2566 15.3146 11.1126L13.983 9.16179C13.9133 9.05969 13.7976 8.99865 13.6739 8.99872H10.3245C10.2009 8.99865 10.0852 9.05969 10.0154 9.16179L8.68684 11.1116C8.5881 11.2561 8.60177 11.4496 8.71985 11.5788Z" stroke="#323232" stroke-width="1.5" stroke-linecap="round" stroke-linejoin="round"/>
</svg>
