<svg width="24" height="24" viewBox="0 0 24 24" fill="none" xmlns="http://www.w3.org/2000/svg">
<path d="M18.0019 12V7.82623C18.0019 7.29601 17.7908 6.78679 17.4157 6.41164L14.5865 3.58246C14.2113 3.2073 13.7021 2.99622 13.1719 2.99622H5.99693C4.89147 2.99622 3.99609 3.89159 3.99609 4.99705V19.0029C3.99609 20.1083 4.89147 21.0037 5.99693 21.0037H11.9994" stroke="#323232" stroke-width="1.5" stroke-linecap="round" stroke-linejoin="round"/>
<path d="M18.0021 7.9983H14.0004C13.4482 7.9983 13 7.55011 13 6.99788V2.99622" stroke="#323232" stroke-width="1.5" stroke-linecap="round" stroke-linejoin="round"/>
<path fill-rule="evenodd" clip-rule="evenodd" d="M17.5015 15.6435C17.7696 15.3414 18.2318 15.0012 18.9391 15.0012C20.1726 15.0012 21.0029 16.1187 21.0029 17.1601C21.0019 19.336 18.1937 21.0037 17.5015 21.0037C16.8092 21.0037 14 19.336 14 17.1601C14 16.1187 14.8283 15.0012 16.0639 15.0012C16.7692 15.0012 17.2323 15.3414 17.5015 15.6435Z" stroke="#323232" stroke-width="1.5" stroke-linecap="round" stroke-linejoin="round"/>
</svg>
