<svg width="24" height="24" viewBox="0 0 24 24" fill="none" xmlns="http://www.w3.org/2000/svg">
<path d="M8.99884 21.0037H4.99717C3.89214 21.0037 2.99634 20.1079 2.99634 19.0029V4.99705C2.99634 3.89202 3.89214 2.99622 4.99717 2.99622H17.0022C18.1072 2.99622 19.003 3.89202 19.003 4.99705V7.9983" stroke="#161924" stroke-width="1.5" stroke-linecap="round" stroke-linejoin="round"/>
<path fill-rule="evenodd" clip-rule="evenodd" d="M12 21.0037L14.6251 20.6796C14.8098 20.6567 14.9816 20.573 15.1133 20.4415L21.4739 14.0808C22.1785 13.3793 22.1811 12.2396 21.4799 11.5348L21.4739 11.5298V11.5298C20.7724 10.8253 19.6327 10.8226 18.9279 11.5238V11.5298L12.6253 17.8324C12.497 17.9598 12.4141 18.1256 12.3892 18.3046L12 21.0037Z" stroke="#161924" stroke-width="1.5" stroke-linecap="round" stroke-linejoin="round"/>
<path fill-rule="evenodd" clip-rule="evenodd" d="M7.99843 17.0021V17.0021C7.16966 17.0021 6.4978 16.3303 6.4978 15.5015V15.5015C6.4978 14.6727 7.16966 14.0009 7.99843 14.0009V14.0009C8.8272 14.0009 9.49905 14.6727 9.49905 15.5015V15.5015C9.49905 16.3303 8.8272 17.0021 7.99843 17.0021Z" stroke="#161924" stroke-width="1.5" stroke-linecap="round" stroke-linejoin="round"/>
<path d="M6.4978 6.99789H14.5011" stroke="#161924" stroke-width="1.5" stroke-linecap="round" stroke-linejoin="round"/>
<path d="M6.4978 10.4994H10.4995" stroke="#161924" stroke-width="1.5" stroke-linecap="round" stroke-linejoin="round"/>
</svg>
