<svg width="24" height="24" viewBox="0 0 24 24" fill="none" xmlns="http://www.w3.org/2000/svg">
<path d="M19 11V7.828C19 7.298 18.789 6.789 18.414 6.414L15.586 3.586C15.211 3.211 14.702 3 14.172 3H7C5.895 3 5 3.895 5 5V19C5 20.105 5.895 21 7 21H13" stroke="#323232" stroke-width="1.5" stroke-linecap="round" stroke-linejoin="round"/>
<path d="M19 8H15C14.448 8 14 7.552 14 7V3" stroke="#323232" stroke-width="1.5" stroke-linecap="round" stroke-linejoin="round"/>
<path fill-rule="evenodd" clip-rule="evenodd" d="M22 17.5C22 19.437 20.437 21 18.5 21C16.563 21 15 19.437 15 17.5C15 15.563 16.563 14 18.5 14C20.437 14 22 15.563 22 17.5Z" stroke="#323232" stroke-width="1.3125" stroke-linecap="round" stroke-linejoin="round"/>
<path d="M16.0254 19.974L20.9734 15.026" stroke="#323232" stroke-width="1.3125" stroke-linecap="round" stroke-linejoin="round"/>
</svg>
