<svg width="24" height="24" viewBox="0 0 24 24" fill="none" xmlns="http://www.w3.org/2000/svg">
<path d="M14 21H17C18.6569 21 20 19.6569 20 18V8.50931C20 7.71366 19.6839 6.95061 19.1213 6.388L16.612 3.87868C16.0494 3.31607 15.2863 3 14.4907 3H7C5.34315 3 4 4.34315 4 6V12" stroke="#323232" stroke-width="1.5" stroke-linecap="round" stroke-linejoin="round"/>
<path d="M20 8.5H16.5C15.3954 8.5 14.5 7.60457 14.5 6.5V3" stroke="#323232" stroke-width="1.5" stroke-linecap="round" stroke-linejoin="round"/>
<path d="M7.03536 17.9646C7.05488 17.9842 7.05488 18.0158 7.03535 18.0354C7.01583 18.0549 6.98417 18.0549 6.96465 18.0354C6.94512 18.0158 6.94512 17.9842 6.96464 17.9646C6.97402 17.9553 6.98674 17.95 7 17.95C7.01326 17.95 7.02598 17.9553 7.03536 17.9646" stroke="#323232" stroke-width="1.5" stroke-linecap="round" stroke-linejoin="round"/>
<path fill-rule="evenodd" clip-rule="evenodd" d="M7 21C8.52203 21.0134 9.94043 20.2306 10.7405 18.9357V18.9357C11.0865 18.3599 11.0865 17.6402 10.7405 17.0644V17.0644C9.94043 15.7695 8.52203 14.9867 7 15C5.47797 14.9867 4.05957 15.7695 3.2595 17.0643V17.0643C2.9135 17.6402 2.9135 18.3599 3.2595 18.9357V18.9357C4.05956 20.2306 5.47797 21.0134 7 21Z" stroke="#323232" stroke-width="1.5" stroke-linecap="round" stroke-linejoin="round"/>
</svg>
