<svg width="24" height="24" viewBox="0 0 24 24" fill="none" xmlns="http://www.w3.org/2000/svg">
<path d="M4 19C3.99985 19.5303 4.21037 20.0389 4.58523 20.414C4.9601 20.7891 5.46861 20.9999 5.9989 21H6" stroke="#323232" stroke-width="1.5" stroke-linecap="round" stroke-linejoin="round"/>
<path d="M4 12V11" stroke="#323232" stroke-width="1.5" stroke-linecap="round" stroke-linejoin="round"/>
<path d="M4 16V15" stroke="#323232" stroke-width="1.5" stroke-linecap="round" stroke-linejoin="round"/>
<path d="M4 8C3.99985 7.46971 4.21037 6.96108 4.58523 6.58601C4.9601 6.21094 5.46861 6.00014 5.9989 6H6" stroke="#323232" stroke-width="1.5" stroke-linecap="round" stroke-linejoin="round"/>
<path d="M10 21H9" stroke="#323232" stroke-width="1.5" stroke-linecap="round" stroke-linejoin="round"/>
<path d="M14 21H13" stroke="#323232" stroke-width="1.5" stroke-linecap="round" stroke-linejoin="round"/>
<path d="M19 19C19.0001 19.5303 18.7896 20.0389 18.4148 20.414C18.0399 20.7891 17.5314 20.9999 17.0011 21H17" stroke="#323232" stroke-width="1.5" stroke-linecap="round" stroke-linejoin="round"/>
<path fill-rule="evenodd" clip-rule="evenodd" d="M19.4142 5.28159L17.7184 3.58579C17.3433 3.21071 16.8346 3 16.3042 3H12C10.8954 3 10 3.89543 10 5V13C10 14.1046 10.8954 15 12 15H18C19.1046 15 20 14.1046 20 13V6.69581C20 6.16537 19.7893 5.65666 19.4142 5.28159Z" stroke="#323232" stroke-width="1.5" stroke-linecap="round" stroke-linejoin="round"/>
</svg>
