<svg width="24" height="24" viewBox="0 0 24 24" fill="none" xmlns="http://www.w3.org/2000/svg">
<path fill-rule="evenodd" clip-rule="evenodd" d="M18.414 6.414L15.586 3.586C15.211 3.211 14.702 3 14.172 3H7C5.895 3 5 3.895 5 5V19C5 20.105 5.895 21 7 21H17C18.105 21 19 20.105 19 19V7.828C19 7.298 18.789 6.789 18.414 6.414V6.414Z" stroke="#323232" stroke-width="1.5" stroke-linecap="round" stroke-linejoin="round"/>
<path d="M19 8H15C14.448 8 14 7.552 14 7V3" stroke="#323232" stroke-width="1.5" stroke-linecap="round" stroke-linejoin="round"/>
<path d="M11.9982 17.023L13.7532 17.945C14.0952 18.125 14.4942 17.834 14.4292 17.454L14.0942 15.5L15.5142 14.117C15.7912 13.848 15.6382 13.378 15.2562 13.323L13.2942 13.038L12.4172 11.259C12.2462 10.913 11.7522 10.913 11.5822 11.259L10.7052 13.038L8.74319 13.323C8.36119 13.379 8.20819 13.848 8.48519 14.117L9.90519 15.5L9.56919 17.455C9.50419 17.835 9.90319 18.125 10.2452 17.946L12.0002 17.024" stroke="#323232" stroke-width="1.5" stroke-linecap="round" stroke-linejoin="round"/>
</svg>
