<svg width="24" height="24" viewBox="0 0 24 24" fill="none" xmlns="http://www.w3.org/2000/svg">
<path d="M19.0019 10.9995V7.82623C19.0019 7.29601 18.7908 6.78679 18.4157 6.41164L15.5865 3.58246C15.2113 3.2073 14.7021 2.99622 14.1719 2.99622H6.99693C5.89147 2.99622 4.99609 3.89159 4.99609 4.99705V19.0029C4.99609 20.1083 5.89147 21.0037 6.99693 21.0037H11.999" stroke="#323232" stroke-width="1.5" stroke-linecap="round" stroke-linejoin="round"/>
<path d="M19.0021 7.9983H15.0004C14.4482 7.9983 14 7.55011 14 6.99788V2.99622" stroke="#323232" stroke-width="1.5" stroke-linecap="round" stroke-linejoin="round"/>
<path fill-rule="evenodd" clip-rule="evenodd" d="M14.3451 17.5813L17.3444 20.8797C17.4944 21.0447 17.7536 21.0447 17.9046 20.8797C18.5859 20.1314 20.3146 18.2286 20.9049 17.5803C21.0219 17.4512 21.0359 17.2582 20.9369 17.1131L19.6083 15.1643C19.5383 15.0622 19.4232 15.0012 19.2992 15.0012H15.9488C15.8247 15.0012 15.7097 15.0622 15.6397 15.1643L14.3111 17.1131C14.2131 17.2582 14.2271 17.4512 14.3451 17.5813Z" stroke="#323232" stroke-width="1.5" stroke-linecap="round" stroke-linejoin="round"/>
</svg>
