<svg width="24" height="24" viewBox="0 0 24 24" fill="none" xmlns="http://www.w3.org/2000/svg">
<path d="M8 18H5C3.89543 18 3 17.1046 3 16V3" stroke="#323232" stroke-width="1.5" stroke-linecap="round" stroke-linejoin="round"/>
<path d="M8 7H3" stroke="#323232" stroke-width="1.5" stroke-linecap="round" stroke-linejoin="round"/>
<path fill-rule="evenodd" clip-rule="evenodd" d="M18.0848 3H12.5C11.6716 3 11 3.67157 11 4.5V9.5C11 10.3284 11.6716 11 12.5 11H19.5C20.3284 11 21 10.3284 21 9.5V5.91523C21 5.51741 20.842 5.13587 20.5607 4.85457L19.1454 3.43934C18.8641 3.15804 18.4826 3 18.0848 3Z" stroke="#323232" stroke-width="1.5" stroke-linecap="round" stroke-linejoin="round"/>
<path fill-rule="evenodd" clip-rule="evenodd" d="M18.0848 14H12.5C11.6716 14 11 14.6716 11 15.5V20.5C11 21.3284 11.6716 22 12.5 22H19.5C20.3284 22 21 21.3284 21 20.5V16.9152C21 16.5174 20.842 16.1359 20.5607 15.8546L19.1454 14.4393C18.8641 14.158 18.4826 14 18.0848 14Z" stroke="#323232" stroke-width="1.5" stroke-linecap="round" stroke-linejoin="round"/>
</svg>
