<svg width="24" height="24" viewBox="0 0 24 24" fill="none" xmlns="http://www.w3.org/2000/svg">
<path fill-rule="evenodd" clip-rule="evenodd" d="M18.414 6.414L15.586 3.586C15.211 3.211 14.702 3 14.172 3H7C5.895 3 5 3.895 5 5V19C5 20.105 5.895 21 7 21H17C18.105 21 19 20.105 19 19V7.828C19 7.298 18.789 6.789 18.414 6.414V6.414Z" stroke="#323232" stroke-width="1.5" stroke-linecap="round" stroke-linejoin="round"/>
<path d="M19 8H15C14.448 8 14 7.552 14 7V3" stroke="#323232" stroke-width="1.5" stroke-linecap="round" stroke-linejoin="round"/>
<path d="M8.49914 16.966C8.49914 16.963 8.49714 16.961 8.49414 16.961C8.49114 16.961 8.48914 16.963 8.48914 16.966C8.48914 16.969 8.49114 16.971 8.49414 16.971C8.49714 16.971 8.49914 16.969 8.49914 16.966" stroke="#323232" stroke-width="1.5" stroke-linecap="round" stroke-linejoin="round"/>
<path d="M8 10.995H16" stroke="#323232" stroke-width="1.5" stroke-linecap="round" stroke-linejoin="round"/>
<path d="M8 13.995H16" stroke="#323232" stroke-width="1.5" stroke-linecap="round" stroke-linejoin="round"/>
<path d="M15.4991 17C15.4991 16.997 15.4971 16.995 15.4941 16.995C15.4911 16.995 15.4891 16.997 15.4891 17C15.4891 17.003 15.4911 17.005 15.4941 17.005C15.4971 17.005 15.4991 17.003 15.4991 17" stroke="#323232" stroke-width="1.5" stroke-linecap="round" stroke-linejoin="round"/>
<path d="M12.005 16.99C12.005 16.987 12.003 16.985 12 16.985C11.997 16.985 11.995 16.987 11.995 16.99C11.995 16.993 11.997 16.995 12 16.995C12.003 16.995 12.005 16.993 12.005 16.99" stroke="#323232" stroke-width="1.5" stroke-linecap="round" stroke-linejoin="round"/>
</svg>
