<svg width="24" height="24" viewBox="0 0 24 24" fill="none" xmlns="http://www.w3.org/2000/svg">
<path fill-rule="evenodd" clip-rule="evenodd" d="M18.414 6.414L15.586 3.586C15.211 3.211 14.702 3 14.172 3H7C5.895 3 5 3.895 5 5V19C5 20.105 5.895 21 7 21H17C18.105 21 19 20.105 19 19V7.828C19 7.298 18.789 6.789 18.414 6.414V6.414Z" stroke="#323232" stroke-width="1.5" stroke-linecap="round" stroke-linejoin="round"/>
<path d="M19 8H15C14.448 8 14 7.552 14 7V3" stroke="#323232" stroke-width="1.5" stroke-linecap="round" stroke-linejoin="round"/>
<path d="M10.2112 15.9816C10.7626 16.533 10.7626 17.4271 10.2112 17.9785C9.6598 18.5299 8.76577 18.5299 8.21435 17.9785C7.66293 17.4271 7.66293 16.533 8.21435 15.9816C8.76577 15.4302 9.6598 15.4302 10.2112 15.9816" stroke="#323232" stroke-width="1.5" stroke-linecap="round" stroke-linejoin="round"/>
<path d="M15.387 15.0406C15.9384 15.592 15.9384 16.486 15.387 17.0374C14.8356 17.5889 13.9415 17.5889 13.3901 17.0374C12.8387 16.486 12.8387 15.592 13.3901 15.0406C13.9415 14.4892 14.8356 14.4892 15.387 15.0406" stroke="#323232" stroke-width="1.5" stroke-linecap="round" stroke-linejoin="round"/>
<path d="M10.623 16.98V13.26C10.623 12.875 10.857 12.529 11.215 12.386L14.428 11.101C15.085 10.838 15.799 11.322 15.799 12.029V16.039" stroke="#323232" stroke-width="1.5" stroke-linecap="round" stroke-linejoin="round"/>
</svg>
