<svg width="24" height="24" viewBox="0 0 24 24" fill="none" xmlns="http://www.w3.org/2000/svg">
<path d="M13 21H17C18.6569 21 20 19.6569 20 18V8.50931C20 7.71366 19.6839 6.95061 19.1213 6.388L16.612 3.87868C16.0494 3.31607 15.2863 3 14.4907 3H7C5.34315 3 4 4.34315 4 6V10" stroke="#323232" stroke-width="1.5" stroke-linecap="round" stroke-linejoin="round"/>
<path d="M20 8.5H16.5C15.3954 8.5 14.5 7.60457 14.5 6.5V3" stroke="#323232" stroke-width="1.5" stroke-linecap="round" stroke-linejoin="round"/>
<path fill-rule="evenodd" clip-rule="evenodd" d="M9.71106 13.2345L8.76549 12.289C8.58048 12.1039 8.32955 12 8.06791 12C7.80627 12 7.55534 12.1039 7.37033 12.289L4.22842 15.4309C4.08217 15.5771 4 15.7755 4 15.9823V17.75C4 17.8881 4.11193 18 4.25 18H6.01738C6.22442 18.0001 6.42298 17.9178 6.56938 17.7714L9.71109 14.6297C9.89609 14.4447 10 14.1938 10 13.9321C10 13.6705 9.89607 13.4196 9.71106 13.2345V13.2345Z" stroke="#323232" stroke-width="1.5" stroke-linecap="round" stroke-linejoin="round"/>
<path d="M9 21H4" stroke="#323232" stroke-width="1.5" stroke-linecap="round" stroke-linejoin="round"/>
</svg>
