<svg width="24" height="24" viewBox="0 0 24 24" fill="none" xmlns="http://www.w3.org/2000/svg">
<path d="M16.5019 22.0041C14.0158 22.0041 12 19.9883 12 17.5022C12 15.0162 14.0158 13.0004 16.5019 13.0004C18.9889 13.0004 21.0037 15.0162 21.0037 17.5022C21.0037 19.9883 18.9889 22.0041 16.5019 22.0041" stroke="#323232" stroke-width="1.5" stroke-linecap="round" stroke-linejoin="round"/>
<path d="M18.0019 9.99913V7.82623C18.0019 7.29601 17.7908 6.78679 17.4157 6.41164L14.5865 3.58246C14.2113 3.2073 13.7021 2.99622 13.1719 2.99622H5.99693C4.89147 2.99622 3.99609 3.89159 3.99609 4.99705V19.0029C3.99609 20.1083 4.89147 21.0037 5.99693 21.0037H9.99859" stroke="#323232" stroke-width="1.5" stroke-linecap="round" stroke-linejoin="round"/>
<path d="M18.0021 7.9983H14.0004C13.4482 7.9983 13 7.55011 13 6.99788V2.99622" stroke="#323232" stroke-width="1.5" stroke-linecap="round" stroke-linejoin="round"/>
<path d="M18.1591 16.6739L16.0863 18.7468L14.8438 17.5022" stroke="#323232" stroke-width="1.5" stroke-linecap="round" stroke-linejoin="round"/>
</svg>
