<svg width="24" height="24" viewBox="0 0 24 24" fill="none" xmlns="http://www.w3.org/2000/svg">
<path d="M20.0021 7.9983H16.0004C15.4479 7.9983 15 7.5504 15 6.99788V2.99622" stroke="#323232" stroke-width="1.5" stroke-linecap="round" stroke-linejoin="round"/>
<path d="M5.99609 7.9983V4.99705C5.99609 3.89202 6.8919 2.99622 7.99693 2.99622H15.1719C15.7025 2.99622 16.2114 3.2072 16.5865 3.58246L19.4157 6.41164C19.7909 6.78678 20.0019 7.29562 20.0019 7.82623V19.0029C20.0019 20.1079 19.1061 21.0037 18.0011 21.0037H7.99693C6.8919 21.0037 5.99609 20.1079 5.99609 19.0029V18.0025" stroke="#323232" stroke-width="1.5" stroke-linecap="round" stroke-linejoin="round"/>
<path d="M7.99826 12.8153V10.9796" stroke="#323232" stroke-width="1.5" stroke-linecap="round" stroke-linejoin="round"/>
<path d="M7.99726 14.8402C7.9732 14.8402 7.95015 14.8498 7.93323 14.8669C7.91632 14.884 7.90695 14.9072 7.90722 14.9312C7.90722 14.9682 7.92951 15.0014 7.96365 15.0154C7.99779 15.0295 8.03703 15.0215 8.06298 14.9953C8.08894 14.969 8.09648 14.9297 8.08207 14.8957C8.06767 14.8617 8.03417 14.8398 7.99726 14.8402" stroke="#323232" stroke-width="1.5" stroke-linecap="round" stroke-linejoin="round"/>
<rect x="2.99609" y="7.99835" width="10.0042" height="10.0042" rx="3" stroke="#323232" stroke-width="1.5" stroke-linecap="round" stroke-linejoin="round"/>
</svg>
