<svg width="24" height="24" viewBox="0 0 24 24" fill="none" xmlns="http://www.w3.org/2000/svg">
<path fill-rule="evenodd" clip-rule="evenodd" d="M11.9985 10.3333H10.3308C9.88855 10.3333 9.46447 10.1576 9.15187 9.8448C8.83928 9.53202 8.6638 9.10783 8.66406 8.66562V8.66562C8.66353 8.22333 8.83893 7.79899 9.15158 7.48615C9.46423 7.17331 9.88847 6.99766 10.3308 6.99793H11.9985V10.3333Z" stroke="#323232" stroke-width="1.5" stroke-linecap="round" stroke-linejoin="round"/>
<path fill-rule="evenodd" clip-rule="evenodd" d="M11.9985 10.3333H10.3308C9.88864 10.333 9.46456 10.5086 9.15193 10.8212C8.83931 11.1338 8.6638 11.5579 8.66406 12V12C8.6638 12.4422 8.83928 12.8664 9.15187 13.1792C9.46447 13.492 9.88855 13.6677 10.3308 13.6677H11.9985V10.3333Z" stroke="#323232" stroke-width="1.5" stroke-linecap="round" stroke-linejoin="round"/>
<path fill-rule="evenodd" clip-rule="evenodd" d="M11.9985 13.6677H10.3308C9.88864 13.6674 9.46456 13.8429 9.15193 14.1555C8.83931 14.4682 8.6638 14.8922 8.66406 15.3344V15.3344C8.6638 15.7766 8.83928 16.2008 9.15187 16.5135C9.46447 16.8263 9.88855 17.0021 10.3308 17.0021V17.0021C11.2518 17.0021 11.9985 16.2554 11.9985 15.3344V13.6677Z" stroke="#323232" stroke-width="1.5" stroke-linecap="round" stroke-linejoin="round"/>
<path d="M14.8448 10.8215C15.3219 11.2984 15.4647 12.0158 15.2066 12.639C14.9485 13.2623 14.3404 13.6687 13.6658 13.6687C12.9912 13.6687 12.3831 13.2623 12.125 12.639C11.8669 12.0158 12.0097 11.2984 12.4868 10.8215C12.7994 10.5087 13.2235 10.3329 13.6658 10.3329C14.1081 10.3329 14.5322 10.5087 14.8448 10.8215" stroke="#323232" stroke-width="1.5" stroke-linecap="round" stroke-linejoin="round"/>
<path fill-rule="evenodd" clip-rule="evenodd" d="M5.99693 2.99622H18.0019C19.107 2.99622 20.0028 3.89202 20.0028 4.99705V19.0029C20.0028 20.1079 19.107 21.0037 18.0019 21.0037H5.99693C4.8919 21.0037 3.99609 20.1079 3.99609 19.0029V4.99705C3.99609 3.89202 4.8919 2.99622 5.99693 2.99622Z" stroke="#323232" stroke-width="1.5" stroke-linecap="round" stroke-linejoin="round"/>
<path fill-rule="evenodd" clip-rule="evenodd" d="M13.6677 10.3333H12V6.99792H13.6677C14.1099 6.99792 14.534 7.17366 14.8466 7.48644C15.1592 7.79922 15.3347 8.22341 15.3344 8.66562V8.66562C15.3349 9.10791 15.1595 9.53225 14.8469 9.84509C14.5342 10.1579 14.11 10.3336 13.6677 10.3333V10.3333Z" stroke="#323232" stroke-width="1.5" stroke-linecap="round" stroke-linejoin="round"/>
</svg>
