<svg width="24" height="24" viewBox="0 0 24 24" fill="none" xmlns="http://www.w3.org/2000/svg">
<path d="M7.99854 17.5023L9.99937 19.5032L7.99854 21.504" stroke="#161924" stroke-width="1.5" stroke-linecap="round" stroke-linejoin="round"/>
<path d="M9.99908 19.5031H3.99658" stroke="#161924" stroke-width="1.5" stroke-linecap="round" stroke-linejoin="round"/>
<path d="M13.9984 20.277C17.7387 19.4254 20.5285 16.2969 20.9478 12.4838C21.3672 8.67071 19.3239 5.01079 15.858 3.36671C12.3921 1.72264 8.26501 2.45567 5.57724 5.19274C2.88948 7.92981 2.23158 12.0695 3.93837 15.505" stroke="#161924" stroke-width="1.5" stroke-linecap="round" stroke-linejoin="round"/>
<path d="M12.0002 8.49224V7.49182" stroke="#161924" stroke-width="1.5" stroke-linecap="round" stroke-linejoin="round"/>
<path d="M12.0002 14.4948V15.4952" stroke="#161924" stroke-width="1.5" stroke-linecap="round" stroke-linejoin="round"/>
<path d="M10.2652 13.7805C10.5223 14.2193 10.9911 14.4906 11.4997 14.4948H12.6002C13.3209 14.513 13.9377 13.9811 14.0256 13.2655C14.1136 12.5499 13.644 11.8845 12.9403 11.7276L11.0655 11.2564C10.3703 11.0935 9.9089 10.4336 9.9946 9.72469C10.0803 9.01577 10.6856 8.48482 11.3997 8.49226H12.5001C13.0091 8.49571 13.4787 8.76716 13.7356 9.20656" stroke="#161924" stroke-width="1.5" stroke-linecap="round" stroke-linejoin="round"/>
</svg>
