<svg width="24" height="24" viewBox="0 0 24 24" fill="none" xmlns="http://www.w3.org/2000/svg">
<path d="M5.99783 8.24844H2.99658V5.24719" stroke="#161924" stroke-width="1.5" stroke-linecap="round" stroke-linejoin="round"/>
<path d="M7.46533 19.9272C8.36571 20.4485 9.36312 20.8176 10.4256 21.0037" stroke="#161924" stroke-width="1.5" stroke-linecap="round" stroke-linejoin="round"/>
<path d="M3.479 15.1743C3.84516 16.1787 4.37538 17.1021 5.04966 17.9055" stroke="#161924" stroke-width="1.5" stroke-linecap="round" stroke-linejoin="round"/>
<path d="M13.5752 21.0037C14.6376 20.8176 15.6341 20.4485 16.5354 19.9272" stroke="#161924" stroke-width="1.5" stroke-linecap="round" stroke-linejoin="round"/>
<path d="M18.9512 17.9055C19.6255 17.1021 20.1557 16.1787 20.5218 15.1743" stroke="#161924" stroke-width="1.5" stroke-linecap="round" stroke-linejoin="round"/>
<path d="M21.0039 12C21.0039 7.02689 16.9732 2.99622 12.0002 2.99622C8.36865 2.99622 5.24635 5.15111 3.82275 8.2484" stroke="#161924" stroke-width="1.5" stroke-linecap="round" stroke-linejoin="round"/>
<path d="M12.0002 9.13574V8.49847" stroke="#161924" stroke-width="1.5" stroke-linecap="round" stroke-linejoin="round"/>
<path d="M12.0002 14.8652V15.5014" stroke="#161924" stroke-width="1.5" stroke-linecap="round" stroke-linejoin="round"/>
<path d="M10.3425 14.1819C10.5896 14.5871 11.0117 14.8662 11.523 14.8662H12.0002H12.5694C13.3107 14.8662 13.9099 14.2659 13.9099 13.5256C13.9099 12.9104 13.4908 12.3751 12.8945 12.2241L11.1038 11.7739C10.5085 11.6248 10.0894 11.0896 10.0894 10.4743C10.0894 9.73304 10.6896 9.13379 11.4299 9.13379H12.0002H12.4773C12.9866 9.13379 13.4087 9.41291 13.6548 9.81707" stroke="#161924" stroke-width="1.5" stroke-linecap="round" stroke-linejoin="round"/>
</svg>
