<svg width="24" height="24" viewBox="0 0 24 24" fill="none" xmlns="http://www.w3.org/2000/svg">
<path d="M4.97021 8.17335C6.71968 4.95833 10.4273 3.33982 13.9744 4.2427C17.5215 5.14558 20.004 8.33975 20.0035 11.9999" stroke="#161924" stroke-width="1.5" stroke-linecap="round" stroke-linejoin="round"/>
<path d="M12.0002 9.54493V8.9987" stroke="#161924" stroke-width="1.5" stroke-linecap="round" stroke-linejoin="round"/>
<path d="M12.0002 14.456V15.0012" stroke="#161924" stroke-width="1.5" stroke-linecap="round" stroke-linejoin="round"/>
<path d="M10.5786 13.8707C10.7888 14.2312 11.1737 14.4541 11.591 14.457H12.4914C13.0709 14.4557 13.5589 14.0233 13.6298 13.4481C13.7007 12.873 13.3324 12.335 12.7705 12.193L11.2359 11.8079C10.6727 11.6677 10.3026 11.1293 10.3734 10.5533C10.4442 9.97727 10.9336 9.54458 11.514 9.54492H12.4144C12.8304 9.54765 13.2142 9.76975 13.4238 10.1292" stroke="#161924" stroke-width="1.5" stroke-linecap="round" stroke-linejoin="round"/>
<path d="M3.99658 12C3.99602 15.6602 6.4786 18.8544 10.0257 19.7572C13.5728 20.6601 17.2804 19.0416 19.0298 15.8266" stroke="#161924" stroke-width="1.5" stroke-linecap="round" stroke-linejoin="round"/>
<path d="M8.04526 8.17346H4.50879V4.63599" stroke="#161924" stroke-width="1.5" stroke-linecap="round" stroke-linejoin="round"/>
<path d="M15.9546 15.8265H19.4911V19.364" stroke="#161924" stroke-width="1.5" stroke-linecap="round" stroke-linejoin="round"/>
</svg>
