<svg width="24" height="24" viewBox="0 0 24 24" fill="none" xmlns="http://www.w3.org/2000/svg">
<path d="M11.75 7V8.25" stroke="#161924" stroke-width="1.5" stroke-linecap="round" stroke-linejoin="round"/>
<path d="M11.75 17V15.75" stroke="#161924" stroke-width="1.5" stroke-linecap="round" stroke-linejoin="round"/>
<path d="M14.237 10C14.172 9.024 13.367 8.25 12.375 8.25H11.005C10.035 8.25 9.25 9.036 9.25 10.005C9.25 10.81 9.798 11.512 10.578 11.708L12.921 12.296C13.702 12.492 14.249 13.194 14.249 13.999C14.249 14.969 13.463 15.754 12.494 15.754H11.124C10.13 15.754 9.325 14.978 9.261 14" stroke="#161924" stroke-width="1.5" stroke-linecap="round" stroke-linejoin="round"/>
<path d="M5.86963 5.87201C7.43863 4.30301 9.60663 3.33301 12.0016 3.33301C16.7906 3.33301 20.6736 7.21401 20.6736 12.001C20.6736 12.669 20.5906 13.317 20.4476 13.942" stroke="#161924" stroke-width="1.5" stroke-linecap="round" stroke-linejoin="round"/>
<path d="M19.1069 12.602L20.6739 14.169L22.2409 12.602" stroke="#161924" stroke-width="1.5" stroke-linecap="round" stroke-linejoin="round"/>
<path d="M18.1297 18.128C16.5607 19.697 14.3927 20.667 11.9977 20.667C7.20868 20.667 3.32568 16.786 3.32568 11.999C3.32568 11.331 3.40868 10.683 3.55168 10.058" stroke="#161924" stroke-width="1.5" stroke-linecap="round" stroke-linejoin="round"/>
<path d="M4.89279 11.398L3.32579 9.83099L1.75879 11.398" stroke="#161924" stroke-width="1.5" stroke-linecap="round" stroke-linejoin="round"/>
</svg>
