<svg width="24" height="24" viewBox="0 0 24 24" fill="none" xmlns="http://www.w3.org/2000/svg">
<path d="M4.99609 2.99622H18.0015C19.1065 2.99622 20.0023 3.89202 20.0023 4.99705V10.9995" stroke="#161924" stroke-width="1.5" stroke-linecap="round" stroke-linejoin="round"/>
<path d="M10.9986 21.0037H4.99609" stroke="#161924" stroke-width="1.5" stroke-linecap="round" stroke-linejoin="round"/>
<path d="M7.99826 10.9996V13.0004" stroke="#161924" stroke-width="1.5" stroke-linecap="round" stroke-linejoin="round"/>
<path fill-rule="evenodd" clip-rule="evenodd" d="M2.99609 4.9971V19.0029C2.99609 19.6963 3.35509 20.3402 3.94485 20.7048C4.53461 21.0693 5.27108 21.1026 5.8913 20.7927L9.89297 18.7918C10.571 18.453 10.9994 17.7601 10.9994 17.0021V6.99793C10.9983 6.241 10.5701 5.54953 9.89297 5.21119L5.8913 3.21035C5.27155 2.90066 4.53571 2.93362 3.94613 3.29747C3.35655 3.66132 2.99716 4.30428 2.99609 4.9971Z" stroke="#161924" stroke-width="1.5" stroke-linecap="round" stroke-linejoin="round"/>
<path fill-rule="evenodd" clip-rule="evenodd" d="M21.0025 22.0041H16.0004C15.4479 22.0041 15 21.5562 15 21.0037V16.0016C15 15.4491 15.4479 15.0012 16.0004 15.0012H21.0025C21.555 15.0012 22.0029 15.4491 22.0029 16.0016V21.0037C22.0029 21.5562 21.555 22.0041 21.0025 22.0041Z" stroke="#161924" stroke-width="1.5" stroke-linecap="round" stroke-linejoin="round"/>
<path d="M19.6926 17.7584L18.201 19.246L17.3066 18.3537" stroke="#161924" stroke-width="1.5" stroke-linecap="round" stroke-linejoin="round"/>
</svg>
