<svg width="24" height="24" viewBox="0 0 24 24" fill="none" xmlns="http://www.w3.org/2000/svg">
<path d="M4.99609 2.99622H18.0015C19.1065 2.99622 20.0023 3.89202 20.0023 4.99705V10.9995" stroke="#161924" stroke-width="1.5" stroke-linecap="round" stroke-linejoin="round"/>
<path d="M18.5022 15.0012V18.0025" stroke="#161924" stroke-width="1.5" stroke-linecap="round" stroke-linejoin="round"/>
<path d="M22.0029 18.7808C22.0029 18.351 21.6544 18.0025 21.2246 18.0025H15.7783C15.5719 18.0025 15.3739 18.0845 15.228 18.2305C15.082 18.3765 15 18.5744 15 18.7808" stroke="#161924" stroke-width="1.5" stroke-linecap="round" stroke-linejoin="round"/>
<path fill-rule="evenodd" clip-rule="evenodd" d="M16.0004 22.0041H21.0025C21.555 22.0041 22.0029 21.5562 22.0029 21.0037V17.4372C22.0028 17.0318 21.9208 16.6306 21.7618 16.2577L21.4837 15.6085C21.3264 15.2403 20.9647 15.0014 20.5643 15.0012H16.4386C16.0379 15.001 15.6757 15.24 15.5182 15.6085L15.2411 16.2567C15.0821 16.6296 15.0001 17.0308 15 17.4362V21.0037C15 21.5562 15.4479 22.0041 16.0004 22.0041Z" stroke="#161924" stroke-width="1.5" stroke-linecap="round" stroke-linejoin="round"/>
<path d="M10.9986 21.0037H4.99609" stroke="#161924" stroke-width="1.5" stroke-linecap="round" stroke-linejoin="round"/>
<path fill-rule="evenodd" clip-rule="evenodd" d="M2.99609 4.9971V19.0029C2.99609 19.6963 3.35509 20.3402 3.94485 20.7048C4.53461 21.0693 5.27108 21.1026 5.8913 20.7927L9.89297 18.7918C10.571 18.453 10.9994 17.7601 10.9994 17.0021V6.99793C10.9983 6.241 10.5701 5.54953 9.89297 5.21119L5.8913 3.21035C5.27155 2.90066 4.53571 2.93362 3.94613 3.29747C3.35655 3.66132 2.99716 4.30428 2.99609 4.9971Z" stroke="#161924" stroke-width="1.5" stroke-linecap="round" stroke-linejoin="round"/>
<path d="M7.99826 10.9996V13.0004" stroke="#161924" stroke-width="1.5" stroke-linecap="round" stroke-linejoin="round"/>
</svg>
