<svg width="24" height="24" viewBox="0 0 24 24" fill="none" xmlns="http://www.w3.org/2000/svg">
<path d="M9.99911 2.99634V11.699" stroke="#161924" stroke-width="1.5" stroke-linecap="round" stroke-linejoin="round"/>
<path d="M13.0004 8.69775L9.99915 11.699" stroke="#161924" stroke-width="1.5" stroke-linecap="round" stroke-linejoin="round"/>
<path d="M6.99792 8.69775L9.99917 11.699" stroke="#161924" stroke-width="1.5" stroke-linecap="round" stroke-linejoin="round"/>
<path d="M13.0004 4.99731H14.0008C15.6583 4.99731 17.002 6.34102 17.002 7.99856V14.0011C17.002 15.6586 15.6583 17.0023 14.0008 17.0023H5.99747C4.33992 17.0023 2.99622 15.6586 2.99622 14.0011V7.99856C2.99622 6.34102 4.33992 4.99731 5.99747 4.99731H6.99788" stroke="#161924" stroke-width="1.5" stroke-linecap="round" stroke-linejoin="round"/>
<path d="M17.0021 8.99878H18.0025C19.6601 8.99878 21.0038 10.3425 21.0038 12V18.0025C21.0038 19.6601 19.6601 21.0038 18.0025 21.0038H9.99917C8.34163 21.0038 6.99792 19.6601 6.99792 18.0025V17.0021" stroke="#161924" stroke-width="1.5" stroke-linecap="round" stroke-linejoin="round"/>
</svg>
