<svg width="24" height="24" viewBox="0 0 24 24" fill="none" xmlns="http://www.w3.org/2000/svg">
<path d="M5.15997 6.16005C5.62097 5.62005 6.14597 5.13905 6.72197 4.72205" stroke="#161924" stroke-width="1.5" stroke-linecap="round" stroke-linejoin="round"/>
<path d="M17 19.4821C15.57 20.4401 13.851 21.0001 12 21.0001C11.088 21.0001 10.209 20.8621 9.38 20.6101" stroke="#161924" stroke-width="1.5" stroke-linecap="round" stroke-linejoin="round"/>
<path d="M12 16V8" stroke="#161924" stroke-width="1.5" stroke-linecap="round" stroke-linejoin="round"/>
<path d="M15 13L12 16L9 13" stroke="#161924" stroke-width="1.5" stroke-linecap="round" stroke-linejoin="round"/>
<path d="M6.34895 19C5.06795 17.965 4.08395 16.583 3.52295 15" stroke="#161924" stroke-width="1.5" stroke-linecap="round" stroke-linejoin="round"/>
<path d="M3.52297 9C3.18997 9.94 2.99997 10.946 2.99997 12" stroke="#161924" stroke-width="1.5" stroke-linecap="round" stroke-linejoin="round"/>
<path d="M19.463 17C20.427 15.569 21 13.855 21 12C21 7.029 16.971 3 12 3" stroke="#161924" stroke-width="1.5" stroke-linecap="round" stroke-linejoin="round"/>
</svg>
