<svg width="24" height="24" viewBox="0 0 24 24" fill="none" xmlns="http://www.w3.org/2000/svg">
<path fill-rule="evenodd" clip-rule="evenodd" d="M19.9896 19.6C19.2846 11.896 14.2636 9.04901 14.2636 9.04901C14.2636 6.89301 15.8576 5.46601 16.8946 4.76601C17.3786 4.43901 17.5366 3.78901 17.2776 3.25701L16.9896 2.66501C16.7526 2.17901 16.2206 1.90101 15.7076 2.03401C14.4786 2.35301 13.3686 3.11201 12.6906 3.65501C12.2826 3.98201 11.7176 3.98201 11.3086 3.65501C10.6296 3.11201 9.51962 2.35301 8.29162 2.03401C7.77862 1.90001 7.24662 2.17801 7.00962 2.66501L6.72162 3.25701C6.46262 3.78901 6.62162 4.44001 7.10462 4.76601C8.14162 5.46601 9.73562 6.89301 9.73562 9.04901C9.73562 9.04901 4.71362 11.896 4.00962 19.6C3.84462 21.401 5.83762 22.537 7.19962 21.392L7.22462 21.371C8.06162 20.668 9.50062 20.582 10.2906 21.342C11.1946 22.212 12.7716 22.219 13.6866 21.364C14.4996 20.605 15.9506 20.677 16.8006 21.392V21.392C18.1616 22.538 20.1546 21.402 19.9896 19.6V19.6Z" stroke="#161924" stroke-width="1.5" stroke-linecap="round" stroke-linejoin="round"/>
<path d="M9.73926 9.05002H14.2593" stroke="#161924" stroke-width="1.5" stroke-linecap="round" stroke-linejoin="round"/>
</svg>
