<svg width="24" height="24" viewBox="0 0 24 24" fill="none" xmlns="http://www.w3.org/2000/svg">
<path d="M15.192 21H2.929C2.416 21 2 20.634 2 20.183V8C2 7.448 2.448 7 3 7H14C14.552 7 15 7.448 15 8V10" stroke="#161924" stroke-width="1.5" stroke-linecap="round" stroke-linejoin="round"/>
<path d="M20 6L19 10" stroke="#161924" stroke-width="1.5" stroke-linecap="round" stroke-linejoin="round"/>
<path fill-rule="evenodd" clip-rule="evenodd" d="M14.1071 10H20.6651C21.0951 10 21.4781 10.275 21.6141 10.684L21.9471 11.684C22.1641 12.331 21.6821 13 20.9991 13H13.7741C13.0911 13 12.6091 12.331 12.8251 11.684L13.1581 10.684C13.2951 10.275 13.6771 10 14.1071 10Z" stroke="#161924" stroke-width="1.5" stroke-linecap="round" stroke-linejoin="round"/>
<path fill-rule="evenodd" clip-rule="evenodd" d="M11 3H6C5.448 3 5 3.448 5 4V7H12V4C12 3.448 11.552 3 11 3Z" stroke="#161924" stroke-width="1.5" stroke-linecap="round" stroke-linejoin="round"/>
<path d="M21.3601 12.926L20.4721 20.123C20.4101 20.624 19.9841 21 19.4801 21H15.1931C14.6881 21 14.2621 20.624 14.2011 20.123L13.3071 12.885" stroke="#161924" stroke-width="1.5" stroke-linecap="round" stroke-linejoin="round"/>
</svg>
