<svg width="24" height="24" viewBox="0 0 24 24" fill="none" xmlns="http://www.w3.org/2000/svg">
<path d="M11 18L13.815 2.818C13.917 2.27 14.447 1.91 14.994 2.02L19 2.821" stroke="#161924" stroke-width="1.5" stroke-linecap="round" stroke-linejoin="round"/>
<path d="M17.8099 12.64C16.2049 14.181 13.6039 14.181 11.9999 12.641C10.3959 11.101 7.79494 11.101 6.18994 12.642" stroke="#161924" stroke-width="1.5" stroke-linecap="round" stroke-linejoin="round"/>
<path fill-rule="evenodd" clip-rule="evenodd" d="M6.184 12.596C6.061 11.336 6 10.071 6 8.805V8.618C6 8.212 6.095 7.811 6.276 7.447V7.447C6.72 6.56 7.626 6 8.618 6H15.382C16.374 6 17.28 6.56 17.724 7.447V7.447C17.905 7.811 18 8.212 18 8.618V8.805C18 10.071 17.939 11.335 17.816 12.595L17.175 19.193C17.076 20.218 16.215 21 15.185 21H8.815C7.785 21 6.924 20.218 6.824 19.193L6.184 12.596V12.596Z" stroke="#161924" stroke-width="1.5" stroke-linecap="round" stroke-linejoin="round"/>
</svg>
