<svg width="24" height="24" viewBox="0 0 24 24" fill="none" xmlns="http://www.w3.org/2000/svg">
<path d="M13.5738 3.14501C13.0618 3.05601 12.5378 3.00001 11.9998 3.00001C11.4618 3.00001 10.9378 3.05601 10.4258 3.14501" stroke="#161924" stroke-width="1.5" stroke-linecap="round" stroke-linejoin="round"/>
<path d="M20.5174 8.97302C20.8704 9.94202 21.0724 10.983 21.0724 12.073" stroke="#161924" stroke-width="1.5" stroke-linecap="round" stroke-linejoin="round"/>
<path d="M18.9472 6.24298C18.2692 5.43598 17.4502 4.75298 16.5322 4.22198" stroke="#161924" stroke-width="1.5" stroke-linecap="round" stroke-linejoin="round"/>
<path d="M7.46676 4.22198C6.54876 4.75298 5.73076 5.43598 5.05176 6.24298" stroke="#161924" stroke-width="1.5" stroke-linecap="round" stroke-linejoin="round"/>
<path d="M2.9266 12.073C2.9266 10.982 3.1286 9.94102 3.4816 8.97302" stroke="#161924" stroke-width="1.5" stroke-linecap="round" stroke-linejoin="round"/>
<path d="M7.4668 19.924C8.3668 20.445 9.3638 20.814 10.4258 21" stroke="#161924" stroke-width="1.5" stroke-linecap="round" stroke-linejoin="round"/>
<path d="M3.48145 15.173C3.84745 16.177 4.37745 17.1 5.05145 17.903" stroke="#161924" stroke-width="1.5" stroke-linecap="round" stroke-linejoin="round"/>
<path d="M13.5732 21C14.6352 20.814 15.6312 20.445 16.5322 19.924" stroke="#161924" stroke-width="1.5" stroke-linecap="round" stroke-linejoin="round"/>
<path d="M18.9473 17.903C19.6213 17.1 20.1513 16.177 20.5173 15.173" stroke="#161924" stroke-width="1.5" stroke-linecap="round" stroke-linejoin="round"/>
<path fill-rule="evenodd" clip-rule="evenodd" d="M12.8001 7.40101L15.1961 10.607C17.1671 13.243 15.2881 17 12.0001 17V17C8.71209 17 6.83309 13.243 8.80309 10.607L11.2001 7.40101C11.6001 6.86601 12.4001 6.86601 12.8001 7.40101Z" stroke="#161924" stroke-width="1.5" stroke-linecap="round" stroke-linejoin="round"/>
</svg>
