<svg width="24" height="24" viewBox="0 0 24 24" fill="none" xmlns="http://www.w3.org/2000/svg">
<path d="M8.57954 17.002H4.99705C3.89159 17.002 2.99622 16.1067 2.99622 15.0012V4.99705C2.99622 3.89159 3.89159 2.99622 4.99705 2.99622H15.0012C16.1067 2.99622 17.002 3.89159 17.002 4.99705V7.9983" stroke="#161924" stroke-width="1.5" stroke-linecap="round" stroke-linejoin="round"/>
<path fill-rule="evenodd" clip-rule="evenodd" d="M15.6234 20.6815L21.681 14.624C22.1112 14.1938 22.1112 13.4975 21.681 13.0684L19.9352 11.3226C19.5051 10.8925 18.8088 10.8925 18.3796 11.3226L12.3221 17.3802C12.115 17.5872 11.9999 17.8664 11.9999 18.1575V21.0037H14.8461C15.1372 21.0037 15.4164 20.8886 15.6234 20.6815Z" stroke="#161924" stroke-width="1.5" stroke-linecap="round" stroke-linejoin="round"/>
<path d="M11.2496 8.74866L8.7486 11.2497" stroke="#161924" stroke-width="1.5" stroke-linecap="round" stroke-linejoin="round"/>
<path d="M8.7486 8.74866L11.2496 11.2497" stroke="#161924" stroke-width="1.5" stroke-linecap="round" stroke-linejoin="round"/>
</svg>
