<svg width="24" height="24" viewBox="0 0 24 24" fill="none" xmlns="http://www.w3.org/2000/svg">
<circle cx="12" cy="12.0001" r="9.00375" stroke="#161924" stroke-width="1.5" stroke-linecap="round" stroke-linejoin="round"/>
<path fill-rule="evenodd" clip-rule="evenodd" d="M14.0461 16.0018H12V13.9556C11.9998 13.7458 12.0832 13.5445 12.2318 13.3962L15.3968 10.2313C15.545 10.0828 15.7463 9.99927 15.9562 9.99927C16.166 9.99927 16.3673 10.0828 16.5156 10.2313L17.7705 11.4862C17.919 11.6345 18.0025 11.8357 18.0025 12.0456C18.0025 12.2555 17.919 12.4568 17.7705 12.605L14.6055 15.7699C14.4571 15.9182 14.2559 16.0016 14.0461 16.0018Z" stroke="#161924" stroke-width="1.5" stroke-linecap="round" stroke-linejoin="round"/>
<path d="M7.99834 15.0014H6.99792" stroke="#161924" stroke-width="1.5" stroke-linecap="round" stroke-linejoin="round"/>
<path d="M9.99917 12.0002H6.99792" stroke="#161924" stroke-width="1.5" stroke-linecap="round" stroke-linejoin="round"/>
<path d="M12 8.99899H6.99792" stroke="#161924" stroke-width="1.5" stroke-linecap="round" stroke-linejoin="round"/>
</svg>
