<svg width="24" height="24" viewBox="0 0 24 24" fill="none" xmlns="http://www.w3.org/2000/svg">
<path d="M18.1756 9.17516L14.8262 5.82574" stroke="#323232" stroke-width="1.5" stroke-linecap="round" stroke-linejoin="round"/>
<path d="M20 13V15C20 17.7614 17.7614 20 15 20H9C6.23858 20 4 17.7614 4 15V9C4 6.23858 6.23858 4 9 4H11" stroke="#323232" stroke-width="1.5" stroke-linecap="round" stroke-linejoin="round"/>
<path fill-rule="evenodd" clip-rule="evenodd" d="M12.6653 14.0014H11C10.4477 14.0014 10 13.5537 10 13.0014V11.3345C10 10.8968 10.1739 10.4771 10.4834 10.1677L15.957 4.69502C16.8819 3.7702 18.3814 3.7702 19.3063 4.69502V4.69502C19.7505 5.13918 20.0001 5.74161 20.0001 6.36977C20.0001 6.99793 19.7505 7.60036 19.3063 8.04451L13.832 13.5182C13.5226 13.8276 13.1029 14.0014 12.6653 14.0014V14.0014Z" stroke="#323232" stroke-width="1.5" stroke-linecap="round" stroke-linejoin="round"/>
</svg>
