<svg width="24" height="24" viewBox="0 0 24 24" fill="none" xmlns="http://www.w3.org/2000/svg">
<path fill-rule="evenodd" clip-rule="evenodd" d="M7.62305 10.2493V13.7507C7.62305 14.7176 8.40688 15.5015 9.37378 15.5015H14.626C15.5929 15.5015 16.3767 14.7176 16.3767 13.7507V10.2493C16.3767 9.28236 15.5929 8.49854 14.626 8.49854H9.37378C8.90945 8.49854 8.46415 8.68299 8.13582 9.01131C7.8075 9.33964 7.62305 9.78494 7.62305 10.2493Z" stroke="#161924" stroke-width="1.5" stroke-linecap="round" stroke-linejoin="round"/>
<path d="M10.0098 10.9996L11.498 11.8623C11.8151 12.0459 12.2062 12.0459 12.5232 11.8623L14.0114 10.9996" stroke="#161924" stroke-width="1.5" stroke-linecap="round" stroke-linejoin="round"/>
<path fill-rule="evenodd" clip-rule="evenodd" d="M4.62622 17.1659C1.94717 13.3421 2.63548 8.10491 6.21156 5.10328C9.78763 2.10165 15.0649 2.33159 18.3663 5.6329C21.6678 8.9342 21.8979 14.2114 18.8964 17.7876C15.895 21.3638 10.6578 22.0524 6.83393 19.3735L3.99548 20.0042L4.62622 17.1659Z" stroke="#161924" stroke-width="1.5" stroke-linecap="round" stroke-linejoin="round"/>
</svg>
