<svg width="24" height="24" viewBox="0 0 24 24" fill="none" xmlns="http://www.w3.org/2000/svg">
<path d="M12 21H8C5.23858 21 3 18.7614 3 16V8C3 5.23858 5.23858 3 8 3H16C18.7614 3 21 5.23858 21 8V11" stroke="#161924" stroke-width="1.5" stroke-linecap="round" stroke-linejoin="round"/>
<path fill-rule="evenodd" clip-rule="evenodd" d="M20.0497 14.2929C19.6592 13.9024 19.0261 13.9024 18.6356 14.2929L15.7929 17.1355C15.6054 17.3231 15.5 17.5775 15.5 17.8427V20H17.6573C17.9225 20 18.1769 19.8946 18.3644 19.7071L21.2071 16.8644C21.3946 16.6768 21.5 16.4225 21.5 16.1573C21.5 15.8921 21.3946 15.6377 21.2071 15.4502L20.0497 14.2929Z" stroke="#161924" stroke-width="1.5" stroke-linecap="round" stroke-linejoin="round"/>
<path d="M17 12V10C17 8.89543 16.1046 8 15 8H9C7.89543 8 7 8.89543 7 10V14C7 15.1046 7.89543 16 9 16H13" stroke="#161924" stroke-width="1.5" stroke-linecap="round" stroke-linejoin="round"/>
<path d="M9.75 11L11.5556 11.8958C11.8356 12.0347 12.1645 12.0347 12.4445 11.8958L14.25 11" stroke="#161924" stroke-width="1.5" stroke-linecap="round" stroke-linejoin="round"/>
</svg>
