<svg width="24" height="24" viewBox="0 0 24 24" fill="none" xmlns="http://www.w3.org/2000/svg">
<path fill-rule="evenodd" clip-rule="evenodd" d="M7 9V13C7 14.1046 7.89543 15 9 15H15C16.1046 15 17 14.1046 17 13V9C17 7.89543 16.1046 7 15 7H9C7.89543 7 7 7.89543 7 9Z" stroke="#161924" stroke-width="1.5" stroke-linecap="round" stroke-linejoin="round"/>
<path d="M9.75 10L11.5556 10.8958C11.8356 11.0348 12.1645 11.0348 12.4445 10.8958L14.25 10" stroke="#161924" stroke-width="1.5" stroke-linecap="round" stroke-linejoin="round"/>
<path fill-rule="evenodd" clip-rule="evenodd" d="M9.58582 19L11.2929 20.7071C11.6834 21.0976 12.3166 21.0976 12.7071 20.7071L14.4142 19H18C19.6569 19 21 17.6569 21 16V6C21 4.34315 19.6569 3 18 3H6C4.34315 3 3 4.34315 3 6V16C3 17.6569 4.34315 19 6 19H9.58582Z" stroke="#161924" stroke-width="1.5" stroke-linecap="round" stroke-linejoin="round"/>
</svg>
