<svg width="24" height="24" viewBox="0 0 24 24" fill="none" xmlns="http://www.w3.org/2000/svg">
<path d="M17 13V10C17 8.89543 16.1046 8 15 8H9C7.89543 8 7 8.89543 7 10V14C7 15.1046 7.89543 16 9 16H12" stroke="#161924" stroke-width="1.5" stroke-linecap="round" stroke-linejoin="round"/>
<path d="M21.2755 14C22.1748 9.8604 20.2312 5.62443 16.5064 3.60658C12.7817 1.58873 8.17178 2.27434 5.19548 5.28881C2.21918 8.30327 1.59236 12.9215 3.6575 16.6203C5.72264 20.319 9.98303 22.2085 14.1109 21.2565" stroke="#161924" stroke-width="1.5" stroke-linecap="round" stroke-linejoin="round"/>
<path fill-rule="evenodd" clip-rule="evenodd" d="M19.1761 20.7116C18.928 20.9596 18.5916 21.0989 18.2409 21.0989V21.0989C17.8902 21.0989 17.5538 20.9596 17.3057 20.7116L15.7859 19.1918C15.1528 18.5854 15.0738 17.6011 15.6022 16.9016C15.8986 16.5358 16.3361 16.3128 16.8061 16.2878C17.2762 16.2627 17.7349 16.438 18.0685 16.7702L18.0731 16.7749L18.2409 16.9426L18.3438 16.8397C18.9502 16.2066 19.9345 16.1276 20.634 16.656C20.9998 16.9524 21.2228 17.3899 21.2478 17.86C21.2729 18.33 21.0976 18.7887 20.7654 19.1223L20.7608 19.1269L19.1761 20.7116Z" stroke="#161924" stroke-width="1.5" stroke-linecap="round" stroke-linejoin="round"/>
<path d="M10 11L11.5535 11.8824C11.8305 12.0392 12.1695 12.0392 12.4466 11.8824L14 11" stroke="#161924" stroke-width="1.5" stroke-linecap="round" stroke-linejoin="round"/>
</svg>
