<svg width="24" height="24" viewBox="0 0 24 24" fill="none" xmlns="http://www.w3.org/2000/svg">
<path d="M10.9994 18.0025H5.99734C4.3398 18.0025 2.99609 16.6588 2.99609 15.0012V6.99789C2.99609 5.34035 4.3398 3.99664 5.99734 3.99664H18.0023C19.6599 3.99664 21.0036 5.34035 21.0036 6.99789V12" stroke="#161924" stroke-width="1.5" stroke-linecap="round" stroke-linejoin="round"/>
<path d="M20.9647 6.6128L13.5339 10.9534C12.5987 11.4998 11.4416 11.4998 10.5063 10.9534L3.03711 6.59039" stroke="#161924" stroke-width="1.5" stroke-linecap="round" stroke-linejoin="round"/>
<path fill-rule="evenodd" clip-rule="evenodd" d="M17.8043 16.075L18.0024 16.276L18.2005 16.0749C18.5617 15.708 19.055 15.5014 19.5698 15.5014C20.0846 15.5014 20.5779 15.708 20.939 16.0749V16.0749C21.6922 16.8488 21.6922 18.0817 20.939 18.8556L19.4 20.4184C19.0314 20.7929 18.5279 21.0038 18.0025 21.0038C17.477 21.0038 16.9735 20.7929 16.6049 20.4184L15.0658 18.8557C14.3127 18.0818 14.3127 16.8489 15.0658 16.075V16.075C15.427 15.7081 15.9202 15.5015 16.4351 15.5014C16.9499 15.5014 17.4432 15.7081 17.8043 16.075Z" stroke="#161924" stroke-width="1.5" stroke-linecap="round" stroke-linejoin="round"/>
</svg>
