<svg width="24" height="24" viewBox="0 0 24 24" fill="none" xmlns="http://www.w3.org/2000/svg">
<path d="M21 17V19C21 20.1046 20.1046 21 19 21H17" stroke="#161924" stroke-width="1.5" stroke-linecap="round" stroke-linejoin="round"/>
<path d="M3 9V5C3 3.89543 3.89543 3 5 3H7" stroke="#161924" stroke-width="1.5" stroke-linecap="round" stroke-linejoin="round"/>
<path d="M10 9V5C10 3.89543 10.8954 3 12 3H19C20.1046 3 21 3.89543 21 5V12C21 13.1046 20.1046 14 19 14H17" stroke="#161924" stroke-width="1.5" stroke-linecap="round" stroke-linejoin="round"/>
<path d="M18 10H15" stroke="#161924" stroke-width="1.5" stroke-linecap="round" stroke-linejoin="round"/>
<path d="M18 7H13" stroke="#161924" stroke-width="1.5" stroke-linecap="round" stroke-linejoin="round"/>
<path fill-rule="evenodd" clip-rule="evenodd" d="M3 14.2V18.8C3 20.015 3.98497 21 5.2 21H11.8C13.015 21 14 20.015 14 18.8V14.2C14 12.985 13.015 12 11.8 12H5.2C3.98497 12 3 12.985 3 14.2Z" stroke="#161924" stroke-width="1.5" stroke-linecap="round" stroke-linejoin="round"/>
<path d="M6 15.5L7.87255 16.3624C8.27078 16.5458 8.72932 16.5458 9.12755 16.3624L11 15.5" stroke="#161924" stroke-width="1.5" stroke-linecap="round" stroke-linejoin="round"/>
</svg>
