<svg width="24" height="24" viewBox="0 0 24 24" fill="none" xmlns="http://www.w3.org/2000/svg">
<path d="M7 7.50006L11.2046 9.33333C11.7124 9.55473 12.2893 9.55561 12.7978 9.33574L17 7.51868" stroke="#161924" stroke-width="1.5" stroke-linecap="round" stroke-linejoin="round"/>
<path d="M11 18H7C4.79086 18 3 16.2091 3 14V7C3 4.79086 4.79086 3 7 3H17C19.2091 3 21 4.79086 21 7V10" stroke="#161924" stroke-width="1.5" stroke-linecap="round" stroke-linejoin="round"/>
<path d="M18 18V14.5C18 13.6716 18.6716 13 19.5 13V13C20.3284 13 21 13.6716 21 14.5V18C21 19.6569 19.6569 21 18 21V21C16.3431 21 15 19.6569 15 18V16" stroke="#161924" stroke-width="1.5" stroke-linecap="round" stroke-linejoin="round"/>
</svg>
