<svg width="24" height="24" viewBox="0 0 24 24" fill="none" xmlns="http://www.w3.org/2000/svg">
<path d="M11 21H7.5C5.01472 21 3 18.9853 3 16.5V7.5C3 5.01472 5.01472 3 7.5 3H16.5C18.9853 3 21 5.01472 21 7.5V11" stroke="#161924" stroke-width="1.5" stroke-linecap="round" stroke-linejoin="round"/>
<circle cx="18" cy="18" r="4" stroke="#161924" stroke-width="1.5" stroke-linecap="round" stroke-linejoin="round"/>
<path d="M16.75 17.887L17.75 18.887L19.25 17.387" stroke="#161924" stroke-width="1.5" stroke-linecap="round" stroke-linejoin="round"/>
<path d="M17 11V10C17 8.89543 16.1046 8 15 8H9C7.89543 8 7 8.89543 7 10V14C7 15.1046 7.89543 16 9 16H11" stroke="#161924" stroke-width="1.5" stroke-linecap="round" stroke-linejoin="round"/>
<path d="M9.76172 11L11.5073 11.8819C11.8252 12.0394 12.1983 12.0394 12.5162 11.8819L14.2617 11" stroke="#161924" stroke-width="1.5" stroke-linecap="round" stroke-linejoin="round"/>
</svg>
