<svg width="24" height="24" viewBox="0 0 24 24" fill="none" xmlns="http://www.w3.org/2000/svg">
<path fill-rule="evenodd" clip-rule="evenodd" d="M7 10V14C7 15.1046 7.89543 16 9 16H15C16.1046 16 17 15.1046 17 14V10C17 8.89543 16.1046 8 15 8H9C7.89543 8 7 8.89543 7 10Z" stroke="#161924" stroke-width="1.5" stroke-linecap="round" stroke-linejoin="round"/>
<path d="M9.75 11L11.5556 11.8958C11.8356 12.0348 12.1645 12.0348 12.4445 11.8958L14.25 11" stroke="#161924" stroke-width="1.5" stroke-linecap="round" stroke-linejoin="round"/>
<path fill-rule="evenodd" clip-rule="evenodd" d="M6.82843 19.8284L4.17157 17.1716C3.42143 16.4214 3 15.404 3 14.3432V9.65785C3 8.59699 3.42143 7.57957 4.17157 6.82943L6.82943 4.17157C7.57957 3.42143 8.59699 3 9.65785 3H14.3411C15.402 3 16.4194 3.42142 17.1696 4.17157L19.8284 6.83043C20.5786 7.58058 21 8.59799 21 9.65886V14.3421C21 15.4027 20.5788 16.4199 19.829 17.17L17.1721 19.8279C16.4219 20.5784 15.4043 21 14.3432 21H9.65686C8.59599 21 7.57858 20.5786 6.82843 19.8284Z" stroke="#161924" stroke-width="1.5" stroke-linecap="round" stroke-linejoin="round"/>
</svg>
