<svg width="24" height="24" viewBox="0 0 24 24" fill="none" xmlns="http://www.w3.org/2000/svg">
<path d="M20.1213 19.1213C18.9497 20.2929 17.0502 20.2929 15.8787 19.1213C14.7071 17.9497 14.7071 16.0503 15.8787 14.8787C17.0502 13.7071 18.9497 13.7071 20.1213 14.8787C20.6839 15.4413 21 16.2043 21 17C21 17.7957 20.6839 18.5587 20.1213 19.1213V19.1213V19.1213" stroke="#161924" stroke-width="1.5" stroke-linecap="round" stroke-linejoin="round"/>
<path d="M15.8787 19.1213L14.5 20.5" stroke="#161924" stroke-width="1.5" stroke-linecap="round" stroke-linejoin="round"/>
<path d="M11 21H8C5.23858 21 3 18.7614 3 16V8C3 5.23858 5.23858 3 8 3H16C18.7614 3 21 5.23858 21 8V11" stroke="#161924" stroke-width="1.5" stroke-linecap="round" stroke-linejoin="round"/>
<path d="M17 11V10C17 8.89543 16.1046 8 15 8H9C7.89543 8 7 8.89543 7 10V14C7 15.1046 7.89543 16 9 16H12" stroke="#161924" stroke-width="1.5" stroke-linecap="round" stroke-linejoin="round"/>
<path d="M9.75 11L11.5556 11.8958C11.8356 12.0347 12.1645 12.0347 12.4445 11.8958L14.25 11" stroke="#161924" stroke-width="1.5" stroke-linecap="round" stroke-linejoin="round"/>
</svg>
