<svg width="24" height="24" viewBox="0 0 24 24" fill="none" xmlns="http://www.w3.org/2000/svg">
<path fill-rule="evenodd" clip-rule="evenodd" d="M7 8.5V12.5C7 13.6046 7.89543 14.5 9 14.5H15C16.1046 14.5 17 13.6046 17 12.5V8.5C17 7.39543 16.1046 6.5 15 6.5H9C7.89543 6.5 7 7.39543 7 8.5Z" stroke="#161924" stroke-width="1.5" stroke-linecap="round" stroke-linejoin="round"/>
<path d="M9.75 9.5L11.4956 10.3819C11.8135 10.5394 12.1866 10.5394 12.5044 10.3819L14.25 9.5" stroke="#161924" stroke-width="1.5" stroke-linecap="round" stroke-linejoin="round"/>
<path fill-rule="evenodd" clip-rule="evenodd" d="M17 3H7C4.79086 3 3 4.79086 3 7V14C3 16.2091 4.79086 18 7 18H9V20.4429C9 20.6567 9.12253 20.8515 9.3152 20.9441C9.50787 21.0367 9.73656 21.0107 9.90349 20.8771L13.5 18H17C19.2091 18 21 16.2091 21 14V7C21 4.79086 19.2091 3 17 3Z" stroke="#161924" stroke-width="1.5" stroke-linecap="round" stroke-linejoin="round"/>
</svg>
