<svg width="24" height="24" viewBox="0 0 24 24" fill="none" xmlns="http://www.w3.org/2000/svg">
<path d="M10 18H7C4.79086 18 3 16.2091 3 14V7C3 4.79086 4.79086 3 7 3H17C19.2091 3 21 4.79086 21 7V10" stroke="#161924" stroke-width="1.5" stroke-linecap="round" stroke-linejoin="round"/>
<path d="M7 7.5L11.2072 9.33384C11.7133 9.55453 12.2883 9.5554 12.7952 9.33625L17 7.51861" stroke="#161924" stroke-width="1.5" stroke-linecap="round" stroke-linejoin="round"/>
<path fill-rule="evenodd" clip-rule="evenodd" d="M16.9493 13.5576C17.1177 13.2162 17.4654 13.0001 17.8461 13.0001C18.2267 13.0001 18.5744 13.2162 18.7428 13.5576L19.2516 14.589C19.3973 14.8842 19.6789 15.0888 20.0046 15.1362L21.1428 15.3016C21.5193 15.3564 21.8322 15.6201 21.9499 15.982C22.0675 16.3439 21.9695 16.7412 21.6971 17.007L20.8732 17.8106C20.6377 18.0403 20.5303 18.3712 20.5859 18.6955L20.7803 19.8288C20.8446 20.2039 20.6904 20.583 20.3825 20.8068C20.0746 21.0305 19.6664 21.0601 19.3295 20.883L18.3113 20.3479C18.02 20.1948 17.6721 20.1948 17.3809 20.3479L16.3627 20.883C16.0257 21.06 15.6176 21.0304 15.3097 20.8067C15.0018 20.583 14.8476 20.2039 14.9119 19.8288L15.1063 18.6955C15.162 18.3712 15.0545 18.0403 14.819 17.8106L13.9951 17.007C13.7227 16.7412 13.6247 16.3439 13.7424 15.982C13.86 15.6201 14.1729 15.3564 14.5495 15.3016L15.6876 15.1362C16.0134 15.0888 16.295 14.8842 16.4406 14.589L16.9493 13.5576Z" stroke="#161924" stroke-width="1.5" stroke-linecap="round" stroke-linejoin="round"/>
</svg>
