<svg width="24" height="24" viewBox="0 0 24 24" fill="none" xmlns="http://www.w3.org/2000/svg">
<path d="M11 18H7C4.79086 18 3 16.2091 3 14V7C3 4.79086 4.79086 3 7 3H17C19.2091 3 21 4.79086 21 7V10" stroke="#161924" stroke-width="1.5" stroke-linecap="round" stroke-linejoin="round"/>
<path d="M7 7.5L11.2046 9.33327C11.7124 9.55467 12.2893 9.55554 12.7978 9.33568L17 7.51862" stroke="#161924" stroke-width="1.5" stroke-linecap="round" stroke-linejoin="round"/>
<circle cx="18" cy="17" r="4" stroke="#161924" stroke-width="1.5" stroke-linecap="round" stroke-linejoin="round"/>
<path d="M19.2492 17.0001C19.2492 17.0277 19.2268 17.05 19.1992 17.05C19.1716 17.05 19.1492 17.0276 19.1492 17C19.1492 16.9724 19.1716 16.95 19.1992 16.95C19.2268 16.95 19.2492 16.9723 19.2492 16.9999V17.0001" stroke="#161924" stroke-width="1.5" stroke-linecap="round" stroke-linejoin="round"/>
<path d="M16.8498 17.0001C16.8498 17.0277 16.8274 17.05 16.7998 17.05C16.7722 17.05 16.7498 17.0276 16.7498 17C16.7498 16.9724 16.7722 16.95 16.7998 16.95C16.8274 16.95 16.8498 16.9723 16.8498 16.9999V17.0001" stroke="#161924" stroke-width="1.5" stroke-linecap="round" stroke-linejoin="round"/>
</svg>
