<svg width="24" height="24" viewBox="0 0 24 24" fill="none" xmlns="http://www.w3.org/2000/svg">
<path fill-rule="evenodd" clip-rule="evenodd" d="M2 14.4V18.8C2 20.015 2.98497 21 4.2 21H10.8C12.015 21 13 20.015 13 18.8V14.4C13 13.8165 12.7682 13.257 12.3556 12.8444C11.9431 12.4318 11.3835 12.2 10.8 12.2H4.2C2.98497 12.2 2 13.185 2 14.4Z" stroke="#161924" stroke-width="1.5" stroke-linecap="round" stroke-linejoin="round"/>
<path d="M5.02539 15.5L6.94558 16.4701C7.29521 16.6433 7.70565 16.6433 8.05527 16.4701L9.97539 15.5" stroke="#161924" stroke-width="1.5" stroke-linecap="round" stroke-linejoin="round"/>
<path d="M19 15V20" stroke="#161924" stroke-width="1.5" stroke-linecap="round" stroke-linejoin="round"/>
<path d="M21 17L19 15L17 17" stroke="#161924" stroke-width="1.5" stroke-linecap="round" stroke-linejoin="round"/>
<path d="M5 9V4" stroke="#161924" stroke-width="1.5" stroke-linecap="round" stroke-linejoin="round"/>
<path d="M3 7L5 9L7 7" stroke="#161924" stroke-width="1.5" stroke-linecap="round" stroke-linejoin="round"/>
<path d="M15.5 11.8H19.8C21.015 11.8 22 10.815 22 9.6V5.2C22 3.98497 21.015 3 19.8 3H13.2C11.985 3 11 3.98497 11 5.2V9" stroke="#161924" stroke-width="1.5" stroke-linecap="round" stroke-linejoin="round"/>
<path d="M14.0254 6.29999L15.9456 7.2701C16.2952 7.44328 16.7056 7.44328 17.0553 7.2701L18.9754 6.29999" stroke="#161924" stroke-width="1.5" stroke-linecap="round" stroke-linejoin="round"/>
</svg>
