<svg width="24" height="24" viewBox="0 0 24 24" fill="none" xmlns="http://www.w3.org/2000/svg">
<path d="M5.74703 8.99874H3.49609" stroke="#161924" stroke-width="1.5" stroke-linecap="round" stroke-linejoin="round"/>
<path d="M5.74703 15.0012H3.49609" stroke="#161924" stroke-width="1.5" stroke-linecap="round" stroke-linejoin="round"/>
<path d="M5.74766 12H1.99609" stroke="#161924" stroke-width="1.5" stroke-linecap="round" stroke-linejoin="round"/>
<path d="M5.63379 5.63337C8.20884 3.05832 12.0815 2.28799 15.446 3.6816C18.8105 5.07521 21.0042 8.35831 21.0042 12C21.0042 15.6417 18.8105 18.9248 15.446 20.3184C12.0815 21.712 8.20884 20.9417 5.63379 18.3666" stroke="#161924" stroke-width="1.5" stroke-linecap="round" stroke-linejoin="round"/>
<path fill-rule="evenodd" clip-rule="evenodd" d="M9.57819 9.38077L10.4922 11.6205C10.5911 11.8626 10.5911 12.1338 10.4923 12.3759L9.57709 14.6194C9.41726 15.0112 9.52118 15.4611 9.83662 15.7431C10.1521 16.0251 10.6108 16.0782 10.9823 15.8756L16.481 12.8781C16.8025 12.7028 17.0026 12.3659 17.0026 11.9997C17.0026 11.6336 16.8025 11.2967 16.481 11.1214L10.9833 8.1244C10.6118 7.92185 10.1531 7.97493 9.83762 8.25697C9.52218 8.53901 9.4183 8.98901 9.57819 9.38077Z" stroke="#161924" stroke-width="1.5" stroke-linecap="round" stroke-linejoin="round"/>
<path d="M16.0021 12H11" stroke="#161924" stroke-width="1.5" stroke-linecap="round" stroke-linejoin="round"/>
</svg>
