<svg width="24" height="24" viewBox="0 0 24 24" fill="none" xmlns="http://www.w3.org/2000/svg">
<path d="M16 21H18C19.6569 21 21 19.6569 21 18V8.50931C21 7.71366 20.6839 6.95061 20.1213 6.388L17.612 3.87868C17.0494 3.31607 16.2863 3 15.4907 3H8C6.34315 3 5 4.34315 5 6V10" stroke="#161924" stroke-width="1.5" stroke-linecap="round" stroke-linejoin="round"/>
<path d="M21 8.5H17.5C16.3954 8.5 15.5 7.60457 15.5 6.5V3" stroke="#161924" stroke-width="1.5" stroke-linecap="round" stroke-linejoin="round"/>
<path fill-rule="evenodd" clip-rule="evenodd" d="M3 15V19C3 20.1046 3.89543 21 5 21H11C12.1046 21 13 20.1046 13 19V15C13 13.8954 12.1046 13 11 13H5C3.89543 13 3 13.8954 3 15Z" stroke="#161924" stroke-width="1.5" stroke-linecap="round" stroke-linejoin="round"/>
<path d="M6.01172 16L7.56339 16.8819C7.84156 17.0394 8.18193 17.0394 8.46011 16.8819L10.0117 16" stroke="#161924" stroke-width="1.5" stroke-linecap="round" stroke-linejoin="round"/>
</svg>
