<svg width="24" height="24" viewBox="0 0 24 24" fill="none" xmlns="http://www.w3.org/2000/svg">
<path fill-rule="evenodd" clip-rule="evenodd" d="M13 16V19C13 20.1046 13.8954 21 15 21H20C21.1046 21 22 20.1046 22 19V16C22 14.8954 21.1046 14 20 14H15C13.8954 14 13 14.8954 13 16Z" stroke="#161924" stroke-width="1.5" stroke-linecap="round" stroke-linejoin="round"/>
<path d="M22 17H13" stroke="#161924" stroke-width="1.5" stroke-linecap="round" stroke-linejoin="round"/>
<path d="M9 18H7C4.79086 18 3 16.2091 3 14V7C3 4.79086 4.79086 3 7 3H17C19.2091 3 21 4.79086 21 7V10" stroke="#161924" stroke-width="1.5" stroke-linecap="round" stroke-linejoin="round"/>
<path d="M17 7.51853L12.7665 9.34219C12.278 9.55342 11.7237 9.55256 11.2358 9.33984L7 7.5" stroke="#161924" stroke-width="1.5" stroke-linecap="round" stroke-linejoin="round"/>
</svg>
