<svg width="24" height="24" viewBox="0 0 24 24" fill="none" xmlns="http://www.w3.org/2000/svg">
<path fill-rule="evenodd" clip-rule="evenodd" d="M19 15H10C8.34315 15 7 13.6569 7 12V6C7 4.34315 8.34315 3 10 3H19C20.6569 3 22 4.34315 22 6V12C22 13.6569 20.6569 15 19 15Z" stroke="#161924" stroke-width="1.5" stroke-linecap="round" stroke-linejoin="round"/>
<path fill-rule="evenodd" clip-rule="evenodd" d="M17 6H18C18.5522 6.0002 18.9998 6.4478 19 7V8C18.9998 8.5522 18.5522 8.9998 18 9H17C16.4478 8.9998 16.0002 8.5522 16 8V7C16.0002 6.4478 16.4478 6.0002 17 6Z" stroke="#161924" stroke-width="1.5" stroke-linecap="round" stroke-linejoin="round"/>
<path d="M12 9H10" stroke="#161924" stroke-width="1.5" stroke-linecap="round" stroke-linejoin="round"/>
<path d="M14 12H10" stroke="#161924" stroke-width="1.5" stroke-linecap="round" stroke-linejoin="round"/>
<path d="M18 15V18C18 19.6569 16.6569 21 15 21H5C3.34315 21 2 19.6569 2 18V12C2 10.3431 3.34315 9 5 9H7" stroke="#161924" stroke-width="1.5" stroke-linecap="round" stroke-linejoin="round"/>
</svg>
