<svg width="24" height="24" viewBox="0 0 24 24" fill="none" xmlns="http://www.w3.org/2000/svg">
<path d="M19.4784 14.5262C20.8457 15.8936 20.8457 18.1106 19.4783 19.478C18.1109 20.8454 15.8939 20.8454 14.5265 19.478C13.1591 18.1106 13.1591 15.8936 14.5265 14.5262C15.1832 13.8695 16.0738 13.5006 17.0024 13.5006C17.9311 13.5006 18.8217 13.8695 19.4784 14.5262V14.5262V14.5262" stroke="#161924" stroke-width="1.5" stroke-linecap="round" stroke-linejoin="round"/>
<path d="M9.99901 18.0025H5.99734C4.3398 18.0025 2.99609 16.6588 2.99609 15.0012V6.99789C2.99609 5.34035 4.3398 3.99664 5.99734 3.99664H18.0023C19.6599 3.99664 21.0036 5.34035 21.0036 6.99789V12" stroke="#161924" stroke-width="1.5" stroke-linecap="round" stroke-linejoin="round"/>
<path d="M20.9647 6.6128L13.5339 10.9534C12.5987 11.4998 11.4416 11.4998 10.5063 10.9534L3.03711 6.59039" stroke="#161924" stroke-width="1.5" stroke-linecap="round" stroke-linejoin="round"/>
<path d="M19.5029 19.5031L21.0036 21.0037" stroke="#161924" stroke-width="1.5" stroke-linecap="round" stroke-linejoin="round"/>
</svg>
