<svg width="24" height="24" viewBox="0 0 24 24" fill="none" xmlns="http://www.w3.org/2000/svg">
<path d="M13.4646 10.4647L13.4647 10.4646C13.4842 10.4451 13.5159 10.4451 13.5354 10.4647C13.5549 10.4842 13.5549 10.5158 13.5354 10.5354C13.5158 10.5549 13.4842 10.5549 13.4647 10.5354C13.4451 10.5159 13.4451 10.4842 13.4646 10.4647" stroke="#161924" stroke-width="1.5" stroke-linecap="round" stroke-linejoin="round"/>
<path d="M7.5 11.5756C8.87015 11.3118 10.282 11.7448 11.2686 12.7314C12.2552 13.718 12.6882 15.1298 12.4244 16.5" stroke="#161924" stroke-width="1.5" stroke-linecap="round" stroke-linejoin="round"/>
<rect x="7.5" y="7.5" width="9" height="9" rx="2" stroke="#161924" stroke-width="1.5" stroke-linecap="round" stroke-linejoin="round"/>
<path fill-rule="evenodd" clip-rule="evenodd" d="M3.68854 3.68854V3.68854C2.77049 4.6066 2.77049 6.09506 3.68854 7.01311V7.01311C4.60659 7.93118 4.60659 9.41963 3.68854 10.3377V10.3377C2.77049 11.2558 2.77049 12.7442 3.68854 13.6623V13.6623C4.60659 14.5803 4.60659 16.0688 3.68854 16.9869V16.9869C2.77049 17.9049 2.77049 19.3934 3.68854 20.3114V20.3114C4.60659 21.2295 6.09505 21.2295 7.01311 20.3114V20.3114C7.93117 19.3934 9.41963 19.3934 10.3377 20.3114V20.3114C11.2558 21.2295 12.7442 21.2295 13.6623 20.3114V20.3114C14.5803 19.3934 16.0688 19.3934 16.9868 20.3114V20.3114C17.9049 21.2295 19.3934 21.2295 20.3114 20.3114V20.3114C21.2295 19.3934 21.2295 17.9049 20.3114 16.9869V16.9869C19.3934 16.0688 19.3934 14.5803 20.3114 13.6623V13.6623C21.2295 12.7442 21.2295 11.2558 20.3114 10.3377V10.3377C19.3934 9.41963 19.3934 7.93118 20.3114 7.01311V7.01311C21.2295 6.09506 21.2295 4.6066 20.3114 3.68854V3.68854C19.3934 2.77049 17.9049 2.77049 16.9869 3.68854V3.68854C16.0688 4.60659 14.5803 4.60659 13.6623 3.68854V3.68854C12.7442 2.7705 11.2558 2.7705 10.3377 3.68854V3.68854C9.41964 4.60659 7.93118 4.60659 7.01312 3.68854V3.68854C6.57225 3.24768 5.97431 3 5.35083 3C4.72735 3 4.12941 3.24768 3.68854 3.68854Z" stroke="#161924" stroke-width="1.5" stroke-linecap="round" stroke-linejoin="round"/>
</svg>
