<svg width="24" height="24" viewBox="0 0 24 24" fill="none" xmlns="http://www.w3.org/2000/svg">
<path d="M5.63379 5.63337C8.20884 3.05832 12.0815 2.28799 15.446 3.6816C18.8105 5.07521 21.0042 8.35831 21.0042 12C21.0042 15.6417 18.8105 18.9248 15.446 20.3184C12.0815 21.712 8.20884 20.9417 5.63379 18.3666" stroke="#161924" stroke-width="1.5" stroke-linecap="round" stroke-linejoin="round"/>
<path fill-rule="evenodd" clip-rule="evenodd" d="M15.5004 8.49854H10.0501C9.3874 8.49854 8.80317 8.93323 8.61275 9.56798L7.56232 13.0694C7.42602 13.5238 7.51257 14.0158 7.79573 14.3964C8.07889 14.777 8.52531 15.0012 8.99966 15.0012H14.4499C15.1126 15.0012 15.6969 14.5665 15.8873 13.9318L16.9377 10.4303C17.074 9.97599 16.9875 9.48395 16.7043 9.10338C16.4211 8.72282 15.9747 8.49854 15.5004 8.49854V8.49854Z" stroke="#161924" stroke-width="1.5" stroke-linecap="round" stroke-linejoin="round"/>
<path d="M13.9007 11.2497L11.8998 12.2501L10.8994 11.2497" stroke="#161924" stroke-width="1.5" stroke-linecap="round" stroke-linejoin="round"/>
<path d="M5.99734 8.99869L2.99609 8.9988" stroke="#161924" stroke-width="1.5" stroke-linecap="round" stroke-linejoin="round"/>
<path d="M4.99693 15.0012H2.99609" stroke="#161924" stroke-width="1.5" stroke-linecap="round" stroke-linejoin="round"/>
<path d="M4.99734 11.9999L1.99609 12" stroke="#161924" stroke-width="1.5" stroke-linecap="round" stroke-linejoin="round"/>
</svg>
