<svg width="24" height="24" viewBox="0 0 24 24" fill="none" xmlns="http://www.w3.org/2000/svg">
<path d="M10.9994 18.0025H5.99734C4.3398 18.0025 2.99609 16.6588 2.99609 15.0012V6.99789C2.99609 5.34035 4.3398 3.99664 5.99734 3.99664H18.0023C19.6599 3.99664 21.0036 5.34035 21.0036 6.99789V10.9996" stroke="#161924" stroke-width="1.5" stroke-linecap="round" stroke-linejoin="round"/>
<path d="M20.9647 6.6128L13.5339 10.9534C12.5987 11.4998 11.4416 11.4998 10.5063 10.9534L3.03711 6.59039" stroke="#161924" stroke-width="1.5" stroke-linecap="round" stroke-linejoin="round"/>
<path d="M18.0026 13.0004C20.2127 13.0004 22.0043 14.792 22.0043 17.0021C22.0043 19.2122 20.2127 21.0038 18.0026 21.0038C15.7926 21.0038 14.001 19.2122 14.001 17.0021C14.001 14.792 15.7926 13.0004 18.0026 13.0004" stroke="#161924" stroke-width="1.5" stroke-linecap="round" stroke-linejoin="round"/>
<path d="M19.253 16.416L17.6906 17.9784L16.752 17.0405" stroke="#161924" stroke-width="1.5" stroke-linecap="round" stroke-linejoin="round"/>
</svg>
