<svg width="24" height="24" viewBox="0 0 24 24" fill="none" xmlns="http://www.w3.org/2000/svg">
<path d="M3 14V17C3.0001 19.2091 4.7909 20.9999 7 21H15.343C16.4041 21.0001 17.4218 20.5785 18.172 19.828L20.122 17.878C20.6843 17.3154 21.0002 16.5525 21 15.757V7C20.9999 4.7909 19.2091 3.0001 17 3H16" stroke="#161924" stroke-width="1.5" stroke-linecap="round" stroke-linejoin="round"/>
<path d="M15 21V17C14.9999 16.4697 15.2104 15.9611 15.5852 15.586C15.9601 15.2109 16.4686 15.0001 16.9989 15H21" stroke="#161924" stroke-width="1.5" stroke-linecap="round" stroke-linejoin="round"/>
<path fill-rule="evenodd" clip-rule="evenodd" d="M3 5V9C3 10.1046 3.89543 11 5 11H11C12.1046 11 13 10.1046 13 9V5C13 3.89543 12.1046 3 11 3H5C3.89543 3 3 3.89543 3 5Z" stroke="#161924" stroke-width="1.5" stroke-linecap="round" stroke-linejoin="round"/>
<path d="M5.75 6L7.55559 6.89583C7.8356 7.03476 8.16448 7.03476 8.44449 6.89583L10.25 6" stroke="#161924" stroke-width="1.5" stroke-linecap="round" stroke-linejoin="round"/>
</svg>
