<svg width="24" height="24" viewBox="0 0 24 24" fill="none" xmlns="http://www.w3.org/2000/svg">
<path d="M5 3C4.46952 2.99985 3.96073 3.21052 3.58563 3.58563C3.21052 3.96073 2.99985 4.46952 3 5" stroke="#161924" stroke-width="1.5" stroke-linecap="round" stroke-linejoin="round"/>
<path d="M3 19C2.99985 19.5305 3.21052 20.0393 3.58563 20.4144C3.96073 20.7895 4.46952 21.0001 5 21" stroke="#161924" stroke-width="1.5" stroke-linecap="round" stroke-linejoin="round"/>
<path d="M3 13.67V15.67" stroke="#161924" stroke-width="1.5" stroke-linecap="round" stroke-linejoin="round"/>
<path d="M3 8.33002V10.33" stroke="#161924" stroke-width="1.5" stroke-linecap="round" stroke-linejoin="round"/>
<path d="M8.33008 21H10.3301" stroke="#161924" stroke-width="1.5" stroke-linecap="round" stroke-linejoin="round"/>
<path d="M8.33008 3H10.3301" stroke="#161924" stroke-width="1.5" stroke-linecap="round" stroke-linejoin="round"/>
<path d="M19 21C19.5305 21.0001 20.0393 20.7895 20.4144 20.4144C20.7895 20.0393 21.0001 19.5305 21 19" stroke="#161924" stroke-width="1.5" stroke-linecap="round" stroke-linejoin="round"/>
<path d="M21 5C21.0001 4.46952 20.7895 3.96073 20.4144 3.58563C20.0393 3.21052 19.5305 2.99985 19 3" stroke="#161924" stroke-width="1.5" stroke-linecap="round" stroke-linejoin="round"/>
<path d="M21 10.33V8.33002" stroke="#161924" stroke-width="1.5" stroke-linecap="round" stroke-linejoin="round"/>
<path d="M21 15.67V13.67" stroke="#161924" stroke-width="1.5" stroke-linecap="round" stroke-linejoin="round"/>
<path d="M15.6699 3H13.6699" stroke="#161924" stroke-width="1.5" stroke-linecap="round" stroke-linejoin="round"/>
<path d="M15.6699 21H13.6699" stroke="#161924" stroke-width="1.5" stroke-linecap="round" stroke-linejoin="round"/>
<path fill-rule="evenodd" clip-rule="evenodd" d="M7 10V14C7 15.1046 7.89543 16 9 16H15C16.1046 16 17 15.1046 17 14V10C17 8.89543 16.1046 8 15 8H9C7.89543 8 7 8.89543 7 10Z" stroke="#161924" stroke-width="1.5" stroke-linecap="round" stroke-linejoin="round"/>
<path d="M9.75 11L11.4956 11.8819C11.8135 12.0394 12.1866 12.0394 12.5044 11.8819L14.25 11" stroke="#161924" stroke-width="1.5" stroke-linecap="round" stroke-linejoin="round"/>
</svg>
