<svg width="24" height="24" viewBox="0 0 24 24" fill="none" xmlns="http://www.w3.org/2000/svg">
<path d="M17.5 20.5L16 19L17.5 17.5" stroke="#161924" stroke-width="1.5" stroke-linecap="round" stroke-linejoin="round"/>
<path d="M16 19H19C20.1046 19 21 18.1046 21 17V16" stroke="#161924" stroke-width="1.5" stroke-linecap="round" stroke-linejoin="round"/>
<path d="M6.5 3.5L8 5L6.5 6.5" stroke="#161924" stroke-width="1.5" stroke-linecap="round" stroke-linejoin="round"/>
<path d="M8 5H5C3.89543 5 3 5.89543 3 7V8" stroke="#161924" stroke-width="1.5" stroke-linecap="round" stroke-linejoin="round"/>
<path d="M16 12H19.75C20.9926 12 22 10.9926 22 9.75V5.25C22 4.00736 20.9926 3 19.75 3H13.25C12.0074 3 11 4.00736 11 5.25V9" stroke="#161924" stroke-width="1.5" stroke-linecap="round" stroke-linejoin="round"/>
<path fill-rule="evenodd" clip-rule="evenodd" d="M2 14.25V18.75C2 19.9926 3.00736 21 4.25 21H10.75C11.9926 21 13 19.9926 13 18.75V14.25C13 13.0074 11.9926 12 10.75 12H4.25C3.00736 12 2 13.0074 2 14.25Z" stroke="#161924" stroke-width="1.5" stroke-linecap="round" stroke-linejoin="round"/>
<path d="M5 15.5L6.98914 16.3908C7.31419 16.5364 7.6859 16.5364 8.01095 16.3908L10 15.5" stroke="#161924" stroke-width="1.5" stroke-linecap="round" stroke-linejoin="round"/>
<path d="M14 6.50001L15.9891 7.39081C16.3142 7.53638 16.6859 7.53638 17.011 7.39081L19 6.50001" stroke="#161924" stroke-width="1.5" stroke-linecap="round" stroke-linejoin="round"/>
</svg>
