<svg width="24" height="24" viewBox="0 0 24 24" fill="none" xmlns="http://www.w3.org/2000/svg">
<path d="M10.9994 18.0025H5.99734C4.3398 18.0025 2.99609 16.6588 2.99609 15.0012V6.99789C2.99609 5.34035 4.3398 3.99664 5.99734 3.99664H18.0023C19.6599 3.99664 21.0036 5.34035 21.0036 6.99789V10.9996" stroke="#161924" stroke-width="1.5" stroke-linecap="round" stroke-linejoin="round"/>
<path d="M20.9647 6.6128L13.5339 10.9534C12.5987 11.4998 11.4416 11.4998 10.5063 10.9534L3.03711 6.59039" stroke="#161924" stroke-width="1.5" stroke-linecap="round" stroke-linejoin="round"/>
<path fill-rule="evenodd" clip-rule="evenodd" d="M17.0994 20.7283L21.2111 16.6165C21.6017 16.2259 21.6017 15.5926 21.2111 15.202L19.8027 13.7936C19.6151 13.606 19.3607 13.5006 19.0955 13.5006C18.8302 13.5006 18.5758 13.606 18.3882 13.7936L14.2765 17.9053C14.1001 18.0817 14.001 18.3209 14.001 18.5704V20.5037C14.001 20.6363 14.0537 20.7635 14.1475 20.8573C14.2412 20.9511 14.3684 21.0038 14.5011 21.0038H16.4344C16.6838 21.0038 16.923 20.9047 17.0994 20.7283V20.7283Z" stroke="#161924" stroke-width="1.5" stroke-linecap="round" stroke-linejoin="round"/>
</svg>
