<svg width="24" height="24" viewBox="0 0 24 24" fill="none" xmlns="http://www.w3.org/2000/svg">
<path d="M11 19H7C4.79086 19 3 17.2091 3 15V8C3 5.79086 4.79086 4 7 4H17C19.2091 4 21 5.79086 21 8V11" stroke="#161924" stroke-width="1.5" stroke-linecap="round" stroke-linejoin="round"/>
<path d="M7 8.5L11.2046 10.3333C11.7124 10.5547 12.2893 10.5555 12.7978 10.3357L17 8.51861" stroke="#161924" stroke-width="1.5" stroke-linecap="round" stroke-linejoin="round"/>
<path d="M18 21H16.25C15.5596 21 15 20.4404 15 19.75V18.25C15 17.5596 15.5596 17 16.25 17H19.75C20.4404 17 21 17.5596 21 18.25V19.75C21 20.4404 20.4404 21 19.75 21H18" stroke="#161924" stroke-width="1.5" stroke-linecap="round" stroke-linejoin="round"/>
<path d="M16.25 17V15.75C16.25 14.7835 17.0335 14 18 14V14C18.9665 14 19.75 14.7835 19.75 15.75V17" stroke="#161924" stroke-width="1.5" stroke-linecap="round" stroke-linejoin="round"/>
</svg>
