<svg width="24" height="24" viewBox="0 0 24 24" fill="none" xmlns="http://www.w3.org/2000/svg">
<circle cx="18" cy="10.113" r="4.5" stroke="#161924" stroke-width="1.5" stroke-linecap="round" stroke-linejoin="round"/>
<path d="M21 16.75V18C21 19.6568 19.6568 21 18 21H6C4.34315 21 3 19.6568 3 18V10.3604C3 9.73796 3.28981 9.15099 3.784 8.77254L10.784 3.4121C11.5015 2.86263 12.4984 2.86263 13.2159 3.4121L14.2499 4.20391" stroke="#161924" stroke-width="1.5" stroke-linecap="round" stroke-linejoin="round"/>
<path d="M13.2156 15.5878C12.4981 16.1373 11.5012 16.1373 10.7837 15.5878L3.10938 9.71106" stroke="#161924" stroke-width="1.5" stroke-linecap="round" stroke-linejoin="round"/>
<path d="M19.5884 10.1131C19.5884 10.1376 19.5685 10.1575 19.5439 10.1575C19.5194 10.1575 19.4995 10.1376 19.4995 10.113C19.4995 10.0885 19.5194 10.0686 19.5439 10.0686C19.5685 10.0686 19.5884 10.0884 19.5884 10.113V10.1131" stroke="#161924" stroke-width="1.5" stroke-linecap="round" stroke-linejoin="round"/>
<path d="M17.1001 10.1131C17.1001 10.1376 17.0802 10.1575 17.0556 10.1575C17.0311 10.1575 17.0112 10.1376 17.0112 10.113C17.0112 10.0885 17.0311 10.0686 17.0556 10.0686C17.0802 10.0686 17.1001 10.0884 17.1001 10.113V10.1131" stroke="#161924" stroke-width="1.5" stroke-linecap="round" stroke-linejoin="round"/>
</svg>
