<svg width="24" height="24" viewBox="0 0 24 24" fill="none" xmlns="http://www.w3.org/2000/svg">
<path d="M17 15H18.5C20.433 15 22 13.433 22 11.5V6.5C22 4.567 20.433 3 18.5 3H10.5C8.567 3 7 4.567 7 6.5V9" stroke="#161924" stroke-width="1.5" stroke-linecap="round" stroke-linejoin="round"/>
<path d="M5.5 12.9851L8.51745 14.282C9.14529 14.5518 9.85623 14.5529 10.4849 14.285L13.5 12.9998" stroke="#161924" stroke-width="1.5" stroke-linecap="round" stroke-linejoin="round"/>
<path fill-rule="evenodd" clip-rule="evenodd" d="M5 9H13.5C15.433 9 17 10.567 17 12.5V17.5C17 19.433 15.433 21 13.5 21H5.5C3.567 21 2 19.433 2 17.5V12C2 10.3431 3.34315 9 5 9Z" stroke="#161924" stroke-width="1.5" stroke-linecap="round" stroke-linejoin="round"/>
</svg>
