<svg width="24" height="24" viewBox="0 0 24 24" fill="none" xmlns="http://www.w3.org/2000/svg">
<path d="M17.0021 2.99625V3.52433C17.0021 3.83495 17.0744 4.1413 17.2133 4.41913L18.5827 7.15781C18.859 7.70861 19.0029 8.31631 19.0029 8.93252C19.0029 11.1598 19.0029 16.3006 19.0029 17.709C19.0029 17.9055 18.9709 18.1008 18.9081 18.287L18.4935 19.5306C18.244 20.3939 17.4589 20.9921 16.5604 21.0037H7.43959C6.57836 21.0037 5.81376 20.4527 5.54142 19.6356L5.20244 18.6188C5.06641 18.2113 4.99707 17.7845 4.99707 17.3549C4.99707 15.5853 4.99707 11.0017 4.99707 8.93252C4.99707 8.31631 5.14095 7.70862 5.41725 7.15783L6.78689 4.41869C6.92573 4.14101 6.99798 3.8348 6.9979 3.52434V2.99625" stroke="#161924" stroke-width="1.5" stroke-linecap="round" stroke-linejoin="round"/>
<path d="M11.6284 9.74905L10.4995 12H13.5008L12.3719 14.2509" stroke="#161924" stroke-width="1.5" stroke-linecap="round" stroke-linejoin="round"/>
<path d="M18.9874 17.9367H5.0415" stroke="#161924" stroke-width="1.5" stroke-linecap="round" stroke-linejoin="round"/>
<path d="M18.0946 6.18179H5.90527" stroke="#161924" stroke-width="1.5" stroke-linecap="round" stroke-linejoin="round"/>
<path d="M17.5026 2.99624H6.49805" stroke="#161924" stroke-width="1.5" stroke-linecap="round" stroke-linejoin="round"/>
</svg>
