<svg width="24" height="24" viewBox="0 0 24 24" fill="none" xmlns="http://www.w3.org/2000/svg">
<path d="M5 13C3.89543 13 3 12.1046 3 11V5C3 3.89543 3.89543 3 5 3H14C15.1046 3 16 3.89543 16 5V8" stroke="#161924" stroke-width="1.5" stroke-linecap="round" stroke-linejoin="round"/>
<path d="M13 6.22388L10.1607 7.46155C9.7389 7.64546 9.25969 7.64617 8.83734 7.4635L6 6.237" stroke="#161924" stroke-width="1.5" stroke-linecap="round" stroke-linejoin="round"/>
<path d="M8 13L10.4962 14.6641C10.8247 14.8831 11.2107 15 11.6056 15H17.3945C17.7893 15 18.1753 14.8831 18.5038 14.6641L21 13" stroke="#161924" stroke-width="1.5" stroke-linecap="round" stroke-linejoin="round"/>
<rect x="8" y="11" width="13" height="10" rx="2" stroke="#161924" stroke-width="1.5" stroke-linecap="round" stroke-linejoin="round"/>
</svg>
