<svg width="24" height="24" viewBox="0 0 24 24" fill="none" xmlns="http://www.w3.org/2000/svg">
<path d="M4 3H18C19.105 3 20 3.895 20 5V18" stroke="#161924" stroke-width="1.5" stroke-linecap="round" stroke-linejoin="round"/>
<path d="M8 21V21C9.105 21 10 20.105 10 19V18" stroke="#161924" stroke-width="1.5" stroke-linecap="round" stroke-linejoin="round"/>
<path d="M13.986 7C14.832 7 15.4 7.745 15.4 8.439C15.4 9.847 13.043 11 13 11" stroke="#161924" stroke-width="1.5" stroke-linecap="round" stroke-linejoin="round"/>
<path d="M12.0136 7C11.1676 7 10.5996 7.745 10.5996 8.439C10.5996 9.847 12.9566 11 12.9996 11" stroke="#161924" stroke-width="1.5" stroke-linecap="round" stroke-linejoin="round"/>
<path d="M13.0002 7.42799C13.1842 7.22599 13.5022 6.99999 13.9862 6.99999" stroke="#161924" stroke-width="1.5" stroke-linecap="round" stroke-linejoin="round"/>
<path d="M12.9998 7.42799C12.8158 7.22599 12.4978 6.99999 12.0138 6.99999" stroke="#161924" stroke-width="1.5" stroke-linecap="round" stroke-linejoin="round"/>
<path d="M10 14H17" stroke="#161924" stroke-width="1.5" stroke-linecap="round" stroke-linejoin="round"/>
<path d="M10 18H22V18.895C22 20.058 21.058 21 19.895 21V21H8C6.895 21 6 20.105 6 19V6V5C6 3.895 5.105 3 4 3V3C2.895 3 2 3.895 2 5V6" stroke="#161924" stroke-width="1.5" stroke-linecap="round" stroke-linejoin="round"/>
<path d="M2 6H6" stroke="#161924" stroke-width="1.5" stroke-linecap="round" stroke-linejoin="round"/>
</svg>
