<svg width="24" height="24" viewBox="0 0 24 24" fill="none" xmlns="http://www.w3.org/2000/svg">
<path d="M4 7H18C19.105 7 20 7.895 20 9V20C20 21.105 19.105 22 18 22H6C4.895 22 4 21.105 4 20V7.051C4 6.168 4.579 5.39 5.424 5.136L15.712 2.044C16.354 1.85 17 2.331 17 3.001V7" stroke="#161924" stroke-width="1.5" stroke-linecap="round" stroke-linejoin="round"/>
<path fill-rule="evenodd" clip-rule="evenodd" d="M13.7248 11C15.2058 11 16.1998 12.304 16.1998 13.518C16.1998 15.982 12.0748 18 11.9998 18C11.9248 18 7.7998 15.982 7.7998 13.518C7.7998 12.304 8.7938 11 10.2748 11C11.1218 11 11.6778 11.396 11.9998 11.748C12.3218 11.396 12.8778 11 13.7248 11Z" stroke="#161924" stroke-width="1.5" stroke-linecap="round" stroke-linejoin="round"/>
</svg>
