<svg width="24" height="24" viewBox="0 0 24 24" fill="none" xmlns="http://www.w3.org/2000/svg">
<path d="M10 19H6C4.34315 19 3 17.6569 3 16V7C3 5.34315 4.34315 4 6 4H18C19.6569 4 21 5.34315 21 7V10" stroke="#161924" stroke-width="1.5" stroke-linecap="round" stroke-linejoin="round"/>
<path d="M22 14H20.742L19.741 19H14.696L14 15.5H20.442" stroke="#161924" stroke-width="1.5" stroke-linecap="round" stroke-linejoin="round"/>
<path d="M15.1715 21.4147C15.1521 21.4343 15.1522 21.4659 15.1717 21.4854C15.1913 21.5048 15.2229 21.5048 15.2424 21.4853C15.2619 21.4658 15.2619 21.4342 15.2425 21.4147C15.223 21.3951 15.1914 21.395 15.1718 21.4145L15.1715 21.4147" stroke="#161924" stroke-width="1.5" stroke-linecap="round" stroke-linejoin="round"/>
<path d="M19.1999 21.4147C19.1804 21.4343 19.1805 21.4659 19.2001 21.4854C19.2196 21.5048 19.2512 21.5048 19.2707 21.4853C19.2902 21.4658 19.2902 21.4342 19.2708 21.4147C19.2513 21.3951 19.2197 21.395 19.2001 21.4145L19.1999 21.4147" stroke="#161924" stroke-width="1.5" stroke-linecap="round" stroke-linejoin="round"/>
<path d="M7 8.5L11.2072 10.3338C11.7133 10.5545 12.2883 10.5554 12.7952 10.3363L17 8.5186" stroke="#161924" stroke-width="1.5" stroke-linecap="round" stroke-linejoin="round"/>
</svg>
