<svg width="24" height="24" viewBox="0 0 24 24" fill="none" xmlns="http://www.w3.org/2000/svg">
<path fill-rule="evenodd" clip-rule="evenodd" d="M19.862 20H4.138C2.957 20 2 19.043 2 17.862V6.138C2 4.957 2.957 4 4.138 4H19.862C21.043 4 22 4.957 22 6.138V17.862C22 19.043 21.043 20 19.862 20Z" stroke="#161924" stroke-width="1.5" stroke-linecap="round" stroke-linejoin="round"/>
<path fill-rule="evenodd" clip-rule="evenodd" d="M13.6821 9C13.2651 9.001 12.8711 9.144 12.5571 9.392C12.2381 9.644 11.7621 9.644 11.4431 9.392C11.1291 9.144 10.7341 9 10.3151 9C9.31012 9 8.49512 10.002 8.49512 11.009C8.49512 13.21 11.5331 15 12.0001 15C12.4671 15 15.5051 13.21 15.5051 11.009C15.5051 10.002 14.6891 9 13.6821 9V9Z" stroke="#161924" stroke-width="1.5" stroke-linecap="round" stroke-linejoin="round"/>
<path d="M21.6403 19.06L14.7803 12.91" stroke="#161924" stroke-width="1.5" stroke-linecap="round" stroke-linejoin="round"/>
<path d="M9.24996 12.96L2.45996 19.18" stroke="#161924" stroke-width="1.5" stroke-linecap="round" stroke-linejoin="round"/>
<path d="M21.8001 5.25L15.3701 10.28" stroke="#161924" stroke-width="1.5" stroke-linecap="round" stroke-linejoin="round"/>
<path d="M8.70047 10.14L2.23047 5.19" stroke="#161924" stroke-width="1.5" stroke-linecap="round" stroke-linejoin="round"/>
</svg>
