<svg width="24" height="24" viewBox="0 0 24 24" fill="none" xmlns="http://www.w3.org/2000/svg">
<path d="M8.06063 9.74908H5.49756V14.251H8.06063" stroke="#161924" stroke-width="1.5" stroke-linecap="round" stroke-linejoin="round"/>
<path d="M5.49951 12H7.6224" stroke="#161924" stroke-width="1.5" stroke-linecap="round" stroke-linejoin="round"/>
<path d="M16.0017 9.74908V14.251" stroke="#161924" stroke-width="1.5" stroke-linecap="round" stroke-linejoin="round"/>
<path d="M16.002 9.74908H17.6526C18.3985 9.74908 19.0032 10.3538 19.0032 11.0996V11.0996C19.0032 11.8455 18.3985 12.4502 17.6526 12.4502H16.004" stroke="#161924" stroke-width="1.5" stroke-linecap="round" stroke-linejoin="round"/>
<rect x="1.99609" y="1.99585" width="20.0083" height="20.0083" rx="9.99999" stroke="#161924" stroke-width="1.5" stroke-linecap="round" stroke-linejoin="round"/>
<path d="M12.2501 14.2509H10.7495" stroke="#161924" stroke-width="1.5" stroke-linecap="round" stroke-linejoin="round"/>
<path d="M13.0006 9.74905H11.5" stroke="#161924" stroke-width="1.5" stroke-linecap="round" stroke-linejoin="round"/>
<path d="M11.5 9.74908C10.8784 9.74908 10.3745 10.253 10.3745 10.8746V10.8746C10.3745 11.4961 10.8784 12 11.5 12" stroke="#161924" stroke-width="1.5" stroke-linecap="round" stroke-linejoin="round"/>
<path d="M12.25 12C12.8716 12 13.3755 12.5039 13.3755 13.1255V13.1255C13.3755 13.747 12.8716 14.2509 12.25 14.2509" stroke="#161924" stroke-width="1.5" stroke-linecap="round" stroke-linejoin="round"/>
<path d="M12.2504 12H11.5001" stroke="#161924" stroke-width="1.5" stroke-linecap="round" stroke-linejoin="round"/>
</svg>
