<svg width="24" height="24" viewBox="0 0 24 24" fill="none" xmlns="http://www.w3.org/2000/svg">
<path d="M8.31063 9.74905H5.74756V14.2509H8.31063" stroke="#161924" stroke-width="1.5" stroke-linecap="round" stroke-linejoin="round"/>
<path d="M5.74951 12H7.8724" stroke="#161924" stroke-width="1.5" stroke-linecap="round" stroke-linejoin="round"/>
<path d="M15.6516 9.74905V14.2509" stroke="#161924" stroke-width="1.5" stroke-linecap="round" stroke-linejoin="round"/>
<path d="M15.6519 9.74905H17.3025C18.0484 9.74905 18.6531 10.3537 18.6531 11.0996V11.0996C18.6531 11.8455 18.0484 12.4502 17.3025 12.4502H15.6539" stroke="#161924" stroke-width="1.5" stroke-linecap="round" stroke-linejoin="round"/>
<path d="M13.3005 10.2873C13.1086 9.95617 12.7558 9.75139 12.3731 9.74905H11.4727C10.9755 9.74905 10.5723 10.1522 10.5723 10.6494V10.8995C10.5724 11.2873 10.8206 11.6315 11.1886 11.7539L12.6582 12.2441C13.0258 12.3668 13.2736 12.7109 13.2735 13.0984V13.3496C13.2735 13.5883 13.1786 13.8174 13.0098 13.9862C12.8409 14.1551 12.6119 14.2499 12.3731 14.2499H11.4727C11.0915 14.2472 10.74 14.0433 10.5483 13.7137" stroke="#161924" stroke-width="1.5" stroke-linecap="round" stroke-linejoin="round"/>
<rect x="1.99609" y="2.99625" width="20.0083" height="18.0075" rx="5" stroke="#161924" stroke-width="1.5" stroke-linecap="round" stroke-linejoin="round"/>
</svg>
