<svg width="24" height="24" viewBox="0 0 24 24" fill="none" xmlns="http://www.w3.org/2000/svg">
<path d="M6.49805 2.49609L7.99867 3.99672L6.49805 5.49734" stroke="#161924" stroke-width="1.5" stroke-linecap="round" stroke-linejoin="round"/>
<path d="M7.99867 3.9967H5.99783C4.34029 3.9967 2.99658 5.34041 2.99658 6.99795" stroke="#161924" stroke-width="1.5" stroke-linecap="round" stroke-linejoin="round"/>
<path d="M17.5026 21.5039L16.002 20.0033L17.5026 18.5027" stroke="#161924" stroke-width="1.5" stroke-linecap="round" stroke-linejoin="round"/>
<path d="M16.002 20.0033H18.0028C19.6603 20.0033 21.004 18.6596 21.004 17.0021" stroke="#161924" stroke-width="1.5" stroke-linecap="round" stroke-linejoin="round"/>
<path d="M10.1523 6.15053C10.2924 5.95947 10.4455 5.7783 10.6105 5.60831C12.7634 3.48408 16.2272 3.49568 18.3658 5.63429C20.5044 7.77289 20.516 11.2367 18.3918 13.3895C18.2212 13.5543 18.0382 13.7059 17.8445 13.8427" stroke="#161924" stroke-width="1.5" stroke-linecap="round" stroke-linejoin="round"/>
<path fill-rule="evenodd" clip-rule="evenodd" d="M7.2749 14.4115V13.2269C7.2749 12.9838 7.43289 12.7689 7.66491 12.6964L9.33224 12.1753C9.44018 12.1416 9.55585 12.1416 9.66379 12.1753L11.3312 12.6964C11.5632 12.7689 11.7212 12.9838 11.7212 13.2269V14.4115C11.7212 15.5699 11.0026 16.6068 9.91797 17.0135L9.59559 17.1344C9.53268 17.158 9.46335 17.158 9.40044 17.1344L9.07813 17.0135C7.99349 16.6068 7.2749 15.5699 7.2749 14.4115Z" stroke="#161924" stroke-width="1.5" stroke-linecap="round" stroke-linejoin="round"/>
<circle cx="9.49887" cy="14.5011" r="5.50229" stroke="#161924" stroke-width="1.5" stroke-linecap="round" stroke-linejoin="round"/>
</svg>
