<svg width="24" height="24" viewBox="0 0 24 24" fill="none" xmlns="http://www.w3.org/2000/svg">
<path d="M21 18L18 21" stroke="#161924" stroke-width="1.5" stroke-linecap="round" stroke-linejoin="round"/>
<path d="M21 21V18H18" stroke="#161924" stroke-width="1.5" stroke-linecap="round" stroke-linejoin="round"/>
<path d="M3 6L6 3" stroke="#161924" stroke-width="1.5" stroke-linecap="round" stroke-linejoin="round"/>
<path d="M3 3V6H6" stroke="#161924" stroke-width="1.5" stroke-linecap="round" stroke-linejoin="round"/>
<path fill-rule="evenodd" clip-rule="evenodd" d="M9.5 20C12.5376 20 15 17.5376 15 14.5C15 11.4624 12.5376 9 9.5 9C6.46243 9 4 11.4624 4 14.5C4 17.5376 6.46243 20 9.5 20Z" stroke="#161924" stroke-width="1.5" stroke-linecap="round" stroke-linejoin="round"/>
<path d="M18.3888 5.61108C20.5278 7.76258 20.5278 11.2376 18.3888 13.3891C18.2182 13.5538 18.0354 13.7052 17.8418 13.8421" stroke="#161924" stroke-width="1.5" stroke-linecap="round" stroke-linejoin="round"/>
<path d="M18.3888 5.61107C16.2373 3.47209 12.7623 3.47209 10.6108 5.61107C10.446 5.78108 10.293 5.96217 10.1528 6.15307" stroke="#161924" stroke-width="1.5" stroke-linecap="round" stroke-linejoin="round"/>
<path d="M11.0512 12.9492L7.94873 16.0517" stroke="#161924" stroke-width="1.5" stroke-linecap="round" stroke-linejoin="round"/>
<path d="M11.1005 16.2001C11.1556 16.1999 11.2002 16.1551 11.2001 16.0999C11.2 16.0448 11.1553 16.0001 11.1001 16.0001C11.0449 16.0001 11.0002 16.0448 11.0001 16.0999C11 16.1551 11.0446 16.1999 11.0997 16.2001H11.1005" stroke="#161924" stroke-width="1.5" stroke-linecap="round" stroke-linejoin="round"/>
<path d="M7.89953 12.7999C7.84438 12.8001 7.7998 12.8449 7.7999 12.9001C7.8 12.9552 7.84475 12.9999 7.8999 12.9999C7.95506 12.9999 7.9998 12.9552 7.9999 12.9001C8 12.8449 7.95543 12.8001 7.90027 12.7999H7.89953" stroke="#161924" stroke-width="1.5" stroke-linecap="round" stroke-linejoin="round"/>
</svg>
