<svg width="24" height="24" viewBox="0 0 24 24" fill="none" xmlns="http://www.w3.org/2000/svg">
<path d="M20.0033 17.002V19.0029C20.0033 20.1083 19.1079 21.0037 18.0025 21.0037H5.99748C4.89202 21.0037 3.99664 20.1083 3.99664 19.0029V4.99705C3.99664 3.89159 4.89202 2.99622 5.99748 2.99622H18.0025C19.1079 2.99622 20.0033 3.89159 20.0033 4.99705V6.99788" stroke="#161924" stroke-width="1.5" stroke-linecap="round" stroke-linejoin="round"/>
<path d="M8.99874 10.9995V13.0003" stroke="#161924" stroke-width="1.5" stroke-linecap="round" stroke-linejoin="round"/>
<path d="M3.99664 18.9999C3.99664 20.4875 5.5623 21.4549 6.89185 20.7896L10.8935 18.7888C11.5718 18.4487 12 17.7564 12 16.998V2.99622" stroke="#161924" stroke-width="1.5" stroke-linecap="round" stroke-linejoin="round"/>
<path d="M21.0037 10.5424L18.0885 13.4576" stroke="#161924" stroke-width="1.5" stroke-linecap="round" stroke-linejoin="round"/>
<path d="M21.0037 13.4576L18.0885 10.5424" stroke="#161924" stroke-width="1.5" stroke-linecap="round" stroke-linejoin="round"/>
</svg>
