<svg width="24" height="24" viewBox="0 0 24 24" fill="none" xmlns="http://www.w3.org/2000/svg">
<path d="M12 21.0037H5.99749C4.89203 21.0037 3.99666 20.1083 3.99666 19.0029V4.99705C3.99666 3.89159 4.89203 2.99622 5.99749 2.99622H18.0025C19.108 2.99622 20.0033 3.89159 20.0033 4.99705V9.99913" stroke="#161924" stroke-width="1.5" stroke-linecap="round" stroke-linejoin="round"/>
<path d="M8.99874 10.9995V13.0003" stroke="#161924" stroke-width="1.5" stroke-linecap="round" stroke-linejoin="round"/>
<path fill-rule="evenodd" clip-rule="evenodd" d="M3.99666 5.00007V19.0009C3.99666 20.4885 5.56231 21.4559 6.89186 20.7906L10.8935 18.7898C11.5718 18.4497 12 17.7574 12 16.9991V7.0009C12 6.24259 11.5718 5.5503 10.8935 5.21116L6.89186 3.21032C5.56231 2.54505 3.99666 3.51245 3.99666 5.00007Z" stroke="#161924" stroke-width="1.5" stroke-linecap="round" stroke-linejoin="round"/>
<path fill-rule="evenodd" clip-rule="evenodd" d="M22.0042 17.5023C22.0042 19.4401 20.4405 21.0038 18.5027 21.0038C16.5649 21.0038 15.0012 19.4401 15.0012 17.5023C15.0012 15.5645 16.5649 14.0009 18.5027 14.0009C20.4405 14.0009 22.0042 15.5645 22.0042 17.5023Z" stroke="#161924" stroke-width="1.5" stroke-linecap="round" stroke-linejoin="round"/>
<path d="M16.0277 19.9773L20.9777 15.0272" stroke="#161924" stroke-width="1.5" stroke-linecap="round" stroke-linejoin="round"/>
</svg>
