<svg width="24" height="24" viewBox="0 0 24 24" fill="none" xmlns="http://www.w3.org/2000/svg">
<path fill-rule="evenodd" clip-rule="evenodd" d="M7.9983 2.99194H16.0016C18.7642 2.99194 21.0037 5.23145 21.0037 7.99403V15.9974C21.0037 17.324 20.4767 18.5963 19.5386 19.5344C18.6006 20.4724 17.3283 20.9994 16.0016 20.9994H7.9983C5.23572 20.9994 2.99622 18.7599 2.99622 15.9974V7.99403C2.99622 6.66739 3.52322 5.39509 4.46129 4.45702C5.39936 3.51895 6.67166 2.99194 7.9983 2.99194Z" stroke="#161924" stroke-width="1.5" stroke-linecap="round" stroke-linejoin="round"/>
<circle cx="12" cy="12.0584" r="1.93831" stroke="#161924" stroke-width="1.5" stroke-linecap="round" stroke-linejoin="round"/>
<path d="M6.99792 11.9957C6.99792 9.23316 9.23743 6.99365 12 6.99365C14.7626 6.99365 17.0021 9.23316 17.0021 11.9957" stroke="#161924" stroke-width="1.5" stroke-linecap="round" stroke-linejoin="round"/>
</svg>
