<svg width="24" height="24" viewBox="0 0 24 24" fill="none" xmlns="http://www.w3.org/2000/svg">
<path d="M10.1803 16.819C9.17584 15.8146 9.17584 14.1849 10.1803 13.1785C11.1847 12.1741 12.8144 12.1741 13.8208 13.1785C14.8252 14.1829 14.8252 15.8126 13.8208 16.819C12.8144 17.8254 11.1857 17.8254 10.1803 16.819" stroke="#161924" stroke-width="1.5" stroke-linecap="round" stroke-linejoin="round"/>
<path fill-rule="evenodd" clip-rule="evenodd" d="M20.0033 15.0012C20.0033 15.5664 19.8683 16.1256 19.6072 16.6408V16.6408C18.2596 19.2959 15.2824 21.0037 12 21.0037C8.71764 21.0037 5.7404 19.2959 4.39284 16.6408V16.6408C4.13173 16.1256 3.99667 15.5664 3.99667 15.0012C3.99667 14.4359 4.13173 13.8767 4.39284 13.3615V13.3615C5.7404 10.7064 8.71764 8.99866 12 8.99866C15.2824 8.99866 18.2596 10.7064 19.6072 13.3615V13.3615C19.8683 13.8767 20.0033 14.4359 20.0033 15.0012Z" stroke="#161924" stroke-width="1.5" stroke-linecap="round" stroke-linejoin="round"/>
<path d="M12 2.99622V8.99872" stroke="#161924" stroke-width="1.5" stroke-linecap="round" stroke-linejoin="round"/>
<path d="M9.49896 5.49726L12 2.99622L14.501 5.49726" stroke="#161924" stroke-width="1.5" stroke-linecap="round" stroke-linejoin="round"/>
</svg>
