<svg width="24" height="24" viewBox="0 0 24 24" fill="none" xmlns="http://www.w3.org/2000/svg">
<path d="M13.1795 10.8215C13.8307 11.4728 13.8307 12.5292 13.1795 13.1805C12.5282 13.8317 11.4718 13.8317 10.8205 13.1805C10.1692 12.5292 10.1692 11.4728 10.8205 10.8215C11.4718 10.1692 12.5282 10.1692 13.1795 10.8215" stroke="#161924" stroke-width="1.5" stroke-linecap="round" stroke-linejoin="round"/>
<path fill-rule="evenodd" clip-rule="evenodd" d="M6.99786 12C6.99786 11.6338 7.0819 11.2717 7.24597 10.9376V10.9376C8.08732 9.21584 9.94809 8.10938 11.9999 8.10938C14.0518 8.10938 15.9126 9.21584 16.7539 10.9376V10.9376C16.918 11.2717 17.002 11.6338 17.002 12C17.002 12.3661 16.918 12.7283 16.7539 13.0624V13.0624C15.9116 14.7832 14.0508 15.8906 11.9999 15.8906C9.94809 15.8906 8.08732 14.7842 7.24597 13.0624V13.0624C7.0819 12.7283 6.99786 12.3661 6.99786 12Z" stroke="#161924" stroke-width="1.5" stroke-linecap="round" stroke-linejoin="round"/>
<circle cx="12" cy="12" r="9.00375" stroke="#161924" stroke-width="1.5" stroke-linecap="round" stroke-linejoin="round"/>
</svg>
