<svg width="24" height="24" viewBox="0 0 24 24" fill="none" xmlns="http://www.w3.org/2000/svg">
<path d="M13.8198 7.18108C14.8242 8.1855 14.8242 9.81518 13.8198 10.8216C12.8153 11.826 11.1857 11.826 10.1792 10.8216C9.17483 9.81718 9.17483 8.1875 10.1792 7.18108C11.1857 6.17466 12.8143 6.17466 13.8198 7.18108" stroke="#161924" stroke-width="1.5" stroke-linecap="round" stroke-linejoin="round"/>
<path fill-rule="evenodd" clip-rule="evenodd" d="M3.99667 8.99884C3.99667 8.4336 4.13173 7.87437 4.39284 7.35916V7.35916C5.7404 4.70405 8.71764 2.99634 12 2.99634C15.2824 2.99634 18.2596 4.70405 19.6072 7.35916V7.35916C19.8683 7.87437 20.0033 8.4336 20.0033 8.99884C20.0033 9.56407 19.8683 10.1233 19.6072 10.6385V10.6385C18.2596 13.2936 15.2824 15.0013 12 15.0013C8.71764 15.0013 5.7404 13.2936 4.39284 10.6385V10.6385C4.13173 10.1233 3.99667 9.56407 3.99667 8.99884Z" stroke="#161924" stroke-width="1.5" stroke-linecap="round" stroke-linejoin="round"/>
<path d="M12 21.0037V15.0012" stroke="#161924" stroke-width="1.5" stroke-linecap="round" stroke-linejoin="round"/>
<path d="M14.501 18.5027L12 21.0037L9.49896 18.5027" stroke="#161924" stroke-width="1.5" stroke-linecap="round" stroke-linejoin="round"/>
</svg>
