<svg width="24" height="24" viewBox="0 0 24 24" fill="none" xmlns="http://www.w3.org/2000/svg">
<circle cx="12" cy="12" r="2.5" stroke="#161924" stroke-width="1.5" stroke-linecap="round" stroke-linejoin="round"/>
<rect x="2" y="2" width="20" height="20" rx="5.55556" stroke="#161924" stroke-width="1.5" stroke-linecap="round" stroke-linejoin="round"/>
<path d="M13.8691 10.3548C14.0541 9.68261 14.4995 9.11194 15.1066 8.76925C15.7137 8.42655 16.4325 8.34015 17.1035 8.52917C17.9647 8.76539 18.6418 9.4311 18.8927 10.2881C19.1228 11.0617 18.986 11.898 18.5215 12.558C18.33 12.8182 18.0278 12.9738 17.7048 12.9785C17.3818 12.9832 17.0752 12.8365 16.8762 12.582C16.2509 11.7811 15.3381 11.2553 14.3315 11.1163" stroke="#161924" stroke-width="1.5" stroke-linecap="round" stroke-linejoin="round"/>
<path d="M11.1165 9.66864C11.2554 8.66209 11.7811 7.7493 12.5821 7.124C12.8366 6.92507 12.9833 6.61848 12.9786 6.29546C12.9739 5.97245 12.8183 5.67025 12.5581 5.4788C11.8981 5.01435 11.0617 4.87758 10.2881 5.10758C9.43114 5.3584 8.76543 6.03554 8.52922 6.89667C8.34021 7.56772 8.42662 8.28644 8.7693 8.89358C9.11197 9.50071 9.68262 9.94611 10.3548 10.1311" stroke="#161924" stroke-width="1.5" stroke-linecap="round" stroke-linejoin="round"/>
<path d="M12.8837 14.3313C12.7447 15.3379 12.219 16.2506 11.4182 16.876C11.1637 17.0749 11.0169 17.3815 11.0216 17.7045C11.0263 18.0275 11.1819 18.3297 11.4421 18.5211C12.1021 18.9856 12.9385 19.1224 13.7121 18.8924C14.5691 18.6415 15.2348 17.9644 15.471 17.1033C15.6601 16.4322 15.5737 15.7135 15.231 15.1063C14.8883 14.4992 14.3176 14.0537 13.6454 13.8688" stroke="#161924" stroke-width="1.5" stroke-linecap="round" stroke-linejoin="round"/>
<path d="M9.66867 12.8835C8.66209 12.7446 7.74927 12.2189 7.12397 11.418C6.92501 11.1635 6.6184 11.0168 6.29538 11.0215C5.97237 11.0262 5.67017 11.1818 5.47871 11.442C5.01421 12.102 4.87744 12.9384 5.10749 13.7119C5.35836 14.5689 6.03553 15.2347 6.89668 15.4709C7.56774 15.6599 8.28648 15.5735 8.89362 15.2308C9.50075 14.8881 9.94614 14.3174 10.1311 13.6452" stroke="#161924" stroke-width="1.5" stroke-linecap="round" stroke-linejoin="round"/>
</svg>
