<svg width="24" height="24" viewBox="0 0 24 24" fill="none" xmlns="http://www.w3.org/2000/svg">
<path d="M3 7H2" stroke="#161924" stroke-width="1.5" stroke-linecap="round" stroke-linejoin="round"/>
<path d="M4 4H2" stroke="#161924" stroke-width="1.5" stroke-linecap="round" stroke-linejoin="round"/>
<path d="M17 20H3" stroke="#161924" stroke-width="1.5" stroke-linecap="round" stroke-linejoin="round"/>
<path d="M17.2754 4L16.2894 7.287C16.1624 7.71 15.7724 8 15.3314 8H12.2194C11.5494 8 11.0694 7.354 11.2614 6.713L12.0754 4" stroke="#161924" stroke-width="1.5" stroke-linecap="round" stroke-linejoin="round"/>
<path d="M8 13H10.13" stroke="#161924" stroke-width="1.5" stroke-linecap="round" stroke-linejoin="round"/>
<path fill-rule="evenodd" clip-rule="evenodd" d="M17.4371 16H6.84907C5.24107 16 4.08807 14.45 4.55007 12.91L6.71007 5.71C7.01507 4.695 7.94907 4 9.00907 4H19.5981C21.2061 4 22.3591 5.55 21.8971 7.09L19.7371 14.29C19.4321 15.305 18.4971 16 17.4371 16Z" stroke="#161924" stroke-width="1.5" stroke-linecap="round" stroke-linejoin="round"/>
</svg>
