<svg width="24" height="24" viewBox="0 0 24 24" fill="none" xmlns="http://www.w3.org/2000/svg">
<path fill-rule="evenodd" clip-rule="evenodd" d="M3.4913 13.4656L4.6868 15.0302L4.94491 16.9781C5.08796 18.0585 5.93732 18.9089 7.01777 19.0529L8.97058 19.314L10.5342 20.5085C11.3996 21.1698 12.5991 21.1698 13.4645 20.5085L15.0291 19.313H15.0271L16.9759 19.0549C18.0564 18.9119 18.9067 18.0625 19.0508 16.9821L19.3109 15.0292C19.3109 15.0302 19.9151 14.2389 20.5064 13.4656C21.1677 12.6002 21.1667 11.4007 20.5064 10.5354L19.3139 8.96872L19.0558 7.02091C18.9127 5.94046 18.0634 5.09011 16.9829 4.94605L15.0291 4.68594L13.4655 3.49144C12.6001 2.83016 11.4006 2.83016 10.5352 3.49144L8.97058 4.68694H8.97258L7.02277 4.94605C5.94232 5.08911 5.09197 5.93846 4.94791 7.01891L4.6868 8.97072C4.6868 8.96972 4.08255 9.76105 3.4913 10.5344C2.83103 11.3987 2.83103 12.6002 3.4913 13.4656Z" stroke="#161924" stroke-width="1.5" stroke-linecap="round" stroke-linejoin="round"/>
<path fill-rule="evenodd" clip-rule="evenodd" d="M13.3179 9.4989C14.4504 9.4989 15.2097 10.5233 15.2097 11.4777C15.2097 13.4726 12.6346 15.0012 11.9994 15.0012C11.3641 15.0012 8.79004 13.4726 8.79004 11.4777C8.79004 10.5233 9.54936 9.4989 10.6818 9.4989C11.3291 9.4989 11.7533 9.81003 12.0004 10.0881C12.2465 9.81003 12.6707 9.4989 13.3179 9.4989Z" stroke="#161924" stroke-width="1.5" stroke-linecap="round" stroke-linejoin="round"/>
</svg>
