<svg width="24" height="24" viewBox="0 0 24 24" fill="none" xmlns="http://www.w3.org/2000/svg">
<path d="M9 3H6C4.34315 3 3 4.34315 3 6V7" stroke="#323232" stroke-width="1.5" stroke-linecap="round" stroke-linejoin="round"/>
<path d="M15 21H18C19.6569 21 21 19.6569 21 18V15" stroke="#323232" stroke-width="1.5" stroke-linecap="round" stroke-linejoin="round"/>
<path fill-rule="evenodd" clip-rule="evenodd" d="M11.4508 12.1175L9.88251 10.5492C9.53088 10.1975 9.05396 10 8.55668 10H4.875C3.83947 10 3 10.8395 3 11.875V19.125C3 20.1605 3.83947 21 4.875 21H10.125C11.1605 21 12 20.1605 12 19.125V13.4433C12 12.946 11.8025 12.4691 11.4508 12.1175Z" stroke="#323232" stroke-width="1.5" stroke-linecap="round" stroke-linejoin="round"/>
<path d="M12 14H9.33333C8.59695 14 8 13.403 8 12.6667V10" stroke="#323232" stroke-width="1.5" stroke-linecap="round" stroke-linejoin="round"/>
<circle cx="16" cy="6" r="4" stroke="#323232" stroke-width="1.5" stroke-linecap="round" stroke-linejoin="round"/>
<path d="M21.0001 11L18.8281 8.828" stroke="#323232" stroke-width="1.5" stroke-linecap="round" stroke-linejoin="round"/>
</svg>
