<svg width="24" height="24" viewBox="0 0 24 24" fill="none" xmlns="http://www.w3.org/2000/svg">
<path d="M16 21H17.5C18.8807 21 20 19.8807 20 18.5V8.37167C20 7.57602 19.6839 6.81296 19.1213 6.25035L16.7497 3.87868C16.187 3.31607 15.424 3 14.6283 3H7.5C6.11929 3 5 4.11929 5 5.5V12" stroke="#323232" stroke-width="1.5" stroke-linecap="round" stroke-linejoin="round"/>
<path d="M19.9764 7.99994H16.5C15.6716 7.99994 15 7.32837 15 6.49994V3.02356" stroke="#323232" stroke-width="1.5" stroke-linecap="round" stroke-linejoin="round"/>
<path d="M5.71446 18.0022L5.71876 18.0065L5.72303 18.0022L5.71876 17.9979L5.71446 18.0022" stroke="#323232" stroke-width="1.5" stroke-linecap="round" stroke-linejoin="round"/>
<path d="M10.2809 17.9978L10.2852 18.0021L10.2894 17.9978L10.2852 17.9935L10.2809 17.9978" stroke="#323232" stroke-width="1.5" stroke-linecap="round" stroke-linejoin="round"/>
<path d="M7.99571 17.9978L8 18.0021L8.00429 17.9978L8 17.9935L7.99571 17.9978" stroke="#323232" stroke-width="1.5" stroke-linecap="round" stroke-linejoin="round"/>
<rect x="3" y="15" width="10" height="6" rx="1.5" stroke="#323232" stroke-width="1.5" stroke-linecap="round" stroke-linejoin="round"/>
</svg>
