<svg width="24" height="24" viewBox="0 0 24 24" fill="none" xmlns="http://www.w3.org/2000/svg">
<path d="M9 21H17.5C18.8807 21 20 19.8807 20 18.5V8.37167C20 7.57602 19.6839 6.81296 19.1213 6.25035L16.7497 3.87868C16.187 3.31607 15.424 3 14.6283 3H7.5C6.11929 3 5 4.11929 5 5.5V13" stroke="#323232" stroke-width="1.5" stroke-linecap="round" stroke-linejoin="round"/>
<path d="M19.9764 7.99994H16.5C15.6716 7.99994 15 7.32837 15 6.49994V3.02356" stroke="#323232" stroke-width="1.5" stroke-linecap="round" stroke-linejoin="round"/>
<path fill-rule="evenodd" clip-rule="evenodd" d="M10.2929 14.3344L13.3344 11.2929C13.5219 11.1054 13.7763 11 14.0415 11C14.3067 11 14.5611 11.1054 14.7486 11.2929L15.7071 12.2514C16.0976 12.6419 16.0976 13.2751 15.7071 13.6656L12.6656 16.7071C12.4781 16.8946 12.2237 17 11.9585 17H10.5C10.2239 17 10 16.7761 10 16.5V15.0415C10 14.7763 10.1054 14.522 10.2929 14.3344Z" stroke="#323232" stroke-width="1.5" stroke-linecap="round" stroke-linejoin="round"/>
<path d="M7.10078 17.0001C7.10075 17.0277 7.07836 17.05 7.05076 17.05C7.02316 17.05 7.00079 17.0276 7.00078 17C7.00077 16.9724 7.02312 16.95 7.05072 16.95C7.064 16.95 7.07675 16.9553 7.08614 16.9646C7.09553 16.974 7.1008 16.9868 7.10078 17.0001" stroke="#323232" stroke-width="1.5" stroke-linecap="round" stroke-linejoin="round"/>
<path d="M4.10078 17.0001C4.10075 17.0277 4.07836 17.05 4.05076 17.05C4.02316 17.05 4.00079 17.0276 4.00078 17C4.00077 16.9724 4.02312 16.95 4.05072 16.95C4.064 16.95 4.07675 16.9553 4.08614 16.9646C4.09553 16.974 4.1008 16.9868 4.10078 17.0001" stroke="#323232" stroke-width="1.5" stroke-linecap="round" stroke-linejoin="round"/>
</svg>
