<svg width="24" height="24" viewBox="0 0 24 24" fill="none" xmlns="http://www.w3.org/2000/svg">
<path d="M15 21H17.5C18.8807 21 20 19.8807 20 18.5V8.37167C20 7.57602 19.6839 6.81296 19.1213 6.25035L16.7497 3.87868C16.187 3.31607 15.424 3 14.6283 3H7.5C6.11929 3 5 4.11929 5 5.5V9" stroke="#323232" stroke-width="1.5" stroke-linecap="round" stroke-linejoin="round"/>
<path d="M19.9764 7.99994H16.5C15.6716 7.99994 15 7.32837 15 6.49994V3.02356" stroke="#323232" stroke-width="1.5" stroke-linecap="round" stroke-linejoin="round"/>
<path fill-rule="evenodd" clip-rule="evenodd" d="M12 19V14C12 12.8954 11.1046 12 10 12H5C3.89543 12 3 12.8954 3 14V19C3 20.1046 3.89543 21 5 21H10C11.1046 21 12 20.1046 12 19Z" stroke="#323232" stroke-width="1.5" stroke-linecap="round" stroke-linejoin="round"/>
<path d="M8.99969 15.25C8.86168 15.2498 8.74991 15.1379 8.75 14.9998C8.75009 14.8618 8.86199 14.75 9 14.75C9.13801 14.75 9.24991 14.8618 9.25 14.9998C9.25009 15.1379 9.13832 15.2498 9.00031 15.25H8.99969" stroke="#323232" stroke-width="1.5" stroke-linecap="round" stroke-linejoin="round"/>
<path d="M7.95 21C7.98137 20.7931 7.99808 20.5843 8 20.375C8 17.9588 6.04125 16 3.625 16V16C3.41573 16.0015 3.20684 16.0182 3 16.05" stroke="#323232" stroke-width="1.5" stroke-linecap="round" stroke-linejoin="round"/>
</svg>
