<svg width="24" height="24" viewBox="0 0 24 24" fill="none" xmlns="http://www.w3.org/2000/svg">
<path d="M12 21H17.5C18.8807 21 20 19.8807 20 18.5V8.37167C20 7.57602 19.6839 6.81296 19.1213 6.25035L16.7497 3.87868C16.187 3.31607 15.424 3 14.6283 3H7.5C6.11929 3 5 4.11929 5 5.5V11" stroke="#323232" stroke-width="1.5" stroke-linecap="round" stroke-linejoin="round"/>
<rect x="3" y="17" width="6" height="4" rx="1.25" stroke="#323232" stroke-width="1.5" stroke-linecap="round" stroke-linejoin="round"/>
<path d="M4.25 17V15.75C4.25 14.7835 5.0335 14 6 14V14C6.9665 14 7.75 14.7835 7.75 15.75V17" stroke="#323232" stroke-width="1.5" stroke-linecap="round" stroke-linejoin="round"/>
<path d="M19.9764 7.99994H16.5C15.6716 7.99994 15 7.32837 15 6.49994V3.02356" stroke="#323232" stroke-width="1.5" stroke-linecap="round" stroke-linejoin="round"/>
</svg>
