<svg width="24" height="24" viewBox="0 0 24 24" fill="none" xmlns="http://www.w3.org/2000/svg">
<path d="M15 21H17.5C18.8807 21 20 19.8807 20 18.5V8.37167C20 7.57602 19.6839 6.81296 19.1213 6.25035L16.7497 3.87868C16.187 3.31607 15.424 3 14.6283 3H7.5C6.11929 3 5 4.11929 5 5.5V9" stroke="#323232" stroke-width="1.5" stroke-linecap="round" stroke-linejoin="round"/>
<path d="M19.9764 7.99994H16.5C15.6716 7.99994 15 7.32837 15 6.49994V3.02356" stroke="#323232" stroke-width="1.5" stroke-linecap="round" stroke-linejoin="round"/>
<path fill-rule="evenodd" clip-rule="evenodd" d="M6.5 19V20.4893C6.49637 20.6857 6.60822 20.8659 6.78577 20.9498C6.96332 21.0338 7.17358 21.0058 7.323 20.8783L9.5 19H11.1818C12.186 19 13 18.186 13 17.1818V13.8182C13 12.814 12.186 12 11.1818 12H5.81818C4.81403 12 4 12.814 4 13.8182V17.1818C4 18.186 4.81403 19 5.81818 19H6.5Z" stroke="#323232" stroke-width="1.5" stroke-linecap="round" stroke-linejoin="round"/>
</svg>
