<svg width="24" height="24" viewBox="0 0 24 24" fill="none" xmlns="http://www.w3.org/2000/svg">
<path d="M13 21H17.5C18.8807 21 20 19.8807 20 18.5V8.37167C20 7.57602 19.6839 6.81296 19.1213 6.25035L16.7497 3.87868C16.187 3.31607 15.424 3 14.6283 3H7.5C6.11929 3 5 4.11929 5 5.5V12" stroke="#323232" stroke-width="1.5" stroke-linecap="round" stroke-linejoin="round"/>
<path d="M19.9764 7.99994H16.5C15.6716 7.99994 15 7.32837 15 6.49994V3.02356" stroke="#323232" stroke-width="1.5" stroke-linecap="round" stroke-linejoin="round"/>
<path fill-rule="evenodd" clip-rule="evenodd" d="M6.302 16.0733L6.5 16.2743L6.698 16.0733C7.059 15.7065 7.55208 15.5 8.06669 15.5C8.5813 15.5 9.07438 15.7065 9.43539 16.0733V16.0733C10.1882 16.8469 10.1882 18.0792 9.43539 18.8528L7.897 20.4149C7.52854 20.7893 7.02527 21.0001 6.50003 21.0001C5.97479 21.0001 5.47152 20.7893 5.10307 20.4149L3.5646 18.8529C2.8118 18.0793 2.8118 16.8469 3.5646 16.0733V16.0733C3.9256 15.7066 4.41868 15.5001 4.93329 15.5001C5.44791 15.5001 5.94099 15.7066 6.302 16.0733Z" stroke="#323232" stroke-width="1.5" stroke-linecap="round" stroke-linejoin="round"/>
</svg>
