<svg width="24" height="24" viewBox="0 0 24 24" fill="none" xmlns="http://www.w3.org/2000/svg">
<path d="M13 21H17.5C18.8807 21 20 19.8807 20 18.5V8.37167C20 7.57602 19.6839 6.81296 19.1213 6.25035L16.7497 3.87868C16.187 3.31607 15.424 3 14.6283 3H7.5C6.11929 3 5 4.11929 5 5.5V9" stroke="#323232" stroke-width="1.5" stroke-linecap="round" stroke-linejoin="round"/>
<path d="M19.9764 7.99994H16.5C15.6716 7.99994 15 7.32837 15 6.49994V3.02356" stroke="#323232" stroke-width="1.5" stroke-linecap="round" stroke-linejoin="round"/>
<path fill-rule="evenodd" clip-rule="evenodd" d="M6.5 21V21C5.3065 21.0001 4.16187 20.526 3.31794 19.6821C2.47401 18.8381 1.99993 17.6935 2 16.5H2C1.99993 15.3065 2.47401 14.1619 3.31794 13.3179C4.16187 12.474 5.3065 11.9999 6.5 12V12C7.6935 11.9999 8.83813 12.474 9.68206 13.3179C10.526 14.1619 11.0001 15.3065 11 16.5V16.5C11.0001 17.6935 10.526 18.8381 9.68206 19.6821C8.83813 20.526 7.6935 21.0001 6.5 21Z" stroke="#323232" stroke-width="1.5" stroke-linecap="round" stroke-linejoin="round"/>
<path d="M7.83143 17.8558C7.1047 18.4967 6.00186 18.4506 5.33116 17.7513C4.66045 17.052 4.66045 15.9482 5.33116 15.2488C6.00186 14.5495 7.1047 14.5034 7.83143 15.1443" stroke="#323232" stroke-width="1.5" stroke-linecap="round" stroke-linejoin="round"/>
</svg>
