<svg width="24" height="24" viewBox="0 0 24 24" fill="none" xmlns="http://www.w3.org/2000/svg">
<path d="M12 17.0022H13.5006" stroke="#161924" stroke-width="1.5" stroke-linecap="round" stroke-linejoin="round"/>
<path d="M10.4994 18.5029H12" stroke="#161924" stroke-width="1.5" stroke-linecap="round" stroke-linejoin="round"/>
<path d="M12 15.5017H10.4994" stroke="#161924" stroke-width="1.5" stroke-linecap="round" stroke-linejoin="round"/>
<path d="M12 8.49878V21.5042" stroke="#161924" stroke-width="1.5" stroke-linecap="round" stroke-linejoin="round"/>
<path d="M12 14.0009H13.5006" stroke="#161924" stroke-width="1.5" stroke-linecap="round" stroke-linejoin="round"/>
<path d="M12 12.5002H10.4994" stroke="#161924" stroke-width="1.5" stroke-linecap="round" stroke-linejoin="round"/>
<path d="M12 10.9997H13.5006" stroke="#161924" stroke-width="1.5" stroke-linecap="round" stroke-linejoin="round"/>
<path fill-rule="evenodd" clip-rule="evenodd" d="M12 8.49859V8.49859C11.3006 8.49859 10.6344 8.20009 10.1688 7.67814C9.70318 7.15618 9.48244 6.46036 9.56199 5.76546L9.78408 3.82565C9.87101 3.06812 10.5122 2.49621 11.2747 2.49609H12.7253C13.4878 2.49621 14.129 3.06812 14.2159 3.82565L14.438 5.76546C14.5176 6.46036 14.2968 7.15618 13.8312 7.67814C13.3656 8.20009 12.6994 8.49859 12 8.49859Z" stroke="#161924" stroke-width="1.5" stroke-linecap="round" stroke-linejoin="round"/>
<path d="M9.86211 3.49658H6.99792C4.78786 3.49658 2.99625 5.28819 2.99625 7.49825V17.5024C2.99625 19.7125 4.78786 21.5041 6.99792 21.5041H17.0021C19.2121 21.5041 21.0038 19.7125 21.0038 17.5024V7.49825C21.0038 5.28819 19.2121 3.49658 17.0021 3.49658H14.1389" stroke="#161924" stroke-width="1.5" stroke-linecap="round" stroke-linejoin="round"/>
</svg>
