<svg width="24" height="24" viewBox="0 0 24 24" fill="none" xmlns="http://www.w3.org/2000/svg">
<path d="M14 21H17.5C18.8807 21 20 19.8807 20 18.5V8.37167C20 7.57602 19.6839 6.81296 19.1213 6.25035L16.7497 3.87868C16.187 3.31607 15.424 3 14.6283 3H7.5C6.11929 3 5 4.11929 5 5.5V8" stroke="#323232" stroke-width="1.5" stroke-linecap="round" stroke-linejoin="round"/>
<path d="M19.9764 7.99994H16.5C15.6716 7.99994 15 7.32837 15 6.49994V3.02356" stroke="#323232" stroke-width="1.5" stroke-linecap="round" stroke-linejoin="round"/>
<path fill-rule="evenodd" clip-rule="evenodd" d="M10 20.5V20.094C9.9967 18.9389 9.06112 18.0033 7.906 18H5.094C3.93888 18.0033 3.0033 18.9389 3 20.094V20.5C3 20.7761 3.22386 21 3.5 21H9.5C9.77614 21 10 20.7761 10 20.5Z" stroke="#323232" stroke-width="1.5" stroke-linecap="round" stroke-linejoin="round"/>
<circle cx="6.5" cy="13.5" r="2" stroke="#323232" stroke-width="1.5" stroke-linecap="round" stroke-linejoin="round"/>
</svg>
