<svg width="24" height="24" viewBox="0 0 24 24" fill="none" xmlns="http://www.w3.org/2000/svg">
<path d="M16 21H17.5C18.8807 21 20 19.8807 20 18.5V8.37167C20 7.57602 19.6839 6.81296 19.1213 6.25035L16.7497 3.87868C16.187 3.31607 15.424 3 14.6283 3H7.5C6.11929 3 5 4.11929 5 5.5V8" stroke="#323232" stroke-width="1.5" stroke-linecap="round" stroke-linejoin="round"/>
<path d="M19.9764 7.99994H16.5C15.6716 7.99994 15 7.32837 15 6.49994V3.02356" stroke="#323232" stroke-width="1.5" stroke-linecap="round" stroke-linejoin="round"/>
<path fill-rule="evenodd" clip-rule="evenodd" d="M6.57227 17.5073V14.4936C6.57211 14.3166 6.66695 14.1531 6.82069 14.0653C6.97443 13.9775 7.16343 13.979 7.3158 14.0691L9.86446 15.5765C10.0142 15.6653 10.1059 15.8264 10.1059 16.0005C10.1059 16.1745 10.0142 16.3356 9.86446 16.4244L7.3158 17.9318C7.16343 18.0219 6.97443 18.0234 6.82069 17.9356C6.66695 17.8478 6.57212 17.6843 6.57227 17.5073H6.57227Z" stroke="#323232" stroke-width="1.5" stroke-linecap="round" stroke-linejoin="round"/>
<rect x="3" y="11" width="10" height="10" rx="3" stroke="#323232" stroke-width="1.5" stroke-linecap="round" stroke-linejoin="round"/>
</svg>
