<svg width="24" height="24" viewBox="0 0 24 24" fill="none" xmlns="http://www.w3.org/2000/svg">
<path d="M17 17V19C17.0001 19.5305 16.7895 20.0393 16.4144 20.4144C16.0393 20.7895 15.5305 21.0001 15 21H6C5.46952 21.0001 4.96073 20.7895 4.58563 20.4144C4.21052 20.0393 3.99985 19.5305 4 19V8C3.99985 7.46952 4.21052 6.96073 4.58563 6.58563C4.96073 6.21052 5.46952 5.99985 6 6H8" stroke="#323232" stroke-width="1.5" stroke-linecap="round" stroke-linejoin="round"/>
<path fill-rule="evenodd" clip-rule="evenodd" d="M19.3593 5.47041L17.5296 3.6407C17.1194 3.23047 16.563 3 15.9828 3H10.1875C8.97938 3 8 3.97938 8 5.1875V14.8125C8 16.0206 8.97938 17 10.1875 17H17.8125C19.0206 17 20 16.0206 20 14.8125V7.0172C20 6.43704 19.7695 5.88065 19.3593 5.47041Z" stroke="#323232" stroke-width="1.5" stroke-linecap="round" stroke-linejoin="round"/>
<path d="M12.5 11.5H15.5" stroke="#323232" stroke-width="1.5" stroke-linecap="round" stroke-linejoin="round"/>
<path d="M14 10V13" stroke="#323232" stroke-width="1.5" stroke-linecap="round" stroke-linejoin="round"/>
<path d="M20 7.5H17C16.1716 7.5 15.5 6.82843 15.5 6V3" stroke="#323232" stroke-width="1.5" stroke-linecap="round" stroke-linejoin="round"/>
</svg>
