<svg width="24" height="24" viewBox="0 0 24 24" fill="none" xmlns="http://www.w3.org/2000/svg">
<path d="M20 5C20.0001 4.46971 19.7896 3.96108 19.4148 3.58601C19.0399 3.21094 18.5314 3.00014 18.0011 3H18" stroke="#323232" stroke-width="1.5" stroke-linecap="round" stroke-linejoin="round"/>
<path d="M20 12V13" stroke="#323232" stroke-width="1.5" stroke-linecap="round" stroke-linejoin="round"/>
<path fill-rule="evenodd" clip-rule="evenodd" d="M13.3959 11.3292L11.6708 9.60409C11.284 9.2173 10.7594 9 10.2123 9H5.83335C5.34712 8.99999 4.8808 9.19315 4.53698 9.53696C4.19316 9.88078 4 10.3471 4 10.8333V19.1667C4 20.1792 4.82081 21 5.83333 21H12.1667C13.1792 21 14 20.1792 14 19.1667V12.7877C14 12.2407 13.7827 11.716 13.3959 11.3292Z" stroke="#323232" stroke-width="1.5" stroke-linecap="round" stroke-linejoin="round"/>
<path d="M20 8V9" stroke="#323232" stroke-width="1.5" stroke-linecap="round" stroke-linejoin="round"/>
<path d="M20 16C20.0001 16.5303 19.7896 17.0389 19.4148 17.414C19.0399 17.7891 18.5314 17.9999 18.0011 18H18" stroke="#323232" stroke-width="1.5" stroke-linecap="round" stroke-linejoin="round"/>
<path d="M14 3H15" stroke="#323232" stroke-width="1.5" stroke-linecap="round" stroke-linejoin="round"/>
<path d="M10 3H11" stroke="#323232" stroke-width="1.5" stroke-linecap="round" stroke-linejoin="round"/>
<path d="M5 5C4.99985 4.46971 5.21037 3.96108 5.58523 3.58601C5.9601 3.21094 6.46861 3.00014 6.9989 3H7" stroke="#323232" stroke-width="1.5" stroke-linecap="round" stroke-linejoin="round"/>
</svg>
