<svg width="24" height="24" viewBox="0 0 24 24" fill="none" xmlns="http://www.w3.org/2000/svg">
<path d="M8 21H6.5C5.11929 21 4 19.8807 4 18.5V8.37167C4 7.57602 4.31607 6.81296 4.87868 6.25035L7.25035 3.87868C7.81296 3.31607 8.57602 3 9.37167 3H16.5C17.8807 3 19 4.11929 19 5.5V9" stroke="#323232" stroke-width="1.5" stroke-linecap="round" stroke-linejoin="round"/>
<path fill-rule="evenodd" clip-rule="evenodd" d="M13 15.9998L12.4145 15.4143C12.1493 15.149 11.7895 15 11.4144 15C11.0393 15 10.6795 15.149 10.4143 15.4143V15.4143C9.93758 15.891 9.86359 16.6379 10.2375 17.1988L12.1776 20.1093C12.5485 20.6658 13.173 21 13.8418 21H17.6379C18.6465 21 19.4973 20.2489 19.6224 19.248L19.9844 16.3512C20.1177 15.284 19.3832 14.3024 18.3217 14.1293L16 13.7507V11.5C16 10.6716 15.3284 10 14.5 10V10C13.6715 10 13 10.6716 13 11.5V15.9998Z" stroke="#323232" stroke-width="1.5" stroke-linecap="round" stroke-linejoin="round"/>
<path d="M4.02344 7.99994H7.49987C8.32829 7.99994 8.99987 7.32837 8.99987 6.49994V3.02356" stroke="#323232" stroke-width="1.5" stroke-linecap="round" stroke-linejoin="round"/>
</svg>
