<svg width="24" height="24" viewBox="0 0 24 24" fill="none" xmlns="http://www.w3.org/2000/svg">
<path d="M8.5 14H11" stroke="#323232" stroke-width="1.5" stroke-linecap="round" stroke-linejoin="round"/>
<path d="M11 16.5V14" stroke="#323232" stroke-width="1.5" stroke-linecap="round" stroke-linejoin="round"/>
<path d="M11 14L8 17" stroke="#323232" stroke-width="1.5" stroke-linecap="round" stroke-linejoin="round"/>
<path d="M14 17H18C19.1046 17 20 16.1046 20 15V7.0172C20 6.43704 19.7695 5.88065 19.3593 5.47041L17.5296 3.6407C17.1194 3.23047 16.563 3 15.9828 3H10C8.89543 3 8 3.89543 8 5V11" stroke="#323232" stroke-width="1.5" stroke-linecap="round" stroke-linejoin="round"/>
<path d="M20 7.5H17C16.1716 7.5 15.5 6.82843 15.5 6V3" stroke="#323232" stroke-width="1.5" stroke-linecap="round" stroke-linejoin="round"/>
<path d="M17 17V19C17.0001 19.5305 16.7895 20.0393 16.4144 20.4144C16.0393 20.7895 15.5305 21.0001 15 21H6C5.46952 21.0001 4.96073 20.7895 4.58563 20.4144C4.21052 20.0393 3.99985 19.5305 4 19V8C3.99985 7.46952 4.21052 6.96073 4.58563 6.58563C4.96073 6.21052 5.46952 5.99985 6 6H8" stroke="#323232" stroke-width="1.5" stroke-linecap="round" stroke-linejoin="round"/>
</svg>
