<svg width="24" height="24" viewBox="0 0 24 24" fill="none" xmlns="http://www.w3.org/2000/svg">
<path fill-rule="evenodd" clip-rule="evenodd" d="M19.4508 5.11749L17.8825 3.54917C17.5309 3.19754 17.054 3 16.5567 3H11.875C10.8395 3 10 3.83947 10 4.875V13.125C10 14.1605 10.8395 15 11.875 15H18.125C19.1605 15 20 14.1605 20 13.125V6.44332C20 5.94604 19.8025 5.46912 19.4508 5.11749Z" stroke="#323232" stroke-width="1.5" stroke-linecap="round" stroke-linejoin="round"/>
<path d="M20 7H17.3333C16.597 7 16 6.40305 16 5.66667V3" stroke="#323232" stroke-width="1.5" stroke-linecap="round" stroke-linejoin="round"/>
<path d="M18 22L21 19" stroke="#323232" stroke-width="1.5" stroke-linecap="round" stroke-linejoin="round"/>
<path d="M18 19V22H21" stroke="#323232" stroke-width="1.5" stroke-linecap="round" stroke-linejoin="round"/>
<path d="M6 2L3 5" stroke="#323232" stroke-width="1.5" stroke-linecap="round" stroke-linejoin="round"/>
<path d="M6 5V2H3" stroke="#323232" stroke-width="1.5" stroke-linecap="round" stroke-linejoin="round"/>
<path d="M14 15V19.5C14 20.3284 13.3284 21 12.5 21H5.5C4.67157 21 4 20.3284 4 19.5V10.5C4 9.67157 4.67157 9 5.5 9H10" stroke="#323232" stroke-width="1.5" stroke-linecap="round" stroke-linejoin="round"/>
</svg>
