<svg width="24" height="24" viewBox="0 0 24 24" fill="none" xmlns="http://www.w3.org/2000/svg">
<path fill-rule="evenodd" clip-rule="evenodd" d="M11.5176 13.633H8.54617C8.21511 13.633 7.90551 13.4692 7.71932 13.1954L7.20383 12.4376C7.01764 12.1638 6.70804 12 6.37698 12H4.51758C3.68915 12 3.01758 12.6716 3.01758 13.5V19.5C3.01758 20.3284 3.68915 21 4.51758 21H11.5176C12.346 21 13.0176 20.3284 13.0176 19.5V15.133C13.0176 14.3046 12.346 13.633 11.5176 13.633Z" stroke="#323232" stroke-width="1.5" stroke-linecap="round" stroke-linejoin="round"/>
<path d="M16 21H17.5C18.8807 21 20 19.8807 20 18.5V8.37167C20 7.57602 19.6839 6.81296 19.1213 6.25035L16.7497 3.87868C16.187 3.31607 15.424 3 14.6283 3H7.5C6.11929 3 5 4.11929 5 5.5V9" stroke="#323232" stroke-width="1.5" stroke-linecap="round" stroke-linejoin="round"/>
<path d="M19.9764 7.99994H16.5C15.6716 7.99994 15 7.32837 15 6.49994V3.02356" stroke="#323232" stroke-width="1.5" stroke-linecap="round" stroke-linejoin="round"/>
</svg>
