<svg width="24" height="24" viewBox="0 0 24 24" fill="none" xmlns="http://www.w3.org/2000/svg">
<path d="M14.5011 18.0025V19.127C14.5011 19.7012 14.1099 20.2015 13.5537 20.3405L11.0526 20.9658C10.2633 21.1629 9.499 20.5656 9.499 19.7523V13.5007L4.28983 8.29149C4.10175 8.10442 3.9967 7.84931 3.9967 7.5842V4.99712C3.9967 4.44489 4.44489 3.9967 4.99712 3.9967H19.003C19.5552 3.9967 20.0034 4.44489 20.0034 4.99712V5.99754" stroke="#161924" stroke-width="1.5" stroke-linecap="round" stroke-linejoin="round"/>
<path fill-rule="evenodd" clip-rule="evenodd" d="M17.1152 15.2684L21.385 10.9996C21.6951 10.6895 21.6951 10.1863 21.385 9.87713L20.1254 8.61761C19.8153 8.30748 19.3121 8.30748 19.003 8.61761L14.7342 12.8864C14.5851 13.0354 14.5011 13.2375 14.5011 13.4476V15.5015H16.554C16.765 15.5015 16.9661 15.4184 17.1152 15.2684Z" stroke="#161924" stroke-width="1.5" stroke-linecap="round" stroke-linejoin="round"/>
</svg>
