<svg width="24" height="24" viewBox="0 0 24 24" fill="none" xmlns="http://www.w3.org/2000/svg">
<path fill-rule="evenodd" clip-rule="evenodd" d="M11.9999 5.99756V5.99756C15.315 5.99756 18.0024 8.68497 18.0024 12.0001V12.0001C18.0024 15.3151 15.315 18.0026 11.9999 18.0026V18.0026C8.68485 18.0026 5.99744 15.3151 5.99744 12.0001V12.0001C5.99744 8.68497 8.68485 5.99756 11.9999 5.99756Z" stroke="#161924" stroke-width="1.5" stroke-linecap="round" stroke-linejoin="round"/>
<path d="M14.431 12.7933V11.4278C14.4506 10.2904 13.7314 9.2713 12.6532 8.90872C12.1044 8.73309 11.511 8.75754 10.9785 8.97775" stroke="#161924" stroke-width="1.5" stroke-linecap="round" stroke-linejoin="round"/>
<path d="M12 12.4003V11.3999" stroke="#161924" stroke-width="1.5" stroke-linecap="round" stroke-linejoin="round"/>
<path d="M9.569 10.9998V12.3653C9.54934 13.5027 10.2685 14.5218 11.3467 14.8844C11.8956 15.06 12.4889 15.0356 13.0214 14.8153" stroke="#161924" stroke-width="1.5" stroke-linecap="round" stroke-linejoin="round"/>
<rect x="2.99622" y="2.99634" width="18.0075" height="18.0075" rx="5" stroke="#161924" stroke-width="1.5" stroke-linecap="round" stroke-linejoin="round"/>
</svg>
