<svg width="24" height="24" viewBox="0 0 24 24" fill="none" xmlns="http://www.w3.org/2000/svg">
<path d="M2.99625 18.0027V20.0035C2.99625 20.556 3.44415 21.0039 3.99666 21.0039H5.9975" stroke="#161924" stroke-width="1.5" stroke-linecap="round" stroke-linejoin="round"/>
<path d="M21.0038 5.99759V3.99675C21.0038 3.44424 20.5559 2.99634 20.0033 2.99634H18.0025" stroke="#161924" stroke-width="1.5" stroke-linecap="round" stroke-linejoin="round"/>
<path d="M5.9975 2.99634H3.99666C3.44415 2.99634 2.99625 3.44424 2.99625 3.99675V5.99759" stroke="#161924" stroke-width="1.5" stroke-linecap="round" stroke-linejoin="round"/>
<path d="M18.0025 21.0039H20.0033C20.5559 21.0039 21.0038 20.556 21.0038 20.0035V18.0027" stroke="#161924" stroke-width="1.5" stroke-linecap="round" stroke-linejoin="round"/>
<path d="M15.0012 13.0004V11.1887C15.0173 10.3364 14.6846 9.51458 14.0802 8.91355C13.4757 8.31252 12.652 7.98445 11.7999 8.00533C11.0753 8.05362 10.393 8.36366 9.88011 8.8777" stroke="#161924" stroke-width="1.5" stroke-linecap="round" stroke-linejoin="round"/>
<path d="M8.99874 12V13.0004" stroke="#161924" stroke-width="1.5" stroke-linecap="round" stroke-linejoin="round"/>
<path d="M8.99874 12V12.8113C8.98266 13.6636 9.31537 14.4854 9.91981 15.0864C10.5242 15.6875 11.3479 16.0156 12.2001 15.9947C12.9246 15.9464 13.6069 15.6363 14.1199 15.1223" stroke="#161924" stroke-width="1.5" stroke-linecap="round" stroke-linejoin="round"/>
<path d="M17.1211 7.87939C17.6971 8.81828 18.0022 9.89821 18.0025 10.9997V12.7834C18.0456 15.911 15.7349 18.573 12.6323 18.97C11.3221 19.109 10.0027 18.8107 8.8797 18.1217" stroke="#161924" stroke-width="1.5" stroke-linecap="round" stroke-linejoin="round"/>
<path d="M6.87886 16.1207C6.30287 15.1819 5.99783 14.1019 5.9975 13.0004V11.2167C5.9544 8.08911 8.26514 5.42711 11.3677 5.03013C12.6779 4.89119 13.9973 5.18946 15.1203 5.87848" stroke="#161924" stroke-width="1.5" stroke-linecap="round" stroke-linejoin="round"/>
<path d="M12 10.9998V13.0006" stroke="#161924" stroke-width="1.5" stroke-linecap="round" stroke-linejoin="round"/>
</svg>
