<svg width="24" height="24" viewBox="0 0 24 24" fill="none" xmlns="http://www.w3.org/2000/svg">
<path d="M18.0025 13.0005V14.0009" stroke="#161924" stroke-width="1.5" stroke-linecap="round" stroke-linejoin="round"/>
<path d="M12 12V18.0025" stroke="#161924" stroke-width="1.5" stroke-linecap="round" stroke-linejoin="round"/>
<path d="M6.83285 8.95581C6.28627 9.87722 5.99773 10.9287 5.9975 12.0001V14.0009" stroke="#161924" stroke-width="1.5" stroke-linecap="round" stroke-linejoin="round"/>
<path d="M17.6514 9.99923C17.0577 8.30788 15.7371 6.97177 14.0528 6.35846C12.3685 5.74516 10.4979 5.91927 8.95573 6.83291" stroke="#161924" stroke-width="1.5" stroke-linecap="round" stroke-linejoin="round"/>
<path d="M15.0012 17.0023V12.1703C15.0366 10.5305 13.7948 9.1439 12.1611 8.99896C11.3376 8.9547 10.5321 9.25125 9.93395 9.81896C9.33577 10.3867 8.99755 11.1755 8.99874 12.0002V13.0006" stroke="#161924" stroke-width="1.5" stroke-linecap="round" stroke-linejoin="round"/>
<path d="M8.99874 16.0017V17.0021" stroke="#161924" stroke-width="1.5" stroke-linecap="round" stroke-linejoin="round"/>
<rect x="2.99625" y="2.99634" width="18.0075" height="18.0075" rx="5" stroke="#161924" stroke-width="1.5" stroke-linecap="round" stroke-linejoin="round"/>
</svg>
