<svg width="24" height="24" viewBox="0 0 24 24" fill="none" xmlns="http://www.w3.org/2000/svg">
<path d="M18.3639 5.63604C21.8787 9.15076 21.8787 14.8492 18.3639 18.3639C14.8492 21.8787 9.15074 21.8787 5.63604 18.3639C2.12132 14.8492 2.12132 9.15074 5.63604 5.63604C9.15076 2.12132 14.8492 2.12132 18.3639 5.63604" stroke="#161924" stroke-width="1.5" stroke-linecap="round" stroke-linejoin="round"/>
<path d="M8.5 10.333V14.333C8.5 16.266 10.067 17.833 12 17.833C12.796 17.833 13.521 17.557 14.11 17.109" stroke="#161924" stroke-width="1.5" stroke-linecap="round" stroke-linejoin="round"/>
<path d="M12 10V14" stroke="#161924" stroke-width="1.5" stroke-linecap="round" stroke-linejoin="round"/>
<path d="M15.5 13.667C15.5 13.667 15.5 9.66702 15.5 9.66602C15.5 7.73302 13.933 6.16602 12 6.16602C11.203 6.16602 10.478 6.44202 9.89001 6.89002" stroke="#161924" stroke-width="1.5" stroke-linecap="round" stroke-linejoin="round"/>
</svg>
