<svg width="24" height="24" viewBox="0 0 24 24" fill="none" xmlns="http://www.w3.org/2000/svg">
<path fill-rule="evenodd" clip-rule="evenodd" d="M16.5018 12.3043C16.4721 10.0298 15.2781 7.92937 13.3389 6.74042C13.0197 6.54281 12.6137 6.55342 12.3053 6.76743C11.9969 6.98145 11.8449 7.35807 11.9184 7.72619C12.1293 8.68232 11.9267 9.68304 11.3606 10.4819C10.9338 10.0974 10.607 9.61464 10.4087 9.07546C10.3475 8.87448 10.1966 8.71327 10 8.63907C9.8035 8.56487 9.58365 8.58609 9.40494 8.69651C8.04654 9.62582 7.32381 11.2382 7.534 12.8706C7.87563 15.1904 9.93835 16.861 12.2784 16.7132C14.6185 16.5654 16.4547 14.6486 16.5018 12.3043Z" stroke="#161924" stroke-width="1.5" stroke-linecap="round" stroke-linejoin="round"/>
<path d="M18.3667 5.63334C20.9418 8.20839 21.7121 12.0811 20.3185 15.4455C18.9249 18.81 15.6418 21.0037 12.0001 21.0037C8.35843 21.0037 5.07533 18.81 3.68172 15.4455C2.28812 12.0811 3.05844 8.20839 5.63351 5.63334C9.14969 2.11717 14.8505 2.11717 18.3667 5.63334" stroke="#161924" stroke-width="1.5" stroke-linecap="round" stroke-linejoin="round"/>
</svg>
