<svg width="24" height="24" viewBox="0 0 24 24" fill="none" xmlns="http://www.w3.org/2000/svg">
<path d="M16.0017 21.5041L14.0009 19.5033L16.0017 17.5024" stroke="#161924" stroke-width="1.5" stroke-linecap="round" stroke-linejoin="round"/>
<path d="M8.99874 8.45581V16.0018" stroke="#161924" stroke-width="1.5" stroke-linecap="round" stroke-linejoin="round"/>
<path d="M15.4014 8.45577C14.4214 9.06555 13.1801 9.06555 12.2001 8.45577C11.2201 7.846 9.97878 7.846 8.99878 8.45577" stroke="#161924" stroke-width="1.5" stroke-linecap="round" stroke-linejoin="round"/>
<path d="M8.99878 13.1435C9.97878 12.5337 11.2201 12.5337 12.2001 13.1435C13.1801 13.7533 14.4214 13.7533 15.4014 13.1435" stroke="#161924" stroke-width="1.5" stroke-linecap="round" stroke-linejoin="round"/>
<path d="M15.4015 8.45581V13.1435" stroke="#161924" stroke-width="1.5" stroke-linecap="round" stroke-linejoin="round"/>
<path d="M20.0034 19.5031H14.0009" stroke="#161924" stroke-width="1.5" stroke-linecap="round" stroke-linejoin="round"/>
<path d="M20.0616 15.5052C21.7684 12.0697 21.1105 7.93005 18.4227 5.19298C15.735 2.45591 11.6079 1.72288 8.14198 3.36696C4.67605 5.01103 2.63281 8.67096 3.05214 12.4841C3.47147 16.2972 6.26123 19.4256 10.0016 20.2772" stroke="#161924" stroke-width="1.5" stroke-linecap="round" stroke-linejoin="round"/>
</svg>
