<svg width="24" height="24" viewBox="0 0 24 24" fill="none" xmlns="http://www.w3.org/2000/svg">
<path fill-rule="evenodd" clip-rule="evenodd" d="M15.921 5.42024L12.5876 8.75462C12.2619 9.07949 11.7348 9.07949 11.4091 8.75462L8.0757 5.42024C7.8377 5.18164 7.7666 4.82329 7.89548 4.5119C8.02437 4.2005 8.32794 3.99723 8.66495 3.99664H15.3317C15.6687 3.99723 15.9723 4.2005 16.1012 4.5119C16.2301 4.82329 16.159 5.18164 15.921 5.42024V5.42024Z" stroke="#323232" stroke-width="1.5" stroke-linecap="round" stroke-linejoin="round"/>
<path d="M20.0028 12H3.99609" stroke="#323232" stroke-width="1.5" stroke-linecap="round" stroke-linejoin="round"/>
<path fill-rule="evenodd" clip-rule="evenodd" d="M8.0757 18.5797L11.4091 15.2454C11.7348 14.9205 12.2619 14.9205 12.5876 15.2454L15.921 18.5797C16.159 18.8183 16.2301 19.1767 16.1012 19.4881C15.9723 19.7995 15.6687 20.0028 15.3317 20.0033H8.66495C8.32794 20.0028 8.02437 19.7995 7.89548 19.4881C7.7666 19.1767 7.8377 18.8183 8.0757 18.5797Z" stroke="#323232" stroke-width="1.5" stroke-linecap="round" stroke-linejoin="round"/>
</svg>
