<svg width="24" height="24" viewBox="0 0 24 24" fill="none" xmlns="http://www.w3.org/2000/svg">
<path fill-rule="evenodd" clip-rule="evenodd" d="M13.964 6H4.66705C3.74105 6 2.99305 6.754 3.00005 7.679L3.08705 19.346C3.09305 20.261 3.83805 21 4.75305 21H16.321C17.241 21 17.988 20.254 17.988 19.333V10.023C17.988 9.581 17.812 9.157 17.5 8.844L15.143 6.487C14.83 6.176 14.406 6 13.964 6Z" stroke="#161924" stroke-width="1.5" stroke-linecap="round" stroke-linejoin="round"/>
<path d="M21 17V7.828C21 7.298 20.789 6.789 20.414 6.414L17.586 3.586C17.211 3.211 16.702 3 16.172 3H7.00696" stroke="#161924" stroke-width="1.5" stroke-linecap="round" stroke-linejoin="round"/>
<path d="M13.821 6V9.258C13.821 9.718 13.448 10.091 12.988 10.091H7.98803C7.52803 10.091 7.15503 9.718 7.15503 9.258V6" stroke="#161924" stroke-width="1.5" stroke-linecap="round" stroke-linejoin="round"/>
<path d="M6.32703 21V14.571C6.32703 13.979 6.80703 13.5 7.39803 13.5H13.588C14.18 13.5 14.659 13.98 14.659 14.571V21" stroke="#161924" stroke-width="1.5" stroke-linecap="round" stroke-linejoin="round"/>
</svg>
