<svg width="24" height="24" viewBox="0 0 24 24" fill="none" xmlns="http://www.w3.org/2000/svg">
<path d="M20.0033 10.9992V7.82586C20.0031 7.29526 19.7923 6.78645 19.4171 6.41127L16.5879 3.58209C16.2123 3.20687 15.7032 2.99603 15.1723 2.99585H5.00406C4.4708 2.99585 3.95962 3.20875 3.58396 3.58722C3.20831 3.96569 2.99926 4.47845 3.00317 5.01169L3.10727 18.0171C3.11524 19.1164 4.00879 20.0032 5.1081 20.0029H10.9996" stroke="#161924" stroke-width="1.5" stroke-linecap="round" stroke-linejoin="round"/>
<path d="M15.0013 2.99585V6.90648C15.0011 7.45891 14.5533 7.9067 14.0008 7.9069H8.99175C8.43932 7.9067 7.99153 7.45891 7.99133 6.90648V2.99585" stroke="#161924" stroke-width="1.5" stroke-linecap="round" stroke-linejoin="round"/>
<path d="M6.99792 20.0029V14.2865C6.9981 13.5761 7.574 13.0002 8.28446 13H12" stroke="#161924" stroke-width="1.5" stroke-linecap="round" stroke-linejoin="round"/>
<path d="M18.5027 16.5015L16.5019 18.5023" stroke="#161924" stroke-width="1.5" stroke-linecap="round" stroke-linejoin="round"/>
<path d="M16.5019 16.5015L18.5027 18.5023" stroke="#161924" stroke-width="1.5" stroke-linecap="round" stroke-linejoin="round"/>
<circle cx="17.5023" cy="17.5019" r="4.50187" stroke="#161924" stroke-width="1.5" stroke-linecap="round" stroke-linejoin="round"/>
</svg>
