<svg width="24" height="24" viewBox="0 0 24 24" fill="none" xmlns="http://www.w3.org/2000/svg">
<path d="M20.0033 10.9997V7.5586C20.0033 7.05726 19.8041 6.57645 19.4496 6.22194L16.7779 3.55018C16.4233 3.19556 15.9423 2.99634 15.4408 2.99634H4.99705C3.89202 2.99634 2.99622 3.89214 2.99622 4.99717V18.0026C2.99622 19.1076 3.89202 20.0034 4.99705 20.0034H10.9995" stroke="#161924" stroke-width="1.5" stroke-linecap="round" stroke-linejoin="round"/>
<path d="M14.9948 2.99634V7.12306C14.9946 7.60643 14.6028 7.99824 14.1194 7.99842H8.86725C8.38387 7.99824 7.99206 7.60643 7.99188 7.12306V2.99634" stroke="#161924" stroke-width="1.5" stroke-linecap="round" stroke-linejoin="round"/>
<path d="M6.99789 20.003V14.3267C6.99011 13.6335 7.52169 13.0533 8.21292 13.0005H12" stroke="#161924" stroke-width="1.5" stroke-linecap="round" stroke-linejoin="round"/>
<circle cx="17.5023" cy="17.5024" r="4.50187" stroke="#161924" stroke-width="1.5" stroke-linecap="round" stroke-linejoin="round"/>
<path d="M18.9024 16.8035L17.1511 18.5547L16.1011 17.5035" stroke="#161924" stroke-width="1.5" stroke-linecap="round" stroke-linejoin="round"/>
</svg>
