<svg width="24" height="24" viewBox="0 0 24 24" fill="none" xmlns="http://www.w3.org/2000/svg">
<path d="M17 20.571C16.172 19.571 15.086 19.071 14 19.071C15.086 19.071 16.172 18.571 17 17.571" stroke="#161924" stroke-width="1.5" stroke-linecap="round" stroke-linejoin="round"/>
<path d="M10 15.934V22H14V15.933" stroke="#161924" stroke-width="1.5" stroke-linecap="round" stroke-linejoin="round"/>
<path d="M14 19.07H10" stroke="#161924" stroke-width="1.5" stroke-linecap="round" stroke-linejoin="round"/>
<path d="M19.4411 10.457C19.6191 10.342 19.7901 10.211 19.9461 10.055L22.0001 8C21.1541 7.154 20.0211 6.768 18.9141 6.844C18.9891 5.737 18.6041 4.604 17.7581 3.758L15.7041 5.812C14.7251 6.79 14.5751 8.27 15.2301 9.416" stroke="#161924" stroke-width="1.5" stroke-linecap="round" stroke-linejoin="round"/>
<path fill-rule="evenodd" clip-rule="evenodd" d="M19.5913 12.336L14.5993 15.664C14.2703 15.883 13.8843 16 13.4893 16H10.5093C10.1143 16 9.72826 15.883 9.40026 15.664L4.40826 12.336C3.91226 12.005 3.82226 11.323 4.19426 10.856C4.98526 9.861 6.20526 9.22 7.57726 9.22C7.99626 9.22 8.40526 9.304 8.79326 9.419C9.58926 8.549 10.7323 8.004 11.9993 8.004C13.2663 8.004 14.4093 8.549 15.2163 9.419C15.6043 9.304 16.0023 9.22 16.4323 9.22C17.7953 9.22 19.0143 9.861 19.8063 10.856C20.1763 11.323 20.0873 12.005 19.5913 12.336V12.336Z" stroke="#161924" stroke-width="1.5" stroke-linecap="round" stroke-linejoin="round"/>
<path d="M13.7997 8.398C14.5327 7.851 15.0137 6.985 15.0137 6V3.095C13.8167 3.095 12.7437 3.623 12.0137 4.46C11.2837 3.624 10.2107 3.095 9.01367 3.095V6C9.01367 6.979 9.48967 7.84 10.2157 8.388" stroke="#161924" stroke-width="1.5" stroke-linecap="round" stroke-linejoin="round"/>
<path d="M4.559 10.457C4.381 10.342 4.21 10.211 4.054 10.055L2 8C2.846 7.154 3.979 6.768 5.086 6.844C5.011 5.737 5.396 4.604 6.242 3.758L8.296 5.812C9.275 6.79 9.425 8.27 8.77 9.416" stroke="#161924" stroke-width="1.5" stroke-linecap="round" stroke-linejoin="round"/>
</svg>
