<svg width="24" height="24" viewBox="0 0 24 24" fill="none" xmlns="http://www.w3.org/2000/svg">
<path d="M17 11.828V13C17 15.761 14.761 18 12 18V18C9.239 18 7 15.761 7 13V11.241" stroke="#161924" stroke-width="1.5" stroke-linecap="round" stroke-linejoin="round"/>
<path d="M12 18V21" stroke="#161924" stroke-width="1.5" stroke-linecap="round" stroke-linejoin="round"/>
<path d="M16 6V6C17.657 6 19 7.343 19 9V9C19 10.657 17.657 12 16 12H9.599H9.5C7.015 12 5 9.985 5 7.5V7.5C5 5.015 7.015 3 9.5 3H9.599H13C14.657 3 16 4.343 16 6V6C16 7.657 14.657 9 13 9H10.108H10.078C9.25 9 8.578 8.328 8.578 7.5V7.5C8.578 6.672 9.25 6 10.078 6H10.108H12.108" stroke="#161924" stroke-width="1.5" stroke-linecap="round" stroke-linejoin="round"/>
</svg>
