<svg width="24" height="24" viewBox="0 0 24 24" fill="none" xmlns="http://www.w3.org/2000/svg">
<path fill-rule="evenodd" clip-rule="evenodd" d="M12 15.0013V19.0029C12 20.108 12.8958 21.0038 14.0008 21.0038H20.0033C21.1084 21.0038 22.0042 20.108 22.0042 19.0029V15.0013C22.0042 13.8962 21.1084 13.0004 20.0033 13.0004H14.0008C12.8958 13.0004 12 13.8962 12 15.0013Z" stroke="#161924" stroke-width="1.5" stroke-linecap="round" stroke-linejoin="round"/>
<path d="M21.0036 9.99914V8.9387C21.0036 7.83369 20.1078 6.93792 19.0028 6.93787H12.5291C12.1977 6.93786 11.8879 6.77376 11.7017 6.49969L10.2961 4.43383C10.1099 4.16039 9.80059 3.99664 9.46979 3.99664H4.99693C4.46623 3.99664 3.95722 4.20725 3.58196 4.58251C3.2067 4.95777 2.99609 5.46678 2.99609 5.99748V19.0029C2.99609 19.5336 3.2067 20.0426 3.58196 20.4179C3.95722 20.7931 4.46623 21.0037 4.99693 21.0037H8.99859" stroke="#161924" stroke-width="1.5" stroke-linecap="round" stroke-linejoin="round"/>
<path d="M14.751 16.0016L16.4994 17.0168C16.8101 17.1972 17.1938 17.1972 17.5045 17.0168L19.2529 16.0016" stroke="#161924" stroke-width="1.5" stroke-linecap="round" stroke-linejoin="round"/>
</svg>
