<svg width="24" height="24" viewBox="0 0 24 24" fill="none" xmlns="http://www.w3.org/2000/svg">
<path fill-rule="evenodd" clip-rule="evenodd" d="M12.6055 3.26998L14.0555 2.56098C14.7245 2.23398 15.5335 2.49598 15.8825 3.15498L16.6395 4.58098C16.8395 4.95698 17.2015 5.21998 17.6215 5.29398L19.2115 5.57298C19.9455 5.70198 20.4445 6.38898 20.3405 7.12698L20.1145 8.72498C20.0545 9.14698 20.1935 9.57298 20.4895 9.87898L21.6115 11.039C22.1295 11.574 22.1295 12.424 21.6115 12.96L20.4895 14.12C20.1935 14.426 20.0545 14.852 20.1145 15.274L20.3405 16.872C20.4445 17.61 19.9455 18.297 19.2115 18.426L17.6215 18.705C17.2015 18.779 16.8395 19.042 16.6395 19.418L15.8825 20.844C15.5335 21.502 14.7255 21.765 14.0555 21.438L12.6055 20.729C12.2225 20.542 11.7755 20.542 11.3925 20.729L9.94252 21.438C9.27352 21.765 8.46452 21.503 8.11552 20.844L7.35952 19.418C7.15952 19.042 6.79752 18.779 6.37752 18.705L4.78752 18.426C4.05352 18.297 3.55452 17.61 3.65852 16.872L3.88452 15.274C3.94452 14.852 3.80552 14.426 3.50952 14.12L2.38752 12.96C1.86952 12.425 1.86952 11.575 2.38752 11.039L3.50952 9.87898C3.80552 9.57298 3.94452 9.14698 3.88452 8.72498L3.65952 7.12698C3.55452 6.38998 4.05452 5.70198 4.78852 5.57398L6.37852 5.29498C6.79752 5.22098 7.15952 4.95798 7.35952 4.58198L8.11652 3.15598C8.46552 2.49798 9.27352 2.23498 9.94352 2.56198L11.3935 3.27098C11.7755 3.45798 12.2235 3.45798 12.6055 3.26998Z" stroke="#161924" stroke-width="1.5" stroke-linecap="round" stroke-linejoin="round"/>
<path fill-rule="evenodd" clip-rule="evenodd" d="M15.375 16H8.625C8.073 16 7.625 15.552 7.625 15V11.376C7.625 10.824 8.073 10.376 8.625 10.376H15.374C15.926 10.376 16.374 10.824 16.374 11.376V15C16.374 15.552 15.926 16 15.375 16Z" stroke="#161924" stroke-width="1.5" stroke-linecap="round" stroke-linejoin="round"/>
<path fill-rule="evenodd" clip-rule="evenodd" d="M12.067 10.381C12.621 10.381 13.764 10.201 14.491 9.44201C15.026 8.88301 15.026 7.97801 14.491 7.41901C13.956 6.86001 13.088 6.86001 12.553 7.41901C11.734 8.27501 12.067 10.381 12.067 10.381V10.381Z" stroke="#161924" stroke-width="1.5" stroke-linecap="round" stroke-linejoin="round"/>
<path fill-rule="evenodd" clip-rule="evenodd" d="M11.9327 10.381C11.3787 10.381 10.2357 10.201 9.50867 9.44201C8.97367 8.88301 8.97367 7.97801 9.50867 7.41901C10.0437 6.86001 10.9117 6.86001 11.4467 7.41901C12.2657 8.27501 11.9327 10.381 11.9327 10.381V10.381Z" stroke="#161924" stroke-width="1.5" stroke-linecap="round" stroke-linejoin="round"/>
<path d="M12 10.38V16" stroke="#161924" stroke-width="1.5" stroke-linecap="round" stroke-linejoin="round"/>
</svg>
