<svg width="24" height="24" viewBox="0 0 24 24" fill="none" xmlns="http://www.w3.org/2000/svg">
<rect x="3" y="6" width="18" height="3" rx="1" stroke="#161924" stroke-width="1.5" stroke-linecap="round" stroke-linejoin="round"/>
<path d="M20 9V19C20 20.1046 19.1046 21 18 21H6C4.89543 21 4 20.1046 4 19V9" stroke="#161924" stroke-width="1.5" stroke-linecap="round" stroke-linejoin="round"/>
<path fill-rule="evenodd" clip-rule="evenodd" d="M10 2V2C11.1046 2 12 2.89543 12 4V6H10C8.89543 6 8 5.10457 8 4V4C8 2.89543 8.89543 2 10 2Z" stroke="#161924" stroke-width="1.5" stroke-linecap="round" stroke-linejoin="round"/>
<path fill-rule="evenodd" clip-rule="evenodd" d="M14 2V2C15.1046 2 16 2.89543 16 4V4C16 5.10457 15.1046 6 14 6H12V4C12 2.89543 12.8954 2 14 2Z" stroke="#161924" stroke-width="1.5" stroke-linecap="round" stroke-linejoin="round"/>
<path fill-rule="evenodd" clip-rule="evenodd" d="M11.802 12.5733L12 12.7743L12.198 12.5732C12.559 12.2065 13.0521 11.9999 13.5667 11.9999C14.0813 11.9999 14.5744 12.2065 14.9354 12.5732V12.5732C15.6882 13.3468 15.6882 14.5791 14.9354 15.3527L13.397 16.9149C13.0285 17.2892 12.5253 17.5 12 17.5C11.4748 17.5 10.9715 17.2892 10.6031 16.9149L9.0646 15.3528C8.3118 14.5792 8.3118 13.3469 9.0646 12.5733V12.5733C9.4256 12.2065 9.91868 12 10.4333 12C10.9479 12 11.441 12.2065 11.802 12.5733V12.5733Z" stroke="#161924" stroke-width="1.5" stroke-linecap="round" stroke-linejoin="round"/>
</svg>
