<svg width="24" height="24" viewBox="0 0 24 24" fill="none" xmlns="http://www.w3.org/2000/svg">
<path fill-rule="evenodd" clip-rule="evenodd" d="M9.31266 9.493V9.493C9.51066 9.185 9.85066 9 10.2167 9H13.7847C14.1497 9 14.4907 9.185 14.6887 9.493V9.493C14.9817 9.947 14.8927 10.547 14.4807 10.897L12.6967 12.41C12.2957 12.751 11.7067 12.751 11.3047 12.41L9.52066 10.896C9.10866 10.547 9.01966 9.946 9.31266 9.493V9.493Z" stroke="#161924" stroke-width="1.5" stroke-linecap="round" stroke-linejoin="round"/>
<path d="M16.0003 15C16.0003 13.45 15.1093 12.121 13.8193 11.457" stroke="#161924" stroke-width="1.5" stroke-linecap="round" stroke-linejoin="round"/>
<path d="M10.181 11.457C8.891 12.121 8 13.45 8 15" stroke="#161924" stroke-width="1.5" stroke-linecap="round" stroke-linejoin="round"/>
<path d="M4.28027 5.5H19.7303" stroke="#161924" stroke-width="1.5" stroke-linecap="round" stroke-linejoin="round"/>
<path d="M20.5404 18H3.65039" stroke="#161924" stroke-width="1.5" stroke-linecap="round" stroke-linejoin="round"/>
<path fill-rule="evenodd" clip-rule="evenodd" d="M4.87231 11.976L4.18331 6.467C4.06531 5.521 4.29131 4.563 4.82031 3.77V3.77C5.55731 2.664 6.79831 2 8.12731 2H15.8733C17.2023 2 18.4433 2.664 19.1803 3.77V3.77C19.7093 4.564 19.9353 5.521 19.8173 6.467L19.1283 11.976C19.0443 12.648 19.1323 13.329 19.3833 13.958L20.2043 16.011C20.7103 17.276 20.6513 18.697 20.0423 19.916V19.916C19.4033 21.193 18.0983 22 16.6703 22H12.0003H7.33031C5.90231 22 4.59731 21.193 3.95831 19.916V19.916C3.34931 18.697 3.29031 17.276 3.79631 16.011L4.61731 13.958C4.86831 13.33 4.95631 12.648 4.87231 11.976Z" stroke="#161924" stroke-width="1.5" stroke-linecap="round" stroke-linejoin="round"/>
</svg>
