<svg width="24" height="24" viewBox="0 0 24 24" fill="none" xmlns="http://www.w3.org/2000/svg">
<path fill-rule="evenodd" clip-rule="evenodd" d="M15.2512 16.0017H8.74846C8.19595 16.0017 7.74805 15.5538 7.74805 15.0013V11.4998C7.74805 10.9473 8.19595 10.4994 8.74846 10.4994H15.2512C15.8037 10.4994 16.2516 10.9473 16.2516 11.4998V15.0013C16.2516 15.5538 15.8037 16.0017 15.2512 16.0017Z" stroke="#161924" stroke-width="1.5" stroke-linecap="round" stroke-linejoin="round"/>
<path d="M12.0002 10.4994V16.0017" stroke="#161924" stroke-width="1.5" stroke-linecap="round" stroke-linejoin="round"/>
<path fill-rule="evenodd" clip-rule="evenodd" d="M12.0696 10.4994C13.0017 10.5035 13.9011 10.1563 14.5887 9.52696C15.145 8.93908 15.145 8.01896 14.5887 7.43108C14.3269 7.1542 13.9628 6.99731 13.5818 6.99731C13.2007 6.99731 12.8366 7.1542 12.5748 7.43108C11.7235 8.31845 12.0696 10.4994 12.0696 10.4994Z" stroke="#161924" stroke-width="1.5" stroke-linecap="round" stroke-linejoin="round"/>
<path fill-rule="evenodd" clip-rule="evenodd" d="M11.9314 10.4993C10.9993 10.5035 10.0999 10.1563 9.41235 9.52693C8.85604 8.93905 8.85604 8.01893 9.41235 7.43105C9.67393 7.1539 10.0382 6.99683 10.4193 6.99683C10.8004 6.99683 11.1646 7.1539 11.4262 7.43105C12.2775 8.31842 11.9314 10.4993 11.9314 10.4993Z" stroke="#161924" stroke-width="1.5" stroke-linecap="round" stroke-linejoin="round"/>
<circle cx="11.9998" cy="12" r="9.00375" stroke="#161924" stroke-width="1.5" stroke-linecap="round" stroke-linejoin="round"/>
</svg>
