<svg width="24" height="24" viewBox="0 0 24 24" fill="none" xmlns="http://www.w3.org/2000/svg">
<path fill-rule="evenodd" clip-rule="evenodd" d="M15.3763 16.5018H8.62346C8.07123 16.5018 7.62305 16.0536 7.62305 15.5014V11.9999C7.62305 11.4477 8.07123 10.9995 8.62346 10.9995H15.3753C15.9275 10.9995 16.3757 11.4477 16.3757 11.9999V15.5014C16.3757 16.0536 15.9275 16.5018 15.3763 16.5018Z" stroke="#161924" stroke-width="1.5" stroke-linecap="round" stroke-linejoin="round"/>
<path d="M12.0002 10.9995V16.5018" stroke="#161924" stroke-width="1.5" stroke-linecap="round" stroke-linejoin="round"/>
<path fill-rule="evenodd" clip-rule="evenodd" d="M17.0019 21.0037H6.99776C4.78784 21.0037 2.99609 19.212 2.99609 17.002V6.99788C2.99609 4.78796 4.78784 2.99622 6.99776 2.99622H17.0019C19.2118 2.99622 21.0036 4.78796 21.0036 6.99788V17.002C21.0036 19.212 19.2118 21.0037 17.0019 21.0037Z" stroke="#161924" stroke-width="1.5" stroke-linecap="round" stroke-linejoin="round"/>
<path fill-rule="evenodd" clip-rule="evenodd" d="M12.0686 10.9995C12.6439 10.9995 13.8324 10.8134 14.5877 10.0271C15.1439 9.44887 15.1439 8.51048 14.5877 7.93124C14.0315 7.353 13.1301 7.353 12.5739 7.93124C11.7225 8.81761 12.0686 10.9995 12.0686 10.9995Z" stroke="#161924" stroke-width="1.5" stroke-linecap="round" stroke-linejoin="round"/>
<path fill-rule="evenodd" clip-rule="evenodd" d="M11.9304 10.9995C11.3551 10.9995 10.1666 10.8134 9.41131 10.0271C8.85508 9.44888 8.85508 8.51049 9.41131 7.93125C9.96755 7.35201 10.8689 7.35301 11.4252 7.93125C12.2765 8.81762 11.9304 10.9995 11.9304 10.9995Z" stroke="#161924" stroke-width="1.5" stroke-linecap="round" stroke-linejoin="round"/>
</svg>
