<svg width="24" height="24" viewBox="0 0 24 24" fill="none" xmlns="http://www.w3.org/2000/svg">
<path fill-rule="evenodd" clip-rule="evenodd" d="M18 21H6C4.35 21 3 19.65 3 18V6C3 4.35 4.35 3 6 3H18C19.65 3 21 4.35 21 6V18C21 19.65 19.65 21 18 21Z" stroke="#161924" stroke-width="1.5" stroke-linecap="round" stroke-linejoin="round"/>
<path d="M12.0013 11.258C12.0013 8.906 13.6343 7 15.6483 7C16.5153 7 17.2183 7.703 17.2183 8.57C17.2183 10.464 14.8813 12 11.9993 12C9.11727 12 6.78027 10.465 6.78027 8.57C6.78027 7.703 7.48327 7 8.35127 7C10.3653 7 11.9983 8.906 11.9983 11.258" stroke="#161924" stroke-width="1.5" stroke-linecap="round" stroke-linejoin="round"/>
<path d="M8 15.854C10.208 15.854 11.998 13.764 11.998 11.186L12.002 11.2C12.002 13.778 13.792 15.868 16 15.868" stroke="#161924" stroke-width="1.5" stroke-linecap="round" stroke-linejoin="round"/>
<path d="M12 3V21" stroke="#161924" stroke-width="1.5" stroke-linecap="round" stroke-linejoin="round"/>
<path d="M21 12H3" stroke="#161924" stroke-width="1.5" stroke-linecap="round" stroke-linejoin="round"/>
</svg>
