<svg width="24" height="24" viewBox="0 0 24 24" fill="none" xmlns="http://www.w3.org/2000/svg">
<path d="M7.5 13L12 22" stroke="#161924" stroke-width="1.5" stroke-linecap="round" stroke-linejoin="round"/>
<path fill-rule="evenodd" clip-rule="evenodd" d="M21.2891 11.473L17.4751 19.1C17.2381 19.575 16.6681 19.787 16.1861 19.566C14.8281 18.943 13.3631 18.641 11.8981 18.64C10.4331 18.641 8.96806 18.943 7.61006 19.566C7.12706 19.787 6.55706 19.575 6.32006 19.1L2.50706 11.473C2.26506 10.99 2.44506 10.387 2.92506 10.141C5.73506 8.7 8.81506 8.001 11.8971 8C14.9791 8.001 18.0591 8.7 20.8701 10.141C21.3511 10.388 21.5301 10.99 21.2891 11.473Z" stroke="#161924" stroke-width="1.5" stroke-linecap="round" stroke-linejoin="round"/>
<path d="M12 5C12 4.834 11.985 4.667 11.955 4.503" stroke="#161924" stroke-width="1.5" stroke-linecap="round" stroke-linejoin="round"/>
<path d="M12.045 4.503C12.015 4.667 12 4.834 12 5" stroke="#161924" stroke-width="1.5" stroke-linecap="round" stroke-linejoin="round"/>
<path d="M17.5871 2.87898C17.4631 2.76498 17.3311 2.66198 17.1931 2.57098" stroke="#161924" stroke-width="1.5" stroke-linecap="round" stroke-linejoin="round"/>
<path d="M14.3812 2.11299C14.1992 2.15999 14.0252 2.22799 13.8552 2.30999" stroke="#161924" stroke-width="1.5" stroke-linecap="round" stroke-linejoin="round"/>
<path d="M6.80686 2.57098C6.66886 2.66198 6.53686 2.76498 6.41286 2.87898" stroke="#161924" stroke-width="1.5" stroke-linecap="round" stroke-linejoin="round"/>
<path d="M9.61884 2.11299C9.80084 2.15999 9.97484 2.22799 10.1448 2.30999" stroke="#161924" stroke-width="1.5" stroke-linecap="round" stroke-linejoin="round"/>
<path d="M12 13V12" stroke="#161924" stroke-width="1.5" stroke-linecap="round" stroke-linejoin="round"/>
<path d="M12 8V9" stroke="#161924" stroke-width="1.5" stroke-linecap="round" stroke-linejoin="round"/>
</svg>
