<svg width="24" height="24" viewBox="0 0 24 24" fill="none" xmlns="http://www.w3.org/2000/svg">
<path d="M3.51416 9H20.4866" stroke="#161924" stroke-width="1.5" stroke-linecap="round" stroke-linejoin="round"/>
<path d="M12 21C9.79086 21 8 16.9706 8 12C8 7.02944 9.79086 3 12 3" stroke="#161924" stroke-width="1.5" stroke-linecap="round" stroke-linejoin="round"/>
<path d="M12.0001 15H3.51416" stroke="#161924" stroke-width="1.5" stroke-linecap="round" stroke-linejoin="round"/>
<path d="M12 21C7.02944 21 3 16.9706 3 12C3 7.02944 7.02944 3 12 3" stroke="#161924" stroke-width="1.5" stroke-linecap="round" stroke-linejoin="round"/>
<path d="M18.501 17.25C18.6389 17.2506 18.7504 17.3627 18.75 17.5007C18.7496 17.6386 18.6376 17.7502 18.4997 17.75C18.3617 17.7498 18.25 17.6379 18.25 17.5C18.2496 17.4334 18.276 17.3695 18.3232 17.3225C18.3704 17.2755 18.4344 17.2494 18.501 17.25" stroke="#161924" stroke-width="1.5" stroke-linecap="round" stroke-linejoin="round"/>
<path d="M15 17.5V17.5C15 15.567 16.567 14 18.5 14V14C20.433 14 22 15.567 22 17.5V17.5" stroke="#161924" stroke-width="1.5" stroke-linecap="round" stroke-linejoin="round"/>
<path d="M15 17.5C15 19.1612 16.8561 20.9378 17.8647 21.7812C18.2374 22.0728 18.761 22.073 19.1339 21.7815C20.1435 20.9383 22 19.1614 22 17.5" stroke="#161924" stroke-width="1.5" stroke-linecap="round" stroke-linejoin="round"/>
<path d="M15.9739 11C15.7526 6.50056 14.0588 3 12 3" stroke="#161924" stroke-width="1.5" stroke-linecap="round" stroke-linejoin="round"/>
<path d="M20.9413 11C20.4327 6.44561 16.5827 3.0009 12 3" stroke="#161924" stroke-width="1.5" stroke-linecap="round" stroke-linejoin="round"/>
</svg>
