<svg width="24" height="24" viewBox="0 0 24 24" fill="none" xmlns="http://www.w3.org/2000/svg">
<path d="M11.9998 21.0037C7.02721 21.0037 2.99609 16.9726 2.99609 12C2.99609 7.02733 7.02721 2.99622 11.9998 2.99622C16.9725 2.99622 21.0036 7.02733 21.0036 12" stroke="#161924" stroke-width="1.5" stroke-linecap="round" stroke-linejoin="round"/>
<path d="M3.50781 8.99874H20.4219" stroke="#161924" stroke-width="1.5" stroke-linecap="round" stroke-linejoin="round"/>
<path d="M3.50977 15.0012H11.9993" stroke="#161924" stroke-width="1.5" stroke-linecap="round" stroke-linejoin="round"/>
<path d="M16.0009 12C16.0084 9.2051 15.2593 6.46026 13.8329 4.05671C13.4556 3.40068 12.7564 2.99628 11.9996 2.99628C11.2428 2.99628 10.5437 3.40068 10.1664 4.05671C7.27527 8.95801 7.27527 15.043 10.1664 19.9443C10.5455 20.5982 11.2433 21.0015 11.9991 21.0038" stroke="#161924" stroke-width="1.5" stroke-linecap="round" stroke-linejoin="round"/>
<path fill-rule="evenodd" clip-rule="evenodd" d="M14.7871 19.6322V16.875C14.7886 16.5225 14.9797 16.198 15.2873 16.0257L17.7774 14.6251C18.0739 14.4581 18.4362 14.4581 18.7328 14.6251L21.2228 16.0257C21.5307 16.1977 21.7219 16.5224 21.723 16.875V19.6322C21.7217 19.9848 21.5305 20.3094 21.2228 20.4815L18.7318 21.8821C18.4349 22.0482 18.0732 22.0482 17.7764 21.8821L15.2863 20.4815C14.9785 20.3096 14.7876 19.9848 14.7871 19.6322V19.6322Z" stroke="#161924" stroke-width="1.5" stroke-linecap="round" stroke-linejoin="round"/>
<path d="M18.2522 18.2536V22.0042" stroke="#161924" stroke-width="1.5" stroke-linecap="round" stroke-linejoin="round"/>
<path d="M14.9199 16.3828L18.2513 18.2536L21.5827 16.3828" stroke="#161924" stroke-width="1.5" stroke-linecap="round" stroke-linejoin="round"/>
</svg>
