<svg width="24" height="24" viewBox="0 0 24 24" fill="none" xmlns="http://www.w3.org/2000/svg">
<path d="M3.51392 9H20.4999" stroke="#161924" stroke-width="1.5" stroke-linecap="round" stroke-linejoin="round"/>
<path d="M12 21C9.79086 21 8 16.9706 8 12C8 7.02944 9.79086 3 12 3" stroke="#161924" stroke-width="1.5" stroke-linecap="round" stroke-linejoin="round"/>
<path d="M13.0001 15H3.51416" stroke="#161924" stroke-width="1.5" stroke-linecap="round" stroke-linejoin="round"/>
<path d="M12 21C7.02944 21 3 16.9706 3 12C3 7.02944 7.02944 3 12 3" stroke="#161924" stroke-width="1.5" stroke-linecap="round" stroke-linejoin="round"/>
<path d="M20.9413 11C20.4327 6.44561 16.5827 3.0009 12 3" stroke="#161924" stroke-width="1.5" stroke-linecap="round" stroke-linejoin="round"/>
<path d="M15.9657 11C15.7438 6.50275 14.058 3 12 3" stroke="#161924" stroke-width="1.5" stroke-linecap="round" stroke-linejoin="round"/>
<path d="M13 20.9395C12.668 20.9781 12.3342 20.9983 12 21" stroke="#161924" stroke-width="1.5" stroke-linecap="round" stroke-linejoin="round"/>
<path d="M18.5 14V14.8079" stroke="#161924" stroke-width="1.5" stroke-linecap="round" stroke-linejoin="round"/>
<path d="M16.5 16.4236C16.6168 15.431 17.505 14.7134 18.5 14.8078" stroke="#161924" stroke-width="1.5" stroke-linecap="round" stroke-linejoin="round"/>
<path d="M18.5 22V21.1921" stroke="#161924" stroke-width="1.5" stroke-linecap="round" stroke-linejoin="round"/>
<path d="M20.5 19.5764C20.3832 20.569 19.495 21.2865 18.5 21.1921" stroke="#161924" stroke-width="1.5" stroke-linecap="round" stroke-linejoin="round"/>
<path d="M20.4491 16.0711C20.1482 15.267 19.3569 14.7542 18.5 14.8079" stroke="#161924" stroke-width="1.5" stroke-linecap="round" stroke-linejoin="round"/>
<path d="M16.551 19.9289C16.8519 20.733 17.6432 21.2458 18.5001 21.1921" stroke="#161924" stroke-width="1.5" stroke-linecap="round" stroke-linejoin="round"/>
<path d="M16.5 16.4236V16.4236C16.5 17.1076 16.9828 17.6966 17.6536 17.8307L19.3464 18.1693C20.0172 18.3034 20.5 18.8924 20.5 19.5764V19.5764" stroke="#161924" stroke-width="1.5" stroke-linecap="round" stroke-linejoin="round"/>
</svg>
