<svg width="24" height="24" viewBox="0 0 24 24" fill="none" xmlns="http://www.w3.org/2000/svg">
<path d="M12.0003 21.0037C7.02726 21.0037 2.99658 16.973 2.99658 12C2.99658 7.02689 7.02726 2.99622 12.0003 2.99622C16.9734 2.99622 21.0041 7.02689 21.0041 12" stroke="#161924" stroke-width="1.5" stroke-linecap="round" stroke-linejoin="round"/>
<path d="M3.50977 8.99874H20.3848" stroke="#161924" stroke-width="1.5" stroke-linecap="round" stroke-linejoin="round"/>
<path d="M3.51074 15.0012H12.0003" stroke="#161924" stroke-width="1.5" stroke-linecap="round" stroke-linejoin="round"/>
<path d="M16.0019 12C16.0019 9.23481 15.2786 6.46966 13.834 4.05665C12.9866 2.64306 11.0138 2.64306 10.1674 4.05665C7.27622 8.88366 7.27622 15.1173 10.1674 19.9443C10.5906 20.6506 11.2959 21.0047 12.0012 21.0047" stroke="#161924" stroke-width="1.5" stroke-linecap="round" stroke-linejoin="round"/>
<path d="M23.0048 17.6273L21.8794 16.5018L20.7539 17.6273" stroke="#161924" stroke-width="1.5" stroke-linecap="round" stroke-linejoin="round"/>
<path d="M14.7515 18.3776L15.8769 19.503L17.0024 18.3776" stroke="#161924" stroke-width="1.5" stroke-linecap="round" stroke-linejoin="round"/>
<path d="M15.877 19.5031V16.5018C15.877 15.6725 16.5482 15.0012 17.3776 15.0012H19.6285" stroke="#161924" stroke-width="1.5" stroke-linecap="round" stroke-linejoin="round"/>
<path d="M21.8793 16.5018V19.5031C21.8793 20.3284 21.204 21.0037 20.3787 21.0037H18.1357" stroke="#161924" stroke-width="1.5" stroke-linecap="round" stroke-linejoin="round"/>
</svg>
