<svg width="24" height="24" viewBox="0 0 24 24" fill="none" xmlns="http://www.w3.org/2000/svg">
<path d="M8 18L10 20L8 22" stroke="#161924" stroke-width="1.5" stroke-linecap="round" stroke-linejoin="round"/>
<path d="M10 20H4" stroke="#161924" stroke-width="1.5" stroke-linecap="round" stroke-linejoin="round"/>
<path d="M3 12H7.172C8.734 12 10 10.734 10 9.17201V9.17201C10 8.42201 9.702 7.70201 9.172 7.17201L6.717 4.71701" stroke="#161924" stroke-width="1.5" stroke-linecap="round" stroke-linejoin="round"/>
<path d="M18.2921 18.438L16.5151 15.773C16.1931 15.29 15.6521 15 15.0721 15V15C14.4151 15 13.8151 14.629 13.5211 14.041L13.3881 13.775C13.1441 13.287 13.1441 12.712 13.3881 12.224L14.5211 9.958C14.8141 9.371 15.4151 9 16.0721 9H20.4801" stroke="#161924" stroke-width="1.5" stroke-linecap="round" stroke-linejoin="round"/>
<path d="M14 20.771C18.013 19.864 21 16.294 21 12C21 7.018 16.982 3 12 3C7.018 3 3 7.018 3 12C3 13.44 3.344 14.795 3.942 16" stroke="#161924" stroke-width="1.5" stroke-linecap="round" stroke-linejoin="round"/>
</svg>
