<svg width="24" height="24" viewBox="0 0 24 24" fill="none" xmlns="http://www.w3.org/2000/svg">
<path d="M7.99826 14.0008V21.0037" stroke="#161924" stroke-width="1.5" stroke-linecap="round" stroke-linejoin="round"/>
<path d="M12.0002 14.0008V21.0037" stroke="#161924" stroke-width="1.5" stroke-linecap="round" stroke-linejoin="round"/>
<path d="M16.0022 14.0008V21.0037" stroke="#161924" stroke-width="1.5" stroke-linecap="round" stroke-linejoin="round"/>
<path d="M22.0044 21.0037H1.99609" stroke="#161924" stroke-width="1.5" stroke-linecap="round" stroke-linejoin="round"/>
<path d="M12 6.9979V2.49603C12 2.21977 12.224 1.99582 12.5002 1.99582H15.5015C15.7777 1.99582 16.0017 2.21977 16.0017 2.49603V3.91462C16.0017 4.19088 15.7777 4.41483 15.5015 4.41483H12" stroke="#161924" stroke-width="1.5" stroke-linecap="round" stroke-linejoin="round"/>
<path d="M7.99805 9.99917V8.41251C7.99805 8.14721 8.10354 7.89279 8.29117 7.70522L8.70534 7.29105C8.89291 7.10342 9.14733 6.99798 9.41264 6.99792H14.5868C14.8521 6.99798 15.1065 7.10342 15.2941 7.29105L15.7083 7.70522C15.8959 7.89279 16.0014 8.14721 16.0014 8.41251V9.99917" stroke="#161924" stroke-width="1.5" stroke-linecap="round" stroke-linejoin="round"/>
<path d="M3.99707 14.0008H20.0037" stroke="#161924" stroke-width="1.5" stroke-linecap="round" stroke-linejoin="round"/>
<path d="M20.0037 21.0038V11.4138C20.0037 11.1485 19.8982 10.894 19.7106 10.7065L19.2964 10.2923C19.1089 10.1047 18.8545 9.99918 18.5891 9.99918H5.41166C5.14635 9.99918 4.89194 10.1047 4.70436 10.2923L4.29019 10.7065C4.10256 10.894 3.99707 11.1485 3.99707 11.4138V21.0038" stroke="#161924" stroke-width="1.5" stroke-linecap="round" stroke-linejoin="round"/>
</svg>
