<svg width="24" height="24" viewBox="0 0 24 24" fill="none" xmlns="http://www.w3.org/2000/svg">
<path d="M10.332 14.2789V9.27681C10.332 8.96961 10.5811 8.72058 10.8883 8.72058H13.6674V14.2789" stroke="#161924" stroke-width="1.5" stroke-linecap="round" stroke-linejoin="round"/>
<path d="M13.6678 8.72061V7.05391C13.6678 6.7471 13.9162 6.49823 14.2231 6.49768H16.446C16.7532 6.49768 17.0022 6.74671 17.0022 7.05391V13.7227C17.0022 13.8702 16.9436 14.0117 16.8393 14.116C16.735 14.2203 16.5935 14.2789 16.446 14.2789H7.55428C7.40676 14.2789 7.26528 14.2203 7.16096 14.116C7.05665 14.0117 6.99805 13.8702 6.99805 13.7227V11.4998C6.99805 11.1926 7.24708 10.9435 7.55428 10.9435H10.3324" stroke="#161924" stroke-width="1.5" stroke-linecap="round" stroke-linejoin="round"/>
<path d="M6.99805 17.002H17.0022" stroke="#161924" stroke-width="1.5" stroke-linecap="round" stroke-linejoin="round"/>
<rect x="2.99609" y="2.99622" width="18.0075" height="18.0075" rx="5" stroke="#161924" stroke-width="1.5" stroke-linecap="round" stroke-linejoin="round"/>
</svg>
