<svg width="24" height="24" viewBox="0 0 24 24" fill="none" xmlns="http://www.w3.org/2000/svg">
<path d="M8.99901 8.99874V10.9996L11.1896 13.191C11.788 13.7897 11.835 14.7445 11.2982 15.399C10.7615 16.0535 9.81599 16.1944 9.11176 15.7248L4.62189 12.7307C3.91015 12.2561 3.36925 11.5659 3.07854 10.7613L1.99609 7.76562" stroke="#161924" stroke-width="1.5" stroke-linecap="round" stroke-linejoin="round"/>
<path d="M7.99854 2.99622L12.2512 5.54782C12.7406 5.84149 13.1362 6.26864 13.3915 6.77917L13.6842 7.36461C13.8926 7.78134 14.001 8.24088 14.001 8.7068V9.99913" stroke="#161924" stroke-width="1.5" stroke-linecap="round" stroke-linejoin="round"/>
<path d="M19.0033 17.0021C19.0033 18.1071 18.1075 19.0029 17.0024 19.0029" stroke="#161924" stroke-width="1.5" stroke-linecap="round" stroke-linejoin="round"/>
<path d="M20.5038 14.0008V13.0004C20.5038 11.3429 19.1601 9.99915 17.5026 9.99915H8.99902" stroke="#161924" stroke-width="1.5" stroke-linecap="round" stroke-linejoin="round"/>
<path d="M14.0009 20.5035H8.99881C7.34126 20.5035 5.99756 19.1598 5.99756 17.5022V13.6482" stroke="#161924" stroke-width="1.5" stroke-linecap="round" stroke-linejoin="round"/>
<path d="M22.0045 17.0021C22.0045 19.7646 19.765 22.0042 17.0024 22.0042" stroke="#161924" stroke-width="1.5" stroke-linecap="round" stroke-linejoin="round"/>
</svg>
