<svg width="24" height="24" viewBox="0 0 24 24" fill="none" xmlns="http://www.w3.org/2000/svg">
<path d="M12.982 14.0008H20.5038C21.3326 14.0008 22.0044 13.329 22.0044 12.5002V6.4977C22.0044 5.66892 21.3326 4.99707 20.5038 4.99707H10.4996C9.67088 4.99707 8.99902 5.66892 8.99902 6.4977V13.0004" stroke="#161924" stroke-width="1.5" stroke-linecap="round" stroke-linejoin="round"/>
<path d="M14.4404 8.43797C15.0272 7.85672 15.9733 7.85894 16.5573 8.44294C17.1414 9.02695 17.1436 9.97312 16.5623 10.5599" stroke="#161924" stroke-width="1.5" stroke-linecap="round" stroke-linejoin="round"/>
<path d="M8.99901 7.99835H6.70625C6.24033 7.99835 5.7808 8.10682 5.36408 8.31519L4.77862 8.60792C4.26812 8.86315 3.84099 9.25867 3.54734 9.74808L1.99609 12.3335" stroke="#161924" stroke-width="1.5" stroke-linecap="round" stroke-linejoin="round"/>
<path d="M2.99609 21.0038L8.76036 18.9209C9.5649 18.6302 10.2551 18.0893 10.7297 17.3776L13.7238 12.8877C14.1593 12.2347 14.0733 11.3651 13.5183 10.81V10.81C12.8754 10.1672 11.8331 10.1671 11.1901 10.8098L8.99859 13.0004H6.99776" stroke="#161924" stroke-width="1.5" stroke-linecap="round" stroke-linejoin="round"/>
</svg>
