<svg width="24" height="24" viewBox="0 0 24 24" fill="none" xmlns="http://www.w3.org/2000/svg">
<path d="M10.9995 3.9967L15.2522 6.54831C15.7416 6.84197 16.1372 7.26912 16.3924 7.77965L16.6852 8.36508C16.8935 8.78182 17.002 9.24135 17.002 9.70728V11.4167" stroke="#161924" stroke-width="1.5" stroke-linecap="round" stroke-linejoin="round"/>
<path d="M10.064 15.3591C10.0284 15.5716 10.0067 15.7863 9.99922 16.0017C9.97878 18.3466 11.5764 20.3966 13.8554 20.9496C16.1343 21.5026 18.4938 20.4128 19.5503 18.3192C20.6069 16.2257 20.082 13.6802 18.2834 12.1754C16.4849 10.6706 13.8867 10.6031 12.0124 12.0125" stroke="#161924" stroke-width="1.5" stroke-linecap="round" stroke-linejoin="round"/>
<path d="M3.99658 5.99744L6.07945 11.7617C6.37016 12.5662 6.91105 13.2564 7.62276 13.7311L12.1126 16.7252C12.7657 17.1607 13.6353 17.0746 14.1903 16.5196V16.5196C14.8332 15.8767 14.8333 14.8344 14.1905 14.1914L11.9999 11.9999V9.9991" stroke="#161924" stroke-width="1.5" stroke-linecap="round" stroke-linejoin="round"/>
</svg>
