<svg width="24" height="24" viewBox="0 0 24 24" fill="none" xmlns="http://www.w3.org/2000/svg">
<path d="M1.99609 14.0008L4.5477 9.74813C4.84136 9.25868 5.26851 8.86312 5.77904 8.60785L6.36447 8.31514C6.78121 8.10678 7.24074 7.99829 7.70667 7.99829H9.99943" stroke="#161924" stroke-width="1.5" stroke-linecap="round" stroke-linejoin="round"/>
<path d="M3.99658 21.0038L9.76085 18.9209C10.5654 18.6302 11.2556 18.0893 11.7302 17.3776L14.7243 12.8878C15.1598 12.2348 15.0738 11.3651 14.5188 10.8101V10.8101C13.8759 10.1672 12.8336 10.1671 12.1906 10.8099L9.99908 13.0004H7.99825" stroke="#161924" stroke-width="1.5" stroke-linecap="round" stroke-linejoin="round"/>
<path d="M13.9824 14.0008H19.6876C20.9902 13.9772 22.0273 12.9024 22.0044 11.5998V7.39807C22.0273 6.09546 20.9902 5.02073 19.6876 4.99707H12.3161C11.0136 5.02073 9.97654 6.09546 9.99939 7.39807V7.39807V13.0004" stroke="#161924" stroke-width="1.5" stroke-linecap="round" stroke-linejoin="round"/>
</svg>
