<svg width="24" height="24" viewBox="0 0 24 24" fill="none" xmlns="http://www.w3.org/2000/svg">
<path d="M10 10H8.70821C8.24247 10 7.78314 10.1084 7.36657 10.3167L6.78138 10.6093C6.27106 10.8645 5.84409 11.2599 5.55054 11.7491L3 16" stroke="#161924" stroke-width="1.5" stroke-linecap="round" stroke-linejoin="round"/>
<path d="M15 3.5H13C11.3431 3.5 10 4.84315 10 6.5V15" stroke="#161924" stroke-width="1.5" stroke-linecap="round" stroke-linejoin="round"/>
<path d="M13 19H18C19.6569 19 21 17.6569 21 16V9" stroke="#161924" stroke-width="1.5" stroke-linecap="round" stroke-linejoin="round"/>
<path d="M8 22L10.7514 20.942C11.5617 20.6304 12.2487 20.0636 12.7086 19.3272L15.7573 14.4452C16.1515 13.814 16.0579 12.9943 15.5318 12.4682V12.4682C15.2215 12.1579 14.7974 11.9888 14.3588 12.0006C13.9202 12.0123 13.5057 12.2038 13.2124 12.5302L10.9932 15H9" stroke="#161924" stroke-width="1.5" stroke-linecap="round" stroke-linejoin="round"/>
<path d="M17.7988 4.8L18.9999 6L20.9988 4" stroke="#161924" stroke-width="1.5" stroke-linecap="round" stroke-linejoin="round"/>
</svg>
