<svg width="24" height="24" viewBox="0 0 24 24" fill="none" xmlns="http://www.w3.org/2000/svg">
<path fill-rule="evenodd" clip-rule="evenodd" d="M5.99734 21.0038H3.99651C3.444 21.0038 2.99609 20.5559 2.99609 20.0033V14.0008C2.99609 13.4483 3.444 13.0004 3.99651 13.0004H5.99734C6.54986 13.0004 6.99776 13.4483 6.99776 14.0008V20.0033C6.99776 20.5559 6.54986 21.0038 5.99734 21.0038Z" stroke="#161924" stroke-width="1.5" stroke-linecap="round" stroke-linejoin="round"/>
<path d="M13.5002 3.99664V8.59856" stroke="#161924" stroke-width="1.5" stroke-linecap="round" stroke-linejoin="round"/>
<path d="M20.0015 14.0008V10.0392C19.9988 9.24313 19.353 8.59912 18.5569 8.59857H8.4407C7.64465 8.59912 6.99885 9.24313 6.99609 10.0392V15.1013" stroke="#161924" stroke-width="1.5" stroke-linecap="round" stroke-linejoin="round"/>
<path d="M6.99609 14.0008V7.96931C6.9963 7.57907 7.07524 7.19287 7.22819 6.83384L8.01952 4.98307C8.27519 4.38459 8.86334 3.99643 9.51414 3.99665H17.4825C18.1353 3.99455 18.7261 4.38294 18.9831 4.98307L19.7744 6.83584C19.9259 7.19515 20.0031 7.58139 20.0015 7.97132V14.486" stroke="#161924" stroke-width="1.5" stroke-linecap="round" stroke-linejoin="round"/>
<path d="M12.9986 17.0021H15.3326C15.7655 17.0021 16.1867 16.8617 16.5331 16.6019L18.9501 14.7892C19.5535 14.3369 20.3977 14.397 20.9309 14.9302V14.9302C21.2152 15.2143 21.375 15.5998 21.375 16.0017C21.375 16.4036 21.2152 16.789 20.9309 17.0731L18.857 19.147C18.2984 19.7057 17.5869 20.0865 16.8122 20.2415L13.881 20.8277C13.2998 20.9439 12.7001 20.9295 12.1252 20.7857L9.47413 20.1234C9.15719 20.0435 8.83157 20.0032 8.50472 20.0034H6.99609" stroke="#161924" stroke-width="1.5" stroke-linecap="round" stroke-linejoin="round"/>
<path d="M12.9986 17.0021H14.4842C15.3213 17.0021 15.9998 16.3235 15.9998 15.4865V15.1863C15.9998 14.4912 15.5268 13.8852 14.8524 13.7167L12.5594 13.1435C12.1868 13.0495 11.8042 13.0014 11.4199 13.0004V13.0004C10.4923 13.0001 9.58542 13.2748 8.81385 13.7898L6.99609 15.0013" stroke="#161924" stroke-width="1.5" stroke-linecap="round" stroke-linejoin="round"/>
</svg>
