<svg width="24" height="24" viewBox="0 0 24 24" fill="none" xmlns="http://www.w3.org/2000/svg">
<path d="M2.99634 15.7516H5.33131C5.68508 15.7518 6.02444 15.6114 6.2747 15.3614V15.3614C6.52474 15.1111 6.66509 14.7718 6.66487 14.418V9.08179C6.66509 8.72802 6.52474 8.38866 6.2747 8.13839V8.13839C6.02444 7.88835 5.68508 7.748 5.33131 7.74823H3.00334" stroke="#161924" stroke-width="1.5" stroke-linecap="round" stroke-linejoin="round"/>
<path d="M20.997 7.74823H18.67C18.3162 7.748 17.9769 7.88835 17.7266 8.13839V8.13839C17.4766 8.38866 17.3362 8.72802 17.3364 9.08179V14.418C17.3362 14.7718 17.4766 15.1111 17.7266 15.3614V15.3614C17.9769 15.6114 18.3162 15.7518 18.67 15.7516H20.997" stroke="#161924" stroke-width="1.5" stroke-linecap="round" stroke-linejoin="round"/>
<rect x="2.99634" y="2.99622" width="18.0075" height="18.0075" rx="5" stroke="#161924" stroke-width="1.5" stroke-linecap="round" stroke-linejoin="round"/>
<path d="M17.3565 14.6481H16.4961C16.2099 14.6479 15.9271 14.7093 15.6668 14.8281L11.458 16.7449" stroke="#161924" stroke-width="1.5" stroke-linecap="round" stroke-linejoin="round"/>
<path d="M10.6446 8.66661C10.1385 8.36519 9.52482 8.30364 8.96893 8.49854L6.66797 9.32789" stroke="#161924" stroke-width="1.5" stroke-linecap="round" stroke-linejoin="round"/>
<path d="M17.4963 8.43451L14.6191 7.16798C14.0025 6.89662 13.2907 6.95377 12.7253 7.32004L10.1142 9.01175C9.72182 9.26607 9.46975 9.68816 9.43194 10.1542C9.39413 10.6203 9.57487 11.0775 9.92113 11.3917V11.3917C10.3706 11.7988 11.0202 11.8969 11.5698 11.6408L13.1265 10.9145" stroke="#161924" stroke-width="1.5" stroke-linecap="round" stroke-linejoin="round"/>
<path d="M13.1266 10.9135L13.9169 11.6308C14.3341 12.0088 14.5728 12.5451 14.5743 13.1082C14.5758 13.6712 14.3401 14.2088 13.9249 14.589L11.9071 16.4358C11.1454 17.133 9.97825 17.136 9.21294 16.4428L7.82636 15.1853C7.49705 14.8926 7.08033 14.7167 6.64087 14.6851" stroke="#161924" stroke-width="1.5" stroke-linecap="round" stroke-linejoin="round"/>
</svg>
