<svg width="24" height="24" viewBox="0 0 24 24" fill="none" xmlns="http://www.w3.org/2000/svg">
<path d="M1.99609 14.0009L4.5477 9.74819C4.84136 9.25874 5.26851 8.86318 5.77904 8.60792L6.36447 8.3152C6.78121 8.10684 7.24074 7.99835 7.70667 7.99835H8.99901" stroke="#161924" stroke-width="1.5" stroke-linecap="round" stroke-linejoin="round"/>
<path d="M10.2196 12.7803C9.46977 12.4207 8.99449 11.661 8.99906 10.8295V4.99705C8.99906 3.89202 9.89489 2.99622 10.9999 2.99622H20.0037C21.1087 2.99622 22.0045 3.89202 22.0045 4.99705V10.9995C22.0045 12.1046 21.1087 13.0004 20.0037 13.0004H14.6496" stroke="#161924" stroke-width="1.5" stroke-linecap="round" stroke-linejoin="round"/>
<path d="M9.02051 4.78257L13.9021 7.5971C14.8299 8.13205 15.9725 8.13205 16.9003 7.5971L21.9716 4.67316" stroke="#161924" stroke-width="1.5" stroke-linecap="round" stroke-linejoin="round"/>
<path d="M3.99707 21.0037L9.76134 18.9209C10.5659 18.6301 11.2561 18.0893 11.7307 17.3775L14.7248 12.8877C15.1603 12.2347 15.0743 11.3651 14.5192 10.81V10.81C13.8764 10.1672 12.8341 10.1671 12.1911 10.8098L9.99957 13.0004H7.99874" stroke="#161924" stroke-width="1.5" stroke-linecap="round" stroke-linejoin="round"/>
</svg>
