<svg width="24" height="24" viewBox="0 0 24 24" fill="none" xmlns="http://www.w3.org/2000/svg">
<path d="M3.49658 5.49731L5.57945 11.2616C5.87016 12.0661 6.41105 12.7563 7.12276 13.2309L11.6126 16.2251C12.2657 16.6606 13.1353 16.5745 13.6903 16.0195V16.0195C14.3332 15.3766 14.3333 14.3343 13.6905 13.6913L11.4999 11.4998V9.49898" stroke="#161924" stroke-width="1.5" stroke-linecap="round" stroke-linejoin="round"/>
<path d="M10.4995 3.49646L14.7522 6.04806C15.2416 6.34173 15.6372 6.76888 15.8924 7.27942L16.1852 7.86485C16.3935 8.28159 16.502 8.74112 16.502 9.20705V11.4998" stroke="#161924" stroke-width="1.5" stroke-linecap="round" stroke-linejoin="round"/>
<path d="M11.5001 11.4998H18.0028C18.6662 11.4998 19.3023 11.7633 19.7713 12.2323C20.2404 12.7013 20.5039 13.3375 20.5039 14.0008V18.0025C20.5039 18.6658 20.2404 19.3019 19.7713 19.771C19.3023 20.24 18.6662 20.5035 18.0028 20.5035H8.99909C8.33577 20.5035 7.69962 20.24 7.23059 19.771C6.76155 19.3019 6.49805 18.6658 6.49805 18.0025V12.7134" stroke="#161924" stroke-width="1.5" stroke-linecap="round" stroke-linejoin="round"/>
</svg>
