<svg width="24" height="24" viewBox="0 0 24 24" fill="none" xmlns="http://www.w3.org/2000/svg">
<path d="M3 16L5.55054 11.7491C5.84409 11.2599 6.27106 10.8645 6.78138 10.6093L7.36657 10.3167C7.78314 10.1084 8.24247 10 8.70821 10H10" stroke="#161924" stroke-width="1.5" stroke-linecap="round" stroke-linejoin="round"/>
<path d="M15 3.5H13C11.3431 3.5 10 4.84315 10 6.5V15" stroke="#161924" stroke-width="1.5" stroke-linecap="round" stroke-linejoin="round"/>
<path d="M20.5 9V16C20.5 17.6569 19.1569 19 17.5 19H13" stroke="#161924" stroke-width="1.5" stroke-linecap="round" stroke-linejoin="round"/>
<path d="M18.001 6L20.9998 3" stroke="#161924" stroke-width="1.5" stroke-linecap="round" stroke-linejoin="round"/>
<path d="M20.9988 6L18 3" stroke="#161924" stroke-width="1.5" stroke-linecap="round" stroke-linejoin="round"/>
<path d="M8 22.0001L10.8084 20.9263C11.5836 20.6299 12.2474 20.0998 12.7078 19.4093L15.7233 14.8874C16.1586 14.2347 16.0726 13.3654 15.5178 12.8106V12.8106C14.8752 12.168 13.8333 12.1679 13.1906 12.8104L11 15.0001H9" stroke="#161924" stroke-width="1.5" stroke-linecap="round" stroke-linejoin="round"/>
</svg>
