<svg width="24" height="24" viewBox="0 0 24 24" fill="none" xmlns="http://www.w3.org/2000/svg">
<path d="M7.99805 2.99622L12.2507 5.54782C12.7402 5.84149 13.1357 6.26864 13.391 6.77917L13.6837 7.36461C13.8921 7.78134 14.0005 8.24088 14.0005 8.7068V10.4993" stroke="#161924" stroke-width="1.5" stroke-linecap="round" stroke-linejoin="round"/>
<path d="M7.49805 14.6489V18.0025C7.49805 19.6601 8.84175 21.0038 10.4993 21.0038H19.0028C20.6604 21.0038 22.0041 19.6601 22.0041 18.0025V13.5006C22.0041 11.8431 20.6604 10.4994 19.0028 10.4994H8.99867" stroke="#161924" stroke-width="1.5" stroke-linecap="round" stroke-linejoin="round"/>
<path d="M8.99901 8.99874V10.9996L11.1896 13.191C11.788 13.7897 11.835 14.7445 11.2982 15.399C10.7615 16.0535 9.81599 16.1944 9.11176 15.7248L4.62189 12.7307C3.91015 12.2561 3.36925 11.5659 3.07854 10.7613L1.99609 7.76562" stroke="#161924" stroke-width="1.5" stroke-linecap="round" stroke-linejoin="round"/>
<path d="M11.6172 13.9366L14.0847 15.378C14.5075 15.625 15.0306 15.625 15.4534 15.378L21.5044 11.8432" stroke="#161924" stroke-width="1.5" stroke-linecap="round" stroke-linejoin="round"/>
</svg>
