<svg width="24" height="24" viewBox="0 0 24 24" fill="none" xmlns="http://www.w3.org/2000/svg">
<path d="M9 9.00006V11.0001L11.1897 13.1906C11.7878 13.789 11.8348 14.7434 11.2983 15.3976C10.7618 16.0518 9.81663 16.1927 9.1127 15.7233L4.6247 12.7305C3.91326 12.2561 3.37258 11.5661 3.082 10.7619L2 7.76746" stroke="#161924" stroke-width="1.5" stroke-linecap="round" stroke-linejoin="round"/>
<path d="M8 3L12.2509 5.55054C12.7401 5.84409 13.1355 6.27106 13.3907 6.78138L13.6833 7.36657C13.8916 7.78314 14 8.24247 14 8.70821V10" stroke="#161924" stroke-width="1.5" stroke-linecap="round" stroke-linejoin="round"/>
<path d="M20.5 14V13C20.5 11.3431 19.1569 10 17.5 10H9" stroke="#161924" stroke-width="1.5" stroke-linecap="round" stroke-linejoin="round"/>
<path d="M14 20.5H9C7.34315 20.5 6 19.1569 6 17.5V13.6476" stroke="#161924" stroke-width="1.5" stroke-linecap="round" stroke-linejoin="round"/>
<path d="M20.9988 18L18 21" stroke="#161924" stroke-width="1.5" stroke-linecap="round" stroke-linejoin="round"/>
<path d="M18.001 18L20.9998 21" stroke="#161924" stroke-width="1.5" stroke-linecap="round" stroke-linejoin="round"/>
</svg>
