<svg width="24" height="24" viewBox="0 0 24 24" fill="none" xmlns="http://www.w3.org/2000/svg">
<path d="M8 3L12.2509 5.55054C12.7401 5.84409 13.1355 6.27106 13.3907 6.78138L13.6833 7.36657C13.8916 7.78314 14 8.24247 14 8.70821V10" stroke="#161924" stroke-width="1.5" stroke-linecap="round" stroke-linejoin="round"/>
<path d="M20.5 15V13C20.5 11.3431 19.1569 10 17.5 10H9" stroke="#161924" stroke-width="1.5" stroke-linecap="round" stroke-linejoin="round"/>
<path d="M20.3301 18.5L18.7678 20L17.8301 19.1002" stroke="#161924" stroke-width="1.5" stroke-linecap="round" stroke-linejoin="round"/>
<path d="M15 20.4999H9C7.34315 20.4999 6 19.1568 6 17.4999V13.6475" stroke="#161924" stroke-width="1.5" stroke-linecap="round" stroke-linejoin="round"/>
<path d="M2 8L3.07381 10.8084C3.37019 11.5836 3.90032 12.2474 4.59075 12.7078L9.11264 15.7233C9.76539 16.1586 10.6347 16.0726 11.1895 15.5178V15.5178C11.8321 14.8752 11.8322 13.8333 11.1897 13.1906L9 11V9" stroke="#161924" stroke-width="1.5" stroke-linecap="round" stroke-linejoin="round"/>
</svg>
