<svg width="24" height="24" viewBox="0 0 24 24" fill="none" xmlns="http://www.w3.org/2000/svg">
<path fill-rule="evenodd" clip-rule="evenodd" d="M5.99734 21.0038H3.99651C3.44408 21.0036 2.99629 20.5558 2.99609 20.0033V14.0008C2.99629 13.4484 3.44408 13.0006 3.99651 13.0004H5.99734C6.54978 13.0006 6.99756 13.4484 6.99776 14.0008V20.0033C6.99756 20.5558 6.54978 21.0036 5.99734 21.0038V21.0038Z" stroke="#161924" stroke-width="1.5" stroke-linecap="round" stroke-linejoin="round"/>
<path d="M13.0005 17.0021H14.9614C15.3943 17.0023 15.8156 16.8619 16.1619 16.6019L18.5789 14.7892C19.1823 14.3369 20.0264 14.3971 20.5597 14.9302V14.9302C20.8441 15.2143 21.0039 15.5997 21.0039 16.0017C21.0039 16.4036 20.8441 16.7891 20.5597 17.0731L18.4858 19.147C17.9271 19.7055 17.2156 20.0863 16.441 20.2414L13.5098 20.8277C12.9286 20.9439 12.3289 20.9296 11.754 20.7857L9.10292 20.1234C8.78598 20.0435 8.46037 20.0032 8.13352 20.0033H6.99805" stroke="#161924" stroke-width="1.5" stroke-linecap="round" stroke-linejoin="round"/>
<path d="M13.0005 17.0021H14.4862C14.8882 17.0022 15.2737 16.8425 15.558 16.5583C15.8422 16.274 16.0019 15.8885 16.0018 15.4865V15.1833C16.002 14.4882 15.5288 13.8821 14.8543 13.7137L12.5614 13.1405C12.1887 13.0475 11.806 13.0004 11.4219 13.0004V13.0004C10.4943 13.0001 9.58738 13.2748 8.8158 13.7898L6.99805 15.0013" stroke="#161924" stroke-width="1.5" stroke-linecap="round" stroke-linejoin="round"/>
<path d="M19.2705 6.7301C20.2472 7.70682 20.2472 9.29039 19.2705 10.2671C18.2938 11.2438 16.7102 11.2438 15.7335 10.2671C14.7568 9.29039 14.7568 7.70682 15.7335 6.7301C16.2025 6.26106 16.8387 5.99756 17.502 5.99756C18.1653 5.99756 18.8015 6.26106 19.2705 6.7301" stroke="#161924" stroke-width="1.5" stroke-linecap="round" stroke-linejoin="round"/>
<path fill-rule="evenodd" clip-rule="evenodd" d="M6.93129 6.04457C6.35277 5.46605 6.35277 4.52809 6.93129 3.94957L8.45141 2.42945C9.02993 1.85093 9.96789 1.85093 10.5464 2.42945L12.0665 3.94957C12.645 4.52809 12.645 5.46605 12.0665 6.04457L10.5464 7.56469C9.96789 8.14321 9.02993 8.14321 8.45141 7.56469L6.93129 6.04457Z" stroke="#161924" stroke-width="1.5" stroke-linecap="round" stroke-linejoin="round"/>
</svg>
