<svg width="24" height="24" viewBox="0 0 24 24" fill="none" xmlns="http://www.w3.org/2000/svg">
<path d="M2.99658 16.0016L5.54818 11.749C5.84185 11.2595 6.26901 10.864 6.77954 10.6087L7.36497 10.316C7.78171 10.1076 8.24124 9.99915 8.70717 9.99915H9.9995" stroke="#161924" stroke-width="1.5" stroke-linecap="round" stroke-linejoin="round"/>
<path d="M17.0024 4.99707C18.1075 4.99707 19.0033 5.89287 19.0033 6.9979" stroke="#161924" stroke-width="1.5" stroke-linecap="round" stroke-linejoin="round"/>
<path d="M14.0012 3.49646H13.0008C11.3432 3.49646 9.99951 4.84017 9.99951 6.49771V15.0013" stroke="#161924" stroke-width="1.5" stroke-linecap="round" stroke-linejoin="round"/>
<path d="M20.5036 9.99915V16.0016C20.5036 17.6592 19.1599 19.0029 17.5024 19.0029H13.0005" stroke="#161924" stroke-width="1.5" stroke-linecap="round" stroke-linejoin="round"/>
<path d="M17.0024 1.99585C19.765 1.99585 22.0045 4.23536 22.0045 6.99793" stroke="#161924" stroke-width="1.5" stroke-linecap="round" stroke-linejoin="round"/>
<path d="M8.99873 15.0012H10.9996L13.191 12.8106C13.7897 12.2122 14.7445 12.1652 15.399 12.702C16.0535 13.2387 16.1944 14.1843 15.7248 14.8885L12.7307 19.3783C12.2561 20.0901 11.5659 20.631 10.7613 20.9217L7.76562 22.0041" stroke="#161924" stroke-width="1.5" stroke-linecap="round" stroke-linejoin="round"/>
</svg>
