<svg width="24" height="24" viewBox="0 0 24 24" fill="none" xmlns="http://www.w3.org/2000/svg">
<path d="M3 16L5.55054 11.7491C5.84409 11.2599 6.27106 10.8645 6.78138 10.6093L7.36657 10.3167C7.78314 10.1084 8.24247 10 8.70821 10H10" stroke="#161924" stroke-width="1.5" stroke-linecap="round" stroke-linejoin="round"/>
<path d="M15 3.5H13C11.3431 3.5 10 4.84315 10 6.5V15" stroke="#161924" stroke-width="1.5" stroke-linecap="round" stroke-linejoin="round"/>
<path d="M20.5 9V16C20.5 17.6569 19.1569 19 17.5 19H13" stroke="#161924" stroke-width="1.5" stroke-linecap="round" stroke-linejoin="round"/>
<path d="M9.00018 14.9999H11.0002L13.1907 12.8102C13.7891 12.2121 14.7435 12.1652 15.3978 12.7017C16.052 13.2382 16.1928 14.1833 15.7234 14.8872L12.7306 19.3752C12.2562 20.0867 11.5662 20.6274 10.762 20.9179L7.76758 21.9999" stroke="#161924" stroke-width="1.5" stroke-linecap="round" stroke-linejoin="round"/>
<path d="M18 2V3" stroke="#161924" stroke-width="1.5" stroke-linecap="round" stroke-linejoin="round"/>
<path d="M21 6H22" stroke="#161924" stroke-width="1.5" stroke-linecap="round" stroke-linejoin="round"/>
<path d="M20.2929 3.70707L21 2.99996" stroke="#161924" stroke-width="1.5" stroke-linecap="round" stroke-linejoin="round"/>
</svg>
