<svg width="24" height="24" viewBox="0 0 24 24" fill="none" xmlns="http://www.w3.org/2000/svg">
<path d="M21.0037 12C21.0037 16.9726 16.9726 21.0037 12 21.0037" stroke="#161924" stroke-width="1.5" stroke-linecap="round" stroke-linejoin="round"/>
<path d="M2.99609 12C2.99609 7.02736 7.02721 2.99625 11.9998 2.99625" stroke="#161924" stroke-width="1.5" stroke-linecap="round" stroke-linejoin="round"/>
<path d="M2.99609 12C2.99623 13.0546 3.18381 14.1009 3.55008 15.0899C3.71759 15.5492 4.18986 15.8228 4.67165 15.7396L5.65825 15.5656C6.45566 15.425 6.99772 14.6771 6.88321 13.8756L6.58627 11.797C6.52878 11.3946 6.31051 11.0327 5.98139 10.7942C5.65227 10.5556 5.24046 10.4608 4.84015 10.5314L3.07883 10.8419" stroke="#161924" stroke-width="1.5" stroke-linecap="round" stroke-linejoin="round"/>
<path d="M21.0037 12C21.0037 7.02736 16.9726 2.99625 12 2.99625" stroke="#161924" stroke-width="1.5" stroke-linecap="round" stroke-linejoin="round"/>
<path d="M21.0039 12C21.0038 13.0546 20.8162 14.1009 20.4499 15.0899C20.2824 15.5492 19.8102 15.8228 19.3284 15.7396L18.3418 15.5656C17.5444 15.425 17.0023 14.6771 17.1168 13.8756L17.4138 11.797C17.4713 11.3946 17.6895 11.0327 18.0186 10.7942C18.3478 10.5556 18.7596 10.4608 19.1599 10.5314L20.9212 10.8419" stroke="#161924" stroke-width="1.5" stroke-linecap="round" stroke-linejoin="round"/>
<path d="M13.4934 12.4912C13.4904 12.4912 13.4876 12.493 13.4865 12.4958C13.4853 12.4986 13.4859 12.5018 13.4881 12.5039C13.4902 12.5061 13.4934 12.5067 13.4962 12.5056C13.499 12.5044 13.5008 12.5017 13.5008 12.4987C13.501 12.4966 13.5002 12.4947 13.4988 12.4932C13.4974 12.4918 13.4954 12.4911 13.4934 12.4912" stroke="#161924" stroke-width="1.5" stroke-linecap="round" stroke-linejoin="round"/>
<path d="M10.507 12.4942C10.504 12.4942 10.5013 12.496 10.5001 12.4988C10.499 12.5016 10.4996 12.5048 10.5018 12.507C10.5039 12.5091 10.5071 12.5097 10.5099 12.5086C10.5127 12.5074 10.5145 12.5047 10.5145 12.5017C10.5146 12.4997 10.5139 12.4977 10.5125 12.4962C10.511 12.4948 10.5091 12.4941 10.507 12.4942" stroke="#161924" stroke-width="1.5" stroke-linecap="round" stroke-linejoin="round"/>
</svg>
