<svg width="24" height="24" viewBox="0 0 24 24" fill="none" xmlns="http://www.w3.org/2000/svg">
<path fill-rule="evenodd" clip-rule="evenodd" d="M16.0016 21.0037H7.9983C5.23615 21.0037 2.99622 18.7638 2.99622 16.0016V7.9983C2.99622 5.23615 5.23615 2.99622 7.9983 2.99622H16.0016C18.7638 2.99622 21.0037 5.23615 21.0037 7.9983V16.0016C21.0037 18.7638 18.7638 21.0037 16.0016 21.0037Z" stroke="#161924" stroke-width="1.5" stroke-linecap="round" stroke-linejoin="round"/>
<path d="M17.1721 15.0012V11.8229C17.1721 8.96672 14.8562 6.65076 12 6.65076V6.65076C9.14378 6.65076 6.82782 8.96672 6.82782 11.8229V15.0012" stroke="#161924" stroke-width="1.5" stroke-linecap="round" stroke-linejoin="round"/>
<path fill-rule="evenodd" clip-rule="evenodd" d="M8.41348 17.0021V17.0021C7.53812 17.0021 6.82782 16.2918 6.82782 15.4164V13.9898C6.82782 13.1145 7.53812 12.4042 8.41348 12.4042V12.4042C9.28884 12.4042 9.99914 13.1145 9.99914 13.9898V15.4164C9.99914 16.2918 9.28884 17.0021 8.41348 17.0021Z" stroke="#161924" stroke-width="1.5" stroke-linecap="round" stroke-linejoin="round"/>
<path fill-rule="evenodd" clip-rule="evenodd" d="M15.5865 17.0021V17.0021C14.7111 17.0021 14.0008 16.2918 14.0008 15.4164V13.9898C14.0008 13.1145 14.7111 12.4042 15.5865 12.4042V12.4042C16.4618 12.4042 17.1721 13.1145 17.1721 13.9898V15.4164C17.1721 16.2918 16.4618 17.0021 15.5865 17.0021Z" stroke="#161924" stroke-width="1.5" stroke-linecap="round" stroke-linejoin="round"/>
</svg>
