<svg width="24" height="24" viewBox="0 0 24 24" fill="none" xmlns="http://www.w3.org/2000/svg">
<path fill-rule="evenodd" clip-rule="evenodd" d="M6 21H4C3.448 21 3 20.552 3 20V14C3 13.448 3.448 13 4 13H6C6.552 13 7 13.448 7 14V20C7 20.552 6.552 21 6 21Z" stroke="#161924" stroke-width="1.5" stroke-linecap="round" stroke-linejoin="round"/>
<path d="M13 17H15.333C15.766 17 16.187 16.86 16.533 16.6L18.949 14.788C19.552 14.336 20.396 14.396 20.929 14.929V14.929C21.521 15.521 21.521 16.48 20.929 17.071L18.856 19.144C18.298 19.702 17.586 20.083 16.812 20.238L13.882 20.824C13.301 20.94 12.702 20.926 12.127 20.782L9.477 20.12C9.16 20.04 8.835 20 8.508 20H7" stroke="#161924" stroke-width="1.5" stroke-linecap="round" stroke-linejoin="round"/>
<path d="M13 17H14.485C15.322 17 16 16.322 16 15.485V15.182C16 14.487 15.527 13.881 14.853 13.713L12.561 13.14C12.188 13.047 11.806 13 11.422 13V13C10.495 13 9.588 13.274 8.817 13.789L7 15" stroke="#161924" stroke-width="1.5" stroke-linecap="round" stroke-linejoin="round"/>
<path fill-rule="evenodd" clip-rule="evenodd" d="M18.889 3.522C20.355 3.735 21.151 5.168 20.976 6.37C20.622 8.809 16.249 10.212 16.175 10.202C16.101 10.191 12.309 7.601 12.663 5.163C12.838 3.961 14.008 2.814 15.474 3.027C16.312 3.149 16.806 3.621 17.073 4.016C17.443 3.712 18.051 3.4 18.889 3.522V3.522Z" stroke="#161924" stroke-width="1.5" stroke-linecap="round" stroke-linejoin="round"/>
</svg>
