<svg width="24" height="24" viewBox="0 0 24 24" fill="none" xmlns="http://www.w3.org/2000/svg">
<path d="M19.8284 11.6856C21.3905 13.2477 21.3905 15.7804 19.8284 17.3425C18.2663 18.9046 15.7337 18.9046 14.1716 17.3425C12.6095 15.7804 12.6095 13.2477 14.1716 11.6856C15.7337 10.1235 18.2663 10.1235 19.8284 11.6856" stroke="#161924" stroke-width="1.5" stroke-linecap="round" stroke-linejoin="round"/>
<path d="M17 13.1801V15.8501" stroke="#161924" stroke-width="1.5" stroke-linecap="round" stroke-linejoin="round"/>
<path d="M18.33 14.51H15.67" stroke="#161924" stroke-width="1.5" stroke-linecap="round" stroke-linejoin="round"/>
<path d="M14.507 17.636C12.887 18.81 11.513 19.514 11.453 19.514C11.303 19.514 3 15.184 3 9.89596C3 7.28496 5.001 4.48596 7.978 4.48596C9.687 4.48596 10.805 5.34096 11.453 6.09196C12.101 5.34096 13.219 4.48596 14.928 4.48596C17.905 4.48596 19.906 7.28496 19.906 9.89596C19.906 10.446 19.799 10.982 19.637 11.507" stroke="#161924" stroke-width="1.5" stroke-linecap="round" stroke-linejoin="round"/>
</svg>
