<svg width="24" height="24" viewBox="0 0 24 24" fill="none" xmlns="http://www.w3.org/2000/svg">
<path d="M21.2703 8.98786L20.2402 9.32257" stroke="#161924" stroke-width="1.5" stroke-linecap="round" stroke-linejoin="round"/>
<path d="M3.75959 14.6775L2.72949 15.0121" stroke="#161924" stroke-width="1.5" stroke-linecap="round" stroke-linejoin="round"/>
<path d="M12 21.75V20.6667" stroke="#161924" stroke-width="1.5" stroke-linecap="round" stroke-linejoin="round"/>
<path d="M12 2.25V3.33333" stroke="#161924" stroke-width="1.5" stroke-linecap="round" stroke-linejoin="round"/>
<path d="M17.7253 19.8801L17.0892 19.0045" stroke="#161924" stroke-width="1.5" stroke-linecap="round" stroke-linejoin="round"/>
<path fill-rule="evenodd" clip-rule="evenodd" d="M11.7454 9.48704L12 9.74551L12.2546 9.48703C12.7187 9.01552 13.3527 8.75 14.0143 8.75C14.676 8.75 15.3099 9.01552 15.7741 9.48703V9.48703C16.7419 10.4816 16.7419 12.066 15.7741 13.0606L13.0773 15.7988C12.7931 16.0874 12.405 16.25 12 16.25C11.595 16.25 11.2069 16.0874 10.9227 15.7988L8.22591 13.0606C7.25803 12.0661 7.25803 10.4817 8.22591 9.48707V9.48707C8.69006 9.01556 9.32402 8.75003 9.98565 8.75003C10.6473 8.75002 11.2813 9.01553 11.7454 9.48704V9.48704Z" stroke="#161924" stroke-width="1.5" stroke-linecap="round" stroke-linejoin="round"/>
<path d="M6.27473 4.11989L6.91082 4.99547" stroke="#161924" stroke-width="1.5" stroke-linecap="round" stroke-linejoin="round"/>
<path d="M2.72949 8.98786L3.75959 9.32257" stroke="#161924" stroke-width="1.5" stroke-linecap="round" stroke-linejoin="round"/>
<path d="M21.2703 15.0121L20.2402 14.6774" stroke="#161924" stroke-width="1.5" stroke-linecap="round" stroke-linejoin="round"/>
<path d="M17.7253 4.11989L17.0892 4.99547" stroke="#161924" stroke-width="1.5" stroke-linecap="round" stroke-linejoin="round"/>
<path d="M6.27473 19.8801L6.91082 19.0045" stroke="#161924" stroke-width="1.5" stroke-linecap="round" stroke-linejoin="round"/>
</svg>
