<svg width="24" height="24" viewBox="0 0 24 24" fill="none" xmlns="http://www.w3.org/2000/svg">
<path fill-rule="evenodd" clip-rule="evenodd" d="M12 5.711C12.689 4.905 13.881 4 15.696 4C18.871 4 21 6.98 21 9.755C21 15.556 13.778 20 12 20C10.222 20 3 15.556 3 9.755C3 6.98 5.129 4 8.304 4C10.119 4 11.311 4.905 12 5.711Z" stroke="#161924" stroke-width="1.5" stroke-linecap="round" stroke-linejoin="round"/>
<path d="M12 14V11.5" stroke="#161924" stroke-width="1.5" stroke-linecap="round" stroke-linejoin="round"/>
<path d="M12.5303 10.2197C12.8232 10.5126 12.8232 10.9875 12.5303 11.2804C12.2374 11.5733 11.7626 11.5733 11.4697 11.2804C11.1768 10.9875 11.1768 10.5126 11.4697 10.2197C11.7626 9.92681 12.2374 9.92681 12.5303 10.2197" stroke="#161924" stroke-width="1.5" stroke-linecap="round" stroke-linejoin="round"/>
</svg>
