<svg width="24" height="24" viewBox="0 0 24 24" fill="none" xmlns="http://www.w3.org/2000/svg">
<path fill-rule="evenodd" clip-rule="evenodd" d="M9.07088 19.071H6.92887C5.82387 19.071 4.92887 18.176 4.92887 17.071V15.757C4.92887 15.227 4.71788 14.718 4.34288 14.343L3.41387 13.414C2.63287 12.633 2.63287 11.367 3.41387 10.586L4.34288 9.657C4.71788 9.282 4.92887 8.773 4.92887 8.243V6.929C4.92887 5.824 5.82387 4.929 6.92887 4.929H8.24288C8.77288 4.929 9.28188 4.718 9.65688 4.343L10.5859 3.414C11.3669 2.633 12.6329 2.633 13.4139 3.414L14.3429 4.343C14.7179 4.718 15.2269 4.929 15.7569 4.929H17.0709C18.1759 4.929 19.0709 5.824 19.0709 6.929V8.243C19.0709 8.773 19.2819 9.282 19.6569 9.657L20.5859 10.586C21.3669 11.367 21.3669 12.633 20.5859 13.414L19.6569 14.343C19.2819 14.718 19.0709 15.227 19.0709 15.757V17.071C19.0709 18.176 18.1759 19.071 17.0709 19.071H15.7569C15.2269 19.071 14.7179 19.282 14.3429 19.657L13.4139 20.586C12.6329 21.367 11.3669 21.367 10.5859 20.586L9.07088 19.071Z" stroke="#161924" stroke-width="1.5" stroke-linecap="round" stroke-linejoin="round"/>
<path fill-rule="evenodd" clip-rule="evenodd" d="M13.643 8.97101C15.054 8.97101 16 10.286 16 11.51C16 13.995 12.071 16.03 12 16.03C11.929 16.03 8 13.995 8 11.51C8 10.286 8.946 8.97101 10.357 8.97101C11.164 8.97101 11.694 9.37001 12 9.72601C12.306 9.37001 12.836 8.97101 13.643 8.97101V8.97101Z" stroke="#161924" stroke-width="1.5" stroke-linecap="round" stroke-linejoin="round"/>
</svg>
