<svg width="24" height="24" viewBox="0 0 24 24" fill="none" xmlns="http://www.w3.org/2000/svg">
<path d="M12.1797 8V11.43" stroke="#161924" stroke-width="1.5" stroke-linecap="round" stroke-linejoin="round"/>
<path d="M12.1797 2V4.43" stroke="#161924" stroke-width="1.5" stroke-linecap="round" stroke-linejoin="round"/>
<path d="M12.1797 15V18.43" stroke="#161924" stroke-width="1.5" stroke-linecap="round" stroke-linejoin="round"/>
<path fill-rule="evenodd" clip-rule="evenodd" d="M13.1643 4C14.0103 4 14.5783 4.745 14.5783 5.439C14.5793 6.847 12.2223 8 12.1793 8C12.1363 8 9.7793 6.847 9.7793 5.439C9.7793 4.745 10.3473 4 11.1933 4C11.6773 4 11.9953 4.226 12.1793 4.428C12.3633 4.226 12.6803 4 13.1643 4Z" stroke="#161924" stroke-width="1.5" stroke-linecap="round" stroke-linejoin="round"/>
<path fill-rule="evenodd" clip-rule="evenodd" d="M13.1643 11C14.0103 11 14.5783 11.745 14.5783 12.439C14.5783 13.847 12.2213 15 12.1783 15C12.1353 15 9.77832 13.847 9.77832 12.439C9.77832 11.745 10.3463 11 11.1923 11C11.6763 11 11.9943 11.226 12.1783 11.428C12.3633 11.226 12.6803 11 13.1643 11Z" stroke="#161924" stroke-width="1.5" stroke-linecap="round" stroke-linejoin="round"/>
<path fill-rule="evenodd" clip-rule="evenodd" d="M13.1693 18C14.0093 18 14.5793 18.74 14.5793 19.44C14.5793 20.85 12.2193 22 12.1793 22C12.1393 22 9.7793 20.85 9.7793 19.44C9.7793 18.74 10.3493 18 11.1893 18C11.6793 18 11.9993 18.23 12.1793 18.43C12.3593 18.23 12.6793 18 13.1693 18Z" stroke="#161924" stroke-width="1.5" stroke-linecap="round" stroke-linejoin="round"/>
<path d="M19.5791 11.5V14.93" stroke="#161924" stroke-width="1.5" stroke-linecap="round" stroke-linejoin="round"/>
<path fill-rule="evenodd" clip-rule="evenodd" d="M20.5647 14.5C21.4107 14.5 21.9787 15.245 21.9787 15.939C21.9787 17.347 19.6217 18.5 19.5787 18.5C19.5357 18.5 17.1787 17.347 17.1787 15.939C17.1787 15.245 17.7467 14.5 18.5927 14.5C19.0767 14.5 19.3947 14.726 19.5787 14.928C19.7637 14.726 20.0807 14.5 20.5647 14.5V14.5Z" stroke="#161924" stroke-width="1.5" stroke-linecap="round" stroke-linejoin="round"/>
<path fill-rule="evenodd" clip-rule="evenodd" d="M20.5647 7.5C21.4107 7.5 21.9787 8.245 21.9787 8.939C21.9787 10.347 19.6217 11.5 19.5787 11.5C19.5357 11.5 17.1787 10.347 17.1787 8.939C17.1787 8.245 17.7467 7.5 18.5927 7.5C19.0767 7.5 19.3947 7.726 19.5787 7.928C19.7637 7.726 20.0807 7.5 20.5647 7.5V7.5Z" stroke="#161924" stroke-width="1.5" stroke-linecap="round" stroke-linejoin="round"/>
<path d="M19.5791 5V7.93" stroke="#161924" stroke-width="1.5" stroke-linecap="round" stroke-linejoin="round"/>
<path d="M4.41992 11.5V14.93" stroke="#161924" stroke-width="1.5" stroke-linecap="round" stroke-linejoin="round"/>
<path fill-rule="evenodd" clip-rule="evenodd" d="M3.43451 14.5C2.58851 14.5 2.02051 15.245 2.02051 15.939C2.02051 17.347 4.37751 18.5 4.42051 18.5C4.46351 18.5 6.82051 17.347 6.82051 15.939C6.82051 15.245 6.25251 14.5 5.40651 14.5C4.92251 14.5 4.60451 14.726 4.42051 14.928C4.23551 14.726 3.91851 14.5 3.43451 14.5Z" stroke="#161924" stroke-width="1.5" stroke-linecap="round" stroke-linejoin="round"/>
<path fill-rule="evenodd" clip-rule="evenodd" d="M3.43453 7.5C2.58753 7.5 2.01953 8.245 2.01953 8.939C2.01953 10.347 4.37653 11.5 4.41953 11.5C4.46253 11.5 6.81953 10.347 6.81953 8.939C6.81953 8.245 6.25153 7.5 5.40553 7.5C4.92153 7.5 4.60353 7.726 4.41953 7.928C4.23553 7.726 3.91853 7.5 3.43453 7.5V7.5Z" stroke="#161924" stroke-width="1.5" stroke-linecap="round" stroke-linejoin="round"/>
<path d="M4.41992 5V7.93" stroke="#161924" stroke-width="1.5" stroke-linecap="round" stroke-linejoin="round"/>
</svg>
