<svg width="24" height="24" viewBox="0 0 24 24" fill="none" xmlns="http://www.w3.org/2000/svg">
<path d="M21.0002 21L16.6602 16.66" stroke="#161924" stroke-width="1.5" stroke-linecap="round" stroke-linejoin="round"/>
<path d="M16.6568 5.34314C19.781 8.46733 19.781 13.5327 16.6568 16.6568C13.5327 19.781 8.46733 19.781 5.34314 16.6568C2.21895 13.5327 2.21895 8.46733 5.34314 5.34314C8.46733 2.21895 13.5327 2.21895 16.6568 5.34314" stroke="#161924" stroke-width="1.5" stroke-linecap="round" stroke-linejoin="round"/>
<path fill-rule="evenodd" clip-rule="evenodd" d="M12.5517 8.11099C13.8837 8.11099 14.7777 9.35199 14.7777 10.509C14.7777 12.856 11.0677 14.778 10.9997 14.778C10.9317 14.778 7.22168 12.856 7.22168 10.509C7.22168 9.35299 8.11568 8.11099 9.44768 8.11099C10.2097 8.11099 10.7097 8.48799 10.9997 8.82399C11.2887 8.48799 11.7897 8.11099 12.5517 8.11099V8.11099Z" stroke="#161924" stroke-width="1.5" stroke-linecap="round" stroke-linejoin="round"/>
</svg>
