<svg width="24" height="24" viewBox="0 0 24 24" fill="none" xmlns="http://www.w3.org/2000/svg">
<path d="M19.828 11.686C21.39 13.248 21.39 15.781 19.828 17.343C18.266 18.905 15.733 18.905 14.171 17.343C12.609 15.781 12.609 13.248 14.171 11.686C15.734 10.123 18.266 10.123 19.828 11.686" stroke="#161924" stroke-width="1.5" stroke-linecap="round" stroke-linejoin="round"/>
<path d="M17.944 13.571L16.056 15.459" stroke="#161924" stroke-width="1.5" stroke-linecap="round" stroke-linejoin="round"/>
<path d="M17.944 15.452L16.063 13.571" stroke="#161924" stroke-width="1.5" stroke-linecap="round" stroke-linejoin="round"/>
<path d="M14.507 17.636C12.887 18.81 11.513 19.514 11.453 19.514C11.303 19.514 3 15.184 3 9.89596C3 7.28496 5.001 4.48596 7.978 4.48596C9.687 4.48596 10.805 5.34096 11.453 6.09196C12.101 5.34096 13.219 4.48596 14.928 4.48596C17.905 4.48596 19.906 7.28496 19.906 9.89596C19.906 10.446 19.799 10.982 19.637 11.507" stroke="#161924" stroke-width="1.5" stroke-linecap="round" stroke-linejoin="round"/>
</svg>
