<svg width="24" height="24" viewBox="0 0 24 24" fill="none" xmlns="http://www.w3.org/2000/svg">
<path d="M4.5 9H3" stroke="#161924" stroke-width="1.5" stroke-linecap="round" stroke-linejoin="round"/>
<path d="M4.5 15H3" stroke="#161924" stroke-width="1.5" stroke-linecap="round" stroke-linejoin="round"/>
<path d="M4 12H2" stroke="#161924" stroke-width="1.5" stroke-linecap="round" stroke-linejoin="round"/>
<path d="M5.63574 5.636C8.20972 3.06202 12.0808 2.29201 15.4439 3.68504C18.8069 5.07807 20.9997 8.3598 20.9997 12C20.9997 15.6401 18.8069 18.9218 15.4439 20.3149C12.0808 21.7079 8.20972 20.9379 5.63574 18.3639" stroke="#161924" stroke-width="1.5" stroke-linecap="round" stroke-linejoin="round"/>
<path fill-rule="evenodd" clip-rule="evenodd" d="M11.7739 9.90748L12 10.1371L12.2261 9.90745C12.6376 9.48699 13.201 9.25 13.7893 9.25C14.3776 9.25 14.9411 9.48699 15.3525 9.90745V9.90745C16.2158 10.7895 16.2158 12.1999 15.3525 13.0819L13.2374 15.2296C12.9117 15.5624 12.4657 15.75 12 15.75C11.5343 15.75 11.0882 15.5624 10.7625 15.2296L8.6475 13.082C7.78417 12.1999 7.78417 10.7896 8.6475 9.90748V9.90748C9.05894 9.48701 9.62241 9.25002 10.2107 9.25002C10.799 9.25002 11.3625 9.48701 11.7739 9.90748Z" stroke="#161924" stroke-width="1.5" stroke-linecap="round" stroke-linejoin="round"/>
</svg>
