<svg width="24" height="24" viewBox="0 0 24 24" fill="none" xmlns="http://www.w3.org/2000/svg">
<path d="M15.0592 8.97899C12.9152 7.69199 10.3032 8.77799 9.22224 10.595C7.01424 14.278 11.1732 20.87 11.2902 20.934" stroke="#161924" stroke-width="1.5" stroke-linecap="round" stroke-linejoin="round"/>
<path d="M20.05 11.969C22.194 13.256 22.466 16.066 21.375 17.88C19.17 21.554 11.397 20.995 11.29 20.934" stroke="#161924" stroke-width="1.5" stroke-linecap="round" stroke-linejoin="round"/>
<path d="M16.8826 11.59C16.7326 10.789 16.2756 9.715 15.0586 8.979" stroke="#161924" stroke-width="1.5" stroke-linecap="round" stroke-linejoin="round"/>
<path d="M16.8828 11.59C17.6598 11.34 18.8228 11.23 20.0498 11.969" stroke="#161924" stroke-width="1.5" stroke-linecap="round" stroke-linejoin="round"/>
<path d="M14.0829 8.563C14.3939 7.715 14.5039 6.841 14.3019 6.005C13.8559 4.186 11.9469 2.58 9.79586 3.099C8.56886 3.399 7.89986 4.189 7.56686 4.822C6.96686 4.404 6.01686 4.013 4.78886 4.313C2.63686 4.833 1.66086 7.126 2.10686 8.945C2.76486 11.676 6.59486 13.249 8.60186 13.874" stroke="#161924" stroke-width="1.5" stroke-linecap="round" stroke-linejoin="round"/>
</svg>
