<svg width="24" height="24" viewBox="0 0 24 24" fill="none" xmlns="http://www.w3.org/2000/svg">
<path d="M7.99835 17.5024L9.99919 19.5033L7.99835 21.5041" stroke="#161924" stroke-width="1.5" stroke-linecap="round" stroke-linejoin="round"/>
<path d="M9.99914 19.5031H3.99664" stroke="#161924" stroke-width="1.5" stroke-linecap="round" stroke-linejoin="round"/>
<path d="M13.9984 20.277C17.7387 19.4254 20.5285 16.2969 20.9478 12.4838C21.3672 8.67071 19.3239 5.01079 15.858 3.36671C12.3921 1.72264 8.26501 2.45567 5.57724 5.19274C2.88948 7.92981 2.23158 12.0695 3.93837 15.505" stroke="#161924" stroke-width="1.5" stroke-linecap="round" stroke-linejoin="round"/>
<path fill-rule="evenodd" clip-rule="evenodd" d="M13.2445 14.8862C12.9144 15.2162 12.4667 15.4017 12 15.4017V15.4017C11.5332 15.4017 11.0856 15.2162 10.7555 14.8862L8.64659 12.7774C8.08561 12.2186 7.86584 11.4027 8.07027 10.6378C8.2747 9.87284 8.87217 9.27537 9.63711 9.07094C10.402 8.86652 11.2179 9.08628 11.7767 9.64726L12 9.87055L12.2233 9.64726C12.782 9.08628 13.5979 8.86652 14.3629 9.07094C15.1278 9.27537 15.7253 9.87284 15.9297 10.6378C16.1341 11.4027 15.9144 12.2186 15.3534 12.7774L13.2445 14.8862Z" stroke="#161924" stroke-width="1.5" stroke-linecap="round" stroke-linejoin="round"/>
</svg>
