<svg width="24" height="24" viewBox="0 0 24 24" fill="none" xmlns="http://www.w3.org/2000/svg">
<path fill-rule="evenodd" clip-rule="evenodd" d="M12.2597 9.12394C13.123 8.27916 14.5077 8.29419 15.3525 9.15752V9.15752C16.2158 10.0396 16.2158 11.45 15.3525 12.332L13.2375 14.4796L13.2109 14.5061C12.5275 15.1749 11.4314 15.163 10.7626 14.4796L8.6475 12.332C7.78417 11.4499 7.78417 10.0396 8.6475 9.15753V9.15753L8.68106 9.12397C9.09563 8.71828 9.65438 8.4939 10.2344 8.50019C10.8144 8.50649 11.3682 8.74294 11.7738 9.15753L12 9.3871L12.2261 9.15751L12.2597 9.12394Z" stroke="#161924" stroke-width="1.5" stroke-linecap="round" stroke-linejoin="round"/>
<path fill-rule="evenodd" clip-rule="evenodd" d="M17.6569 5.35098V5.35098C20.781 8.48993 20.781 13.5635 17.6569 16.7025V16.7025L14.345 20.0254C13.056 21.3205 10.9612 21.3255 9.66603 20.0365L9.65503 20.0254L6.34313 16.7025C3.21898 13.5635 3.21895 8.48998 6.34307 5.35098V5.35098C9.45255 2.22678 14.5059 2.21485 17.6301 5.32433L17.6568 5.35098H17.6569Z" stroke="#161924" stroke-width="1.5" stroke-linecap="round" stroke-linejoin="round"/>
</svg>
