<svg width="24" height="24" viewBox="0 0 24 24" fill="none" xmlns="http://www.w3.org/2000/svg">
<path d="M19.5596 7.11899C21.4796 10.089 21.4786 13.913 19.5606 16.882" stroke="#161924" stroke-width="1.5" stroke-linecap="round" stroke-linejoin="round"/>
<path d="M15.548 8.45245C17.5072 10.4117 17.5072 13.5883 15.548 15.5476C13.5887 17.5068 10.4121 17.5068 8.45284 15.5476C6.49358 13.5883 6.49358 10.4117 8.45284 8.45245C10.4121 6.49319 13.5887 6.49319 15.548 8.45245" stroke="#161924" stroke-width="1.5" stroke-linecap="round" stroke-linejoin="round"/>
<path d="M14.3213 7.551L16.9053 4.412C17.2813 3.955 17.9693 3.922 18.3883 4.34L19.6613 5.613C20.0803 6.032 20.0463 6.72 19.5893 7.096L16.4503 9.68" stroke="#161924" stroke-width="1.5" stroke-linecap="round" stroke-linejoin="round"/>
<path d="M9.67862 16.449L7.09462 19.588C6.71862 20.045 6.03062 20.078 5.61162 19.66L4.33862 18.387C3.91962 17.968 3.95362 17.28 4.41062 16.904L7.54962 14.32" stroke="#161924" stroke-width="1.5" stroke-linecap="round" stroke-linejoin="round"/>
<path d="M7.5512 9.67899L4.4112 7.09499C3.9542 6.71899 3.9212 6.03099 4.3392 5.61199L5.6122 4.33899C6.0312 3.91999 6.7192 3.95399 7.0952 4.41099L9.6792 7.54999" stroke="#161924" stroke-width="1.5" stroke-linecap="round" stroke-linejoin="round"/>
<path d="M16.4493 14.321L19.5883 16.905C20.0453 17.281 20.0783 17.969 19.6603 18.388L18.3873 19.661C17.9683 20.08 17.2803 20.046 16.9043 19.589L14.3203 16.45" stroke="#161924" stroke-width="1.5" stroke-linecap="round" stroke-linejoin="round"/>
<path d="M16.8821 19.561C13.9131 21.479 10.0881 21.48 7.11914 19.56" stroke="#161924" stroke-width="1.5" stroke-linecap="round" stroke-linejoin="round"/>
<path d="M4.43875 7.11801C2.52075 10.087 2.51975 13.911 4.43975 16.881" stroke="#161924" stroke-width="1.5" stroke-linecap="round" stroke-linejoin="round"/>
<path d="M16.8812 4.43999C13.9112 2.51999 10.0872 2.52099 7.11816 4.43899" stroke="#161924" stroke-width="1.5" stroke-linecap="round" stroke-linejoin="round"/>
</svg>
