<svg width="24" height="24" viewBox="0 0 24 24" fill="none" xmlns="http://www.w3.org/2000/svg">
<path d="M8 21V15C8 14.4477 8.44772 14 9 14H10" stroke="#161924" stroke-width="1.5" stroke-linecap="round" stroke-linejoin="round"/>
<path d="M2 10.5803L9.6984 3.9815C10.4474 3.3395 11.5526 3.3395 12.3016 3.9815L20 10.5803" stroke="#161924" stroke-width="1.5" stroke-linecap="round" stroke-linejoin="round"/>
<path d="M9 21H2" stroke="#161924" stroke-width="1.5" stroke-linecap="round" stroke-linejoin="round"/>
<path d="M3.28564 9.47839V21" stroke="#161924" stroke-width="1.5" stroke-linecap="round" stroke-linejoin="round"/>
<path d="M14.6235 5.97183V3.75C14.6235 3.33579 14.9593 3 15.3735 3H17.9644C18.3787 3 18.7144 3.33579 18.7144 3.75V9.4784" stroke="#161924" stroke-width="1.5" stroke-linecap="round" stroke-linejoin="round"/>
<path fill-rule="evenodd" clip-rule="evenodd" d="M19 20.5H15V21C15 21.5523 14.5523 22 14 22H13C12.4477 22 12 21.5523 12 21V19.25C12 18.2835 12.7835 17.5 13.75 17.5H20.25C21.2165 17.5 22 18.2835 22 19.25V21C22 21.5523 21.5523 22 21 22H20C19.4477 22 19 21.5523 19 21V20.5Z" stroke="#161924" stroke-width="1.5" stroke-linecap="round" stroke-linejoin="round"/>
<path d="M13.1392 17.6157L13.7141 15.1583C13.8728 14.4798 14.4778 14 15.1746 14H18.8251C19.5219 14 20.127 14.4798 20.2857 15.1583L20.8606 17.6157" stroke="#161924" stroke-width="1.5" stroke-linecap="round" stroke-linejoin="round"/>
<path d="M13.2391 17.1225L12 16.5" stroke="#161924" stroke-width="1.5" stroke-linecap="round" stroke-linejoin="round"/>
<path d="M20.7607 17.1225L21.9999 16.5" stroke="#161924" stroke-width="1.5" stroke-linecap="round" stroke-linejoin="round"/>
</svg>
