<svg width="24" height="24" viewBox="0 0 24 24" fill="none" xmlns="http://www.w3.org/2000/svg">
<path d="M18.364 5.63604C21.8787 9.15076 21.8787 14.8492 18.364 18.3639C14.8493 21.8787 9.1508 21.8787 5.6361 18.3639C2.12138 14.8492 2.12138 9.15074 5.6361 5.63604C9.15082 2.12132 14.8493 2.12132 18.364 5.63604" stroke="#161924" stroke-width="1.5" stroke-linecap="round" stroke-linejoin="round"/>
<path fill-rule="evenodd" clip-rule="evenodd" d="M15.664 9.40395L12.573 7.23995C12.229 6.99895 11.77 6.99895 11.426 7.23995L8.336 9.40295C8.068 9.58995 7.909 9.89595 7.909 10.223V15C7.909 15.552 8.357 16 8.909 16H15.091C15.643 16 16.091 15.552 16.091 15V10.223C16.091 9.89695 15.932 9.59095 15.664 9.40395V9.40395Z" stroke="#161924" stroke-width="1.5" stroke-linecap="round" stroke-linejoin="round"/>
</svg>
