<svg width="24" height="24" viewBox="0 0 24 24" fill="none" xmlns="http://www.w3.org/2000/svg">
<path d="M20.0031 10.5454V21.0037" stroke="#161924" stroke-width="1.5" stroke-linecap="round" stroke-linejoin="round"/>
<path d="M22.0044 12L12.6255 5.18216C12.2754 4.92866 11.8021 4.92866 11.452 5.18216L1.99609 12" stroke="#161924" stroke-width="1.5" stroke-linecap="round" stroke-linejoin="round"/>
<path d="M19.5036 9.74207V4.49688C19.5036 4.22062 19.2797 3.99667 19.0034 3.99667H16.0022C15.7259 3.99667 15.502 4.22062 15.502 4.49688V7.10697" stroke="#161924" stroke-width="1.5" stroke-linecap="round" stroke-linejoin="round"/>
<path d="M22.0044 21.0037H1.99609" stroke="#161924" stroke-width="1.5" stroke-linecap="round" stroke-linejoin="round"/>
<path d="M3.9963 10.5574V21.0038" stroke="#161924" stroke-width="1.5" stroke-linecap="round" stroke-linejoin="round"/>
<rect x="13.501" y="15.0013" width="4.00167" height="3.00125" rx="0.5" stroke="#161924" stroke-width="1.5" stroke-linecap="round" stroke-linejoin="round"/>
<path d="M6.99805 21.0038V15.5015C6.99805 15.2252 7.222 15.0013 7.49826 15.0013H9.9993C10.2756 15.0013 10.4995 15.2252 10.4995 15.5015V21.0038" stroke="#161924" stroke-width="1.5" stroke-linecap="round" stroke-linejoin="round"/>
</svg>
