<svg width="24" height="24" viewBox="0 0 24 24" fill="none" xmlns="http://www.w3.org/2000/svg">
<path fill-rule="evenodd" clip-rule="evenodd" d="M19.8452 8.29755L13.8427 3.62861C12.759 2.78526 11.241 2.78526 10.1572 3.62861L4.1547 8.29755C3.42349 8.866 2.99591 9.74037 2.99622 10.6665V18.0026C2.99622 18.7986 3.31235 19.562 3.87521 20.1249C4.43806 20.6877 5.20147 21.0038 5.99747 21.0038H18.0025C18.7985 21.0038 19.5619 20.6877 20.1247 20.1249C20.6876 19.562 21.0037 18.7986 21.0037 18.0026V10.6665C21.004 9.74037 20.5764 8.866 19.8452 8.29755Z" stroke="#161924" stroke-width="1.5" stroke-linecap="round" stroke-linejoin="round"/>
<path d="M16.2518 14.0009C16.2518 14.1391 16.1398 14.251 16.0017 14.251C15.8635 14.251 15.7516 14.1391 15.7516 14.0009C15.7516 13.8628 15.8635 13.7508 16.0017 13.7508" stroke="#161924" stroke-width="1.5" stroke-linecap="round" stroke-linejoin="round"/>
<path d="M16.0017 13.7509C16.1398 13.7509 16.2518 13.8629 16.2518 14.001" stroke="#161924" stroke-width="1.5" stroke-linecap="round" stroke-linejoin="round"/>
<path d="M12.2501 14.0009C12.2501 14.1391 12.1381 14.251 12 14.251C11.8618 14.251 11.7499 14.1391 11.7499 14.0009C11.7499 13.8628 11.8618 13.7508 12 13.7508" stroke="#161924" stroke-width="1.5" stroke-linecap="round" stroke-linejoin="round"/>
<path d="M12 13.7509C12.1381 13.7509 12.2501 13.8629 12.2501 14.001" stroke="#161924" stroke-width="1.5" stroke-linecap="round" stroke-linejoin="round"/>
<path d="M8.24842 14.0009C8.24842 14.1391 8.13644 14.251 7.99832 14.251C7.86019 14.251 7.74821 14.1391 7.74821 14.0009C7.74821 13.8628 7.86019 13.7508 7.99832 13.7508" stroke="#161924" stroke-width="1.5" stroke-linecap="round" stroke-linejoin="round"/>
<path d="M7.99833 13.7509C8.13645 13.7509 8.24843 13.8629 8.24843 14.001" stroke="#161924" stroke-width="1.5" stroke-linecap="round" stroke-linejoin="round"/>
</svg>
