<svg width="24" height="24" viewBox="0 0 24 24" fill="none" xmlns="http://www.w3.org/2000/svg">
<path d="M18.2185 20.8627C19.8762 20.8627 21.2198 19.5192 21.2198 17.8615V10.5254C21.2198 9.59904 20.7926 8.72467 20.0613 8.15644L14.0588 3.48749C12.9753 2.64414 11.4577 2.64414 10.3733 3.48749L4.37076 8.15644C3.63946 8.72467 3.21228 9.59904 3.21228 10.5254V17.8615C3.21228 19.5192 4.55584 20.8627 6.21353 20.8627" stroke="#161924" stroke-width="1.5" stroke-linecap="round" stroke-linejoin="round"/>
<path d="M18.2185 20.8628H6.2135" stroke="#161924" stroke-width="1.5" stroke-linecap="round" stroke-linejoin="round"/>
<path d="M10.2152 10.8585V11.8589" stroke="#161924" stroke-width="1.5" stroke-linecap="round" stroke-linejoin="round"/>
<path d="M14.2169 10.8585V11.8589" stroke="#161924" stroke-width="1.5" stroke-linecap="round" stroke-linejoin="round"/>
<path d="M15.7175 15.5485C15.7175 15.5485 14.405 16.861 12.2161 16.861C10.0271 16.861 8.7146 15.5485 8.7146 15.5485" stroke="#161924" stroke-width="1.5" stroke-linecap="round" stroke-linejoin="round"/>
</svg>
