<svg width="24" height="24" viewBox="0 0 24 24" fill="none" xmlns="http://www.w3.org/2000/svg">
<path d="M5.31327 18.1146C4.87518 18.7646 4.89382 19.62 5.35981 20.2503C5.8258 20.8806 6.63817 21.1493 7.38806 20.921C8.13796 20.6928 8.6629 20.0171 8.69868 19.234" stroke="#161924" stroke-width="1.5" stroke-linecap="round" stroke-linejoin="round"/>
<path fill-rule="evenodd" clip-rule="evenodd" d="M10.6835 19.8903L3.68062 17.5743C3.27316 17.4412 2.99719 17.0616 2.99634 16.6329V15.3094C2.99719 14.8807 3.27316 14.5011 3.68062 14.368L10.6835 12.052C10.9871 11.9509 11.3208 12.0011 11.5812 12.1871C11.8416 12.3731 11.9973 12.6724 12.0001 12.9924V18.9499C11.9957 19.4993 11.5491 19.9423 10.9997 19.9423C10.8921 19.9427 10.7853 19.9251 10.6835 19.8903Z" stroke="#161924" stroke-width="1.5" stroke-linecap="round" stroke-linejoin="round"/>
<path d="M2.99634 10.9995V7.9983C2.99634 5.23572 5.23585 2.99622 7.99842 2.99622H16.0018C18.7643 2.99622 21.0038 5.23572 21.0038 7.9983V17.002C21.0038 19.2121 19.2122 21.0037 17.0022 21.0037H15.0013" stroke="#161924" stroke-width="1.5" stroke-linecap="round" stroke-linejoin="round"/>
</svg>
