<svg width="24" height="24" viewBox="0 0 24 24" fill="none" xmlns="http://www.w3.org/2000/svg">
<path fill-rule="evenodd" clip-rule="evenodd" d="M5.23889 18.734V18.734C4.12089 17.616 4.12089 15.804 5.23889 14.686L14.6849 5.24002C15.8029 4.12202 17.6149 4.12202 18.7329 5.24002V5.24002C19.8509 6.35802 19.8509 8.17002 18.7329 9.28802L9.28689 18.734C8.16889 19.852 6.35689 19.852 5.23889 18.734Z" stroke="#161924" stroke-width="1.5" stroke-linecap="round" stroke-linejoin="round"/>
<path d="M16.3158 7.319L15.9898 7.645L15.9888 7.646C15.7368 7.898 15.5418 8.205 15.4618 8.51V8.51V8.51C15.3028 9.119 14.6798 9.741 14.0718 9.9V9.9V9.9C13.4628 10.059 12.8408 10.682 12.6818 11.29V11.29V11.29C12.5228 11.899 11.8998 12.521 11.2918 12.68V12.68V12.68C10.6828 12.839 10.0608 13.462 9.9018 14.07V14.07V14.07C9.7428 14.679 9.1198 15.301 8.5118 15.46V15.46V15.46V15.46V15.46C8.2078 15.54 7.8998 15.735 7.6478 15.987L7.3208 16.314" stroke="#161924" stroke-width="1.5" stroke-linecap="round" stroke-linejoin="round"/>
<path fill-rule="evenodd" clip-rule="evenodd" d="M9.67905 20.475V20.475C9.09005 19.886 9.09005 18.931 9.67905 18.342L18.3421 9.67902C18.9311 9.09002 19.8851 9.09002 20.4741 9.67902V9.67902C20.6601 9.86502 20.7931 10.095 20.8621 10.348L20.8981 10.479C21.1681 11.47 20.8871 12.53 20.1601 13.257L13.2561 20.161C12.5301 20.887 11.4701 21.169 10.4791 20.899L10.3471 20.863C10.0951 20.794 9.86405 20.66 9.67905 20.475V20.475Z" stroke="#161924" stroke-width="1.5" stroke-linecap="round" stroke-linejoin="round"/>
<path fill-rule="evenodd" clip-rule="evenodd" d="M14.294 3.49801V3.49801C14.883 4.08701 14.883 5.04201 14.294 5.63101L5.62997 14.294C5.04097 14.883 4.08597 14.883 3.49697 14.294V14.294C3.31097 14.108 3.17797 13.878 3.10897 13.625V13.625C2.81597 12.553 3.12097 11.406 3.90697 10.62L10.618 3.90901C11.404 3.12301 12.551 2.81801 13.623 3.11101V3.11101C13.877 3.17801 14.108 3.31201 14.294 3.49801Z" stroke="#161924" stroke-width="1.5" stroke-linecap="round" stroke-linejoin="round"/>
</svg>
