<svg width="24" height="24" viewBox="0 0 24 24" fill="none" xmlns="http://www.w3.org/2000/svg">
<path fill-rule="evenodd" clip-rule="evenodd" d="M10.488 12.527L11.011 12.976C11.58 13.464 12.419 13.464 12.988 12.976L13.511 12.527C14.08 12.039 14.919 12.039 15.488 12.527V12.527C16.217 13.153 17.337 12.952 17.803 12.113L18.058 11.653C18.183 11.428 18.249 11.174 18.249 10.916V10.916C18.249 9.96601 17.479 9.19501 16.528 9.19501H7.471C6.521 9.19501 5.75 9.96501 5.75 10.916V10.916C5.75 11.174 5.816 11.428 5.941 11.653L6.196 12.113C6.663 12.953 7.782 13.153 8.511 12.527V12.527C9.08 12.039 9.92 12.039 10.488 12.527Z" stroke="#161924" stroke-width="1.2965" stroke-linecap="round" stroke-linejoin="round"/>
<path d="M18.0589 11.653L12.8739 20.986C12.4929 21.672 11.5069 21.672 11.1259 20.986L5.94092 11.653" stroke="#161924" stroke-width="1.2965" stroke-linecap="round" stroke-linejoin="round"/>
<path d="M7.088 9.23799C7.036 9.01599 7 8.78799 7 8.55099C7 6.82799 8.402 5.42599 10.125 5.42599C10.827 5.42599 11.468 5.66799 11.99 6.06099" stroke="#161924" stroke-width="1.2965" stroke-linecap="round" stroke-linejoin="round"/>
<path d="M16.912 9.23799C16.964 9.01599 17 8.78799 17 8.55099C17 6.82799 15.598 5.42599 13.875 5.42599C12.152 5.42599 10.75 6.82799 10.75 8.55099V9.19499" stroke="#161924" stroke-width="1.2965" stroke-linecap="round" stroke-linejoin="round"/>
<path d="M8.875 5.686V5.625C8.875 3.902 10.277 2.5 12 2.5C13.723 2.5 15.125 3.902 15.125 5.625V5.686" stroke="#161924" stroke-width="1.2965" stroke-linecap="round" stroke-linejoin="round"/>
</svg>
