<svg width="24" height="24" viewBox="0 0 24 24" fill="none" xmlns="http://www.w3.org/2000/svg">
<path d="M12 18V21" stroke="#161924" stroke-width="1.5" stroke-linecap="round" stroke-linejoin="round"/>
<path d="M8.68994 21H15.1999" stroke="#161924" stroke-width="1.5" stroke-linecap="round" stroke-linejoin="round"/>
<path fill-rule="evenodd" clip-rule="evenodd" d="M19.4931 10H4.50706C4.22206 10 3.98206 10.242 4.00106 10.529C4.27406 14.701 7.75106 18 12.0001 18C16.2491 18 19.7261 14.701 19.9991 10.529C20.0181 10.242 19.7781 10 19.4931 10V10Z" stroke="#161924" stroke-width="1.5" stroke-linecap="round" stroke-linejoin="round"/>
<path d="M10.5532 10C10.5532 8.006 12.1752 6.384 14.1692 6.384C16.1632 6.384 17.7852 8.006 17.7852 10" stroke="#161924" stroke-width="1.5" stroke-linecap="round" stroke-linejoin="round"/>
<path d="M8.39 6.39L6 4" stroke="#161924" stroke-width="1.5" stroke-linecap="round" stroke-linejoin="round"/>
<path d="M11.9888 7.118C11.3848 6.664 10.6438 6.384 9.83182 6.384C7.83782 6.384 6.21582 8.006 6.21582 10" stroke="#161924" stroke-width="1.5" stroke-linecap="round" stroke-linejoin="round"/>
<path d="M15.6158 6.616C15.6158 4.622 13.9938 3 11.9998 3C10.0058 3 8.38379 4.622 8.38379 6.616" stroke="#161924" stroke-width="1.5" stroke-linecap="round" stroke-linejoin="round"/>
</svg>
