<svg width="24" height="24" viewBox="0 0 24 24" fill="none" xmlns="http://www.w3.org/2000/svg">
<path d="M20.945 11.0508C20.5277 10.9874 20.1065 10.9537 19.6845 10.9499C17.14 10.9319 14.7156 12.0308 13.0522 13.9563C11.3887 15.8818 10.6535 18.44 11.0409 20.9549" stroke="#161924" stroke-width="1.5" stroke-linecap="round" stroke-linejoin="round"/>
<path fill-rule="evenodd" clip-rule="evenodd" d="M21.0037 12.0001V12.0001C21.0037 14.3881 20.0553 16.6783 18.3667 18.3669C16.6782 20.0554 14.388 21.0038 12 21.0038V21.0038C9.61198 21.0038 7.32175 20.0554 5.63319 18.3669C3.94463 16.6783 2.99622 14.3881 2.99622 12.0001V12.0001C2.99622 9.6121 3.94463 7.32187 5.63319 5.63331C7.32175 3.94475 9.61198 2.99634 12 2.99634V2.99634C14.388 2.99634 16.6782 3.94475 18.3667 5.63331C20.0553 7.32187 21.0037 9.6121 21.0037 12.0001Z" stroke="#161924" stroke-width="1.5" stroke-linecap="round" stroke-linejoin="round"/>
<path d="M10.179 9.29879C10.179 9.43692 10.067 9.5489 9.92886 9.5489C9.79073 9.5489 9.67875 9.43692 9.67875 9.29879C9.67875 9.16066 9.79073 9.04869 9.92886 9.04869" stroke="#161924" stroke-width="1.5" stroke-linecap="round" stroke-linejoin="round"/>
<path d="M9.92887 9.04874C10.067 9.04874 10.179 9.16072 10.179 9.29884" stroke="#161924" stroke-width="1.5" stroke-linecap="round" stroke-linejoin="round"/>
</svg>
