<svg width="24" height="24" viewBox="0 0 24 24" fill="none" xmlns="http://www.w3.org/2000/svg">
<path d="M8.67561 8.32212C8.77311 8.41987 8.77296 8.57814 8.67527 8.67571C8.57758 8.77327 8.41931 8.77322 8.32168 8.67559C8.22405 8.57797 8.224 8.4197 8.32157 8.32201C8.41913 8.22432 8.5774 8.22416 8.67515 8.32167L8.67561 8.32212" stroke="#161924" stroke-width="1.5" stroke-linecap="round" stroke-linejoin="round"/>
<path d="M21.0046 10.1115C17.997 9.64919 14.9491 10.6472 12.7974 12.7989C10.6458 14.9505 9.64776 17.9985 10.1101 21.006" stroke="#161924" stroke-width="1.5" stroke-linecap="round" stroke-linejoin="round"/>
<path fill-rule="evenodd" clip-rule="evenodd" d="M16.0017 2.99634H7.99833C5.23576 2.99634 2.99625 5.23585 2.99625 7.99842V16.0018C2.99625 18.7643 5.23576 21.0038 7.99833 21.0038H16.0017C18.7642 21.0038 21.0037 18.7643 21.0037 16.0018V7.99842C21.0037 5.23585 18.7642 2.99634 16.0017 2.99634Z" stroke="#161924" stroke-width="1.5" stroke-linecap="round" stroke-linejoin="round"/>
</svg>
