<svg width="24" height="24" viewBox="0 0 24 24" fill="none" xmlns="http://www.w3.org/2000/svg">
<path d="M21.0037 10.9997V17.0022C21.0037 19.2122 19.2121 21.0038 17.002 21.0038H6.99788C4.78782 21.0038 2.99622 19.2122 2.99622 17.0022V6.998C2.99622 4.78795 4.78782 2.99634 6.99788 2.99634H9.99913" stroke="#161924" stroke-width="1.5" stroke-linecap="round" stroke-linejoin="round"/>
<path d="M2.99622 13.0005L4.29192 11.7048C4.74425 11.2524 5.35776 10.9983 5.99747 10.9983C6.63716 10.9983 7.25067 11.2524 7.70301 11.7048L12 16.0017" stroke="#161924" stroke-width="1.5" stroke-linecap="round" stroke-linejoin="round"/>
<path d="M7.00092 21.0038L13.2987 14.706C14.2407 13.764 15.7678 13.764 16.7098 14.706L20.6506 18.6468" stroke="#161924" stroke-width="1.5" stroke-linecap="round" stroke-linejoin="round"/>
<path d="M15.0013 8.99884C13.3441 8.99782 12.001 7.65471 12 5.99759V5.99759C12.001 4.34047 13.3441 2.99736 15.0013 2.99634" stroke="#161924" stroke-width="1.5" stroke-linecap="round" stroke-linejoin="round"/>
<path d="M18.0025 2.99634C19.6596 2.99735 21.0027 4.34046 21.0038 5.99759V5.99759C21.0027 7.65471 19.6596 8.99782 18.0025 8.99884" stroke="#161924" stroke-width="1.5" stroke-linecap="round" stroke-linejoin="round"/>
<path d="M15.0012 5.99752H18.0025" stroke="#161924" stroke-width="1.5" stroke-linecap="round" stroke-linejoin="round"/>
</svg>
