<svg width="24" height="24" viewBox="0 0 24 24" fill="none" xmlns="http://www.w3.org/2000/svg">
<rect x="2.99622" y="2.99634" width="18.0075" height="18.0075" rx="5" stroke="#161924" stroke-width="1.5" stroke-linecap="round" stroke-linejoin="round"/>
<path d="M15.3244 8.32212L15.3248 8.32167C15.4226 8.22416 15.5808 8.22432 15.6784 8.32201C15.776 8.4197 15.7759 8.57797 15.6783 8.67559C15.5807 8.77322 15.4224 8.77327 15.3247 8.67571C15.227 8.57814 15.2269 8.41987 15.3244 8.32212" stroke="#161924" stroke-width="1.5" stroke-linecap="round" stroke-linejoin="round"/>
<path d="M21.0037 10.166V11.205C21.0037 12.4771 20.4984 13.6972 19.5988 14.5968C18.6992 15.4963 17.4791 16.0017 16.207 16.0017V16.0017C14.8067 16.0017 13.4763 15.3898 12.565 14.3266L9.02385 10.1953C8.37292 9.43585 7.42265 8.99878 6.42244 8.99878V8.99878C4.5302 8.99878 2.99622 10.5328 2.99622 12.425V14.8346" stroke="#161924" stroke-width="1.5" stroke-linecap="round" stroke-linejoin="round"/>
</svg>
