<svg width="24" height="24" viewBox="0 0 24 24" fill="none" xmlns="http://www.w3.org/2000/svg">
<path d="M11.6769 7.32114C11.7744 7.41888 11.7743 7.57712 11.6766 7.67469C11.579 7.77226 11.4207 7.77226 11.3231 7.67469C11.2254 7.57712 11.2253 7.41888 11.3228 7.32114C11.3697 7.2741 11.4334 7.24766 11.4998 7.24766C11.5663 7.24766 11.63 7.2741 11.6769 7.32114" stroke="#161924" stroke-width="1.5" stroke-linecap="round" stroke-linejoin="round"/>
<path d="M21.0038 8.52865C18.8509 8.19783 16.6613 8.82816 15.0139 10.253C13.3665 11.6778 12.4271 13.7537 12.4442 15.9317C12.447 16.2902 12.4758 16.6479 12.5302 17.0022" stroke="#161924" stroke-width="1.5" stroke-linecap="round" stroke-linejoin="round"/>
<path d="M6.99788 6.99805H5.99747C4.33992 6.99805 2.99622 8.34175 2.99622 9.9993V18.0026C2.99622 19.6602 4.33992 21.0039 5.99747 21.0039H14.0008C15.6583 21.0039 17.002 19.6602 17.002 18.0026V17.0022" stroke="#161924" stroke-width="1.5" stroke-linecap="round" stroke-linejoin="round"/>
<path fill-rule="evenodd" clip-rule="evenodd" d="M18.0025 2.99634H9.99917C8.34163 2.99634 6.99792 4.34004 6.99792 5.99759V14.0009C6.99792 15.6585 8.34163 17.0022 9.99917 17.0022H18.0025C19.6601 17.0022 21.0038 15.6585 21.0038 14.0009V5.99759C21.0038 4.34004 19.6601 2.99634 18.0025 2.99634Z" stroke="#161924" stroke-width="1.5" stroke-linecap="round" stroke-linejoin="round"/>
</svg>
