<svg width="24" height="24" viewBox="0 0 24 24" fill="none" xmlns="http://www.w3.org/2000/svg">
<path d="M23.2497 11.9999C23.2498 13.0383 22.9419 14.0534 22.365 14.9168C21.7882 15.7803 20.9682 16.4532 20.0088 16.8506C19.0495 17.248 17.9938 17.352 16.9754 17.1494C15.9569 16.9468 15.0214 16.4467 14.2872 15.7124L14.2563 15.6796L8.63595 9.33271C8.10976 8.81267 7.44152 8.45989 6.7153 8.31876C5.98908 8.17763 5.23734 8.25446 4.55469 8.53958C3.87204 8.82469 3.28897 9.30536 2.87886 9.92109C2.46875 10.5368 2.24993 11.2601 2.24993 11.9999C2.24993 12.7397 2.46875 13.463 2.87886 14.0787C3.28897 14.6944 3.87204 15.1751 4.55469 15.4602C5.23734 15.7453 5.98908 15.8222 6.7153 15.681C7.44152 15.5399 8.10976 15.1871 8.63595 14.6671L9.4347 13.7652C9.50001 13.6913 9.57923 13.6311 9.66784 13.5878C9.75645 13.5446 9.85271 13.5192 9.95113 13.5131C10.0495 13.5071 10.1482 13.5205 10.2414 13.5525C10.3347 13.5846 10.4207 13.6347 10.4945 13.7C10.5684 13.7654 10.6287 13.8446 10.6719 13.9332C10.7152 14.0218 10.7406 14.1181 10.7466 14.2165C10.7527 14.3149 10.7393 14.4135 10.7072 14.5068C10.6751 14.6 10.625 14.686 10.5597 14.7599L9.74501 15.6796L9.71408 15.7124C8.97983 16.4466 8.04437 16.9465 7.02598 17.1491C6.00759 17.3516 4.95202 17.2476 3.99274 16.8502C3.03346 16.4528 2.21355 15.7799 1.6367 14.9166C1.05985 14.0532 0.751953 13.0382 0.751953 11.9999C0.751953 10.9616 1.05985 9.94655 1.6367 9.08321C2.21355 8.21986 3.03346 7.54695 3.99274 7.14958C4.95202 6.7522 6.00759 6.6482 7.02598 6.85073C8.04437 7.05326 8.97983 7.55322 9.71408 8.28739L9.74501 8.32021L15.3653 14.6671C15.8915 15.1871 16.5598 15.5399 17.286 15.681C18.0122 15.8222 18.7639 15.7453 19.4466 15.4602C20.1292 15.1751 20.7123 14.6944 21.1224 14.0787C21.5325 13.463 21.7513 12.7397 21.7513 11.9999C21.7513 11.2601 21.5325 10.5368 21.1224 9.92109C20.7123 9.30536 20.1292 8.82469 19.4466 8.53958C18.7639 8.25446 18.0122 8.17763 17.286 8.31876C16.5598 8.45989 15.8915 8.81267 15.3653 9.33271L14.5666 10.2346C14.4347 10.3838 14.2489 10.4744 14.0501 10.4867C13.8514 10.4989 13.6559 10.4316 13.5067 10.2997C13.3575 10.1678 13.2669 9.98207 13.2547 9.78331C13.2424 9.58455 13.3097 9.38908 13.4416 9.23989L14.2563 8.32021L14.2872 8.28739C15.0214 7.55309 15.9569 7.05302 16.9754 6.85041C17.9938 6.64781 19.0495 6.75178 20.0088 7.14917C20.9682 7.54656 21.7882 8.21952 22.365 9.08295C22.9419 9.94638 23.2498 10.9615 23.2497 11.9999Z" fill="#161924"/>
</svg>
