<svg width="24" height="24" viewBox="0 0 24 24" fill="none" xmlns="http://www.w3.org/2000/svg">
<path d="M17.014 17.0151L19.4901 19.4912" stroke="#161924" stroke-width="1.5" stroke-linecap="round" stroke-linejoin="round"/>
<path d="M17.014 19.4902L19.4901 17.0142" stroke="#161924" stroke-width="1.5" stroke-linecap="round" stroke-linejoin="round"/>
<path d="M13.0004 20.9418C12.6685 20.983 12.3344 21.0038 12 21.0038C7.02733 21.0038 2.99622 16.9727 2.99622 12.0001C2.99622 7.02745 7.02733 2.99634 12 2.99634C16.9726 2.99634 21.0037 7.02745 21.0037 12.0001C21.0037 12.3345 20.9828 12.6686 20.9417 13.0005" stroke="#161924" stroke-width="1.5" stroke-linecap="round" stroke-linejoin="round"/>
<path d="M11.8499 7.9984C11.7118 7.9984 11.5998 8.11037 11.5998 8.2485C11.5998 8.38663 11.7118 8.4986 11.8499 8.4986C11.9881 8.4986 12.1 8.38663 12.1 8.2485C12.1 8.11037 11.9881 7.9984 11.8499 7.9984V7.9984" stroke="#161924" stroke-width="1.5" stroke-linecap="round" stroke-linejoin="round"/>
<path d="M11.0085 11.2498H12.159V15.5015" stroke="#161924" stroke-width="1.5" stroke-linecap="round" stroke-linejoin="round"/>
<path d="M10.9996 15.5017H13.3099" stroke="#161924" stroke-width="1.5" stroke-linecap="round" stroke-linejoin="round"/>
</svg>
