<svg width="24" height="24" viewBox="0 0 24 24" fill="none" xmlns="http://www.w3.org/2000/svg">
<path d="M20.117 3.88299C21.294 5.05999 21.294 6.96799 20.117 8.14499C18.94 9.32199 17.032 9.32199 15.855 8.14499C14.678 6.96799 14.678 5.05999 15.855 3.88299C17.032 2.70599 18.94 2.70599 20.117 3.88299" stroke="#161924" stroke-width="1.5" stroke-linecap="round" stroke-linejoin="round"/>
<path d="M19 13V19C19 20.105 18.105 21 17 21H5C3.895 21 3 20.105 3 19V7C3 5.895 3.895 5 5 5H11" stroke="#161924" stroke-width="1.5" stroke-linecap="round" stroke-linejoin="round"/>
<path d="M11 9.49997C10.893 9.49997 10.806 9.58697 10.806 9.69397C10.806 9.80097 10.893 9.88797 11 9.88797C11.107 9.88797 11.194 9.80097 11.194 9.69397C11.195 9.58697 11.108 9.49997 11 9.49997" stroke="#161924" stroke-width="1.5" stroke-linecap="round" stroke-linejoin="round"/>
<path d="M11.001 12.611V16.5" stroke="#161924" stroke-width="1.5" stroke-linecap="round" stroke-linejoin="round"/>
</svg>
