<svg width="24" height="24" viewBox="0 0 24 24" fill="none" xmlns="http://www.w3.org/2000/svg">
<path d="M11.0086 11.2498H12.1591V15.5015" stroke="#161924" stroke-width="1.5" stroke-linecap="round" stroke-linejoin="round"/>
<path d="M10.9996 15.5017H13.3099" stroke="#161924" stroke-width="1.5" stroke-linecap="round" stroke-linejoin="round"/>
<path fill-rule="evenodd" clip-rule="evenodd" d="M6.82581 19.8314L4.1677 17.1732C3.41743 16.4229 2.99602 15.4052 2.99622 14.3441V9.65611C2.99593 8.59479 3.41776 7.57693 4.1687 6.82693L6.82681 4.16883C7.5768 3.41788 8.59467 2.99605 9.65599 2.99634H14.3429C15.4043 2.99605 16.4221 3.41788 17.1721 4.16883L19.8312 6.82793C20.5822 7.57793 21.004 8.59579 21.0037 9.65711V14.3431C21.0039 15.4042 20.5825 16.4219 19.8322 17.1722L17.1741 19.8314C16.4235 20.5819 15.4055 21.0038 14.3439 21.0038H9.65599C8.59441 21.0038 7.5763 20.5822 6.82581 19.8314Z" stroke="#161924" stroke-width="1.5" stroke-linecap="round" stroke-linejoin="round"/>
<path d="M12.1003 8.24613C12.1002 8.38418 11.9882 8.49598 11.8501 8.49592C11.7121 8.49586 11.6002 8.38397 11.6001 8.24592C11.6001 8.10788 11.7119 7.99589 11.8499 7.99571C11.9164 7.99562 11.9801 8.02198 12.0271 8.06896C12.0741 8.11595 12.1004 8.17969 12.1003 8.24613" stroke="#161924" stroke-width="1.5" stroke-linecap="round" stroke-linejoin="round"/>
</svg>
