<svg width="24" height="24" viewBox="0 0 24 24" fill="none" xmlns="http://www.w3.org/2000/svg">
<path fill-rule="evenodd" clip-rule="evenodd" d="M16.0017 21.0037H7.99833C5.23618 21.0037 2.99625 18.7638 2.99625 16.0016V7.9983C2.99625 5.23615 5.23618 2.99622 7.99833 2.99622H16.0017C18.7638 2.99622 21.0037 5.23615 21.0037 7.9983V16.0016C21.0037 18.7638 18.7638 21.0037 16.0017 21.0037Z" stroke="#161924" stroke-width="1.5" stroke-linecap="round" stroke-linejoin="round"/>
<path d="M11.999 7.99827C11.8609 7.99827 11.7489 8.11032 11.7499 8.24838C11.7499 8.38643 11.8619 8.49848 12 8.49848C12.1381 8.49848 12.2501 8.38643 12.2501 8.24838C12.2501 8.11032 12.1381 7.99827 11.999 7.99827" stroke="#161924" stroke-width="1.5" stroke-linecap="round" stroke-linejoin="round"/>
<path d="M12.2501 16.1857V11.4337H11.2497" stroke="#161924" stroke-width="1.5" stroke-linecap="round" stroke-linejoin="round"/>
</svg>
