<svg width="24" height="24" viewBox="0 0 24 24" fill="none" xmlns="http://www.w3.org/2000/svg">
<path d="M7.49812 2.99634H4.99708C3.89205 2.99634 2.99625 3.89214 2.99625 4.99717V7.49821" stroke="#161924" stroke-width="1.5" stroke-linecap="round" stroke-linejoin="round"/>
<path d="M2.99625 16.502V19.003C2.99625 20.108 3.89205 21.0038 4.99708 21.0038H7.49812" stroke="#161924" stroke-width="1.5" stroke-linecap="round" stroke-linejoin="round"/>
<path d="M16.5019 21.0038H19.0029C20.1079 21.0038 21.0037 20.108 21.0037 19.003V16.502" stroke="#161924" stroke-width="1.5" stroke-linecap="round" stroke-linejoin="round"/>
<path d="M21.0037 7.49821V4.99717C21.0037 3.89214 20.1079 2.99634 19.0029 2.99634H16.5019" stroke="#161924" stroke-width="1.5" stroke-linecap="round" stroke-linejoin="round"/>
<path d="M11.8499 7.9984C11.7118 7.9984 11.5998 8.11037 11.5998 8.2485C11.5998 8.38663 11.7118 8.4986 11.8499 8.4986C11.9881 8.4986 12.1 8.38663 12.1 8.2485C12.1 8.11037 11.9881 7.9984 11.8499 7.9984V7.9984" stroke="#161924" stroke-width="1.5" stroke-linecap="round" stroke-linejoin="round"/>
<path d="M11.0086 11.2498H12.1591V15.5015" stroke="#161924" stroke-width="1.5" stroke-linecap="round" stroke-linejoin="round"/>
<path d="M10.9996 15.5017H13.3095" stroke="#161924" stroke-width="1.5" stroke-linecap="round" stroke-linejoin="round"/>
</svg>
