<svg width="24" height="24" viewBox="0 0 24 24" fill="none" xmlns="http://www.w3.org/2000/svg">
<path d="M8.99872 2.99634H9.99913C11.1042 2.99634 12 3.89214 12 4.99717C12 3.89214 12.8958 2.99634 14.0008 2.99634H15.0012" stroke="#161924" stroke-width="1.5" stroke-linecap="round" stroke-linejoin="round"/>
<path d="M12 20.0036V4.99731" stroke="#161924" stroke-width="1.5" stroke-linecap="round" stroke-linejoin="round"/>
<path d="M15.0012 21.0038H14.0008C12.8958 21.0038 12 20.108 12 19.0029C12 20.108 11.1042 21.0038 9.99913 21.0038H8.99872" stroke="#161924" stroke-width="1.5" stroke-linecap="round" stroke-linejoin="round"/>
<path d="M8.99872 18.0026H4.99705C3.89202 18.0026 2.99622 17.1068 2.99622 16.0017V7.99839C2.99622 6.89336 3.89202 5.99756 4.99705 5.99756H8.99872" stroke="#161924" stroke-width="1.5" stroke-linecap="round" stroke-linejoin="round"/>
<path d="M15.0012 18.0026H19.0029C20.1079 18.0026 21.0037 17.1068 21.0037 16.0017V7.99839C21.0037 6.89336 20.1079 5.99756 19.0029 5.99756H15.0012" stroke="#161924" stroke-width="1.5" stroke-linecap="round" stroke-linejoin="round"/>
</svg>
