<svg width="24" height="24" viewBox="0 0 24 24" fill="none" xmlns="http://www.w3.org/2000/svg">
<path d="M7.84729 11.735C7.95468 11.8423 7.98686 12.0037 7.92882 12.1439C7.87078 12.2842 7.73396 12.3756 7.58218 12.3756C7.4304 12.3756 7.29357 12.2842 7.23553 12.1439C7.1775 12.0037 7.20968 11.8423 7.31707 11.735C7.46354 11.5887 7.70082 11.5887 7.84729 11.735" stroke="#161924" stroke-width="1.5" stroke-linecap="round" stroke-linejoin="round"/>
<path d="M12.2651 11.735C12.3725 11.8423 12.4046 12.0037 12.3466 12.1439C12.2886 12.2842 12.1517 12.3756 12 12.3756C11.8482 12.3756 11.7114 12.2842 11.6533 12.1439C11.5953 12.0037 11.6275 11.8423 11.7349 11.735C11.8813 11.5887 12.1186 11.5887 12.2651 11.735" stroke="#161924" stroke-width="1.5" stroke-linecap="round" stroke-linejoin="round"/>
<path d="M16.0017 20.0035V3.99683" stroke="#161924" stroke-width="1.5" stroke-linecap="round" stroke-linejoin="round"/>
<path d="M13.0004 17.0022H4.99705C3.89202 17.0022 2.99622 16.1064 2.99622 15.0014V8.99888C2.99622 7.89385 3.89202 6.99805 4.99705 6.99805H13.0004" stroke="#161924" stroke-width="1.5" stroke-linecap="round" stroke-linejoin="round"/>
<path d="M16.0016 17.0022H19.0029C20.1079 17.0022 21.0037 16.1064 21.0037 15.0014V8.99888C21.0037 7.89385 20.1079 6.99805 19.0029 6.99805H16.0016" stroke="#161924" stroke-width="1.5" stroke-linecap="round" stroke-linejoin="round"/>
<path d="M13.5006 20.0034H18.5027" stroke="#161924" stroke-width="1.5" stroke-linecap="round" stroke-linejoin="round"/>
<path d="M13.5006 3.99679H18.5027" stroke="#161924" stroke-width="1.5" stroke-linecap="round" stroke-linejoin="round"/>
</svg>
