<svg width="24" height="24" viewBox="0 0 24 24" fill="none" xmlns="http://www.w3.org/2000/svg">
<path d="M7.84726 11.735C7.95465 11.8423 7.98683 12.0037 7.92879 12.1439C7.87075 12.2842 7.73393 12.3756 7.58215 12.3756C7.43037 12.3756 7.29354 12.2842 7.2355 12.1439C7.17746 12.0037 7.20965 11.8423 7.31704 11.735C7.46351 11.5887 7.70079 11.5887 7.84726 11.735" stroke="#161924" stroke-width="1.5" stroke-linecap="round" stroke-linejoin="round"/>
<path d="M12.2651 11.735C12.3725 11.8423 12.4047 12.0037 12.3466 12.1439C12.2886 12.2842 12.1518 12.3756 12 12.3756C11.8482 12.3756 11.7114 12.2842 11.6534 12.1439C11.5953 12.0037 11.6275 11.8423 11.7349 11.735C11.8814 11.5887 12.1186 11.5887 12.2651 11.735" stroke="#161924" stroke-width="1.5" stroke-linecap="round" stroke-linejoin="round"/>
<path d="M16.0017 14.5011V9.49902" stroke="#161924" stroke-width="1.5" stroke-linecap="round" stroke-linejoin="round"/>
<circle cx="12" cy="12.0001" r="9.00375" stroke="#161924" stroke-width="1.5" stroke-linecap="round" stroke-linejoin="round"/>
</svg>
