<svg width="24" height="24" viewBox="0 0 24 24" fill="none" xmlns="http://www.w3.org/2000/svg">
<path fill-rule="evenodd" clip-rule="evenodd" d="M9.2251 6.452V6.452C9.2251 4.92 10.4671 3.677 12.0001 3.677V3.677C13.5321 3.677 14.7751 4.919 14.7751 6.452V6.452C14.7751 7.984 13.5331 9.227 12.0001 9.227V9.227C10.4671 9.225 9.2251 7.983 9.2251 6.452Z" stroke="#161924" stroke-width="1.5" stroke-linecap="round" stroke-linejoin="round"/>
<path fill-rule="evenodd" clip-rule="evenodd" d="M2.5 17.548V17.548C2.5 16.016 3.742 14.773 5.275 14.773V14.773C6.807 14.773 8.05 16.015 8.05 17.548V17.548C8.049 19.08 6.808 20.323 5.275 20.323V20.323C3.742 20.323 2.5 19.081 2.5 17.548Z" stroke="#161924" stroke-width="1.5" stroke-linecap="round" stroke-linejoin="round"/>
<path fill-rule="evenodd" clip-rule="evenodd" d="M15.9509 17.548V17.548C15.9509 16.016 17.1929 14.773 18.7259 14.773V14.773C20.2579 14.773 21.5009 16.015 21.5009 17.548V17.548C21.5009 19.08 20.2589 20.323 18.7259 20.323V20.323C17.1919 20.323 15.9509 19.081 15.9509 17.548H15.9509Z" stroke="#161924" stroke-width="1.5" stroke-linecap="round" stroke-linejoin="round"/>
<path d="M8.48998 11.92L6.47998 15.06" stroke="#161924" stroke-width="1.5" stroke-linecap="round" stroke-linejoin="round"/>
<path d="M13.5 8.78L15.51 11.92" stroke="#161924" stroke-width="1.5" stroke-linecap="round" stroke-linejoin="round"/>
<path d="M15.95 17.55H12" stroke="#161924" stroke-width="1.5" stroke-linecap="round" stroke-linejoin="round"/>
</svg>
