<svg width="24" height="24" viewBox="0 0 24 24" fill="none" xmlns="http://www.w3.org/2000/svg">
<path d="M20.0037 9.99913V4.99705C20.0037 3.89202 19.1079 2.99622 18.0028 2.99622H4.99742C3.89239 2.99622 2.99658 3.89202 2.99658 4.99705V19.0029C2.99658 20.1079 3.89239 21.0037 4.99742 21.0037H9.9995" stroke="#161924" stroke-width="1.5" stroke-linecap="round" stroke-linejoin="round"/>
<path d="M8.99902 15.0012H9.99944" stroke="#161924" stroke-width="1.5" stroke-linecap="round" stroke-linejoin="round"/>
<path d="M8.99902 10.9996H14.0011" stroke="#161924" stroke-width="1.5" stroke-linecap="round" stroke-linejoin="round"/>
<path d="M6.12277 15.1262C6.19183 15.1262 6.24782 15.0702 6.24782 15.0012C6.24782 14.9321 6.19183 14.8761 6.12277 14.8761C6.0537 14.8761 5.99771 14.9321 5.99771 15.0012C5.99771 15.0702 6.0537 15.1262 6.12277 15.1262" stroke="#161924" stroke-width="1.5" stroke-linecap="round" stroke-linejoin="round"/>
<path d="M6.12277 11.1247C6.19183 11.1247 6.24782 11.0687 6.24782 10.9996C6.24782 10.9305 6.19183 10.8745 6.12277 10.8745C6.0537 10.8745 5.99771 10.9305 5.99771 10.9996C5.99771 11.0687 6.0537 11.1247 6.12277 11.1247" stroke="#161924" stroke-width="1.5" stroke-linecap="round" stroke-linejoin="round"/>
<path d="M17.5025 22.0041C15.6817 22.0041 14.0401 20.9073 13.3433 19.225C12.6465 17.5428 13.0317 15.6065 14.3192 14.3189C15.6067 13.0314 17.5431 12.6463 19.2253 13.3431C20.9075 14.0399 22.0044 15.6814 22.0044 17.5023C22.0044 19.9886 19.9888 22.0041 17.5025 22.0041" stroke="#161924" stroke-width="1.5" stroke-linecap="round" stroke-linejoin="round"/>
<path d="M20.6858 20.6856L17.5024 17.5022V13.0074" stroke="#161924" stroke-width="1.5" stroke-linecap="round" stroke-linejoin="round"/>
<path d="M8.99902 6.99789H14.0011" stroke="#161924" stroke-width="1.5" stroke-linecap="round" stroke-linejoin="round"/>
<path d="M6.12277 7.12294C6.19183 7.12294 6.24782 7.06695 6.24782 6.99789C6.24782 6.92882 6.19183 6.87284 6.12277 6.87284C6.0537 6.87284 5.99771 6.92882 5.99771 6.99789C5.99771 7.06695 6.0537 7.12294 6.12277 7.12294" stroke="#161924" stroke-width="1.5" stroke-linecap="round" stroke-linejoin="round"/>
</svg>
