<svg width="24" height="24" viewBox="0 0 24 24" fill="none" xmlns="http://www.w3.org/2000/svg">
<path d="M13.5563 11L11.6123 12.944L10.4453 11.777" stroke="#161924" stroke-width="1.5" stroke-linecap="round" stroke-linejoin="round"/>
<path d="M9 16H15" stroke="#161924" stroke-width="1.5" stroke-linecap="round" stroke-linejoin="round"/>
<path d="M20.0481 21V4.7169C20.0481 4.53676 19.9512 4.37055 19.7944 4.2818C19.6377 4.19305 19.4453 4.19548 19.2908 4.28816L17.8798 5.1348C17.5631 5.32481 17.1674 5.32481 16.8508 5.1348L15.1969 4.14251C14.8802 3.9525 14.4846 3.9525 14.1679 4.14251L12.5141 5.1348C12.1974 5.32481 11.8018 5.32481 11.4851 5.1348L9.83131 4.14251C9.51463 3.9525 9.119 3.9525 8.80231 4.14251L7.14849 5.1348C6.83181 5.32481 6.43618 5.32481 6.11949 5.1348L4.70842 4.28816C4.55396 4.19548 4.36158 4.19305 4.20483 4.2818C4.04807 4.37055 3.95117 4.53676 3.95117 4.7169V21" stroke="#161924" stroke-width="1.5" stroke-linecap="round" stroke-linejoin="round"/>
<path d="M21 21H3" stroke="#161924" stroke-width="1.5" stroke-linecap="round" stroke-linejoin="round"/>
</svg>
