<svg width="24" height="24" viewBox="0 0 24 24" fill="none" xmlns="http://www.w3.org/2000/svg">
<path d="M5.99756 10.9996H12.0001" stroke="#161924" stroke-width="1.5" stroke-linecap="round" stroke-linejoin="round"/>
<path d="M5.99756 7.99838H8.99881" stroke="#161924" stroke-width="1.5" stroke-linecap="round" stroke-linejoin="round"/>
<path fill-rule="evenodd" clip-rule="evenodd" d="M7.49818 17.0021V17.0021C6.66954 17.0018 5.99786 16.3301 5.99756 15.5015V15.5015C5.99786 14.6728 6.66954 14.0012 7.49818 14.0009V14.0009C8.32683 14.0012 8.9985 14.6728 8.99881 15.5015V15.5015C8.9985 16.3301 8.32683 17.0018 7.49818 17.0021V17.0021Z" stroke="#161924" stroke-width="1.5" stroke-linecap="round" stroke-linejoin="round"/>
<path fill-rule="evenodd" clip-rule="evenodd" d="M12.5002 17.2522H15.0013V21.0038H12.5002C12.224 21.0038 12 20.7798 12 20.5036V17.7524C12 17.4761 12.224 17.2522 12.5002 17.2522Z" stroke="#161924" stroke-width="1.5" stroke-linecap="round" stroke-linejoin="round"/>
<path fill-rule="evenodd" clip-rule="evenodd" d="M15.5017 13.0004H17.5025C17.7788 13.0004 18.0027 13.2243 18.0027 13.5006V21.0037H15.0015V13.5006C15.0015 13.2243 15.2254 13.0004 15.5017 13.0004Z" stroke="#161924" stroke-width="1.5" stroke-linecap="round" stroke-linejoin="round"/>
<path fill-rule="evenodd" clip-rule="evenodd" d="M18.5026 15.2513H20.5035C20.7797 15.2513 21.0037 15.4753 21.0037 15.7516V20.5035C21.0037 20.7798 20.7797 21.0037 20.5035 21.0037H18.0024V15.7516C18.0024 15.4753 18.2264 15.2513 18.5026 15.2513Z" stroke="#161924" stroke-width="1.5" stroke-linecap="round" stroke-linejoin="round"/>
<path d="M8.99908 21.0037H4.99742C3.89239 21.0037 2.99658 20.1079 2.99658 19.0029V4.99705C2.99658 3.89202 3.89239 2.99622 4.99742 2.99622H13.1724C13.703 2.99622 14.212 3.20702 14.5872 3.58225L17.4168 6.41185C17.792 6.78708 18.0028 7.296 18.0028 7.82666V9.99913" stroke="#161924" stroke-width="1.5" stroke-linecap="round" stroke-linejoin="round"/>
</svg>
