<svg width="24" height="24" viewBox="0 0 24 24" fill="none" xmlns="http://www.w3.org/2000/svg">
<path d="M7.99805 16.0017H13.0001" stroke="#161924" stroke-width="1.5" stroke-linecap="round" stroke-linejoin="round"/>
<path d="M15.8772 16.1267C15.9462 16.1267 16.0022 16.0707 16.0022 16.0017C16.0022 15.9326 15.9462 15.8766 15.8772 15.8766C15.8081 15.8766 15.7521 15.9326 15.7521 16.0017C15.7521 16.0707 15.8081 16.1267 15.8772 16.1267" stroke="#161924" stroke-width="1.5" stroke-linecap="round" stroke-linejoin="round"/>
<path d="M7.99805 12H13.0001" stroke="#161924" stroke-width="1.5" stroke-linecap="round" stroke-linejoin="round"/>
<path fill-rule="evenodd" clip-rule="evenodd" d="M3.99707 4.49659V19.5033C3.99707 19.8503 4.17661 20.1725 4.47181 20.3547C4.76701 20.537 5.13557 20.5533 5.44567 20.3977L6.217 20.0116C6.49843 19.8705 6.82993 19.8705 7.11137 20.0116L8.88511 20.8979C9.16654 21.039 9.49804 21.039 9.77948 20.8979L11.5532 20.0116C11.8347 19.8705 12.1662 19.8705 12.4476 20.0116L14.2213 20.8979C14.5031 21.039 14.8349 21.039 15.1167 20.8979L16.8884 20.0116C17.1702 19.8705 17.502 19.8705 17.7838 20.0116L18.5561 20.3977C18.8661 20.5529 19.2344 20.5365 19.5294 20.3542C19.8243 20.172 20.0037 19.85 20.0037 19.5033V4.49659C20.0037 4.14966 19.8242 3.82744 19.529 3.64519C19.2338 3.46293 18.8652 3.44667 18.5551 3.60222L17.7838 3.98838C17.5024 4.12944 17.1709 4.12944 16.8894 3.98838L15.1157 3.10201C14.8343 2.96095 14.5028 2.96095 14.2213 3.10201L12.4476 3.98838C12.1663 4.12844 11.8355 4.12844 11.5542 3.98838L9.78048 3.10201C9.49869 2.96095 9.1669 2.96095 8.88511 3.10201L7.11337 3.98838C6.83158 4.12944 6.49979 4.12944 6.218 3.98838L5.44467 3.60222C5.13466 3.44702 4.76639 3.46348 4.47145 3.6457C4.17651 3.82792 3.99707 4.1499 3.99707 4.49659Z" stroke="#161924" stroke-width="1.5" stroke-linecap="round" stroke-linejoin="round"/>
<path d="M15.8772 12.125C15.9462 12.125 16.0022 12.069 16.0022 12C16.0022 11.9309 15.9462 11.8749 15.8772 11.8749C15.8081 11.8749 15.7521 11.9309 15.7521 12C15.7521 12.069 15.8081 12.125 15.8772 12.125" stroke="#161924" stroke-width="1.5" stroke-linecap="round" stroke-linejoin="round"/>
<path d="M7.99805 7.99838H13.0001" stroke="#161924" stroke-width="1.5" stroke-linecap="round" stroke-linejoin="round"/>
<path d="M15.8772 8.12343C15.9462 8.12343 16.0022 8.06744 16.0022 7.99838C16.0022 7.92931 15.9462 7.87333 15.8772 7.87333C15.8081 7.87333 15.7521 7.92931 15.7521 7.99838C15.7521 8.06744 15.8081 8.12343 15.8772 8.12343" stroke="#161924" stroke-width="1.5" stroke-linecap="round" stroke-linejoin="round"/>
</svg>
