<svg width="24" height="24" viewBox="0 0 24 24" fill="none" xmlns="http://www.w3.org/2000/svg">
<path d="M11.6867 11.1286L10.7493 10.1902" stroke="#161924" stroke-width="1.5" stroke-linecap="round" stroke-linejoin="round"/>
<path d="M13.2502 9.56494L11.6865 11.1286" stroke="#161924" stroke-width="1.5" stroke-linecap="round" stroke-linejoin="round"/>
<path d="M9.49902 13.6297H14.5011" stroke="#161924" stroke-width="1.5" stroke-linecap="round" stroke-linejoin="round"/>
<path fill-rule="evenodd" clip-rule="evenodd" d="M15.1264 6.99793H8.87383C8.37626 6.99766 7.89899 7.1952 7.54716 7.54704C7.19532 7.89887 6.99778 8.37614 6.99805 8.87371V16.0647C6.99882 16.2801 7.11042 16.4799 7.2934 16.5936C7.47639 16.7073 7.70499 16.7187 7.89842 16.6239L8.38062 16.3818C8.55665 16.2938 8.76383 16.2938 8.93986 16.3818L10.0483 16.9361C10.2243 17.0241 10.4315 17.0241 10.6076 16.9361L11.716 16.3818C11.892 16.2938 12.0992 16.2938 12.2752 16.3818L13.3837 16.9361C13.5601 17.0241 13.7676 17.0241 13.9439 16.9361L15.0504 16.3818C15.2268 16.2938 15.4343 16.2938 15.6106 16.3818L16.0928 16.6239C16.287 16.723 16.5188 16.7138 16.7045 16.5996C16.8902 16.4854 17.003 16.2827 17.0022 16.0647V8.87371C17.0025 8.37614 16.8049 7.89887 16.4531 7.54704C16.1013 7.1952 15.624 6.99766 15.1264 6.99793Z" stroke="#161924" stroke-width="1.5" stroke-linecap="round" stroke-linejoin="round"/>
<rect x="2.99609" y="2.99622" width="18.0075" height="18.0075" rx="5" stroke="#161924" stroke-width="1.5" stroke-linecap="round" stroke-linejoin="round"/>
</svg>
