<svg width="24" height="24" viewBox="0 0 24 24" fill="none" xmlns="http://www.w3.org/2000/svg">
<path fill-rule="evenodd" clip-rule="evenodd" d="M17.5 21H6.5C5.395 21 4.5 20.105 4.5 19V5C4.5 3.895 5.395 3 6.5 3H17.5C18.605 3 19.5 3.895 19.5 5V19C19.5 20.105 18.605 21 17.5 21Z" stroke="#161924" stroke-width="1.5" stroke-linecap="round" stroke-linejoin="round"/>
<path d="M12.041 5.875C11.972 5.875 11.916 5.931 11.917 6C11.917 6.069 11.973 6.125 12.042 6.125C12.111 6.125 12.167 6.069 12.167 6C12.167 5.931 12.111 5.875 12.041 5.875" stroke="#161924" stroke-width="1.5" stroke-linecap="round" stroke-linejoin="round"/>
<path d="M8 9H16" stroke="#161924" stroke-width="1.5" stroke-linecap="round" stroke-linejoin="round"/>
<path d="M13 12V18" stroke="#161924" stroke-width="1.5" stroke-linecap="round" stroke-linejoin="round"/>
<path d="M16 15H8" stroke="#161924" stroke-width="1.5" stroke-linecap="round" stroke-linejoin="round"/>
<path fill-rule="evenodd" clip-rule="evenodd" d="M8 12H16V18H8V12Z" stroke="#161924" stroke-width="1.5" stroke-linecap="round" stroke-linejoin="round"/>
</svg>
