<svg width="24" height="24" viewBox="0 0 24 24" fill="none" xmlns="http://www.w3.org/2000/svg">
<path fill-rule="evenodd" clip-rule="evenodd" d="M17.5025 21.0037H6.4979C5.9672 21.0037 5.4582 20.7931 5.08294 20.4178C4.70768 20.0426 4.49707 19.5336 4.49707 19.0029V4.99705C4.49707 4.46635 4.70768 3.95735 5.08294 3.58209C5.4582 3.20682 5.9672 2.99622 6.4979 2.99622H17.5025C18.0332 2.99622 18.5422 3.20682 18.9175 3.58209C19.2927 3.95735 19.5033 4.46635 19.5033 4.99705V19.0029C19.5033 19.5336 19.2927 20.0426 18.9175 20.4178C18.5422 20.7931 18.0332 21.0037 17.5025 21.0037Z" stroke="#161924" stroke-width="1.5" stroke-linecap="round" stroke-linejoin="round"/>
<path d="M12.0412 5.87247C12.0081 5.87235 11.9763 5.88552 11.953 5.90903C11.9297 5.93254 11.9168 5.96442 11.9172 5.99752C11.9172 6.04819 11.9477 6.09386 11.9946 6.11315C12.0414 6.13245 12.0953 6.12156 12.131 6.08559C12.1667 6.04962 12.1771 5.99567 12.1574 5.94897C12.1378 5.90228 12.0919 5.87207 12.0412 5.87247" stroke="#161924" stroke-width="1.5" stroke-linecap="round" stroke-linejoin="round"/>
<path d="M7.99854 9.99911H16.0019" stroke="#161924" stroke-width="1.5" stroke-linecap="round" stroke-linejoin="round"/>
<path d="M13.0006 16.0017H7.99854" stroke="#161924" stroke-width="1.5" stroke-linecap="round" stroke-linejoin="round"/>
<path d="M7.99854 13.0005H16.0019" stroke="#161924" stroke-width="1.5" stroke-linecap="round" stroke-linejoin="round"/>
</svg>
