<svg width="24" height="24" viewBox="0 0 24 24" fill="none" xmlns="http://www.w3.org/2000/svg">
<path d="M13.1259 9.84204L11.7184 11.2496L10.875 10.4053" stroke="#161924" stroke-width="1.5" stroke-linecap="round" stroke-linejoin="round"/>
<path d="M9.99902 13.5006H14.0007" stroke="#161924" stroke-width="1.5" stroke-linecap="round" stroke-linejoin="round"/>
<path fill-rule="evenodd" clip-rule="evenodd" d="M7.49805 8.68463C7.49831 8.23702 7.67638 7.80785 7.99307 7.49153C8.30976 7.17522 8.73914 6.99766 9.18675 6.99793H14.8151C15.2626 6.99793 15.6918 7.17577 16.0081 7.4923C16.3245 7.80884 16.5021 8.23811 16.5018 8.68563V16.2178C16.5018 16.3074 16.4809 16.3958 16.4408 16.4759C16.2988 16.7521 15.9603 16.8616 15.6835 16.721L15.2493 16.5029C15.0916 16.4252 14.9068 16.4252 14.7491 16.5029L13.7537 17.0031C13.596 17.0807 13.4111 17.0807 13.2534 17.0031L12.253 16.5029C12.0954 16.4248 11.9104 16.4248 11.7528 16.5029L10.7524 17.0031C10.5948 17.0812 10.4098 17.0812 10.2522 17.0031L9.25178 16.5029C9.09419 16.4248 8.90916 16.4248 8.75157 16.5029L8.31739 16.721C8.14385 16.8069 7.93827 16.7974 7.77348 16.6956C7.60869 16.5939 7.50799 16.4144 7.50705 16.2208V8.68563L7.49805 8.68463Z" stroke="#161924" stroke-width="1.5" stroke-linecap="round" stroke-linejoin="round"/>
<circle cx="11.9998" cy="12" r="9.00375" stroke="#161924" stroke-width="1.5" stroke-linecap="round" stroke-linejoin="round"/>
</svg>
