<svg width="24" height="24" viewBox="0 0 24 24" fill="none" xmlns="http://www.w3.org/2000/svg">
<path d="M10.3333 7.71503L11.5577 7.10551C11.8395 6.96522 12.1709 6.96582 12.4522 7.10713L13.6618 7.71477L14.8978 7.10361C15.1792 6.96446 15.5096 6.96552 15.7901 7.10648L16.4491 7.43763C16.7868 7.6074 17 7.95313 17 8.33118V15.6686C17 16.0467 16.7868 16.3924 16.449 16.5621L15.79 16.8933C15.5095 17.0342 15.1791 17.0353 14.8977 16.8962L13.6618 16.285H13.6667L12.4423 16.8946C12.1605 17.0348 11.8291 17.0342 11.5478 16.8929L10.3382 16.2853L9.10223 16.8965C8.82084 17.0356 8.49043 17.0345 8.20994 16.8936L7.55094 16.5624C7.21316 16.3927 6.99998 16.0469 7 15.6689V8.33144C7 7.95339 7.2132 7.60766 7.551 7.43792L8.21 7.10677C8.49049 6.96581 8.8209 6.96475 9.10229 7.1039L10.3382 7.71506" stroke="#161924" stroke-width="1.5" stroke-linecap="round" stroke-linejoin="round"/>
<rect x="3" y="3" width="18" height="18" rx="5" stroke="#161924" stroke-width="1.5" stroke-linecap="round" stroke-linejoin="round"/>
<path d="M10 10.5H14" stroke="#161924" stroke-width="1.5" stroke-linecap="round" stroke-linejoin="round"/>
<path d="M10 13.5H14" stroke="#161924" stroke-width="1.5" stroke-linecap="round" stroke-linejoin="round"/>
</svg>
