<svg width="24" height="24" viewBox="0 0 24 24" fill="none" xmlns="http://www.w3.org/2000/svg">
<path d="M20.0037 9.99913V4.99705C20.0037 3.89159 19.1083 2.99622 18.0028 2.99622H4.99742C3.89195 2.99622 2.99658 3.89159 2.99658 4.99705V19.0029C2.99658 20.1083 3.89195 21.0037 4.99742 21.0037H9.9995" stroke="#161924" stroke-width="1.5" stroke-linecap="round" stroke-linejoin="round"/>
<path d="M9.24908 15.0012H9.99939" stroke="#161924" stroke-width="1.5" stroke-linecap="round" stroke-linejoin="round"/>
<path d="M9.24902 10.9996H14.001" stroke="#161924" stroke-width="1.5" stroke-linecap="round" stroke-linejoin="round"/>
<path d="M9.24902 7.12289H16.0018" stroke="#161924" stroke-width="1.5" stroke-linecap="round" stroke-linejoin="round"/>
<path d="M6.12277 15.1262C6.1918 15.1262 6.24782 15.0702 6.24782 15.0012C6.24782 14.9322 6.1918 14.8761 6.12277 14.8761C6.05374 14.8761 5.99771 14.9322 5.99771 15.0012C5.99771 15.0702 6.05374 15.1262 6.12277 15.1262" stroke="#161924" stroke-width="1.5" stroke-linecap="round" stroke-linejoin="round"/>
<path d="M6.12277 11.1247C6.1918 11.1247 6.24782 11.0686 6.24782 10.9996C6.24782 10.9306 6.1918 10.8745 6.12277 10.8745C6.05374 10.8745 5.99771 10.9306 5.99771 10.9996C5.99771 11.0686 6.05374 11.1247 6.12277 11.1247" stroke="#161924" stroke-width="1.5" stroke-linecap="round" stroke-linejoin="round"/>
<path d="M6.12277 7.24794C6.1918 7.24794 6.24782 7.19192 6.24782 7.12289C6.24782 7.05386 6.1918 6.99784 6.12277 6.99784C6.05374 6.99784 5.99771 7.05386 5.99771 7.12289C5.99771 7.19192 6.05374 7.24794 6.12277 7.24794" stroke="#161924" stroke-width="1.5" stroke-linecap="round" stroke-linejoin="round"/>
<path d="M17.5029 13.0004C19.9889 13.0004 22.0047 15.0162 22.0047 17.5022C22.0047 19.9883 19.9889 22.0041 17.5029 22.0041C15.0168 22.0041 13.001 19.9883 13.001 17.5022C13.001 15.0162 15.0168 13.0004 17.5029 13.0004" stroke="#161924" stroke-width="1.5" stroke-linecap="round" stroke-linejoin="round"/>
<path d="M18.5971 16.4078L16.4082 18.5967" stroke="#161924" stroke-width="1.5" stroke-linecap="round" stroke-linejoin="round"/>
<path d="M16.4082 16.4078L18.5971 18.5967" stroke="#161924" stroke-width="1.5" stroke-linecap="round" stroke-linejoin="round"/>
</svg>
