<svg width="24" height="24" viewBox="0 0 24 24" fill="none" xmlns="http://www.w3.org/2000/svg">
<path d="M12.1815 11.5097L9.63086 17.5267" stroke="#161924" stroke-width="1.5" stroke-linecap="round" stroke-linejoin="round"/>
<path fill-rule="evenodd" clip-rule="evenodd" d="M15.542 3.58287V3.58287C18.9382 5.02419 20.7292 8.76917 19.7195 12.3176L19.6539 12.5495C19.517 13.0314 19.1798 13.4312 18.7279 13.6473C18.276 13.8635 17.7531 13.8751 17.2921 13.6792L7.06452 9.33722C6.60332 9.14154 6.24841 8.75717 6.09003 8.28187C5.93166 7.80658 5.98508 7.28615 6.23672 6.85294L6.35747 6.64381C8.20925 3.45363 12.1466 2.14142 15.542 3.58287Z" stroke="#161924" stroke-width="1.5" stroke-linecap="round" stroke-linejoin="round"/>
<path d="M15.5418 3.58286L15.7684 4.49904C16.4416 7.22455 15.8504 10.1083 14.1592 12.3491V12.3491" stroke="#161924" stroke-width="1.5" stroke-linecap="round" stroke-linejoin="round"/>
<path d="M15.542 3.58286L14.7256 4.05626C12.2974 5.46552 10.6336 7.89402 10.1963 10.6673V10.6673" stroke="#161924" stroke-width="1.5" stroke-linecap="round" stroke-linejoin="round"/>
<path d="M3 20C4.59406 18.4059 6.75607 17.5104 9.01041 17.5104C11.2648 17.5104 13.4268 18.4059 15.0208 20" stroke="#161924" stroke-width="1.5" stroke-linecap="round" stroke-linejoin="round"/>
</svg>
