<svg width="24" height="24" viewBox="0 0 24 24" fill="none" xmlns="http://www.w3.org/2000/svg">
<path d="M19 10V7.444C19 4.99 17.01 3 14.556 3H7.444C4.99 3 3 4.99 3 7.444V11.555C3 14.01 4.99 16 7.444 16H11" stroke="#161924" stroke-width="1.5" stroke-linecap="round" stroke-linejoin="round"/>
<path fill-rule="evenodd" clip-rule="evenodd" d="M21.1913 19.928H18.2993L16.4473 21.764C15.9373 22.269 15.0723 21.908 15.0723 21.191V13.808C15.0723 13.09 15.9413 12.729 16.4493 13.238L21.7623 18.551C22.2703 19.059 21.9113 19.928 21.1913 19.928V19.928Z" stroke="#161924" stroke-width="1.5" stroke-linecap="round" stroke-linejoin="round"/>
<path fill-rule="evenodd" clip-rule="evenodd" d="M11.114 7C12.143 7 12.833 7.931 12.833 8.798C12.833 10.611 10.493 12 9.916 12C9.339 12 7 10.611 7 8.798C7 7.931 7.69 7 8.719 7C9.307 7 9.693 7.283 9.917 7.535C10.14 7.283 10.526 7 11.114 7Z" stroke="#161924" stroke-width="1.5" stroke-linecap="round" stroke-linejoin="round"/>
</svg>
