<svg width="24" height="24" viewBox="0 0 24 24" fill="none" xmlns="http://www.w3.org/2000/svg">
<path d="M21.0037 14.001V17.0022C21.0037 19.2123 19.2121 21.0039 17.0021 21.0039H15.0012" stroke="#161924" stroke-width="1.5" stroke-linecap="round" stroke-linejoin="round"/>
<path d="M21.0038 9.99925V6.998C21.0038 4.78795 19.2122 2.99634 17.0021 2.99634H14.0009" stroke="#161924" stroke-width="1.5" stroke-linecap="round" stroke-linejoin="round"/>
<path d="M2.99622 9.99925V6.998C2.99622 4.78795 4.78782 2.99634 6.99788 2.99634H9.99913" stroke="#161924" stroke-width="1.5" stroke-linecap="round" stroke-linejoin="round"/>
<path d="M6.99789 15.5015V18.5027" stroke="#161924" stroke-width="1.5" stroke-linecap="round" stroke-linejoin="round"/>
<path d="M8.49856 17.0022H5.49731" stroke="#161924" stroke-width="1.5" stroke-linecap="round" stroke-linejoin="round"/>
<path fill-rule="evenodd" clip-rule="evenodd" d="M9.22081 13.0005H4.77496C3.79259 13.0005 2.99622 13.7969 2.99622 14.7792V19.2251C2.99622 20.2075 3.79259 21.0038 4.77496 21.0038H9.22081C10.2032 21.0038 10.9995 20.2075 10.9995 19.2251V14.7782C10.999 13.7962 10.2028 13.0005 9.22081 13.0005V13.0005Z" stroke="#161924" stroke-width="1.5" stroke-linecap="round" stroke-linejoin="round"/>
</svg>
