<svg width="24" height="24" viewBox="0 0 24 24" fill="none" xmlns="http://www.w3.org/2000/svg">
<path d="M17 17.385V19.368C17 20.822 15.822 22 14.368 22H4.632C3.178 22 2 20.822 2 19.368V9.631C2 8.178 3.178 7 4.632 7H6.615" stroke="#161924" stroke-width="1.5" stroke-linecap="round" stroke-linejoin="round"/>
<path d="M14.1992 9.80001L17.7992 6.20001" stroke="#161924" stroke-width="1.5" stroke-linecap="round" stroke-linejoin="round"/>
<path d="M17.9619 9.67402C18.0429 9.75502 18.0429 9.88502 17.9619 9.96502C17.8809 10.046 17.7509 10.046 17.6709 9.96502C17.5899 9.88402 17.5899 9.75402 17.6709 9.67402C17.7509 9.59302 17.8819 9.59302 17.9619 9.67402" stroke="#161924" stroke-width="1.5" stroke-linecap="round" stroke-linejoin="round"/>
<path d="M14.3279 6.03503C14.4089 6.11603 14.4089 6.24603 14.3279 6.32603C14.2469 6.40703 14.1169 6.40703 14.0369 6.32603C13.9569 6.24503 13.9559 6.11503 14.0369 6.03503C14.1179 5.95603 14.2479 5.95503 14.3279 6.03503" stroke="#161924" stroke-width="1.5" stroke-linecap="round" stroke-linejoin="round"/>
<path d="M20.2432 3.75701C22.5862 6.10001 22.5862 9.89901 20.2432 12.242C17.9002 14.585 14.1012 14.585 11.7582 12.242C9.41523 9.89901 9.41523 6.10001 11.7582 3.75701C14.1012 1.41401 17.8992 1.41401 20.2432 3.75701" stroke="#161924" stroke-width="1.5" stroke-linecap="round" stroke-linejoin="round"/>
</svg>
