<svg width="24" height="24" viewBox="0 0 24 24" fill="none" xmlns="http://www.w3.org/2000/svg">
<path d="M19.0029 15.0015V17.0023C19.0029 19.2124 17.2113 21.004 15.0012 21.004H6.99788C4.78782 21.004 2.99622 19.2124 2.99622 17.0023V8.99898C2.99622 6.78892 4.78782 4.99731 6.99788 4.99731H8.99872" stroke="#161924" stroke-width="1.5" stroke-linecap="round" stroke-linejoin="round"/>
<path d="M17.0021 6.81306V4.97729" stroke="#161924" stroke-width="1.5" stroke-linecap="round" stroke-linejoin="round"/>
<path d="M17.0021 8.83789C16.978 8.83788 16.955 8.84751 16.9381 8.86461C16.9211 8.88171 16.9118 8.90487 16.912 8.92892C16.912 8.96584 16.9343 8.99909 16.9685 9.01312C17.0026 9.02715 17.0419 9.01918 17.0678 8.99293C17.0938 8.96669 17.1013 8.92737 17.0869 8.89339C17.0725 8.8594 17.039 8.83748 17.0021 8.83789" stroke="#161924" stroke-width="1.5" stroke-linecap="round" stroke-linejoin="round"/>
<path d="M17.0021 12C14.2395 12 12 9.76051 12 6.99793C12 4.23536 14.2395 1.99585 17.0021 1.99585C19.7647 1.99585 22.0042 4.23536 22.0042 6.99793C22.0042 9.76051 19.7647 12 17.0021 12" stroke="#161924" stroke-width="1.5" stroke-linecap="round" stroke-linejoin="round"/>
</svg>
