<svg width="24" height="24" viewBox="0 0 24 24" fill="none" xmlns="http://www.w3.org/2000/svg">
<path fill-rule="evenodd" clip-rule="evenodd" d="M20.7536 16.9827H17.2522C16.5615 16.9827 16.0016 17.5425 16.0016 18.2332V20.7342C16.0016 21.4249 16.5615 21.9847 17.2522 21.9847H20.7536C21.4443 21.9847 22.0041 21.4249 22.0041 20.7342V18.2332C22.0041 17.9015 21.8724 17.5835 21.6379 17.3489C21.4034 17.1144 21.0853 16.9827 20.7536 16.9827V16.9827Z" stroke="#161924" stroke-width="1.5" stroke-linecap="round" stroke-linejoin="round"/>
<path d="M20.7537 16.9827V15.7517C20.7537 14.7848 19.9698 14.001 19.0029 14.001V14.001C18.036 14.001 17.2522 14.7848 17.2522 15.7517V16.9827" stroke="#161924" stroke-width="1.5" stroke-linecap="round" stroke-linejoin="round"/>
<path d="M20.9451 10.9997C20.4063 6.18793 16.158 2.66419 11.3295 3.02405C6.50106 3.38392 2.82209 7.49849 3.00252 12.337C3.18295 17.1755 7.15814 21.0046 12 21.0039" stroke="#161924" stroke-width="1.5" stroke-linecap="round" stroke-linejoin="round"/>
<path d="M13.5006 10.4995L10.4994 13.5008" stroke="#161924" stroke-width="1.5" stroke-linecap="round" stroke-linejoin="round"/>
<path d="M10.4994 10.4995L13.5006 13.5008" stroke="#161924" stroke-width="1.5" stroke-linecap="round" stroke-linejoin="round"/>
</svg>
