<svg width="24" height="24" viewBox="0 0 24 24" fill="none" xmlns="http://www.w3.org/2000/svg">
<path d="M6.74783 11.4998C4.12338 11.4998 1.99585 9.37227 1.99585 6.74783C1.99585 4.12338 4.12338 1.99585 6.74783 1.99585C9.37227 1.99585 11.4998 4.12338 11.4998 6.74783C11.4998 8.00813 10.9992 9.21682 10.108 10.108C9.21682 10.9992 8.00813 11.4998 6.74783 11.4998" stroke="#161924" stroke-width="1.5" stroke-linecap="round" stroke-linejoin="round"/>
<path d="M13.8668 5.0459C18.0377 5.49966 21.1501 9.09764 20.9986 13.2904C20.847 17.4832 17.4831 20.8472 13.2903 20.9987C9.09752 21.1502 5.49953 18.0378 5.04578 13.8669" stroke="#161924" stroke-width="1.5" stroke-linecap="round" stroke-linejoin="round"/>
<path d="M8.38147 6.75045C8.38147 6.77068 8.36928 6.78892 8.35059 6.79666C8.3319 6.80441 8.31038 6.80013 8.29608 6.78582C8.28177 6.77152 8.27749 6.75 8.28523 6.73131C8.29298 6.71262 8.31122 6.70043 8.33145 6.70043" stroke="#161924" stroke-width="1.5" stroke-linecap="round" stroke-linejoin="round"/>
<path d="M8.33146 6.70054C8.35909 6.70054 8.38148 6.72293 8.38148 6.75056" stroke="#161924" stroke-width="1.5" stroke-linecap="round" stroke-linejoin="round"/>
<path d="M5.21417 6.75045C5.21417 6.77068 5.20198 6.78892 5.18329 6.79666C5.1646 6.80441 5.14309 6.80013 5.12878 6.78582C5.11447 6.77152 5.11019 6.75 5.11794 6.73131C5.12568 6.71262 5.14392 6.70043 5.16415 6.70043" stroke="#161924" stroke-width="1.5" stroke-linecap="round" stroke-linejoin="round"/>
<path d="M5.16416 6.70054C5.19179 6.70054 5.21418 6.72293 5.21418 6.75056" stroke="#161924" stroke-width="1.5" stroke-linecap="round" stroke-linejoin="round"/>
</svg>
