<svg width="24" height="24" viewBox="0 0 24 24" fill="none" xmlns="http://www.w3.org/2000/svg">
<path d="M21.0038 4.99717C21.0039 4.46647 20.7932 3.95747 20.4179 3.58221C20.0426 3.20695 19.5336 2.99619 19.0029 2.99634" stroke="#161924" stroke-width="1.5" stroke-linecap="round" stroke-linejoin="round"/>
<path d="M21.0037 12V13.0004" stroke="#161924" stroke-width="1.5" stroke-linecap="round" stroke-linejoin="round"/>
<path d="M21.0037 7.99854V8.99895" stroke="#161924" stroke-width="1.5" stroke-linecap="round" stroke-linejoin="round"/>
<path d="M21.0038 16.0017C21.0039 16.5324 20.7932 17.0414 20.4179 17.4167C20.0426 17.7919 19.5336 18.0027 19.0029 18.0025" stroke="#161924" stroke-width="1.5" stroke-linecap="round" stroke-linejoin="round"/>
<path fill-rule="evenodd" clip-rule="evenodd" d="M14.0008 21.004H4.99705C4.46635 21.0041 3.95735 20.7933 3.58209 20.4181C3.20682 20.0428 2.99607 19.5338 2.99622 19.0031V9.99937C2.99607 9.46867 3.20682 8.95967 3.58209 8.5844C3.95735 8.20914 4.46635 7.99839 4.99705 7.99854H14.0008C14.5315 7.99839 15.0405 8.20914 15.4158 8.5844C15.791 8.95967 16.0018 9.46867 16.0016 9.99937V19.0031C16.0018 19.5338 15.791 20.0428 15.4158 20.4181C15.0405 20.7933 14.5315 21.0041 14.0008 21.004Z" stroke="#161924" stroke-width="1.5" stroke-linecap="round" stroke-linejoin="round"/>
<path d="M5.99744 11.5H13.0004" stroke="#161924" stroke-width="1.5" stroke-linecap="round" stroke-linejoin="round"/>
<path d="M5.99744 17.5024H13.0004" stroke="#161924" stroke-width="1.5" stroke-linecap="round" stroke-linejoin="round"/>
<path d="M5.99744 14.5012H13.0004" stroke="#161924" stroke-width="1.5" stroke-linecap="round" stroke-linejoin="round"/>
<path d="M7.99827 2.99634C7.46757 2.99619 6.95857 3.20695 6.58331 3.58221C6.20805 3.95747 5.99729 4.46647 5.99744 4.99717" stroke="#161924" stroke-width="1.5" stroke-linecap="round" stroke-linejoin="round"/>
<path d="M15.0012 2.9963H16.0016" stroke="#161924" stroke-width="1.5" stroke-linecap="round" stroke-linejoin="round"/>
<path d="M10.9996 2.9963H12.0001" stroke="#161924" stroke-width="1.5" stroke-linecap="round" stroke-linejoin="round"/>
</svg>
