<svg width="24" height="24" viewBox="0 0 24 24" fill="none" xmlns="http://www.w3.org/2000/svg">
<path d="M20 9.478V6C20 4.895 19.105 4 18 4H14.522H5C3.895 4 3 4.895 3 6V18C3 19.105 3.895 20 5 20H11" stroke="#161924" stroke-width="1.5" stroke-linecap="round" stroke-linejoin="round"/>
<path d="M19.1213 13.879C20.4193 15.177 20.2793 17.366 18.7033 18.473C17.7003 19.177 16.2993 19.177 15.2963 18.473C13.7193 17.367 13.5803 15.177 14.8783 13.879C16.0503 12.707 17.9503 12.707 19.1213 13.879" stroke="#161924" stroke-width="1.5" stroke-linecap="round" stroke-linejoin="round"/>
<path fill-rule="evenodd" clip-rule="evenodd" d="M11.2724 7.68701C12.3654 7.68701 13.0994 8.67601 13.0994 9.59801C13.0994 11.524 10.6134 13 10.0004 13C9.38737 13 6.90137 11.524 6.90137 9.59801C6.90137 8.67601 7.63437 7.68701 8.72837 7.68701C9.35337 7.68701 9.76337 7.98801 10.0004 8.25501C10.2374 7.98901 10.6474 7.68701 11.2724 7.68701Z" stroke="#161924" stroke-width="1.5" stroke-linecap="round" stroke-linejoin="round"/>
<path d="M21.0001 20L19.1201 18.12" stroke="#161924" stroke-width="1.5" stroke-linecap="round" stroke-linejoin="round"/>
</svg>
