<svg width="24" height="24" viewBox="0 0 24 24" fill="none" xmlns="http://www.w3.org/2000/svg">
<path d="M19.3891 11.6109C21.537 13.7588 21.537 17.2412 19.3891 19.3891C17.2412 21.537 13.7588 21.537 11.6109 19.3891C9.46303 17.2412 9.46303 13.7588 11.6109 11.6109C13.7588 9.46303 17.2412 9.46303 19.3891 11.6109" stroke="#161924" stroke-width="1.5" stroke-linecap="round" stroke-linejoin="round"/>
<path d="M12.3891 11.6109C14.537 13.7588 14.537 17.2412 12.3891 19.3891C10.2412 21.537 6.75879 21.537 4.61091 19.3891C2.46303 17.2412 2.46303 13.7588 4.61091 11.6109C6.75879 9.46303 10.2412 9.46303 12.3891 11.6109" stroke="#161924" stroke-width="1.5" stroke-linecap="round" stroke-linejoin="round"/>
<path fill-rule="evenodd" clip-rule="evenodd" d="M15 3.687C15 4.125 14.811 4.546 14.474 4.86L12.263 6.924C12.115 7.062 11.885 7.062 11.736 6.924L9.526 4.861C9.189 4.546 9 4.125 9 3.687V3.687C9 2.755 9.755 2 10.687 2H13.313C14.245 2 15 2.755 15 3.687V3.687V3.687Z" stroke="#161924" stroke-width="1.5" stroke-linecap="round" stroke-linejoin="round"/>
</svg>
