<svg width="24" height="24" viewBox="0 0 24 24" fill="none" xmlns="http://www.w3.org/2000/svg">
<path fill-rule="evenodd" clip-rule="evenodd" d="M13.6787 8.61268L11.3187 10.9777C11.1146 11.1827 10.9996 11.4609 10.9996 11.75V12.9075C10.9996 13.5117 11.4888 14.0009 12.093 14.0009H13.2555C13.5456 14.0009 13.8237 13.8859 14.0288 13.6798L16.3838 11.3198C16.808 11.4609 17.2532 11.5549 17.7244 11.5549C20.0884 11.5559 22.0042 9.6391 22.0042 7.27612C22.0042 4.91314 20.0884 2.99634 17.7244 2.99634C15.3604 2.99634 13.4446 4.91214 13.4446 7.27612C13.4446 7.74632 13.5396 8.1895 13.6787 8.61268Z" stroke="#161924" stroke-width="1.5" stroke-linecap="round" stroke-linejoin="round"/>
<path d="M21.0037 14.0009V17.0022C21.0037 19.2121 19.212 21.0038 17.0021 21.0038H6.99791C4.78799 21.0038 2.99625 19.2121 2.99625 17.0022V6.998C2.99625 4.78808 4.78799 2.99634 6.99791 2.99634H12" stroke="#161924" stroke-width="1.5" stroke-linecap="round" stroke-linejoin="round"/>
<path d="M17.7244 7.22607C17.6964 7.22607 17.6744 7.24808 17.6744 7.27609C17.6744 7.3041 17.6964 7.32611 17.7244 7.32611C17.7524 7.32611 17.7744 7.3041 17.7744 7.27609C17.7744 7.24808 17.7524 7.22607 17.7244 7.22607" stroke="#161924" stroke-width="1.5" stroke-linecap="round" stroke-linejoin="round"/>
</svg>
