<svg width="24" height="24" viewBox="0 0 24 24" fill="none" xmlns="http://www.w3.org/2000/svg">
<path fill-rule="evenodd" clip-rule="evenodd" d="M11.8449 13.5605L13.7797 15.4913C13.9477 15.6579 14.1745 15.7517 14.411 15.7524H15.3584C15.8523 15.7524 16.2528 15.352 16.2528 14.8581V13.9077C16.2523 13.6703 16.1581 13.4427 15.9907 13.2744L14.0599 11.3476C14.5973 9.78093 13.9831 8.05057 12.5782 7.17334C11.1732 6.29612 9.3489 6.50388 8.17718 7.67454C7.00547 8.8452 6.79606 10.6693 7.67201 12.0751C8.54796 13.4808 10.2778 14.0966 11.8449 13.5605Z" stroke="#161924" stroke-width="1.5" stroke-linecap="round" stroke-linejoin="round"/>
<path d="M9.99917 19.5031H3.99667" stroke="#161924" stroke-width="1.5" stroke-linecap="round" stroke-linejoin="round"/>
<path d="M14.0008 20.2746C17.7421 19.4228 20.5324 16.2936 20.9519 12.4797C21.3713 8.66572 19.3276 5.00497 15.8609 3.36054C12.3941 1.71611 8.26617 2.44933 5.57781 5.18703C2.88946 7.92472 2.23144 12.0653 3.93864 15.5016" stroke="#161924" stroke-width="1.5" stroke-linecap="round" stroke-linejoin="round"/>
<path d="M7.99832 17.5024L9.99915 19.5033L7.99832 21.5041" stroke="#161924" stroke-width="1.5" stroke-linecap="round" stroke-linejoin="round"/>
<path d="M10.6995 10.2505C10.6995 10.2781 10.7219 10.3005 10.7495 10.3005C10.7771 10.3005 10.7995 10.2781 10.7995 10.2505C10.7995 10.2228 10.7771 10.2004 10.7495 10.2004C10.7219 10.2004 10.6995 10.2228 10.6995 10.2505" stroke="#161924" stroke-width="1.5" stroke-linecap="round" stroke-linejoin="round"/>
</svg>
