<svg width="24" height="24" viewBox="0 0 24 24" fill="none" xmlns="http://www.w3.org/2000/svg">
<path d="M21.0037 14.0008V19.0029C21.0037 20.1083 20.1084 21.0037 19.0029 21.0037H4.99708C3.89162 21.0037 2.99625 20.1083 2.99625 19.0029V4.99705C2.99625 3.89159 3.89162 2.99622 4.99708 2.99622H10.9996" stroke="#161924" stroke-width="1.5" stroke-linecap="round" stroke-linejoin="round"/>
<path d="M6.99792 2.99622V21.0037" stroke="#161924" stroke-width="1.5" stroke-linecap="round" stroke-linejoin="round"/>
<path d="M18.1425 7.1219C18.1425 6.97584 18.0235 6.85779 17.8774 6.85779C17.7314 6.85879 17.6123 6.97684 17.6123 7.1229C17.6123 7.26896 17.7314 7.38801 17.8774 7.38701C18.0235 7.38701 18.1425 7.26896 18.1425 7.1219" stroke="#161924" stroke-width="1.5" stroke-linecap="round" stroke-linejoin="round"/>
<path fill-rule="evenodd" clip-rule="evenodd" d="M10.9996 11.6668L14.0408 8.61655C13.4716 7.13794 13.7767 5.39921 14.9662 4.20671C16.5759 2.59304 19.187 2.59304 20.7967 4.20671C22.4063 5.82039 22.4063 8.43648 20.7967 10.0511C19.5952 11.2557 17.8384 11.5578 16.3538 10.9665L13.3285 14.0008H10.9996V11.6668Z" stroke="#161924" stroke-width="1.5" stroke-linecap="round" stroke-linejoin="round"/>
</svg>
