<svg width="24" height="24" viewBox="0 0 24 24" fill="none" xmlns="http://www.w3.org/2000/svg">
<path d="M8 5L11.99 3H12L16 5" stroke="#161924" stroke-width="1.5" stroke-linecap="round" stroke-linejoin="round"/>
<path d="M9.005 12.833C8.913 12.833 8.838 12.908 8.839 13C8.839 13.092 8.914 13.167 9.006 13.167C9.098 13.167 9.172 13.092 9.172 13C9.172 12.908 9.098 12.833 9.005 12.833" stroke="#161924" stroke-width="1.5" stroke-linecap="round" stroke-linejoin="round"/>
<path d="M6.022 12.772C5.93 12.772 5.855 12.847 5.856 12.939C5.856 13.031 5.931 13.106 6.023 13.106C6.115 13.106 6.19 13.031 6.19 12.939C6.19 12.847 6.115 12.772 6.022 12.772" stroke="#161924" stroke-width="1.5" stroke-linecap="round" stroke-linejoin="round"/>
<path d="M15.01 16L9.00999 16.05" stroke="#161924" stroke-width="1.5" stroke-linecap="round" stroke-linejoin="round"/>
<path fill-rule="evenodd" clip-rule="evenodd" d="M18.672 20H5.333C4.046 20 3.002 18.957 3.002 17.669V11.33C3.003 10.043 4.046 9 5.333 9H18.672C19.959 9 21.003 10.043 21.003 11.331V17.67C21.003 18.957 19.959 20 18.672 20Z" stroke="#161924" stroke-width="1.5" stroke-linecap="round" stroke-linejoin="round"/>
<path d="M6.022 15.833C5.93 15.833 5.855 15.908 5.856 16C5.856 16.092 5.931 16.167 6.023 16.167C6.115 16.167 6.19 16.092 6.19 16C6.189 15.908 6.115 15.833 6.022 15.833" stroke="#161924" stroke-width="1.5" stroke-linecap="round" stroke-linejoin="round"/>
<path d="M11.988 12.894C11.896 12.894 11.821 12.969 11.822 13.061C11.822 13.153 11.897 13.228 11.989 13.228C12.081 13.228 12.156 13.153 12.156 13.061C12.156 12.969 12.08 12.894 11.988 12.894" stroke="#161924" stroke-width="1.5" stroke-linecap="round" stroke-linejoin="round"/>
<path d="M14.97 12.9549C14.878 12.9549 14.803 13.0299 14.804 13.1219C14.804 13.2139 14.879 13.2889 14.971 13.2889C15.063 13.2889 15.138 13.2139 15.138 13.1219C15.138 13.0299 15.063 12.9549 14.97 12.9549" stroke="#161924" stroke-width="1.5" stroke-linecap="round" stroke-linejoin="round"/>
<path d="M17.989 16.26C18.081 16.26 18.156 16.185 18.155 16.093C18.155 16.001 18.08 15.926 17.988 15.926C17.896 15.926 17.821 16.001 17.821 16.093C17.822 16.185 17.896 16.26 17.989 16.26" stroke="#161924" stroke-width="1.5" stroke-linecap="round" stroke-linejoin="round"/>
<path d="M17.953 13.016C17.861 13.016 17.786 13.091 17.787 13.183C17.787 13.275 17.862 13.35 17.954 13.35C18.046 13.35 18.121 13.275 18.121 13.183C18.12 13.091 18.046 13.016 17.953 13.016" stroke="#161924" stroke-width="1.5" stroke-linecap="round" stroke-linejoin="round"/>
</svg>
