<svg width="24" height="24" viewBox="0 0 24 24" fill="none" xmlns="http://www.w3.org/2000/svg">
<rect x="2.99622" y="3.99683" width="18.0075" height="16.0067" rx="5" stroke="#161924" stroke-width="1.5" stroke-linecap="round" stroke-linejoin="round"/>
<path d="M16.0016 16.5019H7.99829" stroke="#161924" stroke-width="1.5" stroke-linecap="round" stroke-linejoin="round"/>
<path d="M13.6757 12.3672C13.6757 12.4002 13.6889 12.432 13.7124 12.4552C13.7359 12.4785 13.7677 12.4915 13.8007 12.4912C13.8514 12.4912 13.8971 12.4606 13.9164 12.4138C13.9357 12.3669 13.9248 12.3131 13.8888 12.2774C13.8528 12.2417 13.7989 12.2313 13.7522 12.2509C13.7055 12.2706 13.6753 12.3165 13.6757 12.3672" stroke="#161924" stroke-width="1.5" stroke-linecap="round" stroke-linejoin="round"/>
<path d="M17.2771 12.3672C17.2771 12.4002 17.2903 12.432 17.3138 12.4552C17.3373 12.4785 17.3691 12.4915 17.4022 12.4912C17.4529 12.4912 17.4985 12.4606 17.5178 12.4138C17.5371 12.3669 17.5262 12.3131 17.4903 12.2774C17.4543 12.2417 17.4003 12.2313 17.3536 12.2509C17.3069 12.2706 17.2767 12.3165 17.2771 12.3672" stroke="#161924" stroke-width="1.5" stroke-linecap="round" stroke-linejoin="round"/>
<path d="M10.0741 12.3672C10.0741 12.4002 10.0873 12.432 10.1108 12.4552C10.1343 12.4785 10.1661 12.4915 10.1992 12.4912C10.2499 12.4912 10.2955 12.4606 10.3148 12.4138C10.3341 12.3669 10.3232 12.3131 10.2873 12.2774C10.2513 12.2417 10.1973 12.2313 10.1506 12.2509C10.1039 12.2706 10.0737 12.3165 10.0741 12.3672" stroke="#161924" stroke-width="1.5" stroke-linecap="round" stroke-linejoin="round"/>
<path d="M6.47269 12.3672C6.47269 12.4002 6.4859 12.432 6.50938 12.4552C6.53286 12.4785 6.56467 12.4915 6.59774 12.4912C6.64841 12.4912 6.69407 12.4606 6.71337 12.4138C6.73267 12.3669 6.72178 12.3131 6.68581 12.2774C6.64984 12.2417 6.59589 12.2313 6.54919 12.2509C6.5025 12.2706 6.47229 12.3165 6.47269 12.3672" stroke="#161924" stroke-width="1.5" stroke-linecap="round" stroke-linejoin="round"/>
<path d="M6.47269 8.74874C6.47269 8.81781 6.52868 8.8738 6.59774 8.8738C6.66681 8.8738 6.72279 8.81781 6.72279 8.74874C6.72279 8.67968 6.66681 8.62369 6.59774 8.62369C6.52868 8.62369 6.47269 8.67968 6.47269 8.74874" stroke="#161924" stroke-width="1.5" stroke-linecap="round" stroke-linejoin="round"/>
<path d="M10.0743 8.74874C10.0743 8.81781 10.1302 8.8738 10.1993 8.8738C10.2684 8.8738 10.3244 8.81781 10.3244 8.74874C10.3244 8.67968 10.2684 8.62369 10.1993 8.62369C10.1302 8.62369 10.0743 8.67968 10.0743 8.74874" stroke="#161924" stroke-width="1.5" stroke-linecap="round" stroke-linejoin="round"/>
<path d="M13.6757 8.74874C13.6757 8.81781 13.7317 8.8738 13.8007 8.8738C13.8698 8.8738 13.9258 8.81781 13.9258 8.74874C13.9258 8.67968 13.8698 8.62369 13.8007 8.62369C13.7317 8.62369 13.6757 8.67968 13.6757 8.74874" stroke="#161924" stroke-width="1.5" stroke-linecap="round" stroke-linejoin="round"/>
<path d="M17.2771 8.74874C17.2771 8.81781 17.3331 8.8738 17.4022 8.8738C17.4713 8.8738 17.5272 8.81781 17.5272 8.74874C17.5272 8.67968 17.4713 8.62369 17.4022 8.62369C17.3331 8.62369 17.2771 8.67968 17.2771 8.74874" stroke="#161924" stroke-width="1.5" stroke-linecap="round" stroke-linejoin="round"/>
</svg>
