<svg width="24" height="24" viewBox="0 0 24 24" fill="none" xmlns="http://www.w3.org/2000/svg">
<path d="M16 19L12.01 21H12L8 19" stroke="#161924" stroke-width="1.5" stroke-linecap="round" stroke-linejoin="round"/>
<path d="M8.999 7.833C8.907 7.833 8.833 7.908 8.833 8C8.833 8.092 8.908 8.167 9 8.167C9.092 8.167 9.167 8.092 9.167 8C9.167 7.908 9.092 7.833 8.999 7.833" stroke="#161924" stroke-width="1.5" stroke-linecap="round" stroke-linejoin="round"/>
<path d="M6.01701 7.77196C5.92501 7.77196 5.85001 7.84696 5.85101 7.93896C5.85101 8.03096 5.92601 8.10596 6.01801 8.10596C6.11001 8.10596 6.18501 8.03096 6.18501 7.93896C6.18501 7.84696 6.10901 7.77196 6.01701 7.77196" stroke="#161924" stroke-width="1.5" stroke-linecap="round" stroke-linejoin="round"/>
<path d="M15 11L9 11.05" stroke="#161924" stroke-width="1.5" stroke-linecap="round" stroke-linejoin="round"/>
<path fill-rule="evenodd" clip-rule="evenodd" d="M18.667 15H5.32801C4.04101 15 2.99701 13.957 2.99701 12.669V6.33C2.99701 5.043 4.04101 4 5.32801 4H18.667C19.954 4 20.998 5.043 20.998 6.331V12.67C20.997 13.957 19.954 15 18.667 15Z" stroke="#161924" stroke-width="1.5" stroke-linecap="round" stroke-linejoin="round"/>
<path d="M6.01702 10.833C5.92502 10.833 5.85002 10.908 5.85102 11C5.85102 11.092 5.92602 11.167 6.01802 11.167C6.11002 11.167 6.18402 11.092 6.18402 11C6.18402 10.908 6.10902 10.833 6.01702 10.833" stroke="#161924" stroke-width="1.5" stroke-linecap="round" stroke-linejoin="round"/>
<path d="M11.982 7.89404C11.89 7.89404 11.815 7.96904 11.816 8.06104C11.816 8.15304 11.891 8.22804 11.983 8.22804C12.075 8.22804 12.15 8.15304 12.15 8.06104C12.149 7.96904 12.075 7.89404 11.982 7.89404" stroke="#161924" stroke-width="1.5" stroke-linecap="round" stroke-linejoin="round"/>
<path d="M14.965 7.95495C14.873 7.95495 14.798 8.02995 14.799 8.12195C14.799 8.21395 14.874 8.28895 14.966 8.28895C15.058 8.28895 15.133 8.21395 15.133 8.12195C15.132 8.02995 15.057 7.95495 14.965 7.95495" stroke="#161924" stroke-width="1.5" stroke-linecap="round" stroke-linejoin="round"/>
<path d="M17.983 11.26C18.075 11.26 18.15 11.185 18.149 11.093C18.149 11.001 18.074 10.926 17.982 10.926C17.89 10.926 17.815 11.001 17.815 11.093C17.815 11.185 17.891 11.26 17.983 11.26" stroke="#161924" stroke-width="1.5" stroke-linecap="round" stroke-linejoin="round"/>
<path d="M17.947 8.01598C17.855 8.01598 17.78 8.09098 17.781 8.18298C17.781 8.27498 17.856 8.34998 17.948 8.34998C18.04 8.34998 18.115 8.27498 18.115 8.18298C18.115 8.09098 18.04 8.01598 17.947 8.01598" stroke="#161924" stroke-width="1.5" stroke-linecap="round" stroke-linejoin="round"/>
</svg>
