<svg width="24" height="24" viewBox="0 0 24 24" fill="none" xmlns="http://www.w3.org/2000/svg">
<path d="M7.99835 17.5024L9.99919 19.5033L7.99835 21.5041" stroke="#161924" stroke-width="1.5" stroke-linecap="round" stroke-linejoin="round"/>
<path d="M9.99914 19.5031H3.99664" stroke="#161924" stroke-width="1.5" stroke-linecap="round" stroke-linejoin="round"/>
<path d="M13.9984 20.277C17.7387 19.4254 20.5285 16.2969 20.9478 12.4838C21.3672 8.67071 19.3239 5.01079 15.858 3.36671C12.3921 1.72264 8.26501 2.45567 5.57724 5.19274C2.88948 7.92981 2.23158 12.0695 3.93837 15.505" stroke="#161924" stroke-width="1.5" stroke-linecap="round" stroke-linejoin="round"/>
<path fill-rule="evenodd" clip-rule="evenodd" d="M7.9248 11.3491V9.49888C7.9248 8.39385 8.82061 7.49805 9.92564 7.49805H11.7753C12.3059 7.49805 12.8148 7.70883 13.19 8.08402L16.0678 10.9615C16.443 11.3368 16.6538 11.8457 16.6538 12.3764C16.6538 12.9071 16.443 13.416 16.0678 13.7912L14.2174 15.6415C13.8421 16.0167 13.3332 16.2275 12.8025 16.2275C12.2718 16.2275 11.7629 16.0166 11.3877 15.6413L8.5107 12.7637C8.13555 12.3885 7.9248 11.8796 7.9248 11.3491Z" stroke="#161924" stroke-width="1.5" stroke-linecap="round" stroke-linejoin="round"/>
<path d="M10.8094 10.2832C10.8094 10.3108 10.787 10.3332 10.7594 10.3332C10.7317 10.3332 10.7093 10.3108 10.7093 10.2832C10.7093 10.2555 10.7317 10.2331 10.7594 10.2331" stroke="#161924" stroke-width="1.5" stroke-linecap="round" stroke-linejoin="round"/>
<path d="M10.7594 10.2333C10.7726 10.2333 10.7854 10.2385 10.7947 10.2479C10.8041 10.2573 10.8094 10.27 10.8094 10.2833" stroke="#161924" stroke-width="1.5" stroke-linecap="round" stroke-linejoin="round"/>
</svg>
