<svg width="24" height="24" viewBox="0 0 24 24" fill="none" xmlns="http://www.w3.org/2000/svg">
<path d="M14.6893 15.8164H9.31311" stroke="#161924" stroke-width="1.5" stroke-linecap="round" stroke-linejoin="round"/>
<path fill-rule="evenodd" clip-rule="evenodd" d="M9.0688 15.5665C7.25847 14.2888 6.48406 11.9859 7.15458 9.87403C7.82509 7.76216 9.78611 6.32773 12.0019 6.32837C14.2176 6.32901 16.1778 7.76458 16.8471 9.87685C17.5164 11.9891 16.7407 14.2916 14.9296 15.5682C14.6927 15.7267 14.5482 15.9908 14.5423 16.2758V18.6206C14.5424 19.1825 14.3192 19.7214 13.9219 20.1187C13.5246 20.5161 12.9857 20.7392 12.4238 20.7392H11.5763C11.0144 20.7392 10.4755 20.5161 10.0782 20.1187C9.68086 19.7214 9.45768 19.1825 9.45776 18.6206V16.2792C9.45214 15.9924 9.30696 15.7264 9.0688 15.5665Z" stroke="#161924" stroke-width="1.5" stroke-linecap="round" stroke-linejoin="round"/>
<path d="M18.3666 5.36865L17.73 6.0053" stroke="#161924" stroke-width="1.5" stroke-linecap="round" stroke-linejoin="round"/>
<path d="M6.27008 17.4653L5.63341 18.102" stroke="#161924" stroke-width="1.5" stroke-linecap="round" stroke-linejoin="round"/>
<path d="M21.0037 11.7353H20.1034" stroke="#161924" stroke-width="1.5" stroke-linecap="round" stroke-linejoin="round"/>
<path d="M3.89662 11.7353H2.99625" stroke="#161924" stroke-width="1.5" stroke-linecap="round" stroke-linejoin="round"/>
<path d="M18.3666 18.102L17.73 17.4653" stroke="#161924" stroke-width="1.5" stroke-linecap="round" stroke-linejoin="round"/>
<path d="M6.27001 6.00531L5.63336 5.36864" stroke="#161924" stroke-width="1.5" stroke-linecap="round" stroke-linejoin="round"/>
<path d="M12 3.63204V2.73166" stroke="#161924" stroke-width="1.5" stroke-linecap="round" stroke-linejoin="round"/>
</svg>
