<svg width="24" height="24" viewBox="0 0 24 24" fill="none" xmlns="http://www.w3.org/2000/svg">
<path d="M13.6747 13.426H10.3253" stroke="#161924" stroke-width="1.5" stroke-linecap="round" stroke-linejoin="round"/>
<path fill-rule="evenodd" clip-rule="evenodd" d="M10.1672 13.272C9.03522 12.4737 8.55062 11.0342 8.96938 9.71382C9.38813 8.39345 10.6138 7.49634 11.999 7.49634C13.3842 7.49634 14.6098 8.39345 15.0286 9.71382C15.4474 11.0342 14.9627 12.4737 13.8307 13.272C13.6825 13.3709 13.5921 13.5361 13.5886 13.7142V15.1798C13.5886 15.9114 12.9956 16.5044 12.2641 16.5044H11.7339C11.0023 16.5044 10.4093 15.9114 10.4093 15.1798V13.7172C10.4072 13.5379 10.3166 13.3713 10.1672 13.272V13.272Z" stroke="#161924" stroke-width="1.5" stroke-linecap="round" stroke-linejoin="round"/>
<path d="M13.0004 20.9418C12.6685 20.983 12.3344 21.0038 12 21.0038C7.02733 21.0038 2.99622 16.9727 2.99622 12.0001C2.99622 7.02745 7.02733 2.99634 12 2.99634C16.9726 2.99634 21.0037 7.02745 21.0037 12.0001C21.0037 12.3345 20.9828 12.6686 20.9417 13.0005" stroke="#161924" stroke-width="1.5" stroke-linecap="round" stroke-linejoin="round"/>
<path d="M20.0034 17.0022L17.5023 19.5032L16.0017 18.0026" stroke="#161924" stroke-width="1.5" stroke-linecap="round" stroke-linejoin="round"/>
</svg>
