<svg width="24" height="24" viewBox="0 0 24 24" fill="none" xmlns="http://www.w3.org/2000/svg">
<path d="M19.075 18.684L16.95 14.434L14.825 18.684" stroke="#161924" stroke-width="1.5" stroke-linecap="round" stroke-linejoin="round"/>
<path d="M15.2 17.934H18.7" stroke="#161924" stroke-width="1.5" stroke-linecap="round" stroke-linejoin="round"/>
<path fill-rule="evenodd" clip-rule="evenodd" d="M16.95 22V22C14.161 22 11.9 19.739 11.9 16.95V16.95C11.9 14.161 14.161 11.9 16.95 11.9V11.9C19.739 11.9 22 14.161 22 16.95V16.95C22 19.739 19.739 22 16.95 22Z" stroke="#161924" stroke-width="1.5" stroke-linecap="round" stroke-linejoin="round"/>
<path fill-rule="evenodd" clip-rule="evenodd" d="M5.09998 2.09998H8.99998C10.657 2.09998 12 3.44298 12 5.09998V8.99998C12 10.657 10.657 12 8.99998 12H5.09998C3.44298 12 2.09998 10.657 2.09998 8.99998V5.09998C2.09998 3.44298 3.44298 2.09998 5.09998 2.09998Z" stroke="#161924" stroke-width="1.5" stroke-linecap="round" stroke-linejoin="round"/>
<path d="M9.07003 5.92993H5.03003" stroke="#161924" stroke-width="1.5" stroke-linecap="round" stroke-linejoin="round"/>
<path d="M7.04993 5.24997V5.92997" stroke="#161924" stroke-width="1.5" stroke-linecap="round" stroke-linejoin="round"/>
<path d="M8.06202 5.92493C8.06202 7.66493 6.70202 9.07493 5.02502 9.07493" stroke="#161924" stroke-width="1.5" stroke-linecap="round" stroke-linejoin="round"/>
<path d="M9.07501 9.07495C8.34701 9.07495 7.69601 8.68695 7.23401 8.07495" stroke="#161924" stroke-width="1.5" stroke-linecap="round" stroke-linejoin="round"/>
<path d="M14.5649 4.91602H16.0309C18.0549 4.91602 19.6949 6.55702 19.6949 8.58002" stroke="#161924" stroke-width="1.5" stroke-linecap="round" stroke-linejoin="round"/>
<path d="M14.5649 4.91602L15.6639 6.01502" stroke="#161924" stroke-width="1.5" stroke-linecap="round" stroke-linejoin="round"/>
<path d="M15.6639 3.81604L14.5649 4.91504" stroke="#161924" stroke-width="1.5" stroke-linecap="round" stroke-linejoin="round"/>
<path d="M9.43505 19.084H7.96905C5.94505 19.084 4.30505 17.443 4.30505 15.42" stroke="#161924" stroke-width="1.5" stroke-linecap="round" stroke-linejoin="round"/>
<path d="M9.43506 19.084L8.33606 17.985" stroke="#161924" stroke-width="1.5" stroke-linecap="round" stroke-linejoin="round"/>
<path d="M8.33606 20.184L9.43506 19.085" stroke="#161924" stroke-width="1.5" stroke-linecap="round" stroke-linejoin="round"/>
</svg>
