<svg width="24" height="24" viewBox="0 0 24 24" fill="none" xmlns="http://www.w3.org/2000/svg">
<path d="M20.0037 12V12.5002C20.0037 13.3289 19.3319 14.0008 18.5031 14.0008H5.4977C4.66892 14.0008 3.99707 13.3289 3.99707 12.5002V4.99705C3.99707 3.89202 4.89287 2.99622 5.9979 2.99622H8.99915" stroke="#161924" stroke-width="1.5" stroke-linecap="round" stroke-linejoin="round"/>
<path d="M14.0014 1.99585L13.2491 3.99668" stroke="#161924" stroke-width="1.5" stroke-linecap="round" stroke-linejoin="round"/>
<path d="M19.0033 3.99668L18.251 1.99585" stroke="#161924" stroke-width="1.5" stroke-linecap="round" stroke-linejoin="round"/>
<path fill-rule="evenodd" clip-rule="evenodd" d="M13.0014 3.9967C12.6989 3.9967 12.4126 4.13358 12.2227 4.36903C12.0328 4.60448 11.9596 4.91322 12.0237 5.20887L12.6736 8.21012C12.7733 8.67036 13.1804 8.99879 13.6514 8.99879H18.3531C18.824 8.99879 19.2312 8.67037 19.3309 8.21013L19.9809 5.20888C20.0449 4.91323 19.9717 4.60449 19.7818 4.36903C19.5919 4.13358 19.3056 3.9967 19.0031 3.9967H13.0014Z" stroke="#161924" stroke-width="1.5" stroke-linecap="round" stroke-linejoin="round"/>
<path fill-rule="evenodd" clip-rule="evenodd" d="M19.0026 21.0038H4.99862C4.37088 21.0038 3.77954 20.7091 3.40151 20.208C3.02347 19.7068 2.90259 19.0573 3.07501 18.4537L4.13977 14.7265C4.26246 14.297 4.65504 14.0009 5.10173 14.0009H18.8995C19.3462 14.0009 19.7387 14.297 19.8614 14.7265L20.9262 18.4537C21.0986 19.0573 20.9777 19.7068 20.5997 20.208C20.2217 20.7091 19.6303 21.0038 19.0026 21.0038Z" stroke="#161924" stroke-width="1.5" stroke-linecap="round" stroke-linejoin="round"/>
<path d="M9.99902 18.0025H14.0007" stroke="#161924" stroke-width="1.5" stroke-linecap="round" stroke-linejoin="round"/>
</svg>
