<svg width="24" height="24" viewBox="0 0 24 24" fill="none" xmlns="http://www.w3.org/2000/svg">
<path fill-rule="evenodd" clip-rule="evenodd" d="M20.0032 17.0021H16.5367C16.2023 17.002 15.89 17.1691 15.7044 17.4473L15.2982 18.0565C15.1126 18.3347 14.8003 18.5018 14.4659 18.5017H9.53382C9.1994 18.5018 8.88707 18.3347 8.70147 18.0565L8.2983 17.4473C8.11192 17.1679 7.79779 17.0007 7.46195 17.0021H3.99651C3.444 17.0021 2.99609 17.45 2.99609 18.0025V19.0029C2.99609 20.108 3.8919 21.0038 4.99693 21.0038H19.0028C20.1078 21.0038 21.0036 20.108 21.0036 19.0029V18.0025C21.0036 17.45 20.5557 17.0021 20.0032 17.0021Z" stroke="#161924" stroke-width="1.5" stroke-linecap="round" stroke-linejoin="round"/>
<path d="M20.0031 17.002V13.0004" stroke="#161924" stroke-width="1.5" stroke-linecap="round" stroke-linejoin="round"/>
<path d="M3.99707 17.0021V6.9979C3.99707 5.89287 4.89287 4.99707 5.9979 4.99707H8.99915" stroke="#161924" stroke-width="1.5" stroke-linecap="round" stroke-linejoin="round"/>
<path d="M14.0014 3.49646L13.2491 5.49729" stroke="#161924" stroke-width="1.5" stroke-linecap="round" stroke-linejoin="round"/>
<path d="M19.0033 5.49729L18.251 3.49646" stroke="#161924" stroke-width="1.5" stroke-linecap="round" stroke-linejoin="round"/>
<path fill-rule="evenodd" clip-rule="evenodd" d="M13.0014 5.49731C12.6989 5.49731 12.4126 5.63419 12.2227 5.86964C12.0328 6.10509 11.9596 6.41383 12.0237 6.70948L12.6736 9.71073C12.7733 10.171 13.1804 10.4994 13.6514 10.4994H18.3531C18.824 10.4994 19.2312 10.171 19.3309 9.71074L19.9809 6.70949C20.0449 6.41384 19.9717 6.1051 19.7818 5.86964C19.5919 5.63419 19.3056 5.49731 19.0031 5.49731H13.0014Z" stroke="#161924" stroke-width="1.5" stroke-linecap="round" stroke-linejoin="round"/>
</svg>
