<svg width="24" height="24" viewBox="0 0 24 24" fill="none" xmlns="http://www.w3.org/2000/svg">
<path d="M18.5026 14.0008H5.49721C4.66843 14.0008 3.99658 13.3289 3.99658 12.5002V4.99705C3.99658 3.89202 4.89239 2.99622 5.99742 2.99622H8.99867" stroke="#161924" stroke-width="1.5" stroke-linecap="round" stroke-linejoin="round"/>
<path fill-rule="evenodd" clip-rule="evenodd" d="M19.0021 21.0038H4.99814C4.3704 21.0038 3.77905 20.7091 3.40102 20.208C3.02298 19.7068 2.9021 19.0573 3.07452 18.4537L4.13928 14.7265C4.26198 14.297 4.65455 14.0009 5.10124 14.0009H18.899C19.3457 14.0009 19.7382 14.297 19.8609 14.7265L20.9257 18.4537C21.0981 19.0573 20.9772 19.7068 20.5992 20.208C20.2212 20.7091 19.6298 21.0038 19.0021 21.0038Z" stroke="#161924" stroke-width="1.5" stroke-linecap="round" stroke-linejoin="round"/>
<path d="M14.0012 9.99919V5.49731" stroke="#161924" stroke-width="1.5" stroke-linecap="round" stroke-linejoin="round"/>
<path d="M17.0022 9.99919V5.49731" stroke="#161924" stroke-width="1.5" stroke-linecap="round" stroke-linejoin="round"/>
<path d="M20.0036 9.99919V5.49731" stroke="#161924" stroke-width="1.5" stroke-linecap="round" stroke-linejoin="round"/>
<path d="M13.0005 9.99911H21.0038" stroke="#161924" stroke-width="1.5" stroke-linecap="round" stroke-linejoin="round"/>
<path fill-rule="evenodd" clip-rule="evenodd" d="M13.0005 3.64654V5.49731H21.0038V3.64654L17.0022 1.99585L13.0005 3.64654Z" stroke="#161924" stroke-width="1.5" stroke-linecap="round" stroke-linejoin="round"/>
<path d="M9.99951 18.0025H14.0012" stroke="#161924" stroke-width="1.5" stroke-linecap="round" stroke-linejoin="round"/>
</svg>
