<svg width="24" height="24" viewBox="0 0 24 24" fill="none" xmlns="http://www.w3.org/2000/svg">
<path fill-rule="evenodd" clip-rule="evenodd" d="M19.0032 17.0021H15.5367C15.2023 17.002 14.89 17.1691 14.7044 17.4473L14.2982 18.0565C14.1126 18.3347 13.8003 18.5017 13.4659 18.5017H8.53382C8.1994 18.5017 7.88707 18.3347 7.70147 18.0565L7.2953 17.4473C7.10929 17.169 6.79665 17.002 6.46195 17.0021H2.99651C2.44408 17.0023 1.99629 17.4501 1.99609 18.0025V19.0029C1.99609 19.5336 2.2067 20.0426 2.58196 20.4179C2.95722 20.7931 3.46623 21.0039 3.99693 21.0037H18.0028C18.5335 21.0039 19.0425 20.7931 19.4177 20.4179C19.793 20.0426 20.0036 19.5336 20.0036 19.0029V18.0025C20.0034 17.4501 19.5556 17.0023 19.0032 17.0021V17.0021Z" stroke="#161924" stroke-width="1.5" stroke-linecap="round" stroke-linejoin="round"/>
<path d="M19.0031 17.0021V13.0004" stroke="#161924" stroke-width="1.5" stroke-linecap="round" stroke-linejoin="round"/>
<path fill-rule="evenodd" clip-rule="evenodd" d="M14.5015 9.99915V11.4988C14.5015 11.6918 14.6126 11.8677 14.7869 11.9505C14.9613 12.0334 15.1678 12.0086 15.3175 11.8866L17.6354 9.99915H20.0037C21.1088 9.99915 22.0046 9.10335 22.0046 7.99832V3.99665C22.0046 2.89162 21.1088 1.99582 20.0037 1.99582H13.0008C11.8958 1.99582 11 2.89162 11 3.99665V7.99832C11 9.10335 11.8958 9.99915 13.0008 9.99915H14.5015Z" stroke="#161924" stroke-width="1.5" stroke-linecap="round" stroke-linejoin="round"/>
<path d="M2.99609 17.0021V6.9979C2.99595 6.46721 3.2067 5.9582 3.58196 5.58294C3.95722 5.20768 4.46623 4.99692 4.99693 4.99707H7.99818" stroke="#161924" stroke-width="1.5" stroke-linecap="round" stroke-linejoin="round"/>
</svg>
