<svg width="24" height="24" viewBox="0 0 24 24" fill="none" xmlns="http://www.w3.org/2000/svg">
<path fill-rule="evenodd" clip-rule="evenodd" d="M18.5028 17.0021H15.0363C14.7019 17.002 14.3896 17.1691 14.204 17.4473L13.7978 18.0565C13.6122 18.3347 13.2999 18.5017 12.9655 18.5017H9.03382C8.6994 18.5017 8.38707 18.3347 8.20147 18.0565L7.7953 17.4473C7.60929 17.169 7.29665 17.002 6.96195 17.0021H3.49651C2.94408 17.0023 2.49629 17.4501 2.49609 18.0025V19.0029C2.49609 19.5334 2.70655 20.0423 3.08157 20.4175C3.45659 20.7927 3.96532 21.0036 4.49583 21.0037H17.5023C18.0329 21.0039 18.5417 20.7933 18.9169 20.4183C19.2922 20.0432 19.5032 19.5345 19.5032 19.004V18.0025C19.503 17.4501 19.0552 17.0023 18.5028 17.0021V17.0021Z" stroke="#161924" stroke-width="1.5" stroke-linecap="round" stroke-linejoin="round"/>
<path d="M18.5031 17.0021V14.0009" stroke="#161924" stroke-width="1.5" stroke-linecap="round" stroke-linejoin="round"/>
<path fill-rule="evenodd" clip-rule="evenodd" d="M11.2917 10.9995H19.9623C20.4045 10.9995 20.8285 10.8237 21.1411 10.5109C21.4537 10.1982 21.6292 9.77403 21.629 9.33185V4.66391C21.629 4.22157 21.4535 3.79732 21.1407 3.48454C20.8279 3.17176 20.4037 2.9961 19.9613 2.99622H11.2907C10.8485 2.99631 10.4245 3.17207 10.1119 3.48484C9.79936 3.7976 9.62385 4.22173 9.62402 4.66391V9.33286C9.62402 9.77503 9.79988 10.1991 10.1126 10.5116C10.4254 10.8242 10.8495 10.9997 11.2917 10.9995V10.9995Z" stroke="#161924" stroke-width="1.5" stroke-linecap="round" stroke-linejoin="round"/>
<circle cx="15.6266" cy="6.998" r="1.50063" stroke="#161924" stroke-width="1.5" stroke-linecap="round" stroke-linejoin="round"/>
<path d="M3.49609 17.0021V6.9979C3.49595 6.46739 3.70655 5.95856 4.08157 5.58333C4.45659 5.2081 4.96532 4.99721 5.49583 4.99707H6.99755" stroke="#161924" stroke-width="1.5" stroke-linecap="round" stroke-linejoin="round"/>
</svg>
