<svg width="24" height="24" viewBox="0 0 24 24" fill="none" xmlns="http://www.w3.org/2000/svg">
<path d="M18.5031 14.0008H5.4977C4.66892 14.0008 3.99707 13.3289 3.99707 12.5002V4.99705C3.99707 3.89202 4.89287 2.99622 5.9979 2.99622H8.99915" stroke="#161924" stroke-width="1.5" stroke-linecap="round" stroke-linejoin="round"/>
<path fill-rule="evenodd" clip-rule="evenodd" d="M19.0026 21.0038H4.99862C4.37088 21.0038 3.77954 20.7091 3.40151 20.208C3.02347 19.7068 2.90259 19.0573 3.07501 18.4537L4.13977 14.7265C4.26246 14.297 4.65504 14.0009 5.10173 14.0009H18.8995C19.3462 14.0009 19.7387 14.297 19.8614 14.7265L20.9262 18.4537C21.0986 19.0573 20.9777 19.7068 20.5997 20.208C20.2217 20.7091 19.6303 21.0038 19.0026 21.0038Z" stroke="#161924" stroke-width="1.5" stroke-linecap="round" stroke-linejoin="round"/>
<path d="M7.99805 9.99917H8.99846" stroke="#161924" stroke-width="1.5" stroke-linecap="round" stroke-linejoin="round"/>
<path d="M6.99805 6.99789H8.99888" stroke="#161924" stroke-width="1.5" stroke-linecap="round" stroke-linejoin="round"/>
<rect x="12" y="2.99622" width="9.00375" height="7.00292" rx="2" stroke="#161924" stroke-width="1.5" stroke-linecap="round" stroke-linejoin="round"/>
<path d="M14.501 5.49731L16.0075 6.36528C16.3134 6.54188 16.6903 6.54188 16.9962 6.36528L18.5026 5.49731" stroke="#161924" stroke-width="1.5" stroke-linecap="round" stroke-linejoin="round"/>
<path d="M9.99902 18.0025H14.0007" stroke="#161924" stroke-width="1.5" stroke-linecap="round" stroke-linejoin="round"/>
</svg>
