<svg width="24" height="24" viewBox="0 0 24 24" fill="none" xmlns="http://www.w3.org/2000/svg">
<path fill-rule="evenodd" clip-rule="evenodd" d="M18.5028 17.0021H15.0363C14.7019 17.002 14.3896 17.1691 14.204 17.4473L13.7978 18.0565C13.6122 18.3347 13.2999 18.5017 12.9655 18.5017H9.03382C8.6994 18.5017 8.38707 18.3347 8.20147 18.0565L7.7953 17.4473C7.60929 17.169 7.29665 17.002 6.96195 17.0021H3.49651C2.94408 17.0023 2.49629 17.4501 2.49609 18.0025V19.0029C2.49609 19.5336 2.7067 20.0426 3.08196 20.4179C3.45722 20.7931 3.96623 21.0039 4.49693 21.0037H17.5023C18.033 21.0039 18.542 20.7931 18.9173 20.4179C19.2926 20.0426 19.5032 19.5336 19.5032 19.0029V18.0025C19.503 17.4501 19.0552 17.0023 18.5028 17.0021V17.0021Z" stroke="#161924" stroke-width="1.5" stroke-linecap="round" stroke-linejoin="round"/>
<path d="M14.0012 10.9996V6.41772" stroke="#161924" stroke-width="1.5" stroke-linecap="round" stroke-linejoin="round"/>
<path d="M17.0022 10.9996V6.41772" stroke="#161924" stroke-width="1.5" stroke-linecap="round" stroke-linejoin="round"/>
<path d="M20.0036 10.9996V6.41772" stroke="#161924" stroke-width="1.5" stroke-linecap="round" stroke-linejoin="round"/>
<path d="M13.0005 10.9996H21.0038" stroke="#161924" stroke-width="1.5" stroke-linecap="round" stroke-linejoin="round"/>
<path fill-rule="evenodd" clip-rule="evenodd" d="M13.0005 6.41764H21.0038V4.6339L17.0022 2.99622L13.0005 4.6339V6.41764Z" stroke="#161924" stroke-width="1.5" stroke-linecap="round" stroke-linejoin="round"/>
<path d="M18.5026 17.0021V14.0009" stroke="#161924" stroke-width="1.5" stroke-linecap="round" stroke-linejoin="round"/>
<path d="M3.49658 17.0021V6.9979C3.49644 6.46721 3.70719 5.9582 4.08245 5.58294C4.45771 5.20768 4.96672 4.99692 5.49742 4.99707H9.99929" stroke="#161924" stroke-width="1.5" stroke-linecap="round" stroke-linejoin="round"/>
</svg>
