<svg width="24" height="24" viewBox="0 0 24 24" fill="none" xmlns="http://www.w3.org/2000/svg">
<path d="M14 18H20C21.1046 18 22 17.1046 22 16V11C22 9.89543 21.1046 9 20 9H12C10.8954 9 10 9.89543 10 11V12" stroke="#161924" stroke-width="1.5" stroke-linecap="round" stroke-linejoin="round"/>
<path d="M19 9V5C19 3.89543 18.1046 3 17 3H7C5.89543 3 5 3.89543 5 5V12" stroke="#161924" stroke-width="1.5" stroke-linecap="round" stroke-linejoin="round"/>
<path fill-rule="evenodd" clip-rule="evenodd" d="M3 14.25V18.75C3 19.9926 4.00736 21 5.25 21H11.75C12.9926 21 14 19.9926 14 18.75V14.25C14 13.0074 12.9926 12 11.75 12H5.25C4.00736 12 3 13.0074 3 14.25Z" stroke="#161924" stroke-width="1.5" stroke-linecap="round" stroke-linejoin="round"/>
<path d="M6 15.5L7.98914 16.3908C8.31419 16.5364 8.6859 16.5364 9.01095 16.3908L11 15.5" stroke="#161924" stroke-width="1.5" stroke-linecap="round" stroke-linejoin="round"/>
</svg>
