<svg width="24" height="24" viewBox="0 0 24 24" fill="none" xmlns="http://www.w3.org/2000/svg">
<path d="M4 9V5C4 3.89543 4.89543 3 6 3H19C20.1046 3 21 3.89543 21 5V19C21 20.1046 20.1046 21 19 21H15" stroke="#161924" stroke-width="1.5" stroke-linecap="round" stroke-linejoin="round"/>
<path d="M17 8H10" stroke="#161924" stroke-width="1.5" stroke-linecap="round" stroke-linejoin="round"/>
<path d="M17 12H15" stroke="#161924" stroke-width="1.5" stroke-linecap="round" stroke-linejoin="round"/>
<path d="M17 16H16" stroke="#161924" stroke-width="1.5" stroke-linecap="round" stroke-linejoin="round"/>
<path fill-rule="evenodd" clip-rule="evenodd" d="M4 21H10C11.1046 21 12 20.1046 12 19V14.875C12 14.1854 11.6448 13.5445 11.06 13.179L8.06 11.304C7.41146 10.8987 6.58854 10.8987 5.94 11.304L2.94 13.179C2.35524 13.5445 2 14.1854 2 14.875V19C2 20.1046 2.89543 21 4 21Z" stroke="#161924" stroke-width="1.5" stroke-linecap="round" stroke-linejoin="round"/>
<path d="M9 15.5L7.5 16.366C7.1906 16.5447 6.8094 16.5447 6.5 16.366L5 15.5" stroke="#161924" stroke-width="1.5" stroke-linecap="round" stroke-linejoin="round"/>
</svg>
