<svg width="24" height="24" viewBox="0 0 24 24" fill="none" xmlns="http://www.w3.org/2000/svg">
<path d="M16 21H18C19.6569 21 21 19.6569 21 18V8.50931C21 7.71366 20.6839 6.95061 20.1213 6.388L17.612 3.87868C17.0494 3.31607 16.2863 3 15.4907 3H7C5.34315 3 4 4.34315 4 6V9" stroke="#161924" stroke-width="1.5" stroke-linecap="round" stroke-linejoin="round"/>
<path d="M21 8.5H17.5C16.3954 8.5 15.5 7.60457 15.5 6.5V3" stroke="#161924" stroke-width="1.5" stroke-linecap="round" stroke-linejoin="round"/>
<path fill-rule="evenodd" clip-rule="evenodd" d="M11 21H5C3.89543 21 3 20.1046 3 19V14.875C3 14.1854 3.35524 13.5445 3.94 13.179L6.94 11.304C7.58854 10.8987 8.41146 10.8987 9.06 11.304L12.06 13.179C12.6448 13.5445 13 14.1854 13 14.875V19C13 20.1046 12.1046 21 11 21Z" stroke="#161924" stroke-width="1.5" stroke-linecap="round" stroke-linejoin="round"/>
<path d="M6 15.5L7.5 16.366C7.8094 16.5447 8.1906 16.5447 8.5 16.366L10 15.5" stroke="#161924" stroke-width="1.5" stroke-linecap="round" stroke-linejoin="round"/>
</svg>
