<svg width="24" height="24" viewBox="0 0 24 24" fill="none" xmlns="http://www.w3.org/2000/svg">
<path d="M18.7559 11.3566V4.4C18.7559 3.6268 18.1291 3 17.3559 3H6.15586C5.38266 3 4.75586 3.6268 4.75586 4.4V10.9829" stroke="#161924" stroke-width="1.5" stroke-linecap="round" stroke-linejoin="round"/>
<path fill-rule="evenodd" clip-rule="evenodd" d="M21.0003 11.6631C21.0002 11.2825 20.7842 10.935 20.443 10.7665C20.1017 10.598 19.6944 10.6378 19.3923 10.8692L13.2417 15.5791C12.509 16.1403 11.4909 16.1403 10.7582 15.5791C10.7582 15.5791 6.87678 12.6068 4.60473 10.8671C4.30249 10.6363 3.89532 10.5971 3.55464 10.7662C3.21395 10.9353 2.9989 11.2833 3 11.6636V19C3 20.1046 3.89543 21 5 21H19C20.1046 21 21 20.1046 21 19C21 19 21 14.416 21.0003 11.6631Z" stroke="#161924" stroke-width="1.5" stroke-linecap="round" stroke-linejoin="round"/>
<path d="M13.5 8.5L11.5 10L10.5 9.25" stroke="#161924" stroke-width="1.5" stroke-linecap="round" stroke-linejoin="round"/>
</svg>
