<svg width="24" height="24" viewBox="0 0 24 24" fill="none" xmlns="http://www.w3.org/2000/svg">
<circle cx="19" cy="5" r="2" stroke="#161924" stroke-width="1.5" stroke-linecap="round" stroke-linejoin="round"/>
<path d="M14.1111 2.77935C13.4204 2.60579 12.7121 2.51206 12 2.5C6.75329 2.5 2.5 6.75329 2.5 12C2.5 17.2467 6.75329 21.5 12 21.5C17.2467 21.5 21.5 17.2467 21.5 12C21.4879 11.2879 21.3942 10.5796 21.2206 9.88889" stroke="#161924" stroke-width="1.5" stroke-linecap="round" stroke-linejoin="round"/>
<path fill-rule="evenodd" clip-rule="evenodd" d="M9.5 16H14.5C15.6046 16 16.5 15.1046 16.5 14V10.5625C16.5 9.87292 16.1448 9.23198 15.56 8.8665L13.06 7.304C12.4115 6.89867 11.5885 6.89867 10.94 7.304L8.44 8.8665C7.85524 9.23198 7.5 9.87292 7.5 10.5625V14C7.5 15.1046 8.39543 16 9.5 16Z" stroke="#161924" stroke-width="1.5" stroke-linecap="round" stroke-linejoin="round"/>
<path d="M13.75 11.1864L12.4424 11.833C12.1636 11.9709 11.8364 11.9709 11.5576 11.833L10.25 11.1864" stroke="#161924" stroke-width="1.5" stroke-linecap="round" stroke-linejoin="round"/>
</svg>
