<svg width="24" height="24" viewBox="0 0 24 24" fill="none" xmlns="http://www.w3.org/2000/svg">
<circle cx="18" cy="10.113" r="4.5" stroke="#161924" stroke-width="1.5" stroke-linecap="round" stroke-linejoin="round"/>
<path d="M21 16.75V18C21 19.6569 19.6569 21 18 21H6C4.34315 21 3 19.6569 3 18V10.3604C3 9.73796 3.28981 9.15099 3.784 8.77254L10.784 3.4121C11.5015 2.86263 12.4984 2.86263 13.2159 3.4121L14.2499 4.20391" stroke="#161924" stroke-width="1.5" stroke-linecap="round" stroke-linejoin="round"/>
<path d="M13.2156 15.5878C12.4981 16.1373 11.5012 16.1373 10.7837 15.5878L3.10938 9.71106" stroke="#161924" stroke-width="1.5" stroke-linecap="round" stroke-linejoin="round"/>
<path d="M17.9902 10.563V11.813" stroke="#161924" stroke-width="1.5" stroke-linecap="round" stroke-linejoin="round"/>
<path d="M17.9945 8.41275C18.0146 8.41492 18.034 8.40475 18.0437 8.38701C18.0534 8.36926 18.0515 8.34742 18.0388 8.33167C18.0261 8.31592 18.0052 8.30937 17.9858 8.31506C17.9664 8.32076 17.9523 8.33758 17.9501 8.35769V8.36839C17.9527 8.39177 17.9711 8.41023 17.9945 8.41275" stroke="#161924" stroke-width="1.5" stroke-linecap="round" stroke-linejoin="round"/>
</svg>
