<svg width="24" height="24" viewBox="0 0 24 24" fill="none" xmlns="http://www.w3.org/2000/svg">
<path fill-rule="evenodd" clip-rule="evenodd" d="M19.5 21L4.5 21C3.67157 21 3 20.3284 3 19.5V19.5C3 17.567 4.567 16 6.5 16L17.5 16C19.433 16 21 17.567 21 19.5V19.5C21 20.3284 20.3284 21 19.5 21Z" stroke="#161924" stroke-width="1.5" stroke-linecap="round" stroke-linejoin="round"/>
<path d="M21 19.5V4.5" stroke="#161924" stroke-width="1.5" stroke-linecap="round" stroke-linejoin="round"/>
<path d="M3 19.5V4.5" stroke="#161924" stroke-width="1.5" stroke-linecap="round" stroke-linejoin="round"/>
<path d="M12 16V8" stroke="#161924" stroke-width="1.5" stroke-linecap="round" stroke-linejoin="round"/>
<path fill-rule="evenodd" clip-rule="evenodd" d="M4.5 3H19.5C20.3284 3 21 3.67157 21 4.5V4.5C21 6.433 19.433 8 17.5 8H6.5C4.567 8 3 6.433 3 4.5V4.5C3 3.67157 3.67157 3 4.5 3Z" stroke="#161924" stroke-width="1.5" stroke-linecap="round" stroke-linejoin="round"/>
</svg>
