<svg width="24" height="24" viewBox="0 0 24 24" fill="none" xmlns="http://www.w3.org/2000/svg">
<path d="M13.001 8.99874H17.0026" stroke="#161924" stroke-width="1.5" stroke-linecap="round" stroke-linejoin="round"/>
<path d="M6.99805 8.72458L7.91743 9.55292L9.7682 7.88623" stroke="#161924" stroke-width="1.5" stroke-linecap="round" stroke-linejoin="round"/>
<path d="M9.99901 20.0033H7.99818C5.2356 20.0033 2.99609 17.7638 2.99609 15.0013V6.99793C2.99609 4.23536 5.2356 1.99585 7.99818 1.99585H16.0015C17.3281 1.99585 18.6004 2.52285 19.5385 3.46093C20.4766 4.399 21.0036 5.6713 21.0036 6.99793V10.9996" stroke="#161924" stroke-width="1.5" stroke-linecap="round" stroke-linejoin="round"/>
<path d="M6.99805 13.7267L7.91743 14.555L9.7682 12.8883" stroke="#161924" stroke-width="1.5" stroke-linecap="round" stroke-linejoin="round"/>
<path d="M13.001 14.0009H14.2595L15.2609 19.0029H20.308L21.0043 15.5015H14.5596" stroke="#161924" stroke-width="1.5" stroke-linecap="round" stroke-linejoin="round"/>
<path d="M19.8461 21.454C19.8461 21.4816 19.8237 21.504 19.7961 21.504C19.7685 21.504 19.7461 21.4816 19.7461 21.454C19.7461 21.4264 19.7684 21.404 19.796 21.4039C19.8093 21.4039 19.8221 21.4092 19.8315 21.4186C19.8409 21.428 19.8461 21.4407 19.8461 21.454" stroke="#161924" stroke-width="1.5" stroke-linecap="round" stroke-linejoin="round"/>
<path d="M15.8159 21.454C15.8158 21.4816 15.7934 21.504 15.7658 21.504C15.7382 21.504 15.7158 21.4816 15.7158 21.454C15.7158 21.4264 15.7382 21.404 15.7658 21.4039C15.7791 21.4039 15.7918 21.4092 15.8012 21.4186C15.8106 21.428 15.8159 21.4407 15.8159 21.454" stroke="#161924" stroke-width="1.5" stroke-linecap="round" stroke-linejoin="round"/>
</svg>
