<svg width="24" height="24" viewBox="0 0 24 24" fill="none" xmlns="http://www.w3.org/2000/svg">
<path fill-rule="evenodd" clip-rule="evenodd" d="M13.232 8.5C14.29 8.5 15 9.431 15 10.298C15 12.058 12.054 13.5 12 13.5C11.946 13.5 9 12.059 9 10.298C9 9.431 9.71 8.5 10.768 8.5C11.373 8.5 11.77 8.783 12 9.035C12.23 8.783 12.627 8.5 13.232 8.5Z" stroke="#161924" stroke-width="1.5" stroke-linecap="round" stroke-linejoin="round"/>
<path fill-rule="evenodd" clip-rule="evenodd" d="M8.786 17H6C4.895 17 4 16.105 4 15V6C4 4.895 4.895 4 6 4H18C19.105 4 20 4.895 20 6V15C20 16.105 19.105 17 18 17H15.214L12 20.214L8.786 17Z" stroke="#161924" stroke-width="1.5" stroke-linecap="round" stroke-linejoin="round"/>
</svg>
