<svg width="24" height="24" viewBox="0 0 24 24" fill="none" xmlns="http://www.w3.org/2000/svg">
<path d="M10.8293 13.0991C10.5172 12.8267 10.0434 12.8588 9.77103 13.1708C9.49862 13.4828 9.53073 13.9566 9.84276 14.229L10.336 13.6641L10.8293 13.0991ZM16.9951 13.6641L17.4884 14.229C17.5011 14.2179 17.5135 14.2063 17.5254 14.1944L16.9951 13.6641ZM18.6591 12.0001M18.6591 12.0001M11.4753 4.80506C11.1793 5.09484 11.1743 5.56968 11.4641 5.86566C11.7538 6.16164 12.2287 6.16667 12.5247 5.87689L12 5.34098L11.4753 4.80506ZM13.1707 10.901C13.4827 11.1735 13.9565 11.1413 14.2289 10.8293C14.5014 10.5173 14.4692 10.0435 14.1572 9.77108L13.664 10.3361L13.1707 10.901ZM7.00486 10.3361L6.51161 9.77108C6.49886 9.78221 6.48649 9.79377 6.47452 9.80573L7.00486 10.3361ZM5.34088 12.0001M5.34088 12.0001M12.5247 19.1951C12.8207 18.9053 12.8257 18.4305 12.5359 18.1345C12.2461 17.8385 11.7713 17.8335 11.4753 18.1233L12 18.6592L12.5247 19.1951ZM10.336 13.6641L9.84276 14.229C12.0327 16.1409 15.2984 16.1409 17.4884 14.229L16.9951 13.6641L16.5019 13.0991C14.877 14.5176 12.4541 14.5176 10.8293 13.0991L10.336 13.6641ZM16.9951 13.6641L17.5254 14.1944L19.1894 12.5304L18.6591 12.0001L18.1288 11.4697L16.4648 13.1337L16.9951 13.6641ZM18.6591 12.0001M18.6591 12.0001L19.195 12.5248C21.2884 10.3866 21.2703 6.96163 19.1543 4.84572L18.624 5.37605L18.0937 5.90638C19.6282 7.44089 19.6413 9.92473 18.1232 11.4754L18.6591 12.0001ZM18.624 5.37605L19.1543 4.84572C17.0384 2.72981 13.6135 2.71167 11.4753 4.80506L12 5.34098L12.5247 5.87689C14.0753 4.35872 16.5592 4.37187 18.0937 5.90638L18.624 5.37605ZM13.664 10.3361L14.1572 9.77108C11.9673 7.85916 8.70156 7.85916 6.51161 9.77108L7.00486 10.3361L7.49811 10.901C9.12293 9.48251 11.5459 9.48251 13.1707 10.901L13.664 10.3361ZM7.00486 10.3361L6.47452 9.80573L4.81055 11.4698L5.34088 12.0001L5.87122 12.5304L7.5352 10.8664L7.00486 10.3361ZM5.34088 12.0001M5.34088 12.0001L4.80497 11.4754C2.71158 13.6136 2.72972 17.0385 4.84563 19.1544L5.37596 18.6241L5.90629 18.0938C4.37178 16.5593 4.35863 14.0754 5.8768 12.5248L5.34088 12.0001ZM5.37596 18.6241L4.84563 19.1544C6.96154 21.2704 10.3865 21.2885 12.5247 19.1951L12 18.6592L11.4753 18.1233C9.92463 19.6414 7.44079 19.6283 5.90629 18.0938L5.37596 18.6241Z" fill="#161924"/>
</svg>
