<svg width="24" height="24" viewBox="0 0 24 24" fill="none" xmlns="http://www.w3.org/2000/svg">
<path d="M11.8536 13.3983H12.4392C13.4095 13.3983 14.196 12.6117 14.196 11.6415V9.29904C14.196 8.32878 13.4094 7.54224 12.4392 7.54224H7.75433C6.78407 7.54224 5.9975 8.32878 5.9975 9.29904V11.6415C5.9975 12.1074 6.18259 12.5543 6.51206 12.8837C6.84153 13.2132 7.28839 13.3983 7.75433 13.3983" stroke="#161924" stroke-width="1.5" stroke-linecap="round" stroke-linejoin="round"/>
<path d="M12.1464 10.4702H11.5608C10.5905 10.4702 9.80399 11.2568 9.80399 12.227V14.5695C9.80399 15.5398 10.5905 16.3263 11.5608 16.3263H16.2457C17.2159 16.3263 18.0025 15.5398 18.0025 14.5695V12.227C18.0025 11.2568 17.2159 10.4702 16.2457 10.4702V10.4702" stroke="#161924" stroke-width="1.5" stroke-linecap="round" stroke-linejoin="round"/>
<path fill-rule="evenodd" clip-rule="evenodd" d="M7.99833 2.99634H16.0017C18.7642 2.99634 21.0037 5.23585 21.0037 7.99842V16.0018C21.0037 18.7643 18.7642 21.0038 16.0017 21.0038H7.99833C5.23576 21.0038 2.99625 18.7643 2.99625 16.0018V7.99842C2.99625 5.23585 5.23576 2.99634 7.99833 2.99634Z" stroke="#161924" stroke-width="1.5" stroke-linecap="round" stroke-linejoin="round"/>
</svg>
