<svg width="24" height="24" viewBox="0 0 24 24" fill="none" xmlns="http://www.w3.org/2000/svg">
<path d="M11.064 12.9361C12.1369 13.8728 13.7369 13.8728 14.8098 12.9361L15.7458 12.0002V12.0002C16.7615 10.9627 16.7528 9.3008 15.7261 8.2741C14.6994 7.24741 13.0375 7.23863 12 8.25442" stroke="#161924" stroke-width="1.5" stroke-linecap="round" stroke-linejoin="round"/>
<path fill-rule="evenodd" clip-rule="evenodd" d="M21.0037 12.0001V12.0001C21.0037 14.3881 20.0553 16.6783 18.3668 18.3669C16.6782 20.0554 14.388 21.0038 12 21.0038V21.0038C9.61201 21.0038 7.32178 20.0554 5.63322 18.3669C3.94466 16.6783 2.99625 14.3881 2.99625 12.0001V12.0001C2.99625 9.6121 3.94466 7.32187 5.63322 5.63331C7.32178 3.94475 9.61201 2.99634 12 2.99634V2.99634C14.388 2.99634 16.6782 3.94475 18.3668 5.63331C20.0553 7.32187 21.0037 9.6121 21.0037 12.0001Z" stroke="#161924" stroke-width="1.5" stroke-linecap="round" stroke-linejoin="round"/>
<path d="M12.936 11.0641C11.8631 10.1274 10.2631 10.1274 9.19022 11.0641L8.25423 12.0001V12.0001C7.23844 13.0376 7.24723 14.6994 8.27392 15.7261C9.30062 16.7528 10.9625 16.7616 12 15.7458" stroke="#161924" stroke-width="1.5" stroke-linecap="round" stroke-linejoin="round"/>
</svg>
