<svg width="24" height="24" viewBox="0 0 24 24" fill="none" xmlns="http://www.w3.org/2000/svg">
<path d="M12 10.6665H10.9996C10.4471 10.6665 9.99918 11.1144 9.99918 11.6669V15.0016C9.99918 15.5542 10.4471 16.0021 10.9996 16.0021H16.0017C16.5542 16.0021 17.0021 15.5542 17.0021 15.0016V11.6669C17.0021 11.1144 16.5542 10.6665 16.0017 10.6665" stroke="#161924" stroke-width="1.5" stroke-linecap="round" stroke-linejoin="round"/>
<circle cx="12" cy="12.0003" r="9.00375" stroke="#161924" stroke-width="1.5" stroke-linecap="round" stroke-linejoin="round"/>
<path d="M12 13.3343H13.0004C13.5529 13.3343 14.0008 12.8864 14.0008 12.3339V8.9992C14.0008 8.44668 13.5529 7.99878 13.0004 7.99878H7.99834C7.44583 7.99878 6.99792 8.44668 6.99792 8.9992V12.3339C6.99792 12.8864 7.44583 13.3343 7.99834 13.3343" stroke="#161924" stroke-width="1.5" stroke-linecap="round" stroke-linejoin="round"/>
</svg>
