<svg width="24" height="24" viewBox="0 0 24 24" fill="none" xmlns="http://www.w3.org/2000/svg">
<path d="M20.0032 10.9995V4.99705C20.0032 3.89202 19.1074 2.99622 18.0023 2.99622H4.99693C3.8919 2.99622 2.99609 3.89202 2.99609 4.99705V19.0029C2.99609 20.1079 3.8919 21.0037 4.99693 21.0037H9.99901" stroke="#161924" stroke-width="1.5" stroke-linecap="round" stroke-linejoin="round"/>
<path d="M9.2481 15.0012H9.99841" stroke="#161924" stroke-width="1.5" stroke-linecap="round" stroke-linejoin="round"/>
<path d="M17.5022 13.8187V17.0021" stroke="#161924" stroke-width="1.5" stroke-linecap="round" stroke-linejoin="round"/>
<path fill-rule="evenodd" clip-rule="evenodd" d="M21.0033 22.0041H14.1255C13.5039 22.0041 13 21.5002 13 20.8787V16.5689C13.0002 16.2986 13.055 16.0311 13.1611 15.7825L13.7083 14.502C13.8856 14.0876 14.293 13.8187 14.7437 13.8187H20.26C20.7105 13.8189 21.1175 14.0878 21.2945 14.502L21.8427 15.7845C21.9489 16.0331 22.0037 16.3006 22.0037 16.5709V21.0037C22.0037 21.5562 21.5558 22.0041 21.0033 22.0041Z" stroke="#161924" stroke-width="1.5" stroke-linecap="round" stroke-linejoin="round"/>
<path d="M22.0037 18.0025C22.0037 17.45 21.5558 17.0021 21.0033 17.0021H14.0004C13.4479 17.0021 13 17.45 13 18.0025" stroke="#161924" stroke-width="1.5" stroke-linecap="round" stroke-linejoin="round"/>
<path d="M9.24805 10.9996H12.9996" stroke="#161924" stroke-width="1.5" stroke-linecap="round" stroke-linejoin="round"/>
<path d="M9.24805 7.12295H16.0009" stroke="#161924" stroke-width="1.5" stroke-linecap="round" stroke-linejoin="round"/>
<path d="M6.1213 15.1263C6.19037 15.1263 6.24635 15.0703 6.24635 15.0012C6.24635 14.9322 6.19037 14.8762 6.1213 14.8762C6.05224 14.8762 5.99625 14.9322 5.99625 15.0012C5.99625 15.0703 6.05224 15.1263 6.1213 15.1263" stroke="#161924" stroke-width="1.5" stroke-linecap="round" stroke-linejoin="round"/>
<path d="M6.1213 11.1247C6.19037 11.1247 6.24635 11.0687 6.24635 10.9996C6.24635 10.9305 6.19037 10.8745 6.1213 10.8745C6.05224 10.8745 5.99625 10.9305 5.99625 10.9996C5.99625 11.0687 6.05224 11.1247 6.1213 11.1247" stroke="#161924" stroke-width="1.5" stroke-linecap="round" stroke-linejoin="round"/>
<path d="M6.1213 7.248C6.19037 7.248 6.24635 7.19201 6.24635 7.12295C6.24635 7.05389 6.19037 6.9979 6.1213 6.9979C6.05224 6.9979 5.99625 7.05389 5.99625 7.12295C5.99625 7.19201 6.05224 7.248 6.1213 7.248" stroke="#161924" stroke-width="1.5" stroke-linecap="round" stroke-linejoin="round"/>
</svg>
