<svg width="24" height="24" viewBox="0 0 24 24" fill="none" xmlns="http://www.w3.org/2000/svg">
<path d="M20.0032 9.99913V4.99705C20.0032 3.89202 19.1074 2.99622 18.0023 2.99622H4.99693C3.8919 2.99622 2.99609 3.89202 2.99609 4.99705V19.0029C2.99609 20.1079 3.8919 21.0037 4.99693 21.0037H9.99901" stroke="#161924" stroke-width="1.5" stroke-linecap="round" stroke-linejoin="round"/>
<path d="M9.24908 15.0012H9.99939" stroke="#161924" stroke-width="1.5" stroke-linecap="round" stroke-linejoin="round"/>
<path d="M9.24902 10.9996H14.001" stroke="#161924" stroke-width="1.5" stroke-linecap="round" stroke-linejoin="round"/>
<path d="M9.24902 7.12301H16.0018" stroke="#161924" stroke-width="1.5" stroke-linecap="round" stroke-linejoin="round"/>
<path d="M6.12228 15.1262C6.19134 15.1262 6.24733 15.0702 6.24733 15.0012C6.24733 14.9321 6.19134 14.8761 6.12228 14.8761C6.05321 14.8761 5.99723 14.9321 5.99723 15.0012C5.99723 15.0702 6.05321 15.1262 6.12228 15.1262" stroke="#161924" stroke-width="1.5" stroke-linecap="round" stroke-linejoin="round"/>
<path d="M6.12228 11.1247C6.19134 11.1247 6.24733 11.0687 6.24733 10.9996C6.24733 10.9305 6.19134 10.8745 6.12228 10.8745C6.05321 10.8745 5.99723 10.9305 5.99723 10.9996C5.99723 11.0687 6.05321 11.1247 6.12228 11.1247" stroke="#161924" stroke-width="1.5" stroke-linecap="round" stroke-linejoin="round"/>
<path d="M6.12228 7.24806C6.19134 7.24806 6.24733 7.19208 6.24733 7.12301C6.24733 7.05395 6.19134 6.99796 6.12228 6.99796C6.05321 6.99796 5.99723 7.05395 5.99723 7.12301C5.99723 7.19208 6.05321 7.24806 6.12228 7.24806" stroke="#161924" stroke-width="1.5" stroke-linecap="round" stroke-linejoin="round"/>
<path d="M16.376 18.6278L18.6269 16.3768" stroke="#161924" stroke-width="1.5" stroke-linecap="round" stroke-linejoin="round"/>
<path d="M18.9681 18.9028C18.9849 18.9209 18.9849 18.9488 18.9681 18.9669C18.9597 18.9754 18.9481 18.9802 18.9361 18.9802C18.9241 18.9802 18.9125 18.9754 18.9041 18.9669C18.8864 18.9492 18.8864 18.9205 18.9041 18.9028C18.9218 18.8852 18.9504 18.8852 18.9681 18.9028" stroke="#161924" stroke-width="1.5" stroke-linecap="round" stroke-linejoin="round"/>
<path fill-rule="evenodd" clip-rule="evenodd" d="M22.0047 17.5022C22.0047 19.9886 19.9892 22.0041 17.5029 22.0041C15.0165 22.0041 13.001 19.9886 13.001 17.5022C13.001 15.0159 15.0165 13.0004 17.5029 13.0004C18.6974 12.9985 19.8435 13.4722 20.6882 14.3169C21.5329 15.1616 22.0066 16.3077 22.0047 17.5022Z" stroke="#161924" stroke-width="1.5" stroke-linecap="round" stroke-linejoin="round"/>
<path d="M16.0372 16.1017C16.0204 16.0837 16.0204 16.0558 16.0372 16.0377C16.0456 16.0292 16.0572 16.0243 16.0692 16.0243C16.0812 16.0243 16.0928 16.0292 16.1012 16.0377C16.1189 16.0554 16.1189 16.0841 16.1012 16.1017C16.0835 16.1194 16.0549 16.1194 16.0372 16.1017" stroke="#161924" stroke-width="1.5" stroke-linecap="round" stroke-linejoin="round"/>
</svg>
