<svg width="24" height="24" viewBox="0 0 24 24" fill="none" xmlns="http://www.w3.org/2000/svg">
<path d="M20.6409 14.4H19.4333L18.4723 19.2H13.6291L12.9609 15.84H19.1453" stroke="#161924" stroke-width="1.5" stroke-linecap="round" stroke-linejoin="round"/>
<path d="M19.6804 10.5601V5.76009C19.6804 4.6997 18.8207 3.84009 17.7604 3.84009H5.28035C4.21996 3.84009 3.36035 4.6997 3.36035 5.76009V19.2001C3.36035 20.2605 4.21996 21.1201 5.28035 21.1201H10.0804" stroke="#161924" stroke-width="1.5" stroke-linecap="round" stroke-linejoin="round"/>
<path d="M7.2002 7.68007H15.8402" stroke="#161924" stroke-width="1.5" stroke-linecap="round" stroke-linejoin="round"/>
<path d="M7.2002 11.52H13.9202" stroke="#161924" stroke-width="1.5" stroke-linecap="round" stroke-linejoin="round"/>
<path d="M7.2002 15.36H9.1202" stroke="#161924" stroke-width="1.5" stroke-linecap="round" stroke-linejoin="round"/>
<path d="M14.0856 21.5182C14.0669 21.537 14.067 21.5674 14.0858 21.586C14.1045 21.6047 14.1349 21.6047 14.1536 21.586C14.1723 21.5672 14.1723 21.5369 14.1537 21.5182C14.135 21.4994 14.1046 21.4993 14.0858 21.5179L14.0856 21.5182" stroke="#161924" stroke-width="1.5" stroke-linecap="round" stroke-linejoin="round"/>
<path d="M17.9528 21.5182C17.9341 21.537 17.9342 21.5674 17.953 21.586C17.9717 21.6047 18.0021 21.6047 18.0208 21.586C18.0395 21.5672 18.0395 21.5369 18.0208 21.5182C18.0022 21.4994 17.9718 21.4993 17.953 21.5179L17.9528 21.5182" stroke="#161924" stroke-width="1.5" stroke-linecap="round" stroke-linejoin="round"/>
</svg>
