<svg width="24" height="24" viewBox="0 0 24 24" fill="none" xmlns="http://www.w3.org/2000/svg">
<path d="M14.2189 15.2195C13.5509 15.7243 12.7372 15.9988 11.9 16.0018C9.74491 15.9985 7.99715 14.2552 7.98835 12.1002L7.99835 10.4995L6.66479 11.8341" stroke="#161924" stroke-width="1.5" stroke-linecap="round" stroke-linejoin="round"/>
<path d="M17.3352 12.1663L16.0016 13.5008L16.0157 11.9002C16.0063 9.74377 14.2564 8.00017 12.1 7.99854C11.2621 8.00156 10.4478 8.27605 9.77905 8.78086" stroke="#161924" stroke-width="1.5" stroke-linecap="round" stroke-linejoin="round"/>
<path fill-rule="evenodd" clip-rule="evenodd" d="M16.0016 21.0038H7.9983C5.23572 21.0038 2.99622 18.7643 2.99622 16.0018V7.99842C2.99622 5.23585 5.23572 2.99634 7.9983 2.99634H16.0016C18.7642 2.99634 21.0037 5.23585 21.0037 7.99842V16.0018C21.0037 18.7643 18.7642 21.0038 16.0016 21.0038Z" stroke="#161924" stroke-width="1.5" stroke-linecap="round" stroke-linejoin="round"/>
</svg>
