<svg width="24" height="24" viewBox="0 0 24 24" fill="none" xmlns="http://www.w3.org/2000/svg">
<mask id="mask0_2_26204" style="mask-type:alpha" maskUnits="userSpaceOnUse" x="0" y="0" width="24" height="24">
<rect width="24" height="24" fill="#D9D9D9"/>
</mask>
<g mask="url(#mask0_2_26204)">
<path d="M4.5 13.0002C4.5 11.3092 4.98783 9.6659 5.9635 8.07041C6.93917 6.47491 8.277 5.07199 9.977 3.86166C10.2987 3.62449 10.6362 3.60082 10.9895 3.79065C11.3427 3.98032 11.5192 4.27132 11.5192 4.66365V5.51166C11.5192 6.12316 11.7679 6.65749 12.2652 7.11466C12.7627 7.57166 13.3493 7.80016 14.025 7.80016C14.3212 7.80016 14.608 7.74249 14.8855 7.62716C15.1632 7.51182 15.418 7.34707 15.65 7.1329C15.7833 6.99824 15.9413 6.91974 16.124 6.89741C16.3067 6.87491 16.4768 6.92391 16.6345 7.04441C17.5307 7.74957 18.2323 8.62616 18.7395 9.67416C19.2465 10.7223 19.5 11.831 19.5 13.0002C19.5 14.4988 19.1032 15.8459 18.3095 17.0414C17.516 18.2369 16.4878 19.127 15.225 19.7117C15.5468 19.3565 15.7981 18.9527 15.9788 18.5002C16.1596 18.0477 16.25 17.5643 16.25 17.0502C16.25 16.4925 16.1442 15.9611 15.9327 15.4559C15.7211 14.9507 15.4172 14.5002 15.021 14.1042L12 11.1484L9.004 14.1042C8.5975 14.5105 8.28692 14.9621 8.07225 15.4589C7.85742 15.9556 7.75 16.486 7.75 17.0502C7.75 17.5643 7.84042 18.0477 8.02125 18.5002C8.20192 18.9527 8.45317 19.3565 8.775 19.7117C7.51217 19.127 6.484 18.2369 5.6905 17.0414C4.89683 15.8459 4.5 14.4988 4.5 13.0002ZM12 13.2464L13.952 15.1579C14.2097 15.4156 14.4071 15.7034 14.5443 16.0214C14.6814 16.3392 14.75 16.6822 14.75 17.0502C14.75 17.7963 14.4823 18.4328 13.947 18.9597C13.4118 19.4867 12.7628 19.7502 12 19.7502C11.2372 19.7502 10.5882 19.4867 10.053 18.9597C9.51767 18.4328 9.25 17.7963 9.25 17.0502C9.25 16.6988 9.317 16.3617 9.451 16.0387C9.585 15.7155 9.784 15.4219 10.048 15.1579L12 13.2464Z" fill="#1C1B1F"/>
</g>
</svg>
