<svg width="24" height="24" viewBox="0 0 24 24" fill="none" xmlns="http://www.w3.org/2000/svg">
<path d="M18.0024 4.99703H20.0033" stroke="#161924" stroke-width="1.5" stroke-linecap="round" stroke-linejoin="round"/>
<path d="M19.0029 8.99869C16.793 8.99869 15.0012 7.20695 15.0012 4.99703C15.0012 2.78711 16.793 0.995361 19.0029 0.995361C21.2128 0.995361 23.0046 2.78711 23.0046 4.99703C23.0046 7.20695 21.2128 8.99869 19.0029 8.99869" stroke="#161924" stroke-width="1.5" stroke-linecap="round" stroke-linejoin="round"/>
<path d="M15.0072 4.7619C13.9368 4.2757 12.7523 3.99658 11.4998 3.99658C6.8038 3.99658 2.99622 7.80417 2.99622 12.5001C2.99622 17.1961 6.8038 21.0037 11.4998 21.0037C16.1957 21.0037 20.0033 17.1961 20.0033 12.5001C20.0033 11.2476 19.7242 10.0631 19.238 8.99266" stroke="#161924" stroke-width="1.5" stroke-linecap="round" stroke-linejoin="round"/>
<path fill-rule="evenodd" clip-rule="evenodd" d="M9.60992 11.2687H13.3895C13.9087 11.2687 14.3339 11.6939 14.3339 12.2131V15.0973C14.3339 15.6185 13.9107 16.0417 13.3895 16.0417H9.60992C9.08871 16.0417 8.66553 15.6185 8.66553 15.0973V12.2131C8.66453 11.6929 9.08771 11.2687 9.60992 11.2687Z" stroke="#161924" stroke-width="1.5" stroke-linecap="round" stroke-linejoin="round"/>
<path d="M9.90808 11.2687V10.0752C9.90808 9.19679 10.6204 8.4845 11.4987 8.4845C12.3771 8.4845 13.0894 9.19679 13.0894 10.0752V11.2667" stroke="#161924" stroke-width="1.5" stroke-linecap="round" stroke-linejoin="round"/>
</svg>
