<svg width="24" height="24" viewBox="0 0 24 24" fill="none" xmlns="http://www.w3.org/2000/svg">
<path d="M10.316 10.75V9.434C10.316 8.504 11.07 7.75 12 7.75C12.93 7.75 13.684 8.504 13.684 9.434V10.75" stroke="#161924" stroke-width="1.5" stroke-linecap="round" stroke-linejoin="round"/>
<path fill-rule="evenodd" clip-rule="evenodd" d="M14 15.75H10C9.448 15.75 9 15.302 9 14.75V11.75C9 11.198 9.448 10.75 10 10.75H14C14.552 10.75 15 11.198 15 11.75V14.75C15 15.302 14.552 15.75 14 15.75Z" stroke="#161924" stroke-width="1.5" stroke-linecap="round" stroke-linejoin="round"/>
<path d="M3.83899 4.76501V7.49801H6.57299" stroke="#161924" stroke-width="1.5" stroke-linecap="round" stroke-linejoin="round"/>
<path d="M19.7941 7.505C18.2371 4.814 15.3341 3 12.0021 3C8.67309 3 5.77309 4.812 4.21509 7.499" stroke="#161924" stroke-width="1.5" stroke-linecap="round" stroke-linejoin="round"/>
<path d="M20.925 10.874C21.168 12.758 20.824 14.732 19.8 16.505C18.134 19.391 15.111 20.997 12.002 21L11.996 20.995C8.88704 20.992 5.86404 19.386 4.19804 16.5C3.17504 14.729 2.83204 12.756 3.07304 10.874" stroke="#161924" stroke-width="1.5" stroke-linecap="round" stroke-linejoin="round"/>
</svg>
