<svg width="24" height="24" viewBox="0 0 24 24" fill="none" xmlns="http://www.w3.org/2000/svg">
<path d="M14.078 9.24807C15.226 10.3961 15.226 12.2561 14.078 13.4041C12.93 14.5521 11.07 14.5521 9.92204 13.4041C8.77404 12.2561 8.77404 10.3961 9.92204 9.24807C11.07 8.10107 12.93 8.10107 14.078 9.24807" stroke="#161924" stroke-width="1.5" stroke-linecap="round" stroke-linejoin="round"/>
<path fill-rule="evenodd" clip-rule="evenodd" d="M20 11.181C20 15.722 16.587 19.969 12 21C7.413 19.969 4 15.722 4 11.181V7.24401C4 6.43101 4.492 5.70001 5.243 5.39301L10.243 3.34601C11.369 2.88401 12.632 2.88401 13.756 3.34601L18.756 5.39301C19.509 5.70201 19.999 6.43101 19.999 7.24401V11.181H20Z" stroke="#161924" stroke-width="1.5" stroke-linecap="round" stroke-linejoin="round"/>
</svg>
