<svg width="24" height="24" viewBox="0 0 24 24" fill="none" xmlns="http://www.w3.org/2000/svg">
<rect x="8.99875" y="11.3699" width="6.0025" height="4.20175" rx="1.2" stroke="#161924" stroke-width="1.5" stroke-linecap="round" stroke-linejoin="round"/>
<path d="M10.1992 11.3699V10.2295C10.1992 9.23493 11.0055 8.42871 12 8.42871V8.42871C12.9945 8.42871 13.8007 9.23493 13.8007 10.2295V10.2295V11.3699" stroke="#161924" stroke-width="1.5" stroke-linecap="round" stroke-linejoin="round"/>
<path d="M18.2516 16.502V20.0034" stroke="#161924" stroke-width="1.5" stroke-linecap="round" stroke-linejoin="round"/>
<path d="M16.5019 18.2517H20.0033" stroke="#161924" stroke-width="1.5" stroke-linecap="round" stroke-linejoin="round"/>
<path d="M13.0004 20.9418C12.6685 20.983 12.3344 21.0038 12 21.0038C7.02736 21.0038 2.99625 16.9727 2.99625 12.0001C2.99625 7.02745 7.02736 2.99634 12 2.99634C16.9726 2.99634 21.0037 7.02745 21.0037 12.0001C21.0037 12.3345 20.9829 12.6686 20.9417 13.0005" stroke="#161924" stroke-width="1.5" stroke-linecap="round" stroke-linejoin="round"/>
</svg>
