<svg width="24" height="24" viewBox="0 0 24 24" fill="none" xmlns="http://www.w3.org/2000/svg">
<path d="M8.211 9.21894V7.00294C8.211 4.95094 9.748 3.11194 11.797 3.00494C13.982 2.89094 15.79 4.62894 15.79 6.78894V9.21894" stroke="#161924" stroke-width="1.5" stroke-linecap="round" stroke-linejoin="round"/>
<path d="M16.5962 9.90381C19.1346 12.4422 19.1346 16.5578 16.5962 19.0962C14.0578 21.6346 9.94222 21.6346 7.40381 19.0962C4.8654 16.5578 4.8654 12.4422 7.40381 9.90381C9.94222 7.3654 14.0578 7.3654 16.5962 9.90381" stroke="#161924" stroke-width="1.5" stroke-linecap="round" stroke-linejoin="round"/>
<path d="M12 16.5V13.95" stroke="#161924" stroke-width="1.5" stroke-linecap="round" stroke-linejoin="round"/>
<path d="M11.997 12.431C11.583 12.431 11.247 12.767 11.25 13.181C11.25 13.595 11.586 13.931 12 13.931C12.414 13.931 12.75 13.595 12.75 13.181C12.75 12.767 12.414 12.431 11.997 12.431" stroke="#161924" stroke-width="1.5" stroke-linecap="round" stroke-linejoin="round"/>
</svg>
