<svg width="24" height="24" viewBox="0 0 24 24" fill="none" xmlns="http://www.w3.org/2000/svg">
<path fill-rule="evenodd" clip-rule="evenodd" d="M18 20.986H6C4.343 20.986 3 19.643 3 17.986V5.98596C3 4.32896 4.343 2.98596 6 2.98596H18C19.657 2.98596 21 4.32896 21 5.98596V17.986C21 19.643 19.657 20.986 18 20.986Z" stroke="#161924" stroke-width="1.5" stroke-linecap="round" stroke-linejoin="round"/>
<path d="M13.4142 9.08579C14.1952 9.86684 14.1952 11.1332 13.4142 11.9142C12.6331 12.6953 11.3668 12.6953 10.5858 11.9142C9.80471 11.1332 9.80471 9.86684 10.5858 9.08579C11.3668 8.30474 12.6331 8.30474 13.4142 9.08579" stroke="#161924" stroke-width="1.5" stroke-linecap="round" stroke-linejoin="round"/>
<path d="M12 15.5V12.5" stroke="#161924" stroke-width="1.5" stroke-linecap="round" stroke-linejoin="round"/>
</svg>
