<svg width="24" height="24" viewBox="0 0 24 24" fill="none" xmlns="http://www.w3.org/2000/svg">
<path fill-rule="evenodd" clip-rule="evenodd" d="M17.0021 21.0037H6.9979C5.89244 21.0037 4.99707 20.1083 4.99707 19.0028V10.9995C4.99707 9.89403 5.89244 8.99866 6.9979 8.99866H17.0021C18.1075 8.99866 19.0029 9.89403 19.0029 10.9995V19.0028C19.0029 20.1083 18.1075 21.0037 17.0021 21.0037Z" stroke="#161924" stroke-width="1.5" stroke-linecap="round" stroke-linejoin="round"/>
<path d="M16.0017 8.99872V6.99788C16.0017 4.78796 14.2099 2.99622 12 2.99622C10.1292 2.99622 8.57057 4.28575 8.13239 6.02048" stroke="#161924" stroke-width="1.5" stroke-linecap="round" stroke-linejoin="round"/>
<path d="M11.997 14.501C11.7219 14.501 11.4968 14.7261 11.4998 15.0012C11.4998 15.2763 11.7249 15.5014 12 15.5014C12.2751 15.5014 12.5002 15.2763 12.5002 15.0012C12.5002 14.7261 12.2751 14.501 11.997 14.501" stroke="#161924" stroke-width="1.5" stroke-linecap="round" stroke-linejoin="round"/>
</svg>
