<svg width="24" height="24" viewBox="0 0 24 24" fill="none" xmlns="http://www.w3.org/2000/svg">
<path fill-rule="evenodd" clip-rule="evenodd" d="M17.0021 21.0039H6.9979C5.89287 21.0039 4.99707 20.108 4.99707 19.003V12.0001C4.99707 10.8951 5.89287 9.99927 6.9979 9.99927H17.0021C18.1071 9.99927 19.0029 10.8951 19.0029 12.0001V19.003C19.0029 20.108 18.1071 21.0039 17.0021 21.0039Z" stroke="#161924" stroke-width="1.5" stroke-linecap="round" stroke-linejoin="round"/>
<path d="M7.99829 9.99925V6.998V6.998C7.99829 4.78795 9.7899 2.99634 12 2.99634V2.99634C14.21 2.99634 16.0016 4.78795 16.0016 6.998V6.998V9.99925" stroke="#161924" stroke-width="1.5" stroke-linecap="round" stroke-linejoin="round"/>
<path d="M10.3153 15.4326C10.2771 15.4326 10.2462 15.4635 10.2462 15.5017C10.2462 15.5398 10.2771 15.5707 10.3153 15.5707C10.3534 15.5707 10.3843 15.5398 10.3843 15.5017C10.3843 15.4834 10.377 15.4658 10.3641 15.4529C10.3511 15.4399 10.3336 15.4326 10.3153 15.4326" stroke="#161924" stroke-width="1.5" stroke-linecap="round" stroke-linejoin="round"/>
<path d="M13.6156 15.5017C13.6156 15.5398 13.6465 15.5707 13.6847 15.5707C13.7228 15.5707 13.7537 15.5398 13.7537 15.5017C13.7537 15.4635 13.7228 15.4326 13.6847 15.4326C13.6663 15.4326 13.6488 15.4399 13.6358 15.4529C13.6229 15.4658 13.6156 15.4834 13.6156 15.5017" stroke="#161924" stroke-width="1.5" stroke-linecap="round" stroke-linejoin="round"/>
</svg>
