<svg width="24" height="24" viewBox="0 0 24 24" fill="none" xmlns="http://www.w3.org/2000/svg">
<path fill-rule="evenodd" clip-rule="evenodd" d="M10 10.697H14C14.55 10.697 15 11.147 15 11.697V14.75C15 15.302 14.552 15.75 14 15.75H10C9.448 15.75 9 15.302 9 14.75V11.697C9 11.145 9.448 10.697 10 10.697Z" stroke="#161924" stroke-width="1.5" stroke-linecap="round" stroke-linejoin="round"/>
<path d="M10.316 10.697V9.434C10.316 8.504 11.07 7.75 12 7.75C12.93 7.75 13.684 8.504 13.684 9.434V10.695" stroke="#161924" stroke-width="1.5" stroke-linecap="round" stroke-linejoin="round"/>
<path fill-rule="evenodd" clip-rule="evenodd" d="M10.476 20.875C16.635 21.885 21.885 16.636 20.875 10.476C20.263 6.74603 17.255 3.73703 13.525 3.12503C7.36499 2.11403 2.11499 7.36503 3.12599 13.524C3.73699 17.255 6.74599 20.263 10.476 20.875Z" stroke="#161924" stroke-width="1.5" stroke-linecap="round" stroke-linejoin="round"/>
</svg>
