<svg width="24" height="24" viewBox="0 0 24 24" fill="none" xmlns="http://www.w3.org/2000/svg">
<path fill-rule="evenodd" clip-rule="evenodd" d="M12.5193 9.24784C13.3485 8.43648 14.466 7.98773 15.6261 8.00033C16.7861 8.01293 17.8936 8.48583 18.705 9.31501V9.31501C20.4317 11.0792 20.4317 13.8999 18.705 15.664L14.4749 19.9591C14.4574 19.977 14.4397 19.9947 14.4217 20.0122C13.7654 20.6545 12.8807 21.0098 11.9624 20.9998C11.0442 20.9898 10.1674 20.6155 9.52515 19.9591L5.295 15.6639C3.56833 13.8998 3.56833 11.079 5.295 9.3149V9.3149C5.31713 9.29228 5.3395 9.2699 5.36213 9.24777C6.19129 8.43641 7.3088 7.98767 8.46882 8.00026C9.62884 8.01285 10.7364 8.48574 11.5477 9.3149L12 9.77415L12.4522 9.31497C12.4743 9.29233 12.4967 9.26995 12.5193 9.24784Z" stroke="#161924" stroke-width="1.5" stroke-linecap="round" stroke-linejoin="round"/>
<path d="M16 8V7C16 4.79086 14.2091 3 12 3V3C9.79086 3 8 4.79086 8 7V8" stroke="#161924" stroke-width="1.5" stroke-linecap="round" stroke-linejoin="round"/>
<path d="M12.3536 13.8964C12.4966 14.0394 12.5393 14.2545 12.462 14.4413C12.3846 14.6282 12.2022 14.75 12 14.75C11.7978 14.75 11.6155 14.6282 11.5381 14.4413C11.4607 14.2545 11.5035 14.0394 11.6465 13.8964C11.8417 13.7012 12.1583 13.7012 12.3536 13.8964" stroke="#161924" stroke-width="1.5" stroke-linecap="round" stroke-linejoin="round"/>
</svg>
