<svg width="24" height="24" viewBox="0 0 24 24" fill="none" xmlns="http://www.w3.org/2000/svg">
<path fill-rule="evenodd" clip-rule="evenodd" d="M10.018 11H13.982C14.544 11 15 11.443 15 11.99V15.011C15 15.558 14.544 16.001 13.982 16.001H10.018C9.456 16 9 15.557 9 15.01V11.99C9 11.443 9.456 11 10.018 11V11Z" stroke="#161924" stroke-width="1.5" stroke-linecap="round" stroke-linejoin="round"/>
<path d="M10.316 11V9.684C10.316 8.754 11.07 8 12 8C12.93 8 13.684 8.754 13.684 9.684V11" stroke="#161924" stroke-width="1.5" stroke-linecap="round" stroke-linejoin="round"/>
<path d="M6.33203 19.1951C7.89203 20.4261 9.85803 21.1661 12 21.1661C17.063 21.1661 21.167 17.0621 21.167 11.9991C21.167 10.6551 20.871 9.38206 20.351 8.23206L18.417 10.1661" stroke="#161924" stroke-width="1.5" stroke-linecap="round" stroke-linejoin="round"/>
<path d="M17.668 4.80501C16.107 3.57401 14.142 2.83301 12 2.83301C6.93701 2.83301 2.83301 6.93701 2.83301 12C2.83301 13.344 3.12901 14.617 3.64901 15.767L5.58301 13.833" stroke="#161924" stroke-width="1.5" stroke-linecap="round" stroke-linejoin="round"/>
</svg>
