<svg width="24" height="24" viewBox="0 0 24 24" fill="none" xmlns="http://www.w3.org/2000/svg">
<path fill-rule="evenodd" clip-rule="evenodd" d="M14.0491 16.0767V16.0767C13.4144 16.1826 12.7653 16.0038 12.2742 15.588C11.7832 15.1721 11.5 14.5613 11.5 13.9178V10.0822C11.5 9.43875 11.7832 8.82791 12.2742 8.41205C12.7653 7.99619 13.4144 7.81744 14.0491 7.92331V7.92331C16.0419 8.25539 17.5026 9.97965 17.5025 12V12C17.5026 14.0204 16.0419 15.7446 14.0491 16.0767V16.0767Z" stroke="#161924" stroke-width="1.5" stroke-linecap="round" stroke-linejoin="round"/>
<path d="M6.99805 9.49896H8.99888" stroke="#161924" stroke-width="1.5" stroke-linecap="round" stroke-linejoin="round"/>
<path d="M6.99805 12H8.99888" stroke="#161924" stroke-width="1.5" stroke-linecap="round" stroke-linejoin="round"/>
<path d="M6.99805 14.501H8.99888" stroke="#161924" stroke-width="1.5" stroke-linecap="round" stroke-linejoin="round"/>
<path fill-rule="evenodd" clip-rule="evenodd" d="M12.0003 21.0037V21.0037C7.0277 21.0037 2.99658 16.9726 2.99658 12V12C2.99658 7.02736 7.0277 2.99625 12.0003 2.99625V2.99625C16.973 2.99625 21.0041 7.02736 21.0041 12V12C21.0041 16.9726 16.973 21.0037 12.0003 21.0037V21.0037Z" stroke="#161924" stroke-width="1.5" stroke-linecap="round" stroke-linejoin="round"/>
</svg>
