<svg width="24" height="24" viewBox="0 0 24 24" fill="none" xmlns="http://www.w3.org/2000/svg">
<path d="M15.709 17.2521L18.21 14.7511" stroke="#161924" stroke-width="1.5" stroke-linecap="round" stroke-linejoin="round"/>
<path d="M18.5885 17.5613C18.6079 17.5809 18.6078 17.6125 18.5883 17.632C18.5687 17.6515 18.5371 17.6515 18.5176 17.632C18.4981 17.6125 18.498 17.5809 18.5174 17.5613V17.5613C18.5372 17.5422 18.5687 17.5422 18.5885 17.5613" stroke="#161924" stroke-width="1.5" stroke-linecap="round" stroke-linejoin="round"/>
<path fill-rule="evenodd" clip-rule="evenodd" d="M21.9618 16.0017C21.9574 18.7583 19.7203 20.99 16.9637 20.9878C14.2071 20.9856 11.9736 18.7503 11.9736 15.9937C11.9736 13.2371 14.2071 11.0018 16.9637 10.9996C19.7203 10.9974 21.9574 13.2291 21.9618 15.9857V16.0017Z" stroke="#161924" stroke-width="1.5" stroke-linecap="round" stroke-linejoin="round"/>
<path d="M15.3319 14.442C15.3125 14.4224 15.3126 14.3908 15.3321 14.3714C15.3516 14.3519 15.3832 14.3519 15.4027 14.3714C15.4222 14.3908 15.4223 14.4224 15.4029 14.442V14.442C15.3831 14.4612 15.3517 14.4612 15.3319 14.442" stroke="#161924" stroke-width="1.5" stroke-linecap="round" stroke-linejoin="round"/>
<path d="M2.99609 6.99789H21.0036" stroke="#161924" stroke-width="1.5" stroke-linecap="round" stroke-linejoin="round"/>
<path d="M9.49882 10.9996H6.47656" stroke="#161924" stroke-width="1.5" stroke-linecap="round" stroke-linejoin="round"/>
<path d="M8.99859 17.002H5.99734C4.3398 17.002 2.99609 15.6583 2.99609 14.0008V5.99747C2.99609 4.33992 4.3398 2.99622 5.99734 2.99622H18.0023C19.6599 2.99622 21.0036 4.33992 21.0036 5.99747V8.99872" stroke="#161924" stroke-width="1.5" stroke-linecap="round" stroke-linejoin="round"/>
</svg>
