<svg width="24" height="24" viewBox="0 0 24 24" fill="none" xmlns="http://www.w3.org/2000/svg">
<path d="M3 7.55203V17C3 18.657 4.343 20 6 20H18C19.657 20 21 18.657 21 17V7.55103" stroke="#161924" stroke-width="1.5" stroke-linecap="round" stroke-linejoin="round"/>
<path fill-rule="evenodd" clip-rule="evenodd" d="M8.492 12H15.508C16.109 12 16.695 11.82 17.193 11.483L19.88 9.663C20.58 9.189 21 8.398 21 7.552V7.552C21 6.142 19.857 5 18.446 5H5.554C4.143 5 3 6.142 3 7.551V7.551C3 8.397 3.42 9.188 4.121 9.663L6.808 11.483C7.305 11.82 7.892 12 8.492 12Z" stroke="#161924" stroke-width="1.5" stroke-linecap="round" stroke-linejoin="round"/>
</svg>
