<svg width="24" height="24" viewBox="0 0 24 24" fill="none" xmlns="http://www.w3.org/2000/svg">
<path d="M3 9.35498V18.4C3 19.836 4.164 21 5.6 21H18.4C19.836 21 21 19.836 21 18.4V9.35498" stroke="#161924" stroke-width="1.5" stroke-linecap="round" stroke-linejoin="round"/>
<path d="M12.001 2C14.486 2 16.501 4.015 16.501 6.499C16.501 8.932 14.433 11 12 11C9.51498 11 7.50098 8.985 7.50098 6.5C7.50098 4.015 9.51598 2 12.001 2" stroke="#161924" stroke-width="1.5" stroke-linecap="round" stroke-linejoin="round"/>
<path d="M13.7412 5.62799L11.5532 7.81599L10.2412 6.50299" stroke="#161924" stroke-width="1.5" stroke-linecap="round" stroke-linejoin="round"/>
<path d="M16.471 7H18.645C19.946 7 21 8.054 21 9.355V9.355C21 10.136 20.613 10.866 19.967 11.304C18.628 12.212 16.228 13.839 14.242 15.185C12.887 16.104 11.112 16.102 9.757 15.184C7.831 13.879 5.389 12.223 4.031 11.303C3.384 10.864 3 10.136 3 9.355V9.355C3 8.054 4.054 7 5.355 7H7.529" stroke="#161924" stroke-width="1.5" stroke-linecap="round" stroke-linejoin="round"/>
</svg>
