<svg width="24" height="24" viewBox="0 0 24 24" fill="none" xmlns="http://www.w3.org/2000/svg">
<path d="M21.0037 12.0001V18.0026C21.0037 19.6601 19.66 21.0038 18.0025 21.0038H5.9975C4.33995 21.0038 2.99625 19.6601 2.99625 18.0026V5.99759C2.99625 4.34004 4.33995 2.99634 5.9975 2.99634H12" stroke="#161924" stroke-width="1.5" stroke-linecap="round" stroke-linejoin="round"/>
<path d="M2.99625 15.0015H7.38007C7.75867 15.0015 8.10483 15.2152 8.27444 15.5537L8.72163 16.4491C8.89113 16.7883 9.23782 17.0025 9.617 17.0023H14.382C14.7612 17.0025 15.1079 16.7883 15.2774 16.4491L15.7245 15.5547C15.894 15.2155 16.2407 15.0013 16.6199 15.0015H21.0037" stroke="#161924" stroke-width="1.5" stroke-linecap="round" stroke-linejoin="round"/>
<path d="M18.0025 1.99585C20.2125 1.99585 22.0042 3.78746 22.0042 5.99752C22.0042 8.20758 20.2125 9.99918 18.0025 9.99918C15.7924 9.99918 14.0008 8.20758 14.0008 5.99752C14.0008 3.78746 15.7924 1.99585 18.0025 1.99585" stroke="#161924" stroke-width="1.5" stroke-linecap="round" stroke-linejoin="round"/>
<path d="M16.752 5.99752H19.253" stroke="#161924" stroke-width="1.5" stroke-linecap="round" stroke-linejoin="round"/>
<path d="M18.0025 4.74707V7.24811" stroke="#161924" stroke-width="1.5" stroke-linecap="round" stroke-linejoin="round"/>
</svg>
