<svg width="24" height="24" viewBox="0 0 24 24" fill="none" xmlns="http://www.w3.org/2000/svg">
<path fill-rule="evenodd" clip-rule="evenodd" d="M17.759 20.183C17.759 20.183 20.6342 18.8093 20.6342 16.7482L20.6409 14.3491L18.5443 13.5984C18.0403 13.4179 17.4892 13.4179 16.9862 13.5984L14.8905 14.3491L14.8838 16.7472C14.8838 18.8083 17.759 20.183 17.759 20.183Z" stroke="#161924" stroke-width="1.5" stroke-linecap="round" stroke-linejoin="round"/>
<path d="M19.6714 10.6099V5.81952" stroke="#161924" stroke-width="1.5" stroke-linecap="round" stroke-linejoin="round"/>
<path d="M11.0365 16.3699H5.27939C4.21955 16.3699 3.36035 15.5107 3.36035 14.4499V5.79263" stroke="#161924" stroke-width="1.5" stroke-linecap="round" stroke-linejoin="round"/>
<path fill-rule="evenodd" clip-rule="evenodd" d="M17.7421 3.86304H5.28995C4.22435 3.86304 3.36035 4.72704 3.36035 5.79264V5.79264C3.36035 6.43296 3.67715 7.03104 4.20707 7.39008L9.34691 10.8758C10.6573 11.7638 12.3757 11.7638 13.6861 10.8758L18.825 7.39104C19.3549 7.032 19.6717 6.43296 19.6717 5.7936V5.79264C19.6717 4.72704 18.8077 3.86304 17.7421 3.86304Z" stroke="#161924" stroke-width="1.5" stroke-linecap="round" stroke-linejoin="round"/>
</svg>
