<svg width="24" height="24" viewBox="0 0 24 24" fill="none" xmlns="http://www.w3.org/2000/svg">
<path d="M20 13.758V6.03299" stroke="#161924" stroke-width="1.5" stroke-linecap="round" stroke-linejoin="round"/>
<path d="M13.028 18H5C3.343 18 2 16.657 2 15V6.03299" stroke="#161924" stroke-width="1.5" stroke-linecap="round" stroke-linejoin="round"/>
<path fill-rule="evenodd" clip-rule="evenodd" d="M9.136 11.018L3.085 7.831C2.418 7.479 2 6.787 2 6.033V6C2 4.895 2.895 4 4 4H17.967C19.09 4 20 4.91 20 6.033V6.053C20 6.795 19.589 7.477 18.932 7.823L12.864 11.019C11.697 11.633 10.303 11.633 9.136 11.018Z" stroke="#161924" stroke-width="1.5" stroke-linecap="round" stroke-linejoin="round"/>
<path d="M19.25 16.652L17.062 18.84L15.75 17.527" stroke="#161924" stroke-width="1.5" stroke-linecap="round" stroke-linejoin="round"/>
<path d="M20.6823 14.322C22.4392 16.084 22.4392 18.942 20.6832 20.705C18.9632 22.431 16.0383 22.431 14.3173 20.705C12.5603 18.942 12.5613 16.084 14.3183 14.322C16.0753 12.559 18.9253 12.559 20.6823 14.322" stroke="#161924" stroke-width="1.5" stroke-linecap="round" stroke-linejoin="round"/>
</svg>
