<svg width="24" height="24" viewBox="0 0 24 24" fill="none" xmlns="http://www.w3.org/2000/svg">
<path d="M14.88 10.5734L12.96 8.6534L14.88 6.7334" stroke="#161924" stroke-width="1.5" stroke-linecap="round" stroke-linejoin="round"/>
<path d="M20.64 11.5334V18.2534C20.64 19.3142 19.7808 20.1734 18.72 20.1734H5.28C4.2192 20.1734 3.36 19.3142 3.36 18.2534V4.81343C3.36 3.75263 4.2192 2.89343 5.28 2.89343H17.76C19.3507 2.89343 20.64 4.18271 20.64 5.77343V5.77343C20.64 7.36415 19.3507 8.65343 17.76 8.65343H12.96" stroke="#161924" stroke-width="1.5" stroke-linecap="round" stroke-linejoin="round"/>
<path d="M3.36 14.4135H7.56672C7.93056 14.4135 8.26272 14.6189 8.42496 14.9443L8.85408 15.8026C9.01728 16.128 9.34944 16.3335 9.71328 16.3335H14.2867C14.6506 16.3335 14.9827 16.128 15.145 15.8026L15.5741 14.9443C15.7373 14.6189 16.0694 14.4135 16.4333 14.4135H20.64" stroke="#161924" stroke-width="1.5" stroke-linecap="round" stroke-linejoin="round"/>
</svg>
