<svg width="24" height="24" viewBox="0 0 24 24" fill="none" xmlns="http://www.w3.org/2000/svg">
<path fill-rule="evenodd" clip-rule="evenodd" d="M18.7204 20.1869H5.28035C4.21955 20.1869 3.36035 19.3277 3.36035 18.2669V10.5869C3.36035 9.52607 4.21955 8.66687 5.28035 8.66687H18.7204C19.7812 8.66687 20.6404 9.52607 20.6404 10.5869V18.2669C20.6404 19.3277 19.7812 20.1869 18.7204 20.1869Z" stroke="#161924" stroke-width="1.5" stroke-linecap="round" stroke-linejoin="round"/>
<path fill-rule="evenodd" clip-rule="evenodd" d="M15.8409 11.5469H16.8009C17.3308 11.5469 17.7609 11.977 17.7609 12.5069V13.4669C17.7609 13.9968 17.3308 14.4269 16.8009 14.4269H15.8409C15.3109 14.4269 14.8809 13.9968 14.8809 13.4669V12.5069C14.8809 11.977 15.3109 11.5469 15.8409 11.5469Z" stroke="#161924" stroke-width="1.5" stroke-linecap="round" stroke-linejoin="round"/>
<path d="M6.24023 8.66689V3.86689C6.24023 3.33697 6.67031 2.90689 7.20023 2.90689H16.8002C17.3302 2.90689 17.7602 3.33697 17.7602 3.86689V8.66689" stroke="#161924" stroke-width="1.5" stroke-linecap="round" stroke-linejoin="round"/>
<path d="M9.12012 5.78881H14.8801" stroke="#161924" stroke-width="1.5" stroke-linecap="round" stroke-linejoin="round"/>
<path d="M9.12023 14.4269H6.24023" stroke="#161924" stroke-width="1.5" stroke-linecap="round" stroke-linejoin="round"/>
<path d="M11.0402 17.3069H6.24023" stroke="#161924" stroke-width="1.5" stroke-linecap="round" stroke-linejoin="round"/>
</svg>
