<svg width="24" height="24" viewBox="0 0 24 24" fill="none" xmlns="http://www.w3.org/2000/svg">
<path d="M14.0215 16.4256C13.3591 16.6992 12.6737 16.8268 12.0007 16.8268C9.08518 16.8268 6.7207 14.4624 6.7207 11.5468C6.7207 8.63133 9.08518 6.26685 12.0007 6.26685C14.9162 6.26685 17.2807 8.63133 17.2807 11.5468V12.4262C17.2807 13.3372 16.5415 14.0755 15.6314 14.0755C14.7213 14.0755 13.9821 13.3363 13.9821 12.4262V11.5468C13.9821 10.4524 13.0961 9.56733 12.0026 9.56733V9.56733C10.9082 9.56733 10.0231 10.4534 10.0231 11.5468C10.0231 12.6403 10.9092 13.5264 12.0026 13.5264" stroke="#161924" stroke-width="1.5" stroke-linecap="round" stroke-linejoin="round"/>
<path d="M12.001 13.5273C13.0954 13.5273 13.9805 12.6412 13.9805 11.5478" stroke="#161924" stroke-width="1.5" stroke-linecap="round" stroke-linejoin="round"/>
<path fill-rule="evenodd" clip-rule="evenodd" d="M12.0004 2.90686V2.90686C16.7725 2.90686 20.6404 6.7747 20.6404 11.5469V11.5469C20.6404 16.319 16.7725 20.1869 12.0004 20.1869V20.1869C7.22819 20.1869 3.36035 16.319 3.36035 11.5469V11.5469C3.36035 6.7747 7.22819 2.90686 12.0004 2.90686Z" stroke="#161924" stroke-width="1.5" stroke-linecap="round" stroke-linejoin="round"/>
</svg>
