<svg width="24" height="24" viewBox="0 0 24 24" fill="none" xmlns="http://www.w3.org/2000/svg">
<path d="M20.1499 11.0669V6.27747" stroke="#161924" stroke-width="1.5" stroke-linecap="round" stroke-linejoin="round"/>
<path d="M16.3106 16.8L14.3906 18.72L16.3106 20.64" stroke="#161924" stroke-width="1.5" stroke-linecap="round" stroke-linejoin="round"/>
<path fill-rule="evenodd" clip-rule="evenodd" d="M18.2293 4.34689H5.7704C4.70384 4.34689 3.83984 5.21089 3.83984 6.27745V6.27745C3.83984 6.91777 4.1576 7.51585 4.68752 7.87489L9.83024 11.3607C11.1406 12.2487 12.861 12.2487 14.1714 11.3607L19.3131 7.87585C19.8421 7.51681 20.1598 6.91777 20.1598 6.27841V6.27745C20.1598 5.21089 19.2958 4.34689 18.2293 4.34689V4.34689Z" stroke="#161924" stroke-width="1.5" stroke-linecap="round" stroke-linejoin="round"/>
<path d="M11.5198 16.8269H5.75984C4.69904 16.8269 3.83984 15.9677 3.83984 14.9069V6.27747" stroke="#161924" stroke-width="1.5" stroke-linecap="round" stroke-linejoin="round"/>
<path d="M18.2402 14.9069H19.2002C20.261 14.9069 21.1202 15.7661 21.1202 16.8269V16.8269C21.1202 17.8877 20.261 18.7469 19.2002 18.7469H18.7298H19.2002H14.3906" stroke="#161924" stroke-width="1.5" stroke-linecap="round" stroke-linejoin="round"/>
</svg>
