<svg width="24" height="24" viewBox="0 0 24 24" fill="none" xmlns="http://www.w3.org/2000/svg">
<path d="M17.001 7H18.646C19.946 7 21 8.054 21 9.355V9.355C21 10.136 20.613 10.866 19.967 11.304C18.628 12.212 16.229 13.838 14.243 15.184C12.888 16.103 11.111 16.102 9.756 15.184C7.83 13.879 5.388 12.223 4.03 11.303C3.384 10.864 3 10.136 3 9.355V9.355C3 8.054 4.054 7 5.355 7H7" stroke="#161924" stroke-width="1.5" stroke-linecap="round" stroke-linejoin="round"/>
<path d="M3 9.35501V18C3 19.657 4.343 21 6 21H18C19.657 21 21 19.657 21 18V9.35501" stroke="#161924" stroke-width="1.5" stroke-linecap="round" stroke-linejoin="round"/>
<path d="M13.5554 6.22198L11.6104 8.16698L10.4434 6.99998" stroke="#161924" stroke-width="1.5" stroke-linecap="round" stroke-linejoin="round"/>
<path fill-rule="evenodd" clip-rule="evenodd" d="M7.27427 7.81301L7.93827 8.68201L8.08227 9.76301C8.16227 10.363 8.63327 10.835 9.23327 10.915L10.3173 11.06L11.1853 11.724C11.6653 12.091 12.3323 12.091 12.8123 11.724L13.6813 11.06H13.6803L14.7623 10.916C15.3623 10.836 15.8343 10.365 15.9143 9.76501L16.0593 8.68101C16.0593 8.68201 16.3953 8.24201 16.7233 7.81301C17.0903 7.33301 17.0903 6.66601 16.7233 6.18601L16.0593 5.31701L15.9153 4.23601C15.8353 3.63601 15.3643 3.16401 14.7643 3.08401L13.6803 2.93901L12.8123 2.27501C12.3323 1.90801 11.6653 1.90801 11.1853 2.27501L10.3163 2.93901H10.3173L9.23427 3.08301C8.63427 3.16301 8.16227 3.63401 8.08227 4.23401L7.93827 5.31801C7.93827 5.31701 7.60227 5.75701 7.27427 6.18601C6.90727 6.66701 6.90727 7.33301 7.27427 7.81301Z" stroke="#161924" stroke-width="1.5" stroke-linecap="round" stroke-linejoin="round"/>
</svg>
