<svg width="24" height="24" viewBox="0 0 24 24" fill="none" xmlns="http://www.w3.org/2000/svg">
<path d="M8.16035 7.70688H5.07779C4.12931 7.70688 3.36035 8.47584 3.36035 9.42432C3.36035 9.9936 3.64259 10.5264 4.11395 10.8461L9.83267 14.7216C11.1421 15.6086 12.8596 15.6086 14.169 14.7216L19.8858 10.847C20.3581 10.5274 20.6404 9.99456 20.6404 9.42528V9.42432C20.6404 8.47584 19.8714 7.70688 18.9229 7.70688H15.8404" stroke="#161924" stroke-width="1.5" stroke-linecap="round" stroke-linejoin="round"/>
<path d="M3.36035 9.4397V18.2669C3.36035 19.3277 4.21955 20.1869 5.28035 20.1869H18.7204C19.7812 20.1869 20.6404 19.3277 20.6404 18.2669V9.4397" stroke="#161924" stroke-width="1.5" stroke-linecap="round" stroke-linejoin="round"/>
<path d="M3.89648 19.5984L9.19952 14.2954" stroke="#161924" stroke-width="1.5" stroke-linecap="round" stroke-linejoin="round"/>
<path d="M14.7998 14.2944L20.1028 19.5974" stroke="#161924" stroke-width="1.5" stroke-linecap="round" stroke-linejoin="round"/>
<path d="M11.9995 2.90689V9.57505" stroke="#161924" stroke-width="1.5" stroke-linecap="round" stroke-linejoin="round"/>
<path d="M13.9191 4.82689L11.9991 2.90689L10.0791 4.82689" stroke="#161924" stroke-width="1.5" stroke-linecap="round" stroke-linejoin="round"/>
</svg>
