<svg width="24" height="24" viewBox="0 0 24 24" fill="none" xmlns="http://www.w3.org/2000/svg">
<path d="M6.24023 5.78688H17.7602" stroke="#161924" stroke-width="1.5" stroke-linecap="round" stroke-linejoin="round"/>
<path fill-rule="evenodd" clip-rule="evenodd" d="M18.9229 8.66687H5.07779C4.12931 8.66687 3.36035 9.43583 3.36035 10.3843V10.3843C3.36035 10.9536 3.64259 11.4864 4.11395 11.8061L9.83267 15.6816C11.1421 16.5686 12.8596 16.5686 14.169 15.6816L19.8858 11.807C20.3581 11.4874 20.6404 10.9546 20.6404 10.3853V10.3843C20.6404 9.43583 19.8714 8.66687 18.9229 8.66687V8.66687Z" stroke="#161924" stroke-width="1.5" stroke-linecap="round" stroke-linejoin="round"/>
<path d="M8.61156 14.9376L3.92676 19.6224" stroke="#161924" stroke-width="1.5" stroke-linecap="round" stroke-linejoin="round"/>
<path d="M15.3896 14.9376L20.0744 19.6224" stroke="#161924" stroke-width="1.5" stroke-linecap="round" stroke-linejoin="round"/>
<path d="M3.36035 10.3997V18.2669C3.36035 19.3277 4.21955 20.1869 5.28035 20.1869H18.7204C19.7812 20.1869 20.6404 19.3277 20.6404 18.2669V10.3997" stroke="#161924" stroke-width="1.5" stroke-linecap="round" stroke-linejoin="round"/>
<path d="M8.16016 2.90688H15.8402" stroke="#161924" stroke-width="1.5" stroke-linecap="round" stroke-linejoin="round"/>
</svg>
