<svg width="24" height="24" viewBox="0 0 24 24" fill="none" xmlns="http://www.w3.org/2000/svg">
<path d="M3.36035 9.31488V18.24C3.36035 19.3008 4.21955 20.16 5.28035 20.16H18.7194C19.7802 20.16 20.6394 19.3008 20.6394 18.24V9.31488" stroke="#161924" stroke-width="1.5" stroke-linecap="round" stroke-linejoin="round"/>
<path d="M9.23556 14.2848L3.92676 19.5936" stroke="#161924" stroke-width="1.5" stroke-linecap="round" stroke-linejoin="round"/>
<path d="M20.0744 19.5936L14.7656 14.2848" stroke="#161924" stroke-width="1.5" stroke-linecap="round" stroke-linejoin="round"/>
<path d="M6.24088 6.35712L4.21144 7.72224C3.08056 8.48256 3.08056 10.1472 4.21144 10.9085L9.85048 14.7024C11.1503 15.577 12.8495 15.577 14.1494 14.7024L19.7884 10.9085C20.9193 10.1472 20.9193 8.48352 19.7884 7.72224L17.7609 6.35712" stroke="#161924" stroke-width="1.5" stroke-linecap="round" stroke-linejoin="round"/>
<path d="M17.7602 12.2736V3.74592C17.7602 3.216 17.3302 2.78592 16.8002 2.78592H7.20023C6.67031 2.78592 6.24023 3.216 6.24023 3.74592V12.2736" stroke="#161924" stroke-width="1.5" stroke-linecap="round" stroke-linejoin="round"/>
<path d="M9.12012 6.24001H14.8801" stroke="#161924" stroke-width="1.5" stroke-linecap="round" stroke-linejoin="round"/>
<path d="M9.12012 9.6H14.8801" stroke="#161924" stroke-width="1.5" stroke-linecap="round" stroke-linejoin="round"/>
</svg>
