<svg width="24" height="24" viewBox="0 0 24 24" fill="none" xmlns="http://www.w3.org/2000/svg">
<path d="M6.32661 9.498L4.92603 9.499" stroke="#161924" stroke-width="1.5" stroke-linecap="round" stroke-linejoin="round"/>
<path d="M16.831 4.59704L15.8406 5.58746" stroke="#161924" stroke-width="1.5" stroke-linecap="round" stroke-linejoin="round"/>
<path d="M11.9289 2.49609V3.89668" stroke="#161924" stroke-width="1.5" stroke-linecap="round" stroke-linejoin="round"/>
<path d="M7.02686 4.59704L8.01628 5.58746" stroke="#161924" stroke-width="1.5" stroke-linecap="round" stroke-linejoin="round"/>
<path d="M18.9318 9.499L17.5312 9.498" stroke="#161924" stroke-width="1.5" stroke-linecap="round" stroke-linejoin="round"/>
<path d="M21.0037 13.0005V18.5028C21.0037 20.1603 19.66 21.504 18.0025 21.504H5.99747C4.33992 21.504 2.99622 20.1603 2.99622 18.5028V13.0005" stroke="#161924" stroke-width="1.5" stroke-linecap="round" stroke-linejoin="round"/>
<path d="M2.99622 15.5015H7.38004C7.75864 15.5015 8.1048 15.7152 8.27441 16.0537L8.7216 16.9491C8.8911 17.2883 9.23779 17.5025 9.61697 17.5023H14.382C14.7611 17.5025 15.1078 17.2883 15.2773 16.9491L15.7245 16.0547C15.894 15.7155 16.2407 15.5013 16.6199 15.5015H21.0037" stroke="#161924" stroke-width="1.5" stroke-linecap="round" stroke-linejoin="round"/>
<path d="M10.8335 9.33304L12 8.16455V12.8345" stroke="#161924" stroke-width="1.5" stroke-linecap="round" stroke-linejoin="round"/>
<path d="M10.8365 12.8374H13.1635" stroke="#161924" stroke-width="1.5" stroke-linecap="round" stroke-linejoin="round"/>
</svg>
