<svg width="24" height="24" viewBox="0 0 24 24" fill="none" xmlns="http://www.w3.org/2000/svg">
<path fill-rule="evenodd" clip-rule="evenodd" d="M6.828 19.828L4.171 17.171C3.421 16.421 3 15.404 3 14.343V9.657C3 8.596 3.421 7.579 4.172 6.829L6.829 4.172C7.579 3.421 8.596 3 9.657 3H14.342C15.403 3 16.42 3.421 17.17 4.172L19.828 6.83C20.579 7.58 21 8.597 21 9.658V14.342C21 15.403 20.579 16.42 19.829 17.17L17.172 19.828C16.422 20.578 15.404 21 14.343 21H9.657C8.596 21 7.579 20.579 6.828 19.828Z" stroke="#161924" stroke-width="1.5" stroke-linecap="round" stroke-linejoin="round"/>
<path d="M7.50293 8.78101C8.14093 9.36501 9.63893 10.735 10.8779 11.864C11.5139 12.444 12.4869 12.445 13.1229 11.865C14.4059 10.695 15.8719 9.35401 16.4979 8.78101" stroke="#161924" stroke-width="1.5" stroke-linecap="round" stroke-linejoin="round"/>
<path fill-rule="evenodd" clip-rule="evenodd" d="M15.333 15.696H8.667C7.746 15.696 7 14.949 7 14.029V9.97102C7 9.05102 7.746 8.30402 8.667 8.30402H15.334C16.254 8.30402 17.001 9.05002 17.001 9.97102V14.029C17 14.949 16.254 15.696 15.333 15.696Z" stroke="#161924" stroke-width="1.5" stroke-linecap="round" stroke-linejoin="round"/>
<path d="M12.9766 11.984C14.0366 12.877 15.8006 14.545 16.5036 15.214" stroke="#161924" stroke-width="1.5" stroke-linecap="round" stroke-linejoin="round"/>
<path d="M11.0231 11.983C9.96312 12.876 8.19812 14.544 7.49512 15.213" stroke="#161924" stroke-width="1.5" stroke-linecap="round" stroke-linejoin="round"/>
</svg>
