<svg width="24" height="24" viewBox="0 0 24 24" fill="none" xmlns="http://www.w3.org/2000/svg">
<path d="M18.7202 12.5069V5.79745" stroke="#161924" stroke-width="1.5" stroke-linecap="round" stroke-linejoin="round"/>
<path d="M13.9204 16.3469H4.32039C3.25959 16.3469 2.40039 15.4877 2.40039 14.4269V5.7869" stroke="#161924" stroke-width="1.5" stroke-linecap="round" stroke-linejoin="round"/>
<path fill-rule="evenodd" clip-rule="evenodd" d="M16.7898 3.86688H4.33095C3.26439 3.86688 2.40039 4.73088 2.40039 5.79744V5.79744C2.40039 6.43776 2.71815 7.03584 3.24807 7.39488L8.39079 10.8806C9.70119 11.7686 11.4215 11.7686 12.7319 10.8806L17.8737 7.39584C18.4026 7.0368 18.7204 6.43776 18.7204 5.7984V5.79744C18.7204 4.73088 17.8564 3.86688 16.7898 3.86688V3.86688Z" stroke="#161924" stroke-width="1.5" stroke-linecap="round" stroke-linejoin="round"/>
<path d="M20.4753 13.632C21.9748 15.1315 21.9748 17.5632 20.4753 19.0627C18.9758 20.5622 16.5441 20.5622 15.0446 19.0627C13.545 17.5632 13.545 15.1315 15.0446 13.632C16.5441 12.1325 18.9758 12.1325 20.4753 13.632" stroke="#161924" stroke-width="1.5" stroke-linecap="round" stroke-linejoin="round"/>
<path d="M19.2532 15.6L17.386 17.4672L16.2666 16.3469" stroke="#161924" stroke-width="1.5" stroke-linecap="round" stroke-linejoin="round"/>
</svg>
