<svg width="24" height="24" viewBox="0 0 24 24" fill="none" xmlns="http://www.w3.org/2000/svg">
<path fill-rule="evenodd" clip-rule="evenodd" d="M14.5998 6.7V6.7C14.9998 7.1 15.0998 7.6 14.9998 8L13.8998 13.8C13.5998 15.2 12.4998 16.3 11.0998 16.6L5.2998 17.7C4.7998 17.8 4.2998 17.6 3.9998 17.3V17.3C3.3998 16.7 3.3998 15.8 3.9998 15.2L12.4998 6.7C12.9998 6.1 13.9998 6.1 14.5998 6.7V6.7Z" stroke="#161924" stroke-width="1.5" stroke-linecap="round" stroke-linejoin="round"/>
<path d="M9 4.09999C8.972 4.09999 8.95 4.07799 8.95 4.04999C8.95 4.02199 8.972 3.99999 9 3.99999C9.028 3.99999 9.05 4.02199 9.05 4.04999C9.05 4.07799 9.028 4.09999 9 4.09999" stroke="#161924" stroke-width="1.5" stroke-linecap="round" stroke-linejoin="round"/>
<path d="M3 21H21" stroke="#161924" stroke-width="1.5" stroke-linecap="round" stroke-linejoin="round"/>
<path d="M3 7V4" stroke="#161924" stroke-width="1.5" stroke-linecap="round" stroke-linejoin="round"/>
<path d="M6 5V4" stroke="#161924" stroke-width="1.5" stroke-linecap="round" stroke-linejoin="round"/>
<path d="M14.6 6.69998L19.8 11.9C20.6 12.7 20.6 13.9 19.8 14.7L13.5 21" stroke="#161924" stroke-width="1.5" stroke-linecap="round" stroke-linejoin="round"/>
<path d="M3.90039 17.4L7.60039 21" stroke="#161924" stroke-width="1.5" stroke-linecap="round" stroke-linejoin="round"/>
</svg>
