<svg width="24" height="24" viewBox="0 0 24 24" fill="none" xmlns="http://www.w3.org/2000/svg">
<path fill-rule="evenodd" clip-rule="evenodd" d="M15 15.696H9C7.895 15.696 7 14.801 7 13.696V10.305C7 9.19999 7.895 8.30499 9 8.30499H15C16.105 8.30499 17 9.19999 17 10.305V13.696C17 14.8 16.105 15.696 15 15.696Z" stroke="#161924" stroke-width="1.5" stroke-linecap="round" stroke-linejoin="round"/>
<path fill-rule="evenodd" clip-rule="evenodd" d="M12 21C16.9706 21 21 16.9706 21 12C21 7.02944 16.9706 3 12 3C7.02944 3 3 7.02944 3 12C3 16.9706 7.02944 21 12 21Z" stroke="#161924" stroke-width="1.5882" stroke-linecap="round" stroke-linejoin="round"/>
<path d="M7.60547 8.87399C8.24447 9.45899 9.52347 10.628 10.6545 11.66C11.4185 12.356 12.5835 12.356 13.3465 11.659C14.5105 10.597 15.7655 9.44899 16.3945 8.87299" stroke="#161924" stroke-width="1.5" stroke-linecap="round" stroke-linejoin="round"/>
</svg>
