<svg width="24" height="24" viewBox="0 0 24 24" fill="none" xmlns="http://www.w3.org/2000/svg">
<path fill-rule="evenodd" clip-rule="evenodd" d="M14.6002 13.5H9.4002C8.5002 13.5 7.7002 12.7 7.7002 11.8V9.2C7.7002 8.3 8.5002 7.5 9.4002 7.5H14.5002C15.4002 7.5 16.2002 8.3 16.2002 9.2V11.8C16.3002 12.7 15.5002 13.5 14.6002 13.5Z" stroke="#161924" stroke-width="1.5" stroke-linecap="round" stroke-linejoin="round"/>
<path d="M16 8.30001L13.1 10.6C12.5 11.1 11.6 11.1 11 10.6L8 8.20001" stroke="#161924" stroke-width="1.5" stroke-linecap="round" stroke-linejoin="round"/>
<path fill-rule="evenodd" clip-rule="evenodd" d="M20 16H16.5C16.2 16 15.9 16.2 15.7 16.4L15.3 17C15.1 17.3 14.8 17.4 14.5 17.4H9.5C9.2 17.4 8.9 17.2 8.7 17L8.3 16.4C8.1 16.2 7.8 16 7.5 16H4C3.4 16 3 16.4 3 17V18C3 19.1 3.9 20 5 20H19C20.1 20 21 19.1 21 18V17C21 16.4 20.6 16 20 16V16Z" stroke="#161924" stroke-width="1.5" stroke-linecap="round" stroke-linejoin="round"/>
<path d="M20 16V6C20 4.9 19.1 4 18 4H6C4.9 4 4 4.9 4 6V16" stroke="#161924" stroke-width="1.5" stroke-linecap="round" stroke-linejoin="round"/>
</svg>
