<svg width="24" height="24" viewBox="0 0 24 24" fill="none" xmlns="http://www.w3.org/2000/svg">
<path fill-rule="evenodd" clip-rule="evenodd" d="M15.002 16.004H8.99805C7.89305 16.004 6.99805 15.109 6.99805 14.004V10C6.99805 8.895 7.89305 8 8.99805 8H15.003C16.108 8 17.003 8.895 17.003 10V14.004C17.002 15.108 16.107 16.004 15.002 16.004Z" stroke="#161924" stroke-width="1.5" stroke-linecap="round" stroke-linejoin="round"/>
<path d="M17.9229 20.044C18.7329 19.447 19.4469 18.732 20.0439 17.923" stroke="#161924" stroke-width="1.5" stroke-linecap="round" stroke-linejoin="round"/>
<path d="M3.95605 6.07699C4.55305 5.26699 5.26805 4.55299 6.07705 3.95599" stroke="#161924" stroke-width="1.5" stroke-linecap="round" stroke-linejoin="round"/>
<path d="M10.5 21.876C11.495 22.026 12.505 22.026 13.5 21.876" stroke="#161924" stroke-width="1.5" stroke-linecap="round" stroke-linejoin="round"/>
<path d="M10.5 2.124C11.495 1.974 12.505 1.974 13.5 2.124" stroke="#161924" stroke-width="1.5" stroke-linecap="round" stroke-linejoin="round"/>
<path d="M3.95605 17.923C4.55305 18.733 5.26805 19.447 6.07705 20.044" stroke="#161924" stroke-width="1.5" stroke-linecap="round" stroke-linejoin="round"/>
<path d="M17.9229 3.95599C18.7329 4.55299 19.4469 5.26799 20.0439 6.07699" stroke="#161924" stroke-width="1.5" stroke-linecap="round" stroke-linejoin="round"/>
<path d="M2.12363 10.5C1.97363 11.495 1.97363 12.505 2.12363 13.5" stroke="#161924" stroke-width="1.5" stroke-linecap="round" stroke-linejoin="round"/>
<path d="M21.8754 10.5C22.0254 11.495 22.0254 12.505 21.8754 13.5" stroke="#161924" stroke-width="1.5" stroke-linecap="round" stroke-linejoin="round"/>
<path d="M7.0791 9.466L10.7731 12.108C11.5031 12.63 12.4841 12.631 13.2141 12.11L16.9211 9.466" stroke="#161924" stroke-width="1.5" stroke-linecap="round" stroke-linejoin="round"/>
</svg>
