<svg width="24" height="24" viewBox="0 0 24 24" fill="none" xmlns="http://www.w3.org/2000/svg">
<path fill-rule="evenodd" clip-rule="evenodd" d="M18.8401 13.975L21.7521 19.15C22.4691 20.424 21.5481 22 20.0861 22H14.2631C12.8001 22 11.8801 20.426 12.5971 19.15L15.5091 13.975C16.2381 12.675 18.1091 12.675 18.8401 13.975V13.975Z" stroke="#161924" stroke-width="1.5" stroke-linecap="round" stroke-linejoin="round"/>
<path d="M20 11V6.03299" stroke="#161924" stroke-width="1.5" stroke-linecap="round" stroke-linejoin="round"/>
<path d="M10 18H5C3.343 18 2 16.657 2 15V6.03299" stroke="#161924" stroke-width="1.5" stroke-linecap="round" stroke-linejoin="round"/>
<path fill-rule="evenodd" clip-rule="evenodd" d="M9.602 11.264L3.085 7.831C2.418 7.479 2 6.787 2 6.033V6C2 4.895 2.895 4 4 4H17.967C19.09 4 20 4.91 20 6.033V6.053C20 6.795 19.589 7.477 18.932 7.823L12.398 11.265C11.523 11.724 10.477 11.724 9.602 11.264Z" stroke="#161924" stroke-width="1.5" stroke-linecap="round" stroke-linejoin="round"/>
<path d="M17.1738 17.622V15.868" stroke="#161924" stroke-width="1.5" stroke-linecap="round" stroke-linejoin="round"/>
<path d="M17.1733 19.557C17.1253 19.557 17.0863 19.596 17.0873 19.644C17.0873 19.692 17.1263 19.731 17.1743 19.731C17.2223 19.731 17.2603 19.692 17.2603 19.644C17.2603 19.596 17.2213 19.557 17.1733 19.557" stroke="#161924" stroke-width="1.5" stroke-linecap="round" stroke-linejoin="round"/>
</svg>
