<svg width="24" height="24" viewBox="0 0 24 24" fill="none" xmlns="http://www.w3.org/2000/svg">
<path d="M20 13.507V6.03299" stroke="#161924" stroke-width="1.5" stroke-linecap="round" stroke-linejoin="round"/>
<path d="M13 18H5C3.343 18 2 16.657 2 15V6.03299" stroke="#161924" stroke-width="1.5" stroke-linecap="round" stroke-linejoin="round"/>
<path fill-rule="evenodd" clip-rule="evenodd" d="M9.136 11.018L3.085 7.831C2.418 7.479 2 6.787 2 6.033V6C2 4.895 2.895 4 4 4H17.967C19.09 4 20 4.91 20 6.033V6.053C20 6.795 19.589 7.477 18.932 7.823L12.864 11.019C11.697 11.633 10.303 11.633 9.136 11.018Z" stroke="#161924" stroke-width="1.5" stroke-linecap="round" stroke-linejoin="round"/>
<path fill-rule="evenodd" clip-rule="evenodd" d="M14.914 21.414L13.586 20.086C13.211 19.711 13 19.202 13 18.672V16.329C13 15.799 13.211 15.29 13.586 14.915L14.914 13.587C15.289 13.211 15.798 13 16.328 13H18.671C19.201 13 19.71 13.211 20.085 13.586L21.414 14.915C21.789 15.29 22 15.798 22 16.329V18.671C22 19.201 21.789 19.71 21.414 20.085L20.085 21.414C19.711 21.789 19.202 22 18.671 22H16.328C15.798 22 15.289 21.789 14.914 21.414V21.414Z" stroke="#161924" stroke-width="1.5" stroke-linecap="round" stroke-linejoin="round"/>
<path d="M17.501 17.323V15.569" stroke="#161924" stroke-width="1.5" stroke-linecap="round" stroke-linejoin="round"/>
<path d="M17.5005 19.257C17.4525 19.257 17.4135 19.296 17.4145 19.344C17.4145 19.392 17.4535 19.431 17.5015 19.431C17.5495 19.431 17.5875 19.392 17.5875 19.344C17.5875 19.296 17.5485 19.257 17.5005 19.257" stroke="#161924" stroke-width="1.5" stroke-linecap="round" stroke-linejoin="round"/>
</svg>
