<svg width="24" height="24" viewBox="0 0 24 24" fill="none" xmlns="http://www.w3.org/2000/svg">
<path d="M20.0481 3.49921C20.8382 4.28929 20.8382 5.56897 20.0481 6.35905C19.258 7.14913 17.9783 7.14913 17.1883 6.35905C16.3982 5.56897 16.3982 4.28929 17.1883 3.49921C17.9783 2.70913 19.259 2.70913 20.0481 3.49921" stroke="#161924" stroke-width="1.5" stroke-linecap="round" stroke-linejoin="round"/>
<path d="M19.6506 11.0237V18.1507C19.6506 19.2758 18.7396 20.1869 17.6144 20.1869H5.39651C4.27139 20.1869 3.36035 19.2758 3.36035 18.1507V5.9328C3.36035 4.80768 4.27139 3.89664 5.39651 3.89664H12.5236" stroke="#161924" stroke-width="1.5" stroke-linecap="round" stroke-linejoin="round"/>
<path d="M13.1532 16.0195C12.6136 16.2422 12.0549 16.3469 11.5048 16.3469C9.12788 16.3469 7.2002 14.4192 7.2002 12.0413C7.2002 9.66337 9.12788 7.73569 11.5058 7.73569C13.8837 7.73569 15.8114 9.66337 15.8114 12.0413V12.7584C15.8114 13.5014 15.2085 14.1034 14.4664 14.1034C13.7244 14.1034 13.1215 13.5005 13.1215 12.7584V12.0413C13.1215 11.1494 12.3986 10.4266 11.5068 10.4266V10.4266C10.6149 10.4266 9.89204 11.1494 9.89204 12.0413C9.89204 12.9331 10.6149 13.656 11.5068 13.656C12.3986 13.656 13.1215 12.9331 13.1215 12.0413" stroke="#161924" stroke-width="1.5" stroke-linecap="round" stroke-linejoin="round"/>
</svg>
