<svg width="24" height="24" viewBox="0 0 24 24" fill="none" xmlns="http://www.w3.org/2000/svg">
<path d="M3 15H7.382C7.76044 15 8.10646 15.2137 8.276 15.552L8.723 16.447C8.89242 16.7861 9.23897 17.0002 9.618 17H14.381C14.76 17.0002 15.1066 16.7861 15.276 16.447L15.723 15.553C15.8924 15.2139 16.239 14.9998 16.618 15H21" stroke="#161924" stroke-width="1.5" stroke-linecap="round" stroke-linejoin="round"/>
<path fill-rule="evenodd" clip-rule="evenodd" d="M18 3C19.6569 3 21 4.34315 21 6V18C21 19.6569 19.6569 21 18 21H6C4.34315 21 3 19.6569 3 18V6C3 4.34315 4.34315 3 6 3H18Z" stroke="#161924" stroke-width="1.5" stroke-linecap="round" stroke-linejoin="round"/>
<path d="M16 9.94459L8 9.94458" stroke="#161924" stroke-width="1.5" stroke-linecap="round" stroke-linejoin="round"/>
</svg>
