<svg width="24" height="24" viewBox="0 0 24 24" fill="none" xmlns="http://www.w3.org/2000/svg">
<path d="M19.6802 5.79745V12.5069" stroke="#161924" stroke-width="1.5" stroke-linecap="round" stroke-linejoin="round"/>
<path d="M20.6399 18.2669H14.8799" stroke="#161924" stroke-width="1.5" stroke-linecap="round" stroke-linejoin="round"/>
<path d="M18.7207 16.3469L20.6407 18.2669L18.7207 20.1869" stroke="#161924" stroke-width="1.5" stroke-linecap="round" stroke-linejoin="round"/>
<path d="M11.0404 16.3469H5.28035C4.21955 16.3469 3.36035 15.4877 3.36035 14.4269V5.79745" stroke="#161924" stroke-width="1.5" stroke-linecap="round" stroke-linejoin="round"/>
<path fill-rule="evenodd" clip-rule="evenodd" d="M5.29091 3.86688H17.7508C18.8164 3.86688 19.6813 4.73088 19.6813 5.79744V5.79744C19.6813 6.43776 19.3636 7.03584 18.8336 7.39488L13.6909 10.8806C12.3805 11.7686 10.6602 11.7686 9.34979 10.8806L4.20803 7.39584C3.67811 7.0368 3.36035 6.43776 3.36035 5.7984V5.79744C3.36035 4.73088 4.22435 3.86688 5.29091 3.86688Z" stroke="#161924" stroke-width="1.5" stroke-linecap="round" stroke-linejoin="round"/>
</svg>
