<svg width="24" height="24" viewBox="0 0 24 24" fill="none" xmlns="http://www.w3.org/2000/svg">
<path d="M20 13.759V6.03299" stroke="#161924" stroke-width="1.5" stroke-linecap="round" stroke-linejoin="round"/>
<path d="M13 18H5C3.343 18 2 16.657 2 15V6.03299" stroke="#161924" stroke-width="1.5" stroke-linecap="round" stroke-linejoin="round"/>
<path fill-rule="evenodd" clip-rule="evenodd" d="M9.136 11.018L3.085 7.831C2.418 7.479 2 6.787 2 6.033V6C2 4.895 2.895 4 4 4H17.967C19.09 4 20 4.91 20 6.033V6.053C20 6.795 19.589 7.477 18.932 7.823L12.864 11.019C11.697 11.633 10.303 11.633 9.136 11.018Z" stroke="#161924" stroke-width="1.5" stroke-linecap="round" stroke-linejoin="round"/>
<path d="M21.9902 17.496C21.9902 19.981 19.9762 21.996 17.4912 21.996C15.0582 21.997 12.9892 19.928 12.9902 17.495C12.9912 15.01 15.0052 12.996 17.4902 12.996C19.9752 12.996 21.9902 15.011 21.9902 17.496" stroke="#161924" stroke-width="1.5" stroke-linecap="round" stroke-linejoin="round"/>
<path d="M17.3721 15.81V17.763L18.9081 18.7" stroke="#161924" stroke-width="1.5" stroke-linecap="round" stroke-linejoin="round"/>
</svg>
