<svg width="24" height="24" viewBox="0 0 24 24" fill="none" xmlns="http://www.w3.org/2000/svg">
<path fill-rule="evenodd" clip-rule="evenodd" d="M14.8867 20.135H17.6006L21.3226 16.4131C21.6979 16.0378 21.6979 15.431 21.3226 15.0566L19.9661 13.7002C19.5907 13.3248 18.984 13.3248 18.6096 13.7002L14.8877 17.4221V20.135H14.8867Z" stroke="#161924" stroke-width="1.5" stroke-linecap="round" stroke-linejoin="round"/>
<path d="M19.6743 10.5619V5.77249" stroke="#161924" stroke-width="1.5" stroke-linecap="round" stroke-linejoin="round"/>
<path d="M11.0395 16.3219H5.2833C4.22346 16.3219 3.36426 15.4627 3.36426 14.4019V5.74561" stroke="#161924" stroke-width="1.5" stroke-linecap="round" stroke-linejoin="round"/>
<path fill-rule="evenodd" clip-rule="evenodd" d="M17.746 3.81503H5.29288C4.22728 3.81503 3.36328 4.67903 3.36328 5.74559V5.74559C3.36328 6.38591 3.68008 6.98399 4.21 7.34303L9.3508 10.8288C10.6612 11.7168 12.3796 11.7168 13.69 10.8288L18.8289 7.34399C19.3588 6.98495 19.6756 6.38591 19.6756 5.74655V5.74559C19.6746 4.67903 18.8116 3.81503 17.746 3.81503Z" stroke="#161924" stroke-width="1.5" stroke-linecap="round" stroke-linejoin="round"/>
</svg>
