<svg width="24" height="24" viewBox="0 0 24 24" fill="none" xmlns="http://www.w3.org/2000/svg">
<path d="M3 9.703V19C3 20.105 3.895 21 5 21H18.999C20.104 21 20.999 20.105 20.999 19V9.703" stroke="#161924" stroke-width="1.5" stroke-linecap="round" stroke-linejoin="round"/>
<path fill-rule="evenodd" clip-rule="evenodd" d="M3.8863 8.04399L10.8803 3.33899C11.5573 2.88399 12.4423 2.88399 13.1193 3.33899L20.1133 8.04399C21.2913 8.83699 21.2913 10.57 20.1133 11.363L14.2393 15.315C12.8853 16.226 11.1153 16.226 9.7613 15.315L3.8873 11.363C2.7083 10.57 2.7083 8.83599 3.8863 8.04399Z" stroke="#161924" stroke-width="1.5" stroke-linecap="round" stroke-linejoin="round"/>
<path d="M9.11984 14.88L3.58984 20.41" stroke="#161924" stroke-width="1.5" stroke-linecap="round" stroke-linejoin="round"/>
<path d="M20.4099 20.41L14.8799 14.88" stroke="#161924" stroke-width="1.5" stroke-linecap="round" stroke-linejoin="round"/>
<path d="M18 12.785V7.68701C18 6.58201 17.105 5.68701 16 5.68701H8C6.895 5.68701 6 6.58201 6 7.68701V12.785" stroke="#161924" stroke-width="1.5" stroke-linecap="round" stroke-linejoin="round"/>
<path d="M9 9H15" stroke="#161924" stroke-width="1.5" stroke-linecap="round" stroke-linejoin="round"/>
<path d="M9.5 12H14.5" stroke="#161924" stroke-width="1.5" stroke-linecap="round" stroke-linejoin="round"/>
</svg>
