<svg width="24" height="24" viewBox="0 0 24 24" fill="none" xmlns="http://www.w3.org/2000/svg">
<path fill-rule="evenodd" clip-rule="evenodd" d="M14.5208 14.9088H9.4808C8.55344 14.9088 7.80176 14.1571 7.80176 13.2298V9.86785C7.80176 8.94049 8.55344 8.18881 9.4808 8.18881H14.5227C15.4501 8.18881 16.2018 8.94049 16.2018 9.86785V13.2298C16.2008 14.1562 15.4491 14.9088 14.5208 14.9088V14.9088Z" stroke="#161924" stroke-width="1.5" stroke-linecap="round" stroke-linejoin="round"/>
<path d="M7.86914 9.41953L10.9709 11.6381C11.5834 12.0768 12.4071 12.0768 13.0205 11.64L16.1328 9.42049" stroke="#161924" stroke-width="1.5" stroke-linecap="round" stroke-linejoin="round"/>
<path d="M5.43457 5.94048C5.87713 5.42208 6.38113 4.96032 6.93409 4.56" stroke="#161924" stroke-width="1.5" stroke-linecap="round" stroke-linejoin="round"/>
<path d="M16.8006 18.7296C15.4278 19.6493 13.7775 20.1869 12.0006 20.1869C11.125 20.1869 10.2812 20.0544 9.48535 19.8125" stroke="#161924" stroke-width="1.5" stroke-linecap="round" stroke-linejoin="round"/>
<path d="M6.57624 18.2669C5.34648 17.2733 4.40184 15.9466 3.86328 14.4269" stroke="#161924" stroke-width="1.5" stroke-linecap="round" stroke-linejoin="round"/>
<path d="M3.86288 8.6669C3.5432 9.5693 3.3608 10.5351 3.3608 11.5469" stroke="#161924" stroke-width="1.5" stroke-linecap="round" stroke-linejoin="round"/>
<path d="M19.1655 16.3469C20.0909 14.9731 20.641 13.3277 20.641 11.5469C20.641 6.77473 16.7731 2.90689 12.001 2.90689" stroke="#161924" stroke-width="1.5" stroke-linecap="round" stroke-linejoin="round"/>
</svg>
