<svg width="24" height="24" viewBox="0 0 24 24" fill="none" xmlns="http://www.w3.org/2000/svg">
<path fill-rule="evenodd" clip-rule="evenodd" d="M3 16V18C3 19.6569 4.34315 21 6 21H18C19.6569 21 21 19.6569 21 18V16C21 15.4477 20.5523 15 20 15H16.618C16.2389 15 15.8924 15.2142 15.7229 15.5532L15.276 16.447C15.1065 16.7859 14.7601 17 14.3812 17H9.618C9.23878 17 8.89214 16.7857 8.7227 16.4464L8.27658 15.5532C8.10727 15.2142 7.76091 15 7.382 15H4C3.44772 15 3 15.4477 3 16Z" stroke="#161924" stroke-width="1.5" stroke-linecap="round" stroke-linejoin="round"/>
<path d="M9 7H12" stroke="#161924" stroke-width="1.5" stroke-linecap="round" stroke-linejoin="round"/>
<path d="M9 10H15" stroke="#161924" stroke-width="1.5" stroke-linecap="round" stroke-linejoin="round"/>
<path d="M19 12V5C19 3.89543 18.1046 3 17 3H7C5.89543 3 5 3.89543 5 5V12" stroke="#161924" stroke-width="1.5" stroke-linecap="round" stroke-linejoin="round"/>
</svg>
