<svg width="24" height="24" viewBox="0 0 24 24" fill="none" xmlns="http://www.w3.org/2000/svg">
<path fill-rule="evenodd" clip-rule="evenodd" d="M12 21C16.9706 21 21 16.9706 21 12C21 7.02944 16.9706 3 12 3C7.02944 3 3 7.02944 3 12C3 16.9706 7.02944 21 12 21Z" stroke="#161924" stroke-width="1.5882" stroke-linecap="round" stroke-linejoin="round"/>
<path d="M7.50293 8.78101C8.14093 9.36501 9.63893 10.735 10.8779 11.864C11.5139 12.444 12.4869 12.445 13.1229 11.865C14.4059 10.695 15.8719 9.35401 16.4979 8.78101" stroke="#161924" stroke-width="1.5" stroke-linecap="round" stroke-linejoin="round"/>
<path fill-rule="evenodd" clip-rule="evenodd" d="M15.333 15.696H8.667C7.746 15.696 7 14.949 7 14.029V9.97102C7 9.05102 7.746 8.30402 8.667 8.30402H15.334C16.254 8.30402 17.001 9.05002 17.001 9.97102V14.029C17 14.949 16.254 15.696 15.333 15.696Z" stroke="#161924" stroke-width="1.5" stroke-linecap="round" stroke-linejoin="round"/>
<path d="M12.9766 11.983C14.0366 12.876 15.8016 14.544 16.5046 15.213" stroke="#161924" stroke-width="1.5" stroke-linecap="round" stroke-linejoin="round"/>
<path d="M11.0231 11.983C9.96312 12.876 8.19812 14.544 7.49512 15.213" stroke="#161924" stroke-width="1.5" stroke-linecap="round" stroke-linejoin="round"/>
</svg>
