<svg width="24" height="24" viewBox="0 0 24 24" fill="none" xmlns="http://www.w3.org/2000/svg">
<path d="M19.796 14.3107C20.9211 15.4358 20.9211 17.2589 19.796 18.384C18.6709 19.5091 16.8479 19.5091 15.7227 18.384C14.5976 17.2589 14.5976 15.4358 15.7227 14.3107C16.8479 13.1856 18.6719 13.1856 19.796 14.3107" stroke="#161924" stroke-width="1.5" stroke-linecap="round" stroke-linejoin="round"/>
<path d="M19.6802 10.5869V5.79745" stroke="#161924" stroke-width="1.5" stroke-linecap="round" stroke-linejoin="round"/>
<path d="M11.0404 16.3469H5.28035C4.21955 16.3469 3.36035 15.4877 3.36035 14.4269V5.76001" stroke="#161924" stroke-width="1.5" stroke-linecap="round" stroke-linejoin="round"/>
<path fill-rule="evenodd" clip-rule="evenodd" d="M17.7498 3.86688H5.29091C4.22435 3.86688 3.36035 4.73088 3.36035 5.79744V5.79744C3.36035 6.43776 3.67811 7.03584 4.20803 7.39488L9.35075 10.8806C10.6612 11.7686 12.3815 11.7686 13.6919 10.8806L18.8336 7.39584C19.3626 7.0368 19.6804 6.43776 19.6804 5.7984V5.79744C19.6804 4.73088 18.8164 3.86688 17.7498 3.86688V3.86688Z" stroke="#161924" stroke-width="1.5" stroke-linecap="round" stroke-linejoin="round"/>
<path d="M21.6007 20.1888L19.7959 18.384" stroke="#161924" stroke-width="1.5" stroke-linecap="round" stroke-linejoin="round"/>
</svg>
