<svg width="24" height="24" viewBox="0 0 24 24" fill="none" xmlns="http://www.w3.org/2000/svg">
<path d="M18.7202 7.7069V5.5997" stroke="#161924" stroke-width="1.5" stroke-linecap="round" stroke-linejoin="round"/>
<path d="M2.40039 5.5997V14.4269C2.40039 15.4877 3.21255 16.3469 4.21383 16.3469H5.21895" stroke="#161924" stroke-width="1.5" stroke-linecap="round" stroke-linejoin="round"/>
<path d="M18.7204 5.79842V5.79842C18.7204 4.73186 17.8564 3.86786 16.7898 3.86786H4.33095C3.26439 3.8669 2.40039 4.7309 2.40039 5.79746V5.79746" stroke="#161924" stroke-width="1.5" stroke-linecap="round" stroke-linejoin="round"/>
<path fill-rule="evenodd" clip-rule="evenodd" d="M19.6803 20.1869H7.20027C6.13947 20.1869 5.28027 19.3277 5.28027 18.2669V9.62688C5.28027 8.56608 6.13947 7.70688 7.20027 7.70688H19.6803C20.7411 7.70688 21.6003 8.56608 21.6003 9.62688V18.2669C21.6003 19.3277 20.7411 20.1869 19.6803 20.1869Z" stroke="#161924" stroke-width="1.5" stroke-linecap="round" stroke-linejoin="round"/>
<path d="M8.73633 12.9984L11.3139 14.7456C12.5984 15.6163 14.2842 15.6163 15.5686 14.7456L18.1443 12.9984" stroke="#161924" stroke-width="1.5" stroke-linecap="round" stroke-linejoin="round"/>
</svg>
