<svg width="24" height="24" viewBox="0 0 24 24" fill="none" xmlns="http://www.w3.org/2000/svg">
<path fill-rule="evenodd" clip-rule="evenodd" d="M19.2089 9.59998H7.67159C6.88151 9.59998 6.24023 10.2403 6.24023 11.0313V11.0313C6.24023 11.5056 6.47543 11.9501 6.86807 12.216L11.6335 15.4454C12.725 16.1846 14.1564 16.1846 15.247 15.4454L20.0114 12.216C20.405 11.9501 20.6402 11.5065 20.6402 11.0313V11.0304C20.6402 10.2403 19.9999 9.59998 19.2089 9.59998V9.59998Z" stroke="#161924" stroke-width="1.5" stroke-linecap="round" stroke-linejoin="round"/>
<path d="M6.24023 11.0438V18.2399C6.24023 19.3007 7.09943 20.1599 8.16023 20.1599H18.7202C19.781 20.1599 20.6402 19.3007 20.6402 18.2399V11.0438" stroke="#161924" stroke-width="1.5" stroke-linecap="round" stroke-linejoin="round"/>
<path d="M18.2922 6.74683C18.2922 6.74683 14.8698 4.42747 13.0727 3.20923C12.4218 2.76859 11.5732 2.77147 10.9223 3.21211L4.20803 7.76251C3.68195 8.11867 3.36611 8.71387 3.36611 9.35035L3.36035 17.28" stroke="#161924" stroke-width="1.5" stroke-linecap="round" stroke-linejoin="round"/>
</svg>
