<svg width="24" height="24" viewBox="0 0 24 24" fill="none" xmlns="http://www.w3.org/2000/svg">
<path fill-rule="evenodd" clip-rule="evenodd" d="M17.3269 7.179C17.3269 4.319 14.9419 2 11.9999 2C9.05785 2 6.67285 4.319 6.67285 7.179C6.67285 10.202 9.89885 13.449 11.3299 14.741C11.7129 15.086 12.2869 15.086 12.6699 14.741C14.1009 13.449 17.3269 10.202 17.3269 7.179Z" stroke="#161924" stroke-width="1.5" stroke-linecap="round" stroke-linejoin="round"/>
<path d="M13.2538 6.08056C13.9462 6.76397 13.9462 7.87202 13.2538 8.55543C12.5614 9.23884 11.4388 9.23884 10.7464 8.55543C10.054 7.87201 10.054 6.76397 10.7464 6.08056C11.4388 5.39714 12.5614 5.39714 13.2538 6.08056" stroke="#161924" stroke-width="1.5" stroke-linecap="round" stroke-linejoin="round"/>
<path d="M7.556 10.177L3 12V20L8 18L12 21L16 18L21 20V12L16.444 10.177" stroke="#161924" stroke-width="1.5" stroke-linecap="round" stroke-linejoin="round"/>
</svg>
