<svg width="24" height="24" viewBox="0 0 24 24" fill="none" xmlns="http://www.w3.org/2000/svg">
<path d="M15.0002 3.00623V9.99914" stroke="#161924" stroke-width="1.5" stroke-linecap="round" stroke-linejoin="round"/>
<path d="M8.99826 4.77698V19.0029" stroke="#161924" stroke-width="1.5" stroke-linecap="round" stroke-linejoin="round"/>
<path d="M21.0036 10.9995V5.6103C21.0036 5.17952 20.7281 4.79704 20.3193 4.66091L15.6334 3.09626C15.2226 2.9597 14.7787 2.9597 14.3679 3.09626L9.63089 4.67691C9.22016 4.81384 8.77609 4.81384 8.36536 4.67691L4.31267 3.32635C4.00757 3.22473 3.67222 3.27597 3.41139 3.46407C3.15056 3.65216 2.99611 3.95417 2.99611 4.27575V15.6195C2.99404 16.0005 3.20854 16.3496 3.54935 16.5198L8.10425 18.7968C8.66758 19.0785 9.33067 19.0785 9.894 18.7968L10.9995 18.2386" stroke="#161924" stroke-width="1.5" stroke-linecap="round" stroke-linejoin="round"/>
<path fill-rule="evenodd" clip-rule="evenodd" d="M14 19.263V16.0777C14.0004 15.6712 14.2193 15.2963 14.5732 15.0963L17.4494 13.4786C17.7915 13.288 18.2078 13.288 18.5499 13.4786L21.4301 15.1013C21.7843 15.301 22.0033 15.6761 22.0033 16.0827V19.263C22.003 19.6693 21.784 20.0439 21.4301 20.2435L18.5519 21.8601C18.2099 22.0511 17.7934 22.0511 17.4514 21.8601L14.5752 20.2425C14.2204 20.0441 14.0004 19.6695 14 19.263Z" stroke="#161924" stroke-width="1.5" stroke-linecap="round" stroke-linejoin="round"/>
<path d="M18.0022 17.6694V22.0042" stroke="#161924" stroke-width="1.5" stroke-linecap="round" stroke-linejoin="round"/>
<path d="M14.1543 15.5095L18.0019 17.6694L21.8505 15.5095" stroke="#161924" stroke-width="1.5" stroke-linecap="round" stroke-linejoin="round"/>
</svg>
