<svg width="24" height="24" viewBox="0 0 24 24" fill="none" xmlns="http://www.w3.org/2000/svg">
<path fill-rule="evenodd" clip-rule="evenodd" d="M16.0016 21.0038H7.9983C5.23572 21.0038 2.99622 18.7643 2.99622 16.0018V7.99842C2.99622 5.23585 5.23572 2.99634 7.9983 2.99634H16.0016C18.7642 2.99634 21.0037 5.23585 21.0037 7.99842V16.0018C21.0037 18.7643 18.7642 21.0038 16.0016 21.0038Z" stroke="#161924" stroke-width="1.5" stroke-linecap="round" stroke-linejoin="round"/>
<path d="M19.5386 4.46143L4.4613 19.5388" stroke="#161924" stroke-width="1.5" stroke-linecap="round" stroke-linejoin="round"/>
<path d="M9.17273 14.8274C9.74494 15.6928 10.3644 16.5261 11.0283 17.3233C11.2652 17.6173 11.6225 17.7882 12 17.7882C12.3776 17.7882 12.7348 17.6173 12.9717 17.3233C14.2952 15.7307 16.5019 12.7673 16.5019 10.7139" stroke="#161924" stroke-width="1.5" stroke-linecap="round" stroke-linejoin="round"/>
<path d="M8.09454 12.9044C7.74675 12.2232 7.54369 11.4774 7.49816 10.7139" stroke="#161924" stroke-width="1.5" stroke-linecap="round" stroke-linejoin="round"/>
<path d="M15.7578 8.24243C16.2431 8.97531 16.502 9.83488 16.5019 10.7139" stroke="#161924" stroke-width="1.5" stroke-linecap="round" stroke-linejoin="round"/>
<path d="M14.1936 6.80524C13.526 6.42109 12.7702 6.21666 12 6.21191C9.51373 6.21191 7.49817 8.22747 7.49817 10.7138" stroke="#161924" stroke-width="1.5" stroke-linecap="round" stroke-linejoin="round"/>
</svg>
