<svg width="24" height="24" viewBox="0 0 24 24" fill="none" xmlns="http://www.w3.org/2000/svg">
<path fill-rule="evenodd" clip-rule="evenodd" d="M17.2764 6.02201V6.02201C20.1906 8.93622 20.1906 13.6611 17.2764 16.5753L13.2432 20.6085C12.5565 21.2952 11.443 21.2952 10.7563 20.6085L6.72311 16.5753C3.80889 13.6611 3.80889 8.93622 6.72311 6.02201V6.02201C9.63732 3.1078 14.3622 3.1078 17.2764 6.02201Z" stroke="#161924" stroke-width="1.5" stroke-linecap="round" stroke-linejoin="round"/>
<path fill-rule="evenodd" clip-rule="evenodd" d="M12.2786 14.1194L15.5602 10.8378C15.9339 10.4629 15.9339 9.85648 15.5602 9.48167L14.038 7.95943C13.6632 7.58579 13.0567 7.58579 12.6819 7.95943L9.40023 11.2411C9.22035 11.421 9.11914 11.6648 9.11884 11.9192V14.4008H11.6005C11.8549 14.4005 12.0987 14.2993 12.2786 14.1194Z" stroke="#161924" stroke-width="1.5" stroke-linecap="round" stroke-linejoin="round"/>
</svg>
