<svg width="24" height="24" viewBox="0 0 24 24" fill="none" xmlns="http://www.w3.org/2000/svg">
<path d="M10.5 6.75005C10.5 6.94896 10.421 7.13973 10.2803 7.28038C10.1397 7.42103 9.94891 7.50005 9.75 7.50005H3.75C3.55109 7.50005 3.36032 7.42103 3.21967 7.28038C3.07902 7.13973 3 6.94896 3 6.75005C3 6.55114 3.07902 6.36037 3.21967 6.21972C3.36032 6.07907 3.55109 6.00005 3.75 6.00005H9.75C9.94891 6.00005 10.1397 6.07907 10.2803 6.21972C10.421 6.36037 10.5 6.55114 10.5 6.75005ZM9.75 16.5001H7.5V14.2501C7.5 14.0511 7.42098 13.8604 7.28033 13.7197C7.13968 13.5791 6.94891 13.5001 6.75 13.5001C6.55109 13.5001 6.36032 13.5791 6.21967 13.7197C6.07902 13.8604 6 14.0511 6 14.2501V16.5001H3.75C3.55109 16.5001 3.36032 16.5791 3.21967 16.7197C3.07902 16.8604 3 17.0511 3 17.2501C3 17.449 3.07902 17.6397 3.21967 17.7804C3.36032 17.921 3.55109 18.0001 3.75 18.0001H6V20.2501C6 20.449 6.07902 20.6397 6.21967 20.7804C6.36032 20.921 6.55109 21.0001 6.75 21.0001C6.94891 21.0001 7.13968 20.921 7.28033 20.7804C7.42098 20.6397 7.5 20.449 7.5 20.2501V18.0001H9.75C9.94891 18.0001 10.1397 17.921 10.2803 17.7804C10.421 17.6397 10.5 17.449 10.5 17.2501C10.5 17.0511 10.421 16.8604 10.2803 16.7197C10.1397 16.5791 9.94891 16.5001 9.75 16.5001ZM14.25 16.5001H20.25C20.4489 16.5001 20.6397 16.421 20.7803 16.2804C20.921 16.1397 21 15.949 21 15.7501C21 15.5511 20.921 15.3604 20.7803 15.2197C20.6397 15.0791 20.4489 15.0001 20.25 15.0001H14.25C14.0511 15.0001 13.8603 15.0791 13.7197 15.2197C13.579 15.3604 13.5 15.5511 13.5 15.7501C13.5 15.949 13.579 16.1397 13.7197 16.2804C13.8603 16.421 14.0511 16.5001 14.25 16.5001ZM20.25 18.0001H14.25C14.0511 18.0001 13.8603 18.0791 13.7197 18.2197C13.579 18.3604 13.5 18.5511 13.5 18.7501C13.5 18.949 13.579 19.1397 13.7197 19.2804C13.8603 19.421 14.0511 19.5001 14.25 19.5001H20.25C20.4489 19.5001 20.6397 19.421 20.7803 19.2804C20.921 19.1397 21 18.949 21 18.7501C21 18.5511 20.921 18.3604 20.7803 18.2197C20.6397 18.0791 20.4489 18.0001 20.25 18.0001ZM14.4694 9.53068C14.539 9.60041 14.6217 9.65573 14.7128 9.69347C14.8038 9.73121 14.9014 9.75064 15 9.75064C15.0986 9.75064 15.1962 9.73121 15.2872 9.69347C15.3783 9.65573 15.461 9.60041 15.5306 9.53068L17.25 7.81036L18.9694 9.53068C19.0391 9.60036 19.1218 9.65563 19.2128 9.69335C19.3039 9.73106 19.4015 9.75047 19.5 9.75047C19.5985 9.75047 19.6961 9.73106 19.7872 9.69335C19.8782 9.65563 19.9609 9.60036 20.0306 9.53068C20.1003 9.46099 20.1556 9.37827 20.1933 9.28722C20.231 9.19618 20.2504 9.0986 20.2504 9.00005C20.2504 8.9015 20.231 8.80392 20.1933 8.71288C20.1556 8.62183 20.1003 8.53911 20.0306 8.46943L18.3103 6.75005L20.0306 5.03068C20.1714 4.88995 20.2504 4.69907 20.2504 4.50005C20.2504 4.30103 20.1714 4.11016 20.0306 3.96943C19.8899 3.8287 19.699 3.74963 19.5 3.74963C19.301 3.74963 19.1101 3.8287 18.9694 3.96943L17.25 5.68974L15.5306 3.96943C15.3899 3.8287 15.199 3.74963 15 3.74963C14.801 3.74963 14.6101 3.8287 14.4694 3.96943C14.3286 4.11016 14.2496 4.30103 14.2496 4.50005C14.2496 4.69907 14.3286 4.88995 14.4694 5.03068L16.1897 6.75005L14.4694 8.46943C14.3996 8.53908 14.3443 8.6218 14.3066 8.71285C14.2688 8.80389 14.2494 8.90149 14.2494 9.00005C14.2494 9.09861 14.2688 9.19621 14.3066 9.28726C14.3443 9.3783 14.3996 9.46102 14.4694 9.53068Z" fill="#161924"/>
</svg>
