<svg width="24" height="24" viewBox="0 0 24 24" fill="none" xmlns="http://www.w3.org/2000/svg">
<path d="M12.0004 15.6C13.9886 15.6 15.6004 13.9882 15.6004 12C15.6004 10.0118 13.9886 8.40002 12.0004 8.40002C10.0122 8.40002 8.40039 10.0118 8.40039 12C8.40039 13.9882 10.0122 15.6 12.0004 15.6Z" stroke="#161924" stroke-width="1.5" stroke-linecap="round" stroke-linejoin="round"/>
<path d="M15.6 8.4V12.9C15.6 13.6161 15.8845 14.3028 16.3908 14.8092C16.8972 15.3155 17.5839 15.6 18.3 15.6C19.0161 15.6 19.7028 15.3155 20.2092 14.8092C20.7155 14.3028 21 13.6161 21 12.9V12C21 9.97258 20.3155 8.00454 19.0573 6.41476C17.7991 4.82497 16.041 3.70657 14.0678 3.24077C12.0946 2.77496 10.0219 2.98903 8.1856 3.8483C6.34927 4.70757 4.85686 6.1617 3.95017 7.97508C3.04347 9.78847 2.77562 11.8549 3.19 13.8395C3.60438 15.8241 4.67672 17.6107 6.23328 18.9098C7.78984 20.2088 9.73943 20.9443 11.7662 20.997C13.7929 21.0496 15.7781 20.4165 17.4 19.2" stroke="#161924" stroke-width="1.5" stroke-linecap="round" stroke-linejoin="round"/>
</svg>
