<svg width="24" height="24" viewBox="0 0 24 24" fill="none" xmlns="http://www.w3.org/2000/svg">
<path d="M18.0025 6.99788V4.99705C18.0025 3.89159 17.1071 2.99622 16.0016 2.99622H4.99705C3.89159 2.99622 2.99622 3.89159 2.99622 4.99705V16.0016C2.99622 17.1071 3.89159 18.0025 4.99705 18.0025H6.99788" stroke="#161924" stroke-width="1.5" stroke-linecap="round" stroke-linejoin="round"/>
<path fill-rule="evenodd" clip-rule="evenodd" d="M19.447 21.0038H8.55451C7.69415 21.0038 6.99786 20.3075 6.99786 19.4471V8.55457C6.99786 7.69421 7.69415 6.99792 8.55451 6.99792H19.448C20.3074 6.99792 21.0037 7.69421 21.0037 8.55457V19.4481C21.0037 20.3075 20.3074 21.0038 19.447 21.0038Z" stroke="#161924" stroke-width="1.5" stroke-linecap="round" stroke-linejoin="round"/>
<path d="M17.8914 10.8885H13.2225" stroke="#161924" stroke-width="1.5" stroke-linecap="round" stroke-linejoin="round"/>
<path d="M13.2225 14.0008H17.8914" stroke="#161924" stroke-width="1.5" stroke-linecap="round" stroke-linejoin="round"/>
<path d="M13.2225 17.1131H17.8914" stroke="#161924" stroke-width="1.5" stroke-linecap="round" stroke-linejoin="round"/>
<path d="M10.1092 13.8067C10.0022 13.8067 9.91512 13.8938 9.91612 14.0008C9.91612 14.1079 10.0032 14.1949 10.1102 14.1949C10.2172 14.1949 10.3043 14.1079 10.3043 14.0008C10.3043 13.8938 10.2172 13.8067 10.1092 13.8067" stroke="#161924" stroke-width="1.5" stroke-linecap="round" stroke-linejoin="round"/>
<path d="M10.1092 16.919C10.0022 16.919 9.91512 17.0061 9.91612 17.1131C9.91612 17.2202 10.0032 17.3072 10.1102 17.3072C10.2172 17.3072 10.3043 17.2202 10.3043 17.1131C10.3043 17.0061 10.2172 16.919 10.1092 16.919" stroke="#161924" stroke-width="1.5" stroke-linecap="round" stroke-linejoin="round"/>
<path d="M10.1092 10.6935C10.0021 10.6935 9.91511 10.7805 9.91611 10.8875C9.91611 10.9946 10.0031 11.0816 10.1102 11.0816C10.2172 11.0816 10.3043 10.9946 10.3043 10.8875C10.3053 10.7815 10.2172 10.6935 10.1092 10.6935" stroke="#161924" stroke-width="1.5" stroke-linecap="round" stroke-linejoin="round"/>
</svg>
