<svg width="24" height="24" viewBox="0 0 24 24" fill="none" xmlns="http://www.w3.org/2000/svg">
<path fill-rule="evenodd" clip-rule="evenodd" d="M15.8673 13L18.1843 14.8868C18.334 15.0086 18.5404 15.0334 18.7146 14.9506C18.8889 14.8678 19 14.692 19 14.4991V13C20.6569 13 22 11.6569 22 10V5C22 3.34315 20.6569 2 19 2H13C11.3431 2 10 3.34315 10 5V10C10 11.6569 11.3431 13 13 13H15.8673Z" stroke="#161924" stroke-width="1.5" stroke-linecap="round" stroke-linejoin="round"/>
<path d="M14 16V17C14 18.6569 12.6569 20 11 20H8.13268L5.81568 21.8868C5.66603 22.0086 5.45964 22.0334 5.28535 21.9506C5.11107 21.8678 5.00001 21.692 5 21.4991V20C3.34315 20 2 18.6569 2 17V13C2 11.3431 3.34315 10 5 10H7" stroke="#161924" stroke-width="1.5" stroke-linecap="round" stroke-linejoin="round"/>
<path fill-rule="evenodd" clip-rule="evenodd" d="M15.8302 5.51726L15.9999 5.68956L16.1754 5.50416C16.473 5.18656 16.8876 5.00445 17.3229 5.00008C17.7582 4.99571 18.1763 5.16946 18.4804 5.48102L18.516 5.51723C19.1613 6.18031 19.1613 7.23661 18.516 7.89969L16.7617 9.68101C16.5608 9.88513 16.2864 10.0001 15.9999 10.0001C15.7135 10.0001 15.4391 9.88513 15.2382 9.68101L13.4839 7.89973C12.8387 7.23664 12.8387 6.18035 13.4839 5.51726V5.51726C13.7934 5.20292 14.216 5.0259 14.6571 5.0259C15.0982 5.0259 15.5208 5.20292 15.8302 5.51726V5.51726Z" stroke="#161924" stroke-width="1.5" stroke-linecap="round" stroke-linejoin="round"/>
<path d="M5.55 15.0001C5.54997 15.0277 5.52758 15.05 5.49998 15.05C5.47238 15.05 5.45001 15.0276 5.45 15C5.44999 14.9724 5.47234 14.95 5.49994 14.95C5.51322 14.95 5.52596 14.9553 5.53536 14.9646C5.54475 14.974 5.55002 14.9868 5.55 15.0001" stroke="#161924" stroke-width="1.5" stroke-linecap="round" stroke-linejoin="round"/>
<path d="M8.05 15.0001C8.04997 15.0277 8.02758 15.05 7.99998 15.05C7.97238 15.05 7.95001 15.0276 7.95 15C7.94999 14.9724 7.97234 14.95 7.99994 14.95C8.01322 14.95 8.02596 14.9553 8.03536 14.9646C8.04475 14.974 8.05002 14.9868 8.05 15.0001" stroke="#161924" stroke-width="1.5" stroke-linecap="round" stroke-linejoin="round"/>
<path d="M10.55 15.0001C10.55 15.0277 10.5276 15.05 10.5 15.05C10.4724 15.05 10.45 15.0276 10.45 15C10.45 14.9724 10.4723 14.95 10.4999 14.95C10.5132 14.95 10.526 14.9553 10.5354 14.9646C10.5447 14.974 10.55 14.9868 10.55 15.0001" stroke="#161924" stroke-width="1.5" stroke-linecap="round" stroke-linejoin="round"/>
</svg>
