<svg width="24" height="24" viewBox="0 0 24 24" fill="none" xmlns="http://www.w3.org/2000/svg">
<path fill-rule="evenodd" clip-rule="evenodd" d="M20 20V5.778C20 4.796 19.204 4 18.222 4H5.778C4.796 4 4 4.796 4 5.778V16.445C4 17.427 4.796 18.223 5.778 18.223H16.667L20 20Z" stroke="#161924" stroke-width="1.3333" stroke-linecap="round" stroke-linejoin="round"/>
<path d="M12.177 11.073C12.275 11.171 12.275 11.329 12.177 11.427C12.079 11.525 11.921 11.525 11.823 11.427C11.725 11.329 11.725 11.171 11.823 11.073C11.921 10.975 12.079 10.976 12.177 11.073" stroke="#161924" stroke-width="1.5" stroke-linecap="round" stroke-linejoin="round"/>
<path d="M16.177 11.073C16.275 11.171 16.275 11.329 16.177 11.427C16.079 11.525 15.921 11.525 15.823 11.427C15.725 11.329 15.725 11.171 15.823 11.073C15.921 10.975 16.079 10.976 16.177 11.073" stroke="#161924" stroke-width="1.5" stroke-linecap="round" stroke-linejoin="round"/>
<path d="M8.177 11.073C8.275 11.171 8.275 11.329 8.177 11.427C8.079 11.525 7.921 11.525 7.823 11.427C7.725 11.329 7.725 11.171 7.823 11.073C7.921 10.975 8.079 10.976 8.177 11.073" stroke="#161924" stroke-width="1.5" stroke-linecap="round" stroke-linejoin="round"/>
</svg>
