<svg width="24" height="24" viewBox="0 0 24 24" fill="none" xmlns="http://www.w3.org/2000/svg">
<path fill-rule="evenodd" clip-rule="evenodd" d="M12.507 18H18C19.6569 18 21 16.6569 21 15V6C21 4.34315 19.6569 3 18 3H6C4.34315 3 3 4.34315 3 6V15C3 16.6569 4.34315 18 6 18H8.007V20.4429C8.007 20.6567 8.12953 20.8515 8.3222 20.9441C8.51487 21.0367 8.74356 21.0107 8.91049 20.8771L12.507 18Z" stroke="#161924" stroke-width="1.5" stroke-linecap="round" stroke-linejoin="round"/>
<path fill-rule="evenodd" clip-rule="evenodd" d="M11.7739 8.40748L12 8.63707L12.2261 8.40745C12.6376 7.98699 13.201 7.75 13.7893 7.75C14.3776 7.75 14.9411 7.98699 15.3525 8.40745V8.40745C16.2158 9.28952 16.2158 10.6999 15.3525 11.5819L13.2374 13.7296C12.9117 14.0624 12.4657 14.25 12 14.25C11.5343 14.25 11.0882 14.0624 10.7625 13.7296L8.6475 11.582C7.78417 10.6999 7.78417 9.28957 8.6475 8.40749V8.40749C9.05893 7.98702 9.62241 7.75003 10.2107 7.75002C10.799 7.75002 11.3624 7.98701 11.7739 8.40748V8.40748Z" stroke="#161924" stroke-width="1.5" stroke-linecap="round" stroke-linejoin="round"/>
</svg>
