<svg width="24" height="24" viewBox="0 0 24 24" fill="none" xmlns="http://www.w3.org/2000/svg">
<path d="M20.0036 17.0021L17.5026 19.5031L16.002 18.0025" stroke="#161924" stroke-width="1.5" stroke-linecap="round" stroke-linejoin="round"/>
<path d="M20.9416 13.0004C20.9827 12.6685 21.0036 12.3344 21.0036 12V12C21.0036 7.02736 16.9725 2.99625 11.9998 2.99625C7.02721 2.99625 2.99609 7.02736 2.99609 12C2.99609 16.9726 7.02721 21.0037 11.9998 21.0037C12.3343 21.0037 12.6684 20.9829 13.0003 20.9417" stroke="#161924" stroke-width="1.5" stroke-linecap="round" stroke-linejoin="round"/>
<path d="M15.001 7.99832C16.106 7.99832 17.0018 8.89413 17.0018 9.99915V13.0004C17.0018 14.1054 16.106 15.0012 15.001 15.0012" stroke="#161924" stroke-width="1.5" stroke-linecap="round" stroke-linejoin="round"/>
<path d="M15.001 15.0013H13.1328" stroke="#161924" stroke-width="1.5" stroke-linecap="round" stroke-linejoin="round"/>
<path d="M8.99902 7.99832H15.0015" stroke="#161924" stroke-width="1.5" stroke-linecap="round" stroke-linejoin="round"/>
<path d="M9.99944 15.0013H8.99902" stroke="#161924" stroke-width="1.5" stroke-linecap="round" stroke-linejoin="round"/>
<path d="M8.99888 15.0012C7.89385 15.0012 6.99805 14.1054 6.99805 13.0004V9.99915C6.99805 8.89413 7.89385 7.99832 8.99888 7.99832" stroke="#161924" stroke-width="1.5" stroke-linecap="round" stroke-linejoin="round"/>
<path d="M13.133 15.0013L10.8151 16.8888C10.6654 17.0107 10.4589 17.0355 10.2845 16.9527C10.1101 16.8698 9.99902 16.6939 9.99902 16.5009V15.0013" stroke="#161924" stroke-width="1.5" stroke-linecap="round" stroke-linejoin="round"/>
</svg>
