<svg width="24" height="24" viewBox="0 0 24 24" fill="none" xmlns="http://www.w3.org/2000/svg">
<path fill-rule="evenodd" clip-rule="evenodd" d="M14 18L18 21V18H19C20.105 18 21 17.105 21 16V10C21 8.895 20.105 8 19 8H11C9.895 8 9 8.895 9 10V16C9 17.105 9.895 18 11 18H14Z" stroke="#161924" stroke-width="1.5" stroke-linecap="round" stroke-linejoin="round"/>
<path d="M9 15L6 17V14H5C3.895 14 3 13.105 3 12V6C3 4.895 3.895 4 5 4H14C15.105 4 16 4.895 16 6V8" stroke="#161924" stroke-width="1.5" stroke-linecap="round" stroke-linejoin="round"/>
<path d="M12.4309 12.9646C12.4504 12.9841 12.4504 13.0158 12.4309 13.0353C12.4113 13.0549 12.3797 13.0549 12.3602 13.0353C12.3406 13.0158 12.3406 12.9841 12.3602 12.9646C12.3797 12.9451 12.4113 12.9451 12.4309 12.9646" stroke="#161924" stroke-width="1.5" stroke-linecap="round" stroke-linejoin="round"/>
<path d="M15.0354 12.9646C15.0549 12.9841 15.0549 13.0158 15.0354 13.0353C15.0158 13.0549 14.9842 13.0549 14.9646 13.0353C14.9451 13.0158 14.9451 12.9841 14.9646 12.9646C14.9842 12.9451 15.0158 12.9451 15.0354 12.9646" stroke="#161924" stroke-width="1.5" stroke-linecap="round" stroke-linejoin="round"/>
<path d="M17.6408 12.9646C17.6604 12.9841 17.6604 13.0158 17.6408 13.0353C17.6213 13.0549 17.5896 13.0549 17.5701 13.0353C17.5506 13.0158 17.5506 12.9841 17.5701 12.9646C17.5896 12.9451 17.6213 12.9451 17.6408 12.9646" stroke="#161924" stroke-width="1.5" stroke-linecap="round" stroke-linejoin="round"/>
</svg>
