<svg width="24" height="24" viewBox="0 0 24 24" fill="none" xmlns="http://www.w3.org/2000/svg">
<path d="M14.0001 10.4988L11.5016 13.0004L10.001 11.4998" stroke="#161924" stroke-width="1.5" stroke-linecap="round" stroke-linejoin="round"/>
<path fill-rule="evenodd" clip-rule="evenodd" d="M11.9998 3.99664C7.02777 3.99664 2.99609 7.35672 2.99609 11.4969C3.07125 13.9952 4.4491 16.2717 6.62761 17.497C6.41121 18.0851 6.11031 18.6385 5.73437 19.1398C5.52688 19.4428 5.53201 19.8434 5.7472 20.1409C5.96238 20.4385 6.34125 20.5688 6.69393 20.4666C7.89676 20.1164 9.02892 19.5581 10.039 18.8171C10.6856 18.9383 11.342 18.9985 11.9998 18.9971C16.9719 18.9971 21.0036 15.637 21.0036 11.4969C21.0036 7.35673 16.9719 3.99664 11.9998 3.99664Z" stroke="#161924" stroke-width="1.5" stroke-linecap="round" stroke-linejoin="round"/>
</svg>
