<svg width="24" height="24" viewBox="0 0 24 24" fill="none" xmlns="http://www.w3.org/2000/svg">
<path fill-rule="evenodd" clip-rule="evenodd" d="M13.5005 19.0029V20.5025C13.5005 20.6956 13.6116 20.8714 13.786 20.9543C13.9603 21.0372 14.1668 21.0123 14.3165 20.8904L16.6344 19.0029H19.0028C20.1078 19.0029 21.0036 18.1071 21.0036 17.0021V13.0004C21.0036 11.8954 20.1078 10.9996 19.0028 10.9996H11.9999C10.8948 10.9996 9.99902 11.8954 9.99902 13.0004V17.0021C9.99902 18.1071 10.8948 19.0029 11.9999 19.0029H13.5005Z" stroke="#161924" stroke-width="1.5" stroke-linecap="round" stroke-linejoin="round"/>
<path d="M9.95828 7.74738L8.0835 9.62316L6.95703 8.49769" stroke="#161924" stroke-width="1.5" stroke-linecap="round" stroke-linejoin="round"/>
<path d="M13.8963 7.99833C13.6651 5.24147 11.4082 3.09339 8.64327 2.9985C5.87836 2.90361 3.47953 4.89191 3.05982 7.62643C2.64011 10.361 4.3322 12.9772 6.9983 13.7159" stroke="#161924" stroke-width="1.5" stroke-linecap="round" stroke-linejoin="round"/>
</svg>
