<svg width="24" height="24" viewBox="0 0 24 24" fill="none" xmlns="http://www.w3.org/2000/svg">
<path d="M17 10.5H7" stroke="#161924" stroke-width="1.5" stroke-linecap="round" stroke-linejoin="round"/>
<path d="M7.5 10.5L8.23926 14.64C8.3798 15.4269 9.0642 16 9.86359 16H14.1364C14.9358 16 15.6202 15.4269 15.7607 14.64L16.5 10.5" stroke="#161924" stroke-width="1.5" stroke-linecap="round" stroke-linejoin="round"/>
<path d="M14 8L15.6923 10.5" stroke="#161924" stroke-width="1.5" stroke-linecap="round" stroke-linejoin="round"/>
<path d="M9.99988 8L8.30762 10.5" stroke="#161924" stroke-width="1.5" stroke-linecap="round" stroke-linejoin="round"/>
<path fill-rule="evenodd" clip-rule="evenodd" d="M4.219 17.4506C1.39229 13.4161 2.11853 7.89024 5.89171 4.72316C9.66488 1.55608 15.233 1.7987 18.7164 5.28196C22.1998 8.76522 22.4427 14.3333 19.2758 18.1066C16.1088 21.88 10.583 22.6064 6.5484 19.7799L3.5535 20.4454L4.219 17.4506Z" stroke="#161924" stroke-width="1.5" stroke-linecap="round" stroke-linejoin="round"/>
</svg>
