<svg width="24" height="24" viewBox="0 0 24 24" fill="none" xmlns="http://www.w3.org/2000/svg">
<path d="M18.5026 18.5669V20.5025C18.5026 20.7048 18.3807 20.8872 18.1938 20.9646C18.0069 21.042 17.7918 20.9993 17.6487 20.8562L15.3594 18.5669" stroke="#161924" stroke-width="1.5" stroke-linecap="round" stroke-linejoin="round"/>
<path d="M18.0029 9.49896H18.5067C19.886 9.49896 21.0042 10.6171 21.0042 11.9965V16.0694C21.0042 17.4488 19.886 18.5669 18.5067 18.5669V18.5669" stroke="#161924" stroke-width="1.5" stroke-linecap="round" stroke-linejoin="round"/>
<path d="M15.3629 18.5669H12.4965C11.1172 18.5669 9.99902 17.4488 9.99902 16.0694V15.0013" stroke="#161924" stroke-width="1.5" stroke-linecap="round" stroke-linejoin="round"/>
<path fill-rule="evenodd" clip-rule="evenodd" d="M8.70452 12L6.35104 14.3535C6.20798 14.4966 5.99283 14.5394 5.80591 14.462C5.619 14.3845 5.49714 14.2021 5.49714 13.9998V12H5.49359C4.83121 12 4.19596 11.7369 3.72759 11.2685C3.25921 10.8001 2.99609 10.1649 2.99609 9.50248V5.49375C2.99609 4.11442 4.11426 2.99625 5.49359 2.99625H12.5036C13.8829 2.99625 15.0011 4.11442 15.0011 5.49375V9.50248C15.0011 10.1649 14.738 10.8001 14.2696 11.2685C13.8012 11.7369 13.166 12 12.5036 12H8.70452Z" stroke="#161924" stroke-width="1.5" stroke-linecap="round" stroke-linejoin="round"/>
<path d="M6.99805 5.99749H9.9993" stroke="#161924" stroke-width="1.5" stroke-linecap="round" stroke-linejoin="round"/>
<path d="M6.99805 8.99874H7.99846" stroke="#161924" stroke-width="1.5" stroke-linecap="round" stroke-linejoin="round"/>
<path d="M15.001 15.0012H17.0018" stroke="#161924" stroke-width="1.5" stroke-linecap="round" stroke-linejoin="round"/>
</svg>
