<svg width="24" height="24" viewBox="0 0 24 24" fill="none" xmlns="http://www.w3.org/2000/svg">
<path d="M18.5027 18.5671V20.5028C18.5027 20.7051 18.3808 20.8874 18.1939 20.9649C18.007 21.0423 17.7919 20.9995 17.6488 20.8565L15.3595 18.5671" stroke="#161924" stroke-width="1.5" stroke-linecap="round" stroke-linejoin="round"/>
<path d="M18.0025 9.49902H18.5063C19.8856 9.49902 21.0038 10.6172 21.0038 11.9965V16.0695C21.0038 17.4488 19.8856 18.567 18.5063 18.567V18.567" stroke="#161924" stroke-width="1.5" stroke-linecap="round" stroke-linejoin="round"/>
<path d="M15.363 18.5672H12.4966C11.1173 18.5672 9.99915 17.449 9.99915 16.0697V15.0015" stroke="#161924" stroke-width="1.5" stroke-linecap="round" stroke-linejoin="round"/>
<path fill-rule="evenodd" clip-rule="evenodd" d="M8.70464 12.0001L6.35116 14.3536C6.2081 14.4967 5.99295 14.5395 5.80604 14.4621C5.61912 14.3846 5.49726 14.2022 5.49726 13.9999V12.0001H5.49372C4.83133 12.0001 4.19608 11.737 3.72771 11.2686C3.25934 10.8002 2.99622 10.1649 2.99622 9.50257V5.49384C2.99622 4.11451 4.11438 2.99634 5.49372 2.99634H12.5037C13.883 2.99634 15.0012 4.11451 15.0012 5.49384V9.50257C15.0012 10.1649 14.7381 10.8002 14.2697 11.2686C13.8013 11.737 13.1661 12.0001 12.5037 12.0001H8.70464Z" stroke="#161924" stroke-width="1.5" stroke-linecap="round" stroke-linejoin="round"/>
</svg>
