<svg width="24" height="24" viewBox="0 0 24 24" fill="none" xmlns="http://www.w3.org/2000/svg">
<path fill-rule="evenodd" clip-rule="evenodd" d="M16.0038 2.99634C18.7652 2.99634 21.0038 5.23491 21.0038 7.99634V16.0038C21.0038 18.7653 18.7652 21.0038 16.0038 21.0038H7.99625C5.23483 21.0038 2.99625 18.7653 2.99625 16.0038V7.99634C2.99625 5.23491 5.23483 2.99634 7.99625 2.99634L16.0038 2.99634Z" stroke="#161924" stroke-width="1.5" stroke-linecap="round" stroke-linejoin="round"/>
<path d="M10.8884 14.2233H10.6105C8.61533 14.2233 6.99791 12.6059 6.99791 10.6107V10.6107C6.99791 9.65254 7.37852 8.73365 8.05602 8.05616C8.73352 7.37866 9.6524 6.99805 10.6105 6.99805H12.9978C15.2093 6.99805 17.0021 8.79084 17.0021 11.0024V11.0024C17.0021 12.3929 16.2807 13.6839 15.0964 14.4127L10.8884 17.0022V14.2233" stroke="#161924" stroke-width="1.5" stroke-linecap="round" stroke-linejoin="round"/>
</svg>
