<svg width="24" height="24" viewBox="0 0 24 24" fill="none" xmlns="http://www.w3.org/2000/svg">
<path d="M7.65039 8.75H8.90839L9.90939 13.75H14.9544L15.6504 10.25H9.20839" stroke="#161924" stroke-width="1.5" stroke-linecap="round" stroke-linejoin="round"/>
<path d="M14.4779 16.1647C14.4973 16.1843 14.4972 16.2159 14.4777 16.2354C14.4581 16.2548 14.4265 16.2548 14.407 16.2353C14.3875 16.2158 14.3875 16.1842 14.407 16.1647C14.4264 16.1451 14.458 16.145 14.4776 16.1645L14.4779 16.1647" stroke="#161924" stroke-width="1.5" stroke-linecap="round" stroke-linejoin="round"/>
<path d="M10.4496 16.1647C10.469 16.1843 10.4689 16.2159 10.4493 16.2354C10.4298 16.2548 10.3982 16.2548 10.3787 16.2353C10.3592 16.2158 10.3592 16.1842 10.3786 16.1647C10.3981 16.1451 10.4297 16.145 10.4493 16.1645L10.4496 16.1647" stroke="#161924" stroke-width="1.5" stroke-linecap="round" stroke-linejoin="round"/>
<path fill-rule="evenodd" clip-rule="evenodd" d="M4.62847 17.1637C1.95054 13.3415 2.63856 8.10651 6.21315 5.10613C9.78773 2.10574 15.0628 2.33559 18.3629 5.63552C21.6629 8.93545 21.893 14.2105 18.8927 17.7852C15.8925 21.3599 10.6575 22.0482 6.83526 19.3704L3.99799 20.0008L4.62847 17.1637Z" stroke="#161924" stroke-width="1.5" stroke-linecap="round" stroke-linejoin="round"/>
</svg>
