<svg width="24" height="24" viewBox="0 0 24 24" fill="none" xmlns="http://www.w3.org/2000/svg">
<path d="M21 9V6C21 4.343 19.657 3 18 3H6C4.343 3 3 4.343 3 6V17C3 18.657 4.343 20 6 20H8" stroke="#161924" stroke-width="1.5" stroke-linecap="round" stroke-linejoin="round"/>
<path fill-rule="evenodd" clip-rule="evenodd" d="M18.726 12.6851L21.743 18.0471C22.485 19.3681 21.532 21.0001 20.016 21.0001H13.983C12.468 21.0001 11.514 19.3691 12.257 18.0481L15.274 12.6861C16.03 11.3381 17.968 11.3381 18.726 12.6851Z" stroke="#161924" stroke-width="1.5" stroke-linecap="round" stroke-linejoin="round"/>
<path d="M17 16.4649V14.6479" stroke="#161924" stroke-width="1.5" stroke-linecap="round" stroke-linejoin="round"/>
<path d="M16.999 18.469C16.949 18.469 16.909 18.51 16.91 18.559C16.91 18.609 16.951 18.649 17 18.649C17.049 18.649 17.089 18.608 17.089 18.559C17.089 18.51 17.049 18.469 16.999 18.469" stroke="#161924" stroke-width="1.5" stroke-linecap="round" stroke-linejoin="round"/>
<path d="M7 7.5H17" stroke="#161924" stroke-width="1.5" stroke-linecap="round" stroke-linejoin="round"/>
<path d="M7 12H11" stroke="#161924" stroke-width="1.5" stroke-linecap="round" stroke-linejoin="round"/>
</svg>
