<svg width="24" height="24" viewBox="0 0 24 24" fill="none" xmlns="http://www.w3.org/2000/svg">
<path fill-rule="evenodd" clip-rule="evenodd" d="M8.99876 15.0012V15.0012C7.34106 15.0012 5.99751 13.6577 5.99751 12V5.99747C5.99751 4.33978 7.34106 2.99622 8.99876 2.99622V2.99622C10.6564 2.99622 12 4.33978 12 5.99747V12C12 13.6577 10.6564 15.0012 8.99876 15.0012Z" stroke="#161924" stroke-width="1.5" stroke-linecap="round" stroke-linejoin="round"/>
<path d="M15.0013 10.9995V11.9999C15.0013 15.3153 12.3141 18.0024 8.99875 18.0024V18.0024C5.68337 18.0024 2.99625 15.3153 2.99625 11.9999V10.9995" stroke="#161924" stroke-width="1.5" stroke-linecap="round" stroke-linejoin="round"/>
<path d="M8.99875 18.0024V21.0037" stroke="#161924" stroke-width="1.5" stroke-linecap="round" stroke-linejoin="round"/>
<path d="M5.99751 21.0036H12" stroke="#161924" stroke-width="1.5" stroke-linecap="round" stroke-linejoin="round"/>
<path d="M20.9177 5.91145L18.0885 3.08228" stroke="#161924" stroke-width="1.5" stroke-linecap="round" stroke-linejoin="round"/>
<path d="M21.0038 2.99622L18.0025 5.99747" stroke="#161924" stroke-width="1.5" stroke-linecap="round" stroke-linejoin="round"/>
</svg>
