<svg width="24" height="24" viewBox="0 0 24 24" fill="none" xmlns="http://www.w3.org/2000/svg">
<path fill-rule="evenodd" clip-rule="evenodd" d="M15.3587 5.95949L15.5 6.10298L15.6413 5.95947C15.8985 5.69669 16.2507 5.54858 16.6183 5.54858C16.986 5.54858 17.3382 5.69669 17.5953 5.95947V5.95947C18.1349 6.51073 18.1349 7.3922 17.5953 7.94347L16.3757 9.18187C16.1447 9.41649 15.8292 9.54861 15.5 9.54861C15.1708 9.54861 14.8553 9.41649 14.6244 9.18187L13.4047 7.94348C12.8651 7.39221 12.8651 6.51074 13.4047 5.95948V5.95948C13.6619 5.69671 14.014 5.5486 14.3817 5.5486C14.7494 5.54861 15.1015 5.69671 15.3587 5.95949V5.95949Z" stroke="#161924" stroke-width="1.5" stroke-linecap="round" stroke-linejoin="round"/>
<path fill-rule="evenodd" clip-rule="evenodd" d="M16.7022 12.6364L13.964 14.8662C13.7872 15.0102 13.5432 15.0396 13.3372 14.9417C13.1313 14.8438 13 14.6361 13 14.408V12.6364H11.3636C10.7368 12.6364 10.1356 12.3874 9.69229 11.9441C9.24903 11.5009 9 10.8997 9 10.2728V4.36365C9 3.73677 9.24902 3.13557 9.69229 2.6923C10.1356 2.24903 10.7368 2 11.3636 2H19.6364C20.2632 2 20.8644 2.24903 21.3077 2.6923C21.751 3.13557 22 3.73677 22 4.36365V10.2728C22 10.8997 21.751 11.5009 21.3077 11.9441C20.8644 12.3874 20.2632 12.6364 19.6364 12.6364H16.7022Z" stroke="#161924" stroke-width="1.5" stroke-linecap="round" stroke-linejoin="round"/>
<path d="M8 18H12" stroke="#161924" stroke-width="1.5" stroke-linecap="round" stroke-linejoin="round"/>
<path d="M16 17V19C16 20.1046 15.1046 21 14 21H6C4.89543 21 4 20.1046 4 19V5C4 3.89543 4.89543 3 6 3" stroke="#161924" stroke-width="1.5" stroke-linecap="round" stroke-linejoin="round"/>
</svg>
