<svg width="24" height="24" viewBox="0 0 24 24" fill="none" xmlns="http://www.w3.org/2000/svg">
<path d="M8.99902 7.24071C9.79491 6.44472 10.8744 5.99751 12 5.99744C13.1256 5.99737 14.2052 6.44445 15.0012 7.24034L15.0015 7.24071" stroke="#161924" stroke-width="1.5" stroke-linecap="round" stroke-linejoin="round"/>
<path d="M5.6335 17.3662C3.05844 14.7912 2.28812 10.9185 3.68173 7.55401C5.07534 4.18954 8.35843 1.99585 12.0001 1.99585C15.6418 1.99585 18.9249 4.18954 20.3185 7.55401C21.7121 10.9185 20.9418 14.7912 18.3667 17.3662" stroke="#161924" stroke-width="1.5" stroke-linecap="round" stroke-linejoin="round"/>
<path d="M10.4995 9.62004C11.3285 8.7917 12.6718 8.7917 13.5008 9.62004" stroke="#161924" stroke-width="1.5" stroke-linecap="round" stroke-linejoin="round"/>
<path d="M11.25 19.7533H12.7506" stroke="#161924" stroke-width="1.5" stroke-linecap="round" stroke-linejoin="round"/>
<rect x="8.49854" y="13.0004" width="7.00292" height="9.00375" rx="1.8" stroke="#161924" stroke-width="1.5" stroke-linecap="round" stroke-linejoin="round"/>
</svg>
