<svg width="24" height="24" viewBox="0 0 24 24" fill="none" xmlns="http://www.w3.org/2000/svg">
<path d="M8.50191 3.10181V4.90044C8.47697 5.20313 8.6993 5.46992 9.00153 5.49998H12.9985C13.3007 5.46992 13.523 5.20313 13.4981 4.90044V3.10181" stroke="#161924" stroke-width="1.5" stroke-linecap="round" stroke-linejoin="round"/>
<path d="M10 21H7C5.89543 21 5 20.1046 5 19V5C5 3.89543 5.89543 3 7 3H15C16.1046 3 17 3.89543 17 5V10" stroke="#161924" stroke-width="1.5" stroke-linecap="round" stroke-linejoin="round"/>
<path d="M12 13.75H13.258L14.259 18.75H19.304L20 15.25H13.558" stroke="#161924" stroke-width="1.5" stroke-linecap="round" stroke-linejoin="round"/>
<path d="M18.8285 21.1647C18.8479 21.1843 18.8478 21.2159 18.8283 21.2354C18.8087 21.2548 18.7771 21.2548 18.7576 21.2353C18.7381 21.2158 18.7381 21.1842 18.7575 21.1647C18.777 21.1451 18.8086 21.145 18.8282 21.1645L18.8285 21.1647" stroke="#161924" stroke-width="1.5" stroke-linecap="round" stroke-linejoin="round"/>
<path d="M14.8001 21.1647C14.8196 21.1843 14.8195 21.2159 14.7999 21.2354C14.7804 21.2548 14.7488 21.2548 14.7293 21.2353C14.7098 21.2158 14.7098 21.1842 14.7292 21.1647C14.7487 21.1451 14.7803 21.145 14.7999 21.1645L14.8001 21.1647" stroke="#161924" stroke-width="1.5" stroke-linecap="round" stroke-linejoin="round"/>
</svg>
