<svg width="24" height="24" viewBox="0 0 24 24" fill="none" xmlns="http://www.w3.org/2000/svg">
<path d="M9 21H7C5.89543 21 5 20.1046 5 19V5C5 3.89543 5.89543 3 7 3H15C16.1046 3 17 3.89543 17 5V11" stroke="#161924" stroke-width="1.5" stroke-linecap="round" stroke-linejoin="round"/>
<path d="M8.50191 3.10181V4.90044C8.47697 5.20313 8.6993 5.46992 9.00153 5.49998H12.9985C13.3007 5.46992 13.523 5.20313 13.4981 4.90044V3.10181" stroke="#161924" stroke-width="1.5" stroke-linecap="round" stroke-linejoin="round"/>
<path fill-rule="evenodd" clip-rule="evenodd" d="M12 16V19C12 20.1046 12.8954 21 14 21H19C20.1046 21 21 20.1046 21 19V16C21 14.8954 20.1046 14 19 14H14C12.8954 14 12 14.8954 12 16Z" stroke="#161924" stroke-width="1.5" stroke-linecap="round" stroke-linejoin="round"/>
<path d="M21 17H12" stroke="#161924" stroke-width="1.5" stroke-linecap="round" stroke-linejoin="round"/>
</svg>
