<svg width="24" height="24" viewBox="0 0 24 24" fill="none" xmlns="http://www.w3.org/2000/svg">
<path d="M8.75 18.5H11.25" stroke="#161924" stroke-width="1.5" stroke-linecap="round" stroke-linejoin="round"/>
<path d="M15 12.977V19C15 20.105 14.105 21 13 21H7C5.895 21 5 20.105 5 19V7C5 5.895 5.895 5 7 5H10.6" stroke="#161924" stroke-width="1.5" stroke-linecap="round" stroke-linejoin="round"/>
<path d="M19.3891 3.61091C21.537 5.75879 21.537 9.2412 19.3891 11.3891C17.2412 13.537 13.7588 13.537 11.6109 11.3891C9.46303 9.2412 9.46303 5.75879 11.6109 3.61091C13.7588 1.46303 17.2412 1.46303 19.3891 3.61091" stroke="#161924" stroke-width="1.5" stroke-linecap="round" stroke-linejoin="round"/>
<path d="M15.5 10.415C15.47 10.415 15.445 10.44 15.445 10.47C15.445 10.5 15.47 10.525 15.5 10.525C15.53 10.525 15.555 10.5 15.555 10.47C15.555 10.44 15.53 10.415 15.5 10.415V10.415" stroke="#161924" stroke-width="1.5" stroke-linecap="round" stroke-linejoin="round"/>
<path d="M15.5001 8.188C16.4491 8.188 17.2191 7.418 17.2191 6.469C17.2191 5.52 16.4501 4.75 15.5001 4.75C14.5741 4.75 13.8251 5.483 13.7881 6.4" stroke="#161924" stroke-width="1.5" stroke-linecap="round" stroke-linejoin="round"/>
</svg>
