<svg width="24" height="24" viewBox="0 0 24 24" fill="none" xmlns="http://www.w3.org/2000/svg">
<path d="M7.99805 18.0025H11.9997" stroke="#161924" stroke-width="1.5" stroke-linecap="round" stroke-linejoin="round"/>
<path d="M16.0021 15.0012V19.0029C16.0021 20.1079 15.1063 21.0037 14.0012 21.0037H5.9979C4.89287 21.0037 3.99707 20.1079 3.99707 19.0029V4.99705C3.99707 3.89202 4.89287 2.99622 5.9979 2.99622H8.99915" stroke="#161924" stroke-width="1.5" stroke-linecap="round" stroke-linejoin="round"/>
<path d="M12.0998 7.17603V12" stroke="#161924" stroke-width="1.5" stroke-linecap="round" stroke-linejoin="round"/>
<path d="M20.1037 12V7.10596" stroke="#161924" stroke-width="1.5" stroke-linecap="round" stroke-linejoin="round"/>
<path d="M16.0022 12V9.99915" stroke="#161924" stroke-width="1.5" stroke-linecap="round" stroke-linejoin="round"/>
<path d="M11.5996 12H20.5633" stroke="#161924" stroke-width="1.5" stroke-linecap="round" stroke-linejoin="round"/>
<path d="M16.002 7.23497C16.7484 7.23505 17.412 6.75943 17.6516 6.05248C17.6676 6.01621 17.7035 5.9928 17.7432 5.9928C17.7828 5.9928 17.8187 6.01621 17.8347 6.05248C18.0748 6.75959 18.7387 7.23517 19.4854 7.23497" stroke="#161924" stroke-width="1.5" stroke-linecap="round" stroke-linejoin="round"/>
<path d="M12.5186 7.23497C13.2652 7.23486 13.9289 6.7594 14.1692 6.05248C14.1852 6.01621 14.2211 5.9928 14.2608 5.9928C14.3004 5.9928 14.3363 6.01621 14.3523 6.05248C14.592 6.75943 15.2555 7.23505 16.002 7.23497" stroke="#161924" stroke-width="1.5" stroke-linecap="round" stroke-linejoin="round"/>
<path d="M19.4854 7.23498C20.0119 7.23431 20.5004 6.96065 20.7759 6.512C21.0514 6.06335 21.0746 5.50392 20.837 5.03407L20.1787 3.73352C19.9483 3.28085 19.4832 2.99591 18.9752 2.99622H13.0288C12.5217 2.99723 12.0579 3.28242 11.8283 3.73452L11.17 5.03507C10.9324 5.50492 10.9556 6.06435 11.2311 6.513C11.5066 6.96165 11.9951 7.23531 12.5215 7.23598V7.23598" stroke="#161924" stroke-width="1.5" stroke-linecap="round" stroke-linejoin="round"/>
</svg>
