<svg width="24" height="24" viewBox="0 0 24 24" fill="none" xmlns="http://www.w3.org/2000/svg">
<path d="M7.50191 3V4.90046C7.47697 5.20315 7.6993 5.46995 8.00153 5.5H11.9985C12.3007 5.46995 12.523 5.20315 12.4981 4.90046V3" stroke="#161924" stroke-width="1.5" stroke-linecap="round" stroke-linejoin="round"/>
<path d="M10 21H6C4.89543 21 4 20.1046 4 19V5C4 3.89543 4.89543 3 6 3H14C15.1046 3 16 3.89543 16 5V9" stroke="#161924" stroke-width="1.5" stroke-linecap="round" stroke-linejoin="round"/>
<path d="M8 14H10" stroke="#161924" stroke-width="1.5" stroke-linecap="round" stroke-linejoin="round"/>
<path d="M9 17H10" stroke="#161924" stroke-width="1.5" stroke-linecap="round" stroke-linejoin="round"/>
<path d="M13 13H14.258L15.259 18H20.304L21 14.5H14.558" stroke="#161924" stroke-width="1.5" stroke-linecap="round" stroke-linejoin="round"/>
<path d="M19.8285 20.4147C19.8479 20.4343 19.8478 20.4659 19.8283 20.4854C19.8087 20.5048 19.7771 20.5048 19.7576 20.4853C19.7381 20.4658 19.7381 20.4342 19.7575 20.4147C19.777 20.3951 19.8086 20.395 19.8282 20.4145L19.8285 20.4147" stroke="#161924" stroke-width="1.5" stroke-linecap="round" stroke-linejoin="round"/>
<path d="M15.8001 20.4147C15.8196 20.4343 15.8195 20.4659 15.7999 20.4854C15.7804 20.5048 15.7488 20.5048 15.7293 20.4853C15.7098 20.4658 15.7098 20.4342 15.7292 20.4147C15.7487 20.3951 15.7803 20.395 15.7999 20.4145L15.8001 20.4147" stroke="#161924" stroke-width="1.5" stroke-linecap="round" stroke-linejoin="round"/>
</svg>
