<svg width="24" height="24" viewBox="0 0 24 24" fill="none" xmlns="http://www.w3.org/2000/svg">
<path fill-rule="evenodd" clip-rule="evenodd" d="M18 5V19C18 20.105 17.105 21 16 21H8C6.895 21 6 20.105 6 19V5C6 3.895 6.895 3 8 3H16C17.105 3 18 3.895 18 5Z" stroke="#161924" stroke-width="1.5" stroke-linecap="round" stroke-linejoin="round"/>
<path d="M6.09961 17H17.9996" stroke="#161924" stroke-width="1.5" stroke-linecap="round" stroke-linejoin="round"/>
<path fill-rule="evenodd" clip-rule="evenodd" d="M13.232 8C14.29 8 15 8.931 15 9.798C15 11.559 12.054 13 12 13C11.946 13 9 11.559 9 9.798C9 8.931 9.71 8 10.768 8C11.373 8 11.77 8.283 12 8.535C12.23 8.283 12.627 8 13.232 8Z" stroke="#161924" stroke-width="1.5" stroke-linecap="round" stroke-linejoin="round"/>
</svg>
