<svg width="24" height="24" viewBox="0 0 24 24" fill="none" xmlns="http://www.w3.org/2000/svg">
<path d="M7.99854 18.0025H12.0002" stroke="#161924" stroke-width="1.5" stroke-linecap="round" stroke-linejoin="round"/>
<path d="M16.0016 13.0004V19.0029C16.0016 20.1079 15.1058 21.0037 14.0007 21.0037H5.99742C4.89239 21.0037 3.99658 20.1079 3.99658 19.0029V4.99705C3.99658 3.89202 4.89239 2.99622 5.99742 2.99622H8.99867" stroke="#161924" stroke-width="1.5" stroke-linecap="round" stroke-linejoin="round"/>
<path fill-rule="evenodd" clip-rule="evenodd" d="M12 4.99705V7.9983C12 9.10333 12.8958 9.99913 14.0008 9.99913H19.0029C20.1079 9.99913 21.0037 9.10333 21.0037 7.9983V4.99705C21.0037 3.89202 20.1079 2.99622 19.0029 2.99622H14.0008C12.8958 2.99622 12 3.89202 12 4.99705Z" stroke="#161924" stroke-width="1.5" stroke-linecap="round" stroke-linejoin="round"/>
<path d="M21.0037 5.99752H12" stroke="#161924" stroke-width="1.5" stroke-linecap="round" stroke-linejoin="round"/>
</svg>
