<svg width="24" height="24" viewBox="0 0 24 24" fill="none" xmlns="http://www.w3.org/2000/svg">
<path d="M7.99805 18.0025H11.9997" stroke="#161924" stroke-width="1.5" stroke-linecap="round" stroke-linejoin="round"/>
<path d="M16.0021 13.9178V19.0029C16.0021 20.1079 15.1063 21.0038 14.0012 21.0038H5.9979C4.89287 21.0038 3.99707 20.1079 3.99707 19.0029V5.91447C3.99707 4.80944 4.89287 3.91364 5.9979 3.91364H6.99832" stroke="#161924" stroke-width="1.5" stroke-linecap="round" stroke-linejoin="round"/>
<path fill-rule="evenodd" clip-rule="evenodd" d="M11.6667 10.9995H20.3373C20.7795 10.9995 21.2035 10.8237 21.5161 10.5109C21.8287 10.1982 22.0042 9.77403 22.004 9.33185V4.66391C22.004 4.22157 21.8285 3.79732 21.5157 3.48454C21.2029 3.17176 20.7787 2.9961 20.3363 2.99622H11.6657C11.2235 2.99631 10.7995 3.17207 10.4869 3.48484C10.1744 3.7976 9.99885 4.22173 9.99902 4.66391V9.33286C9.99902 9.77503 10.1749 10.1991 10.4876 10.5116C10.8004 10.8242 11.2245 10.9997 11.6667 10.9995V10.9995Z" stroke="#161924" stroke-width="1.5" stroke-linecap="round" stroke-linejoin="round"/>
<circle cx="16.0016" cy="6.99794" r="1.50063" stroke="#161924" stroke-width="1.5" stroke-linecap="round" stroke-linejoin="round"/>
</svg>
