<svg width="24" height="24" viewBox="0 0 24 24" fill="none" xmlns="http://www.w3.org/2000/svg">
<path d="M7.99805 18.0025H11.9997" stroke="#161924" stroke-width="1.5" stroke-linecap="round" stroke-linejoin="round"/>
<path d="M16.0021 16.0017V19.0029C16.0021 20.1079 15.1063 21.0037 14.0012 21.0037H5.9979C4.89287 21.0037 3.99707 20.1079 3.99707 19.0029V4.99708C3.99707 3.89205 4.89287 2.99625 5.9979 2.99625H6.99832" stroke="#161924" stroke-width="1.5" stroke-linecap="round" stroke-linejoin="round"/>
<path fill-rule="evenodd" clip-rule="evenodd" d="M13.5005 10.9996V12.4992C13.5005 12.6923 13.6116 12.8681 13.786 12.951C13.9603 13.0339 14.1668 13.009 14.3165 12.8871L16.6344 10.9996H19.0028C20.1078 10.9996 21.0036 10.1038 21.0036 8.99875V4.99708C21.0036 3.89205 20.1078 2.99625 19.0028 2.99625H11.9999C10.8948 2.99625 9.99902 3.89205 9.99902 4.99708V8.99875C9.99902 10.1038 10.8948 10.9996 11.9999 10.9996H13.5005Z" stroke="#161924" stroke-width="1.5" stroke-linecap="round" stroke-linejoin="round"/>
</svg>
