<svg width="24" height="24" viewBox="0 0 24 24" fill="none" xmlns="http://www.w3.org/2000/svg">
<path d="M13 5H14.258L15.259 10H20.304L21 6.5H14.558" stroke="#161924" stroke-width="1.5" stroke-linecap="round" stroke-linejoin="round"/>
<path d="M19.8285 12.4147C19.8479 12.4343 19.8478 12.4659 19.8283 12.4854C19.8087 12.5048 19.7771 12.5048 19.7576 12.4853C19.7381 12.4658 19.7381 12.4342 19.7575 12.4147C19.777 12.3951 19.8086 12.395 19.8282 12.4145L19.8285 12.4147" stroke="#161924" stroke-width="1.5" stroke-linecap="round" stroke-linejoin="round"/>
<path d="M15.8001 12.4147C15.8196 12.4343 15.8195 12.4659 15.7999 12.4854C15.7804 12.5048 15.7488 12.5048 15.7293 12.4853C15.7098 12.4658 15.7098 12.4342 15.7292 12.4147C15.7487 12.3951 15.7803 12.395 15.7999 12.4145L15.8001 12.4147" stroke="#161924" stroke-width="1.5" stroke-linecap="round" stroke-linejoin="round"/>
<path d="M8 18H12" stroke="#161924" stroke-width="1.5" stroke-linecap="round" stroke-linejoin="round"/>
<path d="M16 16V19C16 20.1046 15.1046 21 14 21H6C4.89543 21 4 20.1046 4 19V5C4 3.89543 4.89543 3 6 3H10" stroke="#161924" stroke-width="1.5" stroke-linecap="round" stroke-linejoin="round"/>
<path d="M8 7H10" stroke="#161924" stroke-width="1.5" stroke-linecap="round" stroke-linejoin="round"/>
<path d="M10 10H12" stroke="#161924" stroke-width="1.5" stroke-linecap="round" stroke-linejoin="round"/>
</svg>
