<svg width="24" height="24" viewBox="0 0 24 24" fill="none" xmlns="http://www.w3.org/2000/svg">
<path d="M10.9994 21.0037V9.82708C10.9993 9.29647 10.7884 8.78763 10.4132 8.41249L6.99776 4.99707L3.58234 8.41249C3.20708 8.78763 2.99621 9.29647 2.99609 9.82708V21.0037" stroke="#161924" stroke-width="1.5" stroke-linecap="round" stroke-linejoin="round"/>
<path d="M6.99826 12V20.0033" stroke="#161924" stroke-width="1.5" stroke-linecap="round" stroke-linejoin="round"/>
<path d="M3.17773 8.99874H10.8179" stroke="#161924" stroke-width="1.5" stroke-linecap="round" stroke-linejoin="round"/>
<path d="M6.99826 2.99625V4.99708" stroke="#161924" stroke-width="1.5" stroke-linecap="round" stroke-linejoin="round"/>
<path d="M14.001 21.0038V11.0676C14.0011 10.7396 14.162 10.4325 14.4317 10.2457C14.7013 10.0588 15.0454 10.0161 15.3525 10.1312L20.3546 12.007C20.745 12.1533 21.0037 12.5265 21.0039 12.9434V21.0038" stroke="#161924" stroke-width="1.5" stroke-linecap="round" stroke-linejoin="round"/>
<path d="M22.0044 21.0037H1.99609" stroke="#161924" stroke-width="1.5" stroke-linecap="round" stroke-linejoin="round"/>
<path d="M16.502 15.0012H18.5028" stroke="#161924" stroke-width="1.5" stroke-linecap="round" stroke-linejoin="round"/>
<path d="M16.502 18.0025H18.5028" stroke="#161924" stroke-width="1.5" stroke-linecap="round" stroke-linejoin="round"/>
</svg>
