<svg width="24" height="24" viewBox="0 0 24 24" fill="none" xmlns="http://www.w3.org/2000/svg">
<path d="M21.0038 21.0037V4.28378C21.0023 3.86269 20.7949 3.46894 20.4485 3.2296C20.102 2.99025 19.6604 2.9356 19.266 3.08328L12.8344 5.49128C12.3316 5.67973 11.9989 6.16083 12 6.69778V21.0037" stroke="#161924" stroke-width="1.5" stroke-linecap="round" stroke-linejoin="round"/>
<path fill-rule="evenodd" clip-rule="evenodd" d="M6.37254 5.24719H8.62348C9.24506 5.24719 9.74895 5.75108 9.74895 6.37266V8.6236H5.24707V6.37266C5.24707 5.75108 5.75096 5.24719 6.37254 5.24719V5.24719Z" stroke="#161924" stroke-width="1.5" stroke-linecap="round" stroke-linejoin="round"/>
<path d="M7.49826 2.99625V5.24718" stroke="#161924" stroke-width="1.5" stroke-linecap="round" stroke-linejoin="round"/>
<path d="M2.99609 21.0038V9.74906C2.99609 9.12749 3.49998 8.6236 4.12156 8.6236H10.8744C11.496 8.6236 11.9998 9.12749 11.9998 9.74906V21.0038" stroke="#161924" stroke-width="1.5" stroke-linecap="round" stroke-linejoin="round"/>
<path d="M5.81055 15.3764H9.18695" stroke="#161924" stroke-width="1.5" stroke-linecap="round" stroke-linejoin="round"/>
<path d="M5.81055 15.3764H9.18695" stroke="#161924" stroke-width="1.5" stroke-linecap="round" stroke-linejoin="round"/>
<path d="M5.81055 12H9.18695" stroke="#161924" stroke-width="1.5" stroke-linecap="round" stroke-linejoin="round"/>
<path d="M7.49826 19.316V21.0037" stroke="#161924" stroke-width="1.5" stroke-linecap="round" stroke-linejoin="round"/>
<path d="M22.0044 21.0037H1.99609" stroke="#161924" stroke-width="1.5" stroke-linecap="round" stroke-linejoin="round"/>
<path d="M15.0012 9.05576V17.0021" stroke="#161924" stroke-width="1.5" stroke-linecap="round" stroke-linejoin="round"/>
<path d="M18.0022 9.05576V17.0021" stroke="#161924" stroke-width="1.5" stroke-linecap="round" stroke-linejoin="round"/>
</svg>
