<svg width="24" height="24" viewBox="0 0 24 24" fill="none" xmlns="http://www.w3.org/2000/svg">
<path d="M13.7678 10.2322C14.7441 11.2085 14.7441 12.7914 13.7678 13.7677C12.7915 14.744 11.2085 14.744 10.2322 13.7677C9.25592 12.7914 9.25592 11.2085 10.2322 10.2322C11.2085 9.25586 12.7915 9.25586 13.7678 10.2322" stroke="#161924" stroke-width="1.5" stroke-linecap="round" stroke-linejoin="round"/>
<path fill-rule="evenodd" clip-rule="evenodd" d="M20 18.667H4C2.895 18.667 2 17.772 2 16.667V7.33301C2 6.22801 2.895 5.33301 4 5.33301H20C21.105 5.33301 22 6.22801 22 7.33301V16.666C22 17.771 21.105 18.667 20 18.667V18.667Z" stroke="#161924" stroke-width="1.5" stroke-linecap="round" stroke-linejoin="round"/>
<path d="M17 16C18.105 16 19 15.105 19 14" stroke="#161924" stroke-width="1.5" stroke-linecap="round" stroke-linejoin="round"/>
<path d="M19 10C19 8.895 18.105 8 17 8" stroke="#161924" stroke-width="1.5" stroke-linecap="round" stroke-linejoin="round"/>
<path d="M7 8C5.895 8 5 8.895 5 10" stroke="#161924" stroke-width="1.5" stroke-linecap="round" stroke-linejoin="round"/>
<path d="M5 14C5 15.105 5.895 16 7 16" stroke="#161924" stroke-width="1.5" stroke-linecap="round" stroke-linejoin="round"/>
</svg>
