<svg width="24" height="24" viewBox="0 0 24 24" fill="none" xmlns="http://www.w3.org/2000/svg">
<path d="M8.99915 20.0033H5.89786C5.39367 20.0035 4.91007 19.8033 4.55355 19.4468C4.19704 19.0903 3.99685 18.6067 3.99707 18.1025V4.89701C3.99685 4.39282 4.19704 3.90921 4.55355 3.5527C4.91007 3.19618 5.39367 2.99599 5.89786 2.99622H15.0017C15.5058 2.99599 15.9894 3.19618 16.346 3.5527C16.7025 3.90921 16.9027 4.39282 16.9024 4.89701V8.99872" stroke="#161924" stroke-width="1.5" stroke-linecap="round" stroke-linejoin="round"/>
<path d="M8.9694 13.1795C8.04145 12.2515 8.04145 10.747 8.9694 9.81907C9.89735 8.89112 11.4018 8.89112 12.3298 9.81907" stroke="#161924" stroke-width="1.5" stroke-linecap="round" stroke-linejoin="round"/>
<path d="M7.99846 17.0021H6.99805" stroke="#161924" stroke-width="1.5" stroke-linecap="round" stroke-linejoin="round"/>
<path d="M14.0014 5.99752H13.001" stroke="#161924" stroke-width="1.5" stroke-linecap="round" stroke-linejoin="round"/>
<path d="M12 13.6006V20.4035C12.0011 21.2873 13.7916 22.0041 16.0017 22.0041C18.2117 22.0041 20.0022 21.2873 20.0033 20.4035V13.6006" stroke="#161924" stroke-width="1.5" stroke-linecap="round" stroke-linejoin="round"/>
<path d="M20.0022 13.6007C20.0022 14.4845 18.2106 15.2013 16.0005 15.2013C13.7905 15.2013 12 14.4845 12 13.6007C12 12.7157 13.7927 12 16.0017 12C18.2106 12 20.0022 12.7169 20.0033 13.6007" stroke="#161924" stroke-width="1.5" stroke-linecap="round" stroke-linejoin="round"/>
<path d="M12.001 17.0021C12.001 17.8859 13.7914 18.6027 16.0015 18.6027C18.2116 18.6027 20.0032 17.8859 20.0032 17.0021" stroke="#161924" stroke-width="1.5" stroke-linecap="round" stroke-linejoin="round"/>
</svg>
