<svg width="24" height="24" viewBox="0 0 24 24" fill="none" xmlns="http://www.w3.org/2000/svg">
<path d="M18 8H19C20.105 8 21 8.895 21 10V17C21 18.105 20.105 19 19 19H8C6.895 19 6 18.105 6 17V16" stroke="#161924" stroke-width="1.5" stroke-linecap="round" stroke-linejoin="round"/>
<path fill-rule="evenodd" clip-rule="evenodd" d="M5.083 15.417H15.916C17.067 15.417 17.999 14.484 17.999 13.334V7.084C18 5.933 17.067 5 15.917 5H5.083C3.933 5 3 5.933 3 7.083V13.333C3 14.484 3.933 15.417 5.083 15.417Z" stroke="#161924" stroke-width="1.5" stroke-linecap="round" stroke-linejoin="round"/>
<path d="M14.5 8H15" stroke="#161924" stroke-width="1.5" stroke-linecap="round" stroke-linejoin="round"/>
<path d="M6 12.5H6.5" stroke="#161924" stroke-width="1.5" stroke-linecap="round" stroke-linejoin="round"/>
<path d="M11.6568 9.10301C12.2668 9.71301 12.2668 10.703 11.6568 11.313C11.0468 11.923 10.0568 11.923 9.44676 11.313C8.83676 10.703 8.83676 9.71301 9.44676 9.10301C10.0568 8.49301 11.0468 8.49301 11.6568 9.10301" stroke="#161924" stroke-width="1.5" stroke-linecap="round" stroke-linejoin="round"/>
</svg>
