<svg width="24" height="24" viewBox="0 0 24 24" fill="none" xmlns="http://www.w3.org/2000/svg">
<path d="M15.1817 8.31799C16.9387 10.075 16.9387 12.925 15.1817 14.682C13.4247 16.439 10.5747 16.439 8.81775 14.682C7.06075 12.925 7.06075 10.075 8.81775 8.31799C10.5747 6.56099 13.4247 6.56099 15.1817 8.31799" stroke="#161924" stroke-width="1.5" stroke-linecap="round" stroke-linejoin="round"/>
<path d="M8 16H16" stroke="#161924" stroke-width="1.5" stroke-linecap="round" stroke-linejoin="round"/>
<path fill-rule="evenodd" clip-rule="evenodd" d="M12 21V21C7.029 21 3 16.971 3 12V12C3 7.029 7.029 3 12 3V3C16.971 3 21 7.029 21 12V12C21 16.971 16.971 21 12 21Z" stroke="#161924" stroke-width="1.5" stroke-linecap="round" stroke-linejoin="round"/>
</svg>
