<svg width="24" height="24" viewBox="0 0 24 24" fill="none" xmlns="http://www.w3.org/2000/svg">
<path d="M6.49805 2.49609L7.99867 3.99672L6.49805 5.49734" stroke="#161924" stroke-width="1.5" stroke-linecap="round" stroke-linejoin="round"/>
<path d="M7.99818 3.9967H5.99734C4.3398 3.9967 2.99609 5.34041 2.99609 6.99795" stroke="#161924" stroke-width="1.5" stroke-linecap="round" stroke-linejoin="round"/>
<path d="M17.5026 21.5039L16.002 20.0033L17.5026 18.5027" stroke="#161924" stroke-width="1.5" stroke-linecap="round" stroke-linejoin="round"/>
<path d="M16.002 20.0033H18.0028C19.6603 20.0033 21.004 18.6596 21.004 17.0021" stroke="#161924" stroke-width="1.5" stroke-linecap="round" stroke-linejoin="round"/>
<path d="M9.49936 20.0034C6.46053 20.0034 3.99707 17.5399 3.99707 14.5011C3.99707 11.4622 6.46053 8.99878 9.49936 8.99878C12.5382 8.99878 15.0017 11.4622 15.0017 14.5011C15.0017 15.9604 14.4219 17.3599 13.3901 18.3918C12.3582 19.4237 10.9587 20.0034 9.49936 20.0034" stroke="#161924" stroke-width="1.5" stroke-linecap="round" stroke-linejoin="round"/>
<path d="M8.68731 13.4795L9.49865 12.6661V15.9154" stroke="#161924" stroke-width="1.5" stroke-linecap="round" stroke-linejoin="round"/>
<path d="M8.68945 15.9176H10.3079" stroke="#161924" stroke-width="1.5" stroke-linecap="round" stroke-linejoin="round"/>
<path d="M10.6104 5.66053C12.7591 3.51175 16.243 3.51176 18.3918 5.66054C20.5405 7.80932 20.5405 11.2932 18.3918 13.442" stroke="#161924" stroke-width="1.5" stroke-linecap="round" stroke-linejoin="round"/>
</svg>
