<svg width="24" height="24" viewBox="0 0 24 24" fill="none" xmlns="http://www.w3.org/2000/svg">
<path fill-rule="evenodd" clip-rule="evenodd" d="M19.804 18.213V18.213C17.299 17.712 14.715 17.774 12.237 18.393L12 18.453C9.366 19.111 6.619 19.177 3.957 18.644L3.804 18.613C3.336 18.52 3 18.109 3 17.633V6.79402C3 6.16302 3.577 5.69002 4.196 5.81302V5.81302C6.701 6.31402 9.285 6.25202 11.763 5.63302L12.236 5.51502C14.714 4.89602 17.299 4.83402 19.803 5.33502L20.195 5.41302C20.664 5.50702 21 5.91702 21 6.39402V17.233C21 17.864 20.423 18.337 19.804 18.213V18.213Z" stroke="#161924" stroke-width="1.5" stroke-linecap="round" stroke-linejoin="round"/>
<path fill-rule="evenodd" clip-rule="evenodd" d="M12 14.013C13.1046 14.013 14 13.1176 14 12.013C14 10.9084 13.1046 10.013 12 10.013C10.8954 10.013 10 10.9084 10 12.013C10 13.1176 10.8954 14.013 12 14.013Z" stroke="#161924" stroke-width="1.5" stroke-linecap="round" stroke-linejoin="round"/>
</svg>
