<svg width="24" height="24" viewBox="0 0 24 24" fill="none" xmlns="http://www.w3.org/2000/svg">
<path d="M9 15.9H3.9C2.85 15.9 2 15.05 2 14V4.9C2 3.85 2.85 3 3.9 3H19.1C20.15 3 21 3.85 21 4.9V10" stroke="#161924" stroke-width="1.5" stroke-linecap="round" stroke-linejoin="round"/>
<path d="M6 13H5" stroke="#161924" stroke-width="1.5" stroke-linecap="round" stroke-linejoin="round"/>
<path d="M18 6H17" stroke="#161924" stroke-width="1.5" stroke-linecap="round" stroke-linejoin="round"/>
<path d="M18.5 20C16.567 20 15 18.433 15 16.5C15 14.567 16.567 13 18.5 13C20.434 13 22 14.567 22 16.5C22 18.433 20.434 20 18.5 20" stroke="#161924" stroke-width="1.5" stroke-linecap="round" stroke-linejoin="round"/>
<path d="M15.33 15.018C13.478 15.108 12 16.626 12 18.5C12 20.433 13.567 22 15.5 22C16.897 22 18.093 21.176 18.655 19.992" stroke="#161924" stroke-width="1.5" stroke-linecap="round" stroke-linejoin="round"/>
<path d="M13.1793 7.97099C14.1063 8.89799 14.1063 10.402 13.1793 11.33C12.2523 12.257 10.7483 12.257 9.82025 11.33C8.89325 10.403 8.89325 8.89899 9.82025 7.97099C10.7483 7.04299 12.2523 7.04299 13.1793 7.97099" stroke="#161924" stroke-width="1.5" stroke-linecap="round" stroke-linejoin="round"/>
</svg>
