<svg width="24" height="24" viewBox="0 0 24 24" fill="none" xmlns="http://www.w3.org/2000/svg">
<path d="M15.9902 17L13.9902 19L15.9902 21" stroke="#161924" stroke-width="1.5" stroke-linecap="round" stroke-linejoin="round"/>
<path d="M13.4137 7.58599C14.1947 8.36699 14.1947 9.63299 13.4137 10.414C12.6327 11.195 11.3668 11.195 10.5857 10.414C9.80475 9.63299 9.80475 8.36699 10.5857 7.58599C11.3668 6.80499 12.6327 6.80499 13.4137 7.58599" stroke="#161924" stroke-width="1.5" stroke-linecap="round" stroke-linejoin="round"/>
<path d="M6.5 7.5V10.5" stroke="#161924" stroke-width="1.5" stroke-linecap="round" stroke-linejoin="round"/>
<path d="M17.5 7.5V10.5" stroke="#161924" stroke-width="1.5" stroke-linecap="round" stroke-linejoin="round"/>
<path d="M11 15H5C3.895 15 3 14.105 3 13V5C3 3.895 3.895 3 5 3H19C20.105 3 21 3.895 21 5V11" stroke="#161924" stroke-width="1.5" stroke-linecap="round" stroke-linejoin="round"/>
<path d="M18 15H19C20.105 15 21 15.895 21 17V17C21 18.105 20.105 19 19 19H14" stroke="#161924" stroke-width="1.5" stroke-linecap="round" stroke-linejoin="round"/>
</svg>
