<svg width="24" height="24" viewBox="0 0 24 24" fill="none" xmlns="http://www.w3.org/2000/svg">
<path fill-rule="evenodd" clip-rule="evenodd" d="M7.66574 9.99918H16.3364C16.7785 9.99909 17.2026 9.82333 17.5151 9.51056C17.8277 9.1978 18.0032 8.77367 18.003 8.33149V3.66354C18.003 3.22121 17.8275 2.79696 17.5147 2.48418C17.2019 2.1714 16.7777 1.99573 16.3354 1.99585H7.66474C7.22256 1.99594 6.79853 2.17171 6.48596 2.48447C6.17338 2.79723 5.99787 3.22136 5.99805 3.66354V8.33249C5.99805 8.77467 6.1739 9.1987 6.48667 9.51127C6.79943 9.82385 7.22356 9.99936 7.66574 9.99918Z" stroke="#161924" stroke-width="1.5" stroke-linecap="round" stroke-linejoin="round"/>
<path d="M16.9568 19.914H16.0055C15.7469 19.9138 15.4912 19.9693 15.2559 20.0768L11.4521 21.8091" stroke="#161924" stroke-width="1.5" stroke-linecap="round" stroke-linejoin="round"/>
<path d="M21.0036 14.0894H18.5026C17.6738 14.0894 17.002 14.7613 17.002 15.59V19.5917C17.002 20.4205 17.6738 21.0923 18.5026 21.0923H21.0036" stroke="#161924" stroke-width="1.5" stroke-linecap="round" stroke-linejoin="round"/>
<path d="M2.99609 21.0923H5.49714C6.32591 21.0923 6.99776 20.4205 6.99776 19.5917V15.59C6.99776 14.7613 6.32591 14.0894 5.49714 14.0894H2.99609" stroke="#161924" stroke-width="1.5" stroke-linecap="round" stroke-linejoin="round"/>
<path d="M17.4079 14.5175L14.3095 13.1536C13.7522 12.9084 13.1089 12.96 12.5979 13.2911L10.2381 14.82C9.88347 15.0498 9.65565 15.4313 9.62148 15.8525C9.5873 16.2738 9.75064 16.687 10.0636 16.971V16.971C10.4698 17.3388 11.0569 17.4275 11.5537 17.1961L12.9605 16.5388L13.9494 17.4364C14.2385 17.6987 14.4114 18.0651 14.4303 18.4549C14.4492 18.8448 14.3124 19.2261 14.0501 19.5151C14.0196 19.5488 13.9875 19.581 13.9539 19.6117L11.8583 21.5298C11.1695 22.1602 10.1141 22.1625 9.42248 21.5353L8.16272 20.3927C7.85259 20.1174 7.46271 19.9482 7.0498 19.9098" stroke="#161924" stroke-width="1.5" stroke-linecap="round" stroke-linejoin="round"/>
<path d="M7.01855 15.1435L9.20303 14.3562C9.70544 14.1801 10.2601 14.2357 10.7175 14.5081" stroke="#161924" stroke-width="1.5" stroke-linecap="round" stroke-linejoin="round"/>
<path d="M13.0616 4.93602C13.6478 5.52224 13.6478 6.47269 13.0616 7.05891C12.4754 7.64512 11.5249 7.64512 10.9387 7.05891C10.3525 6.47269 10.3525 5.52224 10.9387 4.93602C11.2202 4.6545 11.602 4.49634 12.0001 4.49634C12.3983 4.49634 12.7801 4.6545 13.0616 4.93602" stroke="#161924" stroke-width="1.5" stroke-linecap="round" stroke-linejoin="round"/>
</svg>
