<svg width="24" height="24" viewBox="0 0 24 24" fill="none" xmlns="http://www.w3.org/2000/svg">
<path d="M17.0026 5.99752H16.1561" stroke="#161924" stroke-width="1.5" stroke-linecap="round" stroke-linejoin="round"/>
<path d="M6.15118 10.9996H6.99768" stroke="#161924" stroke-width="1.5" stroke-linecap="round" stroke-linejoin="round"/>
<path d="M8.92164 14.0008H4.99693C3.8919 14.0008 2.99609 13.105 2.99609 12V4.99705C2.99609 3.89202 3.8919 2.99622 4.99693 2.99622H18.0023C19.1074 2.99622 20.0032 3.89202 20.0032 4.99705V6.89784" stroke="#161924" stroke-width="1.5" stroke-linecap="round" stroke-linejoin="round"/>
<path d="M9.99901 14.0008H5.11236C3.94358 14.0008 2.99609 13.0533 2.99609 11.8845V5.11248C2.99609 3.9437 3.94358 2.99622 5.11236 2.99622H17.8869C19.0557 2.99622 20.0032 3.9437 20.0032 5.11248V6.89784" stroke="#161924" stroke-width="1.5" stroke-linecap="round" stroke-linejoin="round"/>
<path d="M10.0848 9.91331C9.30643 9.13143 9.30785 7.86702 10.088 7.08689C10.8681 6.30675 12.1325 6.30533 12.9144 7.08371" stroke="#161924" stroke-width="1.5" stroke-linecap="round" stroke-linejoin="round"/>
<path fill-rule="evenodd" clip-rule="evenodd" d="M21.0043 10.9996V20.0033C21.0043 20.5558 20.5564 21.0037 20.0039 21.0037H14.0014C13.4489 21.0037 13.001 20.5558 13.001 20.0033V10.9996C13.001 10.447 13.4489 9.99915 14.0014 9.99915H20.0039C20.5564 9.99915 21.0043 10.447 21.0043 10.9996Z" stroke="#161924" stroke-width="1.5" stroke-linecap="round" stroke-linejoin="round"/>
<path d="M21.0043 14.0008H13.001" stroke="#161924" stroke-width="1.5" stroke-linecap="round" stroke-linejoin="round"/>
<path d="M15.7522 16.3018C15.7245 16.3018 15.7021 16.3242 15.7021 16.3518C15.7021 16.3795 15.7245 16.4019 15.7522 16.4019C15.7798 16.4019 15.8022 16.3795 15.8022 16.3518V16.3518C15.8022 16.3242 15.7798 16.3018 15.7522 16.3018" stroke="#161924" stroke-width="1.5" stroke-linecap="round" stroke-linejoin="round"/>
<path d="M18.2531 16.3018C18.2255 16.3018 18.2031 16.3242 18.2031 16.3518C18.2031 16.3795 18.2255 16.4019 18.2531 16.4019C18.2808 16.4019 18.3032 16.3795 18.3032 16.3518V16.3518C18.3032 16.3242 18.2808 16.3018 18.2531 16.3018" stroke="#161924" stroke-width="1.5" stroke-linecap="round" stroke-linejoin="round"/>
<path d="M15.7522 18.6028C15.7245 18.6028 15.7021 18.6252 15.7021 18.6528C15.7021 18.6804 15.7245 18.7028 15.7522 18.7028C15.7798 18.7028 15.8022 18.6804 15.8022 18.6528V18.6528C15.8022 18.6395 15.7969 18.6268 15.7875 18.6174C15.7782 18.608 15.7654 18.6028 15.7522 18.6028" stroke="#161924" stroke-width="1.5" stroke-linecap="round" stroke-linejoin="round"/>
<path d="M18.2531 18.6028C18.2255 18.6028 18.2031 18.6252 18.2031 18.6528C18.2031 18.6804 18.2255 18.7028 18.2531 18.7028C18.2808 18.7028 18.3032 18.6804 18.3032 18.6528V18.6528C18.3032 18.6395 18.2979 18.6268 18.2885 18.6174C18.2791 18.608 18.2664 18.6028 18.2531 18.6028" stroke="#161924" stroke-width="1.5" stroke-linecap="round" stroke-linejoin="round"/>
</svg>
