<svg width="24" height="24" viewBox="0 0 24 24" fill="none" xmlns="http://www.w3.org/2000/svg">
<path d="M10.5851 16.416C10.0129 15.8438 9.84169 14.9832 10.1514 14.2355C10.4611 13.4879 11.1906 13.0004 11.9999 13.0004C12.8092 13.0004 13.5388 13.4879 13.8485 14.2355C14.1581 14.9832 13.9869 15.8438 13.4147 16.416C13.0395 16.7913 12.5306 17.0021 11.9999 17.0021C11.4693 17.0021 10.9604 16.7913 10.5851 16.416" stroke="#161924" stroke-width="1.5" stroke-linecap="round" stroke-linejoin="round"/>
<path d="M17.5022 17.0021V13.0004" stroke="#161924" stroke-width="1.5" stroke-linecap="round" stroke-linejoin="round"/>
<path d="M6.49826 17.0021V13.0004" stroke="#161924" stroke-width="1.5" stroke-linecap="round" stroke-linejoin="round"/>
<path d="M12.0002 7.9983V2.99622" stroke="#161924" stroke-width="1.5" stroke-linecap="round" stroke-linejoin="round"/>
<path d="M14.0007 4.99705L11.9999 2.99622L9.99902 4.99705" stroke="#161924" stroke-width="1.5" stroke-linecap="round" stroke-linejoin="round"/>
<path d="M16.0015 8.99872H19.0028C19.5335 8.99857 20.0425 9.20933 20.4177 9.58459C20.793 9.95985 21.0036 10.4689 21.0036 10.9996V19.0029C21.0036 19.5336 20.793 20.0426 20.4177 20.4178C20.0425 20.7931 19.5335 21.0039 19.0028 21.0037H4.99693C4.46623 21.0039 3.95722 20.7931 3.58196 20.4178C3.2067 20.0426 2.99609 19.5336 2.99609 19.0029V10.9996C2.99609 10.4689 3.2067 9.95985 3.58196 9.58459C3.95722 9.20933 4.46623 8.99857 4.99693 8.99872H7.99818" stroke="#161924" stroke-width="1.5" stroke-linecap="round" stroke-linejoin="round"/>
</svg>
