<svg width="24" height="24" viewBox="0 0 24 24" fill="none" xmlns="http://www.w3.org/2000/svg">
<path d="M13.999 5C14 3.895 11.76 3 9 3C6.24 3 4.002 3.896 4 5C4 6.105 6.238 7 9 7C11.762 7 14 6.105 14 5" stroke="#161924" stroke-width="1.5" stroke-linecap="round" stroke-linejoin="round"/>
<path d="M14 5V12.76" stroke="#161924" stroke-width="1.5" stroke-linecap="round" stroke-linejoin="round"/>
<path d="M4.00098 9C4.00098 10.105 6.23898 11 9.00098 11C11.763 11 14.001 10.105 14.001 9" stroke="#161924" stroke-width="1.5" stroke-linecap="round" stroke-linejoin="round"/>
<path d="M19.6817 13.318C21.4387 15.075 21.4387 17.925 19.6817 19.682C17.9247 21.439 15.0747 21.439 13.3177 19.682C11.5608 17.925 11.5608 15.075 13.3177 13.318C15.0747 11.561 17.9247 11.561 19.6817 13.318" stroke="#161924" stroke-width="1.5" stroke-linecap="round" stroke-linejoin="round"/>
<path d="M12.505 14.425C11.603 14.78 10.366 15 8.99998 15C6.23898 15 4.00098 14.105 4.00098 13" stroke="#161924" stroke-width="1.5" stroke-linecap="round" stroke-linejoin="round"/>
<path d="M12.445 18.444C11.548 18.787 10.339 19 9 19C6.239 19 4.001 18.105 4 17V5" stroke="#161924" stroke-width="1.5" stroke-linecap="round" stroke-linejoin="round"/>
</svg>
