<svg width="24" height="24" viewBox="0 0 24 24" fill="none" xmlns="http://www.w3.org/2000/svg">
<path d="M10 15.9H3.9C2.85 15.9 2 15.05 2 14V4.9C2 3.85 2.85 3 3.9 3H19.1C20.15 3 21 3.85 21 4.9V12" stroke="#161924" stroke-width="1.5" stroke-linecap="round" stroke-linejoin="round"/>
<path d="M13.1793 7.97099C14.1063 8.89799 14.1063 10.402 13.1793 11.33C12.2523 12.257 10.7483 12.257 9.82025 11.33C8.89325 10.403 8.89325 8.89899 9.82025 7.97099C10.7483 7.04299 12.2523 7.04299 13.1793 7.97099" stroke="#161924" stroke-width="1.5" stroke-linecap="round" stroke-linejoin="round"/>
<path fill-rule="evenodd" clip-rule="evenodd" d="M13.5613 18.306C13.2413 17.821 13.2413 17.181 13.5613 16.696C14.5513 15.199 16.1053 14 17.6603 14C19.2153 14 20.7683 15.199 21.7593 16.695C22.0803 17.18 22.0803 17.821 21.7593 18.305C20.7673 19.801 19.2143 21 17.6603 21C16.1053 21.001 14.5513 19.802 13.5613 18.306Z" stroke="#161924" stroke-width="1.5" stroke-linecap="round" stroke-linejoin="round"/>
<path d="M17.7762 17.384C17.8412 17.449 17.8412 17.553 17.7762 17.618C17.7112 17.683 17.6072 17.683 17.5422 17.618C17.4772 17.553 17.4772 17.449 17.5422 17.384C17.6072 17.319 17.7122 17.319 17.7762 17.384" stroke="#161924" stroke-width="1.5" stroke-linecap="round" stroke-linejoin="round"/>
<path d="M6 13H5" stroke="#161924" stroke-width="1.5" stroke-linecap="round" stroke-linejoin="round"/>
<path d="M18 6H17" stroke="#161924" stroke-width="1.5" stroke-linecap="round" stroke-linejoin="round"/>
</svg>
