<svg width="24" height="24" viewBox="0 0 24 24" fill="none" xmlns="http://www.w3.org/2000/svg">
<path fill-rule="evenodd" clip-rule="evenodd" d="M16.5 7H7.5C6.948 7 6.5 7.448 6.5 8V9C6.5 9.552 6.948 10 7.5 10H16.5C17.052 10 17.5 9.552 17.5 9V8C17.5 7.448 17.052 7 16.5 7Z" stroke="#161924" stroke-width="1.5" stroke-linecap="round" stroke-linejoin="round"/>
<path d="M15.5913 6.99999L16.5873 5.00799C17.2213 3.73999 15.9043 2.38099 14.6173 2.97499L12.0003 4.18299L9.38331 2.97499C8.09631 2.38099 6.77931 3.73899 7.41331 5.00799L8.40931 6.99999" stroke="#161924" stroke-width="1.5" stroke-linecap="round" stroke-linejoin="round"/>
<path d="M7.74978 9.99999L6.03278 12.747C4.81178 14.701 4.93678 17.209 6.34678 19.032V19.032C7.38878 20.38 8.99678 21.168 10.7008 21.168H13.2998C15.0028 21.168 16.6108 20.379 17.6528 19.032V19.032C19.0638 17.209 19.1888 14.701 17.9678 12.746C17.4228 11.873 16.8248 10.917 16.2508 9.99799" stroke="#161924" stroke-width="1.5" stroke-linecap="round" stroke-linejoin="round"/>
</svg>
