<svg width="24" height="24" viewBox="0 0 24 24" fill="none" xmlns="http://www.w3.org/2000/svg">
<path d="M5.74663 14.7511C5.60858 14.7515 5.49694 14.8636 5.49717 15.0017C5.49741 15.1397 5.60945 15.2515 5.74749 15.2513C5.88554 15.2512 5.99738 15.1393 5.99738 15.0012C5.99709 14.863 5.88488 14.7511 5.74662 14.7511" stroke="#161924" stroke-width="1.5" stroke-linecap="round" stroke-linejoin="round"/>
<path d="M9.99965 13.5006C10.8284 13.5006 11.5003 14.1725 11.5003 15.0012C11.5003 15.83 10.8284 16.5019 9.99965 16.5019C9.17088 16.5019 8.49902 15.83 8.49902 15.0012C8.49902 14.1725 9.17088 13.5006 9.99965 13.5006" stroke="#161924" stroke-width="1.5" stroke-linecap="round" stroke-linejoin="round"/>
<path fill-rule="evenodd" clip-rule="evenodd" d="M17.0019 12V18.0025C17.0019 19.1075 16.1061 20.0033 15.0011 20.0033H4.99583C4.46532 20.0032 3.95659 19.7923 3.58157 19.4171C3.20655 19.0418 2.99595 18.533 2.99609 18.0025V11.9989C2.99624 11.4684 3.20712 10.9596 3.58235 10.5846C3.95758 10.2096 4.46642 9.999 4.99693 9.99915H15.0022C15.5327 9.99929 16.0414 10.2102 16.4164 10.5854C16.7915 10.9606 17.0021 11.4695 17.0019 12Z" stroke="#161924" stroke-width="1.5" stroke-linecap="round" stroke-linejoin="round"/>
<path d="M14.2518 15.2513C14.3899 15.251 14.5015 15.1389 14.5013 15.0008C14.501 14.8628 14.389 14.751 14.251 14.7511C14.1129 14.7513 14.0011 14.8632 14.0011 15.0012C14.0014 15.1395 14.1136 15.2514 14.2518 15.2513" stroke="#161924" stroke-width="1.5" stroke-linecap="round" stroke-linejoin="round"/>
<path d="M6.19531 9.99917L7.40614 5.48029L7.40645 5.47929C7.54389 4.96688 7.87925 4.53006 8.33876 4.26492C8.79827 3.99979 9.34429 3.92805 9.85669 4.0655L19.5199 6.65469L19.5209 6.655C20.0333 6.79244 20.4701 7.1278 20.7353 7.58732C21.0004 8.04683 21.0721 8.59285 20.9347 9.10525L19.3812 14.9032C19.1016 15.9418 18.0497 16.5724 17.0019 16.3296" stroke="#161924" stroke-width="1.5" stroke-linecap="round" stroke-linejoin="round"/>
</svg>
