<svg width="24" height="24" viewBox="0 0 24 24" fill="none" xmlns="http://www.w3.org/2000/svg">
<path fill-rule="evenodd" clip-rule="evenodd" d="M8.111 17H13.889C14.503 17 15 16.503 15 15.889V12.556C15 11.942 14.503 11.445 13.889 11.445H8.111C7.497 11.444 7 11.942 7 12.556V15.889C7 16.503 7.497 17 8.111 17Z" stroke="#161924" stroke-width="1.5" stroke-linecap="round" stroke-linejoin="round"/>
<path fill-rule="evenodd" clip-rule="evenodd" d="M21 7V17C21 19.209 19.209 21 17 21H7C4.791 21 3 19.209 3 17V7C3 4.791 4.791 3 7 3H17C19.209 3 21 4.791 21 7Z" stroke="#161924" stroke-width="1.5" stroke-linecap="round" stroke-linejoin="round"/>
<path d="M8.78661 11.444L8.36861 9.886C8.20861 9.293 8.56161 8.683 9.15561 8.524L14.7346 7.037C15.3266 6.879 15.9346 7.23 16.0936 7.822L16.9616 11.042C17.1216 11.635 16.7696 12.245 16.1766 12.404L14.9996 12.72" stroke="#161924" stroke-width="1.5" stroke-linecap="round" stroke-linejoin="round"/>
</svg>
