<svg width="24" height="24" viewBox="0 0 24 24" fill="none" xmlns="http://www.w3.org/2000/svg">
<path d="M6 15V17" stroke="#161924" stroke-width="1.5" stroke-linecap="round" stroke-linejoin="round"/>
<path d="M14.5 15V17" stroke="#161924" stroke-width="1.5" stroke-linecap="round" stroke-linejoin="round"/>
<path fill-rule="evenodd" clip-rule="evenodd" d="M5 21H15.4C16.505 21 17.4 20.105 17.4 19V13C17.4 11.895 16.505 11 15.4 11H5C3.895 11 3 11.895 3 13V19C3 20.105 3.895 21 5 21Z" stroke="#161924" stroke-width="1.5" stroke-linecap="round" stroke-linejoin="round"/>
<path d="M11.3115 14.939C11.8975 15.525 11.8975 16.475 11.3115 17.06C10.7255 17.645 9.77548 17.646 9.19048 17.06C8.60448 16.474 8.60448 15.524 9.19048 14.939C9.77648 14.354 10.7255 14.354 11.3115 14.939" stroke="#161924" stroke-width="1.5" stroke-linecap="round" stroke-linejoin="round"/>
<path d="M17.3996 13.296L19.5166 12.729C20.5846 12.443 21.2176 11.344 20.9296 10.277L19.3686 4.48002C19.0816 3.41602 17.9876 2.78402 16.9226 3.06802L6.87957 5.74402C5.81057 6.02902 5.17657 7.12702 5.46357 8.19502L6.21657 11" stroke="#161924" stroke-width="1.5" stroke-linecap="round" stroke-linejoin="round"/>
</svg>
