<svg width="24" height="24" viewBox="0 0 24 24" fill="none" xmlns="http://www.w3.org/2000/svg">
<path fill-rule="evenodd" clip-rule="evenodd" d="M4 8H20C21.105 8 22 8.895 22 10V20C22 21.105 21.105 22 20 22H4C2.895 22 2 21.105 2 20V10C2 8.895 2.895 8 4 8Z" stroke="#161924" stroke-width="1.5" stroke-linecap="round" stroke-linejoin="round"/>
<path d="M13.7678 13.2322C14.7441 14.2085 14.7441 15.7914 13.7678 16.7677C12.7915 17.744 11.2085 17.744 10.2322 16.7677C9.25592 15.7914 9.25592 14.2085 10.2322 13.2322C11.2085 12.2559 12.7915 12.2559 13.7678 13.2322" stroke="#161924" stroke-width="1.5" stroke-linecap="round" stroke-linejoin="round"/>
<path d="M18 17.5V12.5" stroke="#161924" stroke-width="1.5" stroke-linecap="round" stroke-linejoin="round"/>
<path d="M6 17.5V12.5" stroke="#161924" stroke-width="1.5" stroke-linecap="round" stroke-linejoin="round"/>
<path d="M20 5H4" stroke="#161924" stroke-width="1.5" stroke-linecap="round" stroke-linejoin="round"/>
<path d="M19 2H5" stroke="#161924" stroke-width="1.5" stroke-linecap="round" stroke-linejoin="round"/>
</svg>
