<svg width="24" height="24" viewBox="0 0 24 24" fill="none" xmlns="http://www.w3.org/2000/svg">
<path fill-rule="evenodd" clip-rule="evenodd" d="M20 18.667H4C2.895 18.667 2 17.772 2 16.667V7.33301C2 6.22801 2.895 5.33301 4 5.33301H20C21.105 5.33301 22 6.22801 22 7.33301V16.666C22 17.771 21.105 18.667 20 18.667V18.667Z" stroke="#161924" stroke-width="1.5" stroke-linecap="round" stroke-linejoin="round"/>
<path d="M17.5557 18.667V17.641C17.5557 15.942 19.0477 14.564 20.8887 14.564H21.9997" stroke="#161924" stroke-width="1.5" stroke-linecap="round" stroke-linejoin="round"/>
<path d="M6.444 5.33301V6.35901C6.444 8.05801 4.952 9.43601 3.111 9.43601H2" stroke="#161924" stroke-width="1.5" stroke-linecap="round" stroke-linejoin="round"/>
<path d="M2 14.564H3.111C4.952 14.564 6.444 15.942 6.444 17.641V18.667" stroke="#161924" stroke-width="1.5" stroke-linecap="round" stroke-linejoin="round"/>
<path d="M21.9997 9.43601H20.8887C19.0477 9.43601 17.5557 8.05801 17.5557 6.35901V5.33301" stroke="#161924" stroke-width="1.5" stroke-linecap="round" stroke-linejoin="round"/>
<path d="M13.7678 10.2322C14.7441 11.2085 14.7441 12.7914 13.7678 13.7677C12.7915 14.744 11.2085 14.744 10.2322 13.7677C9.25592 12.7914 9.25592 11.2085 10.2322 10.2322C11.2085 9.25586 12.7915 9.25586 13.7678 10.2322" stroke="#161924" stroke-width="1.5" stroke-linecap="round" stroke-linejoin="round"/>
</svg>
