<svg width="24" height="24" viewBox="0 0 24 24" fill="none" xmlns="http://www.w3.org/2000/svg">
<path d="M13.6793 12.971C14.6063 13.898 14.6063 15.402 13.6793 16.33C12.7523 17.257 11.2483 17.257 10.3202 16.33C9.39325 15.403 9.39325 13.899 10.3202 12.971C11.2483 12.043 12.7523 12.043 13.6793 12.971" stroke="#161924" stroke-width="1.5" stroke-linecap="round" stroke-linejoin="round"/>
<path d="M7 18H6" stroke="#161924" stroke-width="1.5" stroke-linecap="round" stroke-linejoin="round"/>
<path d="M18 11H17" stroke="#161924" stroke-width="1.5" stroke-linecap="round" stroke-linejoin="round"/>
<path fill-rule="evenodd" clip-rule="evenodd" d="M19 20.9H4.9C3.851 20.9 3 20.049 3 19V9.9C3 8.851 3.851 8 4.9 8H19.1C20.149 8 21 8.851 21 9.9V18.9C21 20.005 20.105 20.9 19 20.9Z" stroke="#161924" stroke-width="1.5" stroke-linecap="round" stroke-linejoin="round"/>
<path d="M19 5H5" stroke="#161924" stroke-width="1.5" stroke-linecap="round" stroke-linejoin="round"/>
<path d="M18 2H6" stroke="#161924" stroke-width="1.5" stroke-linecap="round" stroke-linejoin="round"/>
</svg>
