<svg width="24" height="24" viewBox="0 0 24 24" fill="none" xmlns="http://www.w3.org/2000/svg">
<path d="M18.9997 10.5H15.0597C13.5847 10.5 12.3887 9.30401 12.3887 7.82901V7.82901C12.3887 7.12101 12.6697 6.44101 13.1707 5.94001L15.4887 3.62201" stroke="#161924" stroke-width="1.5" stroke-linecap="round" stroke-linejoin="round"/>
<path d="M4.55821 16.58L6.23621 14.063C6.54021 13.607 7.05121 13.333 7.59921 13.333V13.333C8.22021 13.333 8.78621 12.983 9.06421 12.427L9.19021 12.176C9.42021 11.715 9.42021 11.172 9.19021 10.711L8.12021 8.57199C7.84221 8.01699 7.27521 7.66699 6.65421 7.66699H2.49121" stroke="#161924" stroke-width="1.5" stroke-linecap="round" stroke-linejoin="round"/>
<path d="M10.5 2C5.795 2 2 5.795 2 10.5C2 15.205 5.795 19 10.5 19" stroke="#161924" stroke-width="1.5" stroke-linecap="round" stroke-linejoin="round"/>
<path d="M19 10.5C19 5.795 15.205 2 10.5 2" stroke="#161924" stroke-width="1.5" stroke-linecap="round" stroke-linejoin="round"/>
<path fill-rule="evenodd" clip-rule="evenodd" d="M14.889 22H19.511C20.002 22 20.4 21.602 20.4 21.111V18.444C20.4 17.953 20.002 17.555 19.511 17.555H14.889C14.398 17.555 14 17.953 14 18.444V21.111C14 21.602 14.398 22 14.889 22V22Z" stroke="#161924" stroke-width="1.5" stroke-linecap="round" stroke-linejoin="round"/>
<path d="M15.4302 17.556L15.0952 16.309C14.9672 15.834 15.2502 15.346 15.7252 15.22L20.1882 14.031C20.6612 13.905 21.1482 14.186 21.2752 14.659L21.9692 17.235C22.0972 17.709 21.8152 18.198 21.3412 18.325L20.4002 18.576" stroke="#161924" stroke-width="1.5" stroke-linecap="round" stroke-linejoin="round"/>
</svg>
