<svg width="24" height="24" viewBox="0 0 24 24" fill="none" xmlns="http://www.w3.org/2000/svg">
<path d="M13.2678 8.83023C14.2441 9.80654 14.2441 11.3894 13.2678 12.3658C12.2915 13.3421 10.7085 13.3421 9.73223 12.3658C8.75592 11.3894 8.75592 9.80654 9.73223 8.83023C10.7085 7.85391 12.2915 7.85391 13.2678 8.83023" stroke="#161924" stroke-width="1.5" stroke-linecap="round" stroke-linejoin="round"/>
<path d="M21 13.982V6.09799C21 4.99299 20.105 4.09799 19 4.09799H4C2.895 4.09799 2 4.99299 2 6.09799V15.098C2 16.203 2.895 17.098 4 17.098H12.261" stroke="#161924" stroke-width="1.5" stroke-linecap="round" stroke-linejoin="round"/>
<path d="M5 14.1H7" stroke="#161924" stroke-width="1.5" stroke-linecap="round" stroke-linejoin="round"/>
<path d="M16 7.10001H18" stroke="#161924" stroke-width="1.5" stroke-linecap="round" stroke-linejoin="round"/>
<path d="M15.374 14.959C13.503 15.016 12 16.542 12 18.428C12 20.349 13.558 21.907 15.479 21.907C16.876 21.907 18.072 21.079 18.625 19.891" stroke="#161924" stroke-width="1.5" stroke-linecap="round" stroke-linejoin="round"/>
<path d="M18.521 19.902C16.6 19.902 15.042 18.344 15.042 16.423C15.042 14.502 16.6 12.944 18.521 12.944C20.443 12.944 22 14.502 22 16.423C22 18.344 20.443 19.902 18.521 19.902" stroke="#161924" stroke-width="1.5" stroke-linecap="round" stroke-linejoin="round"/>
</svg>
