<svg width="24" height="24" viewBox="0 0 24 24" fill="none" xmlns="http://www.w3.org/2000/svg">
<path d="M16.0018 22.0042L14.001 20.0033L16.0018 18.0025" stroke="#161924" stroke-width="1.5" stroke-linecap="round" stroke-linejoin="round"/>
<path d="M20.0035 20.0033H14.001" stroke="#161924" stroke-width="1.5" stroke-linecap="round" stroke-linejoin="round"/>
<path fill-rule="evenodd" clip-rule="evenodd" d="M7.40204 13.6859C6.95294 13.2368 6.95294 12.5087 7.40204 12.0596L12.0595 7.40208C12.5086 6.95297 13.2368 6.95297 13.6859 7.40208L16.5979 10.3141C17.047 10.7632 17.047 11.4913 16.5979 11.9404L11.9404 16.5979C11.4913 17.047 10.7631 17.047 10.314 16.5979L7.40204 13.6859Z" stroke="#161924" stroke-width="1.5" stroke-linecap="round" stroke-linejoin="round"/>
<path d="M12.2503 12.0003C12.2501 12.1383 12.1381 12.2501 12.0001 12.2501C11.8621 12.25 11.7502 12.1381 11.7501 12.0001C11.75 11.862 11.8618 11.75 11.9999 11.7499C12.0663 11.7498 12.1301 11.7761 12.1771 11.8231C12.224 11.8701 12.2504 11.9338 12.2503 12.0003" stroke="#161924" stroke-width="1.5" stroke-linecap="round" stroke-linejoin="round"/>
<path d="M20.0569 16.0016C21.7634 12.5667 21.1056 8.4276 18.4182 5.69098C15.7308 2.95436 11.6044 2.22153 8.139 3.86548C4.67365 5.50943 2.63087 9.16891 3.05035 12.9814C3.46983 16.7939 6.25939 19.9217 9.99927 20.7729" stroke="#161924" stroke-width="1.5" stroke-linecap="round" stroke-linejoin="round"/>
</svg>
