<svg width="24" height="24" viewBox="0 0 24 24" fill="none" xmlns="http://www.w3.org/2000/svg">
<path d="M11 15.9H3.9C2.85 15.9 2 15.05 2 14V4.9C2 3.85 2.85 3 3.9 3H19.1C20.15 3 21 3.85 21 4.9V10" stroke="#161924" stroke-width="1.5" stroke-linecap="round" stroke-linejoin="round"/>
<path d="M13.1793 7.97102C14.1063 8.89802 14.1063 10.402 13.1793 11.33C12.2523 12.257 10.7483 12.257 9.82025 11.33C8.89325 10.403 8.89325 8.89902 9.82025 7.97102C10.7483 7.04302 12.2523 7.04302 13.1793 7.97102" stroke="#161924" stroke-width="1.5" stroke-linecap="round" stroke-linejoin="round"/>
<path fill-rule="evenodd" clip-rule="evenodd" d="M22 17C22 19.214 20.214 21 18 21C15.786 21 14 19.214 14 17C14 14.786 15.786 13 18 13C20.214 13 22 14.786 22 17Z" stroke="#161924" stroke-width="1.5" stroke-linecap="round" stroke-linejoin="round"/>
<path d="M6 13H5" stroke="#161924" stroke-width="1.5" stroke-linecap="round" stroke-linejoin="round"/>
<path d="M18 6H17" stroke="#161924" stroke-width="1.5" stroke-linecap="round" stroke-linejoin="round"/>
<path d="M15.1729 19.827L20.8279 14.172" stroke="#161924" stroke-width="1.5" stroke-linecap="round" stroke-linejoin="round"/>
</svg>
