<svg width="24" height="24" viewBox="0 0 24 24" fill="none" xmlns="http://www.w3.org/2000/svg">
<path d="M9.99901 17.0021H5.49714C4.11585 17.0021 2.99609 15.8823 2.99609 14.501V6.49768C2.99609 5.83437 3.2596 5.19822 3.72863 4.72918C4.19767 4.26014 4.83382 3.99664 5.49714 3.99664H17.5021C18.8834 3.99664 20.0032 5.1164 20.0032 6.49768V9.99914" stroke="#161924" stroke-width="1.5" stroke-linecap="round" stroke-linejoin="round"/>
<path d="M17.0024 6.99789H16.002" stroke="#161924" stroke-width="1.5" stroke-linecap="round" stroke-linejoin="round"/>
<path d="M5.99805 14.0008H6.99846" stroke="#161924" stroke-width="1.5" stroke-linecap="round" stroke-linejoin="round"/>
<circle cx="17.5029" cy="16.5019" r="4.50187" stroke="#161924" stroke-width="1.5" stroke-linecap="round" stroke-linejoin="round"/>
<path d="M19.0158 15.6105L17.125 17.5001L15.9883 16.3668" stroke="#161924" stroke-width="1.5" stroke-linecap="round" stroke-linejoin="round"/>
<path d="M9.73156 12.2679C8.75484 11.2912 8.75484 9.70761 9.73156 8.73089C10.7083 7.75417 12.2919 7.75417 13.2686 8.73089" stroke="#161924" stroke-width="1.5" stroke-linecap="round" stroke-linejoin="round"/>
</svg>
