<svg width="24" height="24" viewBox="0 0 24 24" fill="none" xmlns="http://www.w3.org/2000/svg">
<path d="M4 12.266V8.09099C4 6.84299 4.773 5.72499 5.94 5.28399L14.293 2.12999C15.602 1.63699 17 2.60299 17 4.00199V7.35199" stroke="#161924" stroke-width="1.5" stroke-linecap="round" stroke-linejoin="round"/>
<path d="M10.652 21H18C19.65 21 21 19.65 21 18V10.351C21 8.69398 19.657 7.35098 18 7.35098H6C4.895 7.35098 4 8.24598 4 9.35098" stroke="#161924" stroke-width="1.5" stroke-linecap="round" stroke-linejoin="round"/>
<path d="M17.249 14.101C17.111 14.102 17 14.214 17 14.352C17 14.49 17.112 14.602 17.25 14.601C17.388 14.601 17.5 14.489 17.5 14.351C17.5 14.213 17.388 14.101 17.249 14.101" stroke="#161924" stroke-width="1.5" stroke-linecap="round" stroke-linejoin="round"/>
<path d="M5.84863 18.15L9.14863 14.85" stroke="#161924" stroke-width="1.5" stroke-linecap="round" stroke-linejoin="round"/>
<path d="M9.29902 18.034C9.37302 18.108 9.37302 18.227 9.29902 18.3C9.22502 18.374 9.10602 18.374 9.03302 18.3C8.95902 18.226 8.95902 18.107 9.03302 18.034C9.10502 17.96 9.22502 17.96 9.29902 18.034" stroke="#161924" stroke-width="1.5" stroke-linecap="round" stroke-linejoin="round"/>
<path d="M5.9668 14.699C6.0408 14.773 6.0408 14.892 5.9668 14.965C5.8928 15.039 5.7738 15.039 5.7008 14.965C5.6278 14.891 5.6268 14.772 5.7008 14.699C5.7748 14.626 5.8938 14.625 5.9668 14.699" stroke="#161924" stroke-width="1.5" stroke-linecap="round" stroke-linejoin="round"/>
<path fill-rule="evenodd" clip-rule="evenodd" d="M7.5 22C10.525 22 13 19.525 13 16.5C13 13.475 10.525 11 7.5 11C4.475 11 2 13.475 2 16.5C2 17.734 2.417 18.873 3.11 19.792C4.115 21.129 5.709 22 7.5 22Z" stroke="#161924" stroke-width="1.5" stroke-linecap="round" stroke-linejoin="round"/>
</svg>
