<svg width="24" height="24" viewBox="0 0 24 24" fill="none" xmlns="http://www.w3.org/2000/svg">
<path d="M8.99859 17.0021H5.49714C4.11585 17.0021 2.99609 15.8823 2.99609 14.501V6.49768C2.99609 5.83437 3.2596 5.19822 3.72863 4.72918C4.19767 4.26014 4.83382 3.99664 5.49714 3.99664H17.5021C18.8834 3.99664 20.0032 5.1164 20.0032 6.49768V7.99831" stroke="#161924" stroke-width="1.5" stroke-linecap="round" stroke-linejoin="round"/>
<path d="M17.0024 6.99789H16.002" stroke="#161924" stroke-width="1.5" stroke-linecap="round" stroke-linejoin="round"/>
<path d="M5.99805 14.0008H6.99846" stroke="#161924" stroke-width="1.5" stroke-linecap="round" stroke-linejoin="round"/>
<path d="M9.73156 12.2679C8.75484 11.2912 8.75484 9.70761 9.73156 8.73089C10.7083 7.75417 12.2919 7.75417 13.2686 8.73089" stroke="#161924" stroke-width="1.5" stroke-linecap="round" stroke-linejoin="round"/>
<path d="M15.4492 17.5535L18.553 14.4498" stroke="#161924" stroke-width="1.5" stroke-linecap="round" stroke-linejoin="round"/>
<path d="M15.2513 14.3257C15.2515 14.2843 15.2851 14.2508 15.3265 14.2509C15.3679 14.251 15.4014 14.2846 15.4014 14.326C15.4014 14.3673 15.3679 14.4009 15.3265 14.401C15.2851 14.4011 15.2515 14.3676 15.2513 14.3262V14.3257" stroke="#161924" stroke-width="1.5" stroke-linecap="round" stroke-linejoin="round"/>
<rect x="12" y="10.9996" width="10.0042" height="10.0042" rx="3" stroke="#161924" stroke-width="1.5" stroke-linecap="round" stroke-linejoin="round"/>
<path d="M18.753 17.6776C18.7528 17.719 18.7192 17.7524 18.6778 17.7524C18.6364 17.7523 18.6029 17.7187 18.6029 17.6773C18.6029 17.6359 18.6364 17.6024 18.6778 17.6023C18.7192 17.6022 18.7528 17.6357 18.753 17.6771V17.6776" stroke="#161924" stroke-width="1.5" stroke-linecap="round" stroke-linejoin="round"/>
</svg>
