<svg width="24" height="24" viewBox="0 0 24 24" fill="none" xmlns="http://www.w3.org/2000/svg">
<path d="M6.49805 2.49603L7.99867 3.99666L6.49805 5.49728" stroke="#161924" stroke-width="1.5" stroke-linecap="round" stroke-linejoin="round"/>
<path d="M7.99818 3.99664H5.99734C4.3398 3.99664 2.99609 5.34035 2.99609 6.99789" stroke="#161924" stroke-width="1.5" stroke-linecap="round" stroke-linejoin="round"/>
<path d="M17.5026 21.5039L16.002 20.0033L17.5026 18.5027" stroke="#161924" stroke-width="1.5" stroke-linecap="round" stroke-linejoin="round"/>
<path d="M16.002 20.0033H18.0028C19.6603 20.0033 21.004 18.6596 21.004 17.0021" stroke="#161924" stroke-width="1.5" stroke-linecap="round" stroke-linejoin="round"/>
<path d="M9.49936 20.0033C6.46053 20.0033 3.99707 17.5398 3.99707 14.501C3.99707 11.4622 6.46053 8.99872 9.49936 8.99872C12.5382 8.99872 15.0017 11.4622 15.0017 14.501C15.0017 15.9603 14.4219 17.3598 13.3901 18.3917C12.3582 19.4236 10.9587 20.0033 9.49936 20.0033" stroke="#161924" stroke-width="1.5" stroke-linecap="round" stroke-linejoin="round"/>
<path d="M8.68731 13.4795L9.49865 12.6662V15.9155" stroke="#161924" stroke-width="1.5" stroke-linecap="round" stroke-linejoin="round"/>
<path d="M8.68945 15.9175H10.3079" stroke="#161924" stroke-width="1.5" stroke-linecap="round" stroke-linejoin="round"/>
<path d="M10.6104 5.66047C12.7591 3.51169 16.243 3.5117 18.3918 5.66048C20.5405 7.80926 20.5405 11.2931 18.3918 13.4419" stroke="#161924" stroke-width="1.5" stroke-linecap="round" stroke-linejoin="round"/>
</svg>
