<svg width="24" height="24" viewBox="0 0 24 24" fill="none" xmlns="http://www.w3.org/2000/svg">
<path d="M17.0024 6.99789H16.002" stroke="#161924" stroke-width="1.5" stroke-linecap="round" stroke-linejoin="round"/>
<path d="M5.99805 14.0008H6.99846" stroke="#161924" stroke-width="1.5" stroke-linecap="round" stroke-linejoin="round"/>
<path d="M9.99901 17.0021H5.49714C4.11585 17.0021 2.99609 15.8824 2.99609 14.5011V6.49775C2.99609 5.83443 3.2596 5.19828 3.72863 4.72924C4.19767 4.26021 4.83382 3.9967 5.49714 3.9967H17.5021C18.8834 3.9967 20.0032 5.11646 20.0032 6.49775V9.9992" stroke="#161924" stroke-width="1.5" stroke-linecap="round" stroke-linejoin="round"/>
<path d="M22.0041 21.0037L19.8311 18.8318" stroke="#161924" stroke-width="1.5" stroke-linecap="round" stroke-linejoin="round"/>
<path d="M9.99901 17.0021H5.49714C4.11585 17.0021 2.99609 15.8824 2.99609 14.5011V6.49775C2.99609 5.83443 3.2596 5.19828 3.72863 4.72924C4.19767 4.26021 4.83382 3.9967 5.49714 3.9967H17.5021C18.8834 3.9967 20.0032 5.11646 20.0032 6.49775V9.9992" stroke="#161924" stroke-width="1.5" stroke-linecap="round" stroke-linejoin="round"/>
<path d="M9.73156 12.2678C8.75484 11.2911 8.75484 9.70755 9.73156 8.73083C10.7083 7.75411 12.2919 7.75411 13.2686 8.73083" stroke="#161924" stroke-width="1.5" stroke-linecap="round" stroke-linejoin="round"/>
<circle cx="17.0026" cy="16.0017" r="4.00167" stroke="#161924" stroke-width="1.5" stroke-linecap="round" stroke-linejoin="round"/>
</svg>
