<svg width="24" height="24" viewBox="0 0 24 24" fill="none" xmlns="http://www.w3.org/2000/svg">
<path d="M17.5026 21.5039L16.002 20.0033L17.5026 18.5027" stroke="#161924" stroke-width="1.5" stroke-linecap="round" stroke-linejoin="round"/>
<path d="M16.002 20.0033H18.0028C19.6603 20.0033 21.004 18.6596 21.004 17.0021" stroke="#161924" stroke-width="1.5" stroke-linecap="round" stroke-linejoin="round"/>
<path d="M6.49805 2.49603L7.99867 3.99666L6.49805 5.49728" stroke="#161924" stroke-width="1.5" stroke-linecap="round" stroke-linejoin="round"/>
<path d="M7.99818 3.99664H5.99734C4.3398 3.99664 2.99609 5.34035 2.99609 6.99789" stroke="#161924" stroke-width="1.5" stroke-linecap="round" stroke-linejoin="round"/>
<path fill-rule="evenodd" clip-rule="evenodd" d="M14.0007 13.0004V17.5565C14.0007 18.3553 13.3531 19.0029 12.5542 19.0029H4.44255C3.64369 19.0029 2.99609 18.3553 2.99609 17.5565V12.446C2.99609 11.6472 3.64369 10.9996 4.44255 10.9996H11.9998C12.5305 10.9996 13.0394 11.2104 13.4146 11.5856C13.7899 11.9608 14.0007 12.4698 14.0007 13.0004Z" stroke="#161924" stroke-width="1.5" stroke-linecap="round" stroke-linejoin="round"/>
<circle cx="8.49867" cy="15.0012" r="1.50063" stroke="#161924" stroke-width="1.5" stroke-linecap="round" stroke-linejoin="round"/>
<path d="M9.99902 7.99832V6.44352C9.99902 5.64467 10.6466 4.99707 11.4455 4.99707H19.0028C20.1078 4.99707 21.0036 5.89287 21.0036 6.9979V11.554C21.0036 11.9376 20.8512 12.3055 20.58 12.5767C20.3087 12.848 19.9408 13.0004 19.5572 13.0004H17.0019" stroke="#161924" stroke-width="1.5" stroke-linecap="round" stroke-linejoin="round"/>
<path d="M14.4404 7.93766C14.8195 7.5582 15.3722 7.40988 15.8903 7.54859C16.4083 7.6873 16.813 8.09196 16.9517 8.61004C17.0904 9.12812 16.9421 9.68084 16.5626 10.0599" stroke="#161924" stroke-width="1.5" stroke-linecap="round" stroke-linejoin="round"/>
</svg>
