<svg width="24" height="24" viewBox="0 0 24 24" fill="none" xmlns="http://www.w3.org/2000/svg">
<path d="M12.001 9.375V8.5" stroke="#161924" stroke-width="1.5" stroke-linecap="round" stroke-linejoin="round"/>
<path d="M12.001 14.625V15.5" stroke="#161924" stroke-width="1.5" stroke-linecap="round" stroke-linejoin="round"/>
<path d="M10.483 14C10.71 14.371 11.097 14.628 11.564 14.628H12.002H12.523C13.202 14.628 13.751 14.078 13.751 13.4C13.751 12.836 13.367 12.345 12.821 12.207L11.181 11.795C10.636 11.658 10.251 11.166 10.251 10.602C10.251 9.92299 10.801 9.37399 11.479 9.37399H12H12.438C12.905 9.37399 13.291 9.62899 13.518 9.99899" stroke="#161924" stroke-width="1.5" stroke-linecap="round" stroke-linejoin="round"/>
<path fill-rule="evenodd" clip-rule="evenodd" d="M19.804 18.213V18.213C17.299 17.712 14.715 17.774 12.237 18.393L12 18.453C9.366 19.111 6.619 19.177 3.957 18.644L3.804 18.613C3.336 18.52 3 18.109 3 17.633V6.79399C3 6.16299 3.577 5.68999 4.196 5.81299V5.81299C6.701 6.31399 9.285 6.25199 11.763 5.63299L12.236 5.51499C14.714 4.89599 17.299 4.83399 19.803 5.33499L20.195 5.41299C20.664 5.50699 21 5.91699 21 6.39399V17.233C21 17.864 20.423 18.337 19.804 18.213V18.213Z" stroke="#161924" stroke-width="1.5" stroke-linecap="round" stroke-linejoin="round"/>
</svg>
