<svg width="24" height="24" viewBox="0 0 24 24" fill="none" xmlns="http://www.w3.org/2000/svg">
<path d="M20.121 14.879C21.293 16.051 21.293 17.95 20.121 19.122C18.949 20.294 17.05 20.294 15.878 19.122C14.706 17.95 14.706 16.051 15.878 14.879C17.05 13.707 18.95 13.707 20.121 14.879" stroke="#161924" stroke-width="1.5" stroke-linecap="round" stroke-linejoin="round"/>
<path d="M22.0001 21L20.1211 19.122" stroke="#161924" stroke-width="1.5" stroke-linecap="round" stroke-linejoin="round"/>
<path d="M13.4137 7.58599C14.1947 8.36699 14.1947 9.63299 13.4137 10.414C12.6327 11.195 11.3668 11.195 10.5857 10.414C9.80475 9.63299 9.80475 8.36699 10.5857 7.58599C11.3668 6.80499 12.6327 6.80499 13.4137 7.58599" stroke="#161924" stroke-width="1.5" stroke-linecap="round" stroke-linejoin="round"/>
<path d="M6.5 7.5V10.5" stroke="#161924" stroke-width="1.5" stroke-linecap="round" stroke-linejoin="round"/>
<path d="M17.5 7.5V10.5" stroke="#161924" stroke-width="1.5" stroke-linecap="round" stroke-linejoin="round"/>
<path d="M11 15H5C3.895 15 3 14.105 3 13V5C3 3.895 3.895 3 5 3H19C20.105 3 21 3.895 21 5V11" stroke="#161924" stroke-width="1.5" stroke-linecap="round" stroke-linejoin="round"/>
</svg>
