<svg width="24" height="24" viewBox="0 0 24 24" fill="none" xmlns="http://www.w3.org/2000/svg">
<path d="M21.0036 13.0004V14.429C21.0038 15.1113 20.7329 15.7658 20.2506 16.2483C19.7682 16.7309 19.1138 17.002 18.4315 17.002H5.56817C4.886 17.002 4.23177 16.7311 3.74941 16.2487C3.26704 15.7664 2.99609 15.1121 2.99609 14.43V5.56829C2.99609 4.88612 3.26704 4.23189 3.74941 3.74953C4.23177 3.26717 4.886 2.99622 5.56817 2.99622H8.99859" stroke="#161924" stroke-width="1.5" stroke-linecap="round" stroke-linejoin="round"/>
<path d="M7.99805 9.99917H8.99846" stroke="#161924" stroke-width="1.5" stroke-linecap="round" stroke-linejoin="round"/>
<path d="M6.99805 6.99789H8.99888" stroke="#161924" stroke-width="1.5" stroke-linecap="round" stroke-linejoin="round"/>
<rect x="12" y="2.99622" width="9.00375" height="7.00292" rx="2" stroke="#161924" stroke-width="1.5" stroke-linecap="round" stroke-linejoin="round"/>
<path d="M14.501 5.49731L16.0075 6.36528C16.3134 6.54188 16.6903 6.54188 16.9962 6.36528L18.5026 5.49731" stroke="#161924" stroke-width="1.5" stroke-linecap="round" stroke-linejoin="round"/>
<path d="M14.0011 17.0021L14.5013 21.0037" stroke="#161924" stroke-width="1.5" stroke-linecap="round" stroke-linejoin="round"/>
<path d="M9.99934 17.0021L9.49913 21.0037" stroke="#161924" stroke-width="1.5" stroke-linecap="round" stroke-linejoin="round"/>
<path d="M8.1416 21.0037H15.8588" stroke="#161924" stroke-width="1.5" stroke-linecap="round" stroke-linejoin="round"/>
</svg>
