<svg width="24" height="24" viewBox="0 0 24 24" fill="none" xmlns="http://www.w3.org/2000/svg">
<path d="M19 8V5.428C19 4.08705 17.9129 3 16.572 3H4.428C3.08705 3 2 4.08705 2 5.428V13.572C2 14.9129 3.08705 16 4.428 16H10" stroke="#161924" stroke-width="1.5" stroke-linecap="round" stroke-linejoin="round"/>
<path d="M5.92773 20H8.99973" stroke="#161924" stroke-width="1.5" stroke-linecap="round" stroke-linejoin="round"/>
<path d="M8 16L7.5 20" stroke="#161924" stroke-width="1.5" stroke-linecap="round" stroke-linejoin="round"/>
<path d="M17 20V18" stroke="#161924" stroke-width="1.5" stroke-linecap="round" stroke-linejoin="round"/>
<path d="M12 20H22" stroke="#161924" stroke-width="1.5" stroke-linecap="round" stroke-linejoin="round"/>
<path d="M21 20V14.8657" stroke="#161924" stroke-width="1.5" stroke-linecap="round" stroke-linejoin="round"/>
<path d="M13 20V14.8655" stroke="#161924" stroke-width="1.5" stroke-linecap="round" stroke-linejoin="round"/>
<path d="M13.6452 14.9996C14.1362 14.9994 14.6009 14.7776 14.9099 14.396C14.9964 14.2503 15.1533 14.161 15.3227 14.161C15.4922 14.161 15.6491 14.2503 15.7356 14.396C16.0444 14.7778 16.5092 14.9996 17.0003 14.9996C17.4913 14.9996 17.9561 14.7778 18.2649 14.396C18.3514 14.2503 18.5083 14.161 18.6778 14.161C18.8472 14.161 19.0041 14.2503 19.0906 14.396C19.3996 14.7776 19.8643 14.9994 20.3553 14.9996C21.1161 14.9942 21.7758 14.4724 21.9564 13.7333C22.0426 13.3661 21.9903 12.98 21.8095 12.649L21.3929 11.8243C21.1376 11.3188 20.6194 11 20.0531 11H13.9473C13.3814 11 12.8636 11.3185 12.6084 11.8237L12.1914 12.6494C12.0106 12.9804 11.9583 13.3665 12.0444 13.7336C12.2251 14.4727 12.8848 14.9945 13.6456 15" stroke="#161924" stroke-width="1.5" stroke-linecap="round" stroke-linejoin="round"/>
</svg>
