<svg width="24" height="24" viewBox="0 0 24 24" fill="none" xmlns="http://www.w3.org/2000/svg">
<path d="M17.5023 2.99634H21.0037L17.5023 6.998H21.0037" stroke="#161924" stroke-width="1.5" stroke-linecap="round" stroke-linejoin="round"/>
<path d="M21.0037 10.9997V16.0018C21.0037 18.7643 18.7642 21.0038 16.0016 21.0038H7.9983C5.23572 21.0038 2.99622 18.7643 2.99622 16.0018V7.99842C2.99622 5.23585 5.23572 2.99634 7.9983 2.99634H14.0008" stroke="#161924" stroke-width="1.5" stroke-linecap="round" stroke-linejoin="round"/>
<path fill-rule="evenodd" clip-rule="evenodd" d="M11.2941 7.37473C11.3424 7.29075 11.3377 7.18644 11.2821 7.10712C11.2265 7.0278 11.1301 6.98779 11.0347 7.00447C10.0873 7.21797 9.21968 7.69548 8.53243 8.3817C7.21131 9.63601 6.67475 11.5084 7.13102 13.272C7.58728 15.0357 8.96452 16.4129 10.7282 16.8692C12.4918 17.3254 14.3642 16.7889 15.6185 15.4678C16.3047 14.7805 16.7822 13.913 16.9958 12.9655C17.0124 12.8701 16.9724 12.7737 16.8931 12.7181C16.8138 12.6625 16.7095 12.6578 16.6255 12.7061C15.0952 13.5257 13.2087 13.2467 11.9811 12.0191C10.7536 10.7916 10.4746 8.90506 11.2942 7.37473H11.2941Z" stroke="#161924" stroke-width="1.5" stroke-linecap="round" stroke-linejoin="round"/>
</svg>
