<svg width="24" height="24" viewBox="0 0 24 24" fill="none" xmlns="http://www.w3.org/2000/svg">
<path fill-rule="evenodd" clip-rule="evenodd" d="M19.7149 7.19428L18.1987 8.71045C17.8141 9.09506 17.1905 9.09506 16.8059 8.71045L15.2897 7.19428C14.9051 6.80966 14.9051 6.18608 15.2897 5.80146L16.8059 4.28529C17.1905 3.90067 17.8141 3.90067 18.1987 4.28529L19.7149 5.80146C20.0995 6.18608 20.0995 6.80966 19.7149 7.19428Z" stroke="#161924" stroke-width="1.5" stroke-linecap="round" stroke-linejoin="round"/>
<path fill-rule="evenodd" clip-rule="evenodd" d="M10.8131 4.71661C10.8973 4.54286 10.8739 4.33611 10.7528 4.18566C10.6318 4.03521 10.4349 3.96801 10.2471 4.01309C8.814 4.37815 7.50568 5.12242 6.45954 6.16769C3.23638 9.30855 3.16878 14.4673 6.30853 17.6916C9.53276 20.8313 14.6916 20.7638 17.8324 17.5406C18.8777 16.4945 19.622 15.1862 19.9871 13.7531C20.0321 13.5653 19.9649 13.3684 19.8145 13.2474C19.664 13.1263 19.4573 13.1029 19.2835 13.1871C16.8472 14.3655 13.9339 13.8933 11.9945 12.0056C10.1068 10.0663 9.63459 7.15294 10.8131 4.71661Z" stroke="#161924" stroke-width="1.5" stroke-linecap="round" stroke-linejoin="round"/>
</svg>
