<svg width="24" height="24" viewBox="0 0 24 24" fill="none" xmlns="http://www.w3.org/2000/svg">
<path fill-rule="evenodd" clip-rule="evenodd" d="M17.002 21.0037H6.99788C4.78796 21.0037 2.99622 19.212 2.99622 17.002V6.99788C2.99622 4.78796 4.78796 2.99622 6.99788 2.99622H17.002C19.212 2.99622 21.0037 4.78796 21.0037 6.99788V17.002C21.0037 19.212 19.212 21.0037 17.002 21.0037Z" stroke="#161924" stroke-width="1.5" stroke-linecap="round" stroke-linejoin="round"/>
<path fill-rule="evenodd" clip-rule="evenodd" d="M12 17.0021V17.0021C10.0352 17.0021 8.42749 15.3944 8.42749 13.4296V10.5714C8.42749 8.60559 10.0352 6.99792 12 6.99792V6.99792C13.9648 6.99792 15.5725 8.60559 15.5725 10.5704V13.4286C15.5725 15.3944 13.9648 17.0021 12 17.0021Z" stroke="#161924" stroke-width="1.5" stroke-linecap="round" stroke-linejoin="round"/>
<path d="M12 9.85608V11.2857" stroke="#161924" stroke-width="1.5" stroke-linecap="round" stroke-linejoin="round"/>
</svg>
