<svg width="24" height="24" viewBox="0 0 24 24" fill="none" xmlns="http://www.w3.org/2000/svg">
<path fill-rule="evenodd" clip-rule="evenodd" d="M19.948 22H4.052C2.919 22 2 21.081 2 19.948V15.052C2 13.919 2.919 13 4.052 13H19.948C21.081 13 22 13.919 22 15.052V19.948C22 21.081 21.081 22 19.948 22Z" stroke="#161924" stroke-width="1.5" stroke-linecap="round" stroke-linejoin="round"/>
<path fill-rule="evenodd" clip-rule="evenodd" d="M17.931 19H12.069C11.479 19 11 18.521 11 17.931V17.069C11 16.479 11.479 16 12.069 16H17.931C18.521 16 19 16.479 19 17.069V17.931C19 18.521 18.521 19 17.931 19V19Z" stroke="#161924" stroke-width="1.5" stroke-linecap="round" stroke-linejoin="round"/>
<path d="M7.56066 16.4393C8.14645 17.0251 8.14645 17.9748 7.56066 18.5606C6.97487 19.1464 6.02513 19.1464 5.43934 18.5606C4.85355 17.9748 4.85355 17.0251 5.43934 16.4393C6.02513 15.8535 6.97487 15.8535 7.56066 16.4393" stroke="#161924" stroke-width="1.5" stroke-linecap="round" stroke-linejoin="round"/>
<path d="M10.6719 8.67199V3.67899C10.6719 3.46699 10.8059 3.27699 11.0069 3.20699L15.3189 1.69799C15.6439 1.58399 15.9839 1.82599 15.9839 2.16999V7.10299" stroke="#161924" stroke-width="1.5" stroke-linecap="round" stroke-linejoin="round"/>
<path d="M10.2832 7.73296C10.8018 8.25157 10.8018 9.09242 10.2832 9.61104C9.76454 10.1297 8.9237 10.1297 8.40508 9.61104C7.88646 9.09242 7.88646 8.25158 8.40508 7.73296C8.92369 7.21434 9.76454 7.21434 10.2832 7.73296" stroke="#161924" stroke-width="1.5" stroke-linecap="round" stroke-linejoin="round"/>
<path d="M15.5952 6.16295C16.1138 6.68156 16.1138 7.52241 15.5952 8.04103C15.0766 8.55964 14.2357 8.55964 13.7171 8.04103C13.1985 7.52241 13.1985 6.68157 13.7171 6.16295C14.2357 5.64433 15.0765 5.64433 15.5952 6.16295" stroke="#161924" stroke-width="1.5" stroke-linecap="round" stroke-linejoin="round"/>
<path d="M4.00004 1.99998L4.58004 2.57998" stroke="#161924" stroke-width="1.5" stroke-linecap="round" stroke-linejoin="round"/>
<path d="M4.00004 9.99999L4.58004 9.41999" stroke="#161924" stroke-width="1.5" stroke-linecap="round" stroke-linejoin="round"/>
<path d="M2 6.00998H3.16" stroke="#161924" stroke-width="1.5" stroke-linecap="round" stroke-linejoin="round"/>
<path d="M20 9.99999L19.42 9.41999" stroke="#161924" stroke-width="1.5" stroke-linecap="round" stroke-linejoin="round"/>
<path d="M20 1.99998L19.42 2.57998" stroke="#161924" stroke-width="1.5" stroke-linecap="round" stroke-linejoin="round"/>
<path d="M21.9998 5.98999H20.8398" stroke="#161924" stroke-width="1.5" stroke-linecap="round" stroke-linejoin="round"/>
</svg>
