<svg width="24" height="24" viewBox="0 0 24 24" fill="none" xmlns="http://www.w3.org/2000/svg">
<path d="M16.5 8H19.2C20.2 8 21 8.8 21 9.8V9.8C21 10.4 20.7 10.9 20.2 11.3L14.2 15.3C12.8 16.2 11.1 16.2 9.7 15.3L3.7 11.2C3.3 10.9 3 10.4 3 9.8V9.8C3 8.8 3.8 8 4.8 8H7.5" stroke="#161924" stroke-width="1.5" stroke-linecap="round" stroke-linejoin="round"/>
<path d="M3 9.60001V19C3 20.1 3.9 21 5 21H19C20.1 21 21 20.1 21 19V9.60001" stroke="#161924" stroke-width="1.5" stroke-linecap="round" stroke-linejoin="round"/>
<path d="M9.09961 14.9L3.59961 20.4" stroke="#161924" stroke-width="1.5" stroke-linecap="round" stroke-linejoin="round"/>
<path d="M14.9004 14.9L20.4004 20.4" stroke="#161924" stroke-width="1.5" stroke-linecap="round" stroke-linejoin="round"/>
<path d="M12 12C9.5 12 7.5 10 7.5 7.5C7.5 5 9.5 3 12 3C14.5 3 16.5 5 16.5 7.5C16.5 10 14.5 12 12 12" stroke="#161924" stroke-width="1.5" stroke-linecap="round" stroke-linejoin="round"/>
<path d="M11.1996 6.8L11.9996 6V9" stroke="#161924" stroke-width="1.5" stroke-linecap="round" stroke-linejoin="round"/>
<path d="M11.2002 9H12.7002" stroke="#161924" stroke-width="1.5" stroke-linecap="round" stroke-linejoin="round"/>
</svg>
