<svg width="24" height="24" viewBox="0 0 24 24" fill="none" xmlns="http://www.w3.org/2000/svg">
<path d="M7 9.5V14.5L3 9.5V9.504V14.5" stroke="#161924" stroke-width="1.5" stroke-linecap="round" stroke-linejoin="round"/>
<path d="M10 12H13" stroke="#161924" stroke-width="1.5" stroke-linecap="round" stroke-linejoin="round"/>
<path d="M13.5 9.50403H10V14.5H13.5" stroke="#161924" stroke-width="1.5" stroke-linecap="round" stroke-linejoin="round"/>
<path d="M16 9.5L16.5 14.5H16.714L18.5 11.5L20.286 14.5H20.5L21 9.5" stroke="#161924" stroke-width="1.5" stroke-linecap="round" stroke-linejoin="round"/>
<path d="M19.1117 6.50001C18.8817 6.20101 18.6377 5.91001 18.3637 5.63601C14.8487 2.12101 9.1507 2.12101 5.6357 5.63601C5.3617 5.91001 5.1187 6.20101 4.8877 6.50001" stroke="#161924" stroke-width="1.5" stroke-linecap="round" stroke-linejoin="round"/>
<path d="M4.8877 17.5C5.1177 17.799 5.3617 18.09 5.6357 18.364C9.1507 21.879 14.8487 21.879 18.3637 18.364C18.6377 18.09 18.8807 17.799 19.1117 17.5" stroke="#161924" stroke-width="1.5" stroke-linecap="round" stroke-linejoin="round"/>
</svg>
