<svg width="24" height="24" viewBox="0 0 24 24" fill="none" xmlns="http://www.w3.org/2000/svg">
<path d="M12 10.9997H17.0021" stroke="#161924" stroke-width="1.5" stroke-linecap="round" stroke-linejoin="round"/>
<path d="M12 14.0009H17.0021" stroke="#161924" stroke-width="1.5" stroke-linecap="round" stroke-linejoin="round"/>
<path d="M12 17.0022H17.0021" stroke="#161924" stroke-width="1.5" stroke-linecap="round" stroke-linejoin="round"/>
<path d="M7.9983 5.99759H19.0029C20.1079 5.99759 21.0037 6.89339 21.0037 7.99842V19.003C21.0037 20.108 20.1079 21.0038 19.0029 21.0038H4.99705C3.89202 21.0038 2.99622 20.108 2.99622 19.003V19.003C2.99622 17.898 3.89202 17.0022 4.99705 17.0022H5.99747C7.1025 17.0022 7.9983 16.1064 7.9983 15.0013V5.49738C7.9983 4.11609 6.87854 2.99634 5.49726 2.99634V2.99634C4.11597 2.99634 2.99622 4.11609 2.99622 5.49738V19.003" stroke="#161924" stroke-width="1.5" stroke-linecap="round" stroke-linejoin="round"/>
</svg>
