<svg width="24" height="24" viewBox="0 0 24 24" fill="none" xmlns="http://www.w3.org/2000/svg">
<circle cx="5.74741" cy="17.2523" r="3.75156" stroke="#161924" stroke-width="1.5" stroke-linecap="round" stroke-linejoin="round"/>
<path d="M5.24729 13.5482C4.27173 9.61623 6.20569 5.54205 9.8689 3.81205C13.5321 2.08205 17.9071 3.17672 20.324 6.42801C22.7408 9.6793 22.5282 14.1842 19.8159 17.1934C17.1036 20.2026 12.6449 20.8804 9.16092 18.8131" stroke="#161924" stroke-width="1.5" stroke-linecap="round" stroke-linejoin="round"/>
<path d="M17.6514 15.5078H9.06934" stroke="#161924" stroke-width="1.5" stroke-linecap="round" stroke-linejoin="round"/>
<path fill-rule="evenodd" clip-rule="evenodd" d="M10.8521 7.48071H16.1404C16.441 7.48071 16.7292 7.6001 16.9417 7.81262C17.1542 8.02513 17.2736 8.31337 17.2736 8.61391V8.61391V12.3913C17.2736 12.8085 16.9354 13.1467 16.5181 13.1467H10.4743C10.0571 13.1467 9.71887 12.8085 9.71887 12.3913V12.3913V8.61391C9.71887 8.31336 9.83827 8.02512 10.0508 7.81261C10.2633 7.60009 10.5516 7.48071 10.8521 7.48071V7.48071Z" stroke="#161924" stroke-width="1.5" stroke-linecap="round" stroke-linejoin="round"/>
<path d="M6.91487 16.6694L5.45626 18.128L4.5799 17.2524" stroke="#161924" stroke-width="1.5" stroke-linecap="round" stroke-linejoin="round"/>
</svg>
