<svg width="24" height="24" viewBox="0 0 24 24" fill="none" xmlns="http://www.w3.org/2000/svg">
<path d="M13.5002 4.50005V19.5C13.5002 19.699 13.4212 19.8897 13.2805 20.0304C13.1399 20.171 12.9491 20.25 12.7502 20.25C12.5513 20.25 12.3605 20.171 12.2199 20.0304C12.0792 19.8897 12.0002 19.699 12.0002 19.5V5.82474L9.38645 7.39317C9.21588 7.49561 9.01161 7.5261 8.81856 7.47793C8.62552 7.42975 8.45952 7.30687 8.35708 7.1363C8.25464 6.96573 8.22415 6.76146 8.27232 6.56841C8.3205 6.37537 8.44338 6.20936 8.61395 6.10692L12.364 3.85692C12.4778 3.78854 12.6077 3.7516 12.7405 3.74988C12.8732 3.74816 13.0041 3.78171 13.1196 3.84712C13.2352 3.91252 13.3313 4.00743 13.3982 4.12214C13.465 4.23686 13.5002 4.36727 13.5002 4.50005Z" fill="#161924"/>
</svg>
