<svg width="24" height="24" viewBox="0 0 24 24" fill="none" xmlns="http://www.w3.org/2000/svg">
<path d="M11.9996 9.75008C11.5041 9.7503 11.0111 9.82069 10.5353 9.95914L13.4059 4.86851C13.5035 4.69446 13.5279 4.48878 13.4739 4.2967C13.4198 4.10462 13.2917 3.94189 13.1176 3.84429C12.9436 3.7467 12.7379 3.72225 12.5458 3.77631C12.3537 3.83037 12.191 3.95853 12.0934 4.13258L7.44808 12.3826C6.87207 13.3841 6.6425 14.5476 6.79493 15.6928C6.94736 16.838 7.47329 17.9009 8.29121 18.7169C9.10912 19.5328 10.1733 20.0562 11.3189 20.2058C12.4645 20.3555 13.6274 20.1231 14.6275 19.5447C15.6276 18.9663 16.409 18.0741 16.8505 17.0065C17.292 15.9389 17.3691 14.7555 17.0697 13.6396C16.7703 12.5238 16.1112 11.5378 15.1946 10.8346C14.2779 10.1314 13.1549 9.75021 11.9996 9.75008ZM11.9996 18.7501C11.258 18.7501 10.5329 18.5301 9.91625 18.1181C9.29957 17.706 8.81892 17.1204 8.53509 16.4351C8.25126 15.7499 8.177 14.9959 8.32169 14.2685C8.46639 13.5411 8.82354 12.8729 9.34799 12.3484C9.87243 11.824 10.5406 11.4668 11.268 11.3221C11.9955 11.1774 12.7495 11.2517 13.4347 11.5355C14.1199 11.8194 14.7056 12.3 15.1176 12.9167C15.5297 13.5334 15.7496 14.2584 15.7496 15.0001C15.7496 15.9946 15.3545 16.9485 14.6513 17.6517C13.948 18.355 12.9942 18.7501 11.9996 18.7501Z" fill="#161924"/>
</svg>
