<svg width="24" height="24" viewBox="0 0 24 24" fill="none" xmlns="http://www.w3.org/2000/svg">
<path d="M16.4999 15C16.4998 16.0134 16.2065 17.0052 15.6552 17.8555C15.1039 18.7059 14.3183 19.3785 13.3932 19.7923C12.4681 20.206 11.443 20.3432 10.4417 20.1872C9.44037 20.0312 8.50559 19.5887 7.75018 18.9131C7.67305 18.8486 7.60968 18.7692 7.56385 18.6797C7.51802 18.5902 7.49066 18.4923 7.4834 18.392C7.47614 18.2917 7.48913 18.191 7.5216 18.0958C7.55407 18.0006 7.60535 17.9129 7.67239 17.8379C7.73943 17.763 7.82087 17.7023 7.91185 17.6594C8.00284 17.6165 8.10151 17.5924 8.202 17.5885C8.3025 17.5845 8.40276 17.6008 8.49683 17.6364C8.59089 17.672 8.67684 17.7261 8.74956 17.7956C9.28609 18.2755 9.94941 18.5908 10.6603 18.7039C11.3712 18.817 12.0996 18.7232 12.7586 18.4335C13.4176 18.1438 13.9793 17.6706 14.3766 17.0704C14.7739 16.4701 14.99 15.7682 14.9992 15.0484C15.0084 14.3286 14.8103 13.6214 14.4284 13.0112C14.0465 12.401 13.4971 11.9136 12.8458 11.6072C12.1944 11.3008 11.4686 11.1884 10.7551 11.2833C10.0415 11.3782 9.37036 11.6765 8.82174 12.1425C8.70297 12.2424 8.55614 12.303 8.40148 12.3159C8.24683 12.3288 8.09198 12.2935 7.95827 12.2147C7.82456 12.1359 7.71859 12.0176 7.65496 11.876C7.59133 11.7345 7.57317 11.5767 7.60299 11.4244L9.01487 4.35281C9.04888 4.18289 9.14068 4.02999 9.27467 3.92009C9.40866 3.8102 9.57658 3.7501 9.74987 3.75H15.7499C15.9488 3.75 16.1395 3.82902 16.2802 3.96967C16.4209 4.11032 16.4999 4.30109 16.4999 4.5C16.4999 4.69891 16.4209 4.88968 16.2802 5.03033C16.1395 5.17098 15.9488 5.25 15.7499 5.25H10.3649L9.39737 10.0875C10.1919 9.78787 11.0472 9.68544 11.89 9.78898C12.7328 9.89252 13.538 10.199 14.2363 10.682C14.9347 11.165 15.5055 11.8102 15.8997 12.5623C16.294 13.3144 16.4999 14.1509 16.4999 15Z" fill="#161924"/>
</svg>
