<svg width="24" height="24" viewBox="0 0 24 24" fill="none" xmlns="http://www.w3.org/2000/svg">
<path d="M19.5 3H4.5C4.10218 3 3.72064 3.15804 3.43934 3.43934C3.15804 3.72064 3 4.10218 3 4.5V19.5C3 19.8978 3.15804 20.2794 3.43934 20.5607C3.72064 20.842 4.10218 21 4.5 21H19.5C19.8978 21 20.2794 20.842 20.5607 20.5607C20.842 20.2794 21 19.8978 21 19.5V4.5C21 4.10218 20.842 3.72064 20.5607 3.43934C20.2794 3.15804 19.8978 3 19.5 3ZM19.5 19.5H4.5V4.5H19.5V19.5ZM15.75 13.5C15.75 13.6989 15.671 13.8897 15.5303 14.0303C15.3897 14.171 15.1989 14.25 15 14.25H14.25V16.5C14.25 16.6989 14.171 16.8897 14.0303 17.0303C13.8897 17.171 13.6989 17.25 13.5 17.25C13.3011 17.25 13.1103 17.171 12.9697 17.0303C12.829 16.8897 12.75 16.6989 12.75 16.5V14.25H9C8.88116 14.25 8.76401 14.2218 8.65822 14.1676C8.55243 14.1135 8.46102 14.035 8.39152 13.9385C8.32203 13.8421 8.27645 13.7306 8.25852 13.6131C8.2406 13.4956 8.25085 13.3756 8.28844 13.2628L10.5384 6.51281C10.6013 6.32409 10.7366 6.16809 10.9146 6.07913C11.0925 5.99017 11.2985 5.97553 11.4872 6.03844C11.6759 6.10134 11.8319 6.23664 11.9209 6.41457C12.0098 6.59249 12.0245 6.79847 11.9616 6.98719L10.0406 12.75H12.75V10.5C12.75 10.3011 12.829 10.1103 12.9697 9.96967C13.1103 9.82902 13.3011 9.75 13.5 9.75C13.6989 9.75 13.8897 9.82902 14.0303 9.96967C14.171 10.1103 14.25 10.3011 14.25 10.5V12.75H15C15.1989 12.75 15.3897 12.829 15.5303 12.9697C15.671 13.1103 15.75 13.3011 15.75 13.5Z" fill="#161924"/>
</svg>
