<svg width="24" height="24" viewBox="0 0 24 24" fill="none" xmlns="http://www.w3.org/2000/svg">
<path d="M16.4999 15C16.4998 16.0134 16.2065 17.0052 15.6552 17.8555C15.1039 18.7059 14.3183 19.3785 13.3932 19.7923C12.4681 20.206 11.443 20.3432 10.4417 20.1872C9.44037 20.0312 8.50559 19.5887 7.75018 18.9131C7.67305 18.8486 7.60968 18.7692 7.56385 18.6797C7.51802 18.5902 7.49066 18.4923 7.4834 18.392C7.47614 18.2917 7.48913 18.191 7.5216 18.0958C7.55407 18.0006 7.60535 17.9129 7.67239 17.8379C7.73943 17.763 7.82087 17.7023 7.91185 17.6594C8.00284 17.6165 8.10151 17.5924 8.202 17.5885C8.3025 17.5845 8.40276 17.6008 8.49683 17.6364C8.59089 17.672 8.67684 17.7261 8.74956 17.7956C9.20266 18.2007 9.74744 18.4896 10.337 18.6374C10.9265 18.7852 11.5432 18.7875 12.1338 18.6441C12.7244 18.5007 13.2713 18.2159 13.7274 17.8142C14.1836 17.4125 14.5352 16.9059 14.7521 16.3381C14.969 15.7704 15.0446 15.1584 14.9724 14.5549C14.9003 13.9514 14.6825 13.3745 14.3379 12.8738C13.9933 12.3732 13.5322 11.9638 12.9943 11.6809C12.4563 11.398 11.8577 11.2501 11.2499 11.25C11.1106 11.25 10.9741 11.2112 10.8556 11.138C10.7371 11.0648 10.6413 10.96 10.579 10.8354C10.5168 10.7108 10.4904 10.5714 10.5029 10.4326C10.5154 10.2939 10.5663 10.1614 10.6499 10.05L14.2499 5.25H8.24987C8.05096 5.25 7.86019 5.17098 7.71954 5.03033C7.57889 4.88968 7.49987 4.69891 7.49987 4.5C7.49987 4.30109 7.57889 4.11032 7.71954 3.96967C7.86019 3.82902 8.05096 3.75 8.24987 3.75H15.7499C15.8892 3.75 16.0257 3.78879 16.1442 3.86201C16.2626 3.93524 16.3584 4.04001 16.4207 4.16459C16.483 4.28917 16.5093 4.42863 16.4968 4.56735C16.4843 4.70608 16.4334 4.83857 16.3499 4.95L12.6149 9.93C13.7291 10.2316 14.7131 10.8915 15.4152 11.8077C16.1173 12.7239 16.4984 13.8457 16.4999 15Z" fill="#161924"/>
</svg>
