<svg width="24" height="24" viewBox="0 0 24 24" fill="none" xmlns="http://www.w3.org/2000/svg">
<path d="M17.2506 14.2501C17.2506 14.449 17.1716 14.6397 17.0309 14.7804C16.8903 14.921 16.6995 15.0001 16.5006 15.0001H15.0006V19.5001C15.0006 19.699 14.9216 19.8897 14.7809 20.0304C14.6403 20.171 14.4495 20.2501 14.2506 20.2501C14.0517 20.2501 13.8609 20.171 13.7203 20.0304C13.5796 19.8897 13.5006 19.699 13.5006 19.5001V15.0001H6.75058C6.63044 15 6.51206 14.9711 6.40542 14.9157C6.29879 14.8604 6.20701 14.7802 6.13782 14.682C6.06863 14.5837 6.02405 14.4703 6.00784 14.3513C5.99162 14.2322 6.00425 14.111 6.04465 13.9979L9.79465 3.49787C9.86592 3.31654 10.005 3.17005 10.1823 3.08943C10.3597 3.00881 10.5615 3.00039 10.745 3.06593C10.9285 3.13148 11.0792 3.26585 11.1654 3.44061C11.2515 3.61537 11.2663 3.8168 11.2065 4.00224L7.81465 13.5001H13.5006V9.00006C13.5006 8.80114 13.5796 8.61038 13.7203 8.46973C13.8609 8.32907 14.0517 8.25006 14.2506 8.25006C14.4495 8.25006 14.6403 8.32907 14.7809 8.46973C14.9216 8.61038 15.0006 8.80114 15.0006 9.00006V13.5001H16.5006C16.6995 13.5001 16.8903 13.5791 17.0309 13.7197C17.1716 13.8604 17.2506 14.0511 17.2506 14.2501Z" fill="#161924"/>
</svg>
