<svg width="24" height="24" viewBox="0 0 24 24" fill="none" xmlns="http://www.w3.org/2000/svg">
<path d="M12.0005 3.75C11.2483 3.74966 10.5049 3.91093 9.82049 4.22289C9.1361 4.53486 8.52673 4.99024 8.03365 5.5582C7.54056 6.12615 7.17526 6.79343 6.96249 7.51485C6.74972 8.23626 6.69445 8.99497 6.80041 9.73961C6.90637 10.4842 7.17109 11.1974 7.57665 11.8309C7.98221 12.4643 8.51914 13.0032 9.15109 13.411C9.78303 13.8189 10.4952 14.0862 11.2395 14.1949C11.9837 14.3036 12.7426 14.2511 13.4648 14.0409L10.5942 19.1316C10.4966 19.3056 10.4722 19.5113 10.5262 19.7034C10.5803 19.8955 10.7084 20.0582 10.8825 20.1558C11.0565 20.2534 11.2622 20.2778 11.4543 20.2238C11.6464 20.1697 11.8091 20.0415 11.9067 19.8675L16.552 11.6175C17.0111 10.8192 17.2522 9.91424 17.2511 8.99336C17.2499 8.07247 17.0065 7.16809 16.5454 6.37099C16.0842 5.57389 15.4215 4.9121 14.6238 4.45206C13.8261 3.99201 12.9213 3.74989 12.0005 3.75ZM12.0005 12.75C11.2588 12.75 10.5337 12.5301 9.91706 12.118C9.30038 11.706 8.81973 11.1203 8.5359 10.4351C8.25208 9.74984 8.17781 8.99584 8.32251 8.26841C8.4672 7.54098 8.82436 6.8728 9.3488 6.34835C9.87325 5.8239 10.5414 5.46675 11.2689 5.32206C11.9963 5.17736 12.7503 5.25162 13.4355 5.53545C14.1207 5.81928 14.7064 6.29993 15.1185 6.91661C15.5305 7.5333 15.7505 8.25832 15.7505 9C15.7505 9.99456 15.3554 10.9484 14.6521 11.6517C13.9488 12.3549 12.995 12.75 12.0005 12.75Z" fill="#161924"/>
</svg>
