<svg width="24" height="24" viewBox="0 0 24 24" fill="none" xmlns="http://www.w3.org/2000/svg">
<path d="M14.5828 11.1815C15.3664 10.6323 15.9544 9.84767 16.2617 8.94151C16.5689 8.03534 16.5794 7.05483 16.2914 6.14234C16.0035 5.22986 15.4322 4.43291 14.6605 3.86721C13.8888 3.30151 12.9568 2.99652 12 2.99652C11.0432 2.99652 10.1112 3.30151 9.33953 3.86721C8.56783 4.43291 7.99653 5.22986 7.70859 6.14234C7.42065 7.05483 7.43106 8.03534 7.73831 8.94151C8.04556 9.84767 8.63365 10.6323 9.41719 11.1815C8.40739 11.7521 7.61498 12.6411 7.1637 13.7095C6.71241 14.778 6.62765 15.9658 6.92266 17.0876C7.21767 18.2093 7.87583 19.2017 8.79438 19.9099C9.71292 20.6181 10.8401 21.0022 12 21.0022C13.1599 21.0022 14.2871 20.6181 15.2056 19.9099C16.1242 19.2017 16.7823 18.2093 17.0773 17.0876C17.3724 15.9658 17.2876 14.778 16.8363 13.7095C16.385 12.6411 15.5926 11.7521 14.5828 11.1815ZM9 7.49994C9 6.90659 9.17595 6.32658 9.50559 5.83323C9.83524 5.33988 10.3038 4.95536 10.852 4.7283C11.4001 4.50124 12.0033 4.44183 12.5853 4.55758C13.1672 4.67334 13.7018 4.95906 14.1213 5.37862C14.5409 5.79818 14.8266 6.33273 14.9424 6.91467C15.0581 7.49661 14.9987 8.09981 14.7716 8.64799C14.5446 9.19617 14.1601 9.6647 13.6667 9.99435C13.1734 10.324 12.5933 10.4999 12 10.4999C11.2044 10.4999 10.4413 10.1839 9.87868 9.62126C9.31607 9.05865 9 8.29559 9 7.49994ZM12 19.4999C11.2583 19.4999 10.5333 19.28 9.91661 18.868C9.29993 18.4559 8.81928 17.8702 8.53545 17.185C8.25162 16.4998 8.17736 15.7458 8.32206 15.0183C8.46675 14.2909 8.8239 13.6227 9.34835 13.0983C9.8728 12.5738 10.541 12.2167 11.2684 12.072C11.9958 11.9273 12.7498 12.0016 13.4351 12.2854C14.1203 12.5692 14.706 13.0499 15.118 13.6665C15.5301 14.2832 15.75 15.0083 15.75 15.7499C15.75 16.7445 15.3549 17.6983 14.6517 18.4016C13.9484 19.1049 12.9946 19.4999 12 19.4999Z" fill="#161924"/>
</svg>
