<svg width="24" height="24" viewBox="0 0 24 24" fill="none" xmlns="http://www.w3.org/2000/svg">
<rect x="6.99792" y="6.99805" width="14.0058" height="14.0058" rx="3" stroke="#161924" stroke-width="1.5" stroke-linecap="round" stroke-linejoin="round"/>
<path d="M2.99622 14.0009V5.99759C2.99622 4.34004 4.33992 2.99634 5.99747 2.99634H14.0008" stroke="#161924" stroke-width="1.5" stroke-linecap="round" stroke-linejoin="round"/>
<path d="M17.3702 13.9319C17.3321 13.9319 17.3012 13.9628 17.3012 14.0009C17.3012 14.0391 17.3321 14.07 17.3702 14.07C17.4083 14.07 17.4392 14.0391 17.4392 14.0009C17.4392 13.9628 17.4083 13.9319 17.3702 13.9319" stroke="#161924" stroke-width="1.5" stroke-linecap="round" stroke-linejoin="round"/>
<path d="M10.6304 13.9319C10.6122 13.9319 10.5948 13.9392 10.582 13.9522C10.5692 13.9652 10.5621 13.9827 10.5624 14.0009C10.5624 14.029 10.5793 14.0542 10.6053 14.0648C10.6312 14.0754 10.6609 14.0693 10.6806 14.0494C10.7003 14.0294 10.7059 13.9996 10.6949 13.9738C10.6839 13.9481 10.6584 13.9315 10.6304 13.9319" stroke="#161924" stroke-width="1.5" stroke-linecap="round" stroke-linejoin="round"/>
<path d="M13.9318 14.001C13.9318 14.0192 13.9391 14.0366 13.9521 14.0494C13.965 14.0622 13.9826 14.0693 14.0008 14.069C14.0288 14.069 14.0541 14.0521 14.0647 14.0261C14.0753 14.0002 14.0692 13.9705 14.0493 13.9508C14.0293 13.9311 13.9995 13.9255 13.9737 13.9365C13.9479 13.9475 13.9314 13.973 13.9318 14.001" stroke="#161924" stroke-width="1.5" stroke-linecap="round" stroke-linejoin="round"/>
<path d="M13.9318 10.6316C13.9318 10.6595 13.9486 10.6846 13.9744 10.6953C14.0002 10.706 14.0299 10.7001 14.0496 10.6804C14.0694 10.6606 14.0753 10.6309 14.0646 10.6051C14.0539 10.5793 14.0287 10.5625 14.0008 10.5625C13.9627 10.5625 13.9318 10.5934 13.9318 10.6316" stroke="#161924" stroke-width="1.5" stroke-linecap="round" stroke-linejoin="round"/>
<path d="M13.9318 17.3713C13.9318 17.3895 13.9391 17.407 13.9521 17.4198C13.965 17.4326 13.9826 17.4396 14.0008 17.4394C14.0288 17.4393 14.0541 17.4224 14.0647 17.3965C14.0753 17.3706 14.0692 17.3408 14.0493 17.3212C14.0293 17.3015 13.9995 17.2958 13.9737 17.3068C13.9479 17.3178 13.9314 17.3433 13.9318 17.3713" stroke="#161924" stroke-width="1.5" stroke-linecap="round" stroke-linejoin="round"/>
</svg>
