<svg width="24" height="24" viewBox="0 0 24 24" fill="none" xmlns="http://www.w3.org/2000/svg">
<path d="M20.7786 20.5537C20.6875 20.5533 20.6051 20.6079 20.57 20.6919C20.5348 20.776 20.5538 20.873 20.6181 20.9376C20.6824 21.0022 20.7793 21.0216 20.8635 20.9868C20.9478 20.952 21.0027 20.8699 21.0027 20.7788C21.0033 20.7191 20.9799 20.6617 20.9378 20.6194C20.8956 20.5771 20.8383 20.5534 20.7786 20.5537" stroke="#161924" stroke-width="1.5" stroke-linecap="round" stroke-linejoin="round"/>
<path d="M21.0037 18.0027C20.2016 17.9821 19.4263 18.2917 18.8589 18.8591C18.2915 19.4264 17.9819 20.2018 18.0025 21.0039" stroke="#161924" stroke-width="1.5" stroke-linecap="round" stroke-linejoin="round"/>
<path d="M15.0013 21.004C15.0063 20.2813 15.1304 19.5644 15.3684 18.8821C15.9392 17.2338 17.2346 15.9384 18.8829 15.3676C19.565 15.1304 20.2815 15.0067 21.0038 15.0015" stroke="#161924" stroke-width="1.5" stroke-linecap="round" stroke-linejoin="round"/>
<path d="M12 11.9312C11.9818 11.9312 11.9643 11.9385 11.9515 11.9515C11.9388 11.9644 11.9317 11.982 11.932 12.0002C11.932 12.0282 11.9489 12.0535 11.9748 12.0641C12.0007 12.0747 12.0305 12.0686 12.0502 12.0487C12.0698 12.0287 12.0755 11.9989 12.0645 11.9731C12.0535 11.9473 12.028 11.9308 12 11.9312" stroke="#161924" stroke-width="1.5" stroke-linecap="round" stroke-linejoin="round"/>
<path d="M15.3694 11.9312C15.3313 11.9312 15.3004 11.9621 15.3004 12.0002C15.3004 12.0383 15.3313 12.0692 15.3694 12.0692C15.4075 12.0692 15.4384 12.0383 15.4384 12.0002C15.4384 11.9621 15.4075 11.9312 15.3694 11.9312" stroke="#161924" stroke-width="1.5" stroke-linecap="round" stroke-linejoin="round"/>
<path d="M8.62958 11.9312C8.61136 11.9312 8.59391 11.9385 8.58112 11.9515C8.56833 11.9644 8.56129 11.982 8.56155 12.0002C8.56156 12.0282 8.57848 12.0535 8.6044 12.0641C8.63032 12.0747 8.66009 12.0686 8.67975 12.0487C8.69941 12.0287 8.70507 11.9989 8.69406 11.9731C8.68306 11.9473 8.65759 11.9308 8.62958 11.9312" stroke="#161924" stroke-width="1.5" stroke-linecap="round" stroke-linejoin="round"/>
<path d="M10.9996 21.0038H5.9975C4.33995 21.0038 2.99625 19.6601 2.99625 18.0026V5.99759C2.99625 4.34004 4.33995 2.99634 5.9975 2.99634H18.0025C19.66 2.99634 21.0037 4.34004 21.0037 5.99759V10.9997" stroke="#161924" stroke-width="1.5" stroke-linecap="round" stroke-linejoin="round"/>
</svg>
