<svg width="24" height="24" viewBox="0 0 24 24" fill="none" xmlns="http://www.w3.org/2000/svg">
<path fill-rule="evenodd" clip-rule="evenodd" d="M3.99658 6.9979V19.0029C3.99658 20.1079 4.89239 21.0037 5.99742 21.0037H18.0024C19.1074 21.0037 20.0032 20.1079 20.0032 19.0029V11.6567C20.0032 10.5954 19.5816 9.57755 18.8312 8.8271L16.1732 6.16913C15.4228 5.41867 14.4049 4.99707 13.3436 4.99707H5.99742C4.89239 4.99707 3.99658 5.89287 3.99658 6.9979Z" stroke="#161924" stroke-width="1.5" stroke-linecap="round" stroke-linejoin="round"/>
<path fill-rule="evenodd" clip-rule="evenodd" d="M6.99798 1.99585H10.9996C11.5522 1.99585 12.0001 2.44375 12.0001 2.99627V4.9971H5.99756V2.99627C5.99756 2.44375 6.44546 1.99585 6.99798 1.99585Z" stroke="#161924" stroke-width="1.5" stroke-linecap="round" stroke-linejoin="round"/>
<path fill-rule="evenodd" clip-rule="evenodd" d="M12.3678 10.1435C11.8772 9.65291 11.8776 8.85709 12.3682 8.36647C12.8588 7.87585 13.6547 7.87547 14.1453 8.36609L16.6344 10.8552C17.1251 11.3458 17.1247 12.1417 16.6341 12.6323C16.1434 13.1229 15.3476 13.1233 14.857 12.6327L12.3678 10.1435Z" stroke="#161924" stroke-width="1.5" stroke-linecap="round" stroke-linejoin="round"/>
<path d="M7.99854 14.0008H9.99937" stroke="#161924" stroke-width="1.5" stroke-linecap="round" stroke-linejoin="round"/>
<path d="M7.99854 17.0021H12.0002" stroke="#161924" stroke-width="1.5" stroke-linecap="round" stroke-linejoin="round"/>
</svg>
