<svg width="24" height="24" viewBox="0 0 24 24" fill="none" xmlns="http://www.w3.org/2000/svg">
<path d="M17.0024 10.9996H16.002" stroke="#161924" stroke-width="1.5" stroke-linecap="round" stroke-linejoin="round"/>
<path d="M8.99874 9.99915V7.49811" stroke="#161924" stroke-width="1.5" stroke-linecap="round" stroke-linejoin="round"/>
<path d="M7.49805 7.49813H10.4993" stroke="#161924" stroke-width="1.5" stroke-linecap="round" stroke-linejoin="round"/>
<path fill-rule="evenodd" clip-rule="evenodd" d="M10.5853 9.99915H6.99798C6.44546 9.99915 5.99756 10.447 5.99756 10.9996V15.0012C5.99756 15.5537 6.44546 16.0016 6.99798 16.0016H12.1334C12.8724 16.0016 13.5511 15.5944 13.8988 14.9424L16.0017 10.9996L13.2938 11.9022C13.114 11.9621 12.9158 11.9154 12.7819 11.7814L11.2927 10.2922C11.105 10.1045 10.8506 9.99915 10.5853 9.99915V9.99915Z" stroke="#161924" stroke-width="1.5" stroke-linecap="round" stroke-linejoin="round"/>
<rect x="2.49609" y="2.49603" width="19.0079" height="19.0079" rx="5.27778" stroke="#161924" stroke-width="1.5" stroke-linecap="round" stroke-linejoin="round"/>
<path d="M18.0026 14.0009V15.0013" stroke="#161924" stroke-width="1.5" stroke-linecap="round" stroke-linejoin="round"/>
</svg>
