<svg width="24" height="24" viewBox="0 0 24 24" fill="none" xmlns="http://www.w3.org/2000/svg">
<path d="M13.3891 10.6109C15.537 12.7588 15.537 16.2412 13.3891 18.3891C11.2412 20.537 7.75879 20.537 5.61091 18.3891C3.46303 16.2412 3.46303 12.7588 5.61091 10.6109C7.75879 8.46303 11.2412 8.46303 13.3891 10.6109" stroke="#161924" stroke-width="1.5" stroke-linecap="round" stroke-linejoin="round"/>
<path d="M18.3891 5.61091C20.537 7.75879 20.537 11.2412 18.3891 13.3891C16.2412 15.537 12.7588 15.537 10.6109 13.3891C8.46303 11.2412 8.46303 7.75879 10.6109 5.61091C12.7588 3.46303 16.2412 3.46303 18.3891 5.61091" stroke="#161924" stroke-width="1.5" stroke-linecap="round" stroke-linejoin="round"/>
<path d="M8 4H6C3.791 4 2 5.791 2 8" stroke="#161924" stroke-width="1.5" stroke-linecap="round" stroke-linejoin="round"/>
<path d="M6 2L8 4L6 6" stroke="#161924" stroke-width="1.5" stroke-linecap="round" stroke-linejoin="round"/>
<path d="M16 20H18C20.209 20 22 18.209 22 16" stroke="#161924" stroke-width="1.5" stroke-linecap="round" stroke-linejoin="round"/>
<path d="M18 22L16 20L18 18" stroke="#161924" stroke-width="1.5" stroke-linecap="round" stroke-linejoin="round"/>
</svg>
