<svg width="24" height="24" viewBox="0 0 24 24" fill="none" xmlns="http://www.w3.org/2000/svg">
<path d="M14.8501 19.871H16.4791C18.7271 19.871 20.5501 18.048 20.5501 15.8" stroke="#161924" stroke-width="1.5" stroke-linecap="round" stroke-linejoin="round"/>
<path d="M16.0711 21.093L14.8501 19.872L16.0711 18.651" stroke="#161924" stroke-width="1.5" stroke-linecap="round" stroke-linejoin="round"/>
<path d="M9.1502 4.129H7.5212C5.2732 4.129 3.4502 5.952 3.4502 8.2" stroke="#161924" stroke-width="1.5" stroke-linecap="round" stroke-linejoin="round"/>
<path d="M7.9292 2.90701L9.1502 4.12901L7.9292 5.35001" stroke="#161924" stroke-width="1.5" stroke-linecap="round" stroke-linejoin="round"/>
<path fill-rule="evenodd" clip-rule="evenodd" d="M17.24 12.019C19.858 12.019 22 9.877 22 7.26C22 4.643 19.858 2.5 17.24 2.5C14.622 2.5 12.481 4.642 12.481 7.26C12.481 8.328 12.842 9.313 13.441 10.109C14.312 11.265 15.691 12.019 17.24 12.019V12.019Z" stroke="#161924" stroke-width="1.5" stroke-linecap="round" stroke-linejoin="round"/>
<path d="M17.2402 5.11799V4.40399" stroke="#161924" stroke-width="1.5" stroke-linecap="round" stroke-linejoin="round"/>
<path d="M17.2402 9.401V10.115" stroke="#161924" stroke-width="1.5" stroke-linecap="round" stroke-linejoin="round"/>
<path d="M16.001 8.891C16.186 9.194 16.502 9.403 16.883 9.403H17.24H17.665C18.219 9.403 18.667 8.954 18.667 8.401C18.667 7.941 18.354 7.54 17.908 7.428L16.57 7.092C16.125 6.98 15.811 6.579 15.811 6.119C15.811 5.565 16.26 5.117 16.813 5.117H17.238H17.595C17.976 5.117 18.291 5.325 18.476 5.627" stroke="#161924" stroke-width="1.5" stroke-linecap="round" stroke-linejoin="round"/>
<path d="M10.1088 20.099C8.25376 21.954 5.24576 21.954 3.39076 20.099C1.53576 18.244 1.53576 15.236 3.39076 13.381C5.24576 11.526 8.25376 11.526 10.1088 13.381C11.9638 15.237 11.9638 18.244 10.1088 20.099" stroke="#161924" stroke-width="1.5" stroke-linecap="round" stroke-linejoin="round"/>
<path d="M4.14404 16.74H6.99404" stroke="#161924" stroke-width="1.5" stroke-linecap="round" stroke-linejoin="round"/>
<path d="M7.92614 18.906C7.06014 19.281 6.02314 19.127 5.31514 18.419C4.38714 17.491 4.38714 15.988 5.31514 15.06C6.02314 14.352 7.06114 14.198 7.92614 14.573" stroke="#161924" stroke-width="1.5" stroke-linecap="round" stroke-linejoin="round"/>
</svg>
