<svg width="24" height="24" viewBox="0 0 24 24" fill="none" xmlns="http://www.w3.org/2000/svg">
<path d="M11.89 12.11L12.44 11.56" stroke="#161924" stroke-width="1.5" stroke-linecap="round" stroke-linejoin="round"/>
<path d="M8.56992 15.43L8.01992 15.98" stroke="#161924" stroke-width="1.5" stroke-linecap="round" stroke-linejoin="round"/>
<path d="M8.01274 14.071C7.92174 14.448 8.00374 14.854 8.29874 15.149L8.57474 15.425L8.90374 15.754C9.33174 16.182 10.0257 16.182 10.4537 15.754C10.8087 15.399 10.8777 14.847 10.6187 14.416L9.84374 13.122C9.58574 12.691 9.65374 12.139 10.0087 11.784C10.4367 11.356 11.1307 11.356 11.5587 11.784L11.8877 12.113L12.1637 12.389C12.4577 12.683 12.5397 13.088 12.4507 13.464" stroke="#161924" stroke-width="1.5" stroke-linecap="round" stroke-linejoin="round"/>
<path d="M15.8073 8.19265C15.9521 8.33754 15.9521 8.57244 15.8073 8.71732C15.6624 8.86221 15.4275 8.86221 15.2826 8.71732C15.1377 8.57244 15.1377 8.33753 15.2826 8.19265C15.4275 8.04777 15.6624 8.04777 15.8073 8.19265" stroke="#161924" stroke-width="1.5" stroke-linecap="round" stroke-linejoin="round"/>
<path fill-rule="evenodd" clip-rule="evenodd" d="M13.5118 4H17.8968C19.0588 4 19.9998 4.941 19.9998 6.102V10.487C19.9998 11.045 19.7778 11.579 19.3838 11.974L10.9738 20.384C10.1528 21.205 8.82175 21.205 8.00075 20.384L3.61575 15.999C2.79475 15.178 2.79475 13.847 3.61575 13.026L12.0258 4.616C12.4198 4.222 12.9548 4 13.5118 4Z" stroke="#161924" stroke-width="1.5" stroke-linecap="round" stroke-linejoin="round"/>
</svg>
