<svg width="24" height="24" viewBox="0 0 24 24" fill="none" xmlns="http://www.w3.org/2000/svg">
<path d="M10.5 21H13.5" stroke="#161924" stroke-width="1.5" stroke-linecap="round" stroke-linejoin="round"/>
<path d="M13.5 3H10.5" stroke="#161924" stroke-width="1.5" stroke-linecap="round" stroke-linejoin="round"/>
<path d="M3 10.5V13.5" stroke="#161924" stroke-width="1.5" stroke-linecap="round" stroke-linejoin="round"/>
<path d="M21 13.5V10.5" stroke="#161924" stroke-width="1.5" stroke-linecap="round" stroke-linejoin="round"/>
<path d="M9.25 14.75L14.75 9.25" stroke="#161924" stroke-width="1.5" stroke-linecap="round" stroke-linejoin="round"/>
<path d="M10.0607 7.93934C10.6464 8.52513 10.6464 9.47487 10.0607 10.0607C9.47487 10.6464 8.52513 10.6464 7.93934 10.0607C7.35355 9.47487 7.35355 8.52513 7.93934 7.93934C8.52513 7.35355 9.47487 7.35355 10.0607 7.93934" stroke="#161924" stroke-width="1.5" stroke-linecap="round" stroke-linejoin="round"/>
<path d="M16.0607 13.9393C16.6464 14.5251 16.6464 15.4748 16.0607 16.0606C15.4749 16.6464 14.5251 16.6464 13.9393 16.0606C13.3536 15.4748 13.3536 14.5251 13.9393 13.9393C14.5251 13.3535 15.4749 13.3535 16.0607 13.9393" stroke="#161924" stroke-width="1.5" stroke-linecap="round" stroke-linejoin="round"/>
<path d="M21 6V4.214C21 3.544 20.456 3 19.786 3H18" stroke="#161924" stroke-width="1.5" stroke-linecap="round" stroke-linejoin="round"/>
<path d="M3 18V19.786C3 20.456 3.544 21 4.214 21H6" stroke="#161924" stroke-width="1.5" stroke-linecap="round" stroke-linejoin="round"/>
<path d="M6 3H4.214C3.544 3 3 3.544 3 4.214V6" stroke="#161924" stroke-width="1.5" stroke-linecap="round" stroke-linejoin="round"/>
<path d="M18 21H19.786C20.456 21 21 20.456 21 19.786V18" stroke="#161924" stroke-width="1.5" stroke-linecap="round" stroke-linejoin="round"/>
</svg>
