<svg width="24" height="24" viewBox="0 0 24 24" fill="none" xmlns="http://www.w3.org/2000/svg">
<path fill-rule="evenodd" clip-rule="evenodd" d="M9.14121 3.21934L21.2032 9.44494C21.5337 9.61549 21.7423 9.95529 21.7449 10.3272C21.7474 10.6991 21.5434 11.0417 21.2152 11.2167L16.7134 13.6177C16.1335 13.927 15.4387 13.9319 14.8546 13.6307L2.79556 7.40309C2.46508 7.23254 2.25647 6.89274 2.25393 6.52085C2.25143 6.14896 2.45541 5.80636 2.78356 5.63135L7.28543 3.23035C7.86482 2.92268 8.55822 2.91857 9.14121 3.21934Z" stroke="#161924" stroke-width="1.5" stroke-linecap="round" stroke-linejoin="round"/>
<path fill-rule="evenodd" clip-rule="evenodd" d="M14.8576 3.21934L2.79556 9.44494C2.46508 9.61549 2.25647 9.95529 2.25393 10.3272C2.25143 10.6991 2.45541 11.0417 2.78356 11.2167L7.28543 13.6177C7.86529 13.927 8.56008 13.9319 9.14421 13.6307L21.2032 7.40309C21.5337 7.23254 21.7423 6.89274 21.7449 6.52085C21.7474 6.14896 21.5434 5.80636 21.2152 5.63135L16.7134 3.23035C16.134 2.92268 15.4406 2.91857 14.8576 3.21934Z" stroke="#161924" stroke-width="1.5" stroke-linecap="round" stroke-linejoin="round"/>
<path d="M19.1063 12.3411V16.2788C19.1063 17.0178 18.699 17.6968 18.0469 18.0445L12.9447 20.7686C12.3564 21.0824 11.6503 21.0824 11.062 20.7686L5.95983 18.0445C5.30767 17.6968 4.90039 17.0178 4.90039 16.2788V12.3411" stroke="#161924" stroke-width="1.5" stroke-linecap="round" stroke-linejoin="round"/>
<path d="M11.9983 21.0037V12.1541" stroke="#161924" stroke-width="1.5" stroke-linecap="round" stroke-linejoin="round"/>
</svg>
