<svg width="24" height="24" viewBox="0 0 24 24" fill="none" xmlns="http://www.w3.org/2000/svg">
<path fill-rule="evenodd" clip-rule="evenodd" d="M10.4547 12.8674C11.8266 12.8674 12.9388 11.7552 12.9388 10.3833C12.9388 9.01143 11.8266 7.89929 10.4547 7.89929C9.08284 7.89929 7.9707 9.01143 7.9707 10.3833C7.9707 11.7552 9.08284 12.8674 10.4547 12.8674Z" stroke="#161924" stroke-width="1.5" stroke-linecap="round" stroke-linejoin="round"/>
<path d="M17.8913 10.9236C18.1104 7.49617 15.9598 4.36253 12.6828 3.33454C9.40587 2.30656 5.85066 3.65026 4.07283 6.58871C2.29501 9.52716 2.75465 13.2999 5.18598 15.7256L10.4552 21.0038" stroke="#161924" stroke-width="1.5" stroke-linecap="round" stroke-linejoin="round"/>
<path d="M17.5022 14.0009V17.0021" stroke="#161924" stroke-width="1.5" stroke-linecap="round" stroke-linejoin="round"/>
<path d="M21.0029 17.7804C21.0029 17.3506 20.6544 17.0021 20.2246 17.0021H14.7783C14.3485 17.0021 14 17.3506 14 17.7804" stroke="#161924" stroke-width="1.5" stroke-linecap="round" stroke-linejoin="round"/>
<path fill-rule="evenodd" clip-rule="evenodd" d="M15.0004 21.0038H20.0025C20.555 21.0038 21.0029 20.5559 21.0029 20.0034V16.4369C21.0028 16.0315 20.9208 15.6303 20.7618 15.2574L20.4837 14.6081C20.3264 14.24 19.9647 14.0011 19.5643 14.0009H15.4386C15.0379 14.0007 14.6757 14.2396 14.5182 14.6081L14.2411 15.2564C14.0821 15.6293 14.0001 16.0305 14 16.4359V20.0034C14 20.5559 14.4479 21.0038 15.0004 21.0038Z" stroke="#161924" stroke-width="1.5" stroke-linecap="round" stroke-linejoin="round"/>
</svg>
