<svg width="24" height="24" viewBox="0 0 24 24" fill="none" xmlns="http://www.w3.org/2000/svg">
<path d="M15.0005 3.07325V6.5637C15.0005 7.11622 14.5526 7.56412 14.0001 7.56412H9.99846C9.44595 7.56412 8.99805 7.11622 8.99805 6.5637V2.99622" stroke="#161924" stroke-width="1.5" stroke-linecap="round" stroke-linejoin="round"/>
<path d="M21.0036 10.4333V4.99705C21.0036 3.89202 20.1078 2.99622 19.0028 2.99622H4.99693C3.8919 2.99622 2.99609 3.89202 2.99609 4.99705V18.0025C2.99609 19.1075 3.8919 20.0033 4.99693 20.0033H10.9994" stroke="#161924" stroke-width="1.5" stroke-linecap="round" stroke-linejoin="round"/>
<path d="M19.4296 15.7015V13.9638C19.4296 13.443 19.2227 12.9435 18.8544 12.5752C18.4862 12.2069 17.9867 12 17.4658 12V12C16.9446 11.9995 16.4446 12.2061 16.0759 12.5745C15.7072 12.9428 15.5 13.4426 15.5 13.9638V15.7015" stroke="#161924" stroke-width="1.5" stroke-linecap="round" stroke-linejoin="round"/>
<path fill-rule="evenodd" clip-rule="evenodd" d="M19.7161 15.7015H15.2143C14.8731 15.7015 14.5458 15.8371 14.3046 16.0784C14.0633 16.3196 13.9277 16.6469 13.9277 16.9881V19.7202C13.9294 20.4296 14.5049 21.0037 15.2143 21.0037H19.7161C20.4262 21.0026 21.0016 20.4273 21.0027 19.7172V16.9851C21.001 16.2757 20.4255 15.7015 19.7161 15.7015Z" stroke="#161924" stroke-width="1.5" stroke-linecap="round" stroke-linejoin="round"/>
</svg>
