<svg width="24" height="24" viewBox="0 0 24 24" fill="none" xmlns="http://www.w3.org/2000/svg">
<path d="M18.002 15.7516H21.0032V18.7528" stroke="#161924" stroke-width="1.5" stroke-linecap="round" stroke-linejoin="round"/>
<path d="M16.5345 4.07266C15.6186 3.54269 14.6165 3.1783 13.5742 2.99622" stroke="#161924" stroke-width="1.5" stroke-linecap="round" stroke-linejoin="round"/>
<path d="M20.5199 8.82568C20.1595 7.8307 19.628 6.90639 18.9492 6.09454" stroke="#161924" stroke-width="1.5" stroke-linecap="round" stroke-linejoin="round"/>
<path d="M10.4251 2.99622C9.38275 3.1783 8.38067 3.54269 7.46484 4.07266" stroke="#161924" stroke-width="1.5" stroke-linecap="round" stroke-linejoin="round"/>
<path d="M5.04917 6.09753C4.3704 6.90938 3.83884 7.83369 3.47852 8.82867" stroke="#161924" stroke-width="1.5" stroke-linecap="round" stroke-linejoin="round"/>
<path d="M2.99609 12C3.00378 16.2264 5.95001 19.8785 10.0791 20.7801C14.2082 21.6817 18.4086 19.59 20.1772 15.7516" stroke="#161924" stroke-width="1.5" stroke-linecap="round" stroke-linejoin="round"/>
<path d="M2.99609 12C2.99609 16.9726 7.02721 21.0037 11.9998 21.0037" stroke="#161924" stroke-width="1.5" stroke-linecap="round" stroke-linejoin="round"/>
<path fill-rule="evenodd" clip-rule="evenodd" d="M8.30469 13.4716V10.5314C8.30546 10.1561 8.50748 9.81014 8.83391 9.62503L11.49 8.13241C11.8061 7.95432 12.1923 7.95432 12.5084 8.13241L15.1645 9.62503C15.4914 9.80968 15.6936 10.156 15.6938 10.5314V13.4716C15.6915 13.8449 15.4896 14.1884 15.1645 14.372L12.5074 15.8646C12.1911 16.0417 11.8054 16.0417 11.489 15.8646L8.83291 14.376C8.50673 14.1918 8.30492 13.8463 8.30469 13.4716V13.4716Z" stroke="#161924" stroke-width="1.5" stroke-linecap="round" stroke-linejoin="round"/>
<path d="M11.9983 12V16.0017" stroke="#161924" stroke-width="1.5" stroke-linecap="round" stroke-linejoin="round"/>
<path d="M8.44727 10.0062L11.9997 12L15.5522 10.0052" stroke="#161924" stroke-width="1.5" stroke-linecap="round" stroke-linejoin="round"/>
</svg>
