<svg width="24" height="24" viewBox="0 0 24 24" fill="none" xmlns="http://www.w3.org/2000/svg">
<path d="M20.0032 15.1273V6.99788C20.0032 4.78782 18.2116 2.99622 16.0015 2.99622H6.99776C4.7877 2.99622 2.99609 4.78782 2.99609 6.99788V16.0016C2.99609 18.2117 4.7877 20.0033 6.99776 20.0033H15.1271" stroke="#161924" stroke-width="1.5" stroke-linecap="round" stroke-linejoin="round"/>
<path d="M19.0017 23.0046C16.7916 23.0046 15 21.2129 15 19.0029C15 16.7928 16.7916 15.0012 19.0017 15.0012C21.2117 15.0012 23.0033 16.7928 23.0033 19.0029C23.0033 21.2129 21.2117 23.0046 19.0017 23.0046" stroke="#161924" stroke-width="1.5" stroke-linecap="round" stroke-linejoin="round"/>
<path fill-rule="evenodd" clip-rule="evenodd" d="M8.26563 12.7863V10.2142C8.26585 9.88565 8.44331 9.58275 8.72982 9.42189L11.0528 8.11535C11.3297 7.96033 11.6673 7.96033 11.9442 8.11535L14.2661 9.42189C14.5529 9.58243 14.7305 9.88553 14.7303 10.2142V12.7863C14.7301 13.1149 14.5526 13.4178 14.2661 13.5786L11.9422 14.8792C11.6656 15.0342 11.3283 15.0342 11.0518 14.8792L8.72882 13.5776C8.44254 13.4172 8.26537 13.1145 8.26563 12.7863V12.7863Z" stroke="#161924" stroke-width="1.5" stroke-linecap="round" stroke-linejoin="round"/>
<path d="M11.4983 11.4998V15.0012" stroke="#161924" stroke-width="1.5" stroke-linecap="round" stroke-linejoin="round"/>
<path d="M8.39062 9.75507L11.4989 11.4998L14.6082 9.75507" stroke="#161924" stroke-width="1.5" stroke-linecap="round" stroke-linejoin="round"/>
<path d="M20.3351 18.3356L18.6684 20.0033L17.668 19.0029" stroke="#161924" stroke-width="1.5" stroke-linecap="round" stroke-linejoin="round"/>
</svg>
