<svg width="24" height="24" viewBox="0 0 24 24" fill="none" xmlns="http://www.w3.org/2000/svg">
<path fill-rule="evenodd" clip-rule="evenodd" d="M20.0033 22.0042H14.0008C12.8958 22.0042 12 21.1084 12 20.0033V14.0008C12 12.8958 12.8958 12 14.0008 12H20.0033C21.1084 12 22.0042 12.8958 22.0042 14.0008V20.0033C22.0042 21.1084 21.1084 22.0042 20.0033 22.0042Z" stroke="#161924" stroke-width="1.5" stroke-linecap="round" stroke-linejoin="round"/>
<path d="M18.5013 15.3344H15.5" stroke="#161924" stroke-width="1.5" stroke-linecap="round" stroke-linejoin="round"/>
<path d="M11.9983 16.2408C11.3429 16.3981 10.6715 16.479 9.99747 16.4819C9.43979 16.4816 8.8834 16.4283 8.33578 16.3228L5.19547 17.8695C5.19547 16.799 5.19547 15.7796 5.19547 15.0233C3.22958 13.7505 2.02863 11.5805 1.99414 9.23887C1.99414 5.22019 5.59564 1.99585 9.99747 1.99585C14.3993 1.99585 18.0008 5.22019 18.0008 9.23887C17.9993 10.1921 17.7925 11.1338 17.3946 12" stroke="#161924" stroke-width="1.5" stroke-linecap="round" stroke-linejoin="round"/>
<path d="M10.1753 9.20884C10.2728 9.30657 10.2727 9.46481 10.175 9.56239C10.0774 9.65996 9.91913 9.65996 9.82148 9.56239C9.72382 9.46481 9.72369 9.30657 9.82118 9.20884C9.8681 9.1618 9.93181 9.13536 9.99826 9.13536C10.0647 9.13536 10.1284 9.1618 10.1753 9.20884" stroke="#161924" stroke-width="1.5" stroke-linecap="round" stroke-linejoin="round"/>
<path d="M13.732 9.20884C13.8295 9.30657 13.8293 9.46481 13.7317 9.56239C13.634 9.65996 13.4758 9.65996 13.3781 9.56239C13.2805 9.46481 13.2803 9.30657 13.3778 9.20884C13.4247 9.1618 13.4885 9.13536 13.5549 9.13536C13.6213 9.13536 13.685 9.1618 13.732 9.20884" stroke="#161924" stroke-width="1.5" stroke-linecap="round" stroke-linejoin="round"/>
<path d="M6.61869 9.20884C6.71618 9.30657 6.71605 9.46481 6.61839 9.56239C6.52074 9.65996 6.36249 9.65996 6.26484 9.56239C6.16718 9.46481 6.16705 9.30657 6.26454 9.20884C6.31146 9.1618 6.37517 9.13536 6.44161 9.13536C6.50806 9.13536 6.57177 9.1618 6.61869 9.20884" stroke="#161924" stroke-width="1.5" stroke-linecap="round" stroke-linejoin="round"/>
</svg>
