<svg width="24" height="24" viewBox="0 0 24 24" fill="none" xmlns="http://www.w3.org/2000/svg">
<path d="M8.99859 21.0037H5.24703C4.00387 21.0037 2.99609 19.9959 2.99609 18.7528V8.13836C2.99609 7.83438 3.05784 7.53357 3.17717 7.25399L4.41268 4.36278C4.76723 3.53429 5.58137 2.99677 6.48255 2.99622H17.5161C18.4174 2.99651 19.2317 3.53411 19.586 4.36278L20.8215 7.25399C20.9415 7.53339 21.0036 7.83427 21.0036 8.13836V12" stroke="#161924" stroke-width="1.5" stroke-linecap="round" stroke-linejoin="round"/>
<path d="M11.9983 2.99622V7.9983" stroke="#161924" stroke-width="1.5" stroke-linecap="round" stroke-linejoin="round"/>
<path d="M6.99609 17.0021H8.99693" stroke="#161924" stroke-width="1.5" stroke-linecap="round" stroke-linejoin="round"/>
<path d="M21.0036 9.99919C21.0036 8.89416 20.1078 7.99835 19.0028 7.99835H4.99693C3.8919 7.99835 2.99609 8.89416 2.99609 9.99919" stroke="#161924" stroke-width="1.5" stroke-linecap="round" stroke-linejoin="round"/>
<path fill-rule="evenodd" clip-rule="evenodd" d="M18.6962 13.6057L21.7435 19.0209C22.0925 19.6401 22.0868 20.3979 21.7286 21.0117C21.3704 21.6256 20.7135 22.0034 20.0028 22.0042H13.9052C13.1943 22.0042 12.5367 21.627 12.1779 21.0133C11.819 20.3996 11.8128 19.6415 12.1615 19.0219L15.2088 13.6057C15.5632 12.9758 16.2298 12.5861 16.9525 12.5861C17.6753 12.5861 18.3418 12.9758 18.6962 13.6057Z" stroke="#161924" stroke-width="1.5" stroke-linecap="round" stroke-linejoin="round"/>
<path d="M16.9514 17.4223V15.5865" stroke="#161924" stroke-width="1.5" stroke-linecap="round" stroke-linejoin="round"/>
<path d="M16.9504 19.4481C16.9263 19.4481 16.9033 19.4577 16.8864 19.4748C16.8694 19.4919 16.8601 19.5151 16.8603 19.5391C16.8603 19.5761 16.8826 19.6093 16.9168 19.6234C16.9509 19.6374 16.9902 19.6294 17.0161 19.6032C17.0421 19.5769 17.0496 19.5376 17.0352 19.5036C17.0208 19.4696 16.9873 19.4477 16.9504 19.4481" stroke="#161924" stroke-width="1.5" stroke-linecap="round" stroke-linejoin="round"/>
</svg>
