<svg width="24" height="24" viewBox="0 0 24 24" fill="none" xmlns="http://www.w3.org/2000/svg">
<path d="M1.49414 11.2497L2.99477 9.74908L4.49539 11.2497" stroke="#161924" stroke-width="1.5" stroke-linecap="round" stroke-linejoin="round"/>
<path d="M22.5032 12.7503L21.0026 14.2509L19.502 12.7503" stroke="#161924" stroke-width="1.5" stroke-linecap="round" stroke-linejoin="round"/>
<path d="M4.67383 6.7868C7.15157 3.27612 11.7671 2.00944 15.6898 3.76365C19.6124 5.51786 21.7454 9.80253 20.7805 13.9898" stroke="#161924" stroke-width="1.5" stroke-linecap="round" stroke-linejoin="round"/>
<path d="M19.3197 17.2092C16.842 20.7198 12.2264 21.9865 8.30377 20.2323C4.38117 18.4781 2.24817 14.1934 3.213 10.0062" stroke="#161924" stroke-width="1.5" stroke-linecap="round" stroke-linejoin="round"/>
<path d="M11.9983 8.49854V11.4998" stroke="#161924" stroke-width="1.5" stroke-linecap="round" stroke-linejoin="round"/>
<path d="M15.501 12.2781C15.501 11.8482 15.1525 11.4998 14.7226 11.4998H9.27637C8.84651 11.4998 8.49805 11.8482 8.49805 12.2781" stroke="#161924" stroke-width="1.5" stroke-linecap="round" stroke-linejoin="round"/>
<path fill-rule="evenodd" clip-rule="evenodd" d="M9.49846 15.5015H14.5005C15.0531 15.5015 15.501 15.0536 15.501 14.501V10.9346C15.5009 10.5292 15.4189 10.128 15.2599 9.75506L14.9817 9.10579C14.8244 8.73764 14.4627 8.49875 14.0624 8.49854H9.93665C9.53592 8.49835 9.17375 8.73731 9.01626 9.10579L8.73915 9.75406C8.58013 10.127 8.49812 10.5282 8.49805 10.9335V14.501C8.49805 15.0536 8.94595 15.5015 9.49846 15.5015Z" stroke="#161924" stroke-width="1.5" stroke-linecap="round" stroke-linejoin="round"/>
</svg>
