<svg width="24" height="24" viewBox="0 0 24 24" fill="none" xmlns="http://www.w3.org/2000/svg">
<path d="M15.0005 3.07325V6.5637C15.0005 7.11622 14.5526 7.56412 14.0001 7.56412H9.99846C9.44595 7.56412 8.99805 7.11622 8.99805 6.5637V2.99622" stroke="#161924" stroke-width="1.5" stroke-linecap="round" stroke-linejoin="round"/>
<path d="M21.0036 9.99913V4.99705C21.0036 3.89202 20.1078 2.99622 19.0028 2.99622H4.99693C3.8919 2.99622 2.99609 3.89202 2.99609 4.99705V18.0025C2.99609 19.1075 3.8919 20.0033 4.99693 20.0033H8.99859" stroke="#161924" stroke-width="1.5" stroke-linecap="round" stroke-linejoin="round"/>
<path d="M15.707 18.2526L18.2081 15.7516" stroke="#161924" stroke-width="1.5" stroke-linecap="round" stroke-linejoin="round"/>
<path d="M18.5885 18.5617C18.6079 18.5813 18.6078 18.6129 18.5883 18.6323C18.5687 18.6518 18.5371 18.6518 18.5176 18.6323C18.4981 18.6129 18.498 18.5813 18.5174 18.5617V18.5617C18.5372 18.5425 18.5687 18.5425 18.5885 18.5617" stroke="#161924" stroke-width="1.5" stroke-linecap="round" stroke-linejoin="round"/>
<path fill-rule="evenodd" clip-rule="evenodd" d="M21.9608 17.0021C21.9564 19.7587 19.7193 21.9904 16.9627 21.9882C14.2061 21.986 11.9727 19.7507 11.9727 16.9941C11.9727 14.2375 14.2061 12.0022 16.9627 12C19.7193 11.9978 21.9564 14.2295 21.9608 16.9861V17.0021Z" stroke="#161924" stroke-width="1.5" stroke-linecap="round" stroke-linejoin="round"/>
<path d="M15.3299 15.4424C15.3105 15.4229 15.3106 15.3913 15.3301 15.3718C15.3496 15.3523 15.3812 15.3523 15.4008 15.3718C15.4203 15.3913 15.4204 15.4229 15.401 15.4424V15.4424C15.3812 15.4616 15.3497 15.4616 15.3299 15.4424" stroke="#161924" stroke-width="1.5" stroke-linecap="round" stroke-linejoin="round"/>
</svg>
