<svg width="24" height="24" viewBox="0 0 24 24" fill="none" xmlns="http://www.w3.org/2000/svg">
<path fill-rule="evenodd" clip-rule="evenodd" d="M8.71485 14.308V11.6999C8.71677 11.3681 8.89617 11.0627 9.18504 10.8996L11.545 9.572C11.8267 9.41488 12.1697 9.41488 12.4514 9.572L14.8114 10.8996C15.1006 11.0624 15.2801 11.368 15.2816 11.6999V14.313C15.2799 14.6448 15.1004 14.9503 14.8114 15.1133L12.4504 16.4399C12.1687 16.597 11.8257 16.597 11.544 16.4399L9.18404 15.1123C8.8937 14.9488 8.71429 14.6412 8.71485 14.308Z" stroke="#161924" stroke-width="1.5" stroke-linecap="round" stroke-linejoin="round"/>
<path d="M11.9983 13.0004V16.5559" stroke="#161924" stroke-width="1.5" stroke-linecap="round" stroke-linejoin="round"/>
<path d="M3.99609 13.0004C3.99609 17.4205 7.57931 21.0037 11.9994 21.0037C16.4195 21.0037 20.0028 17.4205 20.0028 13.0004C20.0028 8.58028 16.4195 4.99707 11.9994 4.99707H4.99651" stroke="#161924" stroke-width="1.5" stroke-linecap="round" stroke-linejoin="round"/>
<path d="M7.49714 2.49603L4.99609 4.99707" stroke="#161924" stroke-width="1.5" stroke-linecap="round" stroke-linejoin="round"/>
<path d="M7.49714 7.49811L4.99609 4.99707" stroke="#161924" stroke-width="1.5" stroke-linecap="round" stroke-linejoin="round"/>
<path d="M8.8418 11.2277L11.9991 13.0004L15.1574 11.2267" stroke="#161924" stroke-width="1.5" stroke-linecap="round" stroke-linejoin="round"/>
</svg>
