<svg width="24" height="24" viewBox="0 0 24 24" fill="none" xmlns="http://www.w3.org/2000/svg">
<path d="M5.625 18.3576C8.5037 21.2444 12.9629 21.8367 16.4954 19.8015C20.0279 17.7663 21.752 13.6115 20.6985 9.67312C19.6449 5.73478 16.0765 2.9958 11.9997 2.99622" stroke="#161924" stroke-width="1.5" stroke-linecap="round" stroke-linejoin="round"/>
<path d="M3.72677 15.3764C3.69915 15.3764 3.67675 15.3988 3.67675 15.4264C3.67675 15.454 3.69915 15.4764 3.72677 15.4764C3.74464 15.4764 3.76115 15.4669 3.77009 15.4514C3.77903 15.436 3.77903 15.4169 3.77009 15.4014C3.76115 15.3859 3.74464 15.3764 3.72677 15.3764" stroke="#161924" stroke-width="1.5" stroke-linecap="round" stroke-linejoin="round"/>
<path d="M3.04513 11.9499C3.0175 11.9499 2.99511 11.9723 2.99511 12C2.99511 12.0276 3.0175 12.05 3.04513 12.05C3.07276 12.05 3.09515 12.0276 3.09515 12C3.09515 11.9723 3.07276 11.9499 3.04513 11.9499" stroke="#161924" stroke-width="1.5" stroke-linecap="round" stroke-linejoin="round"/>
<path d="M3.72677 8.52355C3.7135 8.52355 3.70078 8.52882 3.6914 8.5382C3.68202 8.54758 3.67675 8.56031 3.67675 8.57357C3.67675 8.6012 3.69915 8.62359 3.72677 8.62359C3.74464 8.62359 3.76115 8.61406 3.77009 8.59858C3.77903 8.58311 3.77903 8.56404 3.77009 8.54856C3.76115 8.53309 3.74464 8.52355 3.72677 8.52355" stroke="#161924" stroke-width="1.5" stroke-linecap="round" stroke-linejoin="round"/>
<path d="M5.66818 5.61834C5.64077 5.61887 5.61869 5.64096 5.61816 5.66836C5.61816 5.69599 5.64055 5.71838 5.66818 5.71838C5.6958 5.71838 5.7182 5.69599 5.7182 5.66836C5.7182 5.64073 5.6958 5.61834 5.66818 5.61834" stroke="#161924" stroke-width="1.5" stroke-linecap="round" stroke-linejoin="round"/>
<path d="M8.57247 3.67754C8.54485 3.67754 8.52245 3.69994 8.52245 3.72756C8.52245 3.75519 8.54485 3.77759 8.57247 3.77759C8.6001 3.77759 8.62249 3.75519 8.62249 3.72756C8.62249 3.69994 8.6001 3.67754 8.57247 3.67754" stroke="#161924" stroke-width="1.5" stroke-linecap="round" stroke-linejoin="round"/>
<path fill-rule="evenodd" clip-rule="evenodd" d="M8.30469 13.4716V10.5314C8.30546 10.1561 8.50748 9.81014 8.83391 9.62503L11.49 8.13241C11.8061 7.95432 12.1923 7.95432 12.5084 8.13241L15.1645 9.62503C15.4914 9.80968 15.6936 10.156 15.6938 10.5314V13.4716C15.6915 13.8449 15.4896 14.1884 15.1645 14.372L12.5074 15.8646C12.1911 16.0417 11.8054 16.0417 11.489 15.8646L8.83291 14.376C8.50673 14.1918 8.30492 13.8463 8.30469 13.4716V13.4716Z" stroke="#161924" stroke-width="1.5" stroke-linecap="round" stroke-linejoin="round"/>
<path d="M11.9983 12V16.0017" stroke="#161924" stroke-width="1.5" stroke-linecap="round" stroke-linejoin="round"/>
<path d="M8.44727 10.0062L11.9997 12L15.5522 10.0052" stroke="#161924" stroke-width="1.5" stroke-linecap="round" stroke-linejoin="round"/>
</svg>
