<svg width="24" height="24" viewBox="0 0 24 24" fill="none" xmlns="http://www.w3.org/2000/svg">
<path d="M4.99693 2.99622C3.8919 2.99622 2.99609 3.89202 2.99609 4.99705" stroke="#161924" stroke-width="1.5" stroke-linecap="round" stroke-linejoin="round"/>
<path d="M2.9963 8.32849V10.3293" stroke="#161924" stroke-width="1.5" stroke-linecap="round" stroke-linejoin="round"/>
<path d="M8.32812 2.99624H10.329" stroke="#161924" stroke-width="1.5" stroke-linecap="round" stroke-linejoin="round"/>
<path d="M19.002 21.0038C20.107 21.0038 21.0028 20.108 21.0028 19.0029" stroke="#161924" stroke-width="1.5" stroke-linecap="round" stroke-linejoin="round"/>
<path d="M21.0022 15.6715V13.6707" stroke="#161924" stroke-width="1.5" stroke-linecap="round" stroke-linejoin="round"/>
<path d="M15.6708 21.0037H13.6699" stroke="#161924" stroke-width="1.5" stroke-linecap="round" stroke-linejoin="round"/>
<path d="M14 4.35181V8.99874C14 9.55126 14.4479 9.99916 15.0004 9.99916H20.0555C20.608 9.99916 21.0559 9.55126 21.0559 8.99874V4.35181" stroke="#161924" stroke-width="1.5" stroke-linecap="round" stroke-linejoin="round"/>
<path d="M13 4.9971L17.5939 1.99585L22.0037 4.9971" stroke="#161924" stroke-width="1.5" stroke-linecap="round" stroke-linejoin="round"/>
<path d="M6.9963 13.0004V16.0017" stroke="#161924" stroke-width="1.5" stroke-linecap="round" stroke-linejoin="round"/>
<path d="M10.9994 16.8911C10.9994 16.3999 10.6012 16.0017 10.1101 16.0017H3.88546C3.39428 16.0017 2.99609 16.3999 2.99609 16.8911" stroke="#161924" stroke-width="1.5" stroke-linecap="round" stroke-linejoin="round"/>
<path fill-rule="evenodd" clip-rule="evenodd" d="M4.13957 21.0038H9.85595C10.4875 21.0038 10.9994 20.4918 10.9994 19.8603V15.7846C10.9993 15.321 10.9054 14.8623 10.7233 14.436L10.4062 13.6947C10.2263 13.2736 9.81262 13.0004 9.35474 13.0004H4.63978C4.18198 13.0007 3.76842 13.2738 3.58834 13.6947L3.27221 14.435C3.09011 14.8613 2.99618 15.32 2.99609 15.7836V19.8603C2.99609 20.4918 3.50805 21.0038 4.13957 21.0038Z" stroke="#161924" stroke-width="1.5" stroke-linecap="round" stroke-linejoin="round"/>
</svg>
