<svg width="24" height="24" viewBox="0 0 24 24" fill="none" xmlns="http://www.w3.org/2000/svg">
<rect x="2.99609" y="2.99622" width="18.0075" height="18.0075" rx="5" stroke="#161924" stroke-width="1.5" stroke-linecap="round" stroke-linejoin="round"/>
<path d="M11.9983 7.49811V10.6814" stroke="#161924" stroke-width="1.5" stroke-linecap="round" stroke-linejoin="round"/>
<path d="M16.5018 11.6819C16.5018 11.1294 16.0539 10.6815 15.5014 10.6815H8.49846C7.94595 10.6815 7.49805 11.1294 7.49805 11.6819" stroke="#161924" stroke-width="1.5" stroke-linecap="round" stroke-linejoin="round"/>
<path fill-rule="evenodd" clip-rule="evenodd" d="M15.5014 16.5019H8.62352C8.00194 16.5019 7.49805 15.998 7.49805 15.3764V10.2483C7.49824 9.97797 7.55302 9.71051 7.65911 9.46193L8.20634 8.18139C8.38369 7.76698 8.79101 7.49811 9.24177 7.49811H14.7581C15.2086 7.49832 15.6155 7.76713 15.7925 8.18139L16.3407 9.46293C16.4468 9.71151 16.5016 9.97897 16.5018 10.2493V15.5014C16.5018 16.054 16.0539 16.5019 15.5014 16.5019Z" stroke="#161924" stroke-width="1.5" stroke-linecap="round" stroke-linejoin="round"/>
</svg>
