<svg width="24" height="24" viewBox="0 0 24 24" fill="none" xmlns="http://www.w3.org/2000/svg">
<path fill-rule="evenodd" clip-rule="evenodd" d="M10.7982 2.99622H13.1992C13.8622 2.99622 14.3997 3.5337 14.3997 4.19672V8.99872L11.9987 7.79822L9.59766 8.99872V4.19672C9.59766 3.87832 9.72414 3.57297 9.94927 3.34783C10.1744 3.1227 10.4798 2.99622 10.7982 2.99622V2.99622Z" stroke="#161924" stroke-width="1.5" stroke-linecap="round" stroke-linejoin="round"/>
<rect x="6.99609" y="14.0009" width="5.00208" height="3.00125" stroke="#161924" stroke-width="1.5" stroke-linecap="round" stroke-linejoin="round"/>
<path d="M14.4008 3.99664H19.0028C20.1078 3.99664 21.0036 4.89245 21.0036 5.99748V19.0029C21.0036 20.1079 20.1078 21.0037 19.0028 21.0037H4.99693C3.8919 21.0037 2.99609 20.1079 2.99609 19.0029V5.99748C2.99609 4.89245 3.8919 3.99664 4.99693 3.99664H9.59884" stroke="#161924" stroke-width="1.5" stroke-linecap="round" stroke-linejoin="round"/>
</svg>
