<svg width="24" height="24" viewBox="0 0 24 24" fill="none" xmlns="http://www.w3.org/2000/svg">
<path d="M8.99859 21.0037H4.71081C4.25604 21.0037 3.81989 20.8231 3.49832 20.5015C3.17675 20.1799 2.99609 19.7438 2.99609 19.289V15.0012" stroke="#161924" stroke-width="1.5" stroke-linecap="round" stroke-linejoin="round"/>
<path d="M2.99609 4.35181V9.49895C2.99609 9.77521 3.22004 9.99916 3.4963 9.99916H9.55182C9.82808 9.99916 10.052 9.77521 10.052 9.49895V4.35181" stroke="#161924" stroke-width="1.5" stroke-linecap="round" stroke-linejoin="round"/>
<path d="M1.99414 4.9971L6.58805 1.99585L10.9979 4.9971" stroke="#161924" stroke-width="1.5" stroke-linecap="round" stroke-linejoin="round"/>
<path d="M16 2.99622H19.2874C19.7421 2.99622 20.1783 3.17687 20.4999 3.49844C20.8214 3.82002 21.0021 4.25616 21.0021 4.71093V7.9983" stroke="#161924" stroke-width="1.5" stroke-linecap="round" stroke-linejoin="round"/>
<path d="M17.0022 13.0004V15.2214" stroke="#161924" stroke-width="1.5" stroke-linecap="round" stroke-linejoin="round"/>
<path d="M21.0033 16.7189C21.0033 16.2278 20.6051 15.8296 20.114 15.8296H13.8894C13.3982 15.8296 13 16.2278 13 16.7189" stroke="#161924" stroke-width="1.5" stroke-linecap="round" stroke-linejoin="round"/>
<path fill-rule="evenodd" clip-rule="evenodd" d="M20.114 21.0037H14.0004C13.4479 21.0037 13 20.5558 13 20.0033V15.4454C13 15.2047 13.0487 14.9665 13.1431 14.7451L13.6293 13.6066C13.7867 13.2382 14.1489 12.9992 14.5496 12.9994H19.4517C19.852 12.9996 20.2137 13.2385 20.3711 13.6066L20.8583 14.7461C20.9526 14.9675 21.0013 15.2057 21.0013 15.4464V20.1144C21.0013 20.6048 20.6044 21.0026 20.114 21.0037Z" stroke="#161924" stroke-width="1.5" stroke-linecap="round" stroke-linejoin="round"/>
</svg>
