<svg width="24" height="24" viewBox="0 0 24 24" fill="none" xmlns="http://www.w3.org/2000/svg">
<path d="M11.9983 6.49768V9.49893" stroke="#161924" stroke-width="1.5" stroke-linecap="round" stroke-linejoin="round"/>
<path d="M15.501 10.2772C15.501 9.84739 15.1525 9.49892 14.7226 9.49892H9.27637C8.84651 9.49892 8.49805 9.84739 8.49805 10.2772" stroke="#161924" stroke-width="1.5" stroke-linecap="round" stroke-linejoin="round"/>
<path fill-rule="evenodd" clip-rule="evenodd" d="M9.49846 13.5006H14.5005C15.0531 13.5006 15.501 13.0527 15.501 12.5002V8.9337C15.5009 8.5283 15.4189 8.12711 15.2599 7.7542L14.9817 7.10493C14.8244 6.73678 14.4627 6.4979 14.0624 6.49768H9.93665C9.53592 6.4975 9.17375 6.73645 9.01626 7.10493L8.73915 7.7532C8.58013 8.12611 8.49812 8.5273 8.49805 8.9327V12.5002C8.49805 13.0527 8.94595 13.5006 9.49846 13.5006Z" stroke="#161924" stroke-width="1.5" stroke-linecap="round" stroke-linejoin="round"/>
<path fill-rule="evenodd" clip-rule="evenodd" d="M20.9958 6.15956V13.8097C20.996 14.6524 20.6615 15.4607 20.0659 16.0567C19.4702 16.6528 18.6621 16.9878 17.8195 16.9881H12.9934L7.99136 20.9897V16.9881H6.1656C4.41082 16.9881 2.98828 15.5655 2.98828 13.8107V13.8107V6.15956C2.98828 4.40477 4.41082 2.98224 6.1656 2.98224H17.8185C19.5732 2.98224 20.9958 4.40477 20.9958 6.15956V6.15956Z" stroke="#161924" stroke-width="1.5" stroke-linecap="round" stroke-linejoin="round"/>
</svg>
