<svg width="24" height="24" viewBox="0 0 24 24" fill="none" xmlns="http://www.w3.org/2000/svg">
<path d="M4.99693 2.99622C3.8919 2.99622 2.99609 3.89202 2.99609 4.99705" stroke="#161924" stroke-width="1.5" stroke-linecap="round" stroke-linejoin="round"/>
<path d="M2.9963 8.32849V10.3293" stroke="#161924" stroke-width="1.5" stroke-linecap="round" stroke-linejoin="round"/>
<path d="M8.32812 2.99624H10.329" stroke="#161924" stroke-width="1.5" stroke-linecap="round" stroke-linejoin="round"/>
<path d="M19.002 21.0038C20.107 21.0038 21.0028 20.108 21.0028 19.0029" stroke="#161924" stroke-width="1.5" stroke-linecap="round" stroke-linejoin="round"/>
<path d="M21.0022 15.6715V13.6707" stroke="#161924" stroke-width="1.5" stroke-linecap="round" stroke-linejoin="round"/>
<path d="M15.6708 21.0037H13.6699" stroke="#161924" stroke-width="1.5" stroke-linecap="round" stroke-linejoin="round"/>
<path fill-rule="evenodd" clip-rule="evenodd" d="M17.0016 1.99585C14.3328 4.79661 14.3328 9.19926 17.0016 12C19.6704 9.19926 19.6704 4.79661 17.0016 1.99585V1.99585Z" stroke="#161924" stroke-width="1.5" stroke-linecap="round" stroke-linejoin="round"/>
<path d="M17.002 12C19.6707 9.19926 19.6707 4.79661 17.002 1.99585" stroke="#161924" stroke-width="1.5" stroke-linecap="round" stroke-linejoin="round"/>
<path fill-rule="evenodd" clip-rule="evenodd" d="M22.0042 6.99788C22.0042 9.76046 19.7647 12 17.0021 12C14.2395 12 12 9.76046 12 6.99788C12 4.23531 14.2395 1.99579 17.0021 1.99579C18.3294 1.99367 19.6029 2.51999 20.5414 3.45853C21.48 4.39706 22.0063 5.6706 22.0042 6.99788Z" stroke="#161924" stroke-width="1.5" stroke-linecap="round" stroke-linejoin="round"/>
<path d="M12 6.99789H22.0042" stroke="#161924" stroke-width="1.5" stroke-linecap="round" stroke-linejoin="round"/>
<path fill-rule="evenodd" clip-rule="evenodd" d="M11.3556 19.0219L8.12023 20.8416C7.73461 21.0578 7.26432 21.0578 6.87871 20.8416L3.64136 19.0229C3.24312 18.7982 2.9966 18.3767 2.99609 17.9194V15.0852C2.99705 14.6289 3.2436 14.2084 3.64136 13.9848L6.87671 12.165C7.26268 11.9489 7.73325 11.9489 8.11923 12.165L11.3546 13.9848C11.7517 14.2091 11.9981 14.6292 11.9998 15.0852V17.9194C11.9998 18.3763 11.7536 18.7976 11.3556 19.0219V19.0219Z" stroke="#161924" stroke-width="1.5" stroke-linecap="round" stroke-linejoin="round"/>
<path d="M7.4963 21.0038V16.876" stroke="#161924" stroke-width="1.5" stroke-linecap="round" stroke-linejoin="round"/>
<path d="M3.16602 14.446L7.49682 16.876L11.8266 14.446" stroke="#161924" stroke-width="1.5" stroke-linecap="round" stroke-linejoin="round"/>
</svg>
