<svg width="24" height="24" viewBox="0 0 24 24" fill="none" xmlns="http://www.w3.org/2000/svg">
<path fill-rule="evenodd" clip-rule="evenodd" d="M13.0858 19.7712L12.9418 18.6858L12.2765 17.8154C11.9104 17.3361 11.9104 16.6711 12.2765 16.1917L12.9418 15.3214L13.0868 14.2349C13.1662 13.6366 13.637 13.1658 14.2353 13.0865L15.3208 12.9424L16.1911 12.2771C16.6705 11.911 17.3355 11.911 17.8148 12.2771L18.6852 12.9424L19.7716 13.0875C20.3697 13.1674 20.8401 13.6379 20.9201 14.2359L21.0642 15.3214L21.7294 16.1917C22.0945 16.6714 22.0945 17.3357 21.7294 17.8154L21.0642 18.6858L20.9191 19.7722C20.8385 20.37 20.3683 20.8401 19.7706 20.9207L18.6852 21.0648L17.8148 21.7301C17.3351 22.0951 16.6708 22.0951 16.1911 21.7301L15.3208 21.0648L14.2343 20.9197C13.6361 20.8401 13.1655 20.3694 13.0858 19.7712Z" stroke="#161924" stroke-width="1.5" stroke-linecap="round" stroke-linejoin="round"/>
<path d="M18.5606 16.2247L16.6148 18.1705L15.4473 17.0021" stroke="#161924" stroke-width="1.5" stroke-linecap="round" stroke-linejoin="round"/>
<path d="M15.0005 3.07325V6.5637C15.0005 7.11622 14.5526 7.56412 14.0001 7.56412H9.99846C9.44595 7.56412 8.99805 7.11622 8.99805 6.5637V2.99622" stroke="#161924" stroke-width="1.5" stroke-linecap="round" stroke-linejoin="round"/>
<path d="M21.0036 9.99913V4.99705C21.0036 3.89202 20.1078 2.99622 19.0028 2.99622H4.99693C3.8919 2.99622 2.99609 3.89202 2.99609 4.99705V18.0025C2.99609 19.1075 3.8919 20.0033 4.99693 20.0033H9.99901" stroke="#161924" stroke-width="1.5" stroke-linecap="round" stroke-linejoin="round"/>
</svg>
