<svg width="24" height="24" viewBox="0 0 24 24" fill="none" xmlns="http://www.w3.org/2000/svg">
<path d="M4.99693 2.99622C3.8919 2.99622 2.99609 3.89202 2.99609 4.99705" stroke="#161924" stroke-width="1.5" stroke-linecap="round" stroke-linejoin="round"/>
<path d="M2.9963 8.32849V10.3293" stroke="#161924" stroke-width="1.5" stroke-linecap="round" stroke-linejoin="round"/>
<path d="M8.32812 2.99624H10.329" stroke="#161924" stroke-width="1.5" stroke-linecap="round" stroke-linejoin="round"/>
<path d="M19.002 21.0038C20.107 21.0038 21.0028 20.108 21.0028 19.0029" stroke="#161924" stroke-width="1.5" stroke-linecap="round" stroke-linejoin="round"/>
<path d="M21.0022 15.6715V13.6707" stroke="#161924" stroke-width="1.5" stroke-linecap="round" stroke-linejoin="round"/>
<path d="M15.6708 21.0037H13.6699" stroke="#161924" stroke-width="1.5" stroke-linecap="round" stroke-linejoin="round"/>
<path d="M8.77623 16.1127L6.55331 18.3357L5.21875 17.0021" stroke="#161924" stroke-width="1.5" stroke-linecap="round" stroke-linejoin="round"/>
<path fill-rule="evenodd" clip-rule="evenodd" d="M8.99859 21.0038H4.99693C3.8919 21.0038 2.99609 20.108 2.99609 19.0029V15.0013C2.99609 13.8962 3.8919 13.0004 4.99693 13.0004H8.99859C10.1036 13.0004 10.9994 13.8962 10.9994 15.0013V19.0029C10.9994 20.108 10.1036 21.0038 8.99859 21.0038Z" stroke="#161924" stroke-width="1.5" stroke-linecap="round" stroke-linejoin="round"/>
<path d="M17.0022 2.99622V5.99747" stroke="#161924" stroke-width="1.5" stroke-linecap="round" stroke-linejoin="round"/>
<path d="M21.0033 6.88685C21.0033 6.39566 20.6051 5.99748 20.114 5.99748H13.8894C13.3982 5.99748 13 6.39566 13 6.88685" stroke="#161924" stroke-width="1.5" stroke-linecap="round" stroke-linejoin="round"/>
<path fill-rule="evenodd" clip-rule="evenodd" d="M14.1435 10.9995H19.8599C20.4914 10.9995 21.0033 10.4876 21.0033 9.85607V5.78038C21.0032 5.31683 20.9093 4.85809 20.7272 4.43181L20.4101 3.6905C20.2302 3.26944 19.8165 2.99622 19.3586 2.99622H14.6437C14.1859 2.99653 13.7723 3.26961 13.5922 3.6905L13.2761 4.43081C13.094 4.85709 13.0001 5.31583 13 5.77938V9.85607C13 10.4876 13.512 10.9995 14.1435 10.9995Z" stroke="#161924" stroke-width="1.5" stroke-linecap="round" stroke-linejoin="round"/>
</svg>
