<svg width="24" height="24" viewBox="0 0 24 24" fill="none" xmlns="http://www.w3.org/2000/svg">
<path d="M19.716 9.61097V3.99663C19.716 3.44412 19.2681 2.99622 18.7156 2.99622H16.8578C16.3053 2.99622 15.8574 3.44412 15.8574 3.99663V6.30359" stroke="#161924" stroke-width="1.5" stroke-linecap="round" stroke-linejoin="round"/>
<path d="M17.5022 14.0009V17.2242" stroke="#161924" stroke-width="1.5" stroke-linecap="round" stroke-linejoin="round"/>
<path d="M21.0029 18.0025C21.0029 17.5726 20.6544 17.2241 20.2246 17.2241H14.7783C14.3485 17.2241 14 17.5726 14 18.0025" stroke="#161924" stroke-width="1.5" stroke-linecap="round" stroke-linejoin="round"/>
<path fill-rule="evenodd" clip-rule="evenodd" d="M15.0004 21.0038H20.0025C20.555 21.0038 21.0029 20.5559 21.0029 20.0034V16.4369C21.0028 16.0315 20.9208 15.6303 20.7618 15.2574L20.4837 14.6081C20.3264 14.24 19.9647 14.0011 19.5643 14.0009H15.4386C15.0379 14.0007 14.6757 14.2396 14.5182 14.6081L14.2411 15.2564C14.0821 15.6293 14.0001 16.0305 14 16.4359V20.0034C14 20.5559 14.4479 21.0038 15.0004 21.0038Z" stroke="#161924" stroke-width="1.5" stroke-linecap="round" stroke-linejoin="round"/>
<path d="M2.99609 10.7135L10.6993 4.1107C11.4481 3.47026 12.5516 3.47026 13.3004 4.1107L21.0036 10.7135" stroke="#161924" stroke-width="1.5" stroke-linecap="round" stroke-linejoin="round"/>
<path d="M4.28125 9.61102V19.0029C4.28125 20.108 5.17705 21.0038 6.28208 21.0038H10.998" stroke="#161924" stroke-width="1.5" stroke-linecap="round" stroke-linejoin="round"/>
</svg>
