<svg width="24" height="24" viewBox="0 0 24 24" fill="none" xmlns="http://www.w3.org/2000/svg">
<path fill-rule="evenodd" clip-rule="evenodd" d="M20.5029 21.0038H14.0002C13.724 21.0038 13.5 20.7798 13.5 20.5035V20.0974C13.5033 18.9418 14.4393 18.0058 15.5949 18.0025H18.9083C20.0639 18.0058 20.9998 18.9418 21.0031 20.0974V20.5035C21.0031 20.7798 20.7792 21.0038 20.5029 21.0038Z" stroke="#161924" stroke-width="1.5" stroke-linecap="round" stroke-linejoin="round"/>
<path fill-rule="evenodd" clip-rule="evenodd" d="M17.2507 15.5015C16.1465 15.4993 15.2528 14.6029 15.2539 13.4986C15.255 12.3944 16.1505 11.4998 17.2547 11.4998C18.359 11.4998 19.2545 12.3944 19.2556 13.4986C19.2567 14.6029 18.363 15.4993 17.2587 15.5015H17.2507Z" stroke="#161924" stroke-width="1.5" stroke-linecap="round" stroke-linejoin="round"/>
<path d="M15.0005 3.07325V6.5637C15.0005 7.11622 14.5526 7.56412 14.0001 7.56412H9.99846C9.44595 7.56412 8.99805 7.11622 8.99805 6.5637V2.99622" stroke="#161924" stroke-width="1.5" stroke-linecap="round" stroke-linejoin="round"/>
<path d="M21.0036 8.99872V4.99705C21.0036 3.89202 20.1078 2.99622 19.0028 2.99622H4.99693C3.8919 2.99622 2.99609 3.89202 2.99609 4.99705V18.0025C2.99609 19.1075 3.8919 20.0033 4.99693 20.0033H9.99901" stroke="#161924" stroke-width="1.5" stroke-linecap="round" stroke-linejoin="round"/>
</svg>
