<svg width="24" height="24" viewBox="0 0 24 24" fill="none" xmlns="http://www.w3.org/2000/svg">
<path fill-rule="evenodd" clip-rule="evenodd" d="M4.14592 16.4018C1.94249 12.4749 2.97466 7.52434 6.56376 4.80514C10.1529 2.08594 15.198 2.43216 18.382 5.61616C21.566 8.80016 21.9122 13.8453 19.193 17.4344C16.4738 21.0235 11.5233 22.0557 7.59635 19.8523L2.99444 21.0037L4.14592 16.4018Z" stroke="#161924" stroke-width="1.5" stroke-linecap="round" stroke-linejoin="round"/>
<path fill-rule="evenodd" clip-rule="evenodd" d="M8.30469 13.4716V10.5314C8.30546 10.1561 8.50748 9.81014 8.83391 9.62503L11.49 8.13241C11.8061 7.95432 12.1923 7.95432 12.5084 8.13241L15.1645 9.62503C15.4914 9.80968 15.6936 10.156 15.6938 10.5314V13.4716C15.6915 13.8449 15.4896 14.1884 15.1645 14.372L12.5074 15.8646C12.1911 16.0417 11.8054 16.0417 11.489 15.8646L8.83291 14.376C8.50673 14.1918 8.30492 13.8463 8.30469 13.4716V13.4716Z" stroke="#161924" stroke-width="1.5" stroke-linecap="round" stroke-linejoin="round"/>
<path d="M11.9983 12V16.0017" stroke="#161924" stroke-width="1.5" stroke-linecap="round" stroke-linejoin="round"/>
<path d="M8.44727 10.0062L11.9997 12L15.5522 10.0052" stroke="#161924" stroke-width="1.5" stroke-linecap="round" stroke-linejoin="round"/>
</svg>
