<svg width="24" height="24" viewBox="0 0 24 24" fill="none" xmlns="http://www.w3.org/2000/svg">
<path d="M10.666 21.0037L11.9996 19.6702L10.666 18.3366" stroke="#161924" stroke-width="1.5" stroke-linecap="round" stroke-linejoin="round"/>
<path d="M20.8918 14.0068C21.521 14.3895 21.9329 15.0465 22.0033 15.7796C22.0033 17.4163 19.4022 18.8138 15.7227 19.3891" stroke="#161924" stroke-width="1.5" stroke-linecap="round" stroke-linejoin="round"/>
<path d="M3.1056 14.0068C2.47639 14.3895 2.06448 15.0465 1.99414 15.7796C1.99414 17.9285 6.47301 19.6702 11.9983 19.6702" stroke="#161924" stroke-width="1.5" stroke-linecap="round" stroke-linejoin="round"/>
<path fill-rule="evenodd" clip-rule="evenodd" d="M6.76562 11.5208V7.47809C6.76716 6.96121 7.04701 6.48523 7.49793 6.23257L11.1485 4.17971C11.5835 3.93594 12.114 3.93594 12.549 4.17971L16.2016 6.23257C16.6517 6.48549 16.9302 6.96176 16.9299 7.47809V11.5208C16.9299 12.037 16.6514 12.5131 16.2016 12.7663L12.549 14.8181C12.1141 15.0623 11.5834 15.0623 11.1485 14.8181L7.49693 12.7653C7.04594 12.5133 6.76626 12.0374 6.76562 11.5208Z" stroke="#161924" stroke-width="1.5" stroke-linecap="round" stroke-linejoin="round"/>
<path d="M11.8459 9.49896V15.0013" stroke="#161924" stroke-width="1.5" stroke-linecap="round" stroke-linejoin="round"/>
<path d="M6.96094 6.75684L11.846 9.49898L16.732 6.75684" stroke="#161924" stroke-width="1.5" stroke-linecap="round" stroke-linejoin="round"/>
</svg>
