<svg width="24" height="24" viewBox="0 0 24 24" fill="none" xmlns="http://www.w3.org/2000/svg">
<path d="M21.0025 15.0012V19.289C21.0019 20.2358 20.2346 21.0032 19.2878 21.0037H15" stroke="#161924" stroke-width="1.5" stroke-linecap="round" stroke-linejoin="round"/>
<path d="M2.99609 8.99872V4.71093C2.99665 3.76415 3.76403 2.99677 4.71081 2.99622H8.99859" stroke="#161924" stroke-width="1.5" stroke-linecap="round" stroke-linejoin="round"/>
<path fill-rule="evenodd" clip-rule="evenodd" d="M3.93595 19.9873H2.55337C2.24452 19.9873 1.99414 19.737 1.99414 19.4281V15.0443C1.99414 14.7354 2.24452 14.485 2.55337 14.485H3.93595C4.09071 14.4875 4.23778 14.5529 4.34328 14.6662C4.44879 14.7794 4.50363 14.9308 4.49518 15.0853V19.4691C4.47705 19.7635 4.23083 19.9916 3.93595 19.9873V19.9873Z" stroke="#161924" stroke-width="1.5" stroke-linecap="round" stroke-linejoin="round"/>
<path d="M4.49609 18.8028L5.57854 19.7032C5.8035 19.8897 6.08664 19.9917 6.37888 19.9913H9.96137C10.4109 19.9909 10.8058 19.6931 10.9298 19.261L11.6621 16.6979C11.7729 16.3105 11.7082 15.894 11.485 15.5585C11.2342 15.18 10.8105 14.9524 10.3565 14.9522H8.84591" stroke="#161924" stroke-width="1.5" stroke-linecap="round" stroke-linejoin="round"/>
<path d="M8.84591 14.9482V13.3526C8.84274 12.7496 8.4402 12.2217 7.85951 12.0591C7.27882 11.8965 6.6607 12.1386 6.34486 12.6523L4.49609 15.6705" stroke="#161924" stroke-width="1.5" stroke-linecap="round" stroke-linejoin="round"/>
<path d="M17.0022 2.99622V5.99747" stroke="#161924" stroke-width="1.5" stroke-linecap="round" stroke-linejoin="round"/>
<path d="M21.0033 6.88685C21.0033 6.39566 20.6051 5.99748 20.114 5.99748H13.8894C13.3982 5.99748 13 6.39566 13 6.88685" stroke="#161924" stroke-width="1.5" stroke-linecap="round" stroke-linejoin="round"/>
<path fill-rule="evenodd" clip-rule="evenodd" d="M14.1435 10.9995H19.8599C20.4914 10.9995 21.0033 10.4876 21.0033 9.85607V5.78038C21.0032 5.31683 20.9093 4.85809 20.7272 4.43181L20.4101 3.6905C20.2302 3.26944 19.8165 2.99622 19.3586 2.99622H14.6437C14.1859 2.99653 13.7723 3.26961 13.5922 3.6905L13.2761 4.43081C13.094 4.85709 13.0001 5.31583 13 5.77938V9.85607C13 10.4876 13.512 10.9995 14.1435 10.9995Z" stroke="#161924" stroke-width="1.5" stroke-linecap="round" stroke-linejoin="round"/>
</svg>
