<svg width="24" height="24" viewBox="0 0 24 24" fill="none" xmlns="http://www.w3.org/2000/svg">
<path d="M15.0005 3.07325V6.5637C15.0005 7.11622 14.5526 7.56412 14.0001 7.56412H9.99846C9.44595 7.56412 8.99805 7.11622 8.99805 6.5637V2.99622" stroke="#161924" stroke-width="1.5" stroke-linecap="round" stroke-linejoin="round"/>
<path d="M21.0036 12V4.99705C21.0036 3.89202 20.1078 2.99622 19.0028 2.99622H4.99693C3.8919 2.99622 2.99609 3.89202 2.99609 4.99705V18.0025C2.99609 19.1075 3.8919 20.0033 4.99693 20.0033H10.9994" stroke="#161924" stroke-width="1.5" stroke-linecap="round" stroke-linejoin="round"/>
<path fill-rule="evenodd" clip-rule="evenodd" d="M18.4297 20.5196C18.1192 20.8298 17.6981 21.004 17.2592 21.0038V21.0038C16.8203 21.0036 16.3994 20.8294 16.0887 20.5196L14.0999 18.5347C13.3091 17.7177 13.3197 16.4174 14.1237 15.6134C14.9278 14.8093 16.228 14.7987 17.0451 15.5895L17.2552 15.7986L17.4653 15.5895C18.2823 14.7987 19.5826 14.8093 20.3866 15.6134C21.1907 16.4174 21.2013 17.7177 20.4105 18.5347L18.4297 20.5196Z" stroke="#161924" stroke-width="1.5" stroke-linecap="round" stroke-linejoin="round"/>
</svg>
