<svg width="24" height="24" viewBox="0 0 24 24" fill="none" xmlns="http://www.w3.org/2000/svg">
<path fill-rule="evenodd" clip-rule="evenodd" d="M11.298 14.85L12.4633 16.0153C12.6624 16.2144 12.9515 16.2942 13.2245 16.2253C13.4976 16.1565 13.7143 15.9492 13.7952 15.6795L15.7148 9.28101C15.7993 8.99911 15.7223 8.69354 15.5142 8.48543C15.3061 8.27732 15.0005 8.20029 14.7186 8.28486L8.32014 10.2044C8.05044 10.2853 7.84313 10.5021 7.77429 10.7751C7.70545 11.0481 7.78523 11.3372 7.98433 11.5364L9.1496 12.7016V14.85H11.298Z" stroke="#161924" stroke-width="1.5" stroke-linecap="round" stroke-linejoin="round"/>
<path d="M6.5 17.5L5 19" stroke="#161924" stroke-width="1.5" stroke-linecap="round" stroke-linejoin="round"/>
<path d="M8.93945 19.0607L7.93945 20.0607" stroke="#161924" stroke-width="1.5" stroke-linecap="round" stroke-linejoin="round"/>
<path d="M5 15L4 16" stroke="#161924" stroke-width="1.5" stroke-linecap="round" stroke-linejoin="round"/>
<path d="M3 12C3 7.02944 7.02944 3 12 3C16.9706 3 21 7.02944 21 12C21 16.9706 16.9706 21 12 21" stroke="#161924" stroke-width="1.5" stroke-linecap="round" stroke-linejoin="round"/>
</svg>
