<svg width="24" height="24" viewBox="0 0 24 24" fill="none" xmlns="http://www.w3.org/2000/svg">
<path d="M8.60986 6.99792H12.3894" stroke="#161924" stroke-width="1.5" stroke-linecap="round" stroke-linejoin="round"/>
<path d="M8.99881 12H5.99756V19.0029" stroke="#161924" stroke-width="1.5" stroke-linecap="round" stroke-linejoin="round"/>
<path d="M5.99776 19.0029H1.99609V7.56013C1.99609 6.87379 2.36834 6.24144 2.9685 5.90845L9.58225 2.23392C10.1531 1.91674 10.8472 1.91674 11.418 2.23392L18.0318 5.90845C18.6314 6.24186 19.0032 6.87406 19.0032 7.56013V8.99873" stroke="#161924" stroke-width="1.5" stroke-linecap="round" stroke-linejoin="round"/>
<path d="M22.0045 17.8024C22.0045 16.6974 21.1087 15.8016 20.0037 15.8016H12.0003C10.8953 15.8016 9.99951 16.6974 9.99951 17.8024" stroke="#161924" stroke-width="1.5" stroke-linecap="round" stroke-linejoin="round"/>
<path d="M9.99951 17.8024V21.0038C9.99951 21.5563 10.4474 22.0042 10.9999 22.0042H11.9903C12.5429 22.0042 12.9908 21.5563 12.9908 21.0038V20.3425H19.0133V21.0038C19.0133 21.5563 19.4612 22.0042 20.0137 22.0042H21.0041C21.5566 22.0042 22.0045 21.5563 22.0045 21.0038V17.8024" stroke="#161924" stroke-width="1.5" stroke-linecap="round" stroke-linejoin="round"/>
<path d="M13.7378 18.1026H12.2422" stroke="#161924" stroke-width="1.5" stroke-linecap="round" stroke-linejoin="round"/>
<path d="M19.7612 18.1026H18.2656" stroke="#161924" stroke-width="1.5" stroke-linecap="round" stroke-linejoin="round"/>
<path d="M20.5088 15.7385L22.0044 14.9912" stroke="#161924" stroke-width="1.5" stroke-linecap="round" stroke-linejoin="round"/>
<path d="M11.5001 15.7385L9.99951 14.9912" stroke="#161924" stroke-width="1.5" stroke-linecap="round" stroke-linejoin="round"/>
<path d="M13.5689 12C12.8745 12.0018 12.272 12.4797 12.1123 13.1555L11.478 15.8666L12.1123 13.1555C12.272 12.4797 12.8745 12.0018 13.5689 12H18.4349C19.1293 12.0018 19.7318 12.4797 19.8915 13.1555L20.5258 15.8666" stroke="#161924" stroke-width="1.5" stroke-linecap="round" stroke-linejoin="round"/>
</svg>
