<svg width="24" height="24" viewBox="0 0 24 24" fill="none" xmlns="http://www.w3.org/2000/svg">
<rect x="4" y="3" width="16" height="18" rx="2" stroke="#161924" stroke-width="1.5" stroke-linecap="round" stroke-linejoin="round"/>
<path fill-rule="evenodd" clip-rule="evenodd" d="M8.5 10.8872V8.90388C8.49989 8.41196 8.80836 7.97282 9.27116 7.80605L11.0503 7.16555C11.6634 6.94482 12.3343 6.94482 12.9473 7.16555L14.7288 7.80721C15.1912 7.97384 15.4996 8.41238 15.5 8.90388V10.8872C15.5 12.3724 13.4222 13.4714 12.4667 13.8995C12.17 14.0335 11.83 14.0335 11.5333 13.8995C10.5778 13.4714 8.5 12.37 8.5 10.8872Z" stroke="#161924" stroke-width="1.5" stroke-linecap="round" stroke-linejoin="round"/>
<path d="M11 10.2501L11.8 11.0501L13 9.8501" stroke="#161924" stroke-width="1.5" stroke-linecap="round" stroke-linejoin="round"/>
<path d="M16 17H8" stroke="#161924" stroke-width="1.5" stroke-linecap="round" stroke-linejoin="round"/>
</svg>
