<svg width="24" height="24" viewBox="0 0 24 24" fill="none" xmlns="http://www.w3.org/2000/svg">
<path fill-rule="evenodd" clip-rule="evenodd" d="M11.9999 5C9.40693 7.768 9.40693 12.232 11.9999 15C14.5929 12.232 14.5929 7.768 11.9999 5Z" stroke="#161924" stroke-width="1.5" stroke-linecap="round" stroke-linejoin="round"/>
<path d="M12 5C14.768 5 17 7.232 17 10C17 12.768 14.768 15 12 15" stroke="#161924" stroke-width="1.5" stroke-linecap="round" stroke-linejoin="round"/>
<path d="M12 15C9.232 15 7 12.768 7 10C7 7.232 9.232 5 12 5" stroke="#161924" stroke-width="1.5" stroke-linecap="round" stroke-linejoin="round"/>
<path d="M7 10H17" stroke="#161924" stroke-width="1.5" stroke-linecap="round" stroke-linejoin="round"/>
<path fill-rule="evenodd" clip-rule="evenodd" d="M17.778 22H6.222C4.995 22 4 21.005 4 19.778V4.222C4 2.995 4.995 2 6.222 2H17.778C19.005 2 20 2.995 20 4.222V19.778C20 21.005 19.005 22 17.778 22Z" stroke="#161924" stroke-width="1.5" stroke-linecap="round" stroke-linejoin="round"/>
<path d="M15 18.5H9" stroke="#161924" stroke-width="1.5" stroke-linecap="round" stroke-linejoin="round"/>
</svg>
