<svg width="24" height="24" viewBox="0 0 24 24" fill="none" xmlns="http://www.w3.org/2000/svg">
<path fill-rule="evenodd" clip-rule="evenodd" d="M15.5305 21.0037C16.4975 21.0037 17.3261 20.3122 17.4991 19.3608L18.9866 11.1785C19.0396 10.8866 18.9604 10.5863 18.7704 10.3585C18.5803 10.1308 18.2989 9.99915 18.0023 9.99915H3.99701C3.70037 9.99915 3.41902 10.1308 3.22895 10.3585C3.03887 10.5863 2.95967 10.8866 3.01272 11.1785L4.50012 19.3608C4.67308 20.3122 5.50173 21.0037 6.46875 21.0037H15.5305Z" stroke="#161924" stroke-width="1.5" stroke-linecap="round" stroke-linejoin="round"/>
<path d="M8.99902 16.0017H12.7164" stroke="#161924" stroke-width="1.5" stroke-linecap="round" stroke-linejoin="round"/>
<path d="M6.99826 9.99919V2.74615" stroke="#161924" stroke-width="1.5" stroke-linecap="round" stroke-linejoin="round"/>
<path d="M9.99923 6.99788V1.99579" stroke="#161924" stroke-width="1.5" stroke-linecap="round" stroke-linejoin="round"/>
<path d="M13.0007 7.99835V2.74615" stroke="#161924" stroke-width="1.5" stroke-linecap="round" stroke-linejoin="round"/>
<path d="M3.99699 5.99758H2.99659" stroke="#161924" stroke-width="1.5" stroke-linecap="round" stroke-linejoin="round"/>
<path d="M3.99699 2.9963H2.99659" stroke="#161924" stroke-width="1.5" stroke-linecap="round" stroke-linejoin="round"/>
<path d="M21.004 2.99624H16.002" stroke="#161924" stroke-width="1.5" stroke-linecap="round" stroke-linejoin="round"/>
<path d="M21.004 5.99752H16.002" stroke="#161924" stroke-width="1.5" stroke-linecap="round" stroke-linejoin="round"/>
</svg>
