<svg width="24" height="24" viewBox="0 0 24 24" fill="none" xmlns="http://www.w3.org/2000/svg">
<path fill-rule="evenodd" clip-rule="evenodd" d="M4.575 19.896L4.104 19.425C2.542 17.863 2.542 15.33 4.104 13.768L13.768 4.104C15.33 2.542 17.863 2.542 19.425 4.104L19.896 4.575C21.458 6.137 21.458 8.67 19.896 10.232L10.232 19.896C8.67 21.458 6.137 21.458 4.575 19.896Z" stroke="#161924" stroke-width="1.5" stroke-linecap="round" stroke-linejoin="round"/>
<path d="M12 5.87L18.13 12" stroke="#161924" stroke-width="1.5" stroke-linecap="round" stroke-linejoin="round"/>
<path d="M10.0881 11.912C10.0391 11.863 9.96006 11.863 9.91206 11.912C9.86306 11.961 9.86306 12.04 9.91206 12.089C9.96106 12.138 10.0401 12.138 10.0891 12.089C10.1371 12.04 10.1371 11.961 10.0881 11.912" stroke="#161924" stroke-width="1.5" stroke-linecap="round" stroke-linejoin="round"/>
<path d="M12.0881 13.912C12.0391 13.863 11.9601 13.863 11.9121 13.912C11.8631 13.961 11.8631 14.04 11.9121 14.089C11.9611 14.138 12.0401 14.138 12.0891 14.089C12.1371 14.04 12.1371 13.961 12.0881 13.912" stroke="#161924" stroke-width="1.5" stroke-linecap="round" stroke-linejoin="round"/>
<path d="M12.0881 9.91199C12.0391 9.86299 11.9601 9.86299 11.9121 9.91199C11.8631 9.96099 11.8631 10.04 11.9121 10.089C11.9611 10.138 12.0401 10.138 12.0891 10.089C12.1371 10.04 12.1371 9.96099 12.0881 9.91199" stroke="#161924" stroke-width="1.5" stroke-linecap="round" stroke-linejoin="round"/>
<path d="M14.0881 11.912C14.0391 11.863 13.9601 11.863 13.9121 11.912C13.8631 11.961 13.8631 12.04 13.9121 12.089C13.9611 12.138 14.0401 12.138 14.0891 12.089C14.1371 12.04 14.1371 11.961 14.0881 11.912" stroke="#161924" stroke-width="1.5" stroke-linecap="round" stroke-linejoin="round"/>
<path d="M12 18.13L5.87 12" stroke="#161924" stroke-width="1.5" stroke-linecap="round" stroke-linejoin="round"/>
</svg>
