<svg width="24" height="24" viewBox="0 0 24 24" fill="none" xmlns="http://www.w3.org/2000/svg">
<path fill-rule="evenodd" clip-rule="evenodd" d="M20.707 4.70701L19.293 3.29301C18.902 2.90201 18.269 2.90201 17.879 3.29301L7.293 13.879C7.105 14.066 7 14.321 7 14.586V17H9.414C9.679 17 9.934 16.895 10.121 16.707L20.707 6.12101C21.098 5.73101 21.098 5.09801 20.707 4.70701V4.70701Z" stroke="#161924" stroke-width="1.5" stroke-linecap="round" stroke-linejoin="round"/>
<path d="M18.9098 7.91L16.0898 5.09" stroke="#161924" stroke-width="1.5" stroke-linecap="round" stroke-linejoin="round"/>
<path d="M21 11V19C21 20.105 20.105 21 19 21H5C3.895 21 3 20.105 3 19V5C3 3.895 3.895 3 5 3H13" stroke="#161924" stroke-width="1.5" stroke-linecap="round" stroke-linejoin="round"/>
</svg>
