<svg width="24" height="24" viewBox="0 0 24 24" fill="none" xmlns="http://www.w3.org/2000/svg">
<path fill-rule="evenodd" clip-rule="evenodd" d="M11.159 15.427H8.573V12.841C8.573 12.576 8.678 12.321 8.866 12.134L12.866 8.13401C13.257 7.74301 13.89 7.74301 14.28 8.13401L15.866 9.72001C16.257 10.111 16.257 10.744 15.866 11.134L11.866 15.134C11.679 15.321 11.424 15.427 11.159 15.427V15.427Z" stroke="#161924" stroke-width="1.5" stroke-linecap="round" stroke-linejoin="round"/>
<path d="M18.3639 5.63604C21.8787 9.15076 21.8787 14.8492 18.3639 18.3639C14.8492 21.8787 9.15074 21.8787 5.63604 18.3639C2.12132 14.8492 2.12132 9.15074 5.63604 5.63604C9.15076 2.12132 14.8492 2.12132 18.3639 5.63604" stroke="#161924" stroke-width="1.5" stroke-linecap="round" stroke-linejoin="round"/>
</svg>
