<svg width="24" height="24" viewBox="0 0 24 24" fill="none" xmlns="http://www.w3.org/2000/svg">
<path fill-rule="evenodd" clip-rule="evenodd" d="M18.571 2.60099L10.086 11.086V13.914H12.914L21.399 5.42899C21.79 5.03799 21.79 4.40499 21.399 4.01499L19.985 2.60099C19.595 2.20999 18.962 2.20999 18.571 2.60099V2.60099Z" stroke="#161924" stroke-width="1.5" stroke-linecap="round" stroke-linejoin="round"/>
<path d="M14.328 16.743L15.035 17.45C15.426 17.841 15.426 18.474 15.035 18.864L12.914 20.985C12.523 21.376 11.89 21.376 11.5 20.985L3.01499 12.5C2.62399 12.109 2.62399 11.476 3.01499 11.086L5.13599 8.965C5.52699 8.574 6.15999 8.574 6.54999 8.965L7.25699 9.672" stroke="#161924" stroke-width="1.5" stroke-linecap="round" stroke-linejoin="round"/>
<path d="M16.45 4.71997L19.28 7.54997" stroke="#161924" stroke-width="1.5" stroke-linecap="round" stroke-linejoin="round"/>
</svg>
