<svg width="24" height="24" viewBox="0 0 24 24" fill="none" xmlns="http://www.w3.org/2000/svg">
<path fill-rule="evenodd" clip-rule="evenodd" d="M8.99872 15.0014L12.15 14.6123C12.3714 14.5851 12.5774 14.4848 12.7353 14.3272L20.3695 6.69798C21.2148 5.85223 21.2148 4.48145 20.3695 3.6357V3.6357C19.5237 2.79038 18.1529 2.79038 17.3072 3.6357L9.74403 11.1989C9.59085 11.352 9.4915 11.5507 9.46091 11.7651L8.99872 15.0014Z" stroke="#161924" stroke-width="1.5" stroke-linecap="round" stroke-linejoin="round"/>
<path d="M13.0004 3.99683H6.99788C4.78782 3.99683 2.99622 5.78843 2.99622 7.99849V17.0022C2.99622 19.2123 4.78782 21.0039 6.99788 21.0039H16.0016C18.2117 21.0039 20.0033 19.2123 20.0033 17.0022V10.9997" stroke="#161924" stroke-width="1.5" stroke-linecap="round" stroke-linejoin="round"/>
</svg>
