<svg width="24" height="24" viewBox="0 0 24 24" fill="none" xmlns="http://www.w3.org/2000/svg">
<path d="M13.0004 20.9418C12.6685 20.983 12.3344 21.0038 12 21.0038C7.02733 21.0038 2.99622 16.9727 2.99622 12.0001C2.99622 7.02745 7.02733 2.99634 12 2.99634C16.9726 2.99634 21.0037 7.02745 21.0037 12.0001C21.0037 12.3345 20.9828 12.6686 20.9417 13.0005" stroke="#161924" stroke-width="1.5" stroke-linecap="round" stroke-linejoin="round"/>
<path d="M20.0034 17.0022L17.5023 19.5032L16.0017 18.0026" stroke="#161924" stroke-width="1.5" stroke-linecap="round" stroke-linejoin="round"/>
<path fill-rule="evenodd" clip-rule="evenodd" d="M11.1586 15.4285H8.57153V12.8415C8.57153 12.5762 8.67703 12.3217 8.86466 12.1342L12.8663 8.13251C13.257 7.74196 13.8902 7.74196 14.2809 8.13251L15.8676 9.71917C16.2581 10.1098 16.2581 10.7431 15.8676 11.1338L11.8659 15.1354C11.6783 15.3231 11.4239 15.4285 11.1586 15.4285Z" stroke="#161924" stroke-width="1.5" stroke-linecap="round" stroke-linejoin="round"/>
</svg>
