<svg width="24" height="24" viewBox="0 0 24 24" fill="none" xmlns="http://www.w3.org/2000/svg">
<path d="M21.0037 12.0001V16.0018C21.0037 18.7643 18.7642 21.0038 16.0016 21.0038H7.9983C5.23572 21.0038 2.99622 18.7643 2.99622 16.0018V7.99842C2.99622 5.23585 5.23572 2.99634 7.9983 2.99634H12" stroke="#161924" stroke-width="1.5" stroke-linecap="round" stroke-linejoin="round"/>
<path fill-rule="evenodd" clip-rule="evenodd" d="M17.3818 3.61686C17.7799 3.21907 18.3198 2.99584 18.8825 2.99634C19.4453 2.99684 19.9848 3.22104 20.3821 3.61954V3.61954C20.7802 4.01749 21.0037 4.5573 21.0037 5.12015C21.0037 5.68301 20.7799 6.22276 20.3817 6.6206C20.3811 6.61996 16.2039 10.797 14.7594 12.2414C14.4447 12.5561 14.0337 12.7563 13.5919 12.8102L12.1135 12.9928C11.8069 13.0307 11.5001 12.9236 11.2837 12.703C11.0674 12.4825 10.9661 12.1738 11.0097 11.8679L11.2284 10.3363C11.288 9.90961 11.485 9.51395 11.7895 9.20921C12.8005 8.19783 15.2709 5.72727 17.3818 3.61686Z" stroke="#161924" stroke-width="1.5" stroke-linecap="round" stroke-linejoin="round"/>
</svg>
