<svg width="24" height="24" viewBox="0 0 24 24" fill="none" xmlns="http://www.w3.org/2000/svg">
<path d="M12 2.99634C8.37967 2.99603 5.1111 5.16354 3.70264 8.49863" stroke="#161924" stroke-width="1.5" stroke-linecap="round" stroke-linejoin="round"/>
<path d="M21.0037 12.0001C21.0037 7.02745 16.9726 2.99634 12 2.99634" stroke="#161924" stroke-width="1.5" stroke-linecap="round" stroke-linejoin="round"/>
<path d="M12 21.0037C16.9726 21.0037 21.0037 16.9726 21.0037 12" stroke="#161924" stroke-width="1.5" stroke-linecap="round" stroke-linejoin="round"/>
<path d="M3.05493 13.0005C3.56384 17.5567 7.41543 21.0028 12 21.0038" stroke="#161924" stroke-width="1.5" stroke-linecap="round" stroke-linejoin="round"/>
<path d="M5.99747 8.49856H2.99622V5.49731" stroke="#161924" stroke-width="1.5" stroke-linecap="round" stroke-linejoin="round"/>
<path fill-rule="evenodd" clip-rule="evenodd" d="M11.1586 15.4285H8.57153V12.8415C8.57153 12.5762 8.67703 12.3217 8.86466 12.1342L12.8663 8.13251C13.257 7.74196 13.8902 7.74196 14.2809 8.13251L15.8676 9.71917C16.2581 10.1098 16.2581 10.7431 15.8676 11.1338L11.8659 15.1354C11.6783 15.3231 11.4239 15.4285 11.1586 15.4285Z" stroke="#161924" stroke-width="1.5" stroke-linecap="round" stroke-linejoin="round"/>
</svg>
