<svg width="24" height="24" viewBox="0 0 24 24" fill="none" xmlns="http://www.w3.org/2000/svg">
<path fill-rule="evenodd" clip-rule="evenodd" d="M13.6239 13.412C15.0179 13.412 15.9529 14.639 15.9529 15.782C15.9529 18.101 12.0709 20 11.9999 20C11.9289 20 8.04688 18.101 8.04688 15.781C8.04688 14.638 8.98187 13.411 10.3759 13.411C11.1729 13.411 11.6969 13.784 11.9999 14.115C12.3029 13.784 12.8259 13.412 13.6239 13.412V13.412Z" stroke="#161924" stroke-width="1.5" stroke-linecap="round" stroke-linejoin="round"/>
<path d="M12.0098 10.45C12.0378 10.45 12.0598 10.472 12.0598 10.5C12.0598 10.528 12.0378 10.55 12.0098 10.55C11.9818 10.55 11.9598 10.528 11.9598 10.5C11.9598 10.472 11.9818 10.45 12.0098 10.45" stroke="#161924" stroke-width="1.5" stroke-linecap="round" stroke-linejoin="round"/>
<path d="M15 9.95C15.028 9.95 15.05 9.972 15.05 10C15.05 10.028 15.028 10.05 15 10.05C14.972 10.05 14.95 10.028 14.95 10C14.95 9.972 14.972 9.95 15 9.95" stroke="#161924" stroke-width="1.5" stroke-linecap="round" stroke-linejoin="round"/>
<path d="M17.5 8.45C17.528 8.45 17.55 8.472 17.55 8.5C17.55 8.528 17.528 8.55 17.5 8.55C17.472 8.55 17.45 8.528 17.45 8.5C17.45 8.472 17.472 8.45 17.5 8.45" stroke="#161924" stroke-width="1.5" stroke-linecap="round" stroke-linejoin="round"/>
<path d="M19.5 6.45C19.528 6.45 19.55 6.472 19.55 6.5C19.55 6.528 19.528 6.55 19.5 6.55C19.472 6.55 19.45 6.528 19.45 6.5C19.45 6.472 19.472 6.45 19.5 6.45" stroke="#161924" stroke-width="1.5" stroke-linecap="round" stroke-linejoin="round"/>
<path d="M21 3.955C21.028 3.955 21.05 3.977 21.05 4.005C21.05 4.033 21.028 4.055 21 4.055C20.972 4.055 20.95 4.033 20.95 4.005C20.95 3.977 20.972 3.955 21 3.955" stroke="#161924" stroke-width="1.5" stroke-linecap="round" stroke-linejoin="round"/>
<path d="M9.01854 9.95C8.99054 9.95 8.96854 9.972 8.96854 10C8.96854 10.028 8.99054 10.05 9.01854 10.05C9.04654 10.05 9.06854 10.028 9.06854 10C9.06954 9.972 9.04654 9.95 9.01854 9.95" stroke="#161924" stroke-width="1.5" stroke-linecap="round" stroke-linejoin="round"/>
<path d="M6.51854 8.45C6.49054 8.45 6.46854 8.472 6.46854 8.5C6.46854 8.528 6.49054 8.55 6.51854 8.55C6.54654 8.55 6.56854 8.528 6.56854 8.5C6.56954 8.472 6.54654 8.45 6.51854 8.45" stroke="#161924" stroke-width="1.5" stroke-linecap="round" stroke-linejoin="round"/>
<path d="M4.51854 6.45C4.49054 6.45 4.46854 6.472 4.46854 6.5C4.46854 6.528 4.49054 6.55 4.51854 6.55C4.54654 6.55 4.56854 6.528 4.56854 6.5C4.56954 6.472 4.54654 6.45 4.51854 6.45" stroke="#161924" stroke-width="1.5" stroke-linecap="round" stroke-linejoin="round"/>
<path d="M3.01854 3.955C2.99054 3.955 2.96854 3.977 2.96854 4.005C2.96854 4.033 2.99054 4.055 3.01854 4.055C3.04654 4.055 3.06854 4.033 3.06854 4.005C3.06954 3.977 3.04654 3.955 3.01854 3.955" stroke="#161924" stroke-width="1.5" stroke-linecap="round" stroke-linejoin="round"/>
</svg>
