<svg width="24" height="24" viewBox="0 0 24 24" fill="none" xmlns="http://www.w3.org/2000/svg">
<path d="M2.99658 5.49731V8.49856H5.99783" stroke="#161924" stroke-width="1.5" stroke-linecap="round" stroke-linejoin="round"/>
<path d="M3.05518 13.0004C3.56417 17.4947 7.33228 20.9115 11.8548 20.9797C16.3774 21.0478 20.2467 17.746 20.8909 13.2691C21.535 8.79209 18.7535 4.5334 14.3952 3.32374C10.0369 2.11407 5.45835 4.32995 3.70292 8.49848" stroke="#161924" stroke-width="1.5" stroke-linecap="round" stroke-linejoin="round"/>
<path d="M9.99805 14.0008L13.9997 9.99915" stroke="#161924" stroke-width="1.5" stroke-linecap="round" stroke-linejoin="round"/>
<path d="M14.2512 14.1259C14.2512 14.195 14.1952 14.251 14.1262 14.251C14.0571 14.251 14.0011 14.195 14.0011 14.1259C14.0011 14.0569 14.0571 14.0009 14.1262 14.0009C14.1594 14.0008 14.1913 14.0139 14.2147 14.0374C14.2382 14.0609 14.2514 14.0927 14.2512 14.1259" stroke="#161924" stroke-width="1.5" stroke-linecap="round" stroke-linejoin="round"/>
<path d="M9.74918 9.87411C9.74918 9.80504 9.80517 9.74906 9.87423 9.74906C9.9433 9.74906 9.99928 9.80504 9.99928 9.87411C9.99928 9.94317 9.9433 9.99916 9.87423 9.99916C9.84103 9.99928 9.80915 9.98615 9.78567 9.96267C9.76219 9.93919 9.74906 9.90731 9.74918 9.87411" stroke="#161924" stroke-width="1.5" stroke-linecap="round" stroke-linejoin="round"/>
</svg>
