<svg width="24" height="24" viewBox="0 0 24 24" fill="none" xmlns="http://www.w3.org/2000/svg">
<path fill-rule="evenodd" clip-rule="evenodd" d="M11.467 18.934V18.934C7.343 18.934 4 15.591 4 11.467V11.467C4 7.343 7.343 4 11.467 4V4C15.591 4 18.934 7.343 18.934 11.467V11.467C18.934 15.591 15.591 18.934 11.467 18.934Z" stroke="#161924" stroke-width="1.5" stroke-linecap="round" stroke-linejoin="round"/>
<path d="M20 20L16.75 16.75" stroke="#161924" stroke-width="1.5" stroke-linecap="round" stroke-linejoin="round"/>
<path d="M9.36719 13.567L13.5672 9.367" stroke="#161924" stroke-width="1.5" stroke-linecap="round" stroke-linejoin="round"/>
<path d="M13.7574 13.42C13.8514 13.514 13.8514 13.666 13.7574 13.759C13.6634 13.853 13.5114 13.853 13.4184 13.759C13.3244 13.665 13.3244 13.513 13.4184 13.42C13.5114 13.326 13.6634 13.326 13.7574 13.42" stroke="#161924" stroke-width="1.5" stroke-linecap="round" stroke-linejoin="round"/>
<path d="M9.51697 9.17498C9.61097 9.26898 9.61097 9.42098 9.51697 9.51398C9.42297 9.60798 9.27097 9.60798 9.17797 9.51398C9.08497 9.41998 9.08397 9.26798 9.17797 9.17498C9.27197 9.08198 9.42397 9.08098 9.51697 9.17498" stroke="#161924" stroke-width="1.5" stroke-linecap="round" stroke-linejoin="round"/>
</svg>
