<svg width="24" height="24" viewBox="0 0 24 24" fill="none" xmlns="http://www.w3.org/2000/svg">
<path d="M5.25718 13.969L3.71318 15.513C2.32618 12.235 2.96218 8.30501 5.63418 5.63401C8.88018 2.38801 13.9852 2.14501 17.5162 4.89301" stroke="#161924" stroke-width="1.5" stroke-linecap="round" stroke-linejoin="round"/>
<path d="M6.48389 19.108C10.0169 21.855 15.1209 21.614 18.3659 18.367C21.0369 15.696 21.6739 11.766 20.2869 8.48801L18.7429 10.032" stroke="#161924" stroke-width="1.5" stroke-linecap="round" stroke-linejoin="round"/>
<path d="M9.89893 14.1L14.0989 9.89999" stroke="#161924" stroke-width="1.5" stroke-linecap="round" stroke-linejoin="round"/>
<path d="M14.2971 13.946C14.3951 14.044 14.3951 14.202 14.2971 14.299C14.1991 14.397 14.0411 14.397 13.9441 14.299C13.8461 14.201 13.8461 14.043 13.9441 13.946C14.0401 13.848 14.1991 13.848 14.2971 13.946" stroke="#161924" stroke-width="1.5" stroke-linecap="round" stroke-linejoin="round"/>
<path d="M10.0569 9.70001C10.1549 9.79801 10.1549 9.95701 10.0569 10.054C9.95888 10.152 9.79988 10.152 9.70288 10.054C9.60488 9.95601 9.60488 9.79701 9.70288 9.70001C9.80088 9.60301 9.95888 9.60301 10.0569 9.70001" stroke="#161924" stroke-width="1.5" stroke-linecap="round" stroke-linejoin="round"/>
</svg>
