<svg width="24" height="24" viewBox="0 0 24 24" fill="none" xmlns="http://www.w3.org/2000/svg">
<path d="M9.99902 14L13.999 10" stroke="#161924" stroke-width="1.5" stroke-linecap="round" stroke-linejoin="round"/>
<path d="M17 17L19 15" stroke="#161924" stroke-width="1.5" stroke-linecap="round" stroke-linejoin="round"/>
<path d="M19 20V15" stroke="#161924" stroke-width="1.5" stroke-linecap="round" stroke-linejoin="round"/>
<path d="M15 21H8C5.23858 21 3 18.7614 3 16V8C3 5.23858 5.23858 3 8 3H16C18.7614 3 21 5.23858 21 8V11" stroke="#161924" stroke-width="1.5" stroke-linecap="round" stroke-linejoin="round"/>
<path d="M21 17L19 15" stroke="#161924" stroke-width="1.5" stroke-linecap="round" stroke-linejoin="round"/>
<path d="M14.25 14.125C14.2498 14.1937 14.194 14.2492 14.1253 14.2491C14.0566 14.2489 14.0009 14.1932 14.0009 14.1245C14.0009 14.0558 14.0566 14.0001 14.1253 14C14.194 13.9998 14.2498 14.0554 14.25 14.1241V14.125" stroke="#161924" stroke-width="1.5" stroke-linecap="round" stroke-linejoin="round"/>
<path d="M9.74997 9.87503C9.75023 9.80634 9.80605 9.75082 9.87474 9.75095C9.94343 9.75108 9.99905 9.8068 9.99905 9.87549C9.99905 9.94418 9.94343 9.9999 9.87474 10C9.80605 10.0002 9.75023 9.94464 9.74997 9.87595V9.87503" stroke="#161924" stroke-width="1.5" stroke-linecap="round" stroke-linejoin="round"/>
</svg>
