<svg width="24" height="24" viewBox="0 0 24 24" fill="none" xmlns="http://www.w3.org/2000/svg">
<path d="M19.2808 5.77873L5.78084 19.2787C5.64011 19.4195 5.44924 19.4985 5.25022 19.4985C5.0512 19.4985 4.86033 19.4195 4.71959 19.2787C4.57886 19.138 4.4998 18.9471 4.4998 18.7481C4.4998 18.5491 4.57886 18.3582 4.71959 18.2175L18.2196 4.71748C18.3602 4.57675 18.551 4.49764 18.7499 4.49755C18.9488 4.49746 19.1396 4.5764 19.2804 4.71701C19.4211 4.85762 19.5002 5.04837 19.5003 5.2473C19.5004 5.44624 19.4215 5.63706 19.2808 5.77779V5.77873ZM4.73834 9.50998C4.10543 8.87694 3.74991 8.0184 3.75 7.12324C3.75009 6.22808 4.10577 5.36961 4.73881 4.7367C5.37185 4.10378 6.23039 3.74826 7.12555 3.74835C8.02071 3.74844 8.87918 4.10413 9.51209 4.73717C10.145 5.3702 10.5005 6.22874 10.5004 7.1239C10.5004 8.01907 10.1447 8.87753 9.51163 9.51045C8.87859 10.1434 8.02005 10.4989 7.12489 10.4988C6.22972 10.4987 5.37126 10.143 4.73834 9.50998ZM5.25022 7.12498C5.25046 7.43327 5.32672 7.73675 5.47224 8.00854C5.61776 8.28033 5.82806 8.51204 6.0845 8.68316C6.34095 8.85428 6.63563 8.95952 6.94246 8.98957C7.24929 9.01962 7.55879 8.97355 7.84356 8.85544C8.12833 8.73733 8.37959 8.55082 8.57508 8.31243C8.77056 8.07403 8.90425 7.79112 8.9643 7.48873C9.02436 7.18634 9.00892 6.87381 8.91936 6.57881C8.8298 6.28381 8.66887 6.01544 8.45084 5.79748C8.18851 5.53522 7.85428 5.35667 7.49044 5.28442C7.12661 5.21216 6.74951 5.24945 6.40688 5.39156C6.06424 5.53368 5.77145 5.77423 5.56556 6.08279C5.35967 6.39134 5.24993 6.75404 5.25022 7.12498ZM20.2502 16.875C20.25 17.6558 19.9791 18.4124 19.4837 19.0159C18.9882 19.6193 18.2988 20.0323 17.5329 20.1845C16.7671 20.3367 15.9722 20.2186 15.2836 19.8504C14.5951 19.4821 14.0555 18.8866 13.7569 18.1651C13.4582 17.4437 13.4189 16.641 13.6457 15.8939C13.8725 15.1467 14.3514 14.5013 15.0007 14.0677C15.65 13.634 16.4296 13.4388 17.2066 13.5155C17.9836 13.5922 18.7101 13.9359 19.2621 14.4881C19.5765 14.8008 19.8257 15.1728 19.9953 15.5825C20.1649 15.9923 20.2516 16.4315 20.2502 16.875ZM18.7502 16.875C18.7503 16.4412 18.6 16.0208 18.3249 15.6854C18.0497 15.35 17.6668 15.1204 17.2414 15.0357C16.8159 14.951 16.3743 15.0164 15.9917 15.2208C15.6091 15.4252 15.3092 15.756 15.1431 16.1567C14.977 16.5575 14.955 17.0034 15.0809 17.4185C15.2067 17.8337 15.4726 18.1923 15.8333 18.4334C16.1939 18.6745 16.627 18.783 17.0587 18.7406C17.4904 18.6981 17.8941 18.5073 18.2008 18.2006C18.3755 18.0269 18.514 17.8204 18.6083 17.5928C18.7026 17.3653 18.7508 17.1213 18.7502 16.875Z" fill="#161924"/>
</svg>
