<svg width="24" height="24" viewBox="0 0 24 24" fill="none" xmlns="http://www.w3.org/2000/svg">
<path d="M6.98969 7.98999L4.92969 5.92999" stroke="#161924" stroke-width="1.5" stroke-linecap="round" stroke-linejoin="round"/>
<path d="M12 5.92V3" stroke="#161924" stroke-width="1.5" stroke-linecap="round" stroke-linejoin="round"/>
<path d="M17.0098 7.98999L19.0698 5.92999" stroke="#161924" stroke-width="1.5" stroke-linecap="round" stroke-linejoin="round"/>
<path fill-rule="evenodd" clip-rule="evenodd" d="M18.434 20H20C21.105 20 22 19.105 22 18V16.986C22 15.957 21.472 15 20.598 14.403C18.441 12.932 15.401 12 12 12C8.599 12 5.559 12.932 3.402 14.404C2.528 15.001 2 15.958 2 16.986V18C2 19.105 2.895 20 4 20H5.566C6.394 20 7.066 19.328 7.066 18.5V17.137C7.066 16.83 7.247 16.546 7.533 16.435C8.859 15.921 10.379 15.625 12 15.625C13.621 15.625 15.141 15.921 16.467 16.435C16.753 16.546 16.934 16.83 16.934 17.137V18.5C16.934 19.328 17.606 20 18.434 20V20Z" stroke="#161924" stroke-width="1.5" stroke-linecap="round" stroke-linejoin="round"/>
</svg>
