<svg width="24" height="24" viewBox="0 0 24 24" fill="none" xmlns="http://www.w3.org/2000/svg">
<path d="M19 4.72L4 19.73" stroke="#161924" stroke-width="1.5" stroke-linecap="round" stroke-linejoin="round"/>
<path d="M10.3613 17.364C12.3403 18.875 14.4633 19.841 16.4443 20.216C17.5043 20.416 18.5733 20.107 19.3143 19.366L19.9653 18.715C20.7463 17.934 20.7463 16.668 19.9653 15.886L18.7923 14.713C18.2063 14.127 17.2563 14.127 16.6713 14.713L15.7683 15.617C15.5513 15.834 15.2223 15.907 14.9413 15.783C14.2913 15.496 13.6453 15.136 13.0183 14.709" stroke="#161924" stroke-width="1.5" stroke-linecap="round" stroke-linejoin="round"/>
<path d="M10.8675 12.856C9.83354 11.76 9.03154 10.557 8.49254 9.33499C8.36954 9.05499 8.44154 8.72599 8.65854 8.50899L9.47754 7.68999C10.1485 7.01899 10.1485 6.06999 9.56254 5.48399L8.38954 4.30999C7.60854 3.52899 6.34254 3.52899 5.56154 4.30999L4.90954 4.96199C4.16854 5.70299 3.85954 6.77199 4.05954 7.83199C4.53454 10.346 5.96654 13.085 8.25454 15.471" stroke="#161924" stroke-width="1.5" stroke-linecap="round" stroke-linejoin="round"/>
</svg>
