<svg width="24" height="24" viewBox="0 0 24 24" fill="none" xmlns="http://www.w3.org/2000/svg">
<path fill-rule="evenodd" clip-rule="evenodd" d="M10.1102 10.9996H13.8898C14.9948 10.9996 15.8906 11.8954 15.8906 13.0005V20.0034C15.8906 21.1084 14.9948 22.0042 13.8898 22.0042H10.1102C9.00518 22.0042 8.10938 21.1084 8.10938 20.0034V13.0005C8.10938 11.8954 9.00518 10.9996 10.1102 10.9996Z" stroke="#161924" stroke-width="1.5" stroke-linecap="round" stroke-linejoin="round"/>
<path d="M11.25 19.7533H12.7506" stroke="#161924" stroke-width="1.5" stroke-linecap="round" stroke-linejoin="round"/>
<path d="M8.99902 6.24062C9.79492 5.44448 10.8745 4.99719 12.0003 4.99719C13.126 4.99719 14.2056 5.44448 15.0015 6.24062" stroke="#161924" stroke-width="1.5" stroke-linecap="round" stroke-linejoin="round"/>
<path d="M10.4995 8.2414C11.3284 7.413 12.6718 7.413 13.5008 8.2414" stroke="#161924" stroke-width="1.5" stroke-linecap="round" stroke-linejoin="round"/>
<path d="M8.10937 13.5006H6.9979C5.89287 13.5006 4.99707 12.6048 4.99707 11.4998V3.49644C4.99707 2.39141 5.89287 1.49561 6.9979 1.49561H17.0021C18.1071 1.49561 19.0029 2.39141 19.0029 3.49644V11.4998C19.0029 12.6048 18.1071 13.5006 17.0021 13.5006H15.8906" stroke="#161924" stroke-width="1.5" stroke-linecap="round" stroke-linejoin="round"/>
</svg>
