<svg width="24" height="24" viewBox="0 0 24 24" fill="none" xmlns="http://www.w3.org/2000/svg">
<path d="M16.3274 13.363C15.4724 13.363 14.6634 13.174 13.9364 12.837L10.4414 13.579L11.1724 10.077C10.8334 9.348 10.6434 8.535 10.6434 7.678C10.6434 4.543 13.1854 2 16.3224 2C19.4594 2 22.0004 4.543 22.0004 7.678C22.0004 10.813 19.4574 13.356 16.3224 13.356" stroke="#161924" stroke-width="1.5" stroke-linecap="round" stroke-linejoin="round"/>
<path fill-rule="evenodd" clip-rule="evenodd" d="M15.2001 18.371L14.2301 17.401C13.7451 16.916 12.9601 16.916 12.4761 17.401L11.7141 18.163C11.5441 18.333 11.2861 18.39 11.0661 18.294C9.9611 17.81 8.8701 17.077 7.8971 16.104C6.9281 15.135 6.1971 14.049 5.7131 12.948C5.6121 12.721 5.6711 12.454 5.8471 12.277L6.5301 11.594C7.0851 11.039 7.0851 10.255 6.6001 9.76999L5.6291 8.79999C4.9831 8.15399 3.9371 8.15399 3.2911 8.79999L2.7521 9.33899C2.1391 9.95199 1.8841 10.836 2.0491 11.712C2.4571 13.872 3.7131 16.238 5.7371 18.263C7.7611 20.288 10.1271 21.543 12.2881 21.951C13.1641 22.116 14.0481 21.861 14.6611 21.248L15.2001 20.71C15.8451 20.064 15.8451 19.017 15.2001 18.371Z" stroke="#161924" stroke-width="1.5" stroke-linecap="round" stroke-linejoin="round"/>
<path d="M13.6721 7.75465C13.6916 7.77418 13.6916 7.80584 13.6721 7.82536C13.6525 7.84489 13.6209 7.84489 13.6014 7.82536C13.5818 7.80584 13.5818 7.77418 13.6014 7.75465C13.6209 7.73513 13.6525 7.73513 13.6721 7.75465" stroke="#161924" stroke-width="1.5" stroke-linecap="round" stroke-linejoin="round"/>
<path d="M16.2785 7.75465C16.298 7.77418 16.298 7.80584 16.2785 7.82536C16.259 7.84489 16.2273 7.84489 16.2078 7.82536C16.1883 7.80584 16.1883 7.77418 16.2078 7.75465C16.2273 7.73513 16.259 7.73513 16.2785 7.75465" stroke="#161924" stroke-width="1.5" stroke-linecap="round" stroke-linejoin="round"/>
<path d="M18.883 7.75465C18.9025 7.77418 18.9025 7.80584 18.883 7.82536C18.8635 7.84489 18.8318 7.84489 18.8123 7.82536C18.7928 7.80584 18.7928 7.77418 18.8123 7.75465C18.8318 7.73513 18.8635 7.73513 18.883 7.75465" stroke="#161924" stroke-width="1.5" stroke-linecap="round" stroke-linejoin="round"/>
</svg>
