<svg width="24" height="24" viewBox="0 0 24 24" fill="none" xmlns="http://www.w3.org/2000/svg">
<path fill-rule="evenodd" clip-rule="evenodd" d="M10.0476 13.869C8.87755 12.699 7.99555 11.389 7.40955 10.06C7.28555 9.779 7.35855 9.45 7.57555 9.233L8.39455 8.414C9.06555 7.743 9.06555 6.794 8.47955 6.208L7.30555 5.035C6.52455 4.254 5.25855 4.254 4.47755 5.035L3.82555 5.686C3.08455 6.427 2.77555 7.496 2.97555 8.556C3.46955 11.169 4.98755 14.03 7.43655 16.479C9.88555 18.928 12.7466 20.446 15.3596 20.94C16.4196 21.14 17.4886 20.831 18.2296 20.09L18.8806 19.439C19.6616 18.658 19.6616 17.392 18.8806 16.611L17.7076 15.438C17.1216 14.852 16.1716 14.852 15.5866 15.438L14.6836 16.342C14.4666 16.559 14.1376 16.632 13.8566 16.508C12.5276 15.921 11.2176 15.038 10.0476 13.869Z" stroke="#161924" stroke-width="1.5" stroke-linecap="round" stroke-linejoin="round"/>
<path d="M12.9199 5.16999V2.82999" stroke="#161924" stroke-width="1.5" stroke-linecap="round" stroke-linejoin="round"/>
<path d="M17.0898 6.81999L18.7398 5.17999" stroke="#161924" stroke-width="1.5" stroke-linecap="round" stroke-linejoin="round"/>
<path d="M18.75 11H21.08" stroke="#161924" stroke-width="1.5" stroke-linecap="round" stroke-linejoin="round"/>
</svg>
