<svg width="24" height="24" viewBox="0 0 24 24" fill="none" xmlns="http://www.w3.org/2000/svg">
<path fill-rule="evenodd" clip-rule="evenodd" d="M2.99622 16.0018V7.99842C2.99622 5.23585 5.23572 2.99634 7.9983 2.99634H16.0016C18.7642 2.99634 21.0037 5.23585 21.0037 7.99842V16.0018C21.0037 18.7643 18.7642 21.0038 16.0016 21.0038H7.9983C5.23572 21.0038 2.99622 18.7643 2.99622 16.0018Z" stroke="#161924" stroke-width="1.5" stroke-linecap="round" stroke-linejoin="round"/>
<path d="M15.8557 8.85289C15.6602 9.04787 15.3437 9.0476 15.1486 8.8523C14.9534 8.65699 14.9534 8.3405 15.1486 8.14519C15.3437 7.94988 15.6602 7.94962 15.8557 8.1446C15.9497 8.23844 16.0026 8.36586 16.0026 8.49874C16.0026 8.63163 15.9497 8.75905 15.8557 8.85289" stroke="#161924" stroke-width="1.5" stroke-linecap="round" stroke-linejoin="round"/>
<path d="M13.8908 21.0039C13.96 20.5482 13.9968 20.0882 14.0008 19.6273C14.0008 14.3099 9.69019 9.99927 4.37279 9.99927C3.91187 10.0025 3.45179 10.0392 2.99622 10.1093" stroke="#161924" stroke-width="1.5" stroke-linecap="round" stroke-linejoin="round"/>
</svg>
