<svg width="24" height="24" viewBox="0 0 24 24" fill="none" xmlns="http://www.w3.org/2000/svg">
<path d="M20.64 15.3734L16.5187 11.2522C16.1434 10.8768 15.5357 10.8768 15.1613 11.2522L11.04 15.3734" stroke="#161924" stroke-width="1.5" stroke-linecap="round" stroke-linejoin="round"/>
<path fill-rule="evenodd" clip-rule="evenodd" d="M17.76 20.1734H6.24C4.64928 20.1734 3.36 18.8842 3.36 17.2934V5.77343C3.36 4.18271 4.64928 2.89343 6.24 2.89343H17.76C19.3507 2.89343 20.64 4.18271 20.64 5.77343V17.2934C20.64 18.8842 19.3507 20.1734 17.76 20.1734Z" stroke="#161924" stroke-width="1.5" stroke-linecap="round" stroke-linejoin="round"/>
<path d="M15.84 20.1734L9.79872 14.1322C9.42336 13.7568 8.81568 13.7568 8.44128 14.1322L3.78816 18.7853" stroke="#161924" stroke-width="1.5" stroke-linecap="round" stroke-linejoin="round"/>
<path d="M9.37456 8.39884C9.51515 8.53943 9.51515 8.76737 9.37456 8.90796C9.23397 9.04855 9.00603 9.04855 8.86544 8.90796C8.72485 8.76737 8.72485 8.53943 8.86544 8.39884C9.00603 8.25825 9.23397 8.25825 9.37456 8.39884" stroke="#161924" stroke-width="1.5" stroke-linecap="round" stroke-linejoin="round"/>
</svg>
