<svg width="24" height="24" viewBox="0 0 24 24" fill="none" xmlns="http://www.w3.org/2000/svg">
<path d="M21.0037 13.0005V17.0022C21.0037 19.2122 19.2121 21.0038 17.0021 21.0038H6.99791C4.78785 21.0038 2.99625 19.2122 2.99625 17.0022V6.998C2.99625 4.78795 4.78785 2.99634 6.99791 2.99634H10.9996" stroke="#161924" stroke-width="1.5" stroke-linecap="round" stroke-linejoin="round"/>
<path d="M2.99625 13.0019L4.29195 11.7062C4.74428 11.2539 5.35779 10.9998 5.9975 10.9998C6.6372 10.9998 7.2507 11.2539 7.70304 11.7062V11.7062L12 16.0032" stroke="#161924" stroke-width="1.5" stroke-linecap="round" stroke-linejoin="round"/>
<path d="M7.00224 21.0039L13.2987 14.7074C14.2407 13.7655 15.7678 13.7655 16.7098 14.7074L20.6506 18.6482" stroke="#161924" stroke-width="1.5" stroke-linecap="round" stroke-linejoin="round"/>
<path d="M22.0042 5.99752C22.0042 8.20758 20.2125 9.99918 18.0025 9.99918C15.7924 9.99918 14.0008 8.20758 14.0008 5.99752C14.0008 3.78746 15.7924 1.99585 18.0025 1.99585C20.2125 1.99585 22.0042 3.78746 22.0042 5.99752V5.99752V5.99752" stroke="#161924" stroke-width="1.5" stroke-linecap="round" stroke-linejoin="round"/>
<path d="M16.9587 4.87203H18.9571" stroke="#161924" stroke-width="1.5" stroke-linecap="round" stroke-linejoin="round"/>
<path d="M16.9563 7.12301H18.9547" stroke="#161924" stroke-width="1.5" stroke-linecap="round" stroke-linejoin="round"/>
</svg>
