<svg width="24" height="24" viewBox="0 0 24 24" fill="none" xmlns="http://www.w3.org/2000/svg">
<path fill-rule="evenodd" clip-rule="evenodd" d="M21.0037 17.0022C21.0037 19.2122 19.2121 21.0038 17.002 21.0038H6.99788C4.78782 21.0038 2.99622 19.2122 2.99622 17.0022V6.998C2.99622 4.78795 4.78782 2.99634 6.99788 2.99634H17.002C19.2121 2.99634 21.0037 4.78795 21.0037 6.998V17.0022Z" stroke="#161924" stroke-width="1.5" stroke-linecap="round" stroke-linejoin="round"/>
<path d="M2.99622 13.0005L4.29192 11.7048C4.74425 11.2524 5.35776 10.9983 5.99747 10.9983C6.63716 10.9983 7.25067 11.2524 7.70301 11.7048L12 16.0017" stroke="#161924" stroke-width="1.5" stroke-linecap="round" stroke-linejoin="round"/>
<path d="M7.00092 21.0038L13.2987 14.706C14.2407 13.764 15.7678 13.764 16.7098 14.706L20.6506 18.6468" stroke="#161924" stroke-width="1.5" stroke-linecap="round" stroke-linejoin="round"/>
</svg>
