<svg width="24" height="24" viewBox="0 0 24 24" fill="none" xmlns="http://www.w3.org/2000/svg">
<path d="M13.85 10.15C14.872 11.172 14.872 12.829 13.85 13.85C12.828 14.871 11.171 14.872 10.15 13.85C9.12904 12.828 9.12804 11.171 10.15 10.15C11.172 9.12904 12.828 9.12804 13.85 10.15" stroke="#161924" stroke-width="1.5" stroke-linecap="round" stroke-linejoin="round"/>
<path d="M12 14.616V21" stroke="#161924" stroke-width="1.5" stroke-linecap="round" stroke-linejoin="round"/>
<path d="M8.00001 20.05C7.14801 19.63 6.34601 19.074 5.63601 18.364C2.12101 14.849 2.12101 9.15101 5.63601 5.63601C9.15101 2.12101 14.849 2.12101 18.364 5.63601C21.879 9.15101 21.879 14.849 18.364 18.364C17.654 19.074 16.852 19.63 16 20.05" stroke="#161924" stroke-width="1.5" stroke-linecap="round" stroke-linejoin="round"/>
</svg>
