<svg width="24" height="24" viewBox="0 0 24 24" fill="none" xmlns="http://www.w3.org/2000/svg">
<path d="M13.061 9.67001C13.647 10.256 13.647 11.206 13.061 11.791C12.475 12.377 11.525 12.377 10.94 11.791C10.354 11.205 10.354 10.255 10.94 9.67001C11.525 9.08501 12.475 9.08501 13.061 9.67001" stroke="#161924" stroke-width="1.5" stroke-linecap="round" stroke-linejoin="round"/>
<path d="M16.702 10.612V10.612C16.702 11.889 16.135 13.1 15.154 13.917L13.613 15.202C12.998 15.714 12.539 16.387 12.286 17.146L12 18L11.715 17.146C11.462 16.387 11.002 15.713 10.388 15.202L8.84597 13.917C7.86497 13.1 7.29797 11.889 7.29797 10.612V10.612V10.636C7.29797 7.702 9.72797 6 12 6C14.272 6 16.702 7.702 16.702 10.636" stroke="#161924" stroke-width="1.5" stroke-linecap="round" stroke-linejoin="round"/>
<circle cx="12" cy="12" r="9.5" stroke="#161924" stroke-width="1.5" stroke-linecap="round" stroke-linejoin="round"/>
</svg>
