<svg width="24" height="24" viewBox="0 0 24 24" fill="none" xmlns="http://www.w3.org/2000/svg">
<path d="M20.0034 19.0031L5.49731 4.49707" stroke="#161924" stroke-width="1.5" stroke-linecap="round" stroke-linejoin="round"/>
<path d="M8.49858 15.5015L3.9967 20.0033" stroke="#161924" stroke-width="1.5" stroke-linecap="round" stroke-linejoin="round"/>
<path d="M9.46003 8.45972L4.97816 9.58018C4.62848 9.66759 4.35286 9.93635 4.25665 10.2837C4.16045 10.6311 4.25854 11.0033 4.51343 11.2582L12.742 19.4868C12.9969 19.7416 13.3691 19.8397 13.7164 19.7435C14.0638 19.6473 14.3325 19.3717 14.42 19.022L15.5404 14.5401" stroke="#161924" stroke-width="1.5" stroke-linecap="round" stroke-linejoin="round"/>
<path d="M17.4636 12.4616L19.1123 11.3625C19.6111 11.03 19.9345 10.4914 19.9936 9.89484C20.0526 9.29833 19.8411 8.70675 19.4173 8.28289L15.7171 4.58287C15.2933 4.159 14.7017 3.94751 14.1052 4.00657C13.5087 4.06564 12.97 4.38904 12.6375 4.8878L11.5385 6.53644" stroke="#161924" stroke-width="1.5" stroke-linecap="round" stroke-linejoin="round"/>
</svg>
