<svg width="24" height="24" viewBox="0 0 24 24" fill="none" xmlns="http://www.w3.org/2000/svg">
<path fill-rule="evenodd" clip-rule="evenodd" d="M11.7915 9.86753L13.1285 8.53061C13.2707 8.38837 13.3406 8.18919 13.3184 7.98927L13.2236 7.13667C13.2081 6.99694 13.2825 6.86264 13.4092 6.80174C13.536 6.74083 13.6873 6.76659 13.7867 6.86598L17.1341 10.2134C17.2336 10.3128 17.2593 10.4642 17.1984 10.5909C17.1375 10.7176 17.0032 10.7921 16.8635 10.7765L16.0109 10.6818C15.8109 10.6596 15.6118 10.7295 15.4695 10.8717L14.1326 12.2086C14.0084 12.3328 13.9387 12.5012 13.9386 12.6768V15.0179C13.9386 15.2857 13.7773 15.5271 13.5299 15.6296C13.2825 15.7321 12.9976 15.6754 12.8083 15.4861L8.51403 11.1918C8.32466 11.0025 8.268 10.7177 8.37049 10.4702C8.47297 10.2228 8.71441 10.0615 8.98222 10.0615H11.3233C11.4989 10.0615 11.6673 9.99172 11.7915 9.86753Z" stroke="#161924" stroke-width="1.5" stroke-linecap="round" stroke-linejoin="round"/>
<path d="M8.22839 15.7717L10.6612 13.3389" stroke="#161924" stroke-width="1.5" stroke-linecap="round" stroke-linejoin="round"/>
<rect x="2.99622" y="2.99634" width="18.0075" height="18.0075" rx="5" stroke="#161924" stroke-width="1.5" stroke-linecap="round" stroke-linejoin="round"/>
</svg>
