<svg width="24" height="24" viewBox="0 0 24 24" fill="none" xmlns="http://www.w3.org/2000/svg">
<rect x="7.49805" y="7.49811" width="9.00375" height="7.00292" rx="2" stroke="#161924" stroke-width="1.5" stroke-linecap="round" stroke-linejoin="round"/>
<path d="M9.99902 9.99915L11.5055 10.8671C11.8114 11.0437 12.1883 11.0437 12.4942 10.8671L14.0007 9.99915" stroke="#161924" stroke-width="1.5" stroke-linecap="round" stroke-linejoin="round"/>
<path fill-rule="evenodd" clip-rule="evenodd" d="M17.9733 4.97868V4.97868C21.2725 8.2934 21.2725 13.6511 17.9733 16.9658V16.9658L14.4761 20.4748C13.8224 21.1316 12.9346 21.5018 12.008 21.504C11.0813 21.5062 10.1918 21.1402 9.53501 20.4865L9.52333 20.4748L6.0261 16.9659C2.727 13.6511 2.72698 8.29346 6.02604 4.97868V4.97868C7.60287 3.39437 9.74449 2.50136 11.9798 2.49606C14.215 2.4908 16.3608 3.3737 17.9451 4.95054L17.9733 4.97868H17.9733Z" stroke="#161924" stroke-width="1.5" stroke-linecap="round" stroke-linejoin="round"/>
</svg>
