<svg width="24" height="24" viewBox="0 0 24 24" fill="none" xmlns="http://www.w3.org/2000/svg">
<path d="M5.99747 13.1536C4.1597 13.9779 2.99622 15.1704 2.99622 16.502C2.99622 18.988 7.02689 21.0038 12 21.0038C16.973 21.0038 21.0037 18.988 21.0037 16.502C21.0037 15.1704 19.8402 13.9779 18.0025 13.1536" stroke="#161924" stroke-width="1.5" stroke-linecap="round" stroke-linejoin="round"/>
<path d="M15.6535 17.0022C14.5694 17.7076 13.2922 18.0573 12 18.0026C10.7077 18.0573 9.43055 17.7076 8.34644 17.0022" stroke="#161924" stroke-width="1.5" stroke-linecap="round" stroke-linejoin="round"/>
<path d="M14.2009 3.90979C15.0927 4.8016 15.3595 6.14285 14.8769 7.30809C14.3943 8.47334 13.2572 9.23311 11.996 9.23311C10.7347 9.23311 9.59765 8.47334 9.11501 7.30809C8.63236 6.14285 8.89918 4.8016 9.79104 3.90979C10.3757 3.32478 11.1689 2.99609 11.996 2.99609C12.823 2.99609 13.6162 3.32478 14.2009 3.90979" stroke="#161924" stroke-width="1.5" stroke-linecap="round" stroke-linejoin="round"/>
<path d="M12 9.23096V15.0014" stroke="#161924" stroke-width="1.5" stroke-linecap="round" stroke-linejoin="round"/>
</svg>
