<svg width="24" height="24" viewBox="0 0 24 24" fill="none" xmlns="http://www.w3.org/2000/svg">
<path d="M15.0303 7.49829C15.3065 7.49829 15.5305 7.72224 15.5305 7.9985V8.62276C15.5313 8.79186 15.4466 8.94993 15.3054 9.04293L13.6517 10.1434V11.9201L15.3054 13.0206C15.4458 13.1143 15.5302 13.2719 15.5305 13.4408V14.065C15.5305 14.3413 15.3065 14.5652 15.0303 14.5652H8.96973C8.69348 14.5652 8.46952 14.3413 8.46952 14.065V13.4408C8.46871 13.2717 8.55339 13.1136 8.69462 13.0206L10.3483 11.9201V10.1484L8.69462 9.04794C8.55421 8.95418 8.46979 8.79659 8.46952 8.62776V7.9985C8.46952 7.72224 8.69348 7.49829 8.96973 7.49829H15.0303" stroke="#161924" stroke-width="1.5" stroke-linecap="round" stroke-linejoin="round"/>
<path d="M12 17.5025V14.5723" stroke="#161924" stroke-width="1.5" stroke-linecap="round" stroke-linejoin="round"/>
<rect x="2.99625" y="2.99634" width="18.0075" height="18.0075" rx="5" stroke="#161924" stroke-width="1.5" stroke-linecap="round" stroke-linejoin="round"/>
</svg>
