<svg width="24" height="24" viewBox="0 0 24 24" fill="none" xmlns="http://www.w3.org/2000/svg">
<path fill-rule="evenodd" clip-rule="evenodd" d="M17.4965 5.2732V5.2732C20.5318 8.30879 20.5318 13.2302 17.4965 16.2658V16.2658L13.2948 20.4675C12.5795 21.1826 11.42 21.1826 10.7047 20.4675L6.50292 16.2658C5.0448 14.8083 4.22559 12.8311 4.22559 10.7695C4.22559 8.70784 5.0448 6.73069 6.50292 5.2732V5.2732C7.96045 3.81477 9.93782 2.99536 11.9997 2.99536C14.0616 2.99536 16.039 3.81477 17.4965 5.2732Z" stroke="#161924" stroke-width="1.5" stroke-linecap="round" stroke-linejoin="round"/>
<path fill-rule="evenodd" clip-rule="evenodd" d="M14.1311 14.0008H9.86829C9.55256 14.0006 9.276 13.7892 9.19301 13.4846L8.52473 11.0335C8.42329 10.6606 8.64312 10.276 9.01593 10.1742C9.07549 10.1573 9.13712 10.1489 9.19901 10.1492H14.8013C15.1881 10.1492 15.5016 10.4627 15.5016 10.8495C15.5016 10.9116 15.4936 10.9735 15.4776 11.0335L14.8093 13.4846C14.7261 13.7903 14.4479 14.002 14.1311 14.0008V14.0008Z" stroke="#161924" stroke-width="1.5" stroke-linecap="round" stroke-linejoin="round"/>
<path d="M9.12793 10.1662L11.1078 7.45008C11.4667 6.95984 12.155 6.85326 12.6454 7.21198C12.7363 7.27889 12.8166 7.35917 12.8835 7.45008L14.8713 10.1682" stroke="#161924" stroke-width="1.5" stroke-linecap="round" stroke-linejoin="round"/>
</svg>
