<svg width="24" height="24" viewBox="0 0 24 24" fill="none" xmlns="http://www.w3.org/2000/svg">
<path d="M4.99707 20.0035L9.32336 15.6772" stroke="#161924" stroke-width="1.5" stroke-linecap="round" stroke-linejoin="round"/>
<path fill-rule="evenodd" clip-rule="evenodd" d="M11.33 9.5052L13.7068 7.12842C13.9626 6.8773 14.09 6.5232 14.0527 6.16664L13.8798 4.65131C13.8516 4.40254 13.9839 4.16316 14.2096 4.05479C14.4353 3.94642 14.7049 3.99282 14.8814 4.17042L20.8302 10.1193C21.0078 10.2958 21.0542 10.5653 20.9459 10.791C20.8375 11.0167 20.5981 11.1491 20.3493 11.1209L18.834 10.9479C18.4775 10.9106 18.1234 11.038 17.8722 11.2938L15.4954 13.6706C15.2736 13.8906 15.149 14.1902 15.1495 14.5027V18.6646C15.1487 19.1405 14.8617 19.5692 14.422 19.7512C13.9823 19.9332 13.4763 19.8328 13.1394 19.4967L5.50916 11.8595C5.17305 11.5226 5.07263 11.0166 5.25464 10.5769C5.43665 10.1372 5.86533 9.85021 6.34121 9.84944H10.5032C10.8135 9.84897 11.111 9.72513 11.33 9.5052Z" stroke="#161924" stroke-width="1.5" stroke-linecap="round" stroke-linejoin="round"/>
</svg>
