<svg width="24" height="24" viewBox="0 0 24 24" fill="none" xmlns="http://www.w3.org/2000/svg">
<circle cx="12" cy="12.0001" r="9.00375" stroke="#161924" stroke-width="1.5" stroke-linecap="round" stroke-linejoin="round"/>
<path d="M15.0013 7.49829C15.2774 7.49829 15.5015 7.72138 15.5015 7.9975V8.61576C15.5015 8.78383 15.4184 8.93889 15.2784 9.03193L13.6407 10.1234V11.8791L15.2784 12.9706C15.4174 13.0626 15.5015 13.2197 15.5015 13.3867V14.005C15.5015 14.2811 15.2784 14.5042 15.0023 14.5042H8.99775C8.72164 14.5042 8.49854 14.2811 8.49854 14.005V13.3867C8.49854 13.2187 8.58158 13.0636 8.72164 12.9706L10.3593 11.8791V10.1234L8.72164 9.03293C8.58258 8.93989 8.49854 8.78283 8.49854 8.61576V7.9985C8.49854 7.72138 8.72164 7.49829 8.99875 7.49829H15.0013" stroke="#161924" stroke-width="1.5" stroke-linecap="round" stroke-linejoin="round"/>
<path d="M12 17.5023V14.5071" stroke="#161924" stroke-width="1.5" stroke-linecap="round" stroke-linejoin="round"/>
</svg>
