<svg width="24" height="24" viewBox="0 0 24 24" fill="none" xmlns="http://www.w3.org/2000/svg">
<path d="M5.28998 18.96L9.52998 14.72" stroke="#161924" stroke-width="1.5" stroke-linecap="round" stroke-linejoin="round"/>
<path fill-rule="evenodd" clip-rule="evenodd" d="M17.487 9.41397L19.559 9.52397C19.842 9.53897 20.119 9.43297 20.319 9.23297L20.756 8.79597C21.147 8.40497 21.147 7.77197 20.756 7.38197L16.869 3.49497C16.478 3.10397 15.845 3.10397 15.455 3.49497L15.129 3.81997C14.941 4.00797 14.836 4.26197 14.836 4.52697V6.76297L12.185 9.41397H8.62399C8.35899 9.41397 8.10399 9.51897 7.91699 9.70697L6.92899 10.695C6.53799 11.086 6.53799 11.719 6.92899 12.109L9.53499 14.715L12.141 17.321C12.532 17.712 13.165 17.712 13.555 17.321L14.543 16.333C14.731 16.145 14.836 15.891 14.836 15.626V12.064L17.487 9.41397Z" stroke="#161924" stroke-width="1.5" stroke-linecap="round" stroke-linejoin="round"/>
<path d="M17.49 9.41001L14.84 6.76001" stroke="#161924" stroke-width="1.5" stroke-linecap="round" stroke-linejoin="round"/>
<path d="M7.53998 21.21L3.03998 16.71" stroke="#161924" stroke-width="1.5" stroke-linecap="round" stroke-linejoin="round"/>
</svg>
