<svg width="24" height="24" viewBox="0 0 24 24" fill="none" xmlns="http://www.w3.org/2000/svg">
<path fill-rule="evenodd" clip-rule="evenodd" d="M7.37288 2.8784C14.7536 3.36863 20.6316 9.24659 21.1218 16.6273C21.1471 17.1924 20.7513 17.6894 20.1949 17.7913L4.48344 20.8617C4.10902 20.9349 3.72273 20.817 3.45297 20.5473C3.1832 20.2775 3.06532 19.8912 3.13849 19.5168L6.20891 3.80534C6.31079 3.24893 6.80778 2.85314 7.37288 2.8784Z" stroke="#161924" stroke-width="1.5" stroke-linecap="round" stroke-linejoin="round"/>
<path d="M17.4209 18.2665C17.6495 15.1022 16.4917 11.9948 14.2484 9.75147C12.0051 7.50816 8.89768 6.3504 5.7334 6.57897" stroke="#161924" stroke-width="1.5" stroke-linecap="round" stroke-linejoin="round"/>
<path d="M12.7733 14.6555C12.7731 14.7936 12.6611 14.9054 12.5231 14.9053C12.385 14.9053 12.2731 14.7934 12.2731 14.6553C12.273 14.5173 12.3848 14.4053 12.5228 14.4051C12.5893 14.405 12.653 14.4314 12.7 14.4784C12.747 14.5253 12.7733 14.5891 12.7733 14.6555" stroke="#161924" stroke-width="1.5" stroke-linecap="round" stroke-linejoin="round"/>
<path d="M8.00666 16.2444C8.00649 16.3825 7.8945 16.4943 7.75646 16.4942C7.61841 16.4942 7.50651 16.3823 7.50645 16.2442C7.50639 16.1062 7.61819 15.9942 7.75624 15.994C7.82268 15.9939 7.88642 16.0203 7.9334 16.0673C7.98038 16.1143 8.00674 16.178 8.00666 16.2444" stroke="#161924" stroke-width="1.5" stroke-linecap="round" stroke-linejoin="round"/>
<path d="M9.59553 11.4778C9.59536 11.6158 9.48337 11.7276 9.34532 11.7276C9.20727 11.7275 9.09538 11.6156 9.09532 11.4776C9.09526 11.3395 9.20707 11.2275 9.34511 11.2274C9.41155 11.2273 9.47529 11.2536 9.52227 11.3006C9.56925 11.3476 9.59561 11.4113 9.59553 11.4778" stroke="#161924" stroke-width="1.5" stroke-linecap="round" stroke-linejoin="round"/>
</svg>
