<svg width="24" height="24" viewBox="0 0 24 24" fill="none" xmlns="http://www.w3.org/2000/svg">
<path fill-rule="evenodd" clip-rule="evenodd" d="M19.063 16H4.937C3.867 16 3 15.133 3 14.063V5.937C3 4.867 3.867 4 4.937 4H19.062C20.133 4 21 4.867 21 5.937V14.062C21 15.133 20.133 16 19.063 16V16Z" stroke="#161924" stroke-width="1.5" stroke-linecap="round" stroke-linejoin="round"/>
<path d="M6.99982 11L7.88982 10.026L6.99982 9" stroke="#161924" stroke-width="1.5" stroke-linecap="round" stroke-linejoin="round"/>
<path d="M9 13L11.486 10.026L9 7" stroke="#161924" stroke-width="1.5" stroke-linecap="round" stroke-linejoin="round"/>
<path d="M7.89014 10.03L14.0001 10" stroke="#161924" stroke-width="1.5" stroke-linecap="round" stroke-linejoin="round"/>
<path d="M4 20H20" stroke="#161924" stroke-width="1.5" stroke-linecap="round" stroke-linejoin="round"/>
<path d="M17 7C16.997 7 16.995 7.002 16.995 7.005C16.995 7.008 16.997 7.01 17 7.01C17.003 7.01 17.005 7.008 17.005 7.005C17.005 7.002 17.003 7 17 7" stroke="#161924" stroke-width="1.5" stroke-linecap="round" stroke-linejoin="round"/>
<path d="M17.0049 9.995C17.0019 9.995 16.9999 9.997 16.9999 10C16.9999 10.003 17.0019 10.005 17.0049 10.005C17.0079 10.005 17.0099 10.003 17.0099 10C17.0099 9.997 17.0079 9.995 17.0049 9.995" stroke="#161924" stroke-width="1.5" stroke-linecap="round" stroke-linejoin="round"/>
<path d="M17 13C16.997 13 16.995 13.002 16.995 13.005C16.995 13.008 16.997 13.01 17 13.01C17.003 13.01 17.005 13.008 17.005 13.005C17.005 13.002 17.003 13 17 13" stroke="#161924" stroke-width="1.5" stroke-linecap="round" stroke-linejoin="round"/>
</svg>
