<svg width="24" height="24" viewBox="0 0 24 24" fill="none" xmlns="http://www.w3.org/2000/svg">
<path d="M14.5 16L13.526 15.11L12.5 16" stroke="#161924" stroke-width="1.5" stroke-linecap="round" stroke-linejoin="round"/>
<path d="M16.5 14L13.526 11.514L10.5 14" stroke="#161924" stroke-width="1.5" stroke-linecap="round" stroke-linejoin="round"/>
<path d="M13.5301 15.11L13.5001 9" stroke="#161924" stroke-width="1.5" stroke-linecap="round" stroke-linejoin="round"/>
<path fill-rule="evenodd" clip-rule="evenodd" d="M18 19H9C7.895 19 7 18.105 7 17V4C7 2.895 7.895 2 9 2H18C19.105 2 20 2.895 20 4V17C20 18.105 19.105 19 18 19Z" stroke="#161924" stroke-width="1.5" stroke-linecap="round" stroke-linejoin="round"/>
<path d="M7 6H6C4.895 6 4 6.895 4 8V20C4 21.105 4.895 22 6 22H15C16.105 22 17 21.105 17 20V19" stroke="#161924" stroke-width="1.5" stroke-linecap="round" stroke-linejoin="round"/>
<path d="M9.36512 6.005C9.36512 6.008 9.36712 6.01 9.37012 6.01C9.37312 6.01 9.37512 6.008 9.37512 6.005C9.37512 6.002 9.37312 6 9.37012 6C9.36712 6 9.36512 6.002 9.36512 6.005" stroke="#161924" stroke-width="1.5" stroke-linecap="round" stroke-linejoin="round"/>
<path d="M12.1151 6.005C12.1151 6.008 12.1171 6.01 12.1201 6.01C12.1231 6.01 12.1251 6.008 12.1251 6.005C12.1251 6.002 12.1231 6 12.1201 6C12.1171 6 12.1151 6.002 12.1151 6.005" stroke="#161924" stroke-width="1.5" stroke-linecap="round" stroke-linejoin="round"/>
<path d="M14.87 6.005C14.87 6.008 14.872 6.01 14.875 6.01C14.878 6.01 14.88 6.008 14.88 6.005C14.88 6.002 14.878 6 14.875 6C14.872 6 14.87 6.002 14.87 6.005" stroke="#161924" stroke-width="1.5" stroke-linecap="round" stroke-linejoin="round"/>
<path d="M17.6249 6.005C17.6249 6.008 17.6269 6.01 17.6299 6.01C17.6329 6.01 17.6349 6.008 17.6349 6.005C17.6349 6.002 17.6329 6 17.6299 6C17.6269 6 17.6249 6.002 17.6249 6.005" stroke="#161924" stroke-width="1.5" stroke-linecap="round" stroke-linejoin="round"/>
</svg>
