<svg width="24" height="24" viewBox="0 0 24 24" fill="none" xmlns="http://www.w3.org/2000/svg">
<path d="M2 20H12" stroke="#161924" stroke-width="1.5" stroke-linecap="round" stroke-linejoin="round"/>
<path d="M18.4399 20V14.8" stroke="#161924" stroke-width="1.3693" stroke-linecap="round" stroke-linejoin="round"/>
<path d="M16.8809 18.701L18.4409 20L19.9999 18.701" stroke="#161924" stroke-width="1.3693" stroke-linecap="round" stroke-linejoin="round"/>
<path fill-rule="evenodd" clip-rule="evenodd" d="M4.636 14.636L2 12L3.553 11.224C3.835 11.083 4.166 11.083 4.447 11.224L6 12L9.192 10.023L5 6.023L8 5L13 8L17.707 5.31C18.858 4.652 20.319 5.276 20.64 6.562V6.562C20.854 7.416 20.483 8.31 19.728 8.763L11.325 13.805C11.11 13.934 10.872 14.022 10.625 14.063L5.507 14.916C5.189 14.968 4.864 14.864 4.636 14.636Z" stroke="#161924" stroke-width="1.5" stroke-linecap="round" stroke-linejoin="round"/>
</svg>
