<svg width="24" height="24" viewBox="0 0 24 24" fill="none" xmlns="http://www.w3.org/2000/svg">
<path d="M22 3H2" stroke="#161924" stroke-width="1.5" stroke-linecap="round" stroke-linejoin="round"/>
<path d="M6 9.00004V3.00006" stroke="#161924" stroke-width="1.5" stroke-linecap="round" stroke-linejoin="round"/>
<path d="M18 9.00004V3.00006" stroke="#161924" stroke-width="1.5" stroke-linecap="round" stroke-linejoin="round"/>
<path d="M17 13L19 15" stroke="#161924" stroke-width="1.5" stroke-linecap="round" stroke-linejoin="round"/>
<path d="M17 17L19 15" stroke="#161924" stroke-width="1.5" stroke-linecap="round" stroke-linejoin="round"/>
<path d="M19 15H15" stroke="#161924" stroke-width="1.5" stroke-linecap="round" stroke-linejoin="round"/>
<rect x="5" y="12" width="7" height="3" rx="0.5" stroke="#161924" stroke-width="1.5" stroke-linecap="round" stroke-linejoin="round"/>
<path d="M5 18H6" stroke="#161924" stroke-width="1.5" stroke-linecap="round" stroke-linejoin="round"/>
<path d="M9 18H12" stroke="#161924" stroke-width="1.5" stroke-linecap="round" stroke-linejoin="round"/>
<path fill-rule="evenodd" clip-rule="evenodd" d="M20 21H4C3.46952 21.0001 2.96073 20.7895 2.58563 20.4144C2.21052 20.0393 1.99985 19.5305 2 19V11C1.99985 10.4695 2.21052 9.96073 2.58563 9.58563C2.96073 9.21052 3.46952 8.99985 4 9H20C20.5305 8.99985 21.0393 9.21052 21.4144 9.58563C21.7895 9.96073 22.0001 10.4695 22 11V19.001C21.9999 19.5313 21.7892 20.0399 21.4141 20.4148C21.039 20.7897 20.5303 21.0002 20 21V21Z" stroke="#161924" stroke-width="1.5" stroke-linecap="round" stroke-linejoin="round"/>
</svg>
