<svg width="24" height="24" viewBox="0 0 24 24" fill="none" xmlns="http://www.w3.org/2000/svg">
<path d="M2 18H9" stroke="#161924" stroke-width="1.5" stroke-linecap="round" stroke-linejoin="round"/>
<path fill-rule="evenodd" clip-rule="evenodd" d="M4.636 12.636L2 10L3.553 9.224C3.835 9.083 4.166 9.083 4.447 9.224L6 10L9.192 8.023L5 4.023L8 3L13 6L17.707 3.31C18.858 2.652 20.319 3.276 20.64 4.562V4.562C20.854 5.416 20.483 6.31 19.728 6.763L11.325 11.805C11.11 11.934 10.872 12.022 10.625 12.063L5.507 12.916C5.189 12.968 4.864 12.864 4.636 12.636Z" stroke="#161924" stroke-width="1.5" stroke-linecap="round" stroke-linejoin="round"/>
<path d="M17.5 22C15.015 22 13 19.986 13 17.501C13 15.067 15.07 12.998 17.504 13C19.988 13.002 22 15.016 22 17.5C22 19.985 19.986 22 17.5 22" stroke="#161924" stroke-width="1.5" stroke-linecap="round" stroke-linejoin="round"/>
<path d="M19.5 16.5L17 19L15.5 17.5" stroke="#161924" stroke-width="1.5" stroke-linecap="round" stroke-linejoin="round"/>
</svg>
