<svg width="24" height="24" viewBox="0 0 24 24" fill="none" xmlns="http://www.w3.org/2000/svg">
<path d="M13.5001 14L9.79301 10.2929C9.60548 10.1054 9.35113 10 9.08591 10H8.00146C7.65249 10 7.32876 10.1819 7.1473 10.48C6.96583 10.7781 6.95289 11.1492 7.11313 11.4592L8.42654 14" stroke="#161924" stroke-width="1.5" stroke-linecap="round" stroke-linejoin="round"/>
<path d="M22 11H18.25C17.5596 11 17 10.4404 17 9.75001V8.75001C17 8.05966 16.4404 7.50001 15.75 7.50001H14.75C14.4185 7.50001 14.1005 7.36832 13.8661 7.1339C13.6317 6.89948 13.5 6.58154 13.5 6.25001V2.01501" stroke="#161924" stroke-width="1.5" stroke-linecap="round" stroke-linejoin="round"/>
<path d="M5.76025 7.00001C7.40786 3.35077 11.3797 1.34713 15.2937 2.1907C19.2078 3.03426 22.0017 6.49607 21.9999 10.5V11" stroke="#161924" stroke-width="1.5" stroke-linecap="round" stroke-linejoin="round"/>
<path fill-rule="evenodd" clip-rule="evenodd" d="M12.5002 18L8.79311 21.7071C8.60558 21.8946 8.35123 22 8.08601 22H7.00156C6.65259 22 6.32886 21.8181 6.1474 21.52C5.96594 21.2219 5.95299 20.8508 6.11323 20.5408L7.42664 18H5.05508C4.19422 18 3.42994 17.4491 3.15771 16.6325L2.0523 13.3162C1.95065 13.0113 2.00179 12.6761 2.18974 12.4153C2.37769 12.1545 2.67955 12 3.00099 12H3.99553C4.3743 12 4.72056 12.214 4.88995 12.5528L5.61356 14H16.0002C17.1048 14 18.0002 14.8954 18.0002 16V16C18.0002 17.1046 17.1048 18 16.0002 18H12.5002Z" stroke="#161924" stroke-width="1.5" stroke-linecap="round" stroke-linejoin="round"/>
</svg>
