<svg width="24" height="24" viewBox="0 0 24 24" fill="none" xmlns="http://www.w3.org/2000/svg">
<path d="M2 18H9" stroke="#161924" stroke-width="1.5" stroke-linecap="round" stroke-linejoin="round"/>
<circle cx="17.5" cy="17.5" r="4.5" stroke="#161924" stroke-width="1.5" stroke-linecap="round" stroke-linejoin="round"/>
<path d="M17.1992 15.967V18H18.8862" stroke="#161924" stroke-width="1.5" stroke-linecap="round" stroke-linejoin="round"/>
<path fill-rule="evenodd" clip-rule="evenodd" d="M4.67149 12.705L2 10.05L3.57363 9.2681C3.85914 9.12633 4.19455 9.12633 4.48006 9.2681L6.05369 10.05L9.289 8.059L5.0403 4.0304L7.88553 3L13.1476 6.02145L17.7092 3.431C18.3089 3.08928 19.0336 3.04689 19.6691 3.31638C20.3045 3.58586 20.7778 4.13636 20.949 4.805V4.805C21.1303 5.52882 20.8148 6.28577 20.1731 6.66659L11.4508 11.8676C11.2325 11.9977 10.9918 12.0857 10.7412 12.1272L5.55467 12.9863C5.23218 13.0399 4.90359 12.9352 4.67149 12.705Z" stroke="#161924" stroke-width="1.5" stroke-linecap="round" stroke-linejoin="round"/>
</svg>
