<svg width="24" height="24" viewBox="0 0 24 24" fill="none" xmlns="http://www.w3.org/2000/svg">
<rect x="2.99625" y="2.99634" width="18.0075" height="18.0075" rx="5" stroke="#161924" stroke-width="1.5"/>
<path d="M8.93852 11.2349L7.79046 12.3829C7.28299 12.8903 6.99789 13.5786 6.99789 14.2963C6.99789 15.014 7.28299 15.7022 7.79046 16.2097V16.2097C8.29793 16.7172 8.9862 17.0023 9.70387 17.0023C10.4215 17.0023 11.1098 16.7172 11.6173 16.2097L12.7653 15.0616" stroke="#161924" stroke-width="1.5" stroke-linecap="round" stroke-linejoin="round"/>
<path d="M10.4693 13.5308L13.1481 10.8521" stroke="#161924" stroke-width="1.5" stroke-linecap="round" stroke-linejoin="round"/>
<path fill-rule="evenodd" clip-rule="evenodd" d="M15.0615 12.7655L11.2347 8.93867L12.3827 7.79061C12.8902 7.28314 13.5785 6.99805 14.2962 6.99805C15.0138 6.99805 15.7021 7.28314 16.2096 7.79061V7.79061C16.717 8.29808 17.0021 8.98635 17.0021 9.70402C17.0021 10.4217 16.717 11.11 16.2096 11.6174L15.0615 12.7655Z" stroke="#161924" stroke-width="1.5" stroke-linecap="round" stroke-linejoin="round"/>
</svg>
