<svg width="24" height="24" viewBox="0 0 24 24" fill="none" xmlns="http://www.w3.org/2000/svg">
<path d="M18.8433 7.99777C18.9548 7.15069 18.4832 6.3344 17.6936 6.00786L17.6539 5.99143C17.1909 5.7999 16.823 5.43205 16.6315 4.969L16.6149 4.92898C16.2885 4.13959 15.4723 3.66806 14.6254 3.77951L14.5794 3.78551C14.082 3.85097 13.5789 3.71607 13.1809 3.41049L13.1493 3.3864C12.4718 2.86624 11.5294 2.86624 10.8519 3.3864L10.8162 3.41384C10.4195 3.71839 9.91804 3.85283 9.42222 3.78757L9.37487 3.78134C8.52781 3.66986 7.71163 4.14175 7.3856 4.93145L7.36971 4.96992C7.17831 5.43355 6.81005 5.8018 6.34643 5.9932L6.30795 6.00908C5.51825 6.33511 5.04636 7.15127 5.15781 7.99832" stroke="#161924" stroke-width="1.5" stroke-linecap="round" stroke-linejoin="round"/>
<path fill-rule="evenodd" clip-rule="evenodd" d="M4.99749 7.99832H19.0029C19.2948 7.99832 19.5721 8.1258 19.7622 8.34734C19.9522 8.56887 20.0361 8.86237 19.9917 9.15086L18.2987 20.1554C18.2236 20.6435 17.8037 21.0037 17.3099 21.0037H6.69051C6.19673 21.0037 5.77681 20.6435 5.70173 20.1554L4.00871 9.15086C3.96433 8.86237 4.04815 8.56887 4.23821 8.34734C4.42827 8.1258 4.7056 7.99832 4.99749 7.99832Z" stroke="#161924" stroke-width="1.5" stroke-linecap="round" stroke-linejoin="round"/>
<path d="M14.501 21.0037L15.5014 7.99832" stroke="#161924" stroke-width="1.5" stroke-linecap="round" stroke-linejoin="round"/>
<path d="M9.49895 21.0037L8.49854 7.99832" stroke="#161924" stroke-width="1.5" stroke-linecap="round" stroke-linejoin="round"/>
</svg>
