<svg width="24" height="24" viewBox="0 0 24 24" fill="none" xmlns="http://www.w3.org/2000/svg">
<path d="M13.914 16.62C13.287 16.879 12.638 17 12 17C9.239 17 7 14.761 7 12C7 9.239 9.239 7 12 7C14.761 7 17 9.239 17 12V12.833C17 13.6 16.378 14.222 15.611 14.222C14.844 14.222 14.222 13.6 14.222 12.833V12C14.222 10.773 13.227 9.778 12 9.778V9.778C10.773 9.778 9.778 10.773 9.778 12C9.778 13.227 10.773 14.222 12 14.222C13.227 14.222 14.222 13.227 14.222 12" stroke="#161924" stroke-width="1.5" stroke-linecap="round" stroke-linejoin="round"/>
<path fill-rule="evenodd" clip-rule="evenodd" d="M3.68948 3.68901V3.68901C2.77148 4.60701 2.77148 6.09601 3.68948 7.01401V7.01401C4.60748 7.93201 4.60748 9.42101 3.68948 10.339V10.339C2.77148 11.257 2.77148 12.746 3.68948 13.664V13.664C4.60748 14.582 4.60748 16.071 3.68948 16.989V16.989C2.77148 17.907 2.77148 19.396 3.68948 20.314V20.314C4.60748 21.232 6.09648 21.232 7.01448 20.314V20.314C7.93248 19.396 9.42148 19.396 10.3395 20.314V20.314C11.2575 21.232 12.7465 21.232 13.6645 20.314V20.314C14.5825 19.396 16.0715 19.396 16.9895 20.314V20.314C17.9075 21.232 19.3965 21.232 20.3145 20.314V20.314C21.2325 19.396 21.2325 17.907 20.3145 16.989V16.989C19.3965 16.071 19.3965 14.582 20.3145 13.664V13.664C21.2325 12.746 21.2325 11.257 20.3145 10.339V10.339C19.3965 9.42101 19.3965 7.93201 20.3145 7.01401V7.01401C21.2325 6.09601 21.2325 4.60701 20.3145 3.68901V3.68901C19.3965 2.77101 17.9075 2.77101 16.9895 3.68901V3.68901C16.0715 4.60701 14.5825 4.60701 13.6645 3.68901V3.68901C12.7465 2.77101 11.2575 2.77101 10.3395 3.68901V3.68901C9.42148 4.60701 7.93248 4.60701 7.01448 3.68901V3.68901C6.09548 2.77001 4.60748 2.77001 3.68948 3.68901Z" stroke="#161924" stroke-width="1.5" stroke-linecap="round" stroke-linejoin="round"/>
</svg>
