<svg width="24" height="24" viewBox="0 0 24 24" fill="none" xmlns="http://www.w3.org/2000/svg">
<path d="M21 15C21 17.761 18.761 20 16 20H14" stroke="#161924" stroke-width="1.5" stroke-linecap="round" stroke-linejoin="round"/>
<path d="M15.5 18.5L14 20L15.5 21.5" stroke="#161924" stroke-width="1.5" stroke-linecap="round" stroke-linejoin="round"/>
<path d="M3 9C3 6.239 5.239 4 8 4H10" stroke="#161924" stroke-width="1.5" stroke-linecap="round" stroke-linejoin="round"/>
<path d="M8.5 5.5L10 4L8.5 2.5" stroke="#161924" stroke-width="1.5" stroke-linecap="round" stroke-linejoin="round"/>
<path d="M15.8074 8.19301C15.9524 8.33801 15.9524 8.57301 15.8074 8.71801C15.6624 8.86301 15.4274 8.86301 15.2824 8.71801C15.1374 8.57301 15.1374 8.33801 15.2824 8.19301C15.4284 8.04801 15.6624 8.04801 15.8074 8.19301" stroke="#161924" stroke-width="1.5" stroke-linecap="round" stroke-linejoin="round"/>
<path fill-rule="evenodd" clip-rule="evenodd" d="M14.27 5H17C18.105 5 19 5.895 19 7V9.73C19 10.26 18.789 10.769 18.414 11.144L11.024 18.534C10.404 19.154 9.398 19.154 8.778 18.534L5.465 15.221C4.845 14.601 4.845 13.595 5.465 12.975L12.855 5.585C13.23 5.211 13.739 5 14.27 5Z" stroke="#161924" stroke-width="1.5" stroke-linecap="round" stroke-linejoin="round"/>
</svg>
