<svg width="24" height="24" viewBox="0 0 24 24" fill="none" xmlns="http://www.w3.org/2000/svg">
<path d="M6.99792 7.99842V3.99675C6.99792 3.44424 7.44583 2.99634 7.99834 2.99634H16.0017C16.5542 2.99634 17.0021 3.44424 17.0021 3.99675V7.99842" stroke="#161924" stroke-width="1.5" stroke-linecap="round" stroke-linejoin="round"/>
<path d="M6.99788 17.0023H4.99705C3.89202 17.0023 2.99622 16.1065 2.99622 15.0015V9.99937C2.99622 8.89434 3.89202 7.99854 4.99705 7.99854H19.0029C20.1079 7.99854 21.0037 8.89434 21.0037 9.99937V10.9998" stroke="#161924" stroke-width="1.5" stroke-linecap="round" stroke-linejoin="round"/>
<path d="M6.99792 10.9997H7.99834" stroke="#161924" stroke-width="1.5" stroke-linecap="round" stroke-linejoin="round"/>
<path d="M10.9996 21.0039H7.99834C7.44583 21.0039 6.99792 20.556 6.99792 20.0035V14.001H10.9996" stroke="#161924" stroke-width="1.5" stroke-linecap="round" stroke-linejoin="round"/>
<path d="M14.319 20.6857C12.5609 18.9276 12.5609 16.0771 14.319 14.3191C16.0771 12.561 18.9275 12.561 20.6856 14.3191C22.4437 16.0771 22.4437 18.9276 20.6856 20.6857C19.8414 21.5299 18.6963 22.0042 17.5023 22.0042C16.3083 22.0042 15.1632 21.5299 14.319 20.6857" stroke="#161924" stroke-width="1.5" stroke-linecap="round" stroke-linejoin="round"/>
<path d="M18.7888 16.2019V18.7029" stroke="#161924" stroke-width="1.5" stroke-linecap="round" stroke-linejoin="round"/>
<path d="M16.2157 16.199V18.7" stroke="#161924" stroke-width="1.5" stroke-linecap="round" stroke-linejoin="round"/>
</svg>
