<svg width="24" height="24" viewBox="0 0 24 24" fill="none" xmlns="http://www.w3.org/2000/svg">
<path d="M6.99792 7.99842V3.99675C6.99792 3.44424 7.44583 2.99634 7.99834 2.99634H16.0017C16.5542 2.99634 17.0021 3.44424 17.0021 3.99675V7.99842" stroke="#161924" stroke-width="1.5" stroke-linecap="round" stroke-linejoin="round"/>
<path d="M6.99788 17.0023H4.99705C3.89202 17.0023 2.99622 16.1065 2.99622 15.0015V9.99937C2.99622 8.89434 3.89202 7.99854 4.99705 7.99854H19.0029C20.1079 7.99854 21.0037 8.89434 21.0037 9.99937V10.9998" stroke="#161924" stroke-width="1.5" stroke-linecap="round" stroke-linejoin="round"/>
<path d="M6.99792 10.9997H7.99834" stroke="#161924" stroke-width="1.5" stroke-linecap="round" stroke-linejoin="round"/>
<path d="M10.9996 21.0039H7.99834C7.44583 21.0039 6.99792 20.556 6.99792 20.0035V14.001H10.9996" stroke="#161924" stroke-width="1.5" stroke-linecap="round" stroke-linejoin="round"/>
<path d="M20.6856 20.6857C18.9275 22.4438 16.0771 22.4438 14.319 20.6857C12.5609 18.9276 12.5609 16.0772 14.319 14.3191C16.0771 12.561 18.9275 12.561 20.6856 14.319C21.5299 15.1633 22.0042 16.3084 22.0042 17.5024C22.0042 18.6963 21.5299 19.8414 20.6856 20.6857V20.6857" stroke="#161924" stroke-width="1.5" stroke-linecap="round" stroke-linejoin="round"/>
<path d="M16.2017 16.2158H18.7028" stroke="#161924" stroke-width="1.5" stroke-linecap="round" stroke-linejoin="round"/>
<path d="M16.1987 18.789H18.6998" stroke="#161924" stroke-width="1.5" stroke-linecap="round" stroke-linejoin="round"/>
</svg>
