<svg width="24" height="24" viewBox="0 0 24 24" fill="none" xmlns="http://www.w3.org/2000/svg">
<path d="M9.60001 9.61346V6.73346H14.4V9.61346" stroke="#161924" stroke-width="1.5" stroke-linecap="round" stroke-linejoin="round"/>
<path d="M9.60001 14.2003H8.19553C7.64545 14.2003 7.20001 13.7548 7.20001 13.2048V10.6089C7.20001 10.0588 7.64545 9.6134 8.19553 9.6134H15.8045C16.3546 9.6134 16.8 10.0588 16.8 10.6089V13.2048C16.8 13.7548 16.3546 14.2003 15.8045 14.2003H14.3751" stroke="#161924" stroke-width="1.5" stroke-linecap="round" stroke-linejoin="round"/>
<path fill-rule="evenodd" clip-rule="evenodd" d="M9.60001 12.4934H14.4V16.3334H9.60001V12.4934Z" stroke="#161924" stroke-width="1.5" stroke-linecap="round" stroke-linejoin="round"/>
<path d="M18.1095 5.42403C21.4836 8.79816 21.4836 14.2687 18.1095 17.6428C14.7353 21.0169 9.26479 21.0169 5.89068 17.6428C2.51654 14.2687 2.51654 8.79814 5.89068 5.42403C9.26481 2.0499 14.7353 2.0499 18.1095 5.42403" stroke="#161924" stroke-width="1.5" stroke-linecap="round" stroke-linejoin="round"/>
</svg>
