<svg width="24" height="24" viewBox="0 0 24 24" fill="none" xmlns="http://www.w3.org/2000/svg">
<path fill-rule="evenodd" clip-rule="evenodd" d="M21.0037 9.49482H20.2534C18.8721 9.49482 17.7524 10.6146 17.7524 11.9959V11.9959C17.7524 12.6592 18.0159 13.2953 18.4849 13.7644C18.9539 14.2334 19.5901 14.4969 20.2534 14.4969H21.0037V16.9979C21.0037 18.103 20.1079 18.9988 19.0029 18.9988H16.0016V19.499C16.0016 20.8803 14.8819 22 13.5006 22V22C12.1193 22 10.9995 20.8803 10.9995 19.499V18.9988H7.9983C6.89327 18.9988 5.99747 18.103 5.99747 16.9979V14.4969H5.49726C4.11597 14.4969 2.99622 13.3772 2.99622 11.9959V11.9959C2.99622 10.6146 4.11597 9.49482 5.49726 9.49482H5.99747V6.99378C5.99747 5.88875 6.89327 4.99295 7.9983 4.99295H10.9995V4.49274C10.9995 3.11145 12.1193 1.9917 13.5006 1.9917V1.9917C14.8819 1.9917 16.0016 3.11145 16.0016 4.49274V4.99295H19.0029C20.1079 4.99295 21.0037 5.88875 21.0037 6.99378V9.49482Z" stroke="#161924" stroke-width="1.5" stroke-linecap="round" stroke-linejoin="round"/>
</svg>
