<svg width="24" height="24" viewBox="0 0 24 24" fill="none" xmlns="http://www.w3.org/2000/svg">
<path fill-rule="evenodd" clip-rule="evenodd" d="M5.16413 10.4973C4.72694 10.4083 4.25275 10.4253 3.76354 10.5884C2.9362 10.8645 2.28093 11.5758 2.07584 12.4242C1.65366 14.1679 2.96321 15.7245 4.63591 15.7245C4.81698 15.7245 4.99306 15.7055 5.16413 15.6715V18.8928C5.16413 20.0583 6.10952 21.0037 7.27601 21.0037H18.8918C20.0583 21.0037 21.0037 20.0583 21.0037 18.8918V7.27601C21.0037 6.10952 20.0583 5.16413 18.8918 5.16413H15.6705C15.7595 4.72694 15.7425 4.25275 15.5795 3.76354C15.3023 2.9362 14.5911 2.28093 13.7437 2.07584C12 1.65366 10.4433 2.96321 10.4433 4.63591C10.4433 4.81698 10.4623 4.99306 10.4963 5.16413H7.27501C6.10852 5.16413 5.16313 6.10952 5.16313 7.27601V10.4973H5.16413Z" stroke="#161924" stroke-width="1.5" stroke-linecap="round" stroke-linejoin="round"/>
<path d="M13.0004 10.4994V14.5011" stroke="#161924" stroke-width="1.5" stroke-linecap="round" stroke-linejoin="round"/>
<path d="M15.0012 12.5002H10.9996" stroke="#161924" stroke-width="1.5" stroke-linecap="round" stroke-linejoin="round"/>
</svg>
