<svg width="24" height="24" viewBox="0 0 24 24" fill="none" xmlns="http://www.w3.org/2000/svg">
<path fill-rule="evenodd" clip-rule="evenodd" d="M5.16414 10.4973C4.72696 10.4083 4.25276 10.4253 3.76356 10.5884C2.93621 10.8645 2.28094 11.5758 2.07586 12.4242C1.65368 14.1679 2.96323 15.7245 4.63592 15.7245C4.817 15.7245 4.99307 15.7055 5.16414 15.6715V18.8928C5.16414 20.0583 6.10954 21.0037 7.27602 21.0037H18.8919C20.0583 21.0037 21.0037 20.0583 21.0037 18.8918V7.27601C21.0037 6.10952 20.0583 5.16413 18.8919 5.16413H15.6705C15.7596 4.72694 15.7425 4.25275 15.5795 3.76354C15.3024 2.9362 14.5911 2.28093 13.7437 2.07584C12 1.65366 10.4433 2.96321 10.4433 4.63591C10.4433 4.81698 10.4623 4.99306 10.4964 5.16413H7.27502C6.10854 5.16413 5.16314 6.10952 5.16314 7.27601V10.4973H5.16414Z" stroke="#161924" stroke-width="1.5" stroke-linecap="round" stroke-linejoin="round"/>
<path d="M14.415 11.0856L11.5858 13.9147" stroke="#161924" stroke-width="1.5" stroke-linecap="round" stroke-linejoin="round"/>
<path d="M14.415 13.9147L11.5858 11.0856" stroke="#161924" stroke-width="1.5" stroke-linecap="round" stroke-linejoin="round"/>
</svg>
