<svg width="24" height="24" viewBox="0 0 24 24" fill="none" xmlns="http://www.w3.org/2000/svg">
<path fill-rule="evenodd" clip-rule="evenodd" d="M16.0016 21.0038H7.9983C5.23572 21.0038 2.99622 18.7643 2.99622 16.0018V7.99842C2.99622 5.23585 5.23572 2.99634 7.9983 2.99634H16.0016C18.7642 2.99634 21.0037 5.23585 21.0037 7.99842V16.0018C21.0037 18.7643 18.7642 21.0038 16.0016 21.0038Z" stroke="#161924" stroke-width="1.5" stroke-linecap="round" stroke-linejoin="round"/>
<path d="M12 12.7115L13.3276 11.9739C13.9901 11.6059 14.401 10.9076 14.401 10.1497C14.3225 8.88941 13.2417 7.92864 11.9808 7.99845C10.8543 7.95168 9.85385 8.71324 9.599 9.81161" stroke="#161924" stroke-width="1.5" stroke-linecap="round" stroke-linejoin="round"/>
<path d="M12.1002 15.9019C12.1001 15.9572 12.0553 16.0019 12.0001 16.0019C11.9449 16.0018 11.9001 15.9571 11.9001 15.9019C11.9001 15.8466 11.9448 15.8018 12 15.8018C12.0266 15.8017 12.0521 15.8123 12.0709 15.8311C12.0897 15.8499 12.1002 15.8754 12.1002 15.9019" stroke="#161924" stroke-width="1.5" stroke-linecap="round" stroke-linejoin="round"/>
</svg>
