<svg width="24" height="24" viewBox="0 0 24 24" fill="none" xmlns="http://www.w3.org/2000/svg">
<path d="M13.0003 20.9417C12.6684 20.9829 12.3343 21.0037 11.9998 21.0037C7.02721 21.0037 2.99609 16.9726 2.99609 12C2.99609 7.02736 7.02721 2.99625 11.9998 2.99625C16.9725 2.99625 21.0036 7.02736 21.0036 12C21.0036 12.3344 20.9827 12.6685 20.9416 13.0004" stroke="#161924" stroke-width="1.5" stroke-linecap="round" stroke-linejoin="round"/>
<path d="M20.0036 17.0021L17.5026 19.5031L16.002 18.0025" stroke="#161924" stroke-width="1.5" stroke-linecap="round" stroke-linejoin="round"/>
<path d="M9.68457 9.6847C9.92159 8.66314 10.852 7.95484 11.8998 7.99832C13.0725 7.93337 14.0778 8.82697 14.1508 9.99916C14.1508 11.5037 11.9999 12 11.9999 13.0004" stroke="#161924" stroke-width="1.5" stroke-linecap="round" stroke-linejoin="round"/>
<path d="M12.1253 15.7517C12.1252 15.8207 12.0692 15.8766 12.0002 15.8766C11.9311 15.8766 11.8752 15.8206 11.8752 15.7516C11.8751 15.6826 11.931 15.6266 12 15.6265C12.0333 15.6265 12.0651 15.6396 12.0886 15.6631C12.1121 15.6866 12.1253 15.7185 12.1253 15.7517" stroke="#161924" stroke-width="1.5" stroke-linecap="round" stroke-linejoin="round"/>
</svg>
