<svg width="24" height="24" viewBox="0 0 24 24" fill="none" xmlns="http://www.w3.org/2000/svg">
<path d="M4.816 17.388C3.682 15.882 3 14.019 3 12C3 7.05 7.05 3 12 3" stroke="#161924" stroke-width="1.5" stroke-linecap="round" stroke-linejoin="round"/>
<path d="M4.81641 17.388C6.46241 19.574 9.06941 21 12.0004 21C16.9504 21 21.0004 16.95 21.0004 12C21.0004 7.05 16.9504 3 12.0004 3" stroke="#161924" stroke-width="1.5" stroke-linecap="round" stroke-linejoin="round"/>
<path d="M16.2426 7.75736C18.5858 10.1005 18.5858 13.8995 16.2426 16.2426C13.8995 18.5858 10.1005 18.5858 7.75736 16.2426C5.41421 13.8995 5.41421 10.1005 7.75736 7.75736C10.1005 5.41421 13.8995 5.41421 16.2426 7.75736" stroke="#161924" stroke-width="1.5" stroke-linecap="round" stroke-linejoin="round"/>
<path d="M12 14.65C11.972 14.65 11.95 14.672 11.95 14.7C11.95 14.728 11.972 14.75 12 14.75C12.028 14.75 12.05 14.728 12.05 14.7C12.05 14.672 12.028 14.65 12 14.65V14.65" stroke="#161924" stroke-width="1.5" stroke-linecap="round" stroke-linejoin="round"/>
<path d="M12.0063 12.562C12.8473 12.562 13.5293 11.895 13.5623 11.062C13.5623 10.199 12.8623 9.5 12.0003 9.5C11.1593 9.5 10.4773 10.167 10.4443 11" stroke="#161924" stroke-width="1.5" stroke-linecap="round" stroke-linejoin="round"/>
</svg>
