<svg width="24" height="24" viewBox="0 0 24 24" fill="none" xmlns="http://www.w3.org/2000/svg">
<path d="M12.0002 2.99622V4.49684" stroke="#161924" stroke-width="1.5" stroke-linecap="round" stroke-linejoin="round"/>
<path d="M15.7487 5.50726L16.5017 4.20276" stroke="#161924" stroke-width="1.5" stroke-linecap="round" stroke-linejoin="round"/>
<path d="M18.4932 8.2511L19.7977 7.4981" stroke="#161924" stroke-width="1.5" stroke-linecap="round" stroke-linejoin="round"/>
<path d="M19.5029 12H21.0036" stroke="#161924" stroke-width="1.5" stroke-linecap="round" stroke-linejoin="round"/>
<path d="M2.99609 12H4.49672" stroke="#161924" stroke-width="1.5" stroke-linecap="round" stroke-linejoin="round"/>
<path d="M5.50763 8.2511L4.20312 7.4981" stroke="#161924" stroke-width="1.5" stroke-linecap="round" stroke-linejoin="round"/>
<path d="M8.25171 5.50726L7.49871 4.20276" stroke="#161924" stroke-width="1.5" stroke-linecap="round" stroke-linejoin="round"/>
<path d="M12.0002 19.5031V21.0037" stroke="#161924" stroke-width="1.5" stroke-linecap="round" stroke-linejoin="round"/>
<path d="M7.49871 19.7972L8.25171 18.4927" stroke="#161924" stroke-width="1.5" stroke-linecap="round" stroke-linejoin="round"/>
<path d="M5.50763 15.7489L4.20312 16.5019" stroke="#161924" stroke-width="1.5" stroke-linecap="round" stroke-linejoin="round"/>
<path d="M19.7977 16.5019L18.4932 15.7489" stroke="#161924" stroke-width="1.5" stroke-linecap="round" stroke-linejoin="round"/>
<path d="M15.7487 18.4927L16.5017 19.7972" stroke="#161924" stroke-width="1.5" stroke-linecap="round" stroke-linejoin="round"/>
<path d="M9.99902 10.0095C10.2114 9.0942 11.045 8.45957 11.9839 8.49853C13.0346 8.44034 13.9353 9.24099 14.0007 10.2913C14.0007 11.6393 12.0735 12.084 12.0735 12.9804" stroke="#161924" stroke-width="1.5" stroke-linecap="round" stroke-linejoin="round"/>
<path d="M12.1846 15.3904C12.1845 15.4518 12.1348 15.5015 12.0734 15.5014C12.0121 15.5014 11.9623 15.4517 11.9623 15.3903C11.9623 15.329 12.012 15.2792 12.0733 15.2791C12.1028 15.2791 12.1312 15.2908 12.152 15.3117C12.1729 15.3326 12.1846 15.3609 12.1846 15.3904" stroke="#161924" stroke-width="1.5" stroke-linecap="round" stroke-linejoin="round"/>
</svg>
