<svg width="24" height="24" viewBox="0 0 24 24" fill="none" xmlns="http://www.w3.org/2000/svg">
<path d="M12 13.042V12.84C12 12.18 12.408 11.822 12.817 11.548C13.216 11.279 13.616 10.929 13.616 10.282C13.616 9.38999 12.893 8.66699 12.001 8.66699C11.109 8.66699 10.386 9.38999 10.386 10.282" stroke="#161924" stroke-width="1.5" stroke-linecap="round" stroke-linejoin="round"/>
<path d="M11.9989 15.315C11.9159 15.315 11.8489 15.382 11.8499 15.465C11.8499 15.548 11.9169 15.615 11.9999 15.615C12.0829 15.615 12.1499 15.548 12.1499 15.465C12.1499 15.382 12.0829 15.315 11.9989 15.315" stroke="#161924" stroke-width="1.5" stroke-linecap="round" stroke-linejoin="round"/>
<path fill-rule="evenodd" clip-rule="evenodd" d="M10.5859 20.87L3.12994 13.414C2.34894 12.633 2.34894 11.367 3.12994 10.586L10.5849 3.13098C11.3659 2.34998 12.6319 2.34998 13.4129 3.13098L20.8679 10.586C21.6489 11.367 21.6489 12.633 20.8679 13.414L13.4129 20.869C12.6329 21.651 11.3669 21.651 10.5859 20.87Z" stroke="#161924" stroke-width="1.5" stroke-linecap="round" stroke-linejoin="round"/>
</svg>
