<svg width="24" height="24" viewBox="0 0 24 24" fill="none" xmlns="http://www.w3.org/2000/svg">
<path d="M20.2174 13.2147C21.6222 10.5075 21.1113 7.20224 18.9546 5.04558C16.7979 2.88893 13.4926 2.37799 10.7855 3.78279" stroke="#161924" stroke-width="1.5" stroke-linecap="round" stroke-linejoin="round"/>
<path d="M9.99917 16.8689C9.97154 16.8689 9.94915 16.8913 9.94915 16.9189C9.94915 16.9465 9.97154 16.9689 9.99917 16.9689C10.0268 16.9689 10.0492 16.9465 10.0492 16.9189C10.0492 16.8913 10.0268 16.8689 9.99917 16.8689" stroke="#161924" stroke-width="1.5" stroke-linecap="round" stroke-linejoin="round"/>
<path d="M8.19867 12.2005C8.38253 11.4057 9.10632 10.8545 9.92139 10.8886C10.8335 10.8381 11.6154 11.5331 11.6721 12.4448C11.6721 13.6119 9.99919 14.001 9.99919 14.7791" stroke="#161924" stroke-width="1.5" stroke-linecap="round" stroke-linejoin="round"/>
<rect x="2.99628" y="6.99805" width="14.0058" height="14.0058" rx="6.99999" stroke="#161924" stroke-width="1.5" stroke-linecap="round" stroke-linejoin="round"/>
</svg>
