<svg width="24" height="24" viewBox="0 0 24 24" fill="none" xmlns="http://www.w3.org/2000/svg">
<path d="M9.599 9.81161C9.85385 8.71324 10.8543 7.95168 11.9808 7.99845C13.2417 7.92864 14.3225 8.88941 14.401 10.1497" stroke="#161924" stroke-width="1.5" stroke-linecap="round" stroke-linejoin="round"/>
<path d="M14.401 10.1497C14.401 10.9075 13.9901 11.6058 13.3276 11.9739L12 12.7114" stroke="#161924" stroke-width="1.5" stroke-linecap="round" stroke-linejoin="round"/>
<path d="M12.1002 15.9019C12.1001 15.9572 12.0553 16.0019 12.0001 16.0019C11.9449 16.0018 11.9001 15.9571 11.9001 15.9019C11.9001 15.8466 11.9448 15.8018 12 15.8018C12.0266 15.8017 12.0521 15.8123 12.0709 15.8311C12.0897 15.8499 12.1002 15.8754 12.1002 15.9019" stroke="#161924" stroke-width="1.5" stroke-linecap="round" stroke-linejoin="round"/>
<path d="M9.99918 21.0039H14.0008" stroke="#161924" stroke-width="1.5" stroke-linecap="round" stroke-linejoin="round"/>
<path d="M9.99918 2.9963H14.0008" stroke="#161924" stroke-width="1.5" stroke-linecap="round" stroke-linejoin="round"/>
<path d="M2.99624 9.99927V14.0009" stroke="#161924" stroke-width="1.5" stroke-linecap="round" stroke-linejoin="round"/>
<path d="M21.0037 9.99927V14.0009" stroke="#161924" stroke-width="1.5" stroke-linecap="round" stroke-linejoin="round"/>
<path d="M6.99791 21.0039V21.0039C4.78785 21.0039 2.99625 19.2123 2.99625 17.0022V17.0022" stroke="#161924" stroke-width="1.5" stroke-linecap="round" stroke-linejoin="round"/>
<path d="M6.99791 21.0039C4.78785 21.0039 2.99625 19.2123 2.99625 17.0022" stroke="#161924" stroke-width="1.5" stroke-linecap="round" stroke-linejoin="round"/>
<path d="M17.0021 2.99634C19.2121 2.99634 21.0037 4.78795 21.0037 6.998" stroke="#161924" stroke-width="1.5" stroke-linecap="round" stroke-linejoin="round"/>
<path d="M2.99625 6.998C2.99625 4.78795 4.78785 2.99634 6.99791 2.99634" stroke="#161924" stroke-width="1.5" stroke-linecap="round" stroke-linejoin="round"/>
<path d="M21.0037 17.0022C21.0037 19.2123 19.2121 21.0039 17.0021 21.0039" stroke="#161924" stroke-width="1.5" stroke-linecap="round" stroke-linejoin="round"/>
</svg>
