<svg width="24" height="24" viewBox="0 0 24 24" fill="none" xmlns="http://www.w3.org/2000/svg">
<path d="M12.0002 13.204V12.964C12.0002 12.177 12.4862 11.751 12.9742 11.424C13.4502 11.104 13.9272 10.686 13.9272 9.91501C13.9272 8.85101 13.0652 7.98901 12.0012 7.98901C10.9372 7.98901 10.0742 8.84901 10.0742 9.91301" stroke="#161924" stroke-width="1.5" stroke-linecap="round" stroke-linejoin="round"/>
<path d="M11.999 15.919C11.903 15.919 11.825 15.997 11.826 16.093C11.826 16.189 11.904 16.267 12 16.267C12.096 16.267 12.174 16.189 12.174 16.093C12.174 15.996 12.096 15.919 11.999 15.919" stroke="#161924" stroke-width="1.5" stroke-linecap="round" stroke-linejoin="round"/>
<path d="M18.2557 15.128L20.0427 16.021C20.6497 14.81 20.9997 13.447 20.9997 12C20.9997 7.029 16.9707 3 11.9997 3C9.79673 3 7.78173 3.794 6.21973 5.11" stroke="#161924" stroke-width="1.5" stroke-linecap="round" stroke-linejoin="round"/>
<path d="M5.744 8.872L3.957 7.978C3.35 9.19 3 10.553 3 12C3 16.97 7.029 21 12 21C14.203 21 16.218 20.206 17.78 18.89" stroke="#161924" stroke-width="1.5" stroke-linecap="round" stroke-linejoin="round"/>
</svg>
