<svg width="24" height="24" viewBox="0 0 24 24" fill="none" xmlns="http://www.w3.org/2000/svg">
<path d="M17.0141 17.0151L19.4901 19.4912" stroke="#161924" stroke-width="1.5" stroke-linecap="round" stroke-linejoin="round"/>
<path d="M17.0141 19.4902L19.4901 17.0142" stroke="#161924" stroke-width="1.5" stroke-linecap="round" stroke-linejoin="round"/>
<path d="M13.0004 20.9418C12.6685 20.983 12.3344 21.0038 12 21.0038C7.02733 21.0038 2.99622 16.9727 2.99622 12.0001C2.99622 7.02745 7.02733 2.99634 12 2.99634C16.9726 2.99634 21.0037 7.02745 21.0037 12.0001C21.0037 12.3345 20.9828 12.6686 20.9417 13.0005" stroke="#161924" stroke-width="1.5" stroke-linecap="round" stroke-linejoin="round"/>
<path d="M11.9995 15.6266C11.9305 15.6269 11.8748 15.683 11.875 15.752C11.8752 15.821 11.9312 15.8768 12.0002 15.8767C12.0692 15.8766 12.1251 15.8207 12.1251 15.7517C12.1253 15.7184 12.1121 15.6864 12.0885 15.6629C12.0649 15.6394 12.0328 15.6263 11.9995 15.6266" stroke="#161924" stroke-width="1.5" stroke-linecap="round" stroke-linejoin="round"/>
<path d="M9.68469 9.68482C9.92172 8.66326 10.8522 7.95496 11.8999 7.99844C13.0726 7.93349 14.0779 8.82709 14.1509 9.99928C14.1509 11.5038 12 12.0001 12 13.0005" stroke="#161924" stroke-width="1.5" stroke-linecap="round" stroke-linejoin="round"/>
</svg>
