<svg width="24" height="24" viewBox="0 0 24 24" fill="none" xmlns="http://www.w3.org/2000/svg">
<path d="M13.25 12H15.751C16.0273 12 16.2513 12.224 16.2513 12.5002V14.501C16.2513 14.7773 16.0273 15.0013 15.751 15.0013H13.7502C13.474 15.0013 13.25 14.7773 13.25 14.501V12" stroke="#323232" stroke-width="1.5" stroke-linecap="round" stroke-linejoin="round"/>
<path d="M13.25 12C13.25 9.99914 13.6252 9.666 14.7506 8.99872" stroke="#323232" stroke-width="1.5" stroke-linecap="round" stroke-linejoin="round"/>
<path d="M7.74805 12H10.2491C10.5253 12 10.7493 12.224 10.7493 12.5002V14.501C10.7493 14.7773 10.5253 15.0013 10.2491 15.0013H8.24826C7.972 15.0013 7.74805 14.7773 7.74805 14.501V12" stroke="#323232" stroke-width="1.5" stroke-linecap="round" stroke-linejoin="round"/>
<path d="M7.74805 12C7.74805 9.99914 8.1232 9.666 9.24867 8.99872" stroke="#323232" stroke-width="1.5" stroke-linecap="round" stroke-linejoin="round"/>
<circle cx="11.9998" cy="12" r="9.00375" stroke="#323232" stroke-width="1.5" stroke-linecap="round" stroke-linejoin="round"/>
</svg>
