<svg width="24" height="24" viewBox="0 0 24 24" fill="none" xmlns="http://www.w3.org/2000/svg">
<path d="M22.4998 6.75V9C22.4998 9.19891 22.4208 9.38968 22.2802 9.53033C22.1395 9.67098 21.9488 9.75 21.7498 9.75C21.5509 9.75 21.3602 9.67098 21.2195 9.53033C21.0789 9.38968 20.9998 9.19891 20.9998 9V7.5H11.7702L7.45203 19.0134C7.39875 19.157 7.30282 19.2808 7.17713 19.3682C7.05144 19.4556 6.902 19.5024 6.7489 19.5024C6.5958 19.5024 6.44637 19.4556 6.32067 19.3682C6.19498 19.2808 6.09905 19.157 6.04578 19.0134L1.54578 7.01344C1.51118 6.9211 1.49511 6.82286 1.49849 6.72431C1.50186 6.62577 1.52461 6.52885 1.56544 6.4391C1.60627 6.34934 1.66438 6.26851 1.73644 6.20121C1.80851 6.13391 1.89313 6.08147 1.98546 6.04688C2.0778 6.01228 2.17605 5.99621 2.27459 5.99959C2.37314 6.00296 2.47005 6.02571 2.55981 6.06654C2.64956 6.10737 2.73039 6.16547 2.79769 6.23754C2.86499 6.30961 2.91743 6.39423 2.95203 6.48656L6.74984 16.6144L10.5477 6.48938C10.6008 6.34593 10.6966 6.22216 10.8221 6.13469C10.9476 6.04722 11.0969 6.00022 11.2498 6H21.7498C21.9488 6 22.1395 6.07902 22.2802 6.21967C22.4208 6.36032 22.4998 6.55109 22.4998 6.75Z" fill="#161924"/>
</svg>
