<svg width="24" height="24" viewBox="0 0 24 24" fill="none" xmlns="http://www.w3.org/2000/svg">
<path d="M13 14H15" stroke="#161924" stroke-width="1.5" stroke-linecap="round" stroke-linejoin="round"/>
<path d="M3 11H20.7163" stroke="#161924" stroke-width="1.5" stroke-linecap="round" stroke-linejoin="round"/>
<path fill-rule="evenodd" clip-rule="evenodd" d="M13.7715 21H5C3.89543 21 3 20.1046 3 19V6C3 4.89543 3.89543 4 5 4H14.6263C16.7106 3.99999 18.5762 5.29285 19.308 7.24438L20.8727 11.4169C21.015 11.7965 21.0387 12.2104 20.9404 12.6038L20.3476 14.9771C20.1907 15.5575 19.7108 15.9939 19.118 16.0948C17.1896 16.4791 15.6648 17.9566 15.2198 19.8718C15.0575 20.5385 14.4576 21.0057 13.7715 21V21Z" stroke="#161924" stroke-width="1.5" stroke-linecap="round" stroke-linejoin="round"/>
</svg>
