<svg width="24" height="24" viewBox="0 0 24 24" fill="none" xmlns="http://www.w3.org/2000/svg">
<path d="M16 20C17 18.4833 17 16.5167 16 15C15 13.4833 15 11.5167 16 10" stroke="#161924" stroke-width="1.5" stroke-linecap="round" stroke-linejoin="round"/>
<path d="M19 15H20C21.1046 15 22 14.1046 22 13V6C22 4.89543 21.1046 4 20 4H4C2.89543 4 2 4.89543 2 6V13C2 14.1046 2.89543 15 4 15H6" stroke="#161924" stroke-width="1.5" stroke-linecap="round" stroke-linejoin="round"/>
<path d="M9 20C10 18.4833 10 16.5167 9 15C8 13.4833 8 11.5167 9 10" stroke="#161924" stroke-width="1.5" stroke-linecap="round" stroke-linejoin="round"/>
<path d="M12.5 20C13.5 18.4833 13.5 16.5167 12.5 15C11.5 13.4833 11.5 11.5167 12.5 10" stroke="#161924" stroke-width="1.5" stroke-linecap="round" stroke-linejoin="round"/>
</svg>
