<svg width="24" height="24" viewBox="0 0 24 24" fill="none" xmlns="http://www.w3.org/2000/svg">
<path d="M9.89844 14.1008L14.1002 9.89905" stroke="#161924" stroke-width="1.5" stroke-linecap="round" stroke-linejoin="round"/>
<path d="M14.2899 13.9538C14.3839 14.0478 14.3839 14.1999 14.2899 14.2929C14.1959 14.387 14.0438 14.387 13.9508 14.2929C13.8567 14.1989 13.8567 14.0468 13.9508 13.9538C14.0438 13.8598 14.1959 13.8598 14.2899 13.9538" stroke="#161924" stroke-width="1.5" stroke-linecap="round" stroke-linejoin="round"/>
<path d="M10.0485 9.70704C10.1425 9.80108 10.1425 9.95314 10.0485 10.0462C9.95446 10.1402 9.8024 10.1402 9.70936 10.0462C9.61632 9.95214 9.61532 9.80008 9.70936 9.70704C9.8034 9.614 9.95546 9.613 10.0485 9.70704" stroke="#161924" stroke-width="1.5" stroke-linecap="round" stroke-linejoin="round"/>
<path fill-rule="evenodd" clip-rule="evenodd" d="M3.99707 4.77496V19.5031C3.99707 20.2464 4.7794 20.7306 5.44467 20.3975L6.21599 20.0113C6.49811 19.8702 6.82925 19.8702 7.11037 20.0113L8.88411 20.8977C9.16522 21.0387 9.49736 21.0387 9.77848 20.8977L11.5522 20.0113C11.8333 19.8702 12.1655 19.8702 12.4466 20.0113L14.2203 20.8977C14.5024 21.0387 14.8336 21.0387 15.1157 20.8977L16.8874 20.0113C17.1696 19.8702 17.5007 19.8702 17.7828 20.0113L18.5551 20.3975C19.2214 20.7306 20.0037 20.2464 20.0037 19.5031V4.77496C20.0037 3.79255 19.2074 2.99622 18.225 2.99622H5.77581C4.7934 2.99622 3.99707 3.79255 3.99707 4.77496Z" stroke="#161924" stroke-width="1.5" stroke-linecap="round" stroke-linejoin="round"/>
</svg>
