<svg width="24" height="24" viewBox="0 0 24 24" fill="none" xmlns="http://www.w3.org/2000/svg">
<path d="M16 8H8" stroke="#161924" stroke-width="1.5" stroke-linecap="round" stroke-linejoin="round"/>
<path d="M16 12H8" stroke="#161924" stroke-width="1.5" stroke-linecap="round" stroke-linejoin="round"/>
<path d="M16 16H8" stroke="#161924" stroke-width="1.5" stroke-linecap="round" stroke-linejoin="round"/>
<path fill-rule="evenodd" clip-rule="evenodd" d="M12.447 3.99199L14.22 3.10599C14.501 2.96499 14.833 2.96499 15.114 3.10599L16.887 3.99199C17.169 4.13299 17.5 4.13299 17.781 3.99199L18.552 3.60599C19.218 3.27299 20 3.75599 20 4.49999V19.5C20 20.243 19.218 20.727 18.553 20.394L17.781 20.008C17.499 19.867 17.168 19.867 16.886 20.008L15.115 20.894C14.833 21.035 14.502 21.035 14.22 20.894L12.447 20.008C12.166 19.867 11.834 19.867 11.553 20.008L9.78 20.894C9.499 21.035 9.167 21.035 8.886 20.894L7.113 20.008C6.831 19.867 6.5 19.867 6.219 20.008L5.448 20.394C4.782 20.727 4 20.244 4 19.5V4.49999C4 3.75699 4.782 3.27299 5.447 3.60599L6.22 3.99199C6.502 4.13299 6.833 4.13299 7.115 3.99199L8.886 3.10599C9.168 2.96499 9.499 2.96499 9.781 3.10599L11.554 3.99199C11.834 4.13199 12.166 4.13199 12.447 3.99199V3.99199Z" stroke="#161924" stroke-width="1.5" stroke-linecap="round" stroke-linejoin="round"/>
</svg>
