<svg width="24" height="24" viewBox="0 0 24 24" fill="none" xmlns="http://www.w3.org/2000/svg">
<path d="M8.00806 14.506C8.53906 15.353 9.29406 16.085 10.6741 16.465C12.0671 16.848 13.6071 16.672 14.7751 15.821C15.8821 15.015 16.4881 13.866 16.6581 12.668" stroke="#161924" stroke-width="1.5" stroke-linecap="round" stroke-linejoin="round"/>
<path d="M7.34204 11.332C7.51304 10.13 8.12304 8.98 9.23104 8.175C10.397 7.328 11.933 7.157 13.323 7.539C14.709 7.919 15.465 8.649 15.992 9.494" stroke="#161924" stroke-width="1.5" stroke-linecap="round" stroke-linejoin="round"/>
<path d="M7.82397 16.506V14.506H9.82397" stroke="#161924" stroke-width="1.5" stroke-linecap="round" stroke-linejoin="round"/>
<path d="M16.176 7.49402V9.49402H14.176" stroke="#161924" stroke-width="1.5" stroke-linecap="round" stroke-linejoin="round"/>
<path fill-rule="evenodd" clip-rule="evenodd" d="M18 21H6C4.343 21 3 19.657 3 18V6C3 4.343 4.343 3 6 3H18C19.657 3 21 4.343 21 6V18C21 19.657 19.657 21 18 21Z" stroke="#161924" stroke-width="1.5" stroke-linecap="round" stroke-linejoin="round"/>
</svg>
