<svg width="24" height="24" viewBox="0 0 24 24" fill="none" xmlns="http://www.w3.org/2000/svg">
<path d="M19.139 4.82901C19.761 5.45101 19.761 6.46101 19.139 7.08301C18.517 7.70501 17.507 7.70501 16.885 7.08301C16.263 6.46101 16.263 5.45101 16.885 4.82901C17.507 4.20601 18.517 4.20601 19.139 4.82901" stroke="#161924" stroke-width="1.5" stroke-linecap="round" stroke-linejoin="round"/>
<path d="M19.139 4.82901C19.761 5.45101 19.761 6.46101 19.139 7.08301C18.517 7.70501 17.507 7.70501 16.885 7.08301C16.263 6.46101 16.263 5.45101 16.885 4.82901C17.507 4.20601 18.517 4.20601 19.139 4.82901" stroke="#161924" stroke-width="1.5" stroke-linecap="round" stroke-linejoin="round"/>
<path d="M9.52301 20.133C10.306 20.371 11.136 20.501 11.997 20.501H11.999C14.175 20.501 16.351 19.671 18.011 18.011C20.055 15.968 20.835 13.144 20.363 10.499" stroke="#161924" stroke-width="1.5" stroke-linecap="round" stroke-linejoin="round"/>
<path d="M5.53802 6.48599C5.97302 5.97599 6.46902 5.52199 7.01302 5.12799" stroke="#161924" stroke-width="1.5" stroke-linecap="round" stroke-linejoin="round"/>
<path d="M3.992 9.16803C3.678 10.056 3.498 11.006 3.498 12.001" stroke="#161924" stroke-width="1.5" stroke-linecap="round" stroke-linejoin="round"/>
<path d="M7.01302 18.876C5.63402 17.875 4.57402 16.469 3.99402 14.835" stroke="#161924" stroke-width="1.5" stroke-linecap="round" stroke-linejoin="round"/>
<path d="M14.121 9.879C15.293 11.051 15.293 12.95 14.121 14.122C12.949 15.294 11.05 15.294 9.87802 14.122C8.70602 12.95 8.70602 11.051 9.87802 9.879C11.05 8.707 12.95 8.707 14.121 9.879" stroke="#161924" stroke-width="1.5" stroke-linecap="round" stroke-linejoin="round"/>
<path d="M9.52301 3.87001C10.306 3.63201 11.136 3.50201 11.997 3.50201L12 3.50301C13.667 3.50401 15.335 3.99101 16.77 4.96701" stroke="#161924" stroke-width="1.5" stroke-linecap="round" stroke-linejoin="round"/>
</svg>
