<svg width="24" height="24" viewBox="0 0 24 24" fill="none" xmlns="http://www.w3.org/2000/svg">
<path fill-rule="evenodd" clip-rule="evenodd" d="M12.833 18H8.658L5.984 20.651C5.249 21.38 4 20.859 4 19.824V9.16702C4 8.13002 5.254 7.61002 5.988 8.34402L13.657 16.013C14.39 16.746 13.871 18 12.833 18Z" stroke="#161924" stroke-width="1.5" stroke-linecap="round" stroke-linejoin="round"/>
<path d="M20.5355 3.46447C22.4881 5.41709 22.4881 8.58291 20.5355 10.5355C18.5829 12.4882 15.417 12.4882 13.4644 10.5355C11.5118 8.58291 11.5118 5.41709 13.4644 3.46447C15.417 1.51184 18.5829 1.51184 20.5355 3.46447" stroke="#161924" stroke-width="1.5" stroke-linecap="round" stroke-linejoin="round"/>
<path d="M12.67 9.5V9.5C12.044 8.415 12.362 7.032 13.399 6.33L13.4 6.329C14.233 5.766 15.329 5.785 16.142 6.376L17.858 7.624C18.671 8.215 19.767 8.234 20.6 7.671L20.601 7.67C21.638 6.968 21.957 5.584 21.33 4.5V4.5" stroke="#161924" stroke-width="1.5" stroke-linecap="round" stroke-linejoin="round"/>
<path d="M19.501 11.33V11.33C18.416 11.956 17.033 11.638 16.331 10.601L16.33 10.6C15.767 9.767 15.786 8.671 16.377 7.858L17.625 6.142C18.216 5.329 18.235 4.233 17.672 3.4L17.67 3.399C16.968 2.362 15.584 2.043 14.5 2.67V2.67" stroke="#161924" stroke-width="1.5" stroke-linecap="round" stroke-linejoin="round"/>
</svg>
