<svg width="24" height="24" viewBox="0 0 24 24" fill="none" xmlns="http://www.w3.org/2000/svg">
<path d="M7.45701 13.982L9.41301 12.026C9.74901 11.69 10.325 11.928 10.325 12.404V19.411C10.325 19.706 10.086 19.945 9.79101 19.945H2.78301C2.30801 19.945 2.07001 19.37 2.40501 19.033L4.18301 17.255C3.37201 16.009 2.89701 14.524 2.89701 12.927C2.89701 8.713 6.17801 5.273 10.324 5C7.72901 5.264 5.70501 7.455 5.70501 10.119C5.70501 11.66 6.38601 13.037 7.45701 13.98" stroke="#161924" stroke-width="1.5" stroke-linecap="round" stroke-linejoin="round"/>
<path d="M16.791 10.962L14.835 12.918C14.499 13.254 13.923 13.016 13.923 12.54V5.534C13.923 5.239 14.162 5 14.457 5H21.465C21.94 5 22.178 5.575 21.843 5.912L20.065 7.69C20.876 8.936 21.351 10.421 21.351 12.018C21.351 16.232 18.07 19.672 13.924 19.945C16.519 19.681 18.543 17.49 18.543 14.826C18.543 13.285 17.862 11.908 16.791 10.965" stroke="#161924" stroke-width="1.5" stroke-linecap="round" stroke-linejoin="round"/>
</svg>
