<svg width="24" height="24" viewBox="0 0 24 24" fill="none" xmlns="http://www.w3.org/2000/svg">
<path d="M12 20.0034C14.9314 20.0036 17.6284 18.4013 19.0299 15.8267" stroke="#161924" stroke-width="1.5" stroke-linecap="round" stroke-linejoin="round"/>
<path d="M20.0033 12.0002C20.0033 7.58004 16.4201 3.99683 12 3.99683" stroke="#161924" stroke-width="1.5" stroke-linecap="round" stroke-linejoin="round"/>
<path d="M12 3.99683C9.06863 3.99658 6.37166 5.59895 4.97009 8.17357" stroke="#161924" stroke-width="1.5" stroke-linecap="round" stroke-linejoin="round"/>
<path d="M3.99664 12C3.99664 16.4201 7.57986 20.0033 12 20.0033" stroke="#161924" stroke-width="1.5" stroke-linecap="round" stroke-linejoin="round"/>
<path d="M4.97009 8.17359C6.71956 4.95857 10.4272 3.34006 13.9743 4.24295C17.5213 5.14583 20.0039 8.33999 20.0034 12.0002" stroke="#161924" stroke-width="1.5" stroke-linecap="round" stroke-linejoin="round"/>
<path d="M3.99664 12C3.99608 15.6602 6.47866 18.8544 10.0257 19.7572C13.5728 20.6601 17.2804 19.0416 19.0299 15.8266" stroke="#161924" stroke-width="1.5" stroke-linecap="round" stroke-linejoin="round"/>
<path d="M8.04532 8.17346H4.50885V4.63599" stroke="#161924" stroke-width="1.5" stroke-linecap="round" stroke-linejoin="round"/>
<path d="M15.9547 15.8267H19.4911V19.3641" stroke="#161924" stroke-width="1.5" stroke-linecap="round" stroke-linejoin="round"/>
</svg>
