<svg width="24" height="24" viewBox="0 0 24 24" fill="none" xmlns="http://www.w3.org/2000/svg">
<path d="M8.00806 14.506C8.53906 15.353 9.29406 16.085 10.6741 16.465C12.0671 16.848 13.6071 16.672 14.7751 15.821C15.8821 15.015 16.4881 13.866 16.6581 12.668" stroke="#161924" stroke-width="1.5" stroke-linecap="round" stroke-linejoin="round"/>
<path d="M7.34204 11.332C7.51304 10.13 8.12304 8.98 9.23104 8.175C10.397 7.328 11.933 7.157 13.323 7.539C14.709 7.919 15.465 8.649 15.992 9.494" stroke="#161924" stroke-width="1.5" stroke-linecap="round" stroke-linejoin="round"/>
<path d="M7.82397 16.506V14.506H9.82397" stroke="#161924" stroke-width="1.5" stroke-linecap="round" stroke-linejoin="round"/>
<path d="M16.176 7.49402V9.49402H14.176" stroke="#161924" stroke-width="1.5" stroke-linecap="round" stroke-linejoin="round"/>
<path fill-rule="evenodd" clip-rule="evenodd" d="M12 21V21C7.029 21 3 16.971 3 12V12C3 7.029 7.029 3 12 3V3C16.971 3 21 7.029 21 12V12C21 16.971 16.971 21 12 21Z" stroke="#161924" stroke-width="1.5" stroke-linecap="round" stroke-linejoin="round"/>
</svg>
