<svg width="24" height="24" viewBox="0 0 24 24" fill="none" xmlns="http://www.w3.org/2000/svg">
<path d="M12 21C7.03 21 3 16.97 3 12C3 7.03 7.03 3 12 3C16.972 3 21 7.03 21 12C21 16.97 16.972 21 12 21" stroke="#161924" stroke-width="1.5" stroke-linecap="round" stroke-linejoin="round"/>
<path d="M15.188 11.069L15.917 10.34C16.574 11.89 16.272 13.747 15.008 15.009C13.995 16.022 12.601 16.404 11.291 16.179" stroke="#161924" stroke-width="1.5" stroke-linecap="round" stroke-linejoin="round"/>
<path d="M8.81194 12.931L8.08294 13.66C7.42594 12.11 7.72794 10.253 8.99194 8.99099C10.0669 7.91599 11.5709 7.55499 12.9499 7.86999" stroke="#161924" stroke-width="1.5" stroke-linecap="round" stroke-linejoin="round"/>
</svg>
