<svg width="24" height="24" viewBox="0 0 24 24" fill="none" xmlns="http://www.w3.org/2000/svg">
<path d="M6.72197 19.278C6.14597 18.861 5.62097 18.38 5.15997 17.84" stroke="#161924" stroke-width="1.5" stroke-linecap="round" stroke-linejoin="round"/>
<path d="M3.52301 9C4.08401 7.417 5.06801 6.035 6.34901 5" stroke="#161924" stroke-width="1.5" stroke-linecap="round" stroke-linejoin="round"/>
<path d="M2.99997 12C2.99997 13.054 3.18997 14.06 3.52297 15" stroke="#161924" stroke-width="1.5" stroke-linecap="round" stroke-linejoin="round"/>
<path d="M14.828 9.172C16.39 10.734 16.39 13.267 14.828 14.829C13.266 16.391 10.733 16.391 9.17101 14.829C7.60901 13.267 7.60901 10.734 9.17101 9.172C10.733 7.61 13.266 7.609 14.828 9.172" stroke="#161924" stroke-width="1.5" stroke-linecap="round" stroke-linejoin="round"/>
<path d="M20.424 4.80298V7.69598H17.531H20.424" stroke="#161924" stroke-width="1.5" stroke-linecap="round" stroke-linejoin="round"/>
<path d="M19.905 7.696C18.379 4.899 15.412 3 12 3C11.088 3 10.209 3.138 9.38 3.39" stroke="#161924" stroke-width="1.5" stroke-linecap="round" stroke-linejoin="round"/>
<path d="M21 12C21 16.97 16.971 21 12 21C11.221 21 10.473 20.881 9.75299 20.694" stroke="#161924" stroke-width="1.5" stroke-linecap="round" stroke-linejoin="round"/>
</svg>
