<svg width="24" height="24" viewBox="0 0 24 24" fill="none" xmlns="http://www.w3.org/2000/svg">
<path d="M11.46 4.271C10.494 4.315 9.52101 4.524 8.58001 4.932C5.06301 6.458 3.16601 10.152 3.75601 13.771" stroke="#161924" stroke-width="1.5" stroke-linecap="round" stroke-linejoin="round"/>
<path d="M19.125 16.216C19.569 15.357 19.875 14.41 19.992 13.392C20.43 9.58298 18.178 6.09398 14.749 4.79498" stroke="#161924" stroke-width="1.5" stroke-linecap="round" stroke-linejoin="round"/>
<path d="M8.88501 2.84399L11.726 3.81099L10.344 6.20699" stroke="#161924" stroke-width="1.5" stroke-linecap="round" stroke-linejoin="round"/>
<path d="M21.6501 14.702L19.3921 16.679L18.0081 14.284" stroke="#161924" stroke-width="1.5" stroke-linecap="round" stroke-linejoin="round"/>
<path d="M4.99804 19.827L4.41504 16.883L7.18104 16.882" stroke="#161924" stroke-width="1.5" stroke-linecap="round" stroke-linejoin="round"/>
<path d="M4.94702 16.884C5.46902 17.699 6.13602 18.437 6.95902 19.047C10.039 21.33 14.187 21.126 17.026 18.805" stroke="#161924" stroke-width="1.5" stroke-linecap="round" stroke-linejoin="round"/>
</svg>
