<svg width="24" height="24" viewBox="0 0 24 24" fill="none" xmlns="http://www.w3.org/2000/svg">
<path d="M14.531 9.46901C15.929 10.867 15.929 13.133 14.531 14.53C13.133 15.927 10.867 15.928 9.47 14.53C8.073 13.132 8.072 10.866 9.47 9.46901C10.868 8.07201 13.133 8.07201 14.531 9.46901" stroke="#161924" stroke-width="1.5" stroke-linecap="round" stroke-linejoin="round"/>
<path d="M20.523 9.13403C21.575 12.27 20.861 15.867 18.364 18.364C14.849 21.879 9.15102 21.879 5.63602 18.364L7.75702 17.657" stroke="#161924" stroke-width="1.5" stroke-linecap="round" stroke-linejoin="round"/>
<path d="M16.243 6.34301L18.364 5.63601C14.849 2.12101 9.151 2.12101 5.636 5.63601C3.139 8.13301 2.425 11.731 3.477 14.866" stroke="#161924" stroke-width="1.5" stroke-linecap="round" stroke-linejoin="round"/>
</svg>
