<svg width="24" height="24" viewBox="0 0 24 24" fill="none" xmlns="http://www.w3.org/2000/svg">
<path d="M12 8.45599L10.819 7.27499L12 6.09399" stroke="#161924" stroke-width="1.5" stroke-linecap="round" stroke-linejoin="round"/>
<path d="M18.364 5.63604C21.8787 9.15076 21.8787 14.8492 18.364 18.3639C14.8493 21.8787 9.1508 21.8787 5.6361 18.3639C2.12138 14.8492 2.12138 9.15074 5.6361 5.63604C9.15082 2.12132 14.8493 2.12132 18.364 5.63604" stroke="#161924" stroke-width="1.5" stroke-linecap="round" stroke-linejoin="round"/>
<path d="M13.051 16.595C12.712 16.673 12.363 16.722 12 16.722C9.39202 16.722 7.27802 14.608 7.27802 12C7.27802 10.937 7.64202 9.96698 8.23402 9.17798" stroke="#161924" stroke-width="1.5" stroke-linecap="round" stroke-linejoin="round"/>
<path d="M15.766 14.822C16.358 14.033 16.722 13.063 16.722 12C16.722 9.39202 14.608 7.27802 12 7.27802C11.637 7.27802 11.288 7.32702 10.949 7.40502" stroke="#161924" stroke-width="1.5" stroke-linecap="round" stroke-linejoin="round"/>
<path d="M12 15.544L13.181 16.725L12 17.906" stroke="#161924" stroke-width="1.5" stroke-linecap="round" stroke-linejoin="round"/>
</svg>
