<svg width="24" height="24" viewBox="0 0 24 24" fill="none" xmlns="http://www.w3.org/2000/svg">
<path d="M18.364 5.63604C21.8787 9.15076 21.8787 14.8492 18.364 18.3639C14.8493 21.8787 9.1508 21.8787 5.6361 18.3639C2.12138 14.8492 2.12138 9.15074 5.6361 5.63604C9.15082 2.12132 14.8493 2.12132 18.364 5.63604" stroke="#161924" stroke-width="1.5" stroke-linecap="round" stroke-linejoin="round"/>
<path d="M15.15 11.898L16.025 12.835L16.9 11.898" stroke="#161924" stroke-width="1.5" stroke-linecap="round" stroke-linejoin="round"/>
<path d="M9.69897 8.60798C10.356 8.15998 11.145 7.89398 12 7.89398C14.268 7.89398 16.106 9.73198 16.106 12C16.106 12.275 16.077 12.543 16.025 12.804" stroke="#161924" stroke-width="1.5" stroke-linecap="round" stroke-linejoin="round"/>
<path d="M8.84998 12.017L7.97498 11.081L7.09998 12.017" stroke="#161924" stroke-width="1.5" stroke-linecap="round" stroke-linejoin="round"/>
<path d="M14.301 15.308C13.645 15.756 12.855 16.021 12 16.021C9.73198 16.021 7.89398 14.183 7.89398 11.915C7.89398 11.64 7.92298 11.372 7.97498 11.111" stroke="#161924" stroke-width="1.5" stroke-linecap="round" stroke-linejoin="round"/>
</svg>
