<svg width="24" height="24" viewBox="0 0 24 24" fill="none" xmlns="http://www.w3.org/2000/svg">
<path d="M2.34668 16.153L7.61568 10.884" stroke="#161924" stroke-width="1.5" stroke-linecap="round" stroke-linejoin="round"/>
<path d="M19 13.105V6.01099" stroke="#161924" stroke-width="1.5" stroke-linecap="round" stroke-linejoin="round"/>
<path d="M2 6.01099V15C2 16.105 2.846 17 3.889 17H13.999" stroke="#161924" stroke-width="1.5" stroke-linecap="round" stroke-linejoin="round"/>
<path fill-rule="evenodd" clip-rule="evenodd" d="M16.989 4H4.011C2.9 4 2 4.9 2 6.011V6.011C2 6.678 2.331 7.301 2.883 7.675L8.24 11.306C9.605 12.231 11.397 12.231 12.762 11.306L18.118 7.676C18.669 7.302 19 6.678 19 6.011V6.011C19 4.9 18.1 4 16.989 4V4Z" stroke="#161924" stroke-width="1.5" stroke-linecap="round" stroke-linejoin="round"/>
<path d="M16.0299 13.53L13.3799 10.88" stroke="#161924" stroke-width="1.5" stroke-linecap="round" stroke-linejoin="round"/>
<path d="M20.8275 14.172C22.3895 15.734 22.3895 18.267 20.8275 19.829C19.2655 21.391 16.7325 21.391 15.1705 19.829C13.6085 18.267 13.6085 15.734 15.1705 14.172C16.7325 12.61 19.2655 12.609 20.8275 14.172" stroke="#161924" stroke-width="1.5" stroke-linecap="round" stroke-linejoin="round"/>
<path d="M19.6004 17H16.4004" stroke="#161924" stroke-width="1.5" stroke-linecap="round" stroke-linejoin="round"/>
<path d="M18.0004 18.6L16.4004 17L18.0004 15.4" stroke="#161924" stroke-width="1.5" stroke-linecap="round" stroke-linejoin="round"/>
</svg>
