<svg width="24" height="24" viewBox="0 0 24 24" fill="none" xmlns="http://www.w3.org/2000/svg">
<path fill-rule="evenodd" clip-rule="evenodd" d="M16.75 14.861C16.75 11.413 14.453 9.93701 11.686 9.93701V8.05001C11.686 7.52601 11.073 7.24201 10.673 7.58101L6.74103 10.918C6.46003 11.156 6.45303 11.588 6.72603 11.835L10.658 15.399C11.053 15.757 11.686 15.477 11.686 14.943V13.058C13.871 13.058 15.814 13.289 16.75 15.553V14.861Z" stroke="#161924" stroke-width="1.5" stroke-linecap="round" stroke-linejoin="round"/>
<path fill-rule="evenodd" clip-rule="evenodd" d="M18 21.014H6C4.343 21.014 3 19.671 3 18.014V6.01398C3 4.35698 4.343 3.01398 6 3.01398H18C19.657 3.01398 21 4.35698 21 6.01398V18.014C21 19.671 19.657 21.014 18 21.014Z" stroke="#161924" stroke-width="1.5" stroke-linecap="round" stroke-linejoin="round"/>
</svg>
