<svg width="24" height="24" viewBox="0 0 24 24" fill="none" xmlns="http://www.w3.org/2000/svg">
<path fill-rule="evenodd" clip-rule="evenodd" d="M15.52 10.452L16.829 9.14299C17.077 8.89599 17.5 9.07099 17.5 9.42099V14.579C17.5 14.796 17.324 14.972 17.107 14.972H11.949C11.599 14.972 11.424 14.549 11.671 14.301L13.111 12.861C12.417 12.072 11.402 11.571 10.269 11.571C8.30798 11.571 6.69498 13.061 6.50098 14.971C6.70098 11.919 9.23298 9.50399 12.336 9.50399C13.51 9.50599 14.603 9.85599 15.52 10.452Z" stroke="#161924" stroke-width="1.5" stroke-linecap="round" stroke-linejoin="round"/>
<path fill-rule="evenodd" clip-rule="evenodd" d="M17 21H7C4.791 21 3 19.209 3 17V7C3 4.791 4.791 3 7 3H17C19.209 3 21 4.791 21 7V17C21 19.209 19.209 21 17 21Z" stroke="#161924" stroke-width="1.5" stroke-linecap="round" stroke-linejoin="round"/>
</svg>
