<svg width="24" height="24" viewBox="0 0 24 24" fill="none" xmlns="http://www.w3.org/2000/svg">
<path fill-rule="evenodd" clip-rule="evenodd" d="M16.7497 14.861C16.7497 11.413 14.4527 9.93701 11.6857 9.93701V8.05001C11.6857 7.52601 11.0727 7.24201 10.6727 7.58101L6.74072 10.918C6.45972 11.156 6.45272 11.588 6.72572 11.835L10.6577 15.399C11.0527 15.757 11.6857 15.477 11.6857 14.943V13.058C13.8707 13.058 15.8137 13.289 16.7497 15.553V14.861Z" stroke="#161924" stroke-width="1.5" stroke-linecap="round" stroke-linejoin="round"/>
<path d="M5.63625 5.63599C9.21125 2.06099 15.0442 2.12199 18.5422 5.81899C21.7712 9.23199 21.7712 14.768 18.5422 18.181C15.0442 21.878 9.21125 21.939 5.63625 18.364C2.12125 14.849 2.12125 9.15099 5.63625 5.63599" stroke="#161924" stroke-width="1.5" stroke-linecap="round" stroke-linejoin="round"/>
</svg>
