<svg width="24" height="24" viewBox="0 0 24 24" fill="none" xmlns="http://www.w3.org/2000/svg">
<path d="M18.4 5.59998C21.9 9.09998 21.9 14.8 18.4 18.3C14.9 21.8 9.20001 21.8 5.70001 18.3C2.20001 14.8 2.20001 9.09998 5.70001 5.59998C9.20001 2.09998 14.8 2.09998 18.4 5.59998" stroke="#161924" stroke-width="1.5" stroke-linecap="round" stroke-linejoin="round"/>
<path fill-rule="evenodd" clip-rule="evenodd" d="M12.3 12.6C10.1 12.6 8.20001 13.4 7.20001 15.7V15C7.20001 11.6 9.50001 9.5 12.3 9.5V8C12.3 7.5 12.9 7.2 13.3 7.5L17 10.6C17.3 10.8 17.3 11.3 17 11.5L13.3 14.9C12.9 15.3 12.3 15 12.3 14.4V12.6Z" stroke="#161924" stroke-width="1.5" stroke-linecap="round" stroke-linejoin="round"/>
</svg>
