<svg width="24" height="24" viewBox="0 0 24 24" fill="none" xmlns="http://www.w3.org/2000/svg">
<path d="M5.402 18.763C3.939 17.48 2.892 15.735 2.5 13.75" stroke="#161924" stroke-width="1.5" stroke-linecap="round" stroke-linejoin="round"/>
<path d="M14.2219 20.515C13.3129 20.825 12.3409 21 11.3269 21C10.3129 21 9.34091 20.825 8.43091 20.515" stroke="#161924" stroke-width="1.5" stroke-linecap="round" stroke-linejoin="round"/>
<path d="M14.2219 3.48499C13.3129 3.17499 12.3409 2.99999 11.3269 2.99999C10.3129 2.99999 9.34091 3.17499 8.43091 3.48499" stroke="#161924" stroke-width="1.5" stroke-linecap="round" stroke-linejoin="round"/>
<path d="M17.252 18.763C18.715 17.48 19.762 15.735 20.154 13.75" stroke="#161924" stroke-width="1.5" stroke-linecap="round" stroke-linejoin="round"/>
<path d="M2.5 10.25C2.891 8.265 3.938 6.521 5.402 5.237" stroke="#161924" stroke-width="1.5" stroke-linecap="round" stroke-linejoin="round"/>
<path fill-rule="evenodd" clip-rule="evenodd" d="M16.0441 10.25H20.5131C21.2711 10.25 21.7461 9.42899 21.3661 8.77199L19.1311 4.90199C18.7521 4.24499 17.8041 4.24499 17.4241 4.90199L15.1891 8.77199C14.8121 9.42899 15.2861 10.25 16.0441 10.25V10.25Z" stroke="#161924" stroke-width="1.5" stroke-linecap="round" stroke-linejoin="round"/>
</svg>
