<svg width="24" height="24" viewBox="0 0 24 24" fill="none" xmlns="http://www.w3.org/2000/svg">
<path fill-rule="evenodd" clip-rule="evenodd" d="M19.5 6L16 9L12.5 6L13.375 4H18.625L19.5 6Z" stroke="#161924" stroke-width="1.5" stroke-linecap="round" stroke-linejoin="round"/>
<path d="M9.74156 9.25876C7.03116 8.43073 4.11039 9.60644 2.72954 12.0813C1.34869 14.5562 1.88218 17.6592 4.01033 19.5308C6.13847 21.4024 9.28419 21.5351 11.5624 19.8494C13.8406 18.1637 14.6336 15.1167 13.466 12.5343" stroke="#161924" stroke-width="1.5" stroke-linecap="round" stroke-linejoin="round"/>
<path d="M14.2583 20.7413C16.9687 21.5693 19.8894 20.3936 21.2703 17.9187C22.6511 15.4438 22.1176 12.3408 19.9895 10.4692C17.8613 8.59757 14.7156 8.46487 12.4374 10.1506C10.1592 11.8363 9.36626 14.8833 10.5338 17.4657" stroke="#161924" stroke-width="1.5" stroke-linecap="round" stroke-linejoin="round"/>
</svg>
