<svg width="24" height="24" viewBox="0 0 24 24" fill="none" xmlns="http://www.w3.org/2000/svg">
<path d="M12 3.5V2" stroke="#161924" stroke-width="1.5" stroke-linecap="round" stroke-linejoin="round"/>
<path fill-rule="evenodd" clip-rule="evenodd" d="M8.51238 8.907L8.71738 8.527C8.89138 8.202 9.23038 8 9.59838 8H14.4034C14.7714 8 15.1094 8.202 15.2844 8.526L15.4894 8.906C15.7094 9.316 15.6184 9.824 15.2684 10.131L12.6614 12.42C12.2844 12.751 11.7194 12.751 11.3414 12.42L8.73438 10.131C8.38438 9.825 8.29238 9.317 8.51238 8.907V8.907Z" stroke="#161924" stroke-width="1.5" stroke-linecap="round" stroke-linejoin="round"/>
<path d="M18 6L19 5" stroke="#161924" stroke-width="1.5" stroke-linecap="round" stroke-linejoin="round"/>
<path d="M6 6L5 5" stroke="#161924" stroke-width="1.5" stroke-linecap="round" stroke-linejoin="round"/>
<path d="M9.75023 11.024C7.71423 11.996 6.39123 14.221 6.83623 16.714C7.20323 18.765 8.82423 20.453 10.8632 20.88C14.2592 21.592 17.2492 19.02 17.2492 15.749C17.2492 13.658 16.0182 11.868 14.2492 11.023" stroke="#161924" stroke-width="1.5" stroke-linecap="round" stroke-linejoin="round"/>
</svg>
