<svg width="24" height="24" viewBox="0 0 24 24" fill="none" xmlns="http://www.w3.org/2000/svg">
<path d="M4 4.5V19C4 20.105 4.895 21 6 21H18C19.105 21 20 20.105 20 19V8C20 6.895 19.105 6 18 6H5.5C4.672 6 4 5.328 4 4.5V4.5C4 3.672 4.672 3 5.5 3H18" stroke="#161924" stroke-width="1.5" stroke-linecap="round" stroke-linejoin="round"/>
<path fill-rule="evenodd" clip-rule="evenodd" d="M13.4794 10.5C14.7494 10.5 15.6004 11.617 15.6004 12.658C15.6004 14.77 12.0644 16.5 12.0004 16.5C11.9364 16.5 8.40039 14.77 8.40039 12.658C8.40039 11.617 9.25239 10.5 10.5214 10.5C11.2474 10.5 11.7244 10.839 12.0004 11.142C12.2764 10.839 12.7524 10.5 13.4794 10.5Z" stroke="#161924" stroke-width="1.5" stroke-linecap="round" stroke-linejoin="round"/>
</svg>
