<svg width="24" height="24" viewBox="0 0 24 24" fill="none" xmlns="http://www.w3.org/2000/svg">
<path d="M10.8359 5.35401L8.9519 3.95601C9.9019 3.59601 10.9279 3.39001 12.0029 3.39001C16.0299 3.39001 19.4009 6.15701 20.3459 9.89001" stroke="#161924" stroke-width="1.5" stroke-linecap="round" stroke-linejoin="round"/>
<path d="M6.82696 16.339L6.55796 18.67C5.77196 18.028 5.07996 17.243 4.54196 16.311C2.52896 12.824 3.23996 8.521 5.99996 5.836" stroke="#161924" stroke-width="1.5" stroke-linecap="round" stroke-linejoin="round"/>
<path d="M18.345 14.319L20.498 13.386C20.335 14.388 20.001 15.379 19.463 16.311C17.449 19.798 13.367 21.335 9.66199 20.285" stroke="#161924" stroke-width="1.5" stroke-linecap="round" stroke-linejoin="round"/>
<path d="M14.5306 9.46929C15.9283 10.867 15.9283 13.1331 14.5306 14.5308C13.1329 15.9284 10.8669 15.9284 9.46917 14.5308C8.07148 13.1331 8.07148 10.867 9.46917 9.46929C10.8669 8.0716 13.1329 8.0716 14.5306 9.46929" stroke="#161924" stroke-width="1.5" stroke-linecap="round" stroke-linejoin="round"/>
</svg>
