<svg width="24" height="24" viewBox="0 0 24 24" fill="none" xmlns="http://www.w3.org/2000/svg">
<path d="M11.1687 16.502L12.6693 15.0014L11.1687 13.5007" stroke="#161924" stroke-width="1.5" stroke-linecap="round" stroke-linejoin="round"/>
<rect x="2.99622" y="2.99634" width="18.0075" height="18.0075" rx="5" stroke="#161924" stroke-width="1.5" stroke-linecap="round" stroke-linejoin="round"/>
<path d="M12.8314 7.49829L11.3328 8.99892L12.8334 10.4995" stroke="#161924" stroke-width="1.5" stroke-linecap="round" stroke-linejoin="round"/>
<path d="M18.0025 12C18.0025 10.3423 15.3154 8.99878 12 8.99878C15.3154 8.99878 18.0025 10.3423 18.0025 12C18.0025 13.0405 16.9431 13.9568 15.3344 14.4951C16.9431 13.9568 18.0025 13.0405 18.0025 12" stroke="#161924" stroke-width="1.5" stroke-linecap="round" stroke-linejoin="round"/>
<path d="M11.3327 8.99899H12H11.3327" stroke="#161924" stroke-width="1.5" stroke-linecap="round" stroke-linejoin="round"/>
<path fill-rule="evenodd" clip-rule="evenodd" d="M5.99744 12.0002C5.99744 13.6579 8.68456 15.0014 11.9999 15.0014C8.68456 15.0014 5.99744 13.6579 5.99744 12.0002C5.99744 10.9597 7.05688 10.0434 8.66555 9.50513C7.05688 10.0434 5.99744 10.9597 5.99744 12.0002Z" stroke="#161924" stroke-width="1.5" stroke-linecap="round" stroke-linejoin="round"/>
<path d="M12.6672 15.0014H11.9999H12.6672" stroke="#161924" stroke-width="1.5" stroke-linecap="round" stroke-linejoin="round"/>
</svg>
