<svg width="24" height="24" viewBox="0 0 24 24" fill="none" xmlns="http://www.w3.org/2000/svg">
<path d="M19.911 9.96201C19.022 6.44501 15.845 3.83801 12.052 3.83801C11.038 3.83801 10.072 4.03201 9.178 4.37201" stroke="#161924" stroke-width="1.5" stroke-linecap="round" stroke-linejoin="round"/>
<path d="M6.398 6.14301C3.797 8.67201 3.127 12.726 5.024 16.011C5.531 16.889 6.182 17.628 6.923 18.233" stroke="#161924" stroke-width="1.5" stroke-linecap="round" stroke-linejoin="round"/>
<path d="M10.953 5.68901L8.755 4.05801L10.953 2.06201" stroke="#161924" stroke-width="1.5" stroke-linecap="round" stroke-linejoin="round"/>
<path d="M7.176 16.038L6.863 18.757L4.035 17.852" stroke="#161924" stroke-width="1.5" stroke-linecap="round" stroke-linejoin="round"/>
<path d="M18.028 14.134L20.539 13.046L21.169 15.948" stroke="#161924" stroke-width="1.5" stroke-linecap="round" stroke-linejoin="round"/>
<path d="M9.848 19.756C13.339 20.745 17.184 19.297 19.081 16.012C19.588 15.134 19.903 14.201 20.056 13.256" stroke="#161924" stroke-width="1.5" stroke-linecap="round" stroke-linejoin="round"/>
</svg>
