<svg width="24" height="24" viewBox="0 0 24 24" fill="none" xmlns="http://www.w3.org/2000/svg">
<path fill-rule="evenodd" clip-rule="evenodd" d="M8.49966 11.9999L11.9998 8.49973L15.5007 12.0006L12.0005 15.5007L8.49966 11.9999Z" stroke="#161924" stroke-width="1.49999" stroke-linecap="round" stroke-linejoin="round"/>
<path d="M5 12.25L3 14.25L1 12.25" stroke="#161924" stroke-width="1.5" stroke-linecap="round" stroke-linejoin="round"/>
<path d="M19 11.75L21 9.75L23 11.75" stroke="#161924" stroke-width="1.5" stroke-linecap="round" stroke-linejoin="round"/>
<path d="M19.371 6.845C17.744 4.522 15.052 3 12 3C7.029 3 3 7.029 3 12C3 12.694 3.086 13.366 3.235 14.015" stroke="#161924" stroke-width="1.5" stroke-linecap="round" stroke-linejoin="round"/>
<path d="M4.629 17.155C6.256 19.478 8.948 21 12 21C16.971 21 21 16.971 21 12C21 11.306 20.914 10.634 20.765 9.98499" stroke="#161924" stroke-width="1.5" stroke-linecap="round" stroke-linejoin="round"/>
</svg>
