<svg width="24" height="24" viewBox="0 0 24 24" fill="none" xmlns="http://www.w3.org/2000/svg">
<path d="M5.87 5.87201C7.439 4.30301 9.607 3.33301 12.002 3.33301C16.791 3.33301 20.674 7.21401 20.674 12.001C20.674 12.669 20.591 13.317 20.448 13.942" stroke="#161924" stroke-width="1.5" stroke-linecap="round" stroke-linejoin="round"/>
<path d="M19.4241 12.919L20.6741 14.169L21.9241 12.919" stroke="#161924" stroke-width="1.5" stroke-linecap="round" stroke-linejoin="round"/>
<path d="M18.13 18.128C16.561 19.697 14.393 20.667 11.998 20.667C7.20905 20.667 3.32605 16.786 3.32605 11.999C3.32605 11.331 3.40905 10.683 3.55205 10.058" stroke="#161924" stroke-width="1.5" stroke-linecap="round" stroke-linejoin="round"/>
<path d="M4.57605 11.081L3.32605 9.83099L2.07605 11.081" stroke="#161924" stroke-width="1.5" stroke-linecap="round" stroke-linejoin="round"/>
<path d="M14 12H10" stroke="#161924" stroke-width="1.5" stroke-linecap="round" stroke-linejoin="round"/>
<path d="M12 14V10" stroke="#161924" stroke-width="1.5" stroke-linecap="round" stroke-linejoin="round"/>
<path d="M15.5355 8.46447C17.4882 10.4171 17.4882 13.5829 15.5355 15.5355C13.5829 17.4882 10.4171 17.4882 8.46447 15.5355C6.51184 13.5829 6.51184 10.4171 8.46447 8.46447C10.4171 6.51184 13.5829 6.51184 15.5355 8.46447" stroke="#161924" stroke-width="1.5" stroke-linecap="round" stroke-linejoin="round"/>
</svg>
