<svg width="24" height="24" viewBox="0 0 24 24" fill="none" xmlns="http://www.w3.org/2000/svg">
<path d="M20.991 12.036C20.982 14.328 20.112 16.616 18.364 18.364C14.849 21.879 9.15 21.879 5.636 18.364C5.011 17.739 4.502 17.042 4.099 16.304" stroke="#161924" stroke-width="1.5" stroke-linecap="round" stroke-linejoin="round"/>
<path d="M3.005 11.854C3.041 9.59899 3.916 7.35599 5.636 5.63599C9.15101 2.12199 14.85 2.12199 18.364 5.63599C18.989 6.26199 19.498 6.95799 19.901 7.69599" stroke="#161924" stroke-width="1.5" stroke-linecap="round" stroke-linejoin="round"/>
<path d="M17.612 7.69697H20.424V4.88397" stroke="#161924" stroke-width="1.5" stroke-linecap="round" stroke-linejoin="round"/>
<path d="M6.388 16.303H3.576V19.115" stroke="#161924" stroke-width="1.5" stroke-linecap="round" stroke-linejoin="round"/>
<path d="M14.475 9.52501C15.842 10.892 15.842 13.108 14.475 14.475C13.108 15.842 10.892 15.842 9.52501 14.475C8.15801 13.108 8.15801 10.892 9.52501 9.52501C10.892 8.15801 13.108 8.15801 14.475 9.52501" stroke="#161924" stroke-width="1.5" stroke-linecap="round" stroke-linejoin="round"/>
</svg>
