<svg width="24" height="24" viewBox="0 0 24 24" fill="none" xmlns="http://www.w3.org/2000/svg">
<path d="M2 11.471L3.578 9.89398L5.155 11.471" stroke="#161924" stroke-width="1.5" stroke-linecap="round" stroke-linejoin="round"/>
<path d="M22 12.529L20.422 14.106L18.845 12.529" stroke="#161924" stroke-width="1.5" stroke-linecap="round" stroke-linejoin="round"/>
<path d="M17.957 6.047C19.48 7.571 20.423 9.676 20.423 12.002C20.423 12.642 20.345 13.262 20.211 13.861" stroke="#161924" stroke-width="1.5" stroke-linecap="round" stroke-linejoin="round"/>
<path d="M11.471 22L9.89404 20.422L11.471 18.845" stroke="#161924" stroke-width="1.5" stroke-linecap="round" stroke-linejoin="round"/>
<path d="M10.139 20.21C10.738 20.345 11.358 20.422 11.998 20.422C14.324 20.422 16.429 19.479 17.953 17.956" stroke="#161924" stroke-width="1.5" stroke-linecap="round" stroke-linejoin="round"/>
<path d="M12.5291 2L14.1061 3.578L12.5291 5.155" stroke="#161924" stroke-width="1.5" stroke-linecap="round" stroke-linejoin="round"/>
<path d="M13.861 3.79C13.262 3.655 12.642 3.578 12.002 3.578C9.676 3.578 7.571 4.521 6.047 6.044" stroke="#161924" stroke-width="1.5" stroke-linecap="round" stroke-linejoin="round"/>
<path d="M6.04303 17.957C4.52003 16.433 3.57703 14.328 3.57703 12.002V11.998C3.57703 11.358 3.65503 10.738 3.78903 10.139" stroke="#161924" stroke-width="1.5" stroke-linecap="round" stroke-linejoin="round"/>
</svg>
