<svg width="24" height="24" viewBox="0 0 24 24" fill="none" xmlns="http://www.w3.org/2000/svg">
<path fill-rule="evenodd" clip-rule="evenodd" d="M3.86798 12.354L5.28198 10.94C6.06298 10.159 7.32898 10.159 8.10998 10.94L13.06 15.89C13.841 16.671 13.841 17.937 13.06 18.718L11.646 20.132C10.865 20.913 9.59898 20.913 8.81798 20.132L3.86798 15.182C3.08698 14.401 3.08698 13.135 3.86798 12.354V12.354Z" stroke="#161924" stroke-width="1.5" stroke-linecap="round" stroke-linejoin="round"/>
<path d="M4.5702 15.89L2.4502 18.01" stroke="#161924" stroke-width="1.5" stroke-linecap="round" stroke-linejoin="round"/>
<path d="M6.25977 21.81L8.37977 19.69" stroke="#161924" stroke-width="1.5" stroke-linecap="round" stroke-linejoin="round"/>
<path d="M16.5962 3.86799L15.1822 2.45399C14.7912 2.06299 14.1582 2.06299 13.7682 2.45399L12.6472 3.57499C12.4592 3.76299 12.3542 4.01699 12.3542 4.28199V6.69599L10.9402 8.10999C10.5492 8.50099 10.5492 9.13399 10.9402 9.52399L14.4762 13.06C14.8672 13.451 15.5002 13.451 15.8902 13.06L17.3042 11.646H19.7182C19.9832 11.646 20.2382 11.541 20.4252 11.353L21.5462 10.232C21.9372 9.84099 21.9372 9.20799 21.5462 8.81799L20.1322 7.40399" stroke="#161924" stroke-width="1.5" stroke-linecap="round" stroke-linejoin="round"/>
<path d="M15.25 9.75L14.25 8.75" stroke="#161924" stroke-width="1.5" stroke-linecap="round" stroke-linejoin="round"/>
<path d="M16 22V21" stroke="#161924" stroke-width="1.5" stroke-linecap="round" stroke-linejoin="round"/>
<path d="M22 16H21" stroke="#161924" stroke-width="1.5" stroke-linecap="round" stroke-linejoin="round"/>
<path d="M21 21L20 20" stroke="#161924" stroke-width="1.5" stroke-linecap="round" stroke-linejoin="round"/>
<path d="M8 2V3" stroke="#161924" stroke-width="1.5" stroke-linecap="round" stroke-linejoin="round"/>
<path d="M2 8H3" stroke="#161924" stroke-width="1.5" stroke-linecap="round" stroke-linejoin="round"/>
<path d="M3 3L4 4" stroke="#161924" stroke-width="1.5" stroke-linecap="round" stroke-linejoin="round"/>
<path d="M7.5 14.5L9.5 16.5" stroke="#161924" stroke-width="1.5" stroke-linecap="round" stroke-linejoin="round"/>
<path d="M21.546 5.98999L19.425 8.11099C19.034 8.50199 18.401 8.50199 18.011 8.11099L15.889 5.98999C15.498 5.59899 15.498 4.96599 15.889 4.57599L18.01 2.45499" stroke="#161924" stroke-width="1.5" stroke-linecap="round" stroke-linejoin="round"/>
</svg>
