<svg width="24" height="24" viewBox="0 0 24 24" fill="none" xmlns="http://www.w3.org/2000/svg">
<path d="M3 12.51L8 12.489" stroke="#161924" stroke-width="1.5" stroke-linecap="round" stroke-linejoin="round"/>
<path d="M6 14.49L8 12.49L6 10.49" stroke="#161924" stroke-width="1.5" stroke-linecap="round" stroke-linejoin="round"/>
<path fill-rule="evenodd" clip-rule="evenodd" d="M13.431 20.952L19.431 19.627C20.348 19.425 21 18.613 21 17.674V6.326C21 5.388 20.348 4.575 19.431 4.373L13.431 3.048C12.183 2.772 11 3.722 11 5.001V18.999C11 20.278 12.183 21.228 13.431 20.952Z" stroke="#161924" stroke-width="1.5" stroke-linecap="round" stroke-linejoin="round"/>
<path fill-rule="evenodd" clip-rule="evenodd" d="M15.716 13.976L16.716 13.755C17.174 13.654 17.5 13.248 17.5 12.779V11.221C17.5 10.752 17.174 10.346 16.716 10.245L15.716 10.024C15.091 9.88601 14.5 10.361 14.5 11V13C14.5 13.639 15.091 14.114 15.716 13.976V13.976Z" stroke="#161924" stroke-width="1.5" stroke-linecap="round" stroke-linejoin="round"/>
<path d="M6 20V21" stroke="#161924" stroke-width="1.5" stroke-linecap="round" stroke-linejoin="round"/>
<path d="M19 19.72V21" stroke="#161924" stroke-width="1.5" stroke-linecap="round" stroke-linejoin="round"/>
<path d="M11.272 20H5C3.895 20 3 19.105 3 18V16" stroke="#161924" stroke-width="1.5" stroke-linecap="round" stroke-linejoin="round"/>
<path d="M11 5.00101H5C3.895 5.00101 3 5.89601 3 7.00101V9.00001" stroke="#161924" stroke-width="1.5" stroke-linecap="round" stroke-linejoin="round"/>
</svg>
