<svg width="24" height="24" viewBox="0 0 24 24" fill="none" xmlns="http://www.w3.org/2000/svg">
<path fill-rule="evenodd" clip-rule="evenodd" d="M12 21V21C16.971 21 21 16.971 21 12V12C21 7.029 16.971 3 12 3V3C7.029 3 3 7.029 3 12V12C3 16.971 7.029 21 12 21Z" stroke="#161924" stroke-width="1.5" stroke-linecap="round" stroke-linejoin="round"/>
<path d="M5.5 12H6" stroke="#161924" stroke-width="1.5" stroke-linecap="round" stroke-linejoin="round"/>
<path d="M18.5 12H18" stroke="#161924" stroke-width="1.5" stroke-linecap="round" stroke-linejoin="round"/>
<path d="M7.76008 16.24L7.40008 16.6" stroke="#161924" stroke-width="1.5" stroke-linecap="round" stroke-linejoin="round"/>
<path d="M16.2399 7.75999L16.5999 7.39999" stroke="#161924" stroke-width="1.5" stroke-linecap="round" stroke-linejoin="round"/>
<path d="M12 18V18.5" stroke="#161924" stroke-width="1.5" stroke-linecap="round" stroke-linejoin="round"/>
<path d="M12 5.5V6" stroke="#161924" stroke-width="1.5" stroke-linecap="round" stroke-linejoin="round"/>
<path d="M16.2399 16.24L16.5999 16.6" stroke="#161924" stroke-width="1.5" stroke-linecap="round" stroke-linejoin="round"/>
<path d="M7.40008 7.39999L7.76008 7.75999" stroke="#161924" stroke-width="1.5" stroke-linecap="round" stroke-linejoin="round"/>
<path d="M14.1213 9.87868C15.2929 11.0502 15.2929 12.9497 14.1213 14.1213C12.9497 15.2929 11.0502 15.2929 9.87868 14.1213C8.70711 12.9497 8.70711 11.0502 9.87868 9.87868C11.0502 8.70711 12.9497 8.70711 14.1213 9.87868" stroke="#161924" stroke-width="1.5" stroke-linecap="round" stroke-linejoin="round"/>
</svg>
