<svg width="24" height="24" viewBox="0 0 24 24" fill="none" xmlns="http://www.w3.org/2000/svg">
<path fill-rule="evenodd" clip-rule="evenodd" d="M3.495 13.464L4.69 15.028L4.948 16.975C5.091 18.055 5.94 18.905 7.02 19.049L8.972 19.31L10.535 20.504C11.4 21.165 12.599 21.165 13.464 20.504L15.028 19.309H15.026L16.974 19.051C18.054 18.908 18.904 18.059 19.048 16.979L19.308 15.027C19.308 15.028 19.912 14.237 20.503 13.464C21.164 12.599 21.163 11.4 20.503 10.535L19.31 8.97099L19.052 7.02399C18.909 5.94399 18.06 5.09399 16.98 4.94999L15.027 4.68999L13.464 3.49599C12.599 2.83499 11.4 2.83499 10.535 3.49599L8.971 4.68999H8.973L7.025 4.94899C5.945 5.09199 5.095 5.94099 4.951 7.02099L4.69 8.97299C4.69 8.97199 4.086 9.76299 3.495 10.536C2.835 11.4 2.835 12.6 3.495 13.464V13.464Z" stroke="#161924" stroke-width="1.5" stroke-linecap="round" stroke-linejoin="round"/>
<path d="M9.89941 14.1L14.0994 9.90002" stroke="#161924" stroke-width="1.5" stroke-linecap="round" stroke-linejoin="round"/>
<path d="M14.2886 13.953C14.3826 14.047 14.3826 14.199 14.2886 14.292C14.1946 14.386 14.0426 14.386 13.9496 14.292C13.8556 14.198 13.8556 14.046 13.9496 13.953C14.0426 13.859 14.1946 13.859 14.2886 13.953" stroke="#161924" stroke-width="1.5" stroke-linecap="round" stroke-linejoin="round"/>
<path d="M10.0492 9.708C10.1432 9.802 10.1432 9.954 10.0492 10.047C9.9552 10.141 9.8032 10.141 9.7102 10.047C9.6172 9.953 9.6162 9.801 9.7102 9.708C9.8042 9.615 9.9562 9.614 10.0492 9.708" stroke="#161924" stroke-width="1.5" stroke-linecap="round" stroke-linejoin="round"/>
</svg>
