<svg width="24" height="24" viewBox="0 0 24 24" fill="none" xmlns="http://www.w3.org/2000/svg">
<path fill-rule="evenodd" clip-rule="evenodd" d="M17.698 6.302L17.065 3.582L14.186 3.838L12.004 2L9.829 3.838L6.943 3.582L6.302 6.302L3.582 6.935L3.838 9.814L2 11.996L3.838 14.171L3.582 17.057L6.302 17.698L6.935 20.418L9.814 20.162L11.996 22L14.171 20.162L17.057 20.418L17.698 17.698L20.418 17.065L20.162 14.186L22 12.004L20.162 9.829L20.418 6.943L17.698 6.302Z" stroke="#161924" stroke-width="1.5" stroke-linecap="round" stroke-linejoin="round"/>
<path d="M9 15L15 9" stroke="#161924" stroke-width="1.5" stroke-linecap="round" stroke-linejoin="round"/>
<path d="M9.249 9C9.111 9 8.999 9.112 9 9.25C9 9.388 9.112 9.5 9.25 9.5C9.388 9.5 9.5 9.388 9.5 9.25C9.5 9.112 9.388 9 9.249 9" stroke="#161924" stroke-width="1.5" stroke-linecap="round" stroke-linejoin="round"/>
<path d="M14.749 14.5C14.611 14.5 14.499 14.612 14.5 14.75C14.5 14.888 14.612 15 14.75 15C14.888 15 15 14.888 15 14.75C15 14.612 14.888 14.5 14.749 14.5" stroke="#161924" stroke-width="1.5" stroke-linecap="round" stroke-linejoin="round"/>
</svg>
