<svg width="24" height="24" viewBox="0 0 24 24" fill="none" xmlns="http://www.w3.org/2000/svg">
<path d="M13.4159 10.6344C13.4646 10.6833 13.4646 10.7624 13.4157 10.8112C13.3669 10.86 13.2878 10.86 13.239 10.8112C13.1901 10.7624 13.1901 10.6833 13.2388 10.6344C13.2623 10.6109 13.2941 10.5977 13.3274 10.5977C13.3606 10.5977 13.3924 10.6109 13.4159 10.6344" stroke="#161924" stroke-width="1.5" stroke-linecap="round" stroke-linejoin="round"/>
<path fill-rule="evenodd" clip-rule="evenodd" d="M11.9623 7.83826H14.8015C15.5529 7.83826 16.1621 8.4474 16.1621 9.19882V12.037C16.1616 12.3982 16.0177 12.7444 15.7619 12.9994L12.1604 16.6009C11.6288 17.1321 10.7672 17.1321 10.2356 16.6009L7.39842 13.7647C6.86719 13.2331 6.86719 12.3716 7.39842 11.8399L10.9999 8.23842C11.2549 7.98267 11.6011 7.83872 11.9623 7.83826V7.83826Z" stroke="#161924" stroke-width="1.5" stroke-linecap="round" stroke-linejoin="round"/>
<rect x="2.99609" y="2.99622" width="18.0075" height="18.0075" rx="5" stroke="#161924" stroke-width="1.5" stroke-linecap="round" stroke-linejoin="round"/>
</svg>
