<svg width="24" height="24" viewBox="0 0 24 24" fill="none" xmlns="http://www.w3.org/2000/svg">
<path d="M15.7219 7.27801C15.8199 7.37601 15.8199 7.53401 15.7219 7.63201C15.6239 7.73001 15.4659 7.73001 15.3679 7.63201C15.2699 7.53401 15.2699 7.37601 15.3679 7.27801C15.4659 7.18101 15.6239 7.18101 15.7219 7.27801" stroke="#161924" stroke-width="1.5" stroke-linecap="round" stroke-linejoin="round"/>
<path fill-rule="evenodd" clip-rule="evenodd" d="M13.5118 3H17.8968C19.0588 3 19.9998 3.941 19.9998 5.102V9.487C19.9998 10.045 19.7778 10.579 19.3838 10.974L10.9738 19.384C10.1528 20.205 8.82175 20.205 8.00075 19.384L3.61575 14.999C2.79475 14.178 2.79475 12.847 3.61575 12.026L12.0258 3.616C12.4198 3.222 12.9548 3 13.5118 3Z" stroke="#161924" stroke-width="1.5" stroke-linecap="round" stroke-linejoin="round"/>
<path d="M14 21H18C19.105 21 20 20.105 20 19V15" stroke="#161924" stroke-width="1.5" stroke-linecap="round" stroke-linejoin="round"/>
</svg>
