<svg width="24" height="24" viewBox="0 0 24 24" fill="none" xmlns="http://www.w3.org/2000/svg">
<path d="M12 8.995V8" stroke="#161924" stroke-width="1.5" stroke-linecap="round" stroke-linejoin="round"/>
<path d="M12 15.005V16" stroke="#161924" stroke-width="1.5" stroke-linecap="round" stroke-linejoin="round"/>
<path d="M10.266 14.279C10.525 14.703 10.966 14.996 11.5 14.996H12H12.595C13.37 14.996 13.998 14.368 13.998 13.593C13.998 12.95 13.561 12.388 12.936 12.233L11.064 11.763C10.44 11.606 10.002 11.045 10.002 10.403C10.002 9.628 10.63 9 11.405 9H12H12.5C13.032 9 13.473 9.292 13.733 9.713" stroke="#161924" stroke-width="1.5" stroke-linecap="round" stroke-linejoin="round"/>
<path fill-rule="evenodd" clip-rule="evenodd" d="M3.495 13.464L4.69 15.028L4.948 16.975C5.091 18.055 5.94 18.905 7.02 19.049L8.972 19.31L10.535 20.504C11.4 21.165 12.599 21.165 13.464 20.504L15.028 19.309H15.026L16.974 19.051C18.054 18.908 18.904 18.059 19.048 16.979L19.308 15.027C19.308 15.028 19.912 14.237 20.503 13.464C21.164 12.599 21.163 11.4 20.503 10.535L19.31 8.97099L19.052 7.02399C18.909 5.94399 18.06 5.09399 16.98 4.94999L15.027 4.68999L13.464 3.49599C12.599 2.83499 11.4 2.83499 10.535 3.49599L8.971 4.68999H8.973L7.025 4.94899C5.945 5.09199 5.095 5.94099 4.951 7.02099L4.69 8.97299C4.69 8.97199 4.086 9.76299 3.495 10.536C2.835 11.4 2.835 12.6 3.495 13.464V13.464Z" stroke="#161924" stroke-width="1.5" stroke-linecap="round" stroke-linejoin="round"/>
</svg>
