<svg width="24" height="24" viewBox="0 0 24 24" fill="none" xmlns="http://www.w3.org/2000/svg">
<path d="M13.5366 10.464C13.5561 10.4836 13.5561 10.5152 13.5365 10.5347C13.517 10.5543 13.4853 10.5542 13.4658 10.5347C13.4463 10.5152 13.4463 10.4835 13.4658 10.464C13.4853 10.4445 13.517 10.4444 13.5365 10.4639L13.5366 10.464" stroke="#161924" stroke-width="1.5" stroke-linecap="round" stroke-linejoin="round"/>
<path fill-rule="evenodd" clip-rule="evenodd" d="M11.9557 7.91687H14.7459C15.1005 7.91687 15.4406 8.05778 15.6913 8.30856C15.9421 8.55933 16.0829 8.89944 16.0829 9.25407V12.0435C16.0825 12.3985 15.941 12.7387 15.6897 12.9894L12.1504 16.529C11.6279 17.0511 10.7813 17.0511 10.2588 16.529L7.47066 13.7416C6.94858 13.219 6.94858 12.3723 7.47066 11.8498L11.0099 8.31016C11.2605 8.05879 11.6007 7.91731 11.9557 7.91687Z" stroke="#161924" stroke-width="1.5" stroke-linecap="round" stroke-linejoin="round"/>
<path d="M15.0011 21.0037H7.99818C5.2356 21.0037 2.99609 18.7642 2.99609 16.0016V7.9983C2.99609 5.23572 5.2356 2.99622 7.99818 2.99622H16.0015C18.7641 2.99622 21.0036 5.23572 21.0036 7.9983V13.0004" stroke="#161924" stroke-width="1.5" stroke-linecap="round" stroke-linejoin="round"/>
<path d="M19.0031 20.0034V16.0017" stroke="#161924" stroke-width="1.5" stroke-linecap="round" stroke-linejoin="round"/>
<path d="M21.0036 18.0025L19.0028 16.0017L17.002 18.0025" stroke="#161924" stroke-width="1.5" stroke-linecap="round" stroke-linejoin="round"/>
</svg>
