<svg width="24" height="24" viewBox="0 0 24 24" fill="none" xmlns="http://www.w3.org/2000/svg">
<path d="M8.69922 17.244L12.2992 13.644" stroke="#161924" stroke-width="1.5" stroke-linecap="round" stroke-linejoin="round"/>
<path d="M12.4619 17.118C12.5429 17.199 12.5429 17.329 12.4619 17.409C12.3809 17.49 12.2509 17.49 12.1709 17.409C12.0899 17.328 12.0899 17.198 12.1709 17.118C12.2509 17.038 12.3819 17.038 12.4619 17.118" stroke="#161924" stroke-width="1.5" stroke-linecap="round" stroke-linejoin="round"/>
<path d="M8.82793 13.48C8.90893 13.561 8.90893 13.691 8.82793 13.771C8.74693 13.852 8.61693 13.852 8.53693 13.771C8.45693 13.69 8.45593 13.56 8.53693 13.48C8.61793 13.4 8.74793 13.399 8.82793 13.48" stroke="#161924" stroke-width="1.5" stroke-linecap="round" stroke-linejoin="round"/>
<path fill-rule="evenodd" clip-rule="evenodd" d="M16 21H5C3.895 21 3 20.105 3 19V12C3 10.895 3.895 10 5 10H16C17.105 10 18 10.895 18 12V19C18 20.105 17.105 21 16 21Z" stroke="#161924" stroke-width="1.5" stroke-linecap="round" stroke-linejoin="round"/>
<path d="M6 10V6C6 4.895 6.895 4 8 4H19C20.105 4 21 4.895 21 6V13C21 14.105 20.105 15 19 15H18" stroke="#161924" stroke-width="1.5" stroke-linecap="round" stroke-linejoin="round"/>
</svg>
