<svg width="24" height="24" viewBox="0 0 24 24" fill="none" xmlns="http://www.w3.org/2000/svg">
<path fill-rule="evenodd" clip-rule="evenodd" d="M3.51772 13.4636L4.71822 15.0282L4.97633 16.974C5.11805 18.053 5.96559 18.903 7.04419 19.0479L8.993 19.308L10.5526 20.5085C11.4152 21.171 12.6153 21.171 13.4779 20.5085L15.0395 19.308L16.9843 19.0499C18.0633 18.9062 18.912 18.0571 19.0552 16.978L19.3143 15.0262L20.5148 13.4636C21.1742 12.5992 21.1742 11.4007 20.5148 10.5363L19.3143 8.9717L19.0572 7.02589C18.915 5.94671 18.0672 5.09678 16.9883 4.95202L15.0365 4.69692L13.4769 3.49642C12.6143 2.83388 11.4142 2.83388 10.5516 3.49642L8.99 4.69692L7.04519 4.95502C5.96821 5.09863 5.12049 5.94512 4.97533 7.02189L4.71522 8.9737L3.51472 10.5363C2.82079 11.3891 2.82205 12.6122 3.51772 13.4636Z" stroke="#161924" stroke-width="1.5" stroke-linecap="round" stroke-linejoin="round"/>
<path fill-rule="evenodd" clip-rule="evenodd" d="M14.5653 15.7266H9.4352C9.05534 15.7266 8.72235 15.4726 8.62187 15.1063L7.82153 12.1571C7.75258 11.9036 7.80584 11.6324 7.96556 11.4239C8.12528 11.2153 8.37317 11.0932 8.63587 11.0936H15.3737C15.6362 11.0935 15.8838 11.2157 16.0433 11.4242C16.2028 11.6328 16.2559 11.9037 16.187 12.1571L15.3867 15.1063C15.2854 15.4755 14.9482 15.7302 14.5653 15.7266V15.7266Z" stroke="#161924" stroke-width="1.5" stroke-linecap="round" stroke-linejoin="round"/>
<path d="M8.67383 11.0936L11.3629 8.01228C11.5229 7.82925 11.7541 7.72424 11.9972 7.72424C12.2403 7.72424 12.4715 7.82925 12.6315 8.01228L15.3326 11.0946" stroke="#161924" stroke-width="1.5" stroke-linecap="round" stroke-linejoin="round"/>
</svg>
