<svg width="24" height="24" viewBox="0 0 24 24" fill="none" xmlns="http://www.w3.org/2000/svg">
<path fill-rule="evenodd" clip-rule="evenodd" d="M11.8746 7.99829H14.6648C15.4033 7.99829 16.0018 8.59703 16.0018 9.33549V12.1249C16.0014 12.4799 15.8599 12.8202 15.6086 13.0708L12.0693 16.6105C11.5469 17.1326 10.7002 17.1326 10.1778 16.6105L7.3896 13.823C6.86753 13.3004 6.86753 12.4537 7.3896 11.9312L10.9289 8.39154C11.1795 8.1402 11.5197 7.99873 11.8746 7.99829Z" stroke="#161924" stroke-width="1.5" stroke-linecap="round" stroke-linejoin="round"/>
<path d="M13.1518 10.8483C13.1713 10.8679 13.1713 10.8995 13.1518 10.919C13.1322 10.9385 13.1006 10.9385 13.081 10.919C13.0615 10.8995 13.0615 10.8678 13.081 10.8483C13.1005 10.8287 13.1322 10.8287 13.1517 10.8482L13.1518 10.8483" stroke="#161924" stroke-width="1.5" stroke-linecap="round" stroke-linejoin="round"/>
<path d="M16.0018 22.0041L14.001 20.0033L16.0018 18.0024" stroke="#161924" stroke-width="1.5" stroke-linecap="round" stroke-linejoin="round"/>
<path d="M20.0035 20.0034H14.001" stroke="#161924" stroke-width="1.5" stroke-linecap="round" stroke-linejoin="round"/>
<path d="M20.0569 16.0016C21.7634 12.5667 21.1056 8.4276 18.4182 5.69098C15.7308 2.95435 11.6044 2.22153 8.139 3.86548C4.67364 5.50943 2.63087 9.16891 3.05035 12.9814C3.46984 16.7939 6.2594 19.9217 9.99928 20.7729" stroke="#161924" stroke-width="1.5" stroke-linecap="round" stroke-linejoin="round"/>
</svg>
