<svg width="24" height="24" viewBox="0 0 24 24" fill="none" xmlns="http://www.w3.org/2000/svg">
<path fill-rule="evenodd" clip-rule="evenodd" d="M18.8972 6.15401L19.7622 6.34301C20.5542 6.51601 21.0262 7.33301 20.7802 8.10601L20.5112 8.95001C20.3482 9.46301 20.4982 10.023 20.8962 10.386L21.5512 10.982C22.1502 11.528 22.1502 12.472 21.5512 13.018L20.8962 13.614C20.4982 13.976 20.3482 14.537 20.5112 15.05L20.7802 15.894C21.0262 16.667 20.5542 17.484 19.7622 17.657L18.8972 17.846C18.3712 17.961 17.9612 18.371 17.8462 18.897L17.6572 19.762C17.4842 20.554 16.6672 21.026 15.8942 20.78L15.0502 20.511C14.5372 20.348 13.9772 20.498 13.6142 20.896L13.0182 21.551C12.4722 22.15 11.5282 22.15 10.9822 21.551L10.3862 20.896C10.0242 20.498 9.46323 20.348 8.95023 20.511L8.10623 20.78C7.33323 21.026 6.51623 20.554 6.34323 19.762L6.15423 18.897C6.03923 18.371 5.62923 17.961 5.10323 17.846L4.23823 17.657C3.44623 17.484 2.97423 16.667 3.22023 15.894L3.48923 15.05C3.65223 14.537 3.50223 13.977 3.10423 13.614L2.45023 13.018C1.85123 12.472 1.85123 11.528 2.45023 10.982L3.10523 10.386C3.50323 10.024 3.65323 9.46301 3.49023 8.95001L3.22023 8.10601C2.97423 7.33301 3.44623 6.51601 4.23823 6.34301L5.10323 6.15401C5.62923 6.03901 6.03923 5.62901 6.15423 5.10301L6.34323 4.23801C6.51623 3.44601 7.33323 2.97401 8.10623 3.22001L8.95023 3.48901C9.46323 3.65201 10.0232 3.50201 10.3862 3.10401L10.9822 2.44901C11.5282 1.85001 12.4722 1.85001 13.0182 2.44901L13.6142 3.10401C13.9762 3.50201 14.5372 3.65201 15.0502 3.48901L15.8942 3.22001C16.6672 2.97401 17.4842 3.44601 17.6572 4.23801L17.8462 5.10301C17.9612 5.62901 18.3712 6.03901 18.8972 6.15401Z" stroke="#161924" stroke-width="1.5" stroke-linecap="round" stroke-linejoin="round"/>
<path d="M9 15L15 9" stroke="#161924" stroke-width="1.5" stroke-linecap="round" stroke-linejoin="round"/>
<path d="M9.249 9C9.111 9 8.999 9.112 9 9.25C9 9.388 9.112 9.5 9.25 9.5C9.388 9.5 9.5 9.388 9.5 9.25C9.5 9.112 9.388 9 9.249 9" stroke="#161924" stroke-width="1.5" stroke-linecap="round" stroke-linejoin="round"/>
<path d="M14.749 14.5C14.611 14.5 14.499 14.612 14.5 14.75C14.5 14.888 14.612 15 14.75 15C14.888 15 15 14.888 15 14.75C15 14.612 14.888 14.5 14.749 14.5" stroke="#161924" stroke-width="1.5" stroke-linecap="round" stroke-linejoin="round"/>
</svg>
