<svg width="24" height="24" viewBox="0 0 24 24" fill="none" xmlns="http://www.w3.org/2000/svg">
<path d="M11.875 10.194C11.875 10.125 11.931 10.069 12 10.069C12.069 10.069 12.125 10.125 12.125 10.194C12.125 10.263 12.069 10.319 12 10.319C11.931 10.319 11.875 10.263 11.875 10.194" stroke="#161924" stroke-width="1.5" stroke-linecap="round" stroke-linejoin="round"/>
<path fill-rule="evenodd" clip-rule="evenodd" d="M9.03181 9.085L11.0378 7.079C11.5698 6.547 12.4308 6.547 12.9618 7.078L14.9678 9.084C15.2228 9.339 15.3658 9.686 15.3658 10.046V15.14C15.3658 15.891 14.7568 16.5 14.0058 16.5H9.99281C9.24181 16.5 8.63281 15.891 8.63281 15.14L8.63381 10.047C8.63281 9.687 8.77581 9.341 9.03181 9.085Z" stroke="#161924" stroke-width="1.5" stroke-linecap="round" stroke-linejoin="round"/>
<path fill-rule="evenodd" clip-rule="evenodd" d="M18 21H6C4.343 21 3 19.657 3 18V6C3 4.343 4.343 3 6 3H18C19.657 3 21 4.343 21 6V18C21 19.657 19.657 21 18 21Z" stroke="#161924" stroke-width="1.5" stroke-linecap="round" stroke-linejoin="round"/>
</svg>
