<svg width="24" height="24" viewBox="0 0 24 24" fill="none" xmlns="http://www.w3.org/2000/svg">
<path d="M13.4147 10.635C13.4637 10.684 13.4637 10.763 13.4147 10.812C13.3657 10.861 13.2867 10.861 13.2377 10.812C13.1887 10.763 13.1887 10.684 13.2377 10.635C13.2867 10.586 13.3667 10.586 13.4147 10.635" stroke="#161924" stroke-width="1.5" stroke-linecap="round" stroke-linejoin="round"/>
<path fill-rule="evenodd" clip-rule="evenodd" d="M11.9623 7.84003H14.7993C15.5513 7.84003 16.1602 8.44903 16.1602 9.20003V12.037C16.1602 12.398 16.0163 12.744 15.7613 12.999L12.1593 16.601C11.6283 17.132 10.7673 17.132 10.2352 16.601L7.39825 13.764C6.86725 13.233 6.86725 12.372 7.39825 11.84L11.0002 8.23903C11.2552 7.98403 11.6013 7.84003 11.9623 7.84003Z" stroke="#161924" stroke-width="1.5" stroke-linecap="round" stroke-linejoin="round"/>
<path fill-rule="evenodd" clip-rule="evenodd" d="M12 21C16.9706 21 21 16.9706 21 12C21 7.02944 16.9706 3 12 3C7.02944 3 3 7.02944 3 12C3 16.9706 7.02944 21 12 21Z" stroke="#161924" stroke-width="1.5" stroke-linecap="round" stroke-linejoin="round"/>
</svg>
