<svg width="24" height="24" viewBox="0 0 24 24" fill="none" xmlns="http://www.w3.org/2000/svg">
<path d="M6.99791 21.0039H5.9975C4.33995 21.0039 2.99625 19.6602 2.99625 18.0026V17.0022" stroke="#161924" stroke-width="1.5" stroke-linecap="round" stroke-linejoin="round"/>
<path d="M17.0021 2.99634H18.0025C19.66 2.99634 21.0037 4.34004 21.0037 5.99759V6.998" stroke="#161924" stroke-width="1.5" stroke-linecap="round" stroke-linejoin="round"/>
<path d="M2.99625 6.998V5.99759C2.99625 4.34004 4.33995 2.99634 5.9975 2.99634H6.99791" stroke="#161924" stroke-width="1.5" stroke-linecap="round" stroke-linejoin="round"/>
<path d="M21.0037 17.0022V18.0026C21.0037 19.6602 19.66 21.0039 18.0025 21.0039H17.0021" stroke="#161924" stroke-width="1.5" stroke-linecap="round" stroke-linejoin="round"/>
<path d="M5.9975 12.0001V8.99881C5.9975 7.34126 7.3412 5.99756 8.99875 5.99756H15.0012C16.6588 5.99756 18.0025 7.34126 18.0025 8.99881V12.0001" stroke="#161924" stroke-width="1.5" stroke-linecap="round" stroke-linejoin="round"/>
<path d="M18.0025 15.0015C18.0025 16.659 16.6588 18.0027 15.0012 18.0027H8.99875C7.3412 18.0027 5.9975 16.659 5.9975 15.0015" stroke="#161924" stroke-width="1.5" stroke-linecap="round" stroke-linejoin="round"/>
<path d="M3.99666 12.0002H21.0037" stroke="#161924" stroke-width="1.5" stroke-linecap="round" stroke-linejoin="round"/>
</svg>
