<svg width="24" height="24" viewBox="0 0 24 24" fill="none" xmlns="http://www.w3.org/2000/svg">
<path d="M1.99609 21.0037H22.0044" stroke="#161924" stroke-width="1.5" stroke-linecap="round" stroke-linejoin="round"/>
<path d="M8.49902 16.9571H15.5019" stroke="#161924" stroke-width="1.5" stroke-linecap="round" stroke-linejoin="round"/>
<path d="M12.0002 16.9571V21.0037" stroke="#161924" stroke-width="1.5" stroke-linecap="round" stroke-linejoin="round"/>
<path d="M2.99609 21.0038V14.0008C2.99609 13.4483 3.444 13.0004 3.99651 13.0004H5.99734" stroke="#161924" stroke-width="1.5" stroke-linecap="round" stroke-linejoin="round"/>
<path d="M18.0029 13.0004H20.0038C20.5563 13.0004 21.0042 13.4483 21.0042 14.0008V21.0038" stroke="#161924" stroke-width="1.5" stroke-linecap="round" stroke-linejoin="round"/>
<path d="M5.99805 21.0037V10.3563C5.99734 9.99818 6.18812 9.667 6.49826 9.48794L11.5003 6.62975C11.8078 6.45411 12.1853 6.45411 12.4928 6.62975L17.4948 9.48794C17.805 9.667 17.9958 9.99818 17.995 10.3563V21.0037" stroke="#161924" stroke-width="1.5" stroke-linecap="round" stroke-linejoin="round"/>
<path d="M12.0002 9.50695C11.9869 9.50695 11.9742 9.51222 11.9648 9.5216C11.9555 9.53098 11.9502 9.5437 11.9502 9.55697C11.9502 9.5846 11.9726 9.60699 12.0002 9.60699C12.0278 9.60699 12.0502 9.5846 12.0502 9.55697C12.0502 9.5437 12.045 9.53098 12.0356 9.5216C12.0262 9.51222 12.0135 9.50695 12.0002 9.50695" stroke="#161924" stroke-width="1.5" stroke-linecap="round" stroke-linejoin="round"/>
<path d="M15.0012 16.9571V21.0037" stroke="#161924" stroke-width="1.5" stroke-linecap="round" stroke-linejoin="round"/>
<path d="M8.99923 21.0037V16.9571" stroke="#161924" stroke-width="1.5" stroke-linecap="round" stroke-linejoin="round"/>
<path d="M12 6.49769V2.49603C12 2.21977 12.224 1.99582 12.5002 1.99582H15.5015C15.7777 1.99582 16.0017 2.21977 16.0017 2.49603V3.91462C16.0017 4.19088 15.7777 4.41483 15.5015 4.41483H12" stroke="#161924" stroke-width="1.5" stroke-linecap="round" stroke-linejoin="round"/>
<path d="M15.0015 13.0004H8.99902" stroke="#161924" stroke-width="1.5" stroke-linecap="round" stroke-linejoin="round"/>
</svg>
