<svg width="24" height="24" viewBox="0 0 24 24" fill="none" xmlns="http://www.w3.org/2000/svg">
<path d="M6.19266 14.8073C7.15178 15.7664 7.15178 17.3215 6.19266 18.2806C5.23353 19.2397 3.67848 19.2397 2.71935 18.2806C1.76022 17.3215 1.76022 15.7664 2.71935 14.8073C3.67847 13.8482 5.23353 13.8482 6.19266 14.8073" stroke="#161924" stroke-width="1.4441" stroke-linecap="round" stroke-linejoin="round"/>
<path d="M16 7.53998L3.22998 14.42" stroke="#161924" stroke-width="1.4441" stroke-linecap="round" stroke-linejoin="round"/>
<path d="M6.19266 5.71935C7.15178 6.67847 7.15178 8.23353 6.19266 9.19266C5.23353 10.1518 3.67848 10.1518 2.71935 9.19266C1.76022 8.23353 1.76022 6.67848 2.71935 5.71935C3.67847 4.76022 5.23353 4.76022 6.19266 5.71935" stroke="#161924" stroke-width="1.4441" stroke-linecap="round" stroke-linejoin="round"/>
<path d="M16 16.46L3.22998 9.58002" stroke="#161924" stroke-width="1.4441" stroke-linecap="round" stroke-linejoin="round"/>
<path d="M21.833 11.837C21.741 11.837 21.666 11.912 21.667 12.004C21.667 12.096 21.742 12.171 21.834 12.171C21.926 12.171 22.001 12.096 22.001 12.004C22.001 11.912 21.925 11.837 21.833 11.837" stroke="#161924" stroke-width="1.5" stroke-linecap="round" stroke-linejoin="round"/>
<path d="M18.333 11.837C18.241 11.837 18.166 11.912 18.167 12.004C18.167 12.096 18.242 12.171 18.334 12.171C18.426 12.171 18.501 12.096 18.501 12.004C18.501 11.912 18.425 11.837 18.333 11.837" stroke="#161924" stroke-width="1.5" stroke-linecap="round" stroke-linejoin="round"/>
<path d="M14.833 11.837C14.741 11.837 14.666 11.912 14.667 12.004C14.667 12.096 14.742 12.171 14.834 12.171C14.926 12.171 15.001 12.096 15.001 12.004C15.001 11.912 14.925 11.837 14.833 11.837" stroke="#161924" stroke-width="1.5" stroke-linecap="round" stroke-linejoin="round"/>
</svg>
