<svg width="24" height="24" viewBox="0 0 24 24" fill="none" xmlns="http://www.w3.org/2000/svg">
<path d="M14.0008 15.6265V19.7532C14.0008 20.9964 11.9853 22.0042 9.49895 22.0042C7.01263 22.0042 4.99707 20.9964 4.99707 19.7532V15.6265" stroke="#161924" stroke-width="1.5" stroke-linecap="round" stroke-linejoin="round"/>
<path d="M14.0008 15.6265V19.7532C14.0008 20.9964 11.9853 22.0042 9.49895 22.0042C7.01263 22.0042 4.99707 20.9964 4.99707 19.7532V15.6265" stroke="#161924" stroke-width="1.5" stroke-linecap="round" stroke-linejoin="round"/>
<ellipse cx="9.49895" cy="15.6265" rx="4.50187" ry="2.62609" stroke="#161924" stroke-width="1.5" stroke-linecap="round" stroke-linejoin="round"/>
<path d="M10.2492 15.6265H8.74854" stroke="#161924" stroke-width="1.5" stroke-linecap="round" stroke-linejoin="round"/>
<path d="M2.99658 6.9979L19.0032 1.99582" stroke="#161924" stroke-width="1.5" stroke-linecap="round" stroke-linejoin="round"/>
<path d="M3.99658 9.99916L21.0037 5.9975" stroke="#161924" stroke-width="1.5" stroke-linecap="round" stroke-linejoin="round"/>
<path d="M20.0035 13.6307V17.7524C20.0035 18.9929 17.9926 20.0033 15.5016 20.0033C14.9984 20.0074 14.496 19.9638 14.001 19.8733" stroke="#161924" stroke-width="1.5" stroke-linecap="round" stroke-linejoin="round"/>
<path d="M14.001 16.0932C14.4943 16.1985 14.9973 16.2517 15.5017 16.2518C17.9927 16.2518 20.0035 15.0713 20.0035 13.6307C20.0035 12.1801 17.9927 10.9996 15.5017 10.9996C13.2807 10.9996 11.44 11.94 11.0698 13.1705" stroke="#161924" stroke-width="1.5" stroke-linecap="round" stroke-linejoin="round"/>
</svg>
