<svg width="24" height="24" viewBox="0 0 24 24" fill="none" xmlns="http://www.w3.org/2000/svg">
<path d="M14.0001 8.97392C15.388 10.3618 15.388 12.6121 14.0001 14C12.6122 15.388 10.3619 15.388 8.97398 14C7.58606 12.6121 7.58606 10.3618 8.97398 8.97392C10.3619 7.586 12.6122 7.586 14.0001 8.97392" stroke="#161924" stroke-width="1.5" stroke-linecap="round" stroke-linejoin="round"/>
<path fill-rule="evenodd" clip-rule="evenodd" d="M16 16L14 14L16 16Z" stroke="#161924" stroke-width="1.5" stroke-linecap="round" stroke-linejoin="round"/>
<path d="M18.2855 5.71455C21.7569 9.18592 21.7569 14.8141 18.2855 18.2855C14.8141 21.7568 9.18594 21.7568 5.71461 18.2855C2.24324 14.8141 2.24324 9.18588 5.71461 5.71455C9.18598 2.24318 14.8142 2.24318 18.2855 5.71455" stroke="#161924" stroke-width="1.5" stroke-linecap="round" stroke-linejoin="round"/>
</svg>
