<svg width="24" height="24" viewBox="0 0 24 24" fill="none" xmlns="http://www.w3.org/2000/svg">
<path d="M9.347 16.267V6.41997C9.347 5.08797 8.268 4.00897 6.936 4.00897V4.00897C5.837 4.00897 4.878 4.75197 4.602 5.81497L2.112 15.425" stroke="#161924" stroke-width="1.5" stroke-linecap="round" stroke-linejoin="round"/>
<path d="M8.27191 13.7281C9.7067 15.1629 9.7067 17.4891 8.27191 18.9239C6.83712 20.3587 4.51088 20.3587 3.07609 18.9239C1.6413 17.4891 1.6413 15.1629 3.07609 13.7281C4.51088 12.2933 6.83712 12.2933 8.27191 13.7281" stroke="#161924" stroke-width="1.5"/>
<path d="M14.653 16.267V6.41997C14.653 5.08797 15.732 4.00897 17.064 4.00897V4.00897C18.163 4.00897 19.122 4.75197 19.398 5.81497L21.888 15.425" stroke="#161924" stroke-width="1.5" stroke-linecap="round" stroke-linejoin="round"/>
<path d="M14.653 9.99998C14.653 8.53198 13.465 7.34198 12 7.34198C10.535 7.34198 9.34698 8.53198 9.34698 9.99998" stroke="#161924" stroke-width="1.5" stroke-linecap="round" stroke-linejoin="round"/>
<path d="M9.34698 16C9.34698 14.532 10.535 13.342 12 13.342C13.465 13.342 14.653 14.532 14.653 16" stroke="#161924" stroke-width="1.5" stroke-linecap="round" stroke-linejoin="round"/>
<path d="M20.9239 13.7281C22.3587 15.1629 22.3587 17.4891 20.9239 18.9239C19.4891 20.3587 17.1629 20.3587 15.7281 18.9239C14.2933 17.4891 14.2933 15.1629 15.7281 13.7281C17.1629 12.2933 19.4891 12.2933 20.9239 13.7281" stroke="#161924" stroke-width="1.5"/>
</svg>
