<svg width="24" height="24" viewBox="0 0 24 24" fill="none" xmlns="http://www.w3.org/2000/svg">
<circle cx="7.99874" cy="5.99752" r="4.00167" stroke="#161924" stroke-width="1.5" stroke-linecap="round" stroke-linejoin="round"/>
<path d="M5.169 8.82666L2.99609 10.9996" stroke="#161924" stroke-width="1.5" stroke-linecap="round" stroke-linejoin="round"/>
<path d="M2.99609 15.0012V18.0025C2.99609 19.66 4.3398 21.0037 5.99734 21.0037H7.99818" stroke="#161924" stroke-width="1.5" stroke-linecap="round" stroke-linejoin="round"/>
<path d="M16.002 2.99622H18.0028C19.6603 2.99622 21.004 4.33992 21.004 5.99747V8.99872" stroke="#161924" stroke-width="1.5" stroke-linecap="round" stroke-linejoin="round"/>
<path d="M14.4492 17.5536L17.553 14.4498" stroke="#161924" stroke-width="1.5" stroke-linecap="round" stroke-linejoin="round"/>
<path d="M14.2513 14.3257C14.2515 14.2844 14.2851 14.2509 14.3265 14.251C14.3679 14.2511 14.4014 14.2846 14.4014 14.326C14.4014 14.3674 14.3679 14.401 14.3265 14.401C14.2851 14.4011 14.2515 14.3677 14.2513 14.3263V14.3257" stroke="#161924" stroke-width="1.5" stroke-linecap="round" stroke-linejoin="round"/>
<rect x="11" y="10.9996" width="10.0042" height="10.0042" rx="3" stroke="#161924" stroke-width="1.5" stroke-linecap="round" stroke-linejoin="round"/>
<path d="M17.753 17.6776C17.7528 17.719 17.7192 17.7524 17.6778 17.7524C17.6364 17.7523 17.6029 17.7187 17.6029 17.6773C17.6029 17.6359 17.6364 17.6024 17.6778 17.6023C17.7192 17.6022 17.7528 17.6357 17.753 17.6771V17.6776" stroke="#161924" stroke-width="1.5" stroke-linecap="round" stroke-linejoin="round"/>
</svg>
