<svg width="24" height="24" viewBox="0 0 24 24" fill="none" xmlns="http://www.w3.org/2000/svg">
<path d="M18.223 10.169C18.309 10.603 18.356 11.052 18.356 11.512C18.356 15.293 15.292 18.357 11.511 18.357C9.636 18.357 7.939 17.602 6.703 16.381" stroke="#161924" stroke-width="1.5" stroke-linecap="round" stroke-linejoin="round"/>
<path d="M16.38 6.70299C15.139 5.44599 13.417 4.66699 11.511 4.66699C7.73 4.66699 4.666 7.73099 4.666 11.512C4.666 12.006 4.721 12.487 4.82 12.951" stroke="#161924" stroke-width="1.5" stroke-linecap="round" stroke-linejoin="round"/>
<path d="M16.334 12.189L18.292 10.094L20.25 12.189" stroke="#161924" stroke-width="1.5" stroke-linecap="round" stroke-linejoin="round"/>
<path d="M4.73 13.05L2.77 10.95" stroke="#161924" stroke-width="1.5" stroke-linecap="round" stroke-linejoin="round"/>
<path d="M19.33 19.33L16.35 16.35" stroke="#161924" stroke-width="1.5" stroke-linecap="round" stroke-linejoin="round"/>
<path d="M6.69 10.95L4.73 13.05" stroke="#161924" stroke-width="1.5" stroke-linecap="round" stroke-linejoin="round"/>
</svg>
