<svg width="24" height="24" viewBox="0 0 24 24" fill="none" xmlns="http://www.w3.org/2000/svg">
<path d="M15.36 13.4534L13.4275 11.5209" stroke="#161924" stroke-width="1.5" stroke-linecap="round" stroke-linejoin="round"/>
<path d="M13.4237 8.3491C14.2982 9.22366 14.2982 10.6425 13.4237 11.5171C12.5491 12.3917 11.1302 12.3917 10.2557 11.5171C9.38109 10.6425 9.38109 9.22366 10.2557 8.3491C11.1312 7.47454 12.5491 7.47454 13.4237 8.3491" stroke="#161924" stroke-width="1.5" stroke-linecap="round" stroke-linejoin="round"/>
<path d="M9.11987 15.3696H11.9999" stroke="#161924" stroke-width="1.5" stroke-linecap="round" stroke-linejoin="round"/>
<path d="M18.1094 5.42403C21.4835 8.79816 21.4835 14.2687 18.1094 17.6428C14.7352 21.0169 9.2647 21.0169 5.89058 17.6428C2.51645 14.2687 2.51645 8.79814 5.89058 5.42403C9.26471 2.0499 14.7353 2.0499 18.1094 5.42403" stroke="#161924" stroke-width="1.5" stroke-linecap="round" stroke-linejoin="round"/>
</svg>
