<svg width="24" height="24" viewBox="0 0 24 24" fill="none" xmlns="http://www.w3.org/2000/svg">
<path d="M15.5014 14.0008L13.4876 11.9869" stroke="#161924" stroke-width="1.5" stroke-linecap="round" stroke-linejoin="round"/>
<path d="M13.4836 8.68158C14.3949 9.59296 14.3949 11.0716 13.4836 11.983C12.5722 12.8943 11.0936 12.8943 10.1822 11.983C9.27081 11.0716 9.27081 9.59296 10.1822 8.68158C11.0946 7.7702 12.5722 7.7702 13.4836 8.68158" stroke="#161924" stroke-width="1.5" stroke-linecap="round" stroke-linejoin="round"/>
<path d="M8.99872 15.9976H12" stroke="#161924" stroke-width="1.5" stroke-linecap="round" stroke-linejoin="round"/>
<path fill-rule="evenodd" clip-rule="evenodd" d="M18.0025 21.0037H5.99747C4.33978 21.0037 2.99622 19.6602 2.99622 18.0025V5.99747C2.99622 4.33978 4.33978 2.99622 5.99747 2.99622H18.0025C19.6602 2.99622 21.0037 4.33978 21.0037 5.99747V18.0025C21.0037 19.6602 19.6602 21.0037 18.0025 21.0037Z" stroke="#161924" stroke-width="1.5" stroke-linecap="round" stroke-linejoin="round"/>
</svg>
