<svg width="24" height="24" viewBox="0 0 24 24" fill="none" xmlns="http://www.w3.org/2000/svg">
<path d="M13 17L10.987 14.987" stroke="#161924" stroke-width="1.5" stroke-linecap="round" stroke-linejoin="round"/>
<path d="M10.983 11.683C11.894 12.594 11.894 14.072 10.983 14.983C10.072 15.894 8.59401 15.894 7.68301 14.983C6.77201 14.072 6.77201 12.594 7.68301 11.683C8.59501 10.772 10.072 10.772 10.983 11.683" stroke="#161924" stroke-width="1.5" stroke-linecap="round" stroke-linejoin="round"/>
<path fill-rule="evenodd" clip-rule="evenodd" d="M15 21H5C3.895 21 3 20.105 3 19V9C3 7.895 3.895 7 5 7H15C16.105 7 17 7.895 17 9V19C17 20.105 16.105 21 15 21Z" stroke="#161924" stroke-width="1.5" stroke-linecap="round" stroke-linejoin="round"/>
<path d="M7 7V5C7 3.895 7.895 3 9 3H19C20.105 3 21 3.895 21 5V15C21 16.105 20.105 17 19 17H17" stroke="#161924" stroke-width="1.5" stroke-linecap="round" stroke-linejoin="round"/>
</svg>
