<svg width="24" height="24" viewBox="0 0 24 24" fill="none" xmlns="http://www.w3.org/2000/svg">
<path d="M20.0033 20.0033L16.752 16.752" stroke="#161924" stroke-width="1.5" stroke-linecap="round" stroke-linejoin="round"/>
<path d="M16.7484 6.18456C19.6656 9.10183 19.6656 13.8316 16.7484 16.7489C13.8311 19.6661 9.10131 19.6661 6.18405 16.7489C3.26679 13.8316 3.26677 9.10183 6.18401 6.18456C7.58493 4.78362 9.48499 3.99658 11.4662 3.99658C13.4474 3.99658 15.3475 4.78362 16.7484 6.18456" stroke="#161924" stroke-width="1.5" stroke-linecap="round" stroke-linejoin="round"/>
<path d="M11.469 7.96832V11.1917" stroke="#161924" stroke-width="1.5" stroke-linecap="round" stroke-linejoin="round"/>
<path d="M14.9697 11.97C14.9697 11.5401 14.6212 11.1917 14.1914 11.1917H8.74512C8.31526 11.1917 7.9668 11.5401 7.9668 11.97" stroke="#161924" stroke-width="1.5" stroke-linecap="round" stroke-linejoin="round"/>
<path fill-rule="evenodd" clip-rule="evenodd" d="M8.96721 14.9712H13.9693C14.5218 14.9712 14.9697 14.5233 14.9697 13.9708V10.4043C14.9696 9.99894 14.8876 9.59775 14.7286 9.22485L14.4505 8.57558C14.2932 8.20743 13.9315 7.96854 13.5311 7.96832H9.4054C9.00467 7.96814 8.6425 8.20709 8.48501 8.57558L8.2079 9.22385C8.0494 9.59551 7.96741 9.99529 7.9668 10.3993V13.9708C7.9668 14.5233 8.4147 14.9712 8.96721 14.9712Z" stroke="#161924" stroke-width="1.5" stroke-linecap="round" stroke-linejoin="round"/>
</svg>
