<svg width="24" height="24" viewBox="0 0 24 24" fill="none" xmlns="http://www.w3.org/2000/svg">
<path d="M12 2.99622C16.9731 2.99622 21.0037 7.02689 21.0037 12" stroke="#161924" stroke-width="1.5" stroke-linecap="round" stroke-linejoin="round"/>
<path d="M8.99875 3.52441C5.50429 4.76093 2.99625 8.08231 2.99625 11.9999C2.99625 16.973 7.02693 21.0037 12 21.0037C15.9176 21.0037 19.238 18.4956 20.4745 15.0012" stroke="#161924" stroke-width="1.5" stroke-linecap="round" stroke-linejoin="round"/>
<path d="M12 5.99744C15.3154 5.99744 18.0025 8.68456 18.0025 11.9999" stroke="#161924" stroke-width="1.5" stroke-linecap="round" stroke-linejoin="round"/>
<path d="M12 8.99866C13.6577 8.99866 15.0013 10.3422 15.0013 11.9999" stroke="#161924" stroke-width="1.5" stroke-linecap="round" stroke-linejoin="round"/>
<path d="M12 11.9499C11.972 11.9499 11.95 11.973 11.95 12C11.95 12.028 11.973 12.05 12 12.05C12.028 12.05 12.05 12.027 12.05 12C12.05 11.972 12.028 11.9499 12 11.9499" stroke="#161924" stroke-width="1.5" stroke-linecap="round" stroke-linejoin="round"/>
</svg>
