<svg width="24" height="24" viewBox="0 0 24 24" fill="none" xmlns="http://www.w3.org/2000/svg">
<path d="M16.747 6.187C19.663 9.103 19.663 13.831 16.747 16.747C13.831 19.663 9.103 19.663 6.187 16.747C3.271 13.831 3.271 9.103 6.187 6.187C9.103 3.271 13.831 3.271 16.747 6.187" stroke="#161924" stroke-width="1.5" stroke-linecap="round" stroke-linejoin="round"/>
<path d="M20 20L16.75 16.75" stroke="#161924" stroke-width="1.5" stroke-linecap="round" stroke-linejoin="round"/>
<path d="M11.467 11.217C11.329 11.217 11.217 11.329 11.218 11.467C11.218 11.605 11.33 11.717 11.468 11.717C11.606 11.717 11.718 11.605 11.718 11.467C11.717 11.329 11.605 11.217 11.467 11.217" stroke="#161924" stroke-width="1.5" stroke-linecap="round" stroke-linejoin="round"/>
<path d="M14.785 11.217C14.647 11.217 14.535 11.329 14.536 11.467C14.536 11.605 14.648 11.717 14.786 11.717C14.924 11.717 15.036 11.605 15.036 11.467C15.036 11.329 14.924 11.217 14.785 11.217" stroke="#161924" stroke-width="1.5" stroke-linecap="round" stroke-linejoin="round"/>
<path d="M8.14805 11.217C8.01005 11.217 7.89805 11.329 7.89905 11.467C7.89905 11.605 8.01105 11.717 8.14905 11.717C8.28705 11.717 8.39905 11.605 8.39905 11.467C8.39905 11.329 8.28705 11.217 8.14805 11.217" stroke="#161924" stroke-width="1.5" stroke-linecap="round" stroke-linejoin="round"/>
</svg>
