<svg width="24" height="24" viewBox="0 0 24 24" fill="none" xmlns="http://www.w3.org/2000/svg">
<path d="M7.49809 2.99622H5.24715C4.00364 2.99622 2.99622 4.00364 2.99622 5.24715V7.49809" stroke="#161924" stroke-width="1.5" stroke-linecap="round" stroke-linejoin="round"/>
<path d="M2.99622 16.5018V18.7528C2.99622 19.9963 4.00364 21.0037 5.24715 21.0037H7.49809" stroke="#161924" stroke-width="1.5" stroke-linecap="round" stroke-linejoin="round"/>
<path d="M21.0037 7.49809V5.24715C21.0037 4.00364 19.9963 2.99622 18.7528 2.99622H16.5018" stroke="#161924" stroke-width="1.5" stroke-linecap="round" stroke-linejoin="round"/>
<path d="M15.5015 14.501L18.5027 17.5022" stroke="#161924" stroke-width="1.5" stroke-linecap="round" stroke-linejoin="round"/>
<path d="M15.5015 17.5022L18.5027 14.501" stroke="#161924" stroke-width="1.5" stroke-linecap="round" stroke-linejoin="round"/>
<path d="M12 16.0016C12 13.2394 14.2399 10.9995 17.0021 10.9995C19.7642 10.9995 22.0042 13.2394 22.0042 16.0016C22.0042 18.7637 19.7642 21.0037 17.0021 21.0037C14.2399 21.0037 12 18.7637 12 16.0016" stroke="#161924" stroke-width="1.5" stroke-linecap="round" stroke-linejoin="round"/>
</svg>
