<svg width="24" height="24" viewBox="0 0 24 24" fill="none" xmlns="http://www.w3.org/2000/svg">
<path d="M14.0008 16.0017H18.0025" stroke="#161924" stroke-width="1.5" stroke-linecap="round" stroke-linejoin="round"/>
<path d="M16.0016 18.0026V14.001" stroke="#161924" stroke-width="1.5" stroke-linecap="round" stroke-linejoin="round"/>
<path d="M16.0017 21.0039C13.2395 21.0039 10.9996 18.764 10.9996 16.0018C10.9996 13.2397 13.2395 10.9998 16.0017 10.9998C18.7638 10.9998 21.0037 13.2397 21.0037 16.0018C21.0037 18.764 18.7638 21.0039 16.0017 21.0039" stroke="#161924" stroke-width="1.5" stroke-linecap="round" stroke-linejoin="round"/>
<path d="M7.49809 2.99634H5.24715C4.00364 2.99634 2.99622 4.00376 2.99622 5.24728V7.49821" stroke="#161924" stroke-width="1.5" stroke-linecap="round" stroke-linejoin="round"/>
<path d="M2.99622 16.502V18.7529C2.99622 19.9964 4.00364 21.0038 5.24715 21.0038H7.49809" stroke="#161924" stroke-width="1.5" stroke-linecap="round" stroke-linejoin="round"/>
<path d="M21.0037 7.49821V5.24728C21.0037 4.00376 19.9963 2.99634 18.7528 2.99634H16.5018" stroke="#161924" stroke-width="1.5" stroke-linecap="round" stroke-linejoin="round"/>
</svg>
