<svg width="24" height="24" viewBox="0 0 24 24" fill="none" xmlns="http://www.w3.org/2000/svg">
<path fill-rule="evenodd" clip-rule="evenodd" d="M8 21C5.23858 21 3 18.7614 3 16L3 8C3 5.23858 5.23858 3 8 3H16C18.7614 3 21 5.23858 21 8V16C21 18.7614 18.7614 21 16 21H8Z" stroke="#161924" stroke-width="1.5" stroke-linecap="round" stroke-linejoin="round"/>
<path fill-rule="evenodd" clip-rule="evenodd" d="M10.5 15H8.50847C8.13901 15.0008 7.79895 14.7986 7.62307 14.4737C7.44719 14.1488 7.46388 13.7536 7.66652 13.4446L11.337 7.86016C11.485 7.63531 11.7362 7.49997 12.0055 7.5C12.2747 7.50003 12.5259 7.63541 12.6739 7.86029L16.3317 13.428C16.5365 13.7403 16.5533 14.1397 16.3755 14.4681C16.1977 14.7965 15.854 15.0008 15.4806 15H13.5848L12.0424 16.5L10.5 15Z" stroke="#161924" stroke-width="1.5" stroke-linecap="round" stroke-linejoin="round"/>
</svg>
