<svg width="24" height="24" viewBox="0 0 24 24" fill="none" xmlns="http://www.w3.org/2000/svg">
<path fill-rule="evenodd" clip-rule="evenodd" d="M20 21H4C2.895 21 2 20.105 2 19V17.634C2 16.529 2.895 15.634 4 15.634H20C21.105 15.634 22 16.529 22 17.634V19C22 20.105 21.105 21 20 21Z" stroke="#161924" stroke-width="1.5" stroke-linecap="round" stroke-linejoin="round"/>
<path d="M9.46559 3.60717C10.2751 4.41672 10.2751 5.72928 9.46559 6.53883C8.65603 7.34838 7.34348 7.34838 6.53393 6.53883C5.72437 5.72927 5.72437 4.41672 6.53393 3.60717C7.34348 2.79761 8.65604 2.79761 9.46559 3.60717" stroke="#161924" stroke-width="1.5" stroke-linecap="round" stroke-linejoin="round"/>
<path d="M4.06348 15.634L4.72248 11.672C4.88248 10.707 5.71748 10 6.69548 10H9.32448C10.2945 10 11.1245 10.696 11.2935 11.651L12.0005 15.634" stroke="#161924" stroke-width="1.5" stroke-linecap="round" stroke-linejoin="round"/>
<path d="M14.6826 15.634V11C14.6826 10.448 15.1306 10 15.6826 10H18.9996C19.5516 10 19.9996 10.448 19.9996 11V15.634" stroke="#161924" stroke-width="1.5" stroke-linecap="round" stroke-linejoin="round"/>
</svg>
