<svg width="24" height="24" viewBox="0 0 24 24" fill="none" xmlns="http://www.w3.org/2000/svg">
<path d="M18.364 5.63601C21.879 9.15101 21.879 14.849 18.364 18.364C14.849 21.879 9.15101 21.879 5.63601 18.364C2.12101 14.849 2.12101 9.15101 5.63601 5.63601C9.15101 2.12101 14.849 2.12101 18.364 5.63601" stroke="#161924" stroke-width="1.5" stroke-linecap="round" stroke-linejoin="round"/>
<path d="M9.172 14.828C7.61 13.266 7.61 10.733 9.172 9.17101C10.734 7.60901 13.267 7.60901 14.829 9.17101C16.391 10.733 16.391 13.266 14.829 14.828C13.266 16.391 10.734 16.391 9.172 14.828" stroke="#161924" stroke-width="1.5" stroke-linecap="round" stroke-linejoin="round"/>
<path d="M14.83 9.16998L12 12" stroke="#161924" stroke-width="1.5" stroke-linecap="round" stroke-linejoin="round"/>
<path d="M12 3V4.5" stroke="#161924" stroke-width="1.5" stroke-linecap="round" stroke-linejoin="round"/>
<path d="M12 21V19.5" stroke="#161924" stroke-width="1.5" stroke-linecap="round" stroke-linejoin="round"/>
<path d="M18.364 5.63599L17.303 6.69699" stroke="#161924" stroke-width="1.5" stroke-linecap="round" stroke-linejoin="round"/>
<path d="M5.636 18.364L6.697 17.303" stroke="#161924" stroke-width="1.5" stroke-linecap="round" stroke-linejoin="round"/>
<path d="M21 12H19.5" stroke="#161924" stroke-width="1.5" stroke-linecap="round" stroke-linejoin="round"/>
<path d="M3 12H4.5" stroke="#161924" stroke-width="1.5" stroke-linecap="round" stroke-linejoin="round"/>
<path d="M18.364 18.364L17.303 17.303" stroke="#161924" stroke-width="1.5" stroke-linecap="round" stroke-linejoin="round"/>
<path d="M5.636 5.63599L6.697 6.69699" stroke="#161924" stroke-width="1.5" stroke-linecap="round" stroke-linejoin="round"/>
</svg>
