<svg width="24" height="24" viewBox="0 0 24 24" fill="none" xmlns="http://www.w3.org/2000/svg">
<path d="M14.2512 13.5007C14.2512 13.9149 14.587 14.2507 15.0012 14.2507C15.4154 14.2507 15.7512 13.9149 15.7512 13.5007H15.0012H14.2512ZM15.7512 6.998C15.7512 6.58379 15.4154 6.248 15.0012 6.248C14.587 6.248 14.2512 6.58379 14.2512 6.998H15.0012H15.7512ZM9.74872 10.4995C9.74872 10.0852 9.41293 9.74946 8.99872 9.74946C8.5845 9.74946 8.24872 10.0852 8.24872 10.4995H8.99872H9.74872ZM8.24872 17.0022C8.24872 17.4164 8.5845 17.7522 8.99872 17.7522C9.41293 17.7522 9.74872 17.4164 9.74872 17.0022H8.99872H8.24872ZM2.99622 16.0018H3.74622V7.99842H2.99622H2.24622V16.0018H2.99622ZM2.99622 7.99842H3.74622C3.74622 5.65006 5.64994 3.74634 7.9983 3.74634V2.99634V2.24634C4.82151 2.24634 2.24622 4.82163 2.24622 7.99842H2.99622ZM7.9983 2.99634V3.74634H16.0016V2.99634V2.24634H7.9983V2.99634ZM16.0016 2.99634V3.74634C18.35 3.74634 20.2537 5.65006 20.2537 7.99842H21.0037H21.7537C21.7537 4.82163 19.1784 2.24634 16.0016 2.24634V2.99634ZM21.0037 7.99842H20.2537V16.0018H21.0037H21.7537V7.99842H21.0037ZM21.0037 16.0018H20.2537C20.2537 18.3501 18.35 20.2538 16.0016 20.2538V21.0038V21.7538C19.1784 21.7538 21.7537 19.1785 21.7537 16.0018H21.0037ZM16.0016 21.0038V20.2538H7.9983V21.0038V21.7538H16.0016V21.0038ZM7.9983 21.0038V20.2538C5.64994 20.2538 3.74622 18.3501 3.74622 16.0018H2.99622H2.24622C2.24622 19.1785 4.82151 21.7538 7.9983 21.7538V21.0038ZM15.0012 13.5007H15.7512V6.998H15.0012H14.2512V13.5007H15.0012ZM13.2505 16.0018H14.0005V14.5011H13.2505H12.5005V16.0018H13.2505ZM13.2505 14.5011H14.0005C14.0005 14.3628 14.1126 14.2507 14.2509 14.2507V13.5007V12.7507C13.2842 12.7507 12.5005 13.5344 12.5005 14.5011H13.2505ZM14.2509 13.5007V14.2507H15.7515V13.5007V12.7507H14.2509V13.5007ZM15.7515 13.5007V14.2507C15.8898 14.2507 16.0019 14.3628 16.0019 14.5011H16.7519H17.5019C17.5019 13.5344 16.7183 12.7507 15.7515 12.7507V13.5007ZM16.7519 14.5011H16.0019V16.0018H16.7519H17.5019V14.5011H16.7519ZM16.7519 16.0018H16.0019C16.0019 16.1401 15.8898 16.2522 15.7515 16.2522V17.0022V17.7522C16.7183 17.7522 17.5019 16.9685 17.5019 16.0018H16.7519ZM15.7515 17.0022V16.2522H14.2509V17.0022V17.7522H15.7515V17.0022ZM14.2509 17.0022V16.2522C14.1126 16.2522 14.0005 16.1401 14.0005 16.0018H13.2505H12.5005C12.5005 16.9685 13.2842 17.7522 14.2509 17.7522V17.0022ZM8.99872 10.4995H8.24872V17.0022H8.99872H9.74872V10.4995H8.99872ZM10.7494 7.99842H9.99944V9.49905H10.7494H11.4994V7.99842H10.7494ZM10.7494 9.49905H9.99944C9.99944 9.63735 9.88733 9.74946 9.74903 9.74946V10.4995V11.2495C10.7158 11.2495 11.4994 10.4658 11.4994 9.49905H10.7494ZM9.74903 10.4995V9.74946H8.2484V10.4995V11.2495H9.74903V10.4995ZM8.2484 10.4995V9.74946C8.1101 9.74946 7.99799 9.63735 7.99799 9.49905H7.24799H6.49799C6.49799 10.4658 7.28167 11.2495 8.2484 11.2495V10.4995ZM7.24799 9.49905H7.99799V7.99842H7.24799H6.49799V9.49905H7.24799ZM7.24799 7.99842H7.99799C7.99799 7.86012 8.1101 7.748 8.2484 7.748V6.998V6.248C7.28167 6.248 6.49799 7.03169 6.49799 7.99842H7.24799ZM8.2484 6.998V7.748H9.74903V6.998V6.248H8.2484V6.998ZM9.74903 6.998V7.748C9.88733 7.748 9.99944 7.86012 9.99944 7.99842H10.7494H11.4994C11.4994 7.03169 10.7158 6.248 9.74903 6.248V6.998Z" fill="#161924"/>
</svg>
