<svg width="24" height="24" viewBox="0 0 24 24" fill="none" xmlns="http://www.w3.org/2000/svg">
<path fill-rule="evenodd" clip-rule="evenodd" d="M19.8182 13.7972L19.8671 13.785C20.5351 13.6179 21.0037 13.0177 21.0037 12.3291V11.6707C21.0037 10.9821 20.5351 10.3819 19.8671 10.2149L19.8181 10.2026C19.3088 10.075 18.8901 9.71366 18.6893 9.22854C18.4885 8.74342 18.5294 8.19187 18.7996 7.74167L18.8202 7.70734C19.1789 7.1159 19.0878 6.35595 18.5993 5.86615L18.1337 5.40054C17.6468 4.91364 16.891 4.82058 16.3005 5.17484L16.2572 5.20085C15.807 5.47093 15.2555 5.51173 14.7705 5.31084C14.2855 5.10994 13.9244 4.69112 13.7971 4.18183L13.7848 4.13294C13.6178 3.46494 13.0176 2.99634 12.329 2.99634H11.6705C10.982 2.99634 10.3817 3.46495 10.2147 4.13296L10.2024 4.18198C10.0748 4.69127 9.71352 5.11 9.22841 5.31078C8.74329 5.51157 8.19173 5.47067 7.74153 5.20053L7.70718 5.17993C7.11574 4.82113 6.35579 4.91229 5.866 5.4008L5.4004 5.8664C4.91347 6.35322 4.82038 7.10897 5.1746 7.6994L5.20022 7.74211C5.47037 8.19231 5.51128 8.74387 5.3105 9.22899C5.10972 9.71411 4.691 10.0754 4.18171 10.203L4.13285 10.2153C3.46486 10.3823 2.99622 10.9825 2.99622 11.671V12.3296C2.99622 13.018 3.4646 13.6182 4.13248 13.7852L4.18102 13.7973C4.69038 13.9247 5.10931 14.2857 5.31037 14.7707C5.51143 15.2557 5.47085 15.8073 5.20096 16.2577L5.17502 16.3009C4.82078 16.8913 4.91382 17.6471 5.40068 18.134L5.86633 18.5997C6.35304 19.0865 7.10868 19.1797 7.69903 18.8255L7.74194 18.7997C8.19214 18.5296 8.7437 18.4887 9.22883 18.6894C9.71395 18.8902 10.0753 19.3089 10.2029 19.8182L10.2151 19.8672C10.3821 20.5352 10.9823 21.0038 11.6709 21.0038H12.3294C13.0179 21.0038 13.618 20.5354 13.785 19.8675L13.7972 19.819C13.9245 19.3096 14.2856 18.8907 14.7706 18.6896C15.2556 18.4886 15.8072 18.5292 16.2575 18.7991L16.3007 18.825C16.8912 19.1793 17.6469 19.0862 18.1338 18.5994L18.5995 18.1337C19.0864 17.647 19.1795 16.8913 18.8253 16.301L18.7996 16.2581C18.5295 15.8079 18.4886 15.2563 18.6894 14.7712C18.8902 14.2861 19.3089 13.9248 19.8182 13.7972Z" stroke="#161924" stroke-width="1.5" stroke-linecap="round" stroke-linejoin="round"/>
<circle cx="11.9999" cy="12.0004" r="2.07779" stroke="#161924" stroke-width="1.5" stroke-linecap="round" stroke-linejoin="round"/>
</svg>
