<svg width="24" height="24" viewBox="0 0 24 24" fill="none" xmlns="http://www.w3.org/2000/svg">
<path fill-rule="evenodd" clip-rule="evenodd" d="M11.2777 10.5353L14.2529 7.56008C14.2717 7.54125 14.28 7.51442 14.2753 7.48826C14.2705 7.46211 14.2532 7.43998 14.2289 7.42903C12.4729 6.67412 10.4347 7.05732 9.07278 8.39843C7.76786 9.67401 7.34841 11.6044 8.00633 13.3065L3.54848 17.7673C2.81233 18.5044 2.81233 19.6984 3.54848 20.4354C4.28552 21.1716 5.47955 21.1716 6.21659 20.4354L10.7105 15.9416C12.4613 16.5931 14.4321 16.134 15.7149 14.7758C16.9976 13.4176 17.3434 11.4238 16.5929 9.71298C16.5813 9.68962 16.5594 9.67316 16.5337 9.66862C16.508 9.66408 16.4817 9.672 16.4629 9.68997L13.4126 12.6692L12.3461 11.5998L11.2777 10.5353Z" stroke="#161924" stroke-width="1.5" stroke-linecap="round" stroke-linejoin="round"/>
<path d="M7.10295 19.5492C10.9739 22.0648 16.1191 21.253 19.0276 17.668C21.9361 14.0829 21.6698 8.88085 18.4103 5.61162C15.1509 2.34239 9.94961 2.06043 6.35586 4.95815C2.7621 7.85587 1.93495 12.9987 4.43884 16.8771" stroke="#161924" stroke-width="1.5" stroke-linecap="round" stroke-linejoin="round"/>
</svg>
