<svg width="24" height="24" viewBox="0 0 24 24" fill="none" xmlns="http://www.w3.org/2000/svg">
<path d="M20.0033 17.0022L17.5023 19.5032L16.0016 18.0026" stroke="#161924" stroke-width="1.5" stroke-linecap="round" stroke-linejoin="round"/>
<path d="M13.0004 21.0038H7.99833C5.23576 21.0038 2.99625 18.7643 2.99625 16.0018V7.99842C2.99625 5.23585 5.23576 2.99634 7.99833 2.99634H16.0017C18.7642 2.99634 21.0037 5.23585 21.0037 7.99842V13.0005" stroke="#161924" stroke-width="1.5" stroke-linecap="round" stroke-linejoin="round"/>
<path fill-rule="evenodd" clip-rule="evenodd" d="M15.9242 13.3947L13.3946 15.9244C12.6244 16.6946 11.3756 16.6946 10.6054 15.9244L8.07579 13.3947C7.30559 12.6245 7.30559 11.3758 8.07579 10.6056L10.6054 8.07594C11.3756 7.30574 12.6244 7.30574 13.3946 8.07594L15.9242 10.6056C16.6944 11.3758 16.6944 12.6245 15.9242 13.3947V13.3947Z" stroke="#161924" stroke-width="1.5" stroke-linecap="round" stroke-linejoin="round"/>
</svg>
