<svg width="24" height="24" viewBox="0 0 24 24" fill="none" xmlns="http://www.w3.org/2000/svg">
<path d="M13.273 10.727C13.976 11.43 13.976 12.57 13.273 13.273C12.57 13.976 11.43 13.976 10.727 13.273C10.024 12.57 10.024 11.43 10.727 10.727C11.43 10.024 12.57 10.024 13.273 10.727" stroke="#161924" stroke-width="1.5" stroke-linecap="round" stroke-linejoin="round"/>
<path fill-rule="evenodd" clip-rule="evenodd" d="M7.49999 12C7.49999 12.198 7.51799 12.396 7.54199 12.588L6.48299 13.416C6.24799 13.6 6.18399 13.929 6.33399 14.187L7.27499 15.816C7.42399 16.074 7.73999 16.183 8.01599 16.072L8.96399 15.691C9.15099 15.616 9.35999 15.646 9.52799 15.757C9.67499 15.854 9.82699 15.944 9.98399 16.024C10.164 16.115 10.295 16.279 10.323 16.479L10.468 17.488C10.511 17.781 10.763 18 11.061 18H12.939C13.236 18 13.489 17.781 13.531 17.487L13.676 16.479C13.705 16.279 13.837 16.114 14.017 16.024C14.174 15.945 14.325 15.857 14.471 15.76C14.64 15.648 14.85 15.616 15.038 15.692L15.984 16.072C16.26 16.183 16.576 16.074 16.725 15.816L17.666 14.187C17.815 13.929 17.751 13.6 17.517 13.416L16.458 12.588C16.482 12.396 16.5 12.198 16.5 12C16.5 11.802 16.482 11.604 16.458 11.412L17.517 10.584C17.752 10.4 17.816 10.071 17.666 9.813L16.725 8.184C16.576 7.926 16.26 7.817 15.984 7.928L15.038 8.308C14.85 8.383 14.641 8.352 14.471 8.24C14.325 8.143 14.174 8.055 14.017 7.976C13.836 7.885 13.704 7.721 13.676 7.521L13.532 6.513C13.489 6.219 13.237 6 12.939 6H11.061C10.764 6 10.511 6.219 10.469 6.513L10.324 7.522C10.295 7.721 10.164 7.885 9.98499 7.977C9.82799 8.057 9.67599 8.147 9.52899 8.244C9.35999 8.355 9.15099 8.385 8.96399 8.309L8.01699 7.929C7.73999 7.818 7.42399 7.927 7.27499 8.185L6.33399 9.813C6.18499 10.071 6.24899 10.4 6.48299 10.584L7.54199 11.412C7.51799 11.604 7.49999 11.802 7.49999 12V12Z" stroke="#161924" stroke-width="1.5" stroke-linecap="round" stroke-linejoin="round"/>
<circle cx="12" cy="12" r="9" stroke="#161924" stroke-width="1.5" stroke-linecap="round" stroke-linejoin="round"/>
</svg>
