<svg width="24" height="24" viewBox="0 0 24 24" fill="none" xmlns="http://www.w3.org/2000/svg">
<circle cx="12.0003" cy="12" r="9.00375" stroke="#161924" stroke-width="1.5" stroke-linecap="round" stroke-linejoin="round"/>
<path d="M7.07458 19.5252L10.7104 15.8893C12.4612 16.5409 14.432 16.0819 15.7148 14.7238C16.9976 13.3657 17.3435 11.372 16.5932 9.66115C16.5815 9.63781 16.5596 9.62135 16.5339 9.61676C16.5082 9.61218 16.4819 9.62001 16.4629 9.63789L13.4122 12.6176L11.278 10.4834L14.2531 7.50834C14.2717 7.48931 14.2798 7.46244 14.275 7.4363C14.2701 7.41016 14.2528 7.38801 14.2287 7.37692C12.4722 6.62278 10.434 7.00715 9.07287 8.34922C7.76823 9.62496 7.34881 11.5551 8.00635 13.2573L4.41797 16.8457" stroke="#161924" stroke-width="1.5" stroke-linecap="round" stroke-linejoin="round"/>
</svg>
