<svg width="24" height="24" viewBox="0 0 24 24" fill="none" xmlns="http://www.w3.org/2000/svg">
<circle cx="12" cy="12.0001" r="1.50063" stroke="#161924" stroke-width="1.5" stroke-linecap="round" stroke-linejoin="round"/>
<path fill-rule="evenodd" clip-rule="evenodd" d="M17.2522 13.2996L16.5019 13.7328C16.0376 14.0008 15.7516 14.4962 15.7516 15.0323V15.8987C15.7515 16.4348 15.4655 16.9302 15.0012 17.1982C14.5369 17.4663 13.9649 17.4663 13.5006 17.1982L12.7503 16.765C12.286 16.497 11.714 16.497 11.2497 16.765L10.4994 17.1982C10.0351 17.4663 9.46305 17.4663 8.99876 17.1982C8.53447 16.9302 8.24844 16.4348 8.24843 15.8987V15.0323C8.24842 14.4962 7.9624 14.0008 7.49812 13.7328L6.74781 13.2996C6.28355 13.0315 5.99756 12.5361 5.99756 12C5.99756 11.4639 6.28355 10.9686 6.74781 10.7005L7.49812 10.2673C7.9624 9.99926 8.24842 9.50389 8.24843 8.96778V8.10142C8.24844 7.5653 8.53447 7.06992 8.99876 6.80187C9.46305 6.53381 10.0351 6.53382 10.4994 6.80188L11.2497 7.23506C11.714 7.50312 12.286 7.50312 12.7503 7.23506L13.5006 6.80188C13.9649 6.53382 14.5369 6.53381 15.0012 6.80187C15.4655 7.06992 15.7515 7.5653 15.7516 8.10142V8.96778C15.7516 9.50389 16.0376 9.99926 16.5019 10.2673L17.2522 10.7005C17.7164 10.9686 18.0024 11.4639 18.0024 12C18.0024 12.5361 17.7164 13.0315 17.2522 13.2996Z" stroke="#161924" stroke-width="1.5" stroke-linecap="round" stroke-linejoin="round"/>
<path fill-rule="evenodd" clip-rule="evenodd" d="M16.0016 21.0038H7.9983C5.23572 21.0038 2.99622 18.7643 2.99622 16.0018V7.99842C2.99622 5.23585 5.23572 2.99634 7.9983 2.99634H16.0016C18.7642 2.99634 21.0037 5.23585 21.0037 7.99842V16.0018C21.0037 18.7643 18.7642 21.0038 16.0016 21.0038Z" stroke="#161924" stroke-width="1.5" stroke-linecap="round" stroke-linejoin="round"/>
</svg>
