<svg width="24" height="24" viewBox="0 0 24 24" fill="none" xmlns="http://www.w3.org/2000/svg">
<path fill-rule="evenodd" clip-rule="evenodd" d="M10.05 17.296L11.4 16.586C11.776 16.388 12.225 16.388 12.601 16.586L13.951 17.296C14.386 17.525 14.913 17.486 15.31 17.198L15.813 16.832C16.21 16.543 16.409 16.054 16.326 15.57L16.068 14.067C15.996 13.648 16.135 13.221 16.439 12.925L17.531 11.861C17.883 11.518 18.009 11.005 17.858 10.538L17.666 9.94601C17.514 9.47901 17.11 9.13801 16.624 9.06801L15.115 8.84901C14.695 8.78801 14.331 8.52401 14.143 8.14301L13.468 6.77601C13.251 6.33601 12.802 6.05701 12.311 6.05701H11.689C11.198 6.05701 10.749 6.33601 10.532 6.77601L9.85702 8.14301C9.66902 8.52401 9.30602 8.78801 8.88602 8.84901L7.37702 9.06801C6.89102 9.13901 6.48702 9.47901 6.33502 9.94601L6.14302 10.538C5.99102 11.005 6.11802 11.518 6.47002 11.861L7.56202 12.925C7.86602 13.221 8.00502 13.649 7.93302 14.067L7.67402 15.57C7.59102 16.054 7.79002 16.543 8.18702 16.832L8.69002 17.198C9.08802 17.486 9.61502 17.524 10.05 17.296V17.296Z" stroke="#161924" stroke-width="1.5" stroke-linecap="round" stroke-linejoin="round"/>
<path fill-rule="evenodd" clip-rule="evenodd" d="M12 21V21C7.029 21 3 16.971 3 12V12C3 7.029 7.029 3 12 3V3C16.971 3 21 7.029 21 12V12C21 16.971 16.971 21 12 21Z" stroke="#161924" stroke-width="1.5" stroke-linecap="round" stroke-linejoin="round"/>
<path d="M12.354 11.646C12.549 11.841 12.549 12.158 12.354 12.353C12.159 12.548 11.842 12.548 11.647 12.353C11.452 12.158 11.452 11.841 11.647 11.646C11.842 11.451 12.158 11.451 12.354 11.646" stroke="#161924" stroke-width="1.5" stroke-linecap="round" stroke-linejoin="round"/>
</svg>
