<svg width="24" height="24" viewBox="0 0 24 24" fill="none" xmlns="http://www.w3.org/2000/svg">
<path fill-rule="evenodd" clip-rule="evenodd" d="M8 7H16C18.761 7 21 9.239 21 12V12C21 14.761 18.761 17 16 17H8C5.239 17 3 14.761 3 12V12C3 9.239 5.239 7 8 7Z" stroke="#161924" stroke-width="1.5" stroke-linecap="round" stroke-linejoin="round"/>
<path d="M8 14V10" stroke="#161924" stroke-width="1.5" stroke-linecap="round" stroke-linejoin="round"/>
<path d="M14.586 13.414C13.805 12.633 13.805 11.367 14.586 10.586C15.367 9.80499 16.633 9.80499 17.414 10.586C18.195 11.367 18.195 12.633 17.414 13.414C16.633 14.195 15.367 14.195 14.586 13.414" stroke="#161924" stroke-width="1.5" stroke-linecap="round" stroke-linejoin="round"/>
</svg>
