<svg width="24" height="24" viewBox="0 0 24 24" fill="none" xmlns="http://www.w3.org/2000/svg">
<path d="M8.27075 12.0002C9.29996 10.9704 10.9691 10.9699 11.9989 11.9991L12 12.0002V12.0002C13.0298 13.0294 13.0302 14.6986 12.001 15.7283L12 15.7294" stroke="#161924" stroke-width="1.5" stroke-linecap="round" stroke-linejoin="round"/>
<path fill-rule="evenodd" clip-rule="evenodd" d="M15.7292 12.0002L12 15.7294C11.5057 16.2239 10.8353 16.5018 10.1361 16.502C9.43696 16.5022 8.76636 16.2247 8.27183 15.7305L8.27077 15.7294V15.7294C7.77624 15.2351 7.49831 14.5647 7.49811 13.8655C7.49791 13.1664 7.77546 12.4958 8.2697 12.0012L8.27077 12.0002L12 8.27095C12.4942 7.77643 13.1647 7.49849 13.8638 7.49829C14.563 7.49809 15.2336 7.77564 15.7281 8.26988L15.7292 8.27095V8.27095C16.2237 8.76519 16.5017 9.43564 16.5019 10.1348C16.5021 10.834 16.2245 11.5046 15.7303 11.9991L15.7292 12.0002Z" stroke="#161924" stroke-width="1.5" stroke-linecap="round" stroke-linejoin="round"/>
<circle cx="12" cy="12.0001" r="9.00375" stroke="#161924" stroke-width="1.5" stroke-linecap="round" stroke-linejoin="round"/>
</svg>
