<svg width="24" height="24" viewBox="0 0 24 24" fill="none" xmlns="http://www.w3.org/2000/svg">
<path d="M14.0005 7.99835H8.99846C8.44595 7.99835 7.99805 8.44625 7.99805 8.99877V14.0009" stroke="#323232" stroke-width="1.5" stroke-linecap="round" stroke-linejoin="round"/>
<path d="M18.0022 7.99835H20.003C20.5556 7.99835 21.0035 8.44625 21.0035 8.99877V20.0034C21.0035 20.5559 20.5556 21.0038 20.003 21.0038H8.99846C8.44595 21.0038 7.99805 20.5559 7.99805 20.0034V18.0025" stroke="#323232" stroke-width="1.5" stroke-linecap="round" stroke-linejoin="round"/>
<path d="M9.99805 16.0016H15.0001C15.5526 16.0016 16.0005 15.5537 16.0005 15.0012V9.99915" stroke="#323232" stroke-width="1.5" stroke-linecap="round" stroke-linejoin="round"/>
<path d="M5.99734 16.0016H3.99651C3.444 16.0016 2.99609 15.5537 2.99609 15.0012V3.99663C2.99609 3.44412 3.444 2.99622 3.99651 2.99622H15.0011C15.5536 2.99622 16.0015 3.44412 16.0015 3.99663V5.99747" stroke="#323232" stroke-width="1.5" stroke-linecap="round" stroke-linejoin="round"/>
</svg>
