<svg width="24" height="24" viewBox="0 0 24 24" fill="none" xmlns="http://www.w3.org/2000/svg">
<path d="M19.9453 15.2607C21.2582 16.5736 21.2582 18.7023 19.9453 20.0153C18.6323 21.3282 16.5036 21.3282 15.1907 20.0153C13.8778 18.7024 13.8778 16.5737 15.1907 15.2607C16.5036 13.9478 18.6323 13.9478 19.9453 15.2607" stroke="#161924" stroke-width="1.5" stroke-linecap="round" stroke-linejoin="round"/>
<path d="M6.35999 9.78998V14.28" stroke="#161924" stroke-width="1.5" stroke-linecap="round" stroke-linejoin="round"/>
<path fill-rule="evenodd" clip-rule="evenodd" d="M8.603 21H4.121C3.502 21 3 20.498 3 19.879V15.397C3 14.778 3.502 14.276 4.121 14.276H8.603C9.222 14.276 9.724 14.778 9.724 15.397V19.879C9.724 20.498 9.222 21 8.603 21Z" stroke="#161924" stroke-width="1.5" stroke-linecap="round" stroke-linejoin="round"/>
<path d="M17.57 14.28V10.38" stroke="#161924" stroke-width="1.5" stroke-linecap="round" stroke-linejoin="round"/>
<path d="M8.7393 4.05471C10.0522 5.36765 10.0522 7.49635 8.7393 8.8093C7.42636 10.1222 5.29766 10.1222 3.98471 8.8093C2.67177 7.49636 2.67177 5.36766 3.98471 4.05471C5.29765 2.74177 7.42634 2.74177 8.7393 4.05471" stroke="#161924" stroke-width="1.5" stroke-linecap="round" stroke-linejoin="round"/>
<path fill-rule="evenodd" clip-rule="evenodd" d="M21.253 7.15299L18.355 10.051C17.917 10.489 17.208 10.489 16.77 10.051L13.872 7.15299C13.434 6.71499 13.434 6.00599 13.872 5.56799L16.77 2.66999C17.208 2.23199 17.917 2.23199 18.355 2.66999L21.253 5.56799C21.69 6.00599 21.69 6.71499 21.253 7.15299V7.15299Z" stroke="#161924" stroke-width="1.5" stroke-linecap="round" stroke-linejoin="round"/>
<path d="M13.55 6.42999H9.72003" stroke="#161924" stroke-width="1.5" stroke-linecap="round" stroke-linejoin="round"/>
</svg>
