<svg width="24" height="24" viewBox="0 0 24 24" fill="none" xmlns="http://www.w3.org/2000/svg">
<path fill-rule="evenodd" clip-rule="evenodd" d="M17.633 14.39V14.39C15.838 14.39 14.383 15.845 14.383 17.64V17.64C14.383 19.435 15.838 20.89 17.633 20.89V20.89C19.428 20.89 20.883 19.435 20.883 17.64V17.64C20.883 15.845 19.428 14.39 17.633 14.39Z" stroke="#161924" stroke-width="1.5" stroke-linecap="round" stroke-linejoin="round"/>
<path fill-rule="evenodd" clip-rule="evenodd" d="M16.631 3.61599L14.147 7.59099C13.655 8.37799 14.221 9.39899 15.149 9.39899H20.118C21.046 9.39899 21.612 8.37799 21.12 7.59099L18.636 3.61599C18.173 2.87499 17.094 2.87499 16.631 3.61599V3.61599Z" stroke="#161924" stroke-width="1.5" stroke-linecap="round" stroke-linejoin="round"/>
<path fill-rule="evenodd" clip-rule="evenodd" d="M6.362 20.888V20.888C4.567 20.888 3.112 19.433 3.112 17.638V17.638C3.112 15.843 4.567 14.388 6.362 14.388V14.388C8.157 14.388 9.612 15.843 9.612 17.638V17.638C9.612 19.433 8.157 20.888 6.362 20.888Z" stroke="#161924" stroke-width="1.5" stroke-linecap="round" stroke-linejoin="round"/>
<path fill-rule="evenodd" clip-rule="evenodd" d="M6.43201 3.112V3.112C4.63701 3.112 3.18201 4.567 3.18201 6.362V6.362C3.18201 8.157 4.63701 9.612 6.43201 9.612V9.612C8.22701 9.612 9.68201 8.157 9.68201 6.362V6.362C9.68201 4.567 8.22701 3.112 6.43201 3.112Z" stroke="#161924" stroke-width="1.5" stroke-linecap="round" stroke-linejoin="round"/>
</svg>
