<svg width="24" height="24" viewBox="0 0 24 24" fill="none" xmlns="http://www.w3.org/2000/svg">
<path d="M19.0026 16.0016H20.003C20.5556 16.0016 21.0035 15.5537 21.0035 15.0012V3.99663C21.0035 3.44412 20.5556 2.99622 20.003 2.99622H8.99846C8.44595 2.99622 7.99805 3.44412 7.99805 3.99663V4.99705" stroke="#323232" stroke-width="1.5" stroke-linecap="round" stroke-linejoin="round"/>
<path d="M7.99818 7.99835H3.99651C3.444 7.99835 2.99609 8.44625 2.99609 8.99877V20.0034C2.99609 20.5559 3.444 21.0038 3.99651 21.0038H15.0011C15.5536 21.0038 16.0015 20.5559 16.0015 20.0034V16.0017" stroke="#323232" stroke-width="1.5" stroke-linecap="round" stroke-linejoin="round"/>
<path d="M13.0001 16.0017H8.99846C8.44595 16.0017 7.99805 15.5538 7.99805 15.0012V10.9996" stroke="#323232" stroke-width="1.5" stroke-linecap="round" stroke-linejoin="round"/>
</svg>
