<svg width="24" height="24" viewBox="0 0 24 24" fill="none" xmlns="http://www.w3.org/2000/svg">
<path d="M19.9453 15.2607C21.2582 16.5736 21.2582 18.7023 19.9453 20.0153C18.6323 21.3282 16.5036 21.3282 15.1907 20.0153C13.8778 18.7024 13.8778 16.5737 15.1907 15.2607C16.5036 13.9478 18.6323 13.9478 19.9453 15.2607" stroke="#161924" stroke-width="1.5" stroke-linecap="round" stroke-linejoin="round"/>
<path fill-rule="evenodd" clip-rule="evenodd" d="M21.253 7.15299L18.355 10.051C17.917 10.489 17.208 10.489 16.77 10.051L13.872 7.15299C13.435 6.71599 13.435 6.00599 13.872 5.56899L16.77 2.66999C17.208 2.23199 17.917 2.23199 18.355 2.66999L21.253 5.56799C21.69 6.00599 21.69 6.71499 21.253 7.15299V7.15299Z" stroke="#161924" stroke-width="1.5" stroke-linecap="round" stroke-linejoin="round"/>
<path fill-rule="evenodd" clip-rule="evenodd" d="M4.31802 9.53H8.41602C9.03502 9.53 9.53702 9.028 9.53702 8.409V4.311C9.53702 3.692 9.03502 3.19 8.41602 3.19H4.31802C3.69902 3.19 3.19702 3.692 3.19702 4.311V8.409C3.19702 9.028 3.69902 9.53 4.31802 9.53Z" stroke="#161924" stroke-width="1.5" stroke-linecap="round" stroke-linejoin="round"/>
<path fill-rule="evenodd" clip-rule="evenodd" d="M5.36402 15.156L2.88002 19.132C2.38802 19.919 2.95402 20.94 3.88202 20.94H8.85102C9.77902 20.94 10.345 19.919 9.85302 19.132L7.36902 15.157C6.90602 14.416 5.82702 14.416 5.36402 15.156V15.156Z" stroke="#161924" stroke-width="1.5" stroke-linecap="round" stroke-linejoin="round"/>
</svg>
