<svg width="24" height="24" viewBox="0 0 24 24" fill="none" xmlns="http://www.w3.org/2000/svg">
<path d="M13.0001 16.0017H8.99846C8.44595 16.0017 7.99805 15.5538 7.99805 15.0012V10.9996" stroke="#323232" stroke-width="1.5" stroke-linecap="round" stroke-linejoin="round"/>
<path d="M10.998 7.99832H14.9997C15.5522 7.99832 16.0001 8.44622 16.0001 8.99874V13.0004" stroke="#323232" stroke-width="1.5" stroke-linecap="round" stroke-linejoin="round"/>
<path fill-rule="evenodd" clip-rule="evenodd" d="M7.99818 7.99833V3.99666C7.99818 3.44415 8.44608 2.99625 8.99859 2.99625H20.0032C20.5557 2.99625 21.0036 3.44415 21.0036 3.99666V15.0012C21.0036 15.5538 20.5557 16.0017 20.0032 16.0017H16.0015V20.0033C16.0015 20.5558 15.5536 21.0037 15.0011 21.0037H3.99651C3.444 21.0037 2.99609 20.5558 2.99609 20.0033V8.99875C2.99609 8.44623 3.444 7.99833 3.99651 7.99833H7.99818Z" stroke="#323232" stroke-width="1.5" stroke-linecap="round" stroke-linejoin="round"/>
</svg>
