<svg width="24" height="24" viewBox="0 0 24 24" fill="none" xmlns="http://www.w3.org/2000/svg">
<path fill-rule="evenodd" clip-rule="evenodd" d="M14.8881 10.544C11.4441 10.544 8.37905 11.738 6.90405 15V14C6.90405 9.03199 10.5261 6.04499 14.8881 6.04499V3.88699C14.8881 3.13199 15.7711 2.72299 16.3471 3.21199L21.6871 7.74499C22.0951 8.08999 22.1061 8.71699 21.7091 9.07599L16.3691 13.917C15.8001 14.432 14.8881 14.029 14.8881 13.261V10.544Z" stroke="#161924" stroke-width="1.5" stroke-linecap="round" stroke-linejoin="round"/>
<path d="M10 3H5C3.895 3 3 3.895 3 5V19C3 20.105 3.895 21 5 21H19C20.105 21 21 20.105 21 19V15" stroke="#161924" stroke-width="1.5" stroke-linecap="round" stroke-linejoin="round"/>
</svg>
