<svg width="24" height="24" viewBox="0 0 24 24" fill="none" xmlns="http://www.w3.org/2000/svg">
<path fill-rule="evenodd" clip-rule="evenodd" d="M20 13.0208V6.56938C19.9927 6.05853 19.6058 5.63323 19.0979 5.5777C16.976 5.41645 14.9416 4.66412 13.2254 3.40593C12.4981 2.86469 11.5019 2.86469 10.7746 3.40593C9.05839 4.66412 7.02404 5.41646 4.90212 5.5777C4.39424 5.63322 4.00735 6.05852 4 6.56938V13.0208C4 16.7918 8.65012 19.6027 10.8636 20.7274C11.579 21.0915 12.4254 21.0908 13.1401 20.7255C15.3552 19.5996 20 16.7956 20 13.0208Z" stroke="#161924" stroke-width="1.5" stroke-linecap="round" stroke-linejoin="round"/>
<path d="M9.5 13.5L10.9989 15" stroke="#161924" stroke-width="1.5" stroke-linecap="round" stroke-linejoin="round"/>
<path d="M14.5 13.5H9.5" stroke="#161924" stroke-width="1.5" stroke-linecap="round" stroke-linejoin="round"/>
<path d="M14.4999 10.5L13.001 9" stroke="#161924" stroke-width="1.5" stroke-linecap="round" stroke-linejoin="round"/>
<path d="M9.5 10.5H14.5" stroke="#161924" stroke-width="1.5" stroke-linecap="round" stroke-linejoin="round"/>
</svg>
