<svg width="24" height="24" viewBox="0 0 24 24" fill="none" xmlns="http://www.w3.org/2000/svg">
<path d="M7.52148 8H8.77948L9.78048 13H14.8255L15.5215 9.5H9.07948" stroke="#161924" stroke-width="1.5" stroke-linecap="round" stroke-linejoin="round"/>
<path d="M14.349 15.4147C14.3684 15.4343 14.3683 15.4659 14.3488 15.4854C14.3292 15.5048 14.2976 15.5048 14.2781 15.4853C14.2586 15.4658 14.2586 15.4342 14.278 15.4147C14.2975 15.3951 14.3291 15.395 14.3487 15.4145L14.349 15.4147" stroke="#161924" stroke-width="1.5" stroke-linecap="round" stroke-linejoin="round"/>
<path d="M10.3207 15.4147C10.3401 15.4343 10.34 15.4659 10.3204 15.4854C10.3009 15.5048 10.2693 15.5048 10.2498 15.4853C10.2303 15.4658 10.2303 15.4342 10.2497 15.4147C10.2692 15.3951 10.3008 15.395 10.3204 15.4145L10.3207 15.4147" stroke="#161924" stroke-width="1.5" stroke-linecap="round" stroke-linejoin="round"/>
<path fill-rule="evenodd" clip-rule="evenodd" d="M3.5 10.767C3.5 15.1925 6.2472 19.1532 10.3923 20.7036L10.4223 20.7148C11.4399 21.0954 12.5607 21.095 13.578 20.7138L13.6024 20.7047C17.7512 19.1499 20.5 15.1842 20.5 10.7536V7.03023C20.5 6.15536 19.9314 5.38202 19.0963 5.12118L12.5963 3.09095C12.208 2.96968 11.792 2.96968 11.4037 3.09095L4.90374 5.12112C4.06864 5.38195 3.5 6.15529 3.5 7.03017V10.767Z" stroke="#161924" stroke-width="1.5" stroke-linecap="round" stroke-linejoin="round"/>
</svg>
