<svg width="24" height="24" viewBox="0 0 24 24" fill="none" xmlns="http://www.w3.org/2000/svg">
<path d="M18.3639 5.63604C21.8787 9.15076 21.8787 14.8492 18.3639 18.3639C14.8492 21.8787 9.15074 21.8787 5.63604 18.3639C2.12132 14.8492 2.12132 9.15074 5.63604 5.63604C9.15076 2.12132 14.8492 2.12132 18.3639 5.63604" stroke="#161924" stroke-width="1.5" stroke-linecap="round" stroke-linejoin="round"/>
<path fill-rule="evenodd" clip-rule="evenodd" d="M16.538 11.865C16.538 14.441 14.602 16.85 12 17.435C9.39804 16.85 7.46204 14.441 7.46204 11.865V9.841C7.46204 9.38 7.74104 8.965 8.16704 8.791L11.003 7.63C11.642 7.368 12.358 7.368 12.996 7.63L15.832 8.791C16.259 8.966 16.537 9.38 16.537 9.841V11.865H16.538Z" stroke="#161924" stroke-width="1.5" stroke-linecap="round" stroke-linejoin="round"/>
</svg>
