<svg width="24" height="24" viewBox="0 0 24 24" fill="none" xmlns="http://www.w3.org/2000/svg">
<path d="M11.0034 20C6.16234 20.0018 2.18719 16.1738 2.00639 11.3361C1.82559 6.49848 5.50393 2.38446 10.3316 2.02487C15.1593 1.66528 19.4065 5.18895 19.9444 10" stroke="#161924" stroke-width="1.5" stroke-linecap="round" stroke-linejoin="round"/>
<path d="M16 9.5H6" stroke="#161924" stroke-width="1.5" stroke-linecap="round" stroke-linejoin="round"/>
<path d="M6.5 9.5L7.23926 13.64C7.3798 14.4269 8.0642 15 8.86359 15H13.1364C13.9358 15 14.6202 14.4269 14.7607 13.64L15.5 9.5" stroke="#161924" stroke-width="1.5" stroke-linecap="round" stroke-linejoin="round"/>
<path d="M13 7L14.6923 9.5" stroke="#161924" stroke-width="1.5" stroke-linecap="round" stroke-linejoin="round"/>
<path d="M8.99988 7L7.30762 9.5" stroke="#161924" stroke-width="1.5" stroke-linecap="round" stroke-linejoin="round"/>
<path fill-rule="evenodd" clip-rule="evenodd" d="M18.293 20.7071L21.7071 17.293C22.0976 16.9025 22.0976 16.2693 21.7071 15.8788L20.1212 14.2929C19.7307 13.9024 19.0976 13.9024 18.707 14.2929L15.2929 17.707C15.1053 17.8945 15 18.1489 15 18.4141V20.5C15 20.7761 15.2239 21 15.5 21H17.5859C17.8511 21 18.1055 20.8946 18.293 20.7071Z" stroke="#161924" stroke-width="1.5" stroke-linecap="round" stroke-linejoin="round"/>
</svg>
