<svg width="24" height="24" viewBox="0 0 24 24" fill="none" xmlns="http://www.w3.org/2000/svg">
<path d="M8.5 8C8.5 9.933 10.067 11.5 12 11.5C13.933 11.5 15.5 9.933 15.5 8" stroke="#161924" stroke-width="1.5" stroke-linecap="round" stroke-linejoin="round"/>
<path d="M21 11.5V8C21 5.23858 18.7614 3 16 3H8C5.23858 3 3 5.23858 3 8V15C3 17.7614 5.23858 20 8 20H11" stroke="#161924" stroke-width="1.5" stroke-linecap="round" stroke-linejoin="round"/>
<path fill-rule="evenodd" clip-rule="evenodd" d="M17.8563 16.0747L18.0501 16.2714L18.2907 16.0384C19.0472 15.3129 20.2454 15.3271 20.9844 16.0704V16.0704C21.737 16.8436 21.737 18.0754 20.9844 18.8487L19.438 20.4187C19.0719 20.7906 18.5719 21 18.0501 21C17.5283 21 17.0283 20.7906 16.6622 20.4187L15.1115 18.8443C14.3613 18.0736 14.3613 16.8456 15.1115 16.0748V16.0748C15.4735 15.7071 15.9679 15.5 16.4839 15.5C16.9999 15.5 17.4943 15.707 17.8563 16.0747Z" stroke="#161924" stroke-width="1.5" stroke-linecap="round" stroke-linejoin="round"/>
</svg>
