<svg width="24" height="24" viewBox="0 0 24 24" fill="none" xmlns="http://www.w3.org/2000/svg">
<path fill-rule="evenodd" clip-rule="evenodd" d="M7.40902 14.246L5.87402 7H18.5C19.151 7 19.628 7.611 19.47 8.243L18.122 13.635C17.917 14.454 17.221 15.056 16.381 15.14L9.56502 15.822C8.54902 15.923 7.62002 15.244 7.40902 14.246Z" stroke="#161924" stroke-width="1.5" stroke-linecap="round" stroke-linejoin="round"/>
<path d="M5.874 7L5.224 4H3.5" stroke="#161924" stroke-width="1.5" stroke-linecap="round" stroke-linejoin="round"/>
<path d="M17.1093 19.267C16.9073 19.267 16.7433 19.431 16.7453 19.633C16.7453 19.835 16.9093 19.999 17.1113 19.999C17.3133 19.999 17.4773 19.835 17.4773 19.633C17.4763 19.431 17.3123 19.267 17.1093 19.267" stroke="#161924" stroke-width="1.5" stroke-linecap="round" stroke-linejoin="round"/>
<path d="M8.69675 19.267C8.49475 19.267 8.33075 19.431 8.33275 19.633C8.33075 19.836 8.49575 20 8.69775 20C8.89975 20 9.06375 19.836 9.06375 19.634C9.06375 19.431 8.89975 19.267 8.69675 19.267" stroke="#161924" stroke-width="1.5" stroke-linecap="round" stroke-linejoin="round"/>
</svg>
