<svg width="24" height="24" viewBox="0 0 24 24" fill="none" xmlns="http://www.w3.org/2000/svg">
<path fill-rule="evenodd" clip-rule="evenodd" d="M18.0642 7H5.93622C5.40922 7 4.97322 7.408 4.93822 7.933L4.14222 19.867C4.06522 21.021 4.98122 22 6.13822 22H17.8622C19.0192 22 19.9352 21.021 19.8582 19.867L19.0622 7.933C19.0272 7.408 18.5912 7 18.0642 7Z" stroke="#161924" stroke-width="1.5" stroke-linecap="round" stroke-linejoin="round"/>
<path d="M15.001 9V5V5V5C15.001 3.343 13.658 2 12.001 2H12C10.343 2 9 3.343 9 5V5V5V9" stroke="#161924" stroke-width="1.5" stroke-linecap="round" stroke-linejoin="round"/>
<path d="M14.1875 17.441C14.0495 17.441 13.9375 17.553 13.9385 17.691C13.9385 17.829 14.0505 17.941 14.1885 17.941C14.3265 17.941 14.4385 17.829 14.4385 17.691C14.4385 17.553 14.3265 17.441 14.1875 17.441" stroke="#161924" stroke-width="1.5" stroke-linecap="round" stroke-linejoin="round"/>
<path d="M9.81541 13.066C9.67741 13.066 9.56541 13.178 9.56641 13.316C9.56641 13.454 9.67841 13.566 9.81641 13.566C9.95441 13.566 10.0664 13.454 10.0664 13.316C10.0664 13.178 9.95441 13.066 9.81541 13.066" stroke="#161924" stroke-width="1.5" stroke-linecap="round" stroke-linejoin="round"/>
<path d="M9.57031 17.94L14.4403 13.07" stroke="#161924" stroke-width="1.5" stroke-linecap="round" stroke-linejoin="round"/>
</svg>
