<svg width="24" height="24" viewBox="0 0 24 24" fill="none" xmlns="http://www.w3.org/2000/svg">
<path d="M5 11V9C5 7.89543 5.89543 7 7 7H18C19.1046 7 20 7.89543 20 9V19C20 20.1046 19.1046 21 18 21H12" stroke="#161924" stroke-width="1.5" stroke-linecap="round" stroke-linejoin="round"/>
<path d="M9 7V6C9 4.067 10.567 2.5 12.5 2.5V2.5C14.433 2.5 16 4.067 16 6V6V7" stroke="#161924" stroke-width="1.5" stroke-linecap="round" stroke-linejoin="round"/>
<path d="M10 18C10 20.2091 8.20914 22 6 22C3.79086 22 2 20.2091 2 18C2 15.7909 3.79086 14 6 14C7.06087 14 8.07828 14.4214 8.82843 15.1716C9.57857 15.9217 10 16.9391 10 18V18V18" stroke="#161924" stroke-width="1.5" stroke-linecap="round" stroke-linejoin="round"/>
<path d="M4.95703 16.875H6.9546" stroke="#161924" stroke-width="1.5" stroke-linecap="round" stroke-linejoin="round"/>
<path d="M4.9541 19.125H6.95167" stroke="#161924" stroke-width="1.5" stroke-linecap="round" stroke-linejoin="round"/>
</svg>
