<svg width="24" height="24" viewBox="0 0 24 24" fill="none" xmlns="http://www.w3.org/2000/svg">
<path d="M15 21H18C18.5305 21.0001 19.0393 20.7895 19.4144 20.4144C19.7895 20.0393 20.0001 19.5305 20 19V8.5C19.9997 7.6717 19.3283 7.0003 18.5 7H5.5C4.6717 7.0003 4.0003 7.6717 4 8.5V9" stroke="#161924" stroke-width="1.5" stroke-linecap="round" stroke-linejoin="round"/>
<path d="M16 7V6.75V6.75C16 4.67895 14.321 3.00005 12.25 3H11.75C9.67895 3.00005 8.00005 4.67895 8 6.75H8V7" stroke="#161924" stroke-width="1.5" stroke-linecap="round" stroke-linejoin="round"/>
<path d="M7 21V19" stroke="#161924" stroke-width="1.5" stroke-linecap="round" stroke-linejoin="round"/>
<path d="M2 21H12" stroke="#161924" stroke-width="1.5" stroke-linecap="round" stroke-linejoin="round"/>
<path d="M11 21V15.8657" stroke="#161924" stroke-width="1.5" stroke-linecap="round" stroke-linejoin="round"/>
<path d="M3 21V15.8655" stroke="#161924" stroke-width="1.5" stroke-linecap="round" stroke-linejoin="round"/>
<path d="M3.64521 15.9996C4.13622 15.9994 4.60091 15.7776 4.90987 15.396C4.9964 15.2503 5.1533 15.161 5.32274 15.161C5.49218 15.161 5.64907 15.2503 5.7356 15.396C6.04443 15.7778 6.50921 15.9996 7.00026 15.9996C7.49132 15.9996 7.95609 15.7778 8.26492 15.396C8.35145 15.2503 8.50834 15.161 8.67778 15.161C8.84722 15.161 9.00412 15.2503 9.09064 15.396C9.39961 15.7776 9.8643 15.9994 10.3553 15.9996C11.1161 15.9941 11.7758 15.4723 11.9564 14.7333C12.0426 14.3661 11.9903 13.98 11.8095 13.649L11.3929 12.8243C11.1376 12.3188 10.6194 12 10.0531 12H3.94732C3.38136 12 2.86359 12.3185 2.60842 12.8237L2.19135 13.6494C2.01056 13.9804 1.95825 14.3665 2.04444 14.7336C2.22506 15.4727 2.8848 15.9945 3.64558 16" stroke="#161924" stroke-width="1.5" stroke-linecap="round" stroke-linejoin="round"/>
</svg>
