<svg width="24" height="24" viewBox="0 0 24 24" fill="none" xmlns="http://www.w3.org/2000/svg">
<path fill-rule="evenodd" clip-rule="evenodd" d="M12 15.6015V19.203C12 20.1975 12.8063 21.0037 13.8008 21.0038H19.203C20.1975 21.0037 21.0037 20.1975 21.0037 19.203V15.6015C21.0037 14.607 20.1975 13.8009 19.203 13.8008H13.8008C12.8063 13.8009 12 14.607 12 15.6015Z" stroke="#161924" stroke-width="1.5" stroke-linecap="round" stroke-linejoin="round"/>
<path d="M21.0037 17.002H12" stroke="#161924" stroke-width="1.5" stroke-linecap="round" stroke-linejoin="round"/>
<path d="M18.0023 10.9996V8.62364C18.0023 7.51861 17.1065 6.6228 16.0015 6.6228H4.99693C3.8919 6.6228 2.99609 7.51861 2.99609 8.62364V19.003C2.99609 20.108 3.8919 21.0038 4.99693 21.0038H8.99859" stroke="#161924" stroke-width="1.5" stroke-linecap="round" stroke-linejoin="round"/>
<path fill-rule="evenodd" clip-rule="evenodd" d="M10.4995 2.37097V2.37097C8.5657 2.37097 6.99805 3.93863 6.99805 5.87243V5.87243V6.62274H14.001V5.87243C14.001 3.93863 12.4333 2.37097 10.4995 2.37097Z" stroke="#161924" stroke-width="1.5" stroke-linecap="round" stroke-linejoin="round"/>
</svg>
