<svg width="24" height="24" viewBox="0 0 24 24" fill="none" xmlns="http://www.w3.org/2000/svg">
<path d="M7.5 9.83325H16.5" stroke="#161924" stroke-width="1.5" stroke-linecap="round" stroke-linejoin="round"/>
<path d="M10.5003 7.5L8.9209 9.83325" stroke="#161924" stroke-width="1.5" stroke-linecap="round" stroke-linejoin="round"/>
<path d="M13.5 7.5L15.0794 9.83325" stroke="#161924" stroke-width="1.5" stroke-linecap="round" stroke-linejoin="round"/>
<path d="M16.1875 9.83325L15.575 13.2637C15.4473 13.9791 14.8251 14.5 14.0983 14.5H9.90171C9.175 14.5 8.55282 13.9791 8.42507 13.2637L7.8125 9.83325" stroke="#161924" stroke-width="1.5" stroke-linecap="round" stroke-linejoin="round"/>
<path fill-rule="evenodd" clip-rule="evenodd" d="M18.0104 4.98157V4.98157C19.6041 6.56799 20.5 8.72399 20.5 10.9727C20.5 13.2213 19.6041 15.3773 18.0104 16.9637V16.9637L14.4916 20.4713C13.1183 21.8383 10.8999 21.8435 9.52013 20.4829L9.50839 20.4713L5.98958 16.9638C4.39593 15.3774 3.50001 13.2214 3.5 10.9727C3.49999 8.72403 4.39589 6.56802 5.98952 4.98157V4.98157C9.30238 1.6838 14.6537 1.67125 17.982 4.95344L18.0103 4.98157H18.0104Z" stroke="#161924" stroke-width="1.5" stroke-linecap="round" stroke-linejoin="round"/>
</svg>
