<svg width="24" height="24" viewBox="0 0 24 24" fill="none" xmlns="http://www.w3.org/2000/svg">
<path fill-rule="evenodd" clip-rule="evenodd" d="M6.77389 15.1575L7 15.3871L7.22614 15.1574C7.63757 14.737 8.20104 14.5 8.78931 14.5C9.37758 14.5 9.94105 14.737 10.3525 15.1574V15.1574C11.2158 16.0395 11.2158 17.4499 10.3525 18.3319L8.23743 20.4795C7.91173 20.8124 7.46568 21 7 21C6.53431 21 6.08826 20.8124 5.76257 20.4795L3.64751 18.332C2.78416 17.4499 2.78416 16.0396 3.64751 15.1575V15.1575C4.05894 14.737 4.62242 14.5 5.21069 14.5C5.79897 14.5 6.36245 14.737 6.77389 15.1575Z" stroke="#161924" stroke-width="1.5" stroke-linecap="round" stroke-linejoin="round"/>
<path d="M12 21H16C18.7614 21 21 18.7614 21 16V8C21 5.23858 18.7614 3 16 3H8C5.23858 3 3 5.23858 3 8V12" stroke="#161924" stroke-width="1.5" stroke-linecap="round" stroke-linejoin="round"/>
<path d="M14 16H17" stroke="#161924" stroke-width="1.5" stroke-linecap="round" stroke-linejoin="round"/>
<path d="M16 16V10.8657" stroke="#161924" stroke-width="1.5" stroke-linecap="round" stroke-linejoin="round"/>
<path d="M8.64521 10.9996C9.13622 10.9994 9.6009 10.7776 9.90987 10.396C9.9964 10.2503 10.1533 10.161 10.3227 10.161C10.4922 10.161 10.6491 10.2503 10.7356 10.396C11.0444 10.7778 11.5092 10.9996 12.0003 10.9996C12.4913 10.9996 12.9561 10.7778 13.2649 10.396C13.3514 10.2503 13.5083 10.161 13.6778 10.161C13.8472 10.161 14.0041 10.2503 14.0906 10.396C14.3996 10.7776 14.8643 10.9994 15.3553 10.9996C16.1161 10.9941 16.7758 10.4723 16.9564 9.73326C17.0426 9.36608 16.9903 8.98 16.8095 8.649L16.3929 7.82423C16.1376 7.31873 15.6194 6.99999 15.0531 7H8.94732C8.38136 7 7.86359 7.31855 7.60842 7.82372L7.19135 8.64942C7.01056 8.98042 6.95825 9.36648 7.04444 9.73365C7.22506 10.4727 7.8848 10.9945 8.64558 11" stroke="#161924" stroke-width="1.5" stroke-linecap="round" stroke-linejoin="round"/>
</svg>
