<svg width="24" height="24" viewBox="0 0 24 24" fill="none" xmlns="http://www.w3.org/2000/svg">
<path fill-rule="evenodd" clip-rule="evenodd" d="M13.9694 17.0962H10.0304C9.33192 17.0962 8.66447 16.8074 8.18619 16.2983C7.70792 15.7892 7.46136 15.1051 7.50493 14.4079L7.77758 10.0452C7.81094 9.51176 8.2533 9.0962 8.78777 9.09619H15.212C15.7465 9.09619 16.1889 9.51176 16.2222 10.0452L16.4949 14.4079C16.5384 15.1051 16.2919 15.7892 15.8136 16.2983C15.3354 16.8074 14.6679 17.0962 13.9694 17.0962Z" stroke="#161924" stroke-width="1.5" stroke-linecap="round" stroke-linejoin="round"/>
<path fill-rule="evenodd" clip-rule="evenodd" d="M12 6V6C13.1046 6 14 6.89543 14 8V9.09612H10V8C10 6.89543 10.8954 6 12 6Z" stroke="#161924" stroke-width="1.5" stroke-linecap="round" stroke-linejoin="round"/>
<path d="M18.3642 5.63603C20.9382 8.21001 21.7082 12.0811 20.3152 15.4441C18.9222 18.8072 15.6404 21 12.0003 21C8.3601 21 5.07837 18.8072 3.68534 15.4441C2.29232 12.0811 3.06232 8.21001 5.63631 5.63603C9.15103 2.12132 14.8495 2.12132 18.3642 5.63603" stroke="#161924" stroke-width="1.5" stroke-linecap="round" stroke-linejoin="round"/>
</svg>
