<svg width="24" height="24" viewBox="0 0 24 24" fill="none" xmlns="http://www.w3.org/2000/svg">
<path d="M7.52148 8H8.77948L9.78048 13H14.8255L15.5215 9.5H9.07948" stroke="#161924" stroke-width="1.5" stroke-linecap="round" stroke-linejoin="round"/>
<path fill-rule="evenodd" clip-rule="evenodd" d="M17.9712 4.98159V4.98159C21.269 8.29493 21.269 13.6504 17.9712 16.9638V16.9638L14.4754 20.4713C13.822 21.1278 12.9346 21.4978 12.0083 21.5C11.0821 21.5022 10.1929 21.1363 9.53642 20.4829L9.52475 20.4713L6.02897 16.9638C2.73125 13.6504 2.73123 8.29499 6.02891 4.98159V4.98159C7.60509 3.39794 9.74582 2.5053 11.9802 2.50002C14.2145 2.49475 16.3594 3.37728 17.9431 4.95346L17.9712 4.98159H17.9712Z" stroke="#161924" stroke-width="1.5" stroke-linecap="round" stroke-linejoin="round"/>
<path d="M14.349 15.4147C14.3684 15.4343 14.3683 15.4659 14.3488 15.4854C14.3292 15.5048 14.2976 15.5048 14.2781 15.4853C14.2586 15.4658 14.2586 15.4342 14.278 15.4147C14.2975 15.3951 14.3291 15.395 14.3487 15.4145L14.349 15.4147" stroke="#161924" stroke-width="1.5" stroke-linecap="round" stroke-linejoin="round"/>
<path d="M10.3207 15.4147C10.3401 15.4343 10.34 15.4659 10.3204 15.4854C10.3009 15.5048 10.2693 15.5048 10.2498 15.4853C10.2303 15.4658 10.2303 15.4342 10.2497 15.4147C10.2692 15.3951 10.3008 15.395 10.3204 15.4145L10.3207 15.4147" stroke="#161924" stroke-width="1.5" stroke-linecap="round" stroke-linejoin="round"/>
</svg>
