<svg width="24" height="24" viewBox="0 0 24 24" fill="none" xmlns="http://www.w3.org/2000/svg">
<path d="M5.99805 9.99921V8.62364C5.99805 7.51861 6.89385 6.6228 7.99888 6.6228H19.0035C20.1085 6.6228 21.0043 7.51861 21.0043 8.62364V19.003C21.0043 20.108 20.1085 21.0038 19.0035 21.0038H12.0005" stroke="#161924" stroke-width="1.5" stroke-linecap="round" stroke-linejoin="round"/>
<path fill-rule="evenodd" clip-rule="evenodd" d="M6.73624 13.7628C6.59789 13.4821 6.31217 13.3044 5.9993 13.3044C5.68643 13.3044 5.40071 13.4821 5.26236 13.7628L4.66181 14.9804C4.54265 15.223 4.31125 15.391 4.04366 15.4291L2.69848 15.6293C2.38925 15.6747 2.13254 15.8916 2.03616 16.1889C1.93978 16.4862 2.02042 16.8124 2.24422 17.0306L3.21654 17.9787C3.41062 18.1671 3.49878 18.4394 3.45192 18.7057L3.22314 20.0432C3.16987 20.3513 3.29635 20.663 3.54932 20.8468C3.80228 21.0306 4.13773 21.0547 4.41434 20.9088L5.61543 20.2775C5.856 20.149 6.1448 20.149 6.38537 20.2775L7.58536 20.9088C7.86197 21.0547 8.19742 21.0306 8.45038 20.8468C8.70334 20.663 8.82983 20.3513 8.77656 20.0432L8.54778 18.7057C8.5015 18.4394 8.58957 18.1674 8.78316 17.9787L9.75107 17.0306C9.97483 16.8126 10.0556 16.4865 9.95946 16.1893C9.86333 15.892 9.60693 15.675 9.29788 15.6293L7.9538 15.4291C7.68622 15.391 7.45481 15.223 7.33566 14.9804L6.73624 13.7628Z" stroke="#161924" stroke-width="1.5" stroke-linecap="round" stroke-linejoin="round"/>
<path fill-rule="evenodd" clip-rule="evenodd" d="M13.5005 2.37097V2.37097C15.4343 2.37097 17.0019 3.93863 17.0019 5.87243V5.87243V6.62274H9.99902V5.87243C9.99902 3.93863 11.5667 2.37097 13.5005 2.37097V2.37097Z" stroke="#161924" stroke-width="1.5" stroke-linecap="round" stroke-linejoin="round"/>
</svg>
