<svg width="24" height="24" viewBox="0 0 24 24" fill="none" xmlns="http://www.w3.org/2000/svg">
<path fill-rule="evenodd" clip-rule="evenodd" d="M5.33025 16.7673L5.49995 16.9396L5.67536 16.7542C5.97305 16.4366 6.38763 16.2545 6.82291 16.2501C7.25819 16.2457 7.67635 16.4195 7.98036 16.731L8.01602 16.7672C8.66127 17.4303 8.66127 18.4866 8.01602 19.1497L6.26173 20.931C6.0608 21.1351 5.78636 21.25 5.49994 21.25C5.21352 21.25 4.93908 21.1351 4.73816 20.931L2.98395 19.1497C2.33868 18.4866 2.33868 17.4303 2.98395 16.7673V16.7673C3.29337 16.4529 3.71601 16.2759 4.1571 16.2759C4.59818 16.2759 5.02082 16.4529 5.33025 16.7673V16.7673Z" stroke="#161924" stroke-width="1.5" stroke-linecap="round" stroke-linejoin="round"/>
<path d="M2.99974 12C3.00055 12.637 3.06882 13.2721 3.20339 13.8947" stroke="#161924" stroke-width="1.5" stroke-linecap="round" stroke-linejoin="round"/>
<path d="M12 3C7.02944 3 3 7.02944 3 12" stroke="#161924" stroke-width="1.5" stroke-linecap="round" stroke-linejoin="round"/>
<path d="M21 12C21 7.02944 16.9706 3 12 3" stroke="#161924" stroke-width="1.5" stroke-linecap="round" stroke-linejoin="round"/>
<path d="M10.1055 20.7964C12.7641 21.372 15.5405 20.7132 17.657 19.0043C19.7735 17.2954 21.0027 14.7203 21.0002 12" stroke="#161924" stroke-width="1.5" stroke-linecap="round" stroke-linejoin="round"/>
<path d="M14 10.5C14 11.6046 13.1046 12.5 12 12.5C10.8954 12.5 10 11.6046 10 10.5" stroke="#161924" stroke-width="1.5" stroke-linecap="round" stroke-linejoin="round"/>
<path d="M7 13V10C7 8.61929 8.11929 7.5 9.5 7.5H14.5C15.8807 7.5 17 8.61929 17 10V14C17 15.3807 15.8807 16.5 14.5 16.5H12" stroke="#161924" stroke-width="1.5" stroke-linecap="round" stroke-linejoin="round"/>
</svg>
