<svg width="24" height="24" viewBox="0 0 24 24" fill="none" xmlns="http://www.w3.org/2000/svg">
<path fill-rule="evenodd" clip-rule="evenodd" d="M18.0642 7H5.93622C5.40922 7 4.97322 7.408 4.93822 7.933L4.14222 19.867C4.06522 21.021 4.98122 22 6.13822 22H17.8622C19.0192 22 19.9352 21.021 19.8582 19.867L19.0622 7.933C19.0272 7.408 18.5912 7 18.0642 7Z" stroke="#161924" stroke-width="1.5" stroke-linecap="round" stroke-linejoin="round"/>
<path d="M15.001 9V5V5V5C15.001 3.343 13.658 2 12.001 2H12C10.343 2 9 3.343 9 5V5V5V9" stroke="#161924" stroke-width="1.5" stroke-linecap="round" stroke-linejoin="round"/>
<path fill-rule="evenodd" clip-rule="evenodd" d="M12 13.535C12.23 13.283 12.627 13 13.232 13C14.29 13 15 13.931 15 14.798C15 16.611 12.593 18 12 18C11.407 18 9 16.611 9 14.798C9 13.931 9.71 13 10.768 13C11.373 13 11.77 13.283 12 13.535Z" stroke="#161924" stroke-width="1.5" stroke-linecap="round" stroke-linejoin="round"/>
</svg>
