<svg width="24" height="24" viewBox="0 0 24 24" fill="none" xmlns="http://www.w3.org/2000/svg">
<path d="M17 10.5H7" stroke="#161924" stroke-width="1.5" stroke-linecap="round" stroke-linejoin="round"/>
<path d="M7.5 10.5L8.23926 14.64C8.3798 15.4269 9.0642 16 9.86359 16H14.1364C14.9358 16 15.6202 15.4269 15.7607 14.64L16.5 10.5" stroke="#161924" stroke-width="1.5" stroke-linecap="round" stroke-linejoin="round"/>
<path d="M14 8L15.6923 10.5" stroke="#161924" stroke-width="1.5" stroke-linecap="round" stroke-linejoin="round"/>
<path d="M9.99988 8L8.30762 10.5" stroke="#161924" stroke-width="1.5" stroke-linecap="round" stroke-linejoin="round"/>
<path d="M5 17.5V20.5" stroke="#161924" stroke-width="1.5" stroke-linecap="round" stroke-linejoin="round"/>
<path d="M6.5 19H3.5" stroke="#161924" stroke-width="1.5" stroke-linecap="round" stroke-linejoin="round"/>
<path d="M9 20.477C12.977 21.8931 17.4044 20.3642 19.6602 16.7959C21.916 13.2275 21.3979 8.57235 18.4128 5.58723C15.4277 2.60211 10.7725 2.08405 7.20416 4.33986C3.6358 6.59566 2.10697 11.023 3.52307 15" stroke="#161924" stroke-width="1.5" stroke-linecap="round" stroke-linejoin="round"/>
</svg>
