<svg width="24" height="24" viewBox="0 0 24 24" fill="none" xmlns="http://www.w3.org/2000/svg">
<path d="M10.4248 8.32346C10.4248 7.45325 11.1303 6.7478 12.0005 6.7478C12.8707 6.7478 13.5761 7.45325 13.5761 8.32346" stroke="#161924" stroke-width="1.5" stroke-linecap="round" stroke-linejoin="round"/>
<rect x="7.99805" y="9.2489" width="8.00333" height="7.00292" rx="0.979" stroke="#161924" stroke-width="1.5" stroke-linecap="round" stroke-linejoin="round"/>
<path d="M13.5754 8.3234V9.24879" stroke="#161924" stroke-width="1.5" stroke-linecap="round" stroke-linejoin="round"/>
<path d="M10.424 8.3234V9.24879" stroke="#161924" stroke-width="1.5" stroke-linecap="round" stroke-linejoin="round"/>
<path d="M20.5854 9.35186C20.8586 10.2082 20.9996 11.1011 21.0036 12C21.0036 16.9726 16.9725 21.0037 11.9998 21.0037C7.02721 21.0037 2.99609 16.9726 2.99609 12C2.99609 7.02733 7.02721 2.99622 11.9998 2.99622C12.8987 3.00021 13.7916 3.14122 14.6479 3.41439" stroke="#161924" stroke-width="1.5" stroke-linecap="round" stroke-linejoin="round"/>
<path d="M21.0036 4.27075L19.0148 6.25958L17.7393 4.98405" stroke="#161924" stroke-width="1.5" stroke-linecap="round" stroke-linejoin="round"/>
</svg>
