<svg width="24" height="24" viewBox="0 0 24 24" fill="none" xmlns="http://www.w3.org/2000/svg">
<path d="M5.99805 10.9996V8.62364C5.99805 7.51861 6.89385 6.6228 7.99888 6.6228H19.0035C20.1085 6.6228 21.0043 7.51861 21.0043 8.62364V19.003C21.0043 20.108 20.1085 21.0038 19.0035 21.0038H13.001" stroke="#161924" stroke-width="1.5" stroke-linecap="round" stroke-linejoin="round"/>
<path fill-rule="evenodd" clip-rule="evenodd" d="M13.5005 2.37097V2.37097C15.4343 2.37097 17.0019 3.93863 17.0019 5.87243V5.87243V6.62274H9.99902V5.87243C9.99902 3.93863 11.5667 2.37097 13.5005 2.37097V2.37097Z" stroke="#161924" stroke-width="1.5" stroke-linecap="round" stroke-linejoin="round"/>
<circle cx="6.99776" cy="17.6274" r="4.00167" stroke="#161924" stroke-width="1.5" stroke-linecap="round" stroke-linejoin="round"/>
<path d="M8.08517 17.5829C8.06718 17.5829 8.05097 17.5938 8.04409 17.6104C8.0372 17.627 8.04101 17.6461 8.05373 17.6589C8.06645 17.6716 8.08558 17.6754 8.10219 17.6685C8.11881 17.6616 8.12964 17.6454 8.12964 17.6274V17.6274C8.12964 17.6156 8.12495 17.6043 8.11661 17.596C8.10827 17.5876 8.09696 17.5829 8.08517 17.5829" stroke="#161924" stroke-width="1.5" stroke-linecap="round" stroke-linejoin="round"/>
<path d="M5.91045 17.5829C5.89889 17.5828 5.88781 17.5874 5.87964 17.5956C5.87146 17.6038 5.86687 17.6149 5.86687 17.6264V17.6264C5.86687 17.6444 5.8777 17.6606 5.89432 17.6675C5.91093 17.6744 5.93006 17.6706 5.94278 17.6579C5.9555 17.6452 5.95931 17.626 5.95243 17.6094C5.94554 17.5928 5.92933 17.582 5.91134 17.582V17.582" stroke="#161924" stroke-width="1.5" stroke-linecap="round" stroke-linejoin="round"/>
</svg>
