<svg width="24" height="24" viewBox="0 0 24 24" fill="none" xmlns="http://www.w3.org/2000/svg">
<path d="M5.00012 9H3.05566" stroke="#161924" stroke-width="1.5" stroke-linecap="round" stroke-linejoin="round"/>
<path d="M5.00012 15H3.05566" stroke="#161924" stroke-width="1.5" stroke-linecap="round" stroke-linejoin="round"/>
<path d="M5 12H2" stroke="#161924" stroke-width="1.5" stroke-linecap="round" stroke-linejoin="round"/>
<path d="M5.66406 5.63606C8.23804 3.06208 12.1091 2.29207 15.4722 3.6851C18.8352 5.07813 21.028 8.35986 21.028 12C21.028 15.6402 18.8352 18.9219 15.4722 20.3149C12.1091 21.708 8.23804 20.938 5.66406 18.364" stroke="#161924" stroke-width="1.5" stroke-linecap="round" stroke-linejoin="round"/>
<path d="M7.75 8.25H9.008L10.009 13.25H15.054L15.75 9.75H9.308" stroke="#161924" stroke-width="1.5" stroke-linecap="round" stroke-linejoin="round"/>
<path d="M14.5785 15.6647C14.5979 15.6843 14.5978 15.7159 14.5783 15.7354C14.5587 15.7548 14.5271 15.7548 14.5076 15.7353C14.4881 15.7158 14.4881 15.6842 14.5075 15.6647C14.527 15.6451 14.5586 15.645 14.5782 15.6645L14.5785 15.6647" stroke="#161924" stroke-width="1.5" stroke-linecap="round" stroke-linejoin="round"/>
<path d="M10.5501 15.6647C10.5696 15.6843 10.5695 15.7159 10.5499 15.7354C10.5304 15.7548 10.4988 15.7548 10.4793 15.7353C10.4598 15.7158 10.4598 15.6842 10.4792 15.6647C10.4987 15.6451 10.5303 15.645 10.5499 15.6645L10.5501 15.6647" stroke="#161924" stroke-width="1.5" stroke-linecap="round" stroke-linejoin="round"/>
</svg>
