<svg width="24" height="24" viewBox="0 0 24 24" fill="none" xmlns="http://www.w3.org/2000/svg">
<path fill-rule="evenodd" clip-rule="evenodd" d="M18 21H6C5.46952 21.0001 4.96073 20.7895 4.58563 20.4144C4.21052 20.0393 3.99985 19.5305 4 19V8.5C4.0003 7.6717 4.6717 7.0003 5.5 7H18.5C19.3283 7.0003 19.9997 7.6717 20 8.5V19C20.0001 19.5305 19.7895 20.0393 19.4144 20.4144C19.0393 20.7895 18.5305 21.0001 18 21Z" stroke="#161924" stroke-width="1.5" stroke-linecap="round" stroke-linejoin="round"/>
<path d="M8 7V6.75V6.75C8.00005 4.67895 9.67895 3.00005 11.75 3H12.25C14.321 3.00005 16 4.67895 16 6.75V6.75V7" stroke="#161924" stroke-width="1.5" stroke-linecap="round" stroke-linejoin="round"/>
<path d="M9 16.6699H15" stroke="#161924" stroke-width="1.5" stroke-linecap="round" stroke-linejoin="round"/>
<path d="M10.4004 12.4138L11.6015 13.6138L13.6004 11.6138" stroke="#161924" stroke-width="1.5" stroke-linecap="round" stroke-linejoin="round"/>
</svg>
