<svg width="24" height="24" viewBox="0 0 24 24" fill="none" xmlns="http://www.w3.org/2000/svg">
<path d="M4.21973 10.89V20.89" stroke="#161924" stroke-width="1.5" stroke-linecap="round" stroke-linejoin="round"/>
<path d="M19.7803 10.89V20.89" stroke="#161924" stroke-width="1.5" stroke-linecap="round" stroke-linejoin="round"/>
<path d="M14.2223 20.889V16.445C14.2223 15.218 13.2273 14.223 12.0003 14.223C10.7733 14.223 9.77832 15.218 9.77832 16.445V20.889" stroke="#161924" stroke-width="1.5" stroke-linecap="round" stroke-linejoin="round"/>
<path d="M2 20.89H22" stroke="#161924" stroke-width="1.5" stroke-linecap="round" stroke-linejoin="round"/>
<path fill-rule="evenodd" clip-rule="evenodd" d="M4.30059 10.889C2.60259 10.877 1.49559 9.19599 2.23159 7.74699L3.94659 4.36999C4.33759 3.59999 5.15959 3.11099 6.06159 3.11099H17.9376C18.8396 3.11099 19.6616 3.59999 20.0526 4.36999L21.7686 7.74699C22.5046 9.19599 21.3976 10.877 19.6996 10.889C18.2826 10.889 17.1336 9.92099 17.1336 8.72599V8.67799C17.1336 9.89899 15.9846 10.889 14.5676 10.889C13.1506 10.889 12.0016 9.89899 12.0016 8.67799C12.0016 9.89899 10.8526 10.889 9.43559 10.889C8.01859 10.889 6.86959 9.89899 6.86959 8.67799V8.72599C6.86659 9.92099 5.71759 10.889 4.30059 10.889Z" stroke="#161924" stroke-width="1.5" stroke-linecap="round" stroke-linejoin="round"/>
</svg>
