<svg width="24" height="24" viewBox="0 0 24 24" fill="none" xmlns="http://www.w3.org/2000/svg">
<path d="M2 21H5" stroke="#161924" stroke-width="1.5" stroke-linecap="round" stroke-linejoin="round"/>
<path d="M19 21H22" stroke="#161924" stroke-width="1.5" stroke-linecap="round" stroke-linejoin="round"/>
<path d="M20 21V9.76001" stroke="#161924" stroke-width="1.5" stroke-linecap="round" stroke-linejoin="round"/>
<path d="M4 21V9.76001" stroke="#161924" stroke-width="1.5" stroke-linecap="round" stroke-linejoin="round"/>
<path fill-rule="evenodd" clip-rule="evenodd" d="M4.30059 9.778C2.60259 9.766 1.49559 8.085 2.23159 6.636L3.94759 3.259C4.33759 2.489 5.15959 2 6.06159 2H17.9376C18.8396 2 19.6616 2.489 20.0526 3.259L21.7686 6.636C22.5046 8.085 21.3976 9.766 19.6996 9.778C18.2826 9.778 17.1336 8.81 17.1336 7.615V7.567C17.1336 8.788 15.9846 9.778 14.5676 9.778C13.1486 9.778 11.9996 8.788 11.9996 7.567C11.9996 8.788 10.8506 9.778 9.43359 9.778C8.01659 9.778 6.86759 8.788 6.86759 7.567V7.615C6.86659 8.81 5.71759 9.778 4.30059 9.778Z" stroke="#161924" stroke-width="1.5" stroke-linecap="round" stroke-linejoin="round"/>
<path d="M13.1602 18.9V19.5" stroke="#161924" stroke-width="1.5" stroke-linecap="round" stroke-linejoin="round"/>
<path fill-rule="evenodd" clip-rule="evenodd" d="M8.57134 16.5H15.4293C16.0673 16.5 16.5413 17.089 16.4063 17.712L15.6483 21.212C15.5483 21.672 15.1413 22 14.6713 22H9.32934C8.85834 22 8.45134 21.672 8.35234 21.212L7.59434 17.712C7.45934 17.089 7.93434 16.5 8.57134 16.5Z" stroke="#161924" stroke-width="1.5" stroke-linecap="round" stroke-linejoin="round"/>
<path d="M10.0003 14L9.06027 16.5" stroke="#161924" stroke-width="1.5" stroke-linecap="round" stroke-linejoin="round"/>
<path d="M13.9997 14L14.9397 16.5" stroke="#161924" stroke-width="1.5" stroke-linecap="round" stroke-linejoin="round"/>
<path d="M10.8398 18.9V19.5" stroke="#161924" stroke-width="1.5" stroke-linecap="round" stroke-linejoin="round"/>
</svg>
