<svg width="24" height="24" viewBox="0 0 24 24" fill="none" xmlns="http://www.w3.org/2000/svg">
<path d="M10.9999 21.0038H5.9979C4.89287 21.0038 3.99707 20.108 3.99707 19.003V8.62364C3.99707 7.51861 4.89287 6.6228 5.9979 6.6228H17.0025C18.1075 6.6228 19.0033 7.51861 19.0033 8.62364V10.9996" stroke="#161924" stroke-width="1.5" stroke-linecap="round" stroke-linejoin="round"/>
<path fill-rule="evenodd" clip-rule="evenodd" d="M15.001 5.87243V6.62274H7.99805V5.87243V5.87243C7.99805 3.93863 9.5657 2.37097 11.4995 2.37097V2.37097C13.4333 2.37097 15.001 3.93863 15.001 5.87243V5.87243Z" stroke="#161924" stroke-width="1.5" stroke-linecap="round" stroke-linejoin="round"/>
<path d="M19.2704 18.2705C18.2936 19.2472 16.7101 19.2471 15.7334 18.2703C14.7568 17.2936 14.7568 15.7101 15.7335 14.7334C16.7102 13.7567 18.2937 13.7567 19.2704 14.7333C20.2472 15.71 20.2473 17.2935 19.2707 18.2702L19.2704 18.2705" stroke="#161924" stroke-width="1.5" stroke-linecap="round" stroke-linejoin="round"/>
<path d="M14.001 20.0033L15.7339 18.2704" stroke="#161924" stroke-width="1.5" stroke-linecap="round" stroke-linejoin="round"/>
</svg>
