<svg width="24" height="24" viewBox="0 0 24 24" fill="none" xmlns="http://www.w3.org/2000/svg">
<path fill-rule="evenodd" clip-rule="evenodd" d="M14.0491 16.0767V16.0767C13.4144 16.1825 12.7653 16.0038 12.2742 15.5879C11.7832 15.1721 11.5 14.5612 11.5 13.9178V10.0822C11.5 9.43872 11.7832 8.82788 12.2742 8.41202C12.7653 7.99616 13.4144 7.81741 14.0491 7.92328V7.92328C16.0419 8.25536 17.5026 9.97962 17.5025 12V12C17.5026 14.0203 16.0419 15.7446 14.0491 16.0767V16.0767Z" stroke="#161924" stroke-width="1.5" stroke-linecap="round" stroke-linejoin="round"/>
<path d="M6.99805 9.99915L8.99888 9.49894" stroke="#161924" stroke-width="1.5" stroke-linecap="round" stroke-linejoin="round"/>
<path d="M6.99805 12.5002L8.99888 12" stroke="#161924" stroke-width="1.5" stroke-linecap="round" stroke-linejoin="round"/>
<path fill-rule="evenodd" clip-rule="evenodd" d="M12.0003 21.0037V21.0037C7.0277 21.0037 2.99658 16.9726 2.99658 12V12C2.99658 7.02733 7.0277 2.99622 12.0003 2.99622V2.99622C16.973 2.99622 21.0041 7.02733 21.0041 12V12C21.0041 16.9726 16.973 21.0037 12.0003 21.0037V21.0037Z" stroke="#161924" stroke-width="1.5" stroke-linecap="round" stroke-linejoin="round"/>
<path d="M6.99805 15.0012L8.99888 14.501" stroke="#161924" stroke-width="1.5" stroke-linecap="round" stroke-linejoin="round"/>
</svg>
