<svg width="24" height="24" viewBox="0 0 24 24" fill="none" xmlns="http://www.w3.org/2000/svg">
<path d="M17.2495 6.75V5.25H7.56043L12.5854 11.5312C12.6919 11.6643 12.75 11.8296 12.75 12C12.75 12.1704 12.6919 12.3357 12.5854 12.4688L7.56043 18.75H17.2495V17.25C17.2495 17.0511 17.3285 16.8603 17.4692 16.7197C17.6098 16.579 17.8006 16.5 17.9995 16.5C18.1984 16.5 18.3892 16.579 18.5298 16.7197C18.6705 16.8603 18.7495 17.0511 18.7495 17.25V19.5C18.7495 19.6989 18.6705 19.8897 18.5298 20.0303C18.3892 20.171 18.1984 20.25 17.9995 20.25H5.99949C5.85815 20.2501 5.71967 20.2102 5.59999 20.135C5.48032 20.0598 5.38433 19.9524 5.32308 19.825C5.26184 19.6976 5.23784 19.5555 5.25385 19.4151C5.26986 19.2746 5.32522 19.1416 5.41356 19.0312L11.0386 12L5.41356 4.96875C5.32522 4.85842 5.26986 4.72537 5.25385 4.58494C5.23784 4.44451 5.26184 4.30241 5.32308 4.17503C5.38433 4.04765 5.48032 3.94016 5.59999 3.86496C5.71967 3.78976 5.85815 3.74991 5.99949 3.75H17.9995C18.1984 3.75 18.3892 3.82902 18.5298 3.96967C18.6705 4.11032 18.7495 4.30109 18.7495 4.5V6.75C18.7495 6.94891 18.6705 7.13968 18.5298 7.28033C18.3892 7.42098 18.1984 7.5 17.9995 7.5C17.8006 7.5 17.6098 7.42098 17.4692 7.28033C17.3285 7.13968 17.2495 6.94891 17.2495 6.75Z" fill="#161924"/>
</svg>
