<svg width="24" height="24" viewBox="0 0 24 24" fill="none" xmlns="http://www.w3.org/2000/svg">
<path d="M13.4147 2.58188C14.196 3.36326 14.196 4.63011 13.4147 5.41149C12.6333 6.19286 11.3664 6.19286 10.5851 5.41149C9.80368 4.63011 9.80368 3.36326 10.5851 2.58188C10.9603 2.20665 11.4692 1.99585 11.9999 1.99585C12.5305 1.99585 13.0394 2.20665 13.4147 2.58188" stroke="#161924" stroke-width="1.5" stroke-linecap="round" stroke-linejoin="round"/>
<path d="M5.99805 9.99914L10.59 5.40723" stroke="#161924" stroke-width="1.5" stroke-linecap="round" stroke-linejoin="round"/>
<path d="M13.4111 5.40723L18.003 9.99914" stroke="#161924" stroke-width="1.5" stroke-linecap="round" stroke-linejoin="round"/>
<path d="M10.248 17.2522L13.7495 13.7507" stroke="#161924" stroke-width="1.5" stroke-linecap="round" stroke-linejoin="round"/>
<rect x="2.99609" y="9.99915" width="18.0075" height="11.0046" rx="2" stroke="#161924" stroke-width="1.5" stroke-linecap="round" stroke-linejoin="round"/>
<path d="M10.1999 13.6008C10.1998 13.656 10.155 13.7007 10.0998 13.7007C10.0446 13.7007 9.9998 13.6559 9.99978 13.6007C9.99975 13.5455 10.0445 13.5007 10.0997 13.5006C10.1263 13.5006 10.1518 13.5111 10.1706 13.5299C10.1894 13.5487 10.1999 13.5742 10.1999 13.6008" stroke="#161924" stroke-width="1.5" stroke-linecap="round" stroke-linejoin="round"/>
<path d="M14.0006 17.4023C14.0006 17.4575 13.9558 17.5023 13.9006 17.5022C13.8453 17.5022 13.8006 17.4574 13.8006 17.4022C13.8005 17.347 13.8453 17.3022 13.9005 17.3021C13.927 17.3021 13.9525 17.3127 13.9713 17.3314C13.9901 17.3502 14.0007 17.3757 14.0006 17.4023" stroke="#161924" stroke-width="1.5" stroke-linecap="round" stroke-linejoin="round"/>
</svg>
