<svg width="24" height="24" viewBox="0 0 24 24" fill="none" xmlns="http://www.w3.org/2000/svg">
<path d="M13.1479 7C14.3671 8.37746 15.0276 10.1607 14.9999 12C15.0276 13.8393 14.3671 15.6225 13.1479 17" stroke="#161924" stroke-width="1.5" stroke-linecap="round" stroke-linejoin="round"/>
<path d="M11.1108 8.66699C11.8533 9.61727 12.2456 10.7943 12.2218 12C12.2456 13.2057 11.8533 14.3827 11.1108 15.333" stroke="#161924" stroke-width="1.5" stroke-linecap="round" stroke-linejoin="round"/>
<path d="M8.99983 10.333C9.74117 11.3207 9.74117 12.6793 8.99983 13.667" stroke="#161924" stroke-width="1.5" stroke-linecap="round" stroke-linejoin="round"/>
<path d="M6.7 17.75L4.7 19.75L3.5 18.55" stroke="#161924" stroke-width="1.5" stroke-linecap="round" stroke-linejoin="round"/>
<path d="M9.99978 20.7693C13.924 21.674 17.973 19.8702 19.9248 16.3476C21.8767 12.825 21.2595 8.43565 18.4118 5.588C15.5642 2.74034 11.1748 2.12311 7.65221 4.07497C4.12964 6.02684 2.32581 10.0758 3.23049 14" stroke="#161924" stroke-width="1.5" stroke-linecap="round" stroke-linejoin="round"/>
</svg>
