<svg width="24" height="24" viewBox="0 0 24 24" fill="none" xmlns="http://www.w3.org/2000/svg">
<path fill-rule="evenodd" clip-rule="evenodd" d="M19.0028 21.0037H4.99693C3.89147 21.0037 2.99609 20.1083 2.99609 19.0028V13.0003C2.99609 11.8949 3.89147 10.9995 4.99693 10.9995H19.0028C20.1082 10.9995 21.0036 11.8949 21.0036 13.0003V19.0038C21.0036 20.1083 20.1082 21.0037 19.0028 21.0037Z" stroke="#161924" stroke-width="1.5" stroke-linecap="round" stroke-linejoin="round"/>
<path d="M13.5003 14.501L10.499 17.5022" stroke="#161924" stroke-width="1.5" stroke-linecap="round" stroke-linejoin="round"/>
<path d="M10.499 14.501L13.5003 17.5022" stroke="#161924" stroke-width="1.5" stroke-linecap="round" stroke-linejoin="round"/>
<path d="M11.9999 2.99622C13.1053 2.99622 14.0007 3.89159 14.0007 4.99705C14.0007 6.10251 13.1053 6.99788 11.9999 6.99788C10.8944 6.99788 9.99902 6.10251 9.99902 4.99705C9.99902 3.89159 10.8944 2.99622 11.9999 2.99622" stroke="#161924" stroke-width="1.5" stroke-linecap="round" stroke-linejoin="round"/>
<path d="M10.5765 6.40063L5.97754 10.9996" stroke="#161924" stroke-width="1.5" stroke-linecap="round" stroke-linejoin="round"/>
<path d="M18.0027 10.9795L13.4238 6.40063" stroke="#161924" stroke-width="1.5" stroke-linecap="round" stroke-linejoin="round"/>
</svg>
