<svg width="24" height="24" viewBox="0 0 24 24" fill="none" xmlns="http://www.w3.org/2000/svg">
<path fill-rule="evenodd" clip-rule="evenodd" d="M19.0028 21.0038H4.99693C3.8919 21.0038 2.99609 20.108 2.99609 19.003V13.0005C2.99609 11.8954 3.8919 10.9996 4.99693 10.9996H19.0028C20.1078 10.9996 21.0036 11.8954 21.0036 13.0005V19.003C21.0036 20.108 20.1078 21.0038 19.0028 21.0038Z" stroke="#161924" stroke-width="1.5" stroke-linecap="round" stroke-linejoin="round"/>
<path d="M11.9999 2.99622C13.1049 2.99622 14.0007 3.89202 14.0007 4.99705C14.0007 6.10208 13.1049 6.99788 11.9999 6.99788C10.8948 6.99788 9.99902 6.10208 9.99902 4.99705C9.99902 3.89202 10.8948 2.99622 11.9999 2.99622" stroke="#161924" stroke-width="1.5" stroke-linecap="round" stroke-linejoin="round"/>
<path d="M10.5765 6.40063L5.97754 10.9996" stroke="#161924" stroke-width="1.5" stroke-linecap="round" stroke-linejoin="round"/>
<path d="M18.0027 10.9795L13.4238 6.40063" stroke="#161924" stroke-width="1.5" stroke-linecap="round" stroke-linejoin="round"/>
<path d="M13.6818 15.0112L11.5809 17.1121L10.3184 15.8516" stroke="#161924" stroke-width="1.5" stroke-linecap="round" stroke-linejoin="round"/>
</svg>
