<svg width="24" height="24" viewBox="0 0 24 24" fill="none" xmlns="http://www.w3.org/2000/svg">
<path fill-rule="evenodd" clip-rule="evenodd" d="M19 21.02H5C3.895 21.02 3 20.125 3 19.02V12.98C3 11.875 3.895 10.98 5 10.98H19C20.105 10.98 21 11.875 21 12.98V19.021C21 20.125 20.105 21.02 19 21.02Z" stroke="#161924" stroke-width="1.5" stroke-linecap="round" stroke-linejoin="round"/>
<path d="M13.4142 3.5658C14.1953 4.34685 14.1953 5.61318 13.4142 6.39423C12.6332 7.17528 11.3668 7.17528 10.5858 6.39423C9.80474 5.61318 9.80474 4.34685 10.5858 3.5658C11.3668 2.78475 12.6332 2.78475 13.4142 3.5658" stroke="#161924" stroke-width="1.5" stroke-linecap="round" stroke-linejoin="round"/>
<path d="M6 10.98L10.59 6.39001" stroke="#161924" stroke-width="1.5" stroke-linecap="round" stroke-linejoin="round"/>
<path d="M13.4102 6.39001L18.0002 10.98" stroke="#161924" stroke-width="1.5" stroke-linecap="round" stroke-linejoin="round"/>
</svg>
