<svg width="24" height="24" viewBox="0 0 24 24" fill="none" xmlns="http://www.w3.org/2000/svg">
<path d="M14.001 7.99833V3.99666C14.0011 3.66863 14.162 3.36151 14.4317 3.1747C14.7013 2.98789 15.0454 2.94513 15.3525 3.06027L20.3546 4.93605C20.7454 5.08252 21.0042 5.45615 21.0039 5.87344V21.0037" stroke="#161924" stroke-width="1.5" stroke-linecap="round" stroke-linejoin="round"/>
<path fill-rule="evenodd" clip-rule="evenodd" d="M9.19855 7.99832H14.8009C15.4639 7.99832 16.0014 8.5358 16.0014 9.19882V21.0037H7.99805V9.19882C7.99805 8.5358 8.53553 7.99832 9.19855 7.99832Z" stroke="#161924" stroke-width="1.5" stroke-linecap="round" stroke-linejoin="round"/>
<path d="M10.9996 7.99832V5.99749C10.9996 5.44497 10.5517 4.99707 9.99915 4.99707H5.99749C5.44497 4.99707 4.99707 5.44497 4.99707 5.99749V10.9996" stroke="#161924" stroke-width="1.5" stroke-linecap="round" stroke-linejoin="round"/>
<path d="M7.99826 2.99625V4.99708" stroke="#161924" stroke-width="1.5" stroke-linecap="round" stroke-linejoin="round"/>
<path d="M22.0044 21.0037H1.99609" stroke="#161924" stroke-width="1.5" stroke-linecap="round" stroke-linejoin="round"/>
<path d="M10.499 13.7007H13.5003" stroke="#161924" stroke-width="1.5" stroke-linecap="round" stroke-linejoin="round"/>
<path d="M10.499 10.9996H13.5003" stroke="#161924" stroke-width="1.5" stroke-linecap="round" stroke-linejoin="round"/>
<path d="M10.499 16.4018H13.5003" stroke="#161924" stroke-width="1.5" stroke-linecap="round" stroke-linejoin="round"/>
<path d="M2.99609 21.0037V12C2.99609 11.4475 3.444 10.9996 3.99651 10.9996H7.99818" stroke="#161924" stroke-width="1.5" stroke-linecap="round" stroke-linejoin="round"/>
</svg>
