<svg width="24" height="24" viewBox="0 0 24 24" fill="none" xmlns="http://www.w3.org/2000/svg">
<path fill-rule="evenodd" clip-rule="evenodd" d="M5.99749 4.99707H7.99832C8.55084 4.99707 8.99874 5.44497 8.99874 5.99749V7.99832H4.99707V5.99749C4.99707 5.44497 5.44497 4.99707 5.99749 4.99707Z" stroke="#161924" stroke-width="1.5" stroke-linecap="round" stroke-linejoin="round"/>
<path d="M6.99826 2.99625V4.99708" stroke="#161924" stroke-width="1.5" stroke-linecap="round" stroke-linejoin="round"/>
<path d="M2.99609 21.0037V8.99874C2.99609 8.44622 3.444 7.99832 3.99651 7.99832H9.99901C10.5515 7.99832 10.9994 8.44622 10.9994 8.99874V12" stroke="#161924" stroke-width="1.5" stroke-linecap="round" stroke-linejoin="round"/>
<path d="M14.001 12V4.99709C14.0011 4.66906 14.162 4.36193 14.4317 4.17512C14.7013 3.98832 15.0454 3.94556 15.3525 4.0607L20.3546 5.93648C20.7454 6.08295 21.0042 6.45657 21.0039 6.87387V21.0038" stroke="#161924" stroke-width="1.5" stroke-linecap="round" stroke-linejoin="round"/>
<path d="M7.99805 21.0037V13.0004C7.99805 12.4479 8.44595 12 8.99846 12H15.001C15.5535 12 16.0014 12.4479 16.0014 13.0004V21.0037" stroke="#161924" stroke-width="1.5" stroke-linecap="round" stroke-linejoin="round"/>
<path d="M10.499 17.7024H13.5003" stroke="#161924" stroke-width="1.5" stroke-linecap="round" stroke-linejoin="round"/>
<path d="M10.499 15.0012H13.5003" stroke="#161924" stroke-width="1.5" stroke-linecap="round" stroke-linejoin="round"/>
<path d="M22.0044 21.0037H1.99609" stroke="#161924" stroke-width="1.5" stroke-linecap="round" stroke-linejoin="round"/>
</svg>
