<svg width="24" height="24" viewBox="0 0 24 24" fill="none" xmlns="http://www.w3.org/2000/svg">
<path d="M14.0008 8.76873L15.6075 8.08044C15.9164 7.94801 16.2712 7.97956 16.5519 8.16441C16.8326 8.34927 17.0017 8.66272 17.0021 8.99882V15.0013C17.0022 15.3154 16.8549 15.6113 16.6042 15.8005C16.3535 15.9896 16.0285 16.0501 15.7265 15.9637L14.0008 15.4695" stroke="#161924" stroke-width="1.5" stroke-linecap="round" stroke-linejoin="round"/>
<path fill-rule="evenodd" clip-rule="evenodd" d="M14.0008 16.0017V7.99836C14.0008 7.66208 13.8318 7.34831 13.551 7.16322C13.2703 6.97813 12.9153 6.94648 12.6062 7.07897L7.60416 9.22287C7.23607 9.38066 6.99755 9.74276 6.99791 10.1432V14.5721C6.99766 15.0189 7.29367 15.4116 7.72321 15.5345L12.7253 16.9641C13.0273 17.0505 13.3523 16.99 13.603 16.8008C13.8537 16.6117 14.001 16.3158 14.0008 16.0017Z" stroke="#161924" stroke-width="1.5" stroke-linecap="round" stroke-linejoin="round"/>
<path d="M18.2876 5.6975C21.7598 9.16999 21.7597 14.7998 18.2873 18.2721C14.8149 21.7444 9.1851 21.7444 5.71269 18.2721C2.24028 14.7998 2.24014 9.16999 5.71238 5.6975C7.37978 4.02959 9.64157 3.09253 12 3.09253C14.3584 3.09253 16.6202 4.02959 18.2876 5.6975" stroke="#161924" stroke-width="1.5" stroke-linecap="round" stroke-linejoin="round"/>
</svg>
