<svg width="24" height="24" viewBox="0 0 24 24" fill="none" xmlns="http://www.w3.org/2000/svg">
<path d="M2 8.10101C2 11.471 4.732 14.202 8.101 14.202C8.825 14.202 9.517 14.069 10.161 13.838" stroke="#161924" stroke-width="1.5" stroke-linecap="round" stroke-linejoin="round"/>
<path d="M8.101 2C4.732 2 2 4.732 2 8.101" stroke="#161924" stroke-width="1.5" stroke-linecap="round" stroke-linejoin="round"/>
<path d="M13.8376 10.162C14.0696 9.517 14.2016 8.826 14.2016 8.102C14.2026 4.732 11.4706 2 8.10059 2" stroke="#161924" stroke-width="1.5" stroke-linecap="round" stroke-linejoin="round"/>
<path d="M13.9697 14.245V14.796" stroke="#161924" stroke-width="1.5" stroke-linecap="round" stroke-linejoin="round"/>
<path d="M17.8281 14.245V14.796" stroke="#161924" stroke-width="1.5" stroke-linecap="round" stroke-linejoin="round"/>
<path d="M17.2246 17.785C16.8976 17.95 16.4516 18.103 15.8976 18.103C15.3156 18.103 14.8486 17.934 14.5186 17.76" stroke="#161924" stroke-width="1.5" stroke-linecap="round" stroke-linejoin="round"/>
<path d="M6.17188 6.44801V6.99901" stroke="#161924" stroke-width="1.5" stroke-linecap="round" stroke-linejoin="round"/>
<path d="M10.0303 6.44801V6.99901" stroke="#161924" stroke-width="1.5" stroke-linecap="round" stroke-linejoin="round"/>
<path d="M6.72168 10.281C7.04868 10.116 7.49468 9.96299 8.04868 9.96299C8.63068 9.96299 9.09768 10.132 9.42768 10.306" stroke="#161924" stroke-width="1.5" stroke-linecap="round" stroke-linejoin="round"/>
<path fill-rule="evenodd" clip-rule="evenodd" d="M9.79688 15.899C9.79688 19.269 12.5279 22 15.8979 22C19.2679 22 21.9999 19.269 21.9999 15.899C21.9999 12.529 19.2689 9.798 15.8989 9.798C12.5289 9.798 9.79688 12.529 9.79688 15.899Z" stroke="#161924" stroke-width="1.5" stroke-linecap="round" stroke-linejoin="round"/>
</svg>
