<svg width="24" height="24" viewBox="0 0 24 24" fill="none" xmlns="http://www.w3.org/2000/svg">
<path d="M8.5 9V10" stroke="#161924" stroke-width="1.5" stroke-linecap="round" stroke-linejoin="round"/>
<path d="M15.5 9V10" stroke="#161924" stroke-width="1.5" stroke-linecap="round" stroke-linejoin="round"/>
<path d="M15.5 14.688C13.4946 16.4375 10.5054 16.4375 8.5 14.688" stroke="#161924" stroke-width="1.5" stroke-linecap="round" stroke-linejoin="round"/>
<path fill-rule="evenodd" clip-rule="evenodd" d="M19.3303 3.01726L19.5 3.18957L19.6754 3.00416C19.9731 2.68656 20.3876 2.50445 20.8229 2.50008C21.2582 2.49571 21.6764 2.66946 21.9804 2.98102L22.016 3.01723C22.6613 3.68031 22.6613 4.73661 22.016 5.39969L20.2617 7.18096C20.0608 7.38508 19.7864 7.50003 19.5 7.50003C19.2135 7.50003 18.9391 7.38508 18.7382 7.18096L16.9839 5.39973C16.3387 4.73664 16.3387 3.68035 16.9839 3.01726V3.01726C17.2934 2.70292 17.716 2.5259 18.1571 2.5259C18.5982 2.5259 19.0208 2.70292 19.3303 3.01726Z" stroke="#161924" stroke-width="1.5" stroke-linecap="round" stroke-linejoin="round"/>
<path d="M21.2568 9.88891C22.2277 14.0395 20.336 18.3317 16.6174 20.4155C12.8989 22.4993 8.25039 21.872 5.21714 18.8772C2.18389 15.8824 1.49746 11.2422 3.5337 7.49744C5.56994 3.75266 9.83775 1.80639 14.0003 2.72431" stroke="#161924" stroke-width="1.5" stroke-linecap="round" stroke-linejoin="round"/>
</svg>
