<svg width="24" height="24" viewBox="0 0 24 24" fill="none" xmlns="http://www.w3.org/2000/svg">
<circle cx="12.0002" cy="12.5002" r="1.75073" stroke="#161924" stroke-width="1.5" stroke-linecap="round" stroke-linejoin="round"/>
<path d="M12.0002 6.49969V7.50011" stroke="#161924" stroke-width="1.5" stroke-linecap="round" stroke-linejoin="round"/>
<path d="M7.75545 8.25844L8.46274 8.96573" stroke="#161924" stroke-width="1.5" stroke-linecap="round" stroke-linejoin="round"/>
<path d="M13.2397 11.2637L16.245 8.25842" stroke="#161924" stroke-width="1.5" stroke-linecap="round" stroke-linejoin="round"/>
<path d="M8.49854 17.0041H15.5015" stroke="#161924" stroke-width="1.5" stroke-linecap="round" stroke-linejoin="round"/>
<path d="M18.0029 12.5022H17.0024" stroke="#161924" stroke-width="1.5" stroke-linecap="round" stroke-linejoin="round"/>
<path d="M6.99798 12.5022H5.99756" stroke="#161924" stroke-width="1.5" stroke-linecap="round" stroke-linejoin="round"/>
<path fill-rule="evenodd" clip-rule="evenodd" d="M11.7188 3.49646C6.88611 3.69861 3.0552 7.64464 2.99614 12.4812C2.98728 15.3828 4.38049 18.1099 6.73674 19.8032C7.40374 20.2692 8.20012 20.5141 9.01368 20.5035H14.9942C15.7892 20.5154 16.5682 20.2787 17.2221 19.8263C20.4584 17.527 21.8055 13.3786 20.5377 9.61664C19.2699 5.85464 15.6866 3.36791 11.7188 3.49646Z" stroke="#161924" stroke-width="1.5" stroke-linecap="round" stroke-linejoin="round"/>
</svg>
