<svg width="24" height="24" viewBox="0 0 24 24" fill="none" xmlns="http://www.w3.org/2000/svg">
<path fill-rule="evenodd" clip-rule="evenodd" d="M16.0017 14.001C16.2957 13.9996 16.5753 14.1278 16.7662 14.3514C16.957 14.575 17.0397 14.8714 16.9921 15.1615L16.752 16.5821C16.7118 16.8223 16.5053 16.9993 16.2618 17.0022H7.69822C7.44818 17.0019 7.23576 16.8192 7.19801 16.5721L7.00794 15.1315C6.97041 14.8462 7.05761 14.5585 7.24725 14.342C7.43688 14.1256 7.71057 14.0013 7.99835 14.001H16.0017V14.001Z" stroke="#161924" stroke-width="1.5" stroke-linecap="round" stroke-linejoin="round"/>
<path fill-rule="evenodd" clip-rule="evenodd" d="M7.99846 14.001C7.71009 14.001 7.43574 14.1254 7.24577 14.3424C7.05581 14.5594 6.96872 14.8478 7.00683 15.1336L7.1981 16.5681C7.23123 16.8166 7.44321 17.0022 7.69391 17.0022H16.2584C16.5029 17.0022 16.7116 16.8254 16.7518 16.5843L16.9882 15.1659C17.0365 14.8758 16.9548 14.5791 16.7647 14.3547C16.5746 14.1304 16.2955 14.001 16.0014 14.001H7.99846Z" stroke="#161924" stroke-width="1.5" stroke-linecap="round" stroke-linejoin="round"/>
<rect x="2.99622" y="2.99634" width="18.0075" height="18.0075" rx="5" stroke="#161924" stroke-width="1.5"/>
<path d="M13.4451 14.001L14.3502 9.92782C14.5643 8.96452 14.1688 7.96812 13.3524 7.41379C12.536 6.85946 11.464 6.85946 10.6476 7.41379C9.83124 7.96812 9.43579 8.96452 9.64986 9.92782L10.555 14.001" stroke="#161924" stroke-width="1.5"/>
</svg>
