<svg width="24" height="24" viewBox="0 0 24 24" fill="none" xmlns="http://www.w3.org/2000/svg">
<circle cx="12" cy="12.0001" r="9.00375" stroke="#161924" stroke-width="1.5" stroke-linecap="round" stroke-linejoin="round"/>
<path fill-rule="evenodd" clip-rule="evenodd" d="M7.99849 13.0005C7.71012 13.0005 7.43577 13.1249 7.2458 13.3419C7.05584 13.5589 6.96875 13.8473 7.00686 14.1331L7.19813 15.5676C7.23126 15.8161 7.44324 16.0017 7.69394 16.0017H16.2584C16.5029 16.0017 16.7116 15.825 16.7518 15.5838L16.9882 14.1654C17.0366 13.8753 16.9548 13.5786 16.7648 13.3543C16.5747 13.1299 16.2955 13.0005 16.0014 13.0005H7.99849Z" stroke="#161924" stroke-width="1.5" stroke-linecap="round" stroke-linejoin="round"/>
<path d="M13.5562 13.0005L14.3501 9.42757C14.5642 8.46427 14.1688 7.46788 13.3524 6.91355C12.536 6.35922 11.464 6.35922 10.6476 6.91355C9.83121 7.46788 9.43576 8.46427 9.64983 9.42757L10.4438 13.0005" stroke="#161924" stroke-width="1.5" stroke-linecap="round" stroke-linejoin="round"/>
</svg>
