<svg width="24" height="24" viewBox="0 0 24 24" fill="none" xmlns="http://www.w3.org/2000/svg">
<path fill-rule="evenodd" clip-rule="evenodd" d="M5.99752 2.99634C5.99752 5.2064 4.20591 6.998 1.99585 6.998C4.20591 6.998 5.99752 8.78961 5.99752 10.9997C5.99752 8.78961 7.78912 6.998 9.99918 6.998C7.78912 6.998 5.99752 5.2064 5.99752 2.99634Z" stroke="#161924" stroke-width="1.5" stroke-linecap="round" stroke-linejoin="round"/>
<path fill-rule="evenodd" clip-rule="evenodd" d="M17.0021 15.0015C17.0021 12.2389 14.7626 9.9994 12 9.9994C14.7626 9.9994 17.0021 7.75989 17.0021 4.99731C17.0021 7.75989 19.2416 9.9994 22.0042 9.9994C19.2416 9.9994 17.0021 12.2389 17.0021 15.0015Z" stroke="#161924" stroke-width="1.5" stroke-linecap="round" stroke-linejoin="round"/>
<path d="M17.0021 15.0015V16.0019" stroke="#161924" stroke-width="1.5" stroke-linecap="round" stroke-linejoin="round"/>
<path d="M17.0021 4.99724V3.99683" stroke="#161924" stroke-width="1.5" stroke-linecap="round" stroke-linejoin="round"/>
<path d="M9.99917 21.0039V22.0043" stroke="#161924" stroke-width="1.5" stroke-linecap="round" stroke-linejoin="round"/>
<path d="M9.99917 14.0009V13.0005" stroke="#161924" stroke-width="1.5" stroke-linecap="round" stroke-linejoin="round"/>
<path d="M5.99752 10.9998V12.0002" stroke="#161924" stroke-width="1.5" stroke-linecap="round" stroke-linejoin="round"/>
<path d="M5.99752 1.99585V2.99627" stroke="#161924" stroke-width="1.5" stroke-linecap="round" stroke-linejoin="round"/>
<path fill-rule="evenodd" clip-rule="evenodd" d="M9.99916 13.5007C9.99916 15.7108 8.20756 17.5024 5.9975 17.5024C8.20756 17.5024 9.99916 19.294 9.99916 21.5041C9.99916 19.294 11.7908 17.5024 14.0008 17.5024C11.7908 17.5024 9.99916 15.7108 9.99916 13.5007Z" stroke="#161924" stroke-width="1.5" stroke-linecap="round" stroke-linejoin="round"/>
</svg>
