<svg width="24" height="24" viewBox="0 0 24 24" fill="none" xmlns="http://www.w3.org/2000/svg">
<circle cx="12" cy="12.0001" r="9.00375" stroke="#161924" stroke-width="1.5" stroke-linecap="round" stroke-linejoin="round"/>
<path fill-rule="evenodd" clip-rule="evenodd" d="M17.3352 12.8334C16.5065 12.8334 15.8346 12.1615 15.8346 11.3328C15.8346 12.1615 15.1628 12.8334 14.334 12.8334C15.1628 12.8334 15.8346 13.5052 15.8346 14.334C15.8346 13.5052 16.5065 12.8334 17.3352 12.8334Z" stroke="#161924" stroke-width="1.5" stroke-linecap="round" stroke-linejoin="round"/>
<path fill-rule="evenodd" clip-rule="evenodd" d="M13.3335 8.16542C12.5048 8.16542 11.8329 7.49357 11.8329 6.66479C11.8329 7.49357 11.161 8.16542 10.3323 8.16542C11.161 8.16542 11.8329 8.83727 11.8329 9.66604C11.8329 8.83727 12.5048 8.16542 13.3335 8.16542Z" stroke="#161924" stroke-width="1.5" stroke-linecap="round" stroke-linejoin="round"/>
<path fill-rule="evenodd" clip-rule="evenodd" d="M10.6665 14.8341C9.8377 14.8341 9.16585 14.1623 9.16585 13.3335C9.16585 14.1623 8.49399 14.8341 7.66522 14.8341C8.49399 14.8341 9.16585 15.506 9.16585 16.3347C9.16585 15.506 9.8377 14.8341 10.6665 14.8341Z" stroke="#161924" stroke-width="1.5" stroke-linecap="round" stroke-linejoin="round"/>
</svg>
