<svg width="24" height="24" viewBox="0 0 24 24" fill="none" xmlns="http://www.w3.org/2000/svg">
<path fill-rule="evenodd" clip-rule="evenodd" d="M10.7175 8.89894C10.865 8.60177 11.1681 8.41382 11.4998 8.41382C11.8316 8.41382 12.1347 8.60177 12.2822 8.89894L12.9174 10.1925C13.0452 10.4512 13.2929 10.6299 13.5787 10.6697L15.0063 10.8768C15.3345 10.925 15.607 11.1553 15.7093 11.4709C15.8116 11.7865 15.726 12.1328 15.4885 12.3644L14.4561 13.3718C14.2512 13.5723 14.1577 13.8606 14.206 14.1431L14.4501 15.5607C14.5057 15.8878 14.3711 16.2182 14.1027 16.4134C13.8344 16.6085 13.4786 16.6348 13.1845 16.4811L11.907 15.8088C11.6533 15.6758 11.3504 15.6758 11.0967 15.8088L9.81914 16.4821C9.52506 16.6358 9.16929 16.6095 8.90094 16.4144C8.63259 16.2192 8.49801 15.8888 8.55362 15.5617L8.79872 14.1441C8.84646 13.8616 8.75307 13.5736 8.54861 13.3728L7.51218 12.3654C7.27451 12.1332 7.18936 11.7862 7.29258 11.4703C7.3958 11.1545 7.66946 10.9248 7.99838 10.8778L9.42598 10.6707C9.71169 10.6306 9.95918 10.452 10.0873 10.1935L10.7175 8.89894Z" stroke="#161924" stroke-width="1.5" stroke-linecap="round" stroke-linejoin="round"/>
<path d="M21.1207 2.87927C21.9832 3.74157 22.2413 5.03854 21.7746 6.16534C21.308 7.29214 20.2085 8.02685 18.9889 8.02685C17.7692 8.02685 16.6697 7.29214 16.2031 6.16534C15.7364 5.03854 15.9945 3.74157 16.857 2.87927C18.0344 1.70203 19.9433 1.70203 21.1207 2.87927" stroke="#161924" stroke-width="1.5" stroke-linecap="round" stroke-linejoin="round"/>
<path d="M20.0033 10.9997V16.2799C20.0033 18.8889 17.8883 21.0039 15.2793 21.0039H7.72018C5.11121 21.0039 2.99622 18.8889 2.99622 16.2799V8.72079C2.99622 6.11182 5.11121 3.99683 7.72018 3.99683H13.0004" stroke="#161924" stroke-width="1.5" stroke-linecap="round" stroke-linejoin="round"/>
</svg>
