<svg width="24" height="24" viewBox="0 0 24 24" fill="none" xmlns="http://www.w3.org/2000/svg">
<path d="M11.999 14.384L14.02 15.438C14.413 15.643 14.873 15.312 14.798 14.877L14.412 12.644L16.047 11.063C16.365 10.755 16.19 10.218 15.75 10.155L13.491 9.83L12.48 7.797C12.283 7.401 11.714 7.401 11.518 7.797L10.509 9.83L8.24998 10.156C7.80998 10.219 7.63398 10.756 7.95298 11.064L9.58798 12.645L9.20198 14.878C9.12698 15.313 9.58698 15.644 9.97998 15.439L12.001 14.385" stroke="#161924" stroke-width="1.5" stroke-linecap="round" stroke-linejoin="round"/>
<path fill-rule="evenodd" clip-rule="evenodd" d="M10.5798 20.912L3.08875 13.42C2.30375 12.635 2.30375 11.363 3.08875 10.579L10.5798 3.08899C11.3648 2.30399 12.6368 2.30399 13.4218 3.08899L20.9128 10.579C21.6978 11.364 21.6978 12.636 20.9128 13.42L13.4218 20.91C12.6368 21.696 11.3648 21.696 10.5798 20.912V20.912Z" stroke="#161924" stroke-width="1.5" stroke-linecap="round" stroke-linejoin="round"/>
</svg>
