<svg width="24" height="24" viewBox="0 0 24 24" fill="none" xmlns="http://www.w3.org/2000/svg">
<path d="M3 13.727V13.727C3.815 13.727 4.597 13.403 5.173 12.827L6.826 11.174C7.402 10.598 8.184 10.274 8.999 10.274V10.274C9.814 10.274 10.596 10.598 11.172 11.174L12.825 12.827C13.401 13.403 14.183 13.727 14.998 13.727V13.727C15.813 13.727 16.595 13.403 17.171 12.827L18.824 11.174C19.4 10.598 20.182 10.274 20.997 10.274V10.274" stroke="#161924" stroke-width="1.5" stroke-linecap="round" stroke-linejoin="round"/>
<path fill-rule="evenodd" clip-rule="evenodd" d="M17.8 21H6.2C4.433 21 3 19.567 3 17.8V6.2C3 4.433 4.433 3 6.2 3H17.8C19.567 3 21 4.433 21 6.2V17.8C21 19.567 19.567 21 17.8 21Z" stroke="#161924" stroke-width="1.5" stroke-linecap="round" stroke-linejoin="round"/>
</svg>
