<svg width="24" height="24" viewBox="0 0 24 24" fill="none" xmlns="http://www.w3.org/2000/svg">
<path d="M15.9916 8.00839C18.1961 10.2129 18.1961 13.7871 15.9916 15.9916C13.7871 18.1961 10.2129 18.1961 8.00836 15.9916C5.80385 13.7871 5.80385 10.2129 8.00836 8.00839C10.2129 5.80388 13.7871 5.80388 15.9916 8.00839" stroke="#161924" stroke-width="1.5" stroke-linecap="round" stroke-linejoin="round"/>
<path d="M8.613 20.37C6.808 19.644 5.224 18.335 4.175 16.519C3.148 14.741 2.804 12.761 3.047 10.871" stroke="#161924" stroke-width="1.5" stroke-linecap="round" stroke-linejoin="round"/>
<path d="M6.448 4.88001C7.979 3.68001 9.905 2.96201 12.002 2.96201C14.055 2.96201 15.942 3.65401 17.457 4.80901" stroke="#161924" stroke-width="1.5" stroke-linecap="round" stroke-linejoin="round"/>
<path d="M15.391 20.37C17.196 19.644 18.78 18.335 19.829 16.519C20.856 14.741 21.2 12.761 20.957 10.871" stroke="#161924" stroke-width="1.5" stroke-linecap="round" stroke-linejoin="round"/>
</svg>
