<svg width="24" height="24" viewBox="0 0 24 24" fill="none" xmlns="http://www.w3.org/2000/svg">
<path d="M16.2448 7.75522C18.5887 10.0994 18.5884 13.8998 16.2443 16.2438C13.9003 18.5878 10.0999 18.5878 7.75577 16.2438C5.41168 13.8998 5.41146 10.0994 7.75529 7.75522C8.88101 6.62931 10.4079 5.99677 12.0001 5.99677C13.5922 5.99677 15.1191 6.62931 16.2448 7.75522" stroke="#161924" stroke-width="1.5" stroke-linecap="round" stroke-linejoin="round"/>
<path fill-rule="evenodd" clip-rule="evenodd" d="M9.42822 11.1426V12.5792C9.42798 12.9683 9.5603 13.3459 9.80338 13.6497L10.0265 13.9288C10.3521 14.3356 10.845 14.5723 11.366 14.5721H12.6346C13.1556 14.5723 13.6485 14.3356 13.9741 13.9288L14.1972 13.6497C14.4403 13.3459 14.5726 12.9683 14.5724 12.5792V11.1426C14.5724 10.1956 13.8047 9.42792 12.8577 9.42792H11.1429C10.1959 9.42792 9.42822 10.1956 9.42822 11.1426Z" stroke="#161924" stroke-width="1.5" stroke-linecap="round" stroke-linejoin="round"/>
<path d="M10.7136 14.435V17.8564" stroke="#161924" stroke-width="1.5" stroke-linecap="round" stroke-linejoin="round"/>
<path d="M13.2868 14.435V17.8564" stroke="#161924" stroke-width="1.5" stroke-linecap="round" stroke-linejoin="round"/>
<path d="M6.25488 10.2853H9.6683" stroke="#161924" stroke-width="1.5" stroke-linecap="round" stroke-linejoin="round"/>
<path d="M14.332 10.2853H17.7455" stroke="#161924" stroke-width="1.5" stroke-linecap="round" stroke-linejoin="round"/>
<path d="M6.06641 12.8574H9.45282" stroke="#161924" stroke-width="1.5" stroke-linecap="round" stroke-linejoin="round"/>
<path d="M14.5474 12.8574H17.9338" stroke="#161924" stroke-width="1.5" stroke-linecap="round" stroke-linejoin="round"/>
<rect x="2.99658" y="2.99625" width="18.0075" height="18.0075" rx="5" stroke="#161924" stroke-width="1.5" stroke-linecap="round" stroke-linejoin="round"/>
</svg>
