<svg width="24" height="24" viewBox="0 0 24 24" fill="none" xmlns="http://www.w3.org/2000/svg">
<path d="M12 22C6.47715 22 2 17.5228 2 12C2 6.47715 6.47715 2 12 2C17.5228 2 22 6.47715 22 12" stroke="#161924" stroke-width="1.5" stroke-linecap="round" stroke-linejoin="round"/>
<path d="M5.46484 9.5H18.5356" stroke="#161924" stroke-width="1.5" stroke-linecap="round" stroke-linejoin="round"/>
<path fill-rule="evenodd" clip-rule="evenodd" d="M5.02295 12.5C5.22935 15.491 7.32594 18.0147 10.2285 18.7658V16.5C10.2285 14.2909 8.4376 12.5 6.22846 12.5H5.02295Z" stroke="#161924" stroke-width="1.5" stroke-linecap="round" stroke-linejoin="round"/>
<path d="M18.5356 9.5C18.1864 8.58042 17.6463 7.74524 16.9509 7.04944L16.9501 7.04858C15.274 5.36923 12.8608 4.65422 10.5405 5.14947C8.22014 5.64473 6.30917 7.2827 5.46484 9.5" stroke="#161924" stroke-width="1.5" stroke-linecap="round" stroke-linejoin="round"/>
<path d="M13.75 18.771V16.5C13.75 14.2909 15.5409 12.5 17.75 12.5H18.9768" stroke="#161924" stroke-width="1.5" stroke-linecap="round" stroke-linejoin="round"/>
<path d="M18.1655 17L21.1655 20" stroke="#161924" stroke-width="1.5" stroke-linecap="round" stroke-linejoin="round"/>
<path d="M21.1655 17L18.1655 20" stroke="#161924" stroke-width="1.5" stroke-linecap="round" stroke-linejoin="round"/>
<path d="M14 21.7991C13.3417 21.9328 12.6717 22.0001 12 22" stroke="#161924" stroke-width="1.5" stroke-linecap="round" stroke-linejoin="round"/>
</svg>
