<svg width="24" height="24" viewBox="0 0 24 24" fill="none" xmlns="http://www.w3.org/2000/svg">
<path fill-rule="evenodd" clip-rule="evenodd" d="M5.02295 12.5C5.22935 15.491 7.32594 18.0147 10.2285 18.7658V16.5C10.2285 14.2909 8.4376 12.5 6.22846 12.5H5.02295Z" stroke="#161924" stroke-width="1.5" stroke-linecap="round" stroke-linejoin="round"/>
<path fill-rule="evenodd" clip-rule="evenodd" d="M5.46484 9.5C6.30917 7.2827 8.22014 5.64473 10.5405 5.14947C12.8608 4.65422 15.274 5.36923 16.9501 7.04858L16.9509 7.04944C17.6463 7.74524 18.1864 8.58042 18.5356 9.5H5.46484Z" stroke="#161924" stroke-width="1.5" stroke-linecap="round" stroke-linejoin="round"/>
<path fill-rule="evenodd" clip-rule="evenodd" d="M18.9768 12.5C18.77 15.4991 16.6628 18.0273 13.75 18.771V16.5C13.75 14.2909 15.5409 12.5 17.75 12.5H18.9768Z" stroke="#161924" stroke-width="1.5" stroke-linecap="round" stroke-linejoin="round"/>
<circle cx="12" cy="12" r="10" stroke="#161924" stroke-width="1.5" stroke-linecap="round" stroke-linejoin="round"/>
</svg>
