<svg width="24" height="24" viewBox="0 0 24 24" fill="none" xmlns="http://www.w3.org/2000/svg">
<path fill-rule="evenodd" clip-rule="evenodd" d="M16.774 20.317L21.367 15.724C22.212 14.879 22.212 13.509 21.367 12.663V12.663C20.522 11.818 19.152 11.818 18.306 12.663L13.706 17.263C13.553 17.416 13.454 17.614 13.423 17.829L12.97 21L16.189 20.603C16.41 20.575 16.616 20.475 16.774 20.317V20.317Z" stroke="#161924" stroke-width="1.5" stroke-linecap="round" stroke-linejoin="round"/>
<path d="M8.89502 8.05801V9.07001" stroke="#161924" stroke-width="1.5175" stroke-linecap="round" stroke-linejoin="round"/>
<path d="M12.942 8.05801V9.07001" stroke="#161924" stroke-width="1.5175" stroke-linecap="round" stroke-linejoin="round"/>
<path d="M11.93 14.024C11.617 14.085 11.284 14.128 10.918 14.128C8.70395 14.128 7.37695 12.801 7.37695 12.801" stroke="#161924" stroke-width="1.5175" stroke-linecap="round" stroke-linejoin="round"/>
<path d="M10 19H9C5.686 19 3 16.314 3 13V9C3 5.686 5.686 3 9 3H13C16.314 3 19 5.686 19 9" stroke="#161924" stroke-width="1.5" stroke-linecap="round" stroke-linejoin="round"/>
</svg>
