<svg width="24" height="24" viewBox="0 0 24 24" fill="none" xmlns="http://www.w3.org/2000/svg">
<path d="M18.3639 5.63604C21.8787 9.15076 21.8787 14.8492 18.3639 18.3639C14.8492 21.8787 9.15074 21.8787 5.63604 18.3639C2.12132 14.8492 2.12132 9.15074 5.63604 5.63604C9.15076 2.12132 14.8492 2.12132 18.3639 5.63604" stroke="#161924" stroke-width="1.5" stroke-linecap="round" stroke-linejoin="round"/>
<path fill-rule="evenodd" clip-rule="evenodd" d="M6.826 11.539C7.388 11.078 8.208 11.119 8.721 11.633L9.589 12.5V9.00199C9.589 7.63699 10.926 6.67299 12.221 7.10499L15.024 8.03899C15.841 8.31099 16.392 9.07599 16.392 9.93599V14.034C16.392 15.939 14.847 17.484 12.942 17.484H11.316C10.229 17.484 9.206 16.972 8.554 16.102L6.59 13.479C6.137 12.873 6.241 12.018 6.826 11.539V11.539V11.539Z" stroke="#161924" stroke-width="1.5" stroke-linecap="round" stroke-linejoin="round"/>
</svg>
