<svg width="24" height="24" viewBox="0 0 24 24" fill="none" xmlns="http://www.w3.org/2000/svg">
<path d="M14.001 19.9133H21.0039" stroke="#161924" stroke-width="1.5" stroke-linecap="round" stroke-linejoin="round"/>
<path d="M7.99832 16.752L6.11954 18.6277L4.99707 17.5023" stroke="#161924" stroke-width="1.5" stroke-linecap="round" stroke-linejoin="round"/>
<circle cx="6.49797" cy="17.5022" r="4.50187" stroke="#161924" stroke-width="1.5" stroke-linecap="round" stroke-linejoin="round"/>
<path d="M19.7834 9.77905V19.9133" stroke="#161924" stroke-width="1.5" stroke-linecap="round" stroke-linejoin="round"/>
<path d="M13.001 13.0004H16.0022V16.0016H14.0014" stroke="#161924" stroke-width="1.5" stroke-linecap="round" stroke-linejoin="round"/>
<path d="M4.24994 9.77709V9.77709C3.46727 9.77709 2.74079 9.37052 2.33144 8.70344C1.92209 8.03636 1.88864 7.20453 2.2431 6.50673L3.97882 3.09031C4.32002 2.41883 5.00938 1.99585 5.76257 1.99585H18.2378C18.9909 1.99585 19.6803 2.41883 20.0215 3.09031L21.7572 6.50673C22.1117 7.20453 22.0782 8.03636 21.6689 8.70344C21.2595 9.37052 20.5331 9.77709 19.7504 9.77709V9.77709" stroke="#161924" stroke-width="1.5" stroke-linecap="round" stroke-linejoin="round"/>
<path d="M14.583 9.77707C16.0084 9.77763 17.1649 8.62342 17.1671 7.198C17.1671 7.88307 17.4392 8.54009 17.9236 9.02451C18.4081 9.50893 19.0651 9.78107 19.7502 9.78107" stroke="#161924" stroke-width="1.5" stroke-linecap="round" stroke-linejoin="round"/>
<path d="M9.41602 9.77707C10.8414 9.77763 11.9979 8.62342 12.0001 7.198C12.0001 8.62459 13.1566 9.78107 14.5832 9.78107" stroke="#161924" stroke-width="1.5" stroke-linecap="round" stroke-linejoin="round"/>
<path d="M4.24902 9.77707C5.67445 9.77763 6.83089 8.62342 6.8331 7.198C6.83531 8.62303 7.99114 9.77707 9.41618 9.77707" stroke="#161924" stroke-width="1.5" stroke-linecap="round" stroke-linejoin="round"/>
</svg>
