<svg width="24" height="24" viewBox="0 0 24 24" fill="none" xmlns="http://www.w3.org/2000/svg">
<path d="M20 20V9.78" stroke="#161924" stroke-width="1.5" stroke-linecap="round" stroke-linejoin="round"/>
<path fill-rule="evenodd" clip-rule="evenodd" d="M4.30059 9.778C2.60259 9.766 1.49559 8.085 2.23159 6.636L3.94759 3.259C4.33759 2.489 5.15959 2 6.06159 2H17.9376C18.8396 2 19.6616 2.489 20.0526 3.259L21.7686 6.636C22.5046 8.085 21.3976 9.766 19.6996 9.778C18.2826 9.778 17.1336 8.81 17.1336 7.615V7.567C17.1336 8.788 15.9846 9.778 14.5676 9.778C13.1486 9.778 11.9996 8.788 11.9996 7.567C11.9996 8.788 10.8506 9.778 9.43359 9.778C8.01659 9.778 6.86759 8.788 6.86759 7.567V7.615C6.86659 8.81 5.71759 9.778 4.30059 9.778Z" stroke="#161924" stroke-width="1.5" stroke-linecap="round" stroke-linejoin="round"/>
<path d="M14 20H21" stroke="#161924" stroke-width="1.5" stroke-linecap="round" stroke-linejoin="round"/>
<path fill-rule="evenodd" clip-rule="evenodd" d="M7.14995 14.651C7.46795 14.293 8.01595 13.89 8.85295 13.89C10.315 13.89 11.298 15.214 11.298 16.447C11.297 19.025 7.96995 21 7.14995 21C6.32995 21 3.00195 19.025 3.00195 16.447C3.00195 15.213 3.98295 13.89 5.44695 13.89C6.28295 13.89 6.83195 14.293 7.14995 14.651Z" stroke="#161924" stroke-width="1.5" stroke-linecap="round" stroke-linejoin="round"/>
</svg>
