<svg width="24" height="24" viewBox="0 0 24 24" fill="none" xmlns="http://www.w3.org/2000/svg">
<path d="M21 20.0001L14 19.9999" stroke="#161924" stroke-width="1.5" stroke-linecap="round" stroke-linejoin="round"/>
<path d="M20.0001 20.0001L19.9999 9.98755" stroke="#161924" stroke-width="1.5" stroke-linecap="round" stroke-linejoin="round"/>
<path fill-rule="evenodd" clip-rule="evenodd" d="M2.27603 6.47765C1.98092 7.03345 1.92226 7.68474 2.1133 8.28433C2.44376 9.32453 3.41993 10.0228 4.5111 9.99943C5.60228 9.9761 6.54771 9.23678 6.83341 8.18341C6.85152 8.12223 6.90772 8.08025 6.97153 8.08025C7.03534 8.08025 7.09154 8.12223 7.10965 8.18341C7.40142 9.25555 8.375 9.99951 9.48612 9.99939C10.5973 9.99927 11.5707 9.2551 11.8622 8.1829C11.8803 8.12169 11.9365 8.07968 12.0003 8.07968C12.0641 8.07968 12.1203 8.12169 12.1384 8.1829C12.4301 9.2551 13.4036 9.99918 14.5148 9.99914C15.626 9.9991 16.5995 9.25495 16.891 8.18273C16.9092 8.12156 16.9654 8.0796 17.0292 8.0796C17.093 8.0796 17.1492 8.12156 17.1673 8.18273C17.453 9.23599 18.3984 9.97521 19.4895 9.99858C20.5805 10.0219 21.5567 9.32387 21.8872 8.28381C22.0784 7.68412 22.0197 7.0327 21.7245 6.47681L20.0178 3.09822C19.6776 2.4247 18.9872 2 18.2326 2H5.76831C5.01374 2.00002 4.32342 2.42471 3.98319 3.09822L2.27603 6.47765Z" stroke="#161924" stroke-width="1.5" stroke-linecap="round" stroke-linejoin="round"/>
<path d="M13 13H16V16H15" stroke="#161924" stroke-width="1.5" stroke-linecap="round" stroke-linejoin="round"/>
<path d="M2.5 16.3333H11.5" stroke="#161924" stroke-width="1.5" stroke-linecap="round" stroke-linejoin="round"/>
<path d="M5.5003 14L3.9209 16.3333" stroke="#161924" stroke-width="1.5" stroke-linecap="round" stroke-linejoin="round"/>
<path d="M8.5 14L10.0794 16.3333" stroke="#161924" stroke-width="1.5" stroke-linecap="round" stroke-linejoin="round"/>
<path d="M11.1875 16.3333L10.575 19.7637C10.4473 20.4791 9.82505 21 9.09832 21H4.9017C4.17499 21 3.55281 20.4791 3.42506 19.7637L2.8125 16.3333" stroke="#161924" stroke-width="1.5" stroke-linecap="round" stroke-linejoin="round"/>
</svg>
