<svg width="24" height="24" viewBox="0 0 24 24" fill="none" xmlns="http://www.w3.org/2000/svg">
<path d="M7 9V11" stroke="#161924" stroke-width="1.5" stroke-linecap="round" stroke-linejoin="round"/>
<path d="M9 11H2" stroke="#161924" stroke-width="1.5" stroke-linecap="round" stroke-linejoin="round"/>
<path d="M3 11V5.86572" stroke="#161924" stroke-width="1.5" stroke-linecap="round" stroke-linejoin="round"/>
<path d="M6.5752 16.575L8.0002 18L6.5752 19.425" stroke="#161924" stroke-width="1.5" stroke-linecap="round" stroke-linejoin="round"/>
<path d="M3.25 15.15V15.1504C3.25005 15.9062 3.55034 16.631 4.08482 17.1655C4.6193 17.6999 5.34418 18.0001 6.1 18H8" stroke="#161924" stroke-width="1.5" stroke-linecap="round" stroke-linejoin="round"/>
<path fill-rule="evenodd" clip-rule="evenodd" d="M19 21H14C12.8954 21 12 20.1046 12 19V10C12 8.89543 12.8954 8 14 8H19C20.1046 8 21 8.89543 21 10V19C21 20.1046 20.1046 21 19 21Z" stroke="#161924" stroke-width="1.5" stroke-linecap="round" stroke-linejoin="round"/>
<path d="M15 18.5L18 18.5" stroke="#161924" stroke-width="1.5" stroke-linecap="round" stroke-linejoin="round"/>
<path d="M3.64522 5.99963C4.13623 5.9994 4.60091 5.77761 4.90988 5.396C4.99641 5.25032 5.1533 5.16102 5.32274 5.16102C5.49218 5.16102 5.64908 5.25032 5.7356 5.396C6.04443 5.77778 6.50921 5.99962 7.00026 5.99962C7.49132 5.99962 7.95609 5.77778 8.26492 5.396C8.35145 5.25032 8.50835 5.16102 8.67779 5.16102C8.84723 5.16102 9.00413 5.25032 9.09065 5.396C9.39962 5.77761 9.86431 5.9994 10.3553 5.99962C11.1161 5.99414 11.7759 5.47234 11.9564 4.73327C12.0427 4.36609 11.9903 3.98 11.8095 3.649L11.3929 2.82423C11.1376 2.31873 10.6194 1.99999 10.0531 2H3.94732C3.38136 2 2.86359 2.31855 2.60842 2.82372L2.19136 3.64942C2.01056 3.98041 1.95825 4.36647 2.04444 4.73364C2.22505 5.4727 2.88479 5.9945 3.64558 6" stroke="#161924" stroke-width="1.5" stroke-linecap="round" stroke-linejoin="round"/>
</svg>
