<svg width="24" height="24" viewBox="0 0 24 24" fill="none" xmlns="http://www.w3.org/2000/svg">
<path d="M4.99707 16.5018C4.99707 17.3306 5.66892 18.0025 6.4977 18.0025C7.32647 18.0025 7.99832 17.3306 7.99832 16.5018" stroke="#161924" stroke-width="1.5" stroke-linecap="round" stroke-linejoin="round"/>
<path d="M13.001 13.0004H16.0022V16.0016H14.0014" stroke="#161924" stroke-width="1.5" stroke-linecap="round" stroke-linejoin="round"/>
<path d="M14.001 19.9133H21.0039" stroke="#161924" stroke-width="1.5" stroke-linecap="round" stroke-linejoin="round"/>
<path d="M19.7834 9.99915V19.9133" stroke="#161924" stroke-width="1.5" stroke-linecap="round" stroke-linejoin="round"/>
<path fill-rule="evenodd" clip-rule="evenodd" d="M21.7289 6.47537C22.0241 7.0314 22.0828 7.68296 21.8917 8.2828C21.5611 9.32343 20.5845 10.022 19.4929 9.99861C18.4012 9.97527 17.4554 9.23565 17.1696 8.18184C17.1515 8.12063 17.0953 8.07863 17.0314 8.07863C16.9676 8.07863 16.9114 8.12063 16.8932 8.18184C16.6014 9.25442 15.6274 9.99869 14.5158 9.99857C13.4042 9.99845 12.4304 9.25397 12.1387 8.18133C12.1206 8.12009 12.0644 8.07806 12.0005 8.07806C11.9367 8.07806 11.8805 8.12009 11.8624 8.18133C11.5706 9.25398 10.5966 9.99836 9.48502 9.99832C8.37339 9.99828 7.39948 9.25383 7.10778 8.18116C7.08964 8.11996 7.03341 8.07798 6.96959 8.07798C6.90576 8.07798 6.84954 8.11996 6.8314 8.18116C6.54554 9.23485 5.59981 9.97438 4.50828 9.99776C3.41674 10.0211 2.44022 9.32277 2.10951 8.28228C1.9183 7.68234 1.97698 7.03065 2.2723 6.47452L3.97973 3.09453C4.32011 2.42072 5.01074 1.99585 5.76564 1.99585H18.2351C18.99 1.99585 19.6807 2.42073 20.021 3.09453L21.7289 6.47537Z" stroke="#161924" stroke-width="1.5" stroke-linecap="round" stroke-linejoin="round"/>
<rect x="1.99609" y="14.0009" width="9.00375" height="7.00292" rx="1" stroke="#161924" stroke-width="1.5" stroke-linecap="round" stroke-linejoin="round"/>
</svg>
