<svg width="24" height="24" viewBox="0 0 24 24" fill="none" xmlns="http://www.w3.org/2000/svg">
<path d="M13 13H16V16H14" stroke="#161924" stroke-width="1.5" stroke-linecap="round" stroke-linejoin="round"/>
<path d="M21 20.0001L14 19.9999" stroke="#161924" stroke-width="1.5" stroke-linecap="round" stroke-linejoin="round"/>
<path d="M19.7803 20V9.98706" stroke="#161924" stroke-width="1.5" stroke-linecap="round" stroke-linejoin="round"/>
<path fill-rule="evenodd" clip-rule="evenodd" d="M2.27607 6.47765C1.98094 7.03345 1.92226 7.68473 2.11329 8.28433C2.44375 9.32453 3.41991 10.0228 4.51109 9.99943C5.60227 9.9761 6.54769 9.23678 6.83339 8.18341C6.8515 8.12223 6.90771 8.08025 6.97151 8.08025C7.03532 8.08025 7.09153 8.12223 7.10964 8.18341C7.40138 9.25558 8.37497 9.99958 9.48613 9.99946C10.5973 9.99934 11.5707 9.25514 11.8622 8.1829C11.8803 8.12169 11.9365 8.07968 12.0003 8.07968C12.0642 8.07968 12.1204 8.12169 12.1384 8.1829C12.4301 9.2551 13.4037 9.99918 14.5148 9.99914C15.626 9.9991 16.5995 9.25495 16.8911 8.18273C16.9092 8.12156 16.9654 8.0796 17.0292 8.0796C17.093 8.0796 17.1492 8.12156 17.1673 8.18273C17.4531 9.23599 18.3984 9.97521 19.4895 9.99858C20.5806 10.0219 21.5567 9.32387 21.8872 8.28381C22.0784 7.68412 22.0197 7.0327 21.7245 6.47681L20.0178 3.09822C19.6776 2.4247 18.9872 2 18.2326 2H5.76838C5.0138 2 4.32345 2.4247 3.98322 3.09822L2.27607 6.47765Z" stroke="#161924" stroke-width="1.5" stroke-linecap="round" stroke-linejoin="round"/>
<path fill-rule="evenodd" clip-rule="evenodd" d="M10.5 18.2665L9.99996 18.5552C9.69056 18.7338 9.49997 19.0639 9.49996 19.4212V19.9986C9.49995 20.3558 9.30934 20.6859 8.99995 20.8646C8.69055 21.0432 8.30935 21.0432 7.99996 20.8646L7.49996 20.5759C7.19056 20.3972 6.80936 20.3972 6.49996 20.5759L5.99996 20.8646C5.69056 21.0432 5.30937 21.0432 4.99997 20.8646C4.69057 20.6859 4.49997 20.3558 4.49996 19.9986V19.4212C4.49995 19.0639 4.30935 18.7338 3.99996 18.5552L3.49996 18.2665C3.19058 18.0879 3 17.7578 3 17.4005C3 17.0433 3.19058 16.7132 3.49996 16.5345L3.99996 16.2458C4.30935 16.0672 4.49995 15.7371 4.49996 15.3798V14.8025C4.49997 14.4452 4.69057 14.1151 4.99997 13.9365C5.30937 13.7578 5.69056 13.7578 5.99996 13.9365L6.49996 14.2252C6.80936 14.4038 7.19056 14.4038 7.49996 14.2252L7.99996 13.9365C8.30935 13.7578 8.69055 13.7578 8.99995 13.9365C9.30934 14.1151 9.49995 14.4452 9.49996 14.8025V15.3798C9.49997 15.7371 9.69056 16.0672 9.99996 16.2458L10.5 16.5345C10.8093 16.7132 10.9999 17.0433 10.9999 17.4005C10.9999 17.7578 10.8093 18.0879 10.5 18.2665Z" stroke="#161924" stroke-width="1.5" stroke-linecap="round" stroke-linejoin="round"/>
</svg>
