<svg width="24" height="24" viewBox="0 0 24 24" fill="none" xmlns="http://www.w3.org/2000/svg">
<path d="M16.002 2.99622H19.2893C19.7441 2.99622 20.1802 3.17687 20.5018 3.49844C20.8234 3.82002 21.004 4.25616 21.004 4.71093V7.9983" stroke="#161924" stroke-width="1.5" stroke-linecap="round" stroke-linejoin="round"/>
<path d="M7.99818 21.0038H4.71081C4.25604 21.0038 3.81989 20.8231 3.49832 20.5016C3.17675 20.18 2.99609 19.7438 2.99609 19.2891V16.0017" stroke="#161924" stroke-width="1.5" stroke-linecap="round" stroke-linejoin="round"/>
<path fill-rule="evenodd" clip-rule="evenodd" d="M18.6972 12.6052L21.7445 18.0205C22.0934 18.6396 22.0878 19.3974 21.7296 20.0112C21.3714 20.6251 20.7145 21.0029 20.0038 21.0037H13.9062C13.1953 21.0037 12.5377 20.6265 12.1789 20.0128C11.82 19.3991 11.8138 18.641 12.1625 18.0215L15.2098 12.6052C15.5642 11.9753 16.2308 11.5856 16.9535 11.5856C17.6762 11.5856 18.3428 11.9753 18.6972 12.6052Z" stroke="#161924" stroke-width="1.5" stroke-linecap="round" stroke-linejoin="round"/>
<path d="M16.9533 16.4218V14.5861" stroke="#161924" stroke-width="1.5" stroke-linecap="round" stroke-linejoin="round"/>
<path d="M16.9523 18.4476C16.9283 18.4476 16.9052 18.4572 16.8883 18.4744C16.8714 18.4915 16.862 18.5146 16.8623 18.5387C16.8623 18.5756 16.8846 18.6088 16.9187 18.6229C16.9529 18.6369 16.9921 18.6289 17.0181 18.6027C17.044 18.5764 17.0516 18.5371 17.0372 18.5031C17.0227 18.4691 16.9892 18.4472 16.9523 18.4476" stroke="#161924" stroke-width="1.5" stroke-linecap="round" stroke-linejoin="round"/>
<path d="M3.59689 6.14551V10.9995" stroke="#161924" stroke-width="1.5" stroke-linecap="round" stroke-linejoin="round"/>
<path d="M11.5158 7.99828V6.14551" stroke="#161924" stroke-width="1.5" stroke-linecap="round" stroke-linejoin="round"/>
<path fill-rule="evenodd" clip-rule="evenodd" d="M5.79786 4.99711H5.85489C6.06043 5.75732 6.76921 6.27055 7.55559 6.22863C8.34052 6.26861 9.04706 5.75578 9.2523 4.99711H9.30932C9.51043 5.7605 10.222 6.27616 11.01 6.22963C11.5267 6.24802 12.0155 5.99558 12.2997 5.56366C12.5838 5.13175 12.6221 4.58291 12.4006 4.11575L11.7413 2.8152C11.4844 2.31098 10.9657 1.99417 10.3998 1.99586H4.6974C4.13213 1.99568 3.61472 2.31317 3.35885 2.81721L2.70057 4.11775C2.47937 4.58559 2.51868 5.13501 2.80423 5.5666C3.08977 5.9982 3.58006 6.24924 4.09715 6.22863C4.88469 6.27447 5.59568 5.75963 5.79786 4.99711Z" stroke="#161924" stroke-width="1.5" stroke-linecap="round" stroke-linejoin="round"/>
<path d="M11.5158 10.9995V6.14551" stroke="#161924" stroke-width="1.5" stroke-linecap="round" stroke-linejoin="round"/>
<path d="M7.55392 10.9996V8.99878" stroke="#161924" stroke-width="1.5" stroke-linecap="round" stroke-linejoin="round"/>
<path d="M2.99609 10.9996H12.1119" stroke="#161924" stroke-width="1.5" stroke-linecap="round" stroke-linejoin="round"/>
</svg>
