<svg width="24" height="24" viewBox="0 0 24 24" fill="none" xmlns="http://www.w3.org/2000/svg">
<path d="M2.99609 21.0037H5.99734" stroke="#161924" stroke-width="1.5" stroke-linecap="round" stroke-linejoin="round"/>
<path d="M18.0029 21.0037H21.0042" stroke="#161924" stroke-width="1.5" stroke-linecap="round" stroke-linejoin="round"/>
<path d="M20.0031 21.0038V10.7595" stroke="#161924" stroke-width="1.5" stroke-linecap="round" stroke-linejoin="round"/>
<path d="M4.24994 10.7775V10.7775C3.46727 10.7775 2.74079 10.3709 2.33144 9.70381C1.92209 9.03672 1.88864 8.20489 2.2431 7.50709L3.97882 4.09067C4.32002 3.4192 5.00938 2.99622 5.76257 2.99622H18.2378C18.9909 2.99622 19.6803 3.4192 20.0215 4.09067L21.7572 7.50709C22.1117 8.20489 22.0782 9.03672 21.6689 9.70381C21.2595 10.3709 20.5331 10.7775 19.7504 10.7775V10.7775" stroke="#161924" stroke-width="1.5" stroke-linecap="round" stroke-linejoin="round"/>
<path d="M14.583 10.7774C16.0084 10.778 17.1649 9.62379 17.1671 8.19836C17.1671 8.88344 17.4392 9.54045 17.9236 10.0249C18.4081 10.5093 19.0651 10.7814 19.7502 10.7814" stroke="#161924" stroke-width="1.5" stroke-linecap="round" stroke-linejoin="round"/>
<path d="M9.41602 10.7774C10.8414 10.778 11.9979 9.62379 12.0001 8.19836C12.0001 9.62496 13.1566 10.7814 14.5832 10.7814" stroke="#161924" stroke-width="1.5" stroke-linecap="round" stroke-linejoin="round"/>
<path d="M4.24902 10.7774C5.67445 10.778 6.83089 9.62379 6.8331 8.19836C6.8331 8.88344 7.10524 9.54045 7.58967 10.0249C8.07409 10.5093 8.7311 10.7814 9.41618 10.7814" stroke="#161924" stroke-width="1.5" stroke-linecap="round" stroke-linejoin="round"/>
<path d="M3.9963 21.0038V10.7595" stroke="#161924" stroke-width="1.5" stroke-linecap="round" stroke-linejoin="round"/>
<path fill-rule="evenodd" clip-rule="evenodd" d="M11.3293 14.43C11.4551 14.1748 11.715 14.0132 11.9996 14.0132C12.2841 14.0132 12.544 14.1748 12.6699 14.43L13.2161 15.5375C13.3245 15.7582 13.5349 15.911 13.7783 15.9457L15.0018 16.1277C15.2831 16.169 15.5166 16.3663 15.6042 16.6367C15.6919 16.9071 15.6186 17.2038 15.415 17.4023L14.5306 18.2646C14.3541 18.436 14.2739 18.6836 14.3165 18.9259L14.5246 20.1424C14.5731 20.4227 14.458 20.7061 14.228 20.8733C13.9979 21.0405 13.6928 21.0624 13.4412 20.9297L12.3487 20.3555C12.1299 20.2387 11.8672 20.2387 11.6484 20.3555L10.557 20.9297C10.3054 21.0624 10.0003 21.0405 9.7702 20.8733C9.54012 20.7061 9.42507 20.4227 9.47352 20.1424L9.68161 18.9259C9.72369 18.6837 9.64359 18.4363 9.46752 18.2646L8.58715 17.4023C8.38363 17.204 8.31017 16.9074 8.39761 16.6371C8.48504 16.3667 8.71823 16.1693 8.99933 16.1277L10.2218 15.9457C10.4652 15.911 10.6757 15.7582 10.7841 15.5375L11.3293 14.43Z" stroke="#161924" stroke-width="1.5" stroke-linecap="round" stroke-linejoin="round"/>
</svg>
