<svg width="24" height="24" viewBox="0 0 24 24" fill="none" xmlns="http://www.w3.org/2000/svg">
<path d="M13 13H16V16H14" stroke="#161924" stroke-width="1.5" stroke-linecap="round" stroke-linejoin="round"/>
<path fill-rule="evenodd" clip-rule="evenodd" d="M6.77389 15.1575L7 15.3871L7.22614 15.1574C7.63757 14.737 8.20104 14.5 8.78931 14.5C9.37758 14.5 9.94105 14.737 10.3525 15.1574V15.1574C11.2158 16.0395 11.2158 17.4499 10.3525 18.3319L8.23743 20.4795C7.91173 20.8124 7.46568 21 7 21C6.53431 21 6.08826 20.8124 5.76257 20.4795L3.64751 18.332C2.78416 17.4499 2.78416 16.0396 3.64751 15.1575V15.1575C4.05894 14.737 4.62242 14.5 5.21069 14.5C5.79897 14.5 6.36245 14.737 6.77389 15.1575Z" stroke="#161924" stroke-width="1.5" stroke-linecap="round" stroke-linejoin="round"/>
<path d="M21 20.0001L14 19.9999" stroke="#161924" stroke-width="1.5" stroke-linecap="round" stroke-linejoin="round"/>
<path d="M19.7803 20V9.98706" stroke="#161924" stroke-width="1.5" stroke-linecap="round" stroke-linejoin="round"/>
<path fill-rule="evenodd" clip-rule="evenodd" d="M2.27607 6.47765C1.98094 7.03345 1.92226 7.68473 2.11329 8.28433C2.44375 9.32453 3.41991 10.0228 4.51109 9.99943C5.60227 9.9761 6.54769 9.23678 6.83339 8.18341C6.8515 8.12223 6.90771 8.08025 6.97151 8.08025C7.03532 8.08025 7.09153 8.12223 7.10964 8.18341C7.40138 9.25558 8.37497 9.99958 9.48613 9.99946C10.5973 9.99934 11.5707 9.25514 11.8622 8.1829C11.8803 8.12169 11.9365 8.07968 12.0003 8.07968C12.0642 8.07968 12.1204 8.12169 12.1384 8.1829C12.4301 9.2551 13.4037 9.99918 14.5148 9.99914C15.626 9.9991 16.5995 9.25495 16.8911 8.18273C16.9092 8.12156 16.9654 8.0796 17.0292 8.0796C17.093 8.0796 17.1492 8.12156 17.1673 8.18273C17.4531 9.23599 18.3984 9.97521 19.4895 9.99858C20.5806 10.0219 21.5567 9.32387 21.8872 8.28381C22.0784 7.68412 22.0197 7.0327 21.7245 6.47681L20.0178 3.09822C19.6776 2.4247 18.9872 2 18.2326 2H5.76838C5.0138 2 4.32345 2.4247 3.98322 3.09822L2.27607 6.47765Z" stroke="#161924" stroke-width="1.5" stroke-linecap="round" stroke-linejoin="round"/>
</svg>
