<svg width="24" height="24" viewBox="0 0 24 24" fill="none" xmlns="http://www.w3.org/2000/svg">
<path d="M20 20V9.78" stroke="#161924" stroke-width="1.5" stroke-linecap="round" stroke-linejoin="round"/>
<path fill-rule="evenodd" clip-rule="evenodd" d="M4.30059 9.778C2.60259 9.766 1.49559 8.085 2.23159 6.636L3.94759 3.259C4.33759 2.489 5.15959 2 6.06159 2H17.9376C18.8396 2 19.6616 2.489 20.0526 3.259L21.7686 6.636C22.5046 8.085 21.3976 9.766 19.6996 9.778C18.2826 9.778 17.1336 8.81 17.1336 7.615V7.567C17.1336 8.788 15.9846 9.778 14.5676 9.778C13.1486 9.778 11.9996 8.788 11.9996 7.567C11.9996 8.788 10.8506 9.778 9.43359 9.778C8.01659 9.778 6.86759 8.788 6.86759 7.567V7.615C6.86659 8.81 5.71759 9.778 4.30059 9.778Z" stroke="#161924" stroke-width="1.5" stroke-linecap="round" stroke-linejoin="round"/>
<path d="M16 20H21" stroke="#161924" stroke-width="1.5" stroke-linecap="round" stroke-linejoin="round"/>
<path d="M4.5998 14.95H10.9998L10.2998 18.45H5.2998L4.2998 13.45H3.0498" stroke="#161924" stroke-width="1.5" stroke-linecap="round" stroke-linejoin="round"/>
<path d="M9.8353 20.915C9.8553 20.935 9.8553 20.966 9.8353 20.986C9.8153 21.006 9.7843 21.006 9.7643 20.986C9.7443 20.966 9.7443 20.935 9.7643 20.915C9.7843 20.895 9.8163 20.895 9.8353 20.915" stroke="#161924" stroke-width="1.5" stroke-linecap="round" stroke-linejoin="round"/>
<path d="M5.8353 20.915C5.8553 20.935 5.8553 20.966 5.8353 20.986C5.8153 21.006 5.7843 21.006 5.7643 20.986C5.7443 20.966 5.7443 20.935 5.7643 20.915C5.7843 20.895 5.8163 20.895 5.8353 20.915" stroke="#161924" stroke-width="1.5" stroke-linecap="round" stroke-linejoin="round"/>
</svg>
