<svg width="24" height="24" viewBox="0 0 24 24" fill="none" xmlns="http://www.w3.org/2000/svg">
<circle cx="16.0017" cy="5.99752" r="4.00167" stroke="#161924" stroke-width="1.5" stroke-linecap="round" stroke-linejoin="round"/>
<path d="M21.004 10.9996L18.8311 8.82666" stroke="#161924" stroke-width="1.5" stroke-linecap="round" stroke-linejoin="round"/>
<path d="M16.002 21.0037H18.0028C19.6603 21.0037 21.004 19.66 21.004 18.0025V15.0012" stroke="#161924" stroke-width="1.5" stroke-linecap="round" stroke-linejoin="round"/>
<path d="M2.99609 8.99879V6.99795C2.99609 5.34041 4.3398 3.9967 5.99734 3.9967H7.99818" stroke="#161924" stroke-width="1.5" stroke-linecap="round" stroke-linejoin="round"/>
<path d="M3.4963 16.1797V21.0037" stroke="#161924" stroke-width="1.5" stroke-linecap="round" stroke-linejoin="round"/>
<path d="M11.5002 21.0038V16.1097" stroke="#161924" stroke-width="1.5" stroke-linecap="round" stroke-linejoin="round"/>
<path d="M7.40255 21.0038V19.0029" stroke="#161924" stroke-width="1.5" stroke-linecap="round" stroke-linejoin="round"/>
<path d="M2.99609 21.0037H11.9598" stroke="#161924" stroke-width="1.5" stroke-linecap="round" stroke-linejoin="round"/>
<path d="M7.39844 16.2388C8.14492 16.2388 8.80845 15.7632 9.04812 15.0563C9.06412 15.02 9.10002 14.9966 9.13966 14.9966C9.1793 14.9966 9.21521 15.02 9.2312 15.0563C9.47152 15.7632 10.1352 16.2386 10.8819 16.2388" stroke="#161924" stroke-width="1.5" stroke-linecap="round" stroke-linejoin="round"/>
<path d="M3.91895 16.2388C4.66559 16.2386 5.32932 15.7632 5.56963 15.0563C5.58563 15.02 5.62153 14.9966 5.66117 14.9966C5.70081 14.9966 5.73672 15.02 5.75271 15.0563C5.99191 15.7618 6.65339 16.2371 7.39839 16.2388" stroke="#161924" stroke-width="1.5" stroke-linecap="round" stroke-linejoin="round"/>
<path d="M10.8858 16.2388C11.4123 16.2379 11.9006 15.9643 12.1763 15.5158C12.4519 15.0672 12.4754 14.5079 12.2384 14.0379L11.5791 12.7373C11.3494 12.2852 10.8857 12 10.3786 11.999H4.42915C3.92205 12 3.45833 12.2852 3.22865 12.7373L2.57037 14.0379C2.33283 14.5077 2.35595 15.0672 2.63146 15.5158C2.90697 15.9645 3.39545 16.2381 3.92194 16.2388V16.2388" stroke="#161924" stroke-width="1.5" stroke-linecap="round" stroke-linejoin="round"/>
</svg>
