<svg width="24" height="24" viewBox="0 0 24 24" fill="none" xmlns="http://www.w3.org/2000/svg">
<path d="M8.49898 2.99622V4.79697C8.47401 5.10001 8.69661 5.36713 8.99919 5.39722H13.0009C13.3034 5.36713 13.526 5.10001 13.5011 4.79697V2.99622" stroke="#161924" stroke-width="1.5" stroke-linecap="round" stroke-linejoin="round"/>
<path d="M7.99832 21.0037H6.9979C5.89287 21.0037 4.99707 20.1079 4.99707 19.0029V4.99705C4.99707 3.89202 5.89287 2.99622 6.9979 2.99622H15.0012C16.1063 2.99622 17.0021 3.89202 17.0021 4.99705V8.99872" stroke="#161924" stroke-width="1.5" stroke-linecap="round" stroke-linejoin="round"/>
<path d="M12.0002 16.1508V21.0037" stroke="#161924" stroke-width="1.5" stroke-linecap="round" stroke-linejoin="round"/>
<path d="M20.0031 21.0037V16.1508" stroke="#161924" stroke-width="1.5" stroke-linecap="round" stroke-linejoin="round"/>
<path d="M16.0022 21.0038V19.0029" stroke="#161924" stroke-width="1.5" stroke-linecap="round" stroke-linejoin="round"/>
<path d="M11.5195 21.0037H20.4833" stroke="#161924" stroke-width="1.5" stroke-linecap="round" stroke-linejoin="round"/>
<path d="M12.5163 16.2442V16.2442C11.9893 16.2436 11.5003 15.9696 11.2245 15.5205C10.9487 15.0714 10.9255 14.5113 11.1633 14.041L11.8223 12.7391C12.0522 12.2865 12.5164 12.001 13.024 12H18.9768C19.4853 11.9997 19.9509 12.2849 20.1816 12.7381L20.8405 14.04C21.0783 14.5103 21.0552 15.0704 20.7794 15.5195C20.5036 15.9686 20.0146 16.2426 19.4875 16.2432C18.74 16.2434 18.0754 15.7673 17.8351 15.0595C17.8191 15.0232 17.7832 14.9997 17.7435 14.9997C17.7038 14.9997 17.6678 15.0232 17.6518 15.0595C17.4118 15.7671 16.7477 16.2432 16.0004 16.2432C15.2532 16.2432 14.589 15.7671 14.349 15.0595C14.333 15.0232 14.297 14.9997 14.2574 14.9997C14.2177 14.9997 14.1817 15.0232 14.1657 15.0595C13.9251 15.7672 13.2607 16.2431 12.5133 16.2432" stroke="#161924" stroke-width="1.5" stroke-linecap="round" stroke-linejoin="round"/>
</svg>
