<svg width="24" height="24" viewBox="0 0 24 24" fill="none" xmlns="http://www.w3.org/2000/svg">
<path d="M13.001 8.99874H17.0026" stroke="#161924" stroke-width="1.5" stroke-linecap="round" stroke-linejoin="round"/>
<path d="M6.99805 8.72458L7.91743 9.55292L9.7682 7.88623" stroke="#161924" stroke-width="1.5" stroke-linecap="round" stroke-linejoin="round"/>
<path d="M9.99901 20.0033H7.99818C5.2356 20.0033 2.99609 17.7638 2.99609 15.0013V6.99793C2.99609 4.23536 5.2356 1.99585 7.99818 1.99585H16.0015C17.3281 1.99585 18.6004 2.52285 19.5385 3.46093C20.4766 4.399 21.0036 5.6713 21.0036 6.99793V9.99918" stroke="#161924" stroke-width="1.5" stroke-linecap="round" stroke-linejoin="round"/>
<path d="M6.99805 13.7267L7.91743 14.555L9.7682 12.8883" stroke="#161924" stroke-width="1.5" stroke-linecap="round" stroke-linejoin="round"/>
<path d="M13.0002 17.1512V22.0042" stroke="#161924" stroke-width="1.5" stroke-linecap="round" stroke-linejoin="round"/>
<path d="M21.0041 22.0042V17.1512" stroke="#161924" stroke-width="1.5" stroke-linecap="round" stroke-linejoin="round"/>
<path d="M17.0022 22.0041V20.0033" stroke="#161924" stroke-width="1.5" stroke-linecap="round" stroke-linejoin="round"/>
<path d="M12.5205 22.0041H21.4842" stroke="#161924" stroke-width="1.5" stroke-linecap="round" stroke-linejoin="round"/>
<path d="M13.5163 17.2446V17.2446C12.9893 17.2439 12.5003 16.97 12.2245 16.5209C11.9487 16.0717 11.9255 15.5117 12.1633 15.0414L12.8223 13.7395C13.0522 13.2869 13.5164 13.0014 14.024 13.0004H19.9768C20.4853 13.0001 20.9509 13.2853 21.1816 13.7385L21.8405 15.0404C22.0783 15.5107 22.0552 16.0707 21.7794 16.5198C21.5036 16.969 21.0146 17.2429 20.4875 17.2436C19.74 17.2438 19.0754 16.7677 18.8351 16.0599C18.8191 16.0235 18.7832 16.0001 18.7435 16.0001C18.7038 16.0001 18.6678 16.0235 18.6518 16.0599C18.4118 16.7675 17.7477 17.2436 17.0004 17.2436C16.2532 17.2436 15.589 16.7675 15.349 16.0599C15.333 16.0235 15.297 16.0001 15.2574 16.0001C15.2177 16.0001 15.1817 16.0235 15.1657 16.0599C14.9251 16.7675 14.2607 17.2435 13.5133 17.2436" stroke="#161924" stroke-width="1.5" stroke-linecap="round" stroke-linejoin="round"/>
</svg>
