<svg width="24" height="24" viewBox="0 0 24 24" fill="none" xmlns="http://www.w3.org/2000/svg">
<path d="M2.99609 7.99838H21.0036" stroke="#161924" stroke-width="1.5" stroke-linecap="round" stroke-linejoin="round"/>
<path d="M10.8654 5.49228L10.8604 5.49728L10.8654 5.50228L10.8704 5.49728L10.8654 5.49228" stroke="#161924" stroke-width="1.5" stroke-linecap="round" stroke-linejoin="round"/>
<path d="M8.3254 5.49228L8.3204 5.49728L8.3254 5.50228L8.33041 5.49728L8.3254 5.49228" stroke="#161924" stroke-width="1.5" stroke-linecap="round" stroke-linejoin="round"/>
<path d="M5.77658 5.48727L5.77157 5.49227L5.77658 5.49728L5.78158 5.49227L5.77658 5.48727" stroke="#161924" stroke-width="1.5" stroke-linecap="round" stroke-linejoin="round"/>
<path d="M8.99859 21.0037H4.99693C4.46623 21.0037 3.95722 20.7931 3.58196 20.4178C3.2067 20.0426 2.99609 19.5336 2.99609 19.0029V4.99705C2.99609 4.46635 3.2067 3.95735 3.58196 3.58209C3.95722 3.20682 4.46623 2.99622 4.99693 2.99622H19.0028C19.5335 2.99622 20.0425 3.20682 20.4177 3.58209C20.793 3.95735 21.0036 4.46635 21.0036 4.99705V8.99872" stroke="#161924" stroke-width="1.5" stroke-linecap="round" stroke-linejoin="round"/>
<path d="M13.0002 16.1508V21.0037" stroke="#161924" stroke-width="1.5" stroke-linecap="round" stroke-linejoin="round"/>
<path d="M21.0041 21.0037V16.1508" stroke="#161924" stroke-width="1.5" stroke-linecap="round" stroke-linejoin="round"/>
<path d="M17.0022 21.0038V19.0029" stroke="#161924" stroke-width="1.5" stroke-linecap="round" stroke-linejoin="round"/>
<path d="M12.5205 21.0037H21.4842" stroke="#161924" stroke-width="1.5" stroke-linecap="round" stroke-linejoin="round"/>
<path d="M13.5163 16.2442V16.2442C12.9893 16.2436 12.5003 15.9696 12.2245 15.5205C11.9487 15.0714 11.9255 14.5113 12.1633 14.041L12.8223 12.7391C13.0522 12.2865 13.5164 12.001 14.024 12H19.9768C20.4853 11.9997 20.9509 12.2849 21.1816 12.7381L21.8405 14.04C22.0783 14.5103 22.0552 15.0704 21.7794 15.5195C21.5036 15.9686 21.0146 16.2426 20.4875 16.2432C19.74 16.2434 19.0754 15.7673 18.8351 15.0595C18.8191 15.0232 18.7832 14.9997 18.7435 14.9997C18.7038 14.9997 18.6678 15.0232 18.6518 15.0595C18.4118 15.7671 17.7477 16.2432 17.0004 16.2432C16.2532 16.2432 15.589 15.7671 15.349 15.0595C15.333 15.0232 15.297 14.9997 15.2574 14.9997C15.2177 14.9997 15.1817 15.0232 15.1657 15.0595C14.9251 15.7672 14.2607 16.2431 13.5133 16.2432" stroke="#161924" stroke-width="1.5" stroke-linecap="round" stroke-linejoin="round"/>
</svg>
