<svg width="24" height="24" viewBox="0 0 24 24" fill="none" xmlns="http://www.w3.org/2000/svg">
<path d="M12 16.5V14.5" stroke="#161924" stroke-width="1.5" stroke-linecap="round" stroke-linejoin="round"/>
<path d="M7 16.5H17" stroke="#161924" stroke-width="1.5" stroke-linecap="round" stroke-linejoin="round"/>
<path fill-rule="evenodd" clip-rule="evenodd" d="M4.219 17.4505C1.39229 13.416 2.11853 7.89012 5.89171 4.72304C9.66488 1.55596 15.233 1.79858 18.7164 5.28184C22.1998 8.7651 22.4427 14.3332 19.2758 18.1065C16.1088 21.8798 10.583 22.6063 6.5484 19.7798L3.5535 20.4452L4.219 17.4505Z" stroke="#161924" stroke-width="1.5" stroke-linecap="round" stroke-linejoin="round"/>
<path d="M16 16.5V11.3657" stroke="#161924" stroke-width="1.5" stroke-linecap="round" stroke-linejoin="round"/>
<path d="M8 16.5V11.3655" stroke="#161924" stroke-width="1.5" stroke-linecap="round" stroke-linejoin="round"/>
<path d="M8.64521 11.4996C9.13622 11.4994 9.60091 11.2776 9.90987 10.896C9.9964 10.7503 10.1533 10.661 10.3227 10.661C10.4922 10.661 10.6491 10.7503 10.7356 10.896C11.0444 11.2778 11.5092 11.4996 12.0003 11.4996C12.4913 11.4996 12.9561 11.2778 13.2649 10.896C13.3514 10.7503 13.5083 10.661 13.6778 10.661C13.8472 10.661 14.0041 10.7503 14.0906 10.896C14.3996 11.2776 14.8643 11.4994 15.3553 11.4996C16.1161 11.4941 16.7758 10.9723 16.9564 10.2333C17.0426 9.86611 16.9903 9.48005 16.8095 9.14905L16.3929 8.32428C16.1376 7.81876 15.6194 7.5 15.0531 7.5H8.94732C8.38136 7.5 7.86359 7.81855 7.60842 8.32372L7.19135 9.14942C7.01056 9.48042 6.95825 9.86648 7.04444 10.2336C7.22506 10.9727 7.8848 11.4945 8.64558 11.5" stroke="#161924" stroke-width="1.5" stroke-linecap="round" stroke-linejoin="round"/>
</svg>
