<svg width="24" height="24" viewBox="0 0 24 24" fill="none" xmlns="http://www.w3.org/2000/svg">
<path d="M21 20.0001L16 19.9999" stroke="#161924" stroke-width="1.5" stroke-linecap="round" stroke-linejoin="round"/>
<path d="M19.7803 20V9.98706" stroke="#161924" stroke-width="1.5" stroke-linecap="round" stroke-linejoin="round"/>
<path fill-rule="evenodd" clip-rule="evenodd" d="M4 16.9739V15.046C4 14.5034 4.21557 13.9829 4.59928 13.5992C4.98299 13.2155 5.50341 13 6.04605 13H7.97353C8.51614 13 9.03653 13.2155 9.42023 13.5992L12.4007 16.5793C13.1997 17.3782 13.1998 18.6736 12.4009 19.4727L10.4735 21.4006C10.0898 21.7843 9.56937 22 9.0267 22C8.48403 22 7.96358 21.7845 7.57983 21.4008L4.59935 18.4207C4.21559 18.037 4 17.5165 4 16.9739Z" stroke="#161924" stroke-width="1.5" stroke-linecap="round" stroke-linejoin="round"/>
<path d="M6.96469 15.9646C6.98423 15.9451 7.01587 15.9451 7.03538 15.9647C7.05488 15.9842 7.05487 16.0158 7.03536 16.0354C7.01584 16.0549 6.9842 16.0549 6.96467 16.0354C6.94514 16.0159 6.94511 15.9842 6.9646 15.9647L6.96469 15.9646" stroke="#161924" stroke-width="1.5" stroke-linecap="round" stroke-linejoin="round"/>
<path fill-rule="evenodd" clip-rule="evenodd" d="M2.27607 6.47765C1.98094 7.03345 1.92226 7.68473 2.11329 8.28433C2.44375 9.32453 3.41991 10.0228 4.51109 9.99943C5.60227 9.9761 6.54769 9.23678 6.83339 8.18341C6.8515 8.12223 6.90771 8.08025 6.97151 8.08025C7.03532 8.08025 7.09153 8.12223 7.10964 8.18341C7.40138 9.25558 8.37497 9.99958 9.48613 9.99946C10.5973 9.99934 11.5707 9.25514 11.8622 8.1829C11.8803 8.12169 11.9365 8.07968 12.0003 8.07968C12.0642 8.07968 12.1204 8.12169 12.1384 8.1829C12.4301 9.2551 13.4037 9.99918 14.5148 9.99914C15.626 9.9991 16.5995 9.25495 16.8911 8.18273C16.9092 8.12156 16.9654 8.0796 17.0292 8.0796C17.093 8.0796 17.1492 8.12156 17.1673 8.18273C17.4531 9.23599 18.3984 9.97521 19.4895 9.99858C20.5806 10.0219 21.5567 9.32387 21.8872 8.28381C22.0784 7.68412 22.0197 7.0327 21.7245 6.47681L20.0178 3.09822C19.6776 2.4247 18.9872 2 18.2326 2H5.76838C5.0138 2 4.32345 2.4247 3.98322 3.09822L2.27607 6.47765Z" stroke="#161924" stroke-width="1.5" stroke-linecap="round" stroke-linejoin="round"/>
</svg>
