<svg width="24" height="24" viewBox="0 0 24 24" fill="none" xmlns="http://www.w3.org/2000/svg">
<path d="M10.9994 20.9137H2.99609" stroke="#161924" stroke-width="1.5" stroke-linecap="round" stroke-linejoin="round"/>
<path d="M4.21701 10.7795V20.9138" stroke="#161924" stroke-width="1.5" stroke-linecap="round" stroke-linejoin="round"/>
<path fill-rule="evenodd" clip-rule="evenodd" d="M19.7036 10.7775C20.4724 10.806 21.2003 10.4311 21.6234 9.78853C22.0465 9.146 22.1034 8.32917 21.7735 7.63419L20.0558 4.25578C19.6431 3.47226 18.8264 2.98586 17.9409 2.99626H6.05993C5.17427 2.98617 4.3574 3.47243 3.94405 4.25578L2.22734 7.63419C1.8974 8.32917 1.95429 9.146 2.3774 9.78853C2.8005 10.4311 3.5284 10.806 4.2972 10.7775C5.60058 10.8793 6.74407 9.91541 6.86427 8.6136V8.56558C6.96969 9.88154 8.11425 10.8678 9.43134 10.7775C10.7492 10.8689 11.895 9.88238 12.0004 8.56558C12.1058 9.88154 13.2504 10.8678 14.5675 10.7775C15.8846 10.8678 17.0291 9.88154 17.1345 8.56558V8.6136C17.2558 9.91571 18.3998 10.8794 19.7036 10.7775V10.7775Z" stroke="#161924" stroke-width="1.5" stroke-linecap="round" stroke-linejoin="round"/>
<path d="M20.0039 13.0005L20.0199 10.7795" stroke="#161924" stroke-width="1.5" stroke-linecap="round" stroke-linejoin="round"/>
<path d="M21.0042 17.7924L19.9337 16.7219L18.8633 17.7924" stroke="#161924" stroke-width="1.5" stroke-linecap="round" stroke-linejoin="round"/>
<path d="M19.9336 16.7219V19.5761C19.9314 20.3648 19.2917 21.0032 18.503 21.0037H16.002" stroke="#161924" stroke-width="1.5" stroke-linecap="round" stroke-linejoin="round"/>
<path d="M13.001 18.2125L14.0714 19.283L15.1419 18.2125" stroke="#161924" stroke-width="1.5" stroke-linecap="round" stroke-linejoin="round"/>
<path d="M14.0713 19.283V16.4288C14.071 16.0496 14.2218 15.6859 14.4902 15.418C14.7586 15.1501 15.1227 15.0002 15.5019 15.0012H18.0029" stroke="#161924" stroke-width="1.5" stroke-linecap="round" stroke-linejoin="round"/>
</svg>
