<svg width="24" height="24" viewBox="0 0 24 24" fill="none" xmlns="http://www.w3.org/2000/svg">
<path d="M9.33226 6.58118L7.04086 8.8738L5.66406 7.49823" stroke="#161924" stroke-width="1.5" stroke-linecap="round" stroke-linejoin="round"/>
<path d="M12.7891 5.99749C12.0671 3.44802 9.63 1.77567 6.99148 2.01907C4.35295 2.26248 2.26297 4.35246 2.01956 6.99099C1.77615 9.62952 3.44851 12.0666 5.99797 12.7886" stroke="#161924" stroke-width="1.5" stroke-linecap="round" stroke-linejoin="round"/>
<path d="M16.0022 21.0038V18.6892" stroke="#161924" stroke-width="1.5" stroke-linecap="round" stroke-linejoin="round"/>
<path d="M9.99902 21.0037H22.004" stroke="#161924" stroke-width="1.5" stroke-linecap="round" stroke-linejoin="round"/>
<path d="M10.9992 14.7971V20.9999" stroke="#161924" stroke-width="1.5" stroke-linecap="round" stroke-linejoin="round"/>
<path d="M21.0002 20.9999V14.7982" stroke="#161924" stroke-width="1.5" stroke-linecap="round" stroke-linejoin="round"/>
<path fill-rule="evenodd" clip-rule="evenodd" d="M11.8448 15.0012V15.0012C11.2063 15.0012 10.6134 14.6708 10.2775 14.1278C9.94168 13.5848 9.9108 12.9067 10.1959 12.3354L10.8013 11.1225C11.1448 10.4341 11.8481 9.99915 12.6175 9.99915H19.3881C20.1539 9.99915 20.8546 10.4302 21.1999 11.1138L21.8066 12.315C22.0966 12.8889 22.0679 13.5722 21.731 14.1199C21.394 14.6676 20.7971 15.0012 20.154 15.0012V15.0012C19.2455 15.0006 18.4426 14.4101 18.1714 13.543C18.161 13.4991 18.1218 13.4681 18.0767 13.4681C18.0316 13.4681 17.9924 13.4991 17.982 13.543C17.7112 14.4104 16.9081 15.0011 15.9994 15.0011C15.0907 15.0011 14.2876 14.4104 14.0168 13.543C14.0064 13.4991 13.9672 13.4681 13.9221 13.4681C13.877 13.4681 13.8378 13.4991 13.8274 13.543C13.5562 14.4101 12.7533 15.0006 11.8448 15.0012Z" stroke="#161924" stroke-width="1.5" stroke-linecap="round" stroke-linejoin="round"/>
</svg>
