<svg width="24" height="24" viewBox="0 0 24 24" fill="none" xmlns="http://www.w3.org/2000/svg">
<path d="M18.9027 16.802L17.152 18.5537L16.1016 17.5023" stroke="#161924" stroke-width="1.5" stroke-linecap="round" stroke-linejoin="round"/>
<path fill-rule="evenodd" clip-rule="evenodd" d="M13.2492 18.2356L13.8495 19.018L13.9785 19.9914C14.0501 20.5315 14.4748 20.9567 15.015 21.0288L15.9914 21.1588L16.7727 21.7591C17.2053 22.0898 17.8057 22.0898 18.2383 21.7591L19.0206 21.1588V21.1588L19.995 21.0298C20.5352 20.9582 20.9604 20.5335 21.0325 19.9934L21.1625 19.017L21.7628 18.2356C22.093 17.8033 22.093 17.2034 21.7628 16.771L21.1625 15.9887L21.0335 15.0153C20.9619 14.4751 20.5371 14.0499 19.997 13.9779L19.0206 13.8478L18.2393 13.2476C17.8067 12.9168 17.2063 12.9168 16.7737 13.2476L15.9914 13.8478V13.8478L15.017 13.9769C14.4768 14.0484 14.0516 14.4732 13.9795 15.0133L13.8495 15.9897L13.2492 16.771C12.9169 17.2027 12.9169 17.804 13.2492 18.2356Z" stroke="#161924" stroke-width="1.5" stroke-linecap="round" stroke-linejoin="round"/>
<path d="M8.99859 21.0038H4.71081C3.76403 21.0032 2.99665 20.2359 2.99609 19.2891V16.0017" stroke="#161924" stroke-width="1.5" stroke-linecap="round" stroke-linejoin="round"/>
<path d="M16.002 3.9967H19.2893C20.2361 3.99726 21.0035 4.76464 21.004 5.71142V8.99879" stroke="#161924" stroke-width="1.5" stroke-linecap="round" stroke-linejoin="round"/>
<path d="M3.59689 6.14551V10.9995" stroke="#161924" stroke-width="1.5" stroke-linecap="round" stroke-linejoin="round"/>
<path d="M11.5158 7.99828V6.14551" stroke="#161924" stroke-width="1.5" stroke-linecap="round" stroke-linejoin="round"/>
<path fill-rule="evenodd" clip-rule="evenodd" d="M5.79786 4.99711H5.85489C6.06043 5.75732 6.76921 6.27055 7.55559 6.22863C8.34052 6.26861 9.04706 5.75578 9.2523 4.99711H9.30932C9.51043 5.7605 10.222 6.27616 11.01 6.22963C11.5267 6.24802 12.0155 5.99558 12.2997 5.56366C12.5838 5.13175 12.6221 4.58291 12.4006 4.11575L11.7413 2.8152C11.4844 2.31098 10.9657 1.99417 10.3998 1.99586H4.6974C4.13213 1.99568 3.61472 2.31317 3.35885 2.81721L2.70057 4.11775C2.47937 4.58559 2.51868 5.13501 2.80423 5.5666C3.08977 5.9982 3.58006 6.24924 4.09715 6.22863C4.88469 6.27447 5.59568 5.75963 5.79786 4.99711Z" stroke="#161924" stroke-width="1.5" stroke-linecap="round" stroke-linejoin="round"/>
<path d="M11.5158 10.9995V6.14551" stroke="#161924" stroke-width="1.5" stroke-linecap="round" stroke-linejoin="round"/>
<path d="M7.55392 10.9996V8.99878" stroke="#161924" stroke-width="1.5" stroke-linecap="round" stroke-linejoin="round"/>
<path d="M2.99609 10.9996H12.1119" stroke="#161924" stroke-width="1.5" stroke-linecap="round" stroke-linejoin="round"/>
</svg>
