<svg width="24" height="24" viewBox="0 0 24 24" fill="none" xmlns="http://www.w3.org/2000/svg">
<path d="M7.99818 21.0038H4.71081C3.76403 21.0032 2.99665 20.2359 2.99609 19.2891V16.0017" stroke="#161924" stroke-width="1.5" stroke-linecap="round" stroke-linejoin="round"/>
<path d="M16.002 3.9967H19.2893C20.2361 3.99726 21.0035 4.76464 21.004 5.71142V8.99879" stroke="#161924" stroke-width="1.5" stroke-linecap="round" stroke-linejoin="round"/>
<rect x="12" y="17.2522" width="3.00125" height="3.75156" stroke="#161924" stroke-width="1.5" stroke-linecap="round" stroke-linejoin="round"/>
<rect x="15.001" y="13.0004" width="3.00125" height="8.00333" stroke="#161924" stroke-width="1.5" stroke-linecap="round" stroke-linejoin="round"/>
<path d="M3.09689 7.17603V12" stroke="#161924" stroke-width="1.5" stroke-linecap="round" stroke-linejoin="round"/>
<path d="M11.0998 12V7.10596" stroke="#161924" stroke-width="1.5" stroke-linecap="round" stroke-linejoin="round"/>
<path d="M6.99826 12V9.99915" stroke="#161924" stroke-width="1.5" stroke-linecap="round" stroke-linejoin="round"/>
<path d="M2.59668 12H11.5604" stroke="#161924" stroke-width="1.5" stroke-linecap="round" stroke-linejoin="round"/>
<path d="M6.99805 7.23497C7.74453 7.23505 8.40805 6.75943 8.64773 6.05248C8.66373 6.01621 8.69963 5.9928 8.73927 5.9928C8.77891 5.9928 8.81482 6.01621 8.83081 6.05248C9.07113 6.7594 9.73485 7.23486 10.4815 7.23497" stroke="#161924" stroke-width="1.5" stroke-linecap="round" stroke-linejoin="round"/>
<path d="M3.51465 7.23497C4.2613 7.23486 4.92502 6.7594 5.16534 6.05248C5.18133 6.01621 5.21723 5.9928 5.25687 5.9928C5.29652 5.9928 5.33242 6.01621 5.34841 6.05248C5.58809 6.75943 6.25162 7.23505 6.9981 7.23497" stroke="#161924" stroke-width="1.5" stroke-linecap="round" stroke-linejoin="round"/>
<path d="M10.4815 7.23498C11.008 7.2341 11.4963 6.96046 11.772 6.51195C12.0476 6.06344 12.0711 5.50413 11.8341 5.03407L11.1748 3.73352C10.9444 3.28085 10.4793 2.99591 9.97133 2.99622H4.02485C3.51776 2.99723 3.05403 3.28242 2.82435 3.73452L2.16608 5.03507C1.92853 5.50492 1.95165 6.06435 2.22717 6.513C2.50268 6.96165 2.99115 7.23531 3.51764 7.23598V7.23598" stroke="#161924" stroke-width="1.5" stroke-linecap="round" stroke-linejoin="round"/>
<rect x="18.0029" y="15.2513" width="3.00125" height="5.7524" stroke="#161924" stroke-width="1.5" stroke-linecap="round" stroke-linejoin="round"/>
</svg>
