<svg width="24" height="24" viewBox="0 0 24 24" fill="none" xmlns="http://www.w3.org/2000/svg">
<path d="M14 19.91H21" stroke="#161924" stroke-width="1.5" stroke-linecap="round" stroke-linejoin="round"/>
<path d="M19.7803 9.78V19.91" stroke="#161924" stroke-width="1.5" stroke-linecap="round" stroke-linejoin="round"/>
<path fill-rule="evenodd" clip-rule="evenodd" d="M4.30059 9.778C2.60259 9.766 1.49559 8.085 2.23159 6.636L3.94759 3.259C4.33759 2.489 5.15959 2 6.06159 2H17.9376C18.8396 2 19.6616 2.489 20.0526 3.259L21.7686 6.636C22.5046 8.085 21.3976 9.766 19.6996 9.778C18.2826 9.778 17.1336 8.81 17.1336 7.615V7.567C17.1336 8.788 15.9846 9.778 14.5676 9.778C13.1486 9.778 11.9996 8.788 11.9996 7.567C11.9996 8.788 10.8506 9.778 9.43359 9.778C8.01659 9.778 6.86759 8.788 6.86759 7.567V7.615C6.86659 8.81 5.71759 9.778 4.30059 9.778Z" stroke="#161924" stroke-width="1.5" stroke-linecap="round" stroke-linejoin="round"/>
<path d="M7.90061 16.8L6.15061 18.55L5.09961 17.5" stroke="#161924" stroke-width="1.5" stroke-linecap="round" stroke-linejoin="round"/>
<path fill-rule="evenodd" clip-rule="evenodd" d="M2.24848 18.232L2.84648 19.014L2.97548 19.987C3.04748 20.527 3.47148 20.952 4.01148 21.024L4.98748 21.154L5.76848 21.751C6.20048 22.081 6.80048 22.082 7.23348 21.751L8.01548 21.154H8.01448L8.98848 21.025C9.52848 20.953 9.95348 20.529 10.0255 19.989L10.1555 19.013C10.1555 19.013 10.4575 18.618 10.7535 18.232C11.0835 17.8 11.0835 17.2 10.7535 16.768L10.1555 15.986L10.0265 15.013C9.95448 14.473 9.53048 14.048 8.99048 13.976L8.01448 13.846L7.23348 13.249C6.80148 12.919 6.20148 12.918 5.76848 13.249L4.98648 13.846H4.98748L4.01348 13.975C3.47348 14.047 3.04848 14.471 2.97648 15.011L2.84648 15.987C2.84648 15.987 2.54448 16.382 2.24848 16.768C1.91848 17.2 1.91848 17.8 2.24848 18.232V18.232Z" stroke="#161924" stroke-width="1.5" stroke-linecap="round" stroke-linejoin="round"/>
</svg>
