<svg width="24" height="24" viewBox="0 0 24 24" fill="none" xmlns="http://www.w3.org/2000/svg">
<path fill-rule="evenodd" clip-rule="evenodd" d="M18.0026 22.0042C20.2127 22.0042 22.0043 20.2126 22.0043 18.0025C22.0043 15.7925 20.2127 14.0009 18.0026 14.0009C15.7926 14.0009 14.001 15.7925 14.001 18.0025C14.001 20.2126 15.7926 22.0042 18.0026 22.0042Z" stroke="#161924" stroke-width="1.5" stroke-linecap="round" stroke-linejoin="round"/>
<path d="M19.3483 17.2102L17.6676 18.8899L16.6572 17.8825" stroke="#161924" stroke-width="1.5" stroke-linecap="round" stroke-linejoin="round"/>
<path d="M14.3203 19.5841C10.5503 20.8991 6.37201 19.4331 4.25024 16.0508C2.12846 12.6686 2.6269 8.26862 5.4515 5.44671C8.27609 2.6248 12.6765 2.13055 16.0567 4.25554C19.437 6.38053 20.899 10.5603 19.5805 14.3289" stroke="#161924" stroke-width="1.5" stroke-linecap="round" stroke-linejoin="round"/>
<path d="M11.4719 15.0733V13.4727" stroke="#161924" stroke-width="1.5" stroke-linecap="round" stroke-linejoin="round"/>
<path fill-rule="evenodd" clip-rule="evenodd" d="M10.07 10.2712H10.1151C10.2791 10.8784 10.8445 11.2888 11.4726 11.2567C12.1007 11.2888 12.6661 10.8784 12.8302 10.2712H12.8752C13.036 10.8816 13.6046 11.2942 14.2348 11.2577C14.6486 11.2736 15.0406 11.0721 15.2685 10.7264C15.4964 10.3806 15.527 9.94094 15.3492 9.56695L14.822 8.52751C14.6173 8.12401 14.2031 7.86991 13.7506 7.87024H9.19268C8.74057 7.87028 8.32682 8.12433 8.12223 8.52751L7.59802 9.56595C7.42024 9.93994 7.45086 10.3796 7.67876 10.7254C7.90666 11.0711 8.29869 11.2726 8.71248 11.2567C9.3415 11.2919 9.90867 10.8802 10.07 10.2712Z" stroke="#161924" stroke-width="1.5" stroke-linecap="round" stroke-linejoin="round"/>
<path d="M7.8252 15.0733H11.9179" stroke="#161924" stroke-width="1.5" stroke-linecap="round" stroke-linejoin="round"/>
<path d="M8.29904 11.1907V15.0733" stroke="#161924" stroke-width="1.5" stroke-linecap="round" stroke-linejoin="round"/>
<path d="M14.6408 12.6723V11.1907" stroke="#161924" stroke-width="1.5" stroke-linecap="round" stroke-linejoin="round"/>
</svg>
