<svg width="24" height="24" viewBox="0 0 24 24" fill="none" xmlns="http://www.w3.org/2000/svg">
<path d="M15.0015 8.62354V8.99869C15.0015 10.6562 13.6578 11.9999 12.0003 11.9999V11.9999C10.3427 11.9999 8.99902 10.6562 8.99902 8.99869V8.62354" stroke="#161924" stroke-width="1.5" stroke-linecap="round" stroke-linejoin="round"/>
<path d="M15.0011 8.62356V8.99872C15.0011 10.6563 16.3448 12 18.0023 12H18.2507C19.7711 12 21.0036 10.7674 21.0036 9.24704V9.24704C21.0036 8.83907 20.8927 8.43878 20.6828 8.08895L18.2829 4.08905C17.8761 3.41106 17.1434 2.99622 16.3527 2.99622H7.64696C6.85629 2.99622 6.12359 3.41106 5.7168 4.08905L3.31687 8.08894C3.10697 8.43877 2.99609 8.83906 2.99609 9.24703V9.24703C2.99609 10.7674 4.22862 12 5.74902 12H5.99734C7.65489 12 8.99859 10.6563 8.99859 8.99872V8.62356" stroke="#161924" stroke-width="1.5" stroke-linecap="round" stroke-linejoin="round"/>
<path d="M19.8786 11.4643V18.7528C19.8786 19.9959 18.8709 21.0037 17.6277 21.0037H6.37301C5.12985 21.0037 4.12207 19.9959 4.12207 18.7528V11.4641" stroke="#161924" stroke-width="1.5" stroke-linecap="round" stroke-linejoin="round"/>
<path d="M13.6879 16.8458H10.3115" stroke="#161924" stroke-width="1.5" stroke-linecap="round" stroke-linejoin="round"/>
</svg>
