<svg width="24" height="24" viewBox="0 0 24 24" fill="none" xmlns="http://www.w3.org/2000/svg">
<path d="M14.001 19.9133H21.0039" stroke="#161924" stroke-width="1.5" stroke-linecap="round" stroke-linejoin="round"/>
<path d="M19.7834 9.77905V19.9133" stroke="#161924" stroke-width="1.5" stroke-linecap="round" stroke-linejoin="round"/>
<path d="M13.001 13.0004H16.0022V16.0016H14.0014" stroke="#161924" stroke-width="1.5" stroke-linecap="round" stroke-linejoin="round"/>
<path fill-rule="evenodd" clip-rule="evenodd" d="M4.29716 9.77701C3.52853 9.80518 2.80096 9.43006 2.3781 8.7876C1.95525 8.14513 1.89845 7.32852 2.2283 6.6337L3.94501 3.25529C4.35768 2.47177 5.1744 1.98537 6.05989 1.99577H17.9408C18.8265 1.98569 19.6434 2.47194 20.0567 3.25529L21.7734 6.6337C22.1034 7.32869 22.0465 8.14551 21.6234 8.78804C21.2003 9.43057 20.4724 9.80554 19.7036 9.77701C18.4002 9.87882 17.2567 8.91492 17.1365 7.61311V7.56509C17.0311 8.88105 15.8865 9.86726 14.5694 9.77701C13.2516 9.86841 12.1058 8.88189 12.0004 7.56509C11.8949 8.88105 10.7504 9.86726 9.4333 9.77701C8.1162 9.86726 6.97165 8.88105 6.86623 7.56509V7.61311C6.745 8.91522 5.60093 9.87886 4.29716 9.77701Z" stroke="#161924" stroke-width="1.5" stroke-linecap="round" stroke-linejoin="round"/>
<path d="M6.49797 13.0004C8.98429 13.0004 10.9998 15.0159 10.9998 17.5022C10.9998 19.9886 8.98429 22.0041 6.49797 22.0041C4.01165 22.0041 1.99609 19.9886 1.99609 17.5022C1.99609 15.0159 4.01165 13.0004 6.49797 13.0004" stroke="#161924" stroke-width="1.5" stroke-linecap="round" stroke-linejoin="round"/>
<path d="M7.71993 17.4523C7.69231 17.4523 7.66991 17.4747 7.66991 17.5023C7.66991 17.5299 7.69231 17.5523 7.71993 17.5523C7.74756 17.5523 7.76996 17.5299 7.76996 17.5023C7.76996 17.4747 7.74756 17.4523 7.71993 17.4523" stroke="#161924" stroke-width="1.5" stroke-linecap="round" stroke-linejoin="round"/>
<path d="M5.2746 17.4523C5.24752 17.4523 5.22558 17.4742 5.22558 17.5013V17.5013C5.22558 17.5215 5.23776 17.5398 5.25646 17.5475C5.27515 17.5553 5.29666 17.551 5.31097 17.5367C5.32527 17.5224 5.32955 17.5009 5.32181 17.4822C5.31407 17.4635 5.29583 17.4513 5.2756 17.4513" stroke="#161924" stroke-width="1.5" stroke-linecap="round" stroke-linejoin="round"/>
</svg>
