<svg width="24" height="24" viewBox="0 0 24 24" fill="none" xmlns="http://www.w3.org/2000/svg">
<path d="M19.0028 8.99872V4.99705C19.0028 3.89202 18.107 2.99622 17.0019 2.99622H4.99693C3.8919 2.99622 2.99609 3.89202 2.99609 4.99705V19.0029C2.99609 20.1079 3.8919 21.0037 4.99693 21.0037H8.99859" stroke="#161924" stroke-width="1.5" stroke-linecap="round" stroke-linejoin="round"/>
<path d="M13.0002 16.1508V21.0037" stroke="#161924" stroke-width="1.5" stroke-linecap="round" stroke-linejoin="round"/>
<path d="M21.0041 21.0037V16.1508" stroke="#161924" stroke-width="1.5" stroke-linecap="round" stroke-linejoin="round"/>
<path d="M17.0022 21.0038V19.0029" stroke="#161924" stroke-width="1.5" stroke-linecap="round" stroke-linejoin="round"/>
<path d="M12.5205 21.0037H21.4842" stroke="#161924" stroke-width="1.5" stroke-linecap="round" stroke-linejoin="round"/>
<path d="M13.5163 16.2442V16.2442C12.9893 16.2436 12.5003 15.9696 12.2245 15.5205C11.9487 15.0714 11.9255 14.5113 12.1633 14.041L12.8223 12.7391C13.0522 12.2865 13.5164 12.001 14.024 12H19.9768C20.4853 11.9997 20.9509 12.2849 21.1816 12.7381L21.8405 14.04C22.0783 14.5103 22.0552 15.0704 21.7794 15.5195C21.5036 15.9686 21.0146 16.2426 20.4875 16.2432C19.74 16.2434 19.0754 15.7673 18.8351 15.0595C18.8191 15.0232 18.7832 14.9997 18.7435 14.9997C18.7038 14.9997 18.6678 15.0232 18.6518 15.0595C18.4118 15.7671 17.7477 16.2432 17.0004 16.2432C16.2532 16.2432 15.589 15.7671 15.349 15.0595C15.333 15.0232 15.297 14.9997 15.2574 14.9997C15.2177 14.9997 15.1817 15.0232 15.1657 15.0595C14.9251 15.7672 14.2607 16.2431 13.5133 16.2432" stroke="#161924" stroke-width="1.5" stroke-linecap="round" stroke-linejoin="round"/>
<path d="M8.99902 10.9996L10.4996 10.9995" stroke="#161924" stroke-width="1.5" stroke-linecap="round" stroke-linejoin="round"/>
<path d="M8.99902 6.99789H15.0015" stroke="#161924" stroke-width="1.5" stroke-linecap="round" stroke-linejoin="round"/>
<path d="M5.99728 15.1262C6.06634 15.1262 6.12233 15.0702 6.12233 15.0012C6.12233 14.9321 6.06634 14.8761 5.99728 14.8761C5.92821 14.8761 5.87223 14.9321 5.87223 15.0012C5.87223 15.0702 5.92821 15.1262 5.99728 15.1262" stroke="#161924" stroke-width="1.5" stroke-linecap="round" stroke-linejoin="round"/>
<path d="M8.99913 15.0012H9.49934" stroke="#161924" stroke-width="1.5" stroke-linecap="round" stroke-linejoin="round"/>
<path d="M5.99728 11.1247C6.06634 11.1247 6.12233 11.0687 6.12233 10.9996C6.12233 10.9305 6.06634 10.8745 5.99728 10.8745C5.92821 10.8745 5.87223 10.9305 5.87223 10.9996C5.87223 11.0687 5.92821 11.1247 5.99728 11.1247" stroke="#161924" stroke-width="1.5" stroke-linecap="round" stroke-linejoin="round"/>
<path d="M5.99728 7.12294C6.06634 7.12294 6.12233 7.06695 6.12233 6.99789C6.12233 6.92882 6.06634 6.87284 5.99728 6.87284C5.92821 6.87284 5.87223 6.92882 5.87223 6.99789C5.87223 7.06695 5.92821 7.12294 5.99728 7.12294" stroke="#161924" stroke-width="1.5" stroke-linecap="round" stroke-linejoin="round"/>
</svg>
