<svg width="24" height="24" viewBox="0 0 24 24" fill="none" xmlns="http://www.w3.org/2000/svg">
<path d="M14.001 19.9133H21.0039" stroke="#161924" stroke-width="1.5" stroke-linecap="round" stroke-linejoin="round"/>
<path d="M19.7834 9.77905V19.9133" stroke="#161924" stroke-width="1.5" stroke-linecap="round" stroke-linejoin="round"/>
<path d="M13.001 13.0004H16.0022V16.0016H14.0014" stroke="#161924" stroke-width="1.5" stroke-linecap="round" stroke-linejoin="round"/>
<path d="M14.5839 9.78326C13.1569 9.78326 12.0001 8.62646 12.0001 7.19947C12.0001 8.62673 10.843 9.78376 9.41577 9.78376C7.9885 9.78376 6.83147 8.62673 6.83147 7.19947C6.82938 8.62494 5.67315 9.77938 4.24767 9.77926V9.77926C3.46478 9.77926 2.73809 9.3726 2.32862 8.70533C1.91914 8.03806 1.88568 7.20599 2.24024 6.50799L3.97645 3.09057C4.31775 2.41892 5.00732 1.99585 5.7607 1.99585H18.2394C18.9928 1.99585 19.6824 2.41895 20.0236 3.09061L21.7599 6.50803C22.1144 7.20602 22.0809 8.03808 21.6715 8.70535C21.262 9.37261 20.5353 9.77929 19.7525 9.7793V9.7793V9.7833V9.7833C19.0672 9.78331 18.41 9.51108 17.9254 9.02652C17.4409 8.54195 17.1686 7.88474 17.1687 7.19947C17.1664 8.62528 16.0097 9.77981 14.5839 9.77926" stroke="#161924" stroke-width="1.5" stroke-linecap="round" stroke-linejoin="round"/>
<path fill-rule="evenodd" clip-rule="evenodd" d="M1.99609 15.5015V19.0029C1.99609 19.9698 2.77995 20.7536 3.74682 20.7536H9.24911C10.216 20.7536 10.9998 19.9698 10.9998 19.0029V15.5015C10.9998 14.5346 10.216 13.7508 9.24911 13.7507H3.74682C2.77995 13.7508 1.99609 14.5346 1.99609 15.5015V15.5015Z" stroke="#161924" stroke-width="1.5" stroke-linecap="round" stroke-linejoin="round"/>
<path d="M10.9998 16.8631H1.99609" stroke="#161924" stroke-width="1.5" stroke-linecap="round" stroke-linejoin="round"/>
</svg>
