<svg width="24" height="24" viewBox="0 0 24 24" fill="none" xmlns="http://www.w3.org/2000/svg">
<path d="M3.99707 14.0009V18.1693C3.99707 19.1362 4.7809 19.92 5.7478 19.92H9.91621L12.0004 22.0042L14.0846 19.92H18.253C19.2199 19.92 20.0037 19.1362 20.0037 18.1693V14.0009" stroke="#161924" stroke-width="1.5" stroke-linecap="round" stroke-linejoin="round"/>
<path d="M8.49902 15.7516H15.5019" stroke="#161924" stroke-width="1.5" stroke-linecap="round" stroke-linejoin="round"/>
<path fill-rule="evenodd" clip-rule="evenodd" d="M21.7289 7.47573C22.0241 8.03177 22.0828 8.68332 21.8917 9.28316C21.5611 10.3238 20.5845 11.0223 19.4929 10.999C18.4012 10.9756 17.4554 10.236 17.1696 9.1822C17.1515 9.12099 17.0953 9.079 17.0314 9.079C16.9676 9.079 16.9114 9.12099 16.8932 9.1822C16.6014 10.2548 15.6274 10.9991 14.5158 10.9989C13.4042 10.9988 12.4304 10.2543 12.1387 9.18169C12.1206 9.12046 12.0644 9.07843 12.0005 9.07843C11.9367 9.07843 11.8805 9.12046 11.8624 9.18169C11.5706 10.2543 10.5966 10.9987 9.48502 10.9987C8.37339 10.9986 7.39948 10.2542 7.10778 9.18152C7.08964 9.12033 7.03341 9.07835 6.96959 9.07835C6.90576 9.07835 6.84954 9.12033 6.8314 9.18152C6.54554 10.2352 5.59981 10.9748 4.50828 10.9981C3.41674 11.0215 2.44022 10.3231 2.10951 9.28264C1.9183 8.68271 1.97698 8.03102 2.2723 7.47489L3.97973 4.09489C4.32011 3.42109 5.01074 2.99622 5.76564 2.99622H18.2351C18.99 2.99622 19.6807 3.42109 20.021 4.09489L21.7289 7.47573Z" stroke="#161924" stroke-width="1.5" stroke-linecap="round" stroke-linejoin="round"/>
</svg>
