<svg width="24" height="24" viewBox="0 0 24 24" fill="none" xmlns="http://www.w3.org/2000/svg">
<path d="M12.79 5.99895C12.068 3.44948 9.63098 1.77713 6.99245 2.02054C4.35393 2.26395 2.26395 4.35393 2.02054 6.99245C1.77713 9.63098 3.44948 12.068 5.99895 12.79" stroke="#161924" stroke-width="1.5" stroke-linecap="round" stroke-linejoin="round"/>
<path d="M16.0031 21.0038V18.6896" stroke="#161924" stroke-width="1.5" stroke-linecap="round" stroke-linejoin="round"/>
<path d="M21.0002 21.0038V14.7371" stroke="#161924" stroke-width="1.5" stroke-linecap="round" stroke-linejoin="round"/>
<path d="M7.13184 5.07617V7.86733H9.4488" stroke="#161924" stroke-width="1.5" stroke-linecap="round" stroke-linejoin="round"/>
<path d="M10.001 21.0037H22.0042" stroke="#161924" stroke-width="1.5" stroke-linecap="round" stroke-linejoin="round"/>
<path fill-rule="evenodd" clip-rule="evenodd" d="M12.5472 9.99915C14.3908 9.99926 17.3411 9.99934 19.4566 9.99936C20.2049 9.99949 20.8893 10.4215 21.2253 11.0902L21.7755 12.1794C21.9926 12.5768 22.0554 13.0402 21.9519 13.481C21.7486 14.3446 20.9936 14.9661 20.1071 14.9998C19.2205 15.0335 18.4206 14.4712 18.1522 13.6256C18.1312 13.5684 18.0767 13.5305 18.0159 13.5305C17.955 13.5305 17.9006 13.5684 17.8795 13.6256C17.6206 14.4443 16.8609 15.0008 16.0021 15.0007C15.1434 15.0007 14.3838 14.444 14.125 13.6252C14.1039 13.5681 14.0495 13.5302 13.9886 13.5302C13.9278 13.5302 13.8734 13.5681 13.8523 13.6252C13.5839 14.4709 12.7839 15.0332 11.8974 14.9995C11.0108 14.9657 10.2559 14.3442 10.0526 13.4806C9.9491 13.0398 10.0119 12.5763 10.2289 12.179L10.7793 11.0895C11.1151 10.4211 11.7992 9.99925 12.5472 9.99915V9.99915Z" stroke="#161924" stroke-width="1.5" stroke-linecap="round" stroke-linejoin="round"/>
<path d="M10.9992 21.0038V14.7371" stroke="#161924" stroke-width="1.5" stroke-linecap="round" stroke-linejoin="round"/>
</svg>
