<svg width="24" height="24" viewBox="0 0 24 24" fill="none" xmlns="http://www.w3.org/2000/svg">
<path d="M11 13H8V16H10" stroke="#161924" stroke-width="1.5" stroke-linecap="round" stroke-linejoin="round"/>
<path d="M3 20.0001L10 19.9999" stroke="#161924" stroke-width="1.5" stroke-linecap="round" stroke-linejoin="round"/>
<path d="M4.21973 20V9.98706" stroke="#161924" stroke-width="1.5" stroke-linecap="round" stroke-linejoin="round"/>
<path fill-rule="evenodd" clip-rule="evenodd" d="M21.7246 6.47765C22.0197 7.03345 22.0783 7.68474 21.8873 8.28433C21.5568 9.32453 20.5807 10.0228 19.4895 9.99943C18.3983 9.9761 17.4529 9.23678 17.1672 8.18341C17.1491 8.12223 17.0929 8.08025 17.0291 8.08025C16.9653 8.08025 16.9091 8.12223 16.8909 8.18341C16.5992 9.25555 15.6256 9.99951 14.5145 9.99939C13.4033 9.99927 12.4299 9.2551 12.1384 8.1829C12.1203 8.12169 12.0641 8.07968 12.0003 8.07968C11.9365 8.07968 11.8803 8.12169 11.8622 8.1829C11.5705 9.2551 10.597 9.99918 9.4858 9.99914C8.37464 9.9991 7.40114 9.25495 7.10955 8.18273C7.09142 8.12156 7.03522 8.0796 6.97142 8.0796C6.90763 8.0796 6.85142 8.12156 6.83329 8.18273C6.54756 9.23599 5.60222 9.97521 4.51114 9.99858C3.42006 10.0219 2.44394 9.32387 2.11337 8.28381C1.92224 7.68412 1.9809 7.0327 2.27609 6.47681L3.98281 3.09822C4.32305 2.4247 5.01339 2 5.76797 2H18.2323C18.9869 2 19.6772 2.4247 20.0174 3.09822L21.7246 6.47765Z" stroke="#161924" stroke-width="1.5" stroke-linecap="round" stroke-linejoin="round"/>
<path d="M18.5 16.45C18.4724 16.45 18.45 16.4724 18.45 16.5C18.45 16.5276 18.4724 16.55 18.5 16.55C18.5276 16.55 18.55 16.5276 18.55 16.5C18.55 16.4724 18.5276 16.45 18.5 16.45V16.45" stroke="#161924" stroke-width="1.5" stroke-linecap="round" stroke-linejoin="round"/>
<path d="M15.1976 17.615L13.2922 19.5243C13.1051 19.7118 13 19.9658 13 20.2306V21C13 21.5523 13.4477 22 14 22H14.7711C15.0367 22 15.2914 21.8944 15.479 21.7064L17.3814 19.8001" stroke="#161924" stroke-width="1.5" stroke-linecap="round" stroke-linejoin="round"/>
<path d="M15.1985 17.6158C15.0715 17.2573 15.0045 16.8803 15 16.5C15 15.0844 15.8527 13.8081 17.1606 13.2664C18.4685 12.7247 19.9739 13.0241 20.9749 14.0251C21.9759 15.0261 22.2753 16.5315 21.7336 17.8394C21.1918 19.1472 19.9156 20 18.5 20C18.119 19.9955 17.7413 19.9282 17.3821 19.8008" stroke="#161924" stroke-width="1.5" stroke-linecap="round" stroke-linejoin="round"/>
</svg>
