<svg width="24" height="24" viewBox="0 0 24 24" fill="none" xmlns="http://www.w3.org/2000/svg">
<path d="M21.0033 21.0038L19.0225 19.0229" stroke="#161924" stroke-width="1.5" stroke-linecap="round" stroke-linejoin="round"/>
<path d="M15.8359 11.3337C18.3219 11.3337 20.3377 13.3496 20.3377 15.8356C20.3377 18.2696 18.2699 20.3385 15.8359 20.3375C13.3498 20.3375 11.334 18.3217 11.334 15.8356C11.334 13.3496 13.3498 11.3337 15.8359 11.3337" stroke="#161924" stroke-width="1.5" stroke-linecap="round" stroke-linejoin="round"/>
<path d="M17.5864 14.9602L15.3975 17.1491L14.084 15.8356" stroke="#161924" stroke-width="1.5" stroke-linecap="round" stroke-linejoin="round"/>
<path d="M2.99609 16.0016V18.0024C2.99609 19.1079 3.89147 20.0033 4.99693 20.0033H8.99859" stroke="#161924" stroke-width="1.5" stroke-linecap="round" stroke-linejoin="round"/>
<path d="M21.0035 9.99913V4.99705C21.0035 3.89159 20.1081 2.99622 19.0026 2.99622H15.001" stroke="#161924" stroke-width="1.5" stroke-linecap="round" stroke-linejoin="round"/>
<path d="M6.99826 12V9.99915" stroke="#161924" stroke-width="1.5" stroke-linecap="round" stroke-linejoin="round"/>
<path fill-rule="evenodd" clip-rule="evenodd" d="M5.24514 5.99747H5.30217C5.44323 6.69676 6.14652 7.22898 6.99887 7.22898C7.85123 7.22898 8.55452 6.69676 8.69558 5.99747H8.7526C8.88066 6.69476 9.58995 7.22998 10.4523 7.22998C11.5948 7.22198 12.3401 6.0905 11.8449 5.1161L11.1856 3.81756C10.9285 3.31335 10.4113 2.99622 9.84706 2.99622H4.14869C3.58345 2.99622 3.06624 3.31335 2.81113 3.81756L2.15186 5.1151C1.65665 6.0905 2.40196 7.22098 3.54444 7.22898C4.40579 7.22998 5.11509 6.69476 5.24514 5.99747Z" stroke="#161924" stroke-width="1.5" stroke-linecap="round" stroke-linejoin="round"/>
<path d="M2.44043 12H8.99916" stroke="#161924" stroke-width="1.5" stroke-linecap="round" stroke-linejoin="round"/>
<path d="M3.03634 7.146V12" stroke="#161924" stroke-width="1.5" stroke-linecap="round" stroke-linejoin="round"/>
<path d="M10.9592 8.99877V7.146" stroke="#161924" stroke-width="1.5" stroke-linecap="round" stroke-linejoin="round"/>
</svg>
