<svg width="24" height="24" viewBox="0 0 24 24" fill="none" xmlns="http://www.w3.org/2000/svg">
<path d="M8.03829 11.6478V16.5018" stroke="#161924" stroke-width="1.5" stroke-linecap="round" stroke-linejoin="round"/>
<path d="M15.9611 13.5006V11.6478" stroke="#161924" stroke-width="1.5" stroke-linecap="round" stroke-linejoin="round"/>
<path fill-rule="evenodd" clip-rule="evenodd" d="M10.2471 10.4993H10.3041C10.4452 11.1986 11.1485 11.7308 12.0008 11.7308C12.8532 11.7308 13.5565 11.1986 13.6975 10.4993H13.7546C13.8826 11.1966 14.5919 11.7318 15.4543 11.7318C16.5967 11.7238 17.3421 10.5923 16.8468 9.61793L16.1876 8.31939C15.9305 7.81518 15.4132 7.49805 14.849 7.49805H9.15064C8.5854 7.49805 8.06819 7.81518 7.81208 8.31939L7.15381 9.61693C6.6586 10.5923 7.40391 11.7228 8.54639 11.7308C9.40775 11.7318 10.117 11.1966 10.2471 10.4993Z" stroke="#161924" stroke-width="1.5" stroke-linecap="round" stroke-linejoin="round"/>
<path d="M15.9611 16.5018V11.6478" stroke="#161924" stroke-width="1.5" stroke-linecap="round" stroke-linejoin="round"/>
<path d="M12.0002 16.5018V14.501" stroke="#161924" stroke-width="1.5" stroke-linecap="round" stroke-linejoin="round"/>
<path d="M7.44238 16.5018H16.5582" stroke="#161924" stroke-width="1.5" stroke-linecap="round" stroke-linejoin="round"/>
<path fill-rule="evenodd" clip-rule="evenodd" d="M11.9998 21.0037C16.9725 21.0037 21.0036 16.9726 21.0036 12C21.0036 7.02733 16.9725 2.99622 11.9998 2.99622C7.02721 2.99622 2.99609 7.02733 2.99609 12C2.99609 16.9726 7.02721 21.0037 11.9998 21.0037Z" stroke="#161924" stroke-width="1.5" stroke-linecap="round" stroke-linejoin="round"/>
</svg>
