<svg width="24" height="24" viewBox="0 0 24 24" fill="none" xmlns="http://www.w3.org/2000/svg">
<path d="M10 20.91H3" stroke="#161924" stroke-width="1.5" stroke-linecap="round" stroke-linejoin="round"/>
<path d="M18.8535 15.006C20.3365 16.489 20.1765 18.99 18.3755 20.255C17.2295 21.059 15.6285 21.059 14.4825 20.255C12.6805 18.991 12.5215 16.489 14.0045 15.006C15.3445 13.667 17.5155 13.667 18.8535 15.006" stroke="#161924" stroke-width="1.5" stroke-linecap="round" stroke-linejoin="round"/>
<path d="M20.9996 22L18.8516 19.852" stroke="#161924" stroke-width="1.5" stroke-linecap="round" stroke-linejoin="round"/>
<path d="M4.21973 10.78V20.91" stroke="#161924" stroke-width="1.5" stroke-linecap="round" stroke-linejoin="round"/>
<path fill-rule="evenodd" clip-rule="evenodd" d="M19.6986 10.778C21.3966 10.766 22.5036 9.085 21.7676 7.636L20.0516 4.259C19.6616 3.489 18.8396 3 17.9376 3H6.06161C5.15961 3 4.33761 3.489 3.94661 4.259L2.23061 7.636C1.49461 9.085 2.60161 10.766 4.29961 10.778C5.71661 10.778 6.86561 9.81 6.86561 8.615V8.567C6.86561 9.788 8.01461 10.778 9.43161 10.778C10.8506 10.778 11.9996 9.788 11.9996 8.567C11.9996 9.788 13.1486 10.778 14.5656 10.778C15.9826 10.778 17.1316 9.788 17.1316 8.567V8.615C17.1326 9.81 18.2816 10.778 19.6986 10.778V10.778Z" stroke="#161924" stroke-width="1.5" stroke-linecap="round" stroke-linejoin="round"/>
</svg>
