<svg width="24" height="24" viewBox="0 0 24 24" fill="none" xmlns="http://www.w3.org/2000/svg">
<path d="M7.49805 3.49646L8.99867 4.99708L7.49805 6.49771" stroke="#161924" stroke-width="1.5" stroke-linecap="round" stroke-linejoin="round"/>
<path d="M8.99915 4.99707H6.99832C6.20239 4.99702 5.43904 5.31315 4.87619 5.87593C4.31335 6.4387 3.99712 7.20201 3.99707 7.99794V7.99832" stroke="#161924" stroke-width="1.5" stroke-linecap="round" stroke-linejoin="round"/>
<path d="M17.5026 20.5032L16.002 19.0026L17.5026 17.502" stroke="#161924" stroke-width="1.5" stroke-linecap="round" stroke-linejoin="round"/>
<path d="M16.002 19.0025H18.0028C18.7987 19.0025 19.5621 18.6864 20.1249 18.1236C20.6878 17.5608 21.004 16.7975 21.004 16.0016V16.0012" stroke="#161924" stroke-width="1.5" stroke-linecap="round" stroke-linejoin="round"/>
<path d="M3.9963 16.1508V21.0037" stroke="#161924" stroke-width="1.5" stroke-linecap="round" stroke-linejoin="round"/>
<path d="M12.0002 21.0037V16.1508" stroke="#161924" stroke-width="1.5" stroke-linecap="round" stroke-linejoin="round"/>
<path d="M7.99826 21.0038V19.0029" stroke="#161924" stroke-width="1.5" stroke-linecap="round" stroke-linejoin="round"/>
<path d="M3.5166 21.0037H12.4803" stroke="#161924" stroke-width="1.5" stroke-linecap="round" stroke-linejoin="round"/>
<path d="M4.51337 16.2442V16.2442C3.98633 16.2436 3.49734 15.9696 3.22154 15.5205C2.94574 15.0714 2.92259 14.5113 3.16039 14.041L3.81935 12.7391C4.04927 12.2865 4.51349 12.001 5.02111 12H10.9739C11.4823 11.9997 11.9479 12.2849 12.1786 12.7381L12.8376 14.04C13.0754 14.5103 13.0522 15.0704 12.7764 15.5195C12.5006 15.9686 12.0116 16.2426 11.4846 16.2432C10.7371 16.2434 10.0725 15.7673 9.83218 15.0595C9.81617 15.0232 9.78023 14.9997 9.74055 14.9997C9.70086 14.9997 9.66492 15.0232 9.64891 15.0595C9.40892 15.7671 8.74473 16.2432 7.99748 16.2432C7.25024 16.2432 6.58605 15.7671 6.34606 15.0595C6.33005 15.0232 6.29411 14.9997 6.25442 14.9997C6.21474 14.9997 6.1788 15.0232 6.16279 15.0595C5.92222 15.7672 5.2578 16.2431 4.51037 16.2432" stroke="#161924" stroke-width="1.5" stroke-linecap="round" stroke-linejoin="round"/>
<circle cx="17.5029" cy="6.49772" r="4.50187" stroke="#161924" stroke-width="1.5" stroke-linecap="round" stroke-linejoin="round"/>
<path d="M17.2012 4.51489V6.79884H19.097" stroke="#161924" stroke-width="1.5" stroke-linecap="round" stroke-linejoin="round"/>
</svg>
