<svg width="24" height="24" viewBox="0 0 24 24" fill="none" xmlns="http://www.w3.org/2000/svg">
<path fill-rule="evenodd" clip-rule="evenodd" d="M6.57413 15.9226L3.23974 12.5892C2.91488 12.2636 2.91488 11.7364 3.23974 11.4107L6.57413 8.07735C6.81273 7.83934 7.17108 7.76824 7.48247 7.89713C7.79386 8.02602 7.99714 8.32959 7.99772 8.6666V15.3334C7.99714 15.6704 7.79386 15.974 7.48247 16.1028C7.17108 16.2317 6.81273 16.1606 6.57413 15.9226V15.9226Z" stroke="#323232" stroke-width="1.5" stroke-linecap="round" stroke-linejoin="round"/>
<path d="M11.9983 3.99664V20.0033" stroke="#323232" stroke-width="1.5" stroke-linecap="round" stroke-linejoin="round"/>
<path fill-rule="evenodd" clip-rule="evenodd" d="M17.4236 8.07735L20.758 11.4107C21.0828 11.7364 21.0828 12.2636 20.758 12.5892L17.4236 15.9226C17.185 16.1606 16.8266 16.2317 16.5153 16.1028C16.2039 15.974 16.0006 15.6704 16 15.3334V8.6666C16.0006 8.32959 16.2039 8.02602 16.5153 7.89713C16.8266 7.76824 17.185 7.83934 17.4236 8.07735Z" stroke="#323232" stroke-width="1.5" stroke-linecap="round" stroke-linejoin="round"/>
</svg>
