<svg width="24" height="24" viewBox="0 0 24 24" fill="none" xmlns="http://www.w3.org/2000/svg">
<path d="M17 3.767C13.983 1.746 10.017 1.746 7 3.767" stroke="#161924" stroke-width="1.5" stroke-linecap="round" stroke-linejoin="round"/>
<path d="M15.98 19.32C19.238 17.718 21.221 14.283 20.98 10.66" stroke="#161924" stroke-width="1.5" stroke-linecap="round" stroke-linejoin="round"/>
<path d="M8.01998 19.32C4.76198 17.718 2.77898 14.283 3.01998 10.66" stroke="#161924" stroke-width="1.5" stroke-linecap="round" stroke-linejoin="round"/>
<path d="M20.8547 5.68833C21.4405 6.27412 21.4405 7.22386 20.8547 7.80965C20.2689 8.39544 19.3192 8.39544 18.7334 7.80965C18.1476 7.22387 18.1476 6.27412 18.7334 5.68833C19.3192 5.10255 20.2689 5.10255 20.8547 5.68833" stroke="#161924" stroke-width="1.5" stroke-linecap="round" stroke-linejoin="round"/>
<path d="M5.27263 5.68833C5.85842 6.27412 5.85842 7.22386 5.27263 7.80965C4.68685 8.39544 3.7371 8.39544 3.15131 7.80965C2.56553 7.22387 2.56553 6.27412 3.15131 5.68833C3.7371 5.10255 4.68684 5.10255 5.27263 5.68833" stroke="#161924" stroke-width="1.5" stroke-linecap="round" stroke-linejoin="round"/>
<path d="M13.0637 19.1883C13.6495 19.7741 13.6495 20.7238 13.0637 21.3096C12.4779 21.8954 11.5282 21.8954 10.9424 21.3096C10.3566 20.7238 10.3566 19.7741 10.9424 19.1883C11.5282 18.6025 12.4779 18.6025 13.0637 19.1883" stroke="#161924" stroke-width="1.5" stroke-linecap="round" stroke-linejoin="round"/>
<path d="M14.475 8.774C15.842 10.141 15.842 12.357 14.475 13.724C13.108 15.091 10.892 15.091 9.52501 13.724C8.15801 12.357 8.15801 10.141 9.52501 8.774C10.892 7.407 13.108 7.407 14.475 8.774" stroke="#161924" stroke-width="1.5" stroke-linecap="round" stroke-linejoin="round"/>
</svg>
