<svg width="24" height="24" viewBox="0 0 24 24" fill="none" xmlns="http://www.w3.org/2000/svg">
<path d="M13.4729 18.4441C14.2864 19.2576 14.2864 20.5765 13.4729 21.3899C12.6594 22.2034 11.3406 22.2034 10.5271 21.3899C9.71363 20.5765 9.71363 19.2576 10.5271 18.4441C11.3406 17.6306 12.6594 17.6306 13.4729 18.4441" stroke="#161924" stroke-width="1.5"/>
<path d="M13.4729 18.4441C14.2864 19.2576 14.2864 20.5765 13.4729 21.3899C12.6594 22.2034 11.3406 22.2034 10.5271 21.3899C9.71363 20.5765 9.71363 19.2576 10.5271 18.4441C11.3406 17.6306 12.6594 17.6306 13.4729 18.4441" stroke="#161924" stroke-width="1.5"/>
<path d="M13.4729 2.6101C14.2864 3.42356 14.2864 4.74244 13.4729 5.55591C12.6594 6.36937 11.3406 6.36937 10.5271 5.55591C9.71363 4.74244 9.71363 3.42357 10.5271 2.6101C11.3406 1.79663 12.6594 1.79663 13.4729 2.6101" stroke="#161924" stroke-width="1.5"/>
<path d="M5.55591 10.5271C6.36937 11.3406 6.36937 12.6594 5.55591 13.4729C4.74244 14.2864 3.42357 14.2864 2.6101 13.4729C1.79663 12.6594 1.79663 11.3406 2.6101 10.5271C3.42356 9.71363 4.74244 9.71363 5.55591 10.5271" stroke="#161924" stroke-width="1.5"/>
<path d="M21.3899 10.5271C22.2034 11.3406 22.2034 12.6594 21.3899 13.4729C20.5764 14.2864 19.2576 14.2864 18.4441 13.4729C17.6306 12.6594 17.6306 11.3406 18.4441 10.5271C19.2575 9.71363 20.5764 9.71363 21.3899 10.5271" stroke="#161924" stroke-width="1.5"/>
<path d="M18.401 7.599C17.862 6.816 17.184 6.138 16.401 5.599" stroke="#161924" stroke-width="1.5" stroke-linecap="round" stroke-linejoin="round"/>
<path d="M5.599 16.401C6.138 17.184 6.816 17.862 7.599 18.401" stroke="#161924" stroke-width="1.5" stroke-linecap="round" stroke-linejoin="round"/>
<path d="M7.599 5.599C6.816 6.138 6.138 6.816 5.599 7.599" stroke="#161924" stroke-width="1.5" stroke-linecap="round" stroke-linejoin="round"/>
<path d="M16.401 18.401C17.184 17.862 17.862 17.184 18.401 16.401" stroke="#161924" stroke-width="1.5" stroke-linecap="round" stroke-linejoin="round"/>
</svg>
