<svg width="24" height="24" viewBox="0 0 24 24" fill="none" xmlns="http://www.w3.org/2000/svg">
<path d="M12 5V3" stroke="#161924" stroke-width="1.5" stroke-linecap="round" stroke-linejoin="round"/>
<path d="M2 13H4" stroke="#161924" stroke-width="1.5" stroke-linecap="round" stroke-linejoin="round"/>
<path d="M4.8999 5.89999L5.9999 6.99999" stroke="#161924" stroke-width="1.5" stroke-linecap="round" stroke-linejoin="round"/>
<path d="M19.1 5.89999L18 6.99999" stroke="#161924" stroke-width="1.5" stroke-linecap="round" stroke-linejoin="round"/>
<path d="M22 12.9H20" stroke="#161924" stroke-width="1.5" stroke-linecap="round" stroke-linejoin="round"/>
<path d="M3 17.4C4.1 16.9 5.5 16.9 6.6 17.4C7.7 17.9 9.1 17.9 10.2 17.4C11.3 16.9 12.7 16.9 13.8 17.4C14.9 17.9 16.3 17.9 17.4 17.4C18.5 16.9 19.9 16.9 21 17.4" stroke="#161924" stroke-width="1.5" stroke-linecap="round" stroke-linejoin="round"/>
<path d="M6.6001 20.6C7.7001 21.1 9.1001 21.1 10.2001 20.6C11.3001 20.1 12.7001 20.1 13.8001 20.6C14.9001 21.1 16.3001 21.1 17.4001 20.6" stroke="#161924" stroke-width="1.5" stroke-linecap="round" stroke-linejoin="round"/>
<path d="M7 13C7 10.2 9.2 8 12 8C14.8 8 17 10.2 17 13" stroke="#161924" stroke-width="1.5" stroke-linecap="round" stroke-linejoin="round"/>
</svg>
