<svg width="24" height="24" viewBox="0 0 24 24" fill="none" xmlns="http://www.w3.org/2000/svg">
<path d="M7.63281 10.726C7.63281 9.91201 8.29281 9.25201 9.10681 9.25201C9.92081 9.25201 10.5808 9.91201 10.5808 10.726C10.5808 12.568 7.63281 12.568 7.63281 14.75H10.5808" stroke="#161924" stroke-width="1.5" stroke-linecap="round" stroke-linejoin="round"/>
<path d="M15.5321 14.75C15.5321 14.75 15.5321 13.876 15.5321 13.495H16.3671H15.5321H13.1681C12.7441 13.495 12.4771 13.039 12.6901 12.672C13.2811 11.655 13.9651 10.504 14.5921 9.48999C14.8611 9.05399 15.5321 9.24999 15.5321 9.76199V13.495" stroke="#161924" stroke-width="1.5" stroke-linecap="round" stroke-linejoin="round"/>
<path d="M20.4243 4.80301V7.69601H17.5312H20.4243" stroke="#161924" stroke-width="1.5" stroke-linecap="round" stroke-linejoin="round"/>
<path d="M19.905 7.696C18.379 4.899 15.412 3 12 3C7.029 3 3 7.03 3 12C3 16.97 7.029 21 12 21C16.971 21 21 16.97 21 12" stroke="#161924" stroke-width="1.5" stroke-linecap="round" stroke-linejoin="round"/>
</svg>
