<svg width="24" height="24" viewBox="0 0 24 24" fill="none" xmlns="http://www.w3.org/2000/svg">
<path d="M5.43362 6.86785C5.87618 6.34945 6.38018 5.88769 6.93314 5.48737" stroke="#161924" stroke-width="1.5" stroke-linecap="round" stroke-linejoin="round"/>
<path d="M16.8 19.657C15.4272 20.5767 13.777 21.1143 12 21.1143C11.1245 21.1143 10.2806 20.9818 9.4848 20.7399" stroke="#161924" stroke-width="1.5" stroke-linecap="round" stroke-linejoin="round"/>
<path d="M3.86208 9.59427C3.5424 10.4967 3.36 11.4624 3.36 12.4743" stroke="#161924" stroke-width="1.5" stroke-linecap="round" stroke-linejoin="round"/>
<path d="M9.4848 4.20866C10.2806 3.96674 11.1245 3.83426 12 3.83426C16.7722 3.83426 20.64 7.7021 20.64 12.4743C20.64 14.2551 20.0899 15.9005 19.1645 17.2743" stroke="#161924" stroke-width="1.5" stroke-linecap="round" stroke-linejoin="round"/>
<path d="M15.456 14.7773H8.54401L10.847 17.0822" stroke="#161924" stroke-width="1.5" stroke-linecap="round" stroke-linejoin="round"/>
<path d="M13.153 7.8653L15.456 10.1712H8.54401" stroke="#161924" stroke-width="1.5" stroke-linecap="round" stroke-linejoin="round"/>
<path d="M6.93313 19.4621C5.53153 18.4445 4.45441 17.015 3.86401 15.3542" stroke="#161924" stroke-width="1.5" stroke-linecap="round" stroke-linejoin="round"/>
</svg>
