<svg width="24" height="24" viewBox="0 0 24 24" fill="none" xmlns="http://www.w3.org/2000/svg">
<path fill-rule="evenodd" clip-rule="evenodd" d="M7.99841 3.99668L9.29895 2.37101C9.48903 2.13391 9.77615 1.99585 10.0803 1.99585H13.9209C14.225 1.99585 14.5121 2.13391 14.7022 2.37101L16.0017 3.99668V3.99668V4.9971C16.0017 5.54933 15.5536 5.99752 15.0013 5.99752H8.99883C8.4466 5.99752 7.99841 5.54933 7.99841 4.9971V3.99668V3.99668Z" stroke="#161924" stroke-width="1.5" stroke-linecap="round" stroke-linejoin="round"/>
<path d="M20.0034 12V5.99754C20.0034 4.89208 19.108 3.9967 18.0025 3.9967H16.0017" stroke="#161924" stroke-width="1.5" stroke-linecap="round" stroke-linejoin="round"/>
<path d="M7.99837 3.9967H5.99754C4.89208 3.9967 3.9967 4.89208 3.9967 5.99754V19.003C3.9967 20.1084 4.89208 21.0038 5.99754 21.0038H12" stroke="#161924" stroke-width="1.5" stroke-linecap="round" stroke-linejoin="round"/>
<path fill-rule="evenodd" clip-rule="evenodd" d="M14.7682 18.6938C14.4941 18.2776 14.4941 17.7294 14.7682 17.3132C15.6166 16.0296 16.9491 15.0012 18.2827 15.0012C19.6162 15.0012 20.9478 16.0296 21.7971 17.3122C22.0722 17.7284 22.0722 18.2776 21.7971 18.6928C20.9468 19.9753 19.6152 21.0037 18.2827 21.0037C16.9491 21.0047 15.6166 19.9763 14.7682 18.6938Z" stroke="#161924" stroke-width="1.5" stroke-linecap="round" stroke-linejoin="round"/>
<path d="M18.3818 17.9035C18.4378 17.9595 18.4378 18.0485 18.3818 18.1045C18.3257 18.1606 18.2367 18.1606 18.1807 18.1045C18.1246 18.0485 18.1246 17.9595 18.1807 17.9035C18.2377 17.8474 18.3277 17.8474 18.3818 17.9035" stroke="#161924" stroke-width="1.5" stroke-linecap="round" stroke-linejoin="round"/>
<path d="M7.99841 10.9996H16.0017" stroke="#161924" stroke-width="1.5" stroke-linecap="round" stroke-linejoin="round"/>
<path d="M7.99841 16.0017H9.99925" stroke="#161924" stroke-width="1.5" stroke-linecap="round" stroke-linejoin="round"/>
</svg>
