<svg width="24" height="24" viewBox="0 0 24 24" fill="none" xmlns="http://www.w3.org/2000/svg">
<path fill-rule="evenodd" clip-rule="evenodd" d="M20.625 5.149C20.625 4.169 19.831 3.375 18.851 3.375H5.149C4.169 3.375 3.375 4.169 3.375 5.149V18.851C3.375 19.831 4.169 20.625 5.149 20.625H18.851C19.831 20.625 20.625 19.831 20.625 18.851V5.149V5.149Z" stroke="#161924" stroke-width="1.5" stroke-linecap="round" stroke-linejoin="round"/>
<path d="M16.89 12H11.63" stroke="#161924" stroke-width="1.5" stroke-linecap="round" stroke-linejoin="round"/>
<path d="M7.67678 11.8232C7.77441 11.9208 7.77441 12.0791 7.67678 12.1767C7.57915 12.2744 7.42085 12.2744 7.32322 12.1767C7.22559 12.0791 7.22559 11.9208 7.32322 11.8232C7.42085 11.7256 7.57915 11.7256 7.67678 11.8232" stroke="#161924" stroke-width="1.5" stroke-linecap="round" stroke-linejoin="round"/>
<path d="M16.89 7.5H11.63" stroke="#161924" stroke-width="1.5" stroke-linecap="round" stroke-linejoin="round"/>
<path d="M7.67678 7.32621C7.77441 7.42385 7.77441 7.58214 7.67678 7.67977C7.57915 7.7774 7.42085 7.7774 7.32322 7.67977C7.22559 7.58214 7.22559 7.42385 7.32322 7.32621C7.42085 7.22858 7.57915 7.22858 7.67678 7.32621" stroke="#161924" stroke-width="1.5" stroke-linecap="round" stroke-linejoin="round"/>
<path d="M16.98 16.5H11.72" stroke="#161924" stroke-width="1.5" stroke-linecap="round" stroke-linejoin="round"/>
<path d="M7.76479 16.3272C7.86242 16.4248 7.86242 16.5831 7.76479 16.6807C7.66716 16.7784 7.50887 16.7784 7.41124 16.6807C7.31361 16.5831 7.31361 16.4248 7.41124 16.3272C7.50887 16.2296 7.66716 16.2296 7.76479 16.3272" stroke="#161924" stroke-width="1.5" stroke-linecap="round" stroke-linejoin="round"/>
</svg>
