<svg width="24" height="24" viewBox="0 0 24 24" fill="none" xmlns="http://www.w3.org/2000/svg">
<path fill-rule="evenodd" clip-rule="evenodd" d="M7.99841 3.99668L9.29895 2.37101C9.48903 2.13391 9.77615 1.99585 10.0803 1.99585H13.9209C14.225 1.99585 14.5121 2.13391 14.7022 2.37101L16.0017 3.99668V3.99668V4.9971C16.0017 5.54933 15.5536 5.99752 15.0013 5.99752H8.99883C8.4466 5.99752 7.99841 5.54933 7.99841 4.9971V3.99668V3.99668Z" stroke="#161924" stroke-width="1.5" stroke-linecap="round" stroke-linejoin="round"/>
<path d="M7.99837 3.9967H5.99754C4.89208 3.9967 3.9967 4.89208 3.9967 5.99754V19.003C3.9967 20.1084 4.89208 21.0038 5.99754 21.0038H18.0025C19.108 21.0038 20.0034 20.1084 20.0034 19.003V5.99754C20.0034 4.89208 19.108 3.9967 18.0025 3.9967H16.0017" stroke="#161924" stroke-width="1.5" stroke-linecap="round" stroke-linejoin="round"/>
<path d="M14.0008 12.5002L11.4998 15.0013L9.99915 13.5007" stroke="#161924" stroke-width="1.5" stroke-linecap="round" stroke-linejoin="round"/>
</svg>
