<svg width="24" height="24" viewBox="0 0 24 24" fill="none" xmlns="http://www.w3.org/2000/svg">
<path d="M16.5019 18.505V16.8376" stroke="#161924" stroke-width="1.5" stroke-linecap="round" stroke-linejoin="round"/>
<path d="M16.5019 14.4988C16.4712 14.4988 16.4463 14.5237 16.4463 14.5544V14.5544C16.4463 14.5769 16.4599 14.5971 16.4806 14.6058C16.5014 14.6144 16.5253 14.6096 16.5412 14.5937C16.5571 14.5778 16.5619 14.5539 16.5533 14.5331C16.5447 14.5124 16.5244 14.4988 16.5019 14.4988" stroke="#161924" stroke-width="1.5" stroke-linecap="round" stroke-linejoin="round"/>
<path d="M14.501 12H13.0004C12.4479 12 12 12.4479 12 13.0004V20.0033C12 20.5558 12.4479 21.0037 13.0004 21.0037H14.501" stroke="#161924" stroke-width="1.5" stroke-linecap="round" stroke-linejoin="round"/>
<path d="M18.5027 12H20.0033C20.5558 12 21.0037 12.4479 21.0037 13.0004V20.0033C21.0037 20.5558 20.5558 21.0037 20.0033 21.0037H18.5027" stroke="#161924" stroke-width="1.5" stroke-linecap="round" stroke-linejoin="round"/>
<path d="M7.99837 4.99731H5.99754C4.89251 4.99731 3.9967 5.89312 3.9967 6.99815V19.0031C3.9967 20.1082 4.89251 21.004 5.99754 21.004H8.99879" stroke="#161924" stroke-width="1.5" stroke-linecap="round" stroke-linejoin="round"/>
<rect x="7.99829" y="2.99634" width="8.00333" height="4.00167" rx="1" stroke="#161924" stroke-width="1.5" stroke-linecap="round" stroke-linejoin="round"/>
<path d="M16.0017 4.99731H18.0025C19.1076 4.99731 20.0034 5.89312 20.0034 6.99815V8.99898" stroke="#161924" stroke-width="1.5" stroke-linecap="round" stroke-linejoin="round"/>
</svg>
