<svg width="24" height="24" viewBox="0 0 24 24" fill="none" xmlns="http://www.w3.org/2000/svg">
<path fill-rule="evenodd" clip-rule="evenodd" d="M16.5019 17.0313V17.0313C15.9752 17.0313 15.4701 16.8221 15.0977 16.4497C14.7253 16.0773 14.5161 15.5721 14.5161 15.0455V11.7351C14.5161 10.6384 15.4051 9.74927 16.5019 9.74927V9.74927C17.5986 9.74927 18.4877 10.6384 18.4877 11.7351V15.0455C18.4877 15.5721 18.2785 16.0773 17.9061 16.4497C17.5337 16.8221 17.0286 17.0313 16.5019 17.0313V17.0313Z" stroke="#161924" stroke-width="1.5" stroke-linecap="round" stroke-linejoin="round"/>
<path d="M21.0037 15.1514C21.0037 17.6377 18.9882 19.6532 16.5019 19.6532V19.6532C14.0156 19.6532 12 17.6377 12 15.1514" stroke="#161924" stroke-width="1.5" stroke-linecap="round" stroke-linejoin="round"/>
<path d="M16.5019 21.0039V19.6533" stroke="#161924" stroke-width="1.5" stroke-linecap="round" stroke-linejoin="round"/>
<path d="M10.9996 8.99899H6.99792" stroke="#161924" stroke-width="1.5" stroke-linecap="round" stroke-linejoin="round"/>
<path d="M8.99876 12.8755H6.99792" stroke="#161924" stroke-width="1.5" stroke-linecap="round" stroke-linejoin="round"/>
<path d="M12 21.0038H7.9983C5.23572 21.0038 2.99622 18.7643 2.99622 16.0018V7.99842C2.99622 5.23585 5.23572 2.99634 7.9983 2.99634H16.0016C18.7642 2.99634 21.0037 5.23585 21.0037 7.99842V10.9997" stroke="#161924" stroke-width="1.5" stroke-linecap="round" stroke-linejoin="round"/>
</svg>
