<svg width="24" height="24" viewBox="0 0 24 24" fill="none" xmlns="http://www.w3.org/2000/svg">
<path d="M7 4H5C3.89543 4 3 4.89543 3 6V18C3 19.1046 3.89543 20 5 20H8" stroke="#161924" stroke-width="1.5" stroke-linecap="round" stroke-linejoin="round"/>
<rect x="7" y="2" width="8" height="4" rx="1" stroke="#161924" stroke-width="1.5" stroke-linecap="round" stroke-linejoin="round"/>
<path d="M15 4H17C18.1046 4 19 4.89543 19 6V10" stroke="#161924" stroke-width="1.5" stroke-linecap="round" stroke-linejoin="round"/>
<path fill-rule="evenodd" clip-rule="evenodd" d="M19 20.5H15V21C15 21.5523 14.5523 22 14 22H13C12.4477 22 12 21.5523 12 21V19.25C12 18.2835 12.7835 17.5 13.75 17.5H20.25C21.2165 17.5 22 18.2835 22 19.25V21C22 21.5523 21.5523 22 21 22H20C19.4477 22 19 21.5523 19 21V20.5Z" stroke="#161924" stroke-width="1.5" stroke-linecap="round" stroke-linejoin="round"/>
<path d="M13.1392 17.6157L13.7141 15.1583C13.8728 14.4798 14.4778 14 15.1746 14H18.8251C19.5219 14 20.127 14.4798 20.2857 15.1583L20.8606 17.6157" stroke="#161924" stroke-width="1.5" stroke-linecap="round" stroke-linejoin="round"/>
<path d="M13.2391 17.1225L12 16.5" stroke="#161924" stroke-width="1.5" stroke-linecap="round" stroke-linejoin="round"/>
<path d="M20.761 17.1225L22.0001 16.5" stroke="#161924" stroke-width="1.5" stroke-linecap="round" stroke-linejoin="round"/>
<path d="M7 14.7553L7.66378 15.3517L9 14.1517" stroke="#161924" stroke-width="1.5" stroke-linecap="round" stroke-linejoin="round"/>
<path d="M12 11H15" stroke="#161924" stroke-width="1.5" stroke-linecap="round" stroke-linejoin="round"/>
<path d="M7 10.7553L7.66378 11.3517L9 10.1517" stroke="#161924" stroke-width="1.5" stroke-linecap="round" stroke-linejoin="round"/>
</svg>
