<svg width="24" height="24" viewBox="0 0 24 24" fill="none" xmlns="http://www.w3.org/2000/svg">
<path d="M6.99825 3.99664H4.99742C3.89239 3.99664 2.99658 4.89245 2.99658 5.99748V18.0025C2.99658 19.1075 3.89239 20.0033 4.99742 20.0033H7.99867" stroke="#161924" stroke-width="1.5" stroke-linecap="round" stroke-linejoin="round"/>
<rect x="6.99805" y="1.99585" width="8.00333" height="4.00167" rx="1" stroke="#161924" stroke-width="1.5" stroke-linecap="round" stroke-linejoin="round"/>
<path d="M15.0015 3.99664H17.0023C18.1073 3.99664 19.0031 4.89245 19.0031 5.99748V9.99914" stroke="#161924" stroke-width="1.5" stroke-linecap="round" stroke-linejoin="round"/>
<path fill-rule="evenodd" clip-rule="evenodd" d="M19.0029 20.5035H15.0013V21.0037C15.0013 21.5562 14.5533 22.0041 14.0008 22.0041H13.0004C12.4479 22.0041 12 21.5562 12 21.0037V19.253C12 18.2861 12.7838 17.5023 13.7507 17.5023H20.2534C21.2203 17.5023 22.0042 18.2861 22.0042 19.253V21.0037C22.0042 21.5562 21.5563 22.0041 21.0037 22.0041H20.0033C19.4508 22.0041 19.0029 21.5562 19.0029 21.0037V20.5035Z" stroke="#161924" stroke-width="1.5" stroke-linecap="round" stroke-linejoin="round"/>
<path d="M13.1396 17.6181L13.7148 15.1596C13.8736 14.4809 14.4789 14.0009 15.176 14.0009H18.828C19.5251 14.0009 20.1304 14.4809 20.2892 15.1596L20.8643 17.6181" stroke="#161924" stroke-width="1.5" stroke-linecap="round" stroke-linejoin="round"/>
<path d="M6.99826 9.87412C6.92919 9.87412 6.8732 9.93011 6.8732 9.99917C6.8732 10.0682 6.92919 10.1242 6.99826 10.1242C7.06732 10.1242 7.12331 10.0682 7.12331 9.99917C7.12331 9.93011 7.06732 9.87412 6.99826 9.87412" stroke="#161924" stroke-width="1.5" stroke-linecap="round" stroke-linejoin="round"/>
<path d="M6.99826 13.8758C6.92919 13.8758 6.8732 13.9318 6.8732 14.0008C6.8732 14.0699 6.92919 14.1259 6.99826 14.1259C7.06732 14.1259 7.12331 14.0699 7.12331 14.0008C7.12331 13.9318 7.06732 13.8758 6.99826 13.8758" stroke="#161924" stroke-width="1.5" stroke-linecap="round" stroke-linejoin="round"/>
<path d="M15.0016 9.99917H9.99951" stroke="#161924" stroke-width="1.5" stroke-linecap="round" stroke-linejoin="round"/>
<path d="M10.9999 14.0008H9.99951" stroke="#161924" stroke-width="1.5" stroke-linecap="round" stroke-linejoin="round"/>
<path d="M13.2396 17.1246L12 16.5019" stroke="#161924" stroke-width="1.5" stroke-linecap="round" stroke-linejoin="round"/>
<path d="M20.7646 17.1246L22.0043 16.5019" stroke="#161924" stroke-width="1.5" stroke-linecap="round" stroke-linejoin="round"/>
</svg>
