<svg width="24" height="24" viewBox="0 0 24 24" fill="none" xmlns="http://www.w3.org/2000/svg">
<path d="M17.5023 13.0005C19.9886 13.0005 22.0042 15.016 22.0042 17.5024C22.0042 19.9887 19.9886 22.0042 17.5023 22.0042C15.016 22.0042 13.0004 19.9887 13.0004 17.5024C13.0004 15.016 15.016 13.0005 17.5023 13.0005" stroke="#161924" stroke-width="1.5" stroke-linecap="round" stroke-linejoin="round"/>
<path d="M10.9995 21.0038H7.9983C5.23572 21.0038 2.99622 18.7643 2.99622 16.0018V7.99842C2.99622 5.23585 5.23572 2.99634 7.9983 2.99634H16.0016C18.7642 2.99634 21.0037 5.23585 21.0037 7.99842V10.9997" stroke="#161924" stroke-width="1.5" stroke-linecap="round" stroke-linejoin="round"/>
<path d="M15.0012 9.99923H10.2493" stroke="#161924" stroke-width="1.5" stroke-linecap="round" stroke-linejoin="round"/>
<path d="M10.9996 14.0009H10.2493" stroke="#161924" stroke-width="1.5" stroke-linecap="round" stroke-linejoin="round"/>
<path d="M7.12295 9.87418C7.05389 9.87418 6.9979 9.93017 6.9979 9.99923C6.9979 10.0683 7.05389 10.1243 7.12295 10.1243C7.19201 10.1243 7.248 10.0683 7.248 9.99923C7.248 9.93017 7.19201 9.87418 7.12295 9.87418" stroke="#161924" stroke-width="1.5" stroke-linecap="round" stroke-linejoin="round"/>
<path d="M7.12295 13.8759C7.05389 13.8759 6.9979 13.9319 6.9979 14.0009C6.9979 14.07 7.05389 14.126 7.12295 14.126C7.19201 14.126 7.248 14.07 7.248 14.0009C7.248 13.9319 7.19201 13.8759 7.12295 13.8759" stroke="#161924" stroke-width="1.5" stroke-linecap="round" stroke-linejoin="round"/>
<path d="M18.7246 17.4529C18.7069 17.4528 18.6905 17.4623 18.6816 17.4776C18.6728 17.4929 18.6727 17.5117 18.6815 17.5271C18.6904 17.5424 18.7067 17.5519 18.7244 17.5519H18.7246C18.7519 17.552 18.7741 17.5299 18.7742 17.5025C18.7742 17.4752 18.7521 17.4529 18.7248 17.4529H18.7246" stroke="#161924" stroke-width="1.5" stroke-linecap="round" stroke-linejoin="round"/>
<path d="M16.2789 17.453C16.2515 17.453 16.2294 17.4751 16.2294 17.5025V17.5025C16.2289 17.523 16.2408 17.5417 16.2596 17.55C16.2783 17.5582 16.3002 17.5544 16.315 17.5402C16.3298 17.5261 16.3346 17.5044 16.3272 17.4853C16.3198 17.4662 16.3016 17.4534 16.2811 17.453H16.28" stroke="#161924" stroke-width="1.5" stroke-linecap="round" stroke-linejoin="round"/>
</svg>
