<svg width="24" height="24" viewBox="0 0 24 24" fill="none" xmlns="http://www.w3.org/2000/svg">
<path d="M7 6H17" stroke="#161924" stroke-width="1.5" stroke-linecap="round" stroke-linejoin="round"/>
<path fill-rule="evenodd" clip-rule="evenodd" d="M20 21H18C17.4484 20.9984 17.0016 20.5516 17 20V16C17.0016 15.4484 17.4484 15.0016 18 15H20C20.5516 15.0016 20.9984 15.4484 21 16V20C20.9984 20.5516 20.5516 20.9984 20 21V21Z" stroke="#161924" stroke-width="1.5" stroke-linecap="round" stroke-linejoin="round"/>
<path d="M12 18V15.5" stroke="#161924" stroke-width="1.5" stroke-linecap="round" stroke-linejoin="round"/>
<path d="M12 6V8.5" stroke="#161924" stroke-width="1.5" stroke-linecap="round" stroke-linejoin="round"/>
<path d="M7 18H17" stroke="#161924" stroke-width="1.5" stroke-linecap="round" stroke-linejoin="round"/>
<path fill-rule="evenodd" clip-rule="evenodd" d="M6 21H4C3.4484 20.9984 3.00165 20.5516 3 20V16C3.00161 15.4484 3.44839 15.0016 4 15H6C6.55161 15.0016 6.99839 15.4484 7 16V20C6.99835 20.5516 6.5516 20.9984 6 21V21Z" stroke="#161924" stroke-width="1.5" stroke-linecap="round" stroke-linejoin="round"/>
<path fill-rule="evenodd" clip-rule="evenodd" d="M20 9H18C17.4484 8.99835 17.0016 8.5516 17 8V4C17.0016 3.4484 17.4484 3.00165 18 3H20C20.5516 3.00165 20.9984 3.4484 21 4V8C20.9984 8.5516 20.5516 8.99835 20 9V9Z" stroke="#161924" stroke-width="1.5" stroke-linecap="round" stroke-linejoin="round"/>
<path fill-rule="evenodd" clip-rule="evenodd" d="M6 9H4C3.44839 8.99839 3.00161 8.55161 3 8V4C3.00161 3.44839 3.44839 3.00161 4 3H6C6.55161 3.00161 6.99839 3.44839 7 4V8C6.99839 8.55161 6.55161 8.99839 6 9Z" stroke="#161924" stroke-width="1.5" stroke-linecap="round" stroke-linejoin="round"/>
<path d="M14 11.3L12.5 12.8" stroke="#161924" stroke-width="1.5" stroke-linecap="round" stroke-linejoin="round"/>
<path d="M12.5 12.8L11.25 11.55" stroke="#161924" stroke-width="1.5" stroke-linecap="round" stroke-linejoin="round"/>
<path d="M11.25 11.55L10 12.8" stroke="#161924" stroke-width="1.5" stroke-linecap="round" stroke-linejoin="round"/>
</svg>
