<svg width="24" height="24" viewBox="0 0 24 24" fill="none" xmlns="http://www.w3.org/2000/svg">
<path d="M16.9188 15.936L17.9761 15.6941C19.7476 15.2887 21.0038 13.7126 21.0038 11.8953V11.8953C21.0038 11.1271 20.6986 10.3903 20.1554 9.8471C19.6122 9.30389 18.8754 8.99872 18.1072 8.99872H15.5015" stroke="#161924" stroke-width="1.5" stroke-linecap="round" stroke-linejoin="round"/>
<path fill-rule="evenodd" clip-rule="evenodd" d="M3.997 8.99872H16.002C16.5545 8.99872 17.0024 9.44662 17.0024 9.99913V15.0012C17.0024 18.3163 14.315 21.0037 10.9999 21.0037H8.99908C5.68399 21.0037 2.99658 18.3163 2.99658 15.0012V9.99913C2.99658 9.44662 3.44448 8.99872 3.997 8.99872Z" stroke="#161924" stroke-width="1.5" stroke-linecap="round" stroke-linejoin="round"/>
<path d="M13.5007 5.99752C13.1858 5.76135 13.0005 5.39071 13.0005 4.9971C13.0005 4.60349 13.1858 4.23285 13.5007 3.99668C13.8156 3.76052 14.0009 3.38988 14.0009 2.99627C14.0009 2.60266 13.8156 2.23202 13.5007 1.99585" stroke="#161924" stroke-width="1.5" stroke-linecap="round" stroke-linejoin="round"/>
<path d="M9.99923 5.99752C9.68434 5.76135 9.49902 5.39071 9.49902 4.9971C9.49902 4.60349 9.68434 4.23285 9.99923 3.99668C10.3141 3.76052 10.4994 3.38988 10.4994 2.99627C10.4994 2.60266 10.3141 2.23202 9.99923 1.99585" stroke="#161924" stroke-width="1.5" stroke-linecap="round" stroke-linejoin="round"/>
<path d="M6.49777 5.99752C6.18288 5.76135 5.99756 5.39071 5.99756 4.9971C5.99756 4.60349 6.18288 4.23285 6.49777 3.99668C6.81266 3.76052 6.99798 3.38988 6.99798 2.99627C6.99798 2.60266 6.81266 2.23202 6.49777 1.99585" stroke="#161924" stroke-width="1.5" stroke-linecap="round" stroke-linejoin="round"/>
<path d="M8.99874 8.99872V12" stroke="#161924" stroke-width="1.5" stroke-linecap="round" stroke-linejoin="round"/>
<rect x="6.99805" y="12" width="4.00167" height="4.00167" rx="1" stroke="#161924" stroke-width="1.5" stroke-linecap="round" stroke-linejoin="round"/>
</svg>
