<svg width="24" height="24" viewBox="0 0 24 24" fill="none" xmlns="http://www.w3.org/2000/svg">
<path d="M14.149 14.875C13.708 15.262 13.132 15.5 12.5 15.5C11.119 15.5 10 14.381 10 13C10 11.619 11.119 10.5 12.5 10.5C13.133 10.5 13.709 10.737 14.149 11.125" stroke="#161924" stroke-width="1.5" stroke-linecap="round" stroke-linejoin="round"/>
<path fill-rule="evenodd" clip-rule="evenodd" d="M12 21C16.9706 21 21 16.9706 21 12C21 7.02944 16.9706 3 12 3C7.02944 3 3 7.02944 3 12C3 16.9706 7.02944 21 12 21Z" stroke="#161924" stroke-width="1.5" stroke-linecap="round" stroke-linejoin="round"/>
<path d="M9.249 7.98099C9.111 7.98099 8.999 8.09299 9 8.23099C9 8.36899 9.112 8.48099 9.25 8.48099C9.388 8.48099 9.5 8.36899 9.5 8.23099C9.5 8.09299 9.388 7.98099 9.249 7.98099" stroke="#161924" stroke-width="1.5" stroke-linecap="round" stroke-linejoin="round"/>
</svg>
