<svg width="24" height="24" viewBox="0 0 24 24" fill="none" xmlns="http://www.w3.org/2000/svg">
<path d="M10.6413 12.934V8.358C10.6413 7.608 11.2493 7 11.9993 7C12.7493 7 13.3573 7.608 13.3573 8.358V12.935V12.936C13.9043 13.349 14.2633 13.998 14.2633 14.736C14.2623 15.987 13.2493 17 11.9993 17C10.7493 17 9.73633 15.987 9.73633 14.737C9.73633 13.999 10.0953 13.349 10.6423 12.937" stroke="#161924" stroke-width="1.5" stroke-linecap="round" stroke-linejoin="round"/>
<path fill-rule="evenodd" clip-rule="evenodd" d="M12 21C16.9706 21 21 16.9706 21 12C21 7.02944 16.9706 3 12 3C7.02944 3 3 7.02944 3 12C3 16.9706 7.02944 21 12 21Z" stroke="#161924" stroke-width="1.5" stroke-linecap="round" stroke-linejoin="round"/>
</svg>
