<svg width="24" height="24" viewBox="0 0 24 24" fill="none" xmlns="http://www.w3.org/2000/svg">
<path d="M16.0016 21.0039C17.1067 21.0039 18.0025 20.1081 18.0025 19.003V17.0022" stroke="#161924" stroke-width="1.5" stroke-linecap="round" stroke-linejoin="round"/>
<path d="M2.99622 19.0029C2.99622 20.108 3.89202 21.0038 4.99705 21.0038" stroke="#161924" stroke-width="1.5" stroke-linecap="round" stroke-linejoin="round"/>
<path d="M6.99788 5.99756H4.99705C3.89202 5.99756 2.99622 6.89336 2.99622 7.99839" stroke="#161924" stroke-width="1.5" stroke-linecap="round" stroke-linejoin="round"/>
<path d="M2.99624 12V15.0013" stroke="#161924" stroke-width="1.5" stroke-linecap="round" stroke-linejoin="round"/>
<path d="M8.99872 21.0039H12" stroke="#161924" stroke-width="1.5" stroke-linecap="round" stroke-linejoin="round"/>
<path fill-rule="evenodd" clip-rule="evenodd" d="M17.8917 2.99634H10.11C8.39126 2.99634 6.99792 4.38967 6.99792 6.10843V6.10843V13.8901C6.99792 15.6088 8.39126 17.0022 10.11 17.0022H17.8917C19.6104 17.0022 21.0038 15.6088 21.0038 13.8901V13.8901V6.10703C21.003 4.38882 19.6099 2.99634 17.8917 2.99634Z" stroke="#161924" stroke-width="1.5" stroke-linecap="round" stroke-linejoin="round"/>
<path d="M11.6655 7.85958H16.3341" stroke="#161924" stroke-width="1.5" stroke-linecap="round" stroke-linejoin="round"/>
<path d="M13.9998 7.85962V12.1392" stroke="#161924" stroke-width="1.5" stroke-linecap="round" stroke-linejoin="round"/>
</svg>
