<svg width="24" height="24" viewBox="0 0 24 24" fill="none" xmlns="http://www.w3.org/2000/svg">
<path d="M16.0293 5.91144L17.9441 3.99664L19.9729 6.02449" stroke="#323232" stroke-width="1.5" stroke-linecap="round" stroke-linejoin="round"/>
<path d="M8.74776 7.99835C8.74776 7.58414 8.41197 7.24835 7.99776 7.24835C7.58355 7.24835 7.24776 7.58414 7.24776 7.99835H7.99776H8.74776ZM7.24776 17.0021C7.24776 17.4163 7.58355 17.7521 7.99776 17.7521C8.41197 17.7521 8.74776 17.4163 8.74776 17.0021H7.99776H7.24776ZM3.99609 7.24835C3.58188 7.24835 3.24609 7.58414 3.24609 7.99835C3.24609 8.41257 3.58188 8.74835 3.99609 8.74835V7.99835V7.24835ZM11.9994 8.74835C12.4136 8.74835 12.7494 8.41257 12.7494 7.99835C12.7494 7.58414 12.4136 7.24835 11.9994 7.24835V7.99835V8.74835ZM7.99776 7.99835H7.24776V17.0021H7.99776H8.74776V7.99835H7.99776ZM3.99609 7.99835V8.74835H11.9994V7.99835V7.24835H3.99609V7.99835Z" fill="#323232"/>
<path d="M19.9729 18.0885L18.0581 20.0033L16.0293 17.9755" stroke="#323232" stroke-width="1.5" stroke-linecap="round" stroke-linejoin="round"/>
<path d="M18.0022 20.0033V3.99664" stroke="#323232" stroke-width="1.5" stroke-linecap="round" stroke-linejoin="round"/>
</svg>
