<svg width="24" height="24" viewBox="0 0 24 24" fill="none" xmlns="http://www.w3.org/2000/svg">
<path d="M8.29971 10.4995V20.0035" stroke="#161924" stroke-width="1.5" stroke-linecap="round" stroke-linejoin="round"/>
<path fill-rule="evenodd" clip-rule="evenodd" d="M8.29971 10.4996L10.6364 4.62759C10.8381 4.12087 11.4084 3.86902 11.9187 4.06136L12.5582 4.30237C13.7272 4.74294 14.501 5.86153 14.501 7.11077V10.4995H17.501C18.2712 10.4995 18.9984 10.8543 19.4724 11.4614C19.9463 12.0684 20.1142 12.86 19.9274 13.6072L18.8019 18.109C18.5236 19.2224 17.5232 20.0035 16.3756 20.0035H5.49727C4.6685 20.0035 3.99664 19.3316 3.99664 18.5029V12.0001C3.99664 11.1714 4.6685 10.4995 5.49727 10.4995L8.29971 10.4996Z" stroke="#161924" stroke-width="1.5" stroke-linecap="round" stroke-linejoin="round"/>
</svg>
