<svg width="24" height="24" viewBox="0 0 24 24" fill="none" xmlns="http://www.w3.org/2000/svg">
<path d="M20 20V9.78" stroke="#161924" stroke-width="1.5" stroke-linecap="round" stroke-linejoin="round"/>
<path fill-rule="evenodd" clip-rule="evenodd" d="M4.94295 21H3.56095C3.25195 21 3.00195 20.75 3.00195 20.441V16.059C3.00195 15.75 3.25195 15.5 3.56095 15.5H4.94295C5.25195 15.5 5.50195 15.75 5.50195 16.101V20.483C5.50195 20.75 5.25195 21 4.94295 21V21Z" stroke="#161924" stroke-width="1.5" stroke-linecap="round" stroke-linejoin="round"/>
<path d="M5.50195 19.815L6.58395 20.712C6.80795 20.898 7.09095 21 7.38195 21H10.965C11.414 21 11.809 20.702 11.933 20.27L12.665 17.708C12.776 17.321 12.711 16.904 12.488 16.569C12.236 16.19 11.813 15.963 11.36 15.963H10.74H9.84995" stroke="#161924" stroke-width="1.5" stroke-linecap="round" stroke-linejoin="round"/>
<path fill-rule="evenodd" clip-rule="evenodd" d="M4.30059 9.778C2.60259 9.766 1.49559 8.085 2.23159 6.636L3.94759 3.259C4.33759 2.489 5.15959 2 6.06159 2H17.9376C18.8396 2 19.6616 2.489 20.0526 3.259L21.7686 6.636C22.5046 8.085 21.3976 9.766 19.6996 9.778C18.2826 9.778 17.1336 8.81 17.1336 7.615V7.567C17.1336 8.788 15.9846 9.778 14.5676 9.778C13.1486 9.778 11.9996 8.788 11.9996 7.567C11.9996 8.788 10.8506 9.778 9.43359 9.778C8.01659 9.778 6.86759 8.788 6.86759 7.567V7.615C6.86659 8.81 5.71759 9.778 4.30059 9.778Z" stroke="#161924" stroke-width="1.5" stroke-linecap="round" stroke-linejoin="round"/>
<path d="M16 20H21" stroke="#161924" stroke-width="1.5" stroke-linecap="round" stroke-linejoin="round"/>
<path d="M9.84995 15.963V14.368C9.84995 13.004 8.05895 12.501 7.34795 13.664L5.50195 16.685" stroke="#161924" stroke-width="1.5" stroke-linecap="round" stroke-linejoin="round"/>
</svg>
