<svg width="24" height="24" viewBox="0 0 24 24" fill="none" xmlns="http://www.w3.org/2000/svg">
<path d="M5.99756 9.99913V4.99705C5.99756 3.89202 6.89336 2.99622 7.99839 2.99622H19.003C20.108 2.99622 21.0038 3.89202 21.0038 4.99705V19.0029C21.0038 20.1079 20.108 21.0037 19.003 21.0037H15.0013" stroke="#161924" stroke-width="1.5" stroke-linecap="round" stroke-linejoin="round"/>
<path d="M9.99927 6.99789H17.0022" stroke="#161924" stroke-width="1.5" stroke-linecap="round" stroke-linejoin="round"/>
<path d="M12 10.9996H17.0021" stroke="#161924" stroke-width="1.5" stroke-linecap="round" stroke-linejoin="round"/>
<path d="M17.0023 15.0012H15.0015" stroke="#161924" stroke-width="1.5" stroke-linecap="round" stroke-linejoin="round"/>
<path fill-rule="evenodd" clip-rule="evenodd" d="M4.93815 20.9787H3.55557C3.40725 20.9787 3.26501 20.9198 3.16013 20.8149C3.05526 20.7101 2.99634 20.5678 2.99634 20.4195V20.4195V16.0357C2.99634 15.8874 3.05526 15.7451 3.16013 15.6402C3.26501 15.5354 3.40725 15.4764 3.55557 15.4764H4.93815C5.08912 15.4788 5.23297 15.5411 5.33804 15.6495C5.44311 15.758 5.50079 15.9037 5.49838 16.0547V20.4565C5.48229 20.7528 5.23487 20.9835 4.93815 20.9787V20.9787Z" stroke="#161924" stroke-width="1.5" stroke-linecap="round" stroke-linejoin="round"/>
<path d="M5.49731 16.6619L7.34608 13.6437C7.66192 13.13 8.28004 12.8879 8.86073 13.0505C9.44142 13.2131 9.84396 13.7409 9.84713 14.344V15.9446H11.3578C11.8117 15.9448 12.2354 16.1725 12.4862 16.5509C12.7094 16.8864 12.7742 17.3029 12.6633 17.6904L11.931 20.2534C11.807 20.6855 11.4121 20.9833 10.9626 20.9837H7.3801C7.08794 20.9837 6.80493 20.8818 6.57977 20.6956L5.49731 19.7952" stroke="#161924" stroke-width="1.5" stroke-linecap="round" stroke-linejoin="round"/>
</svg>
