<svg width="24" height="24" viewBox="0 0 24 24" fill="none" xmlns="http://www.w3.org/2000/svg">
<path d="M21.004 14.0008V19.289C21.0035 20.2358 20.2361 21.0032 19.2893 21.0037H16.002" stroke="#161924" stroke-width="1.5" stroke-linecap="round" stroke-linejoin="round"/>
<path d="M2.99609 12V4.71096C2.99665 3.76418 3.76403 2.9968 4.71081 2.99625H8.99859" stroke="#161924" stroke-width="1.5" stroke-linecap="round" stroke-linejoin="round"/>
<circle cx="16.5019" cy="6.99791" r="4.50187" stroke="#161924" stroke-width="1.5" stroke-linecap="round" stroke-linejoin="round"/>
<path d="M5.74707 19.8233L6.82826 20.7162C7.05328 20.9021 7.33601 21.0037 7.62785 21.0037H11.2936C11.7403 21.0037 12.1328 20.7077 12.2555 20.2782L12.9414 17.8775C13.0708 17.4248 12.9801 16.9375 12.6966 16.5616C12.413 16.1857 11.9694 15.9646 11.4986 15.9646H10.2489V14.5037C10.2489 13.832 9.80264 13.2422 9.15628 13.0596C8.50993 12.877 7.82096 13.1461 7.46952 13.7185L5.74707 16.5237" stroke="#161924" stroke-width="1.5" stroke-linecap="round" stroke-linejoin="round"/>
<rect x="2.99609" y="15.5015" width="2.75115" height="5.50229" rx="0.5" stroke="#161924" stroke-width="1.5" stroke-linecap="round" stroke-linejoin="round"/>
<path d="M18.0022 6.24759L16.1274 8.12337L15.001 6.9979" stroke="#161924" stroke-width="1.5" stroke-linecap="round" stroke-linejoin="round"/>
</svg>
