<svg width="24" height="24" viewBox="0 0 24 24" fill="none" xmlns="http://www.w3.org/2000/svg">
<path d="M17.3343 6.58252L15.0428 8.87514L13.666 7.49957" stroke="#161924" stroke-width="1.5" stroke-linecap="round" stroke-linejoin="round"/>
<path d="M16.0015 12.9752C18.9623 12.7042 21.1721 10.1297 20.9911 7.16207C20.8101 4.1944 18.3038 1.90755 15.332 1.9984C12.3602 2.08926 9.99839 4.52494 9.99902 7.49813C9.99902 7.66702 10.0093 7.83335 10.0242 7.99834" stroke="#161924" stroke-width="1.5" stroke-linecap="round" stroke-linejoin="round"/>
<rect x="2.99609" y="14.8137" width="3.00125" height="6.19006" rx="0.5" stroke="#161924" stroke-width="1.5" stroke-linecap="round" stroke-linejoin="round"/>
<path d="M6.0918 19.6757L7.30812 20.6803C7.56127 20.8893 7.87934 21.0037 8.20767 21.0037H12.2988C12.9688 21.0037 13.5576 20.5596 13.7417 19.9154L14.4356 17.4867C14.5811 16.9774 14.4791 16.4292 14.1601 16.0063C13.8411 15.5834 13.3421 15.3347 12.8123 15.3347H11.0001" stroke="#161924" stroke-width="1.5" stroke-linecap="round" stroke-linejoin="round"/>
<path d="M11.0001 15.3347V13.6703C11.0001 12.924 10.5042 12.2686 9.78605 12.0657C9.06786 11.8628 8.30232 12.1619 7.91184 12.7979L5.99805 15.9148" stroke="#161924" stroke-width="1.5" stroke-linecap="round" stroke-linejoin="round"/>
</svg>
