<svg width="24" height="24" viewBox="0 0 24 24" fill="none" xmlns="http://www.w3.org/2000/svg">
<path fill-rule="evenodd" clip-rule="evenodd" d="M14 20H19C20.105 20 21 19.105 21 18V6C21 4.895 20.105 4 19 4H5C3.895 4 3 4.895 3 6V18C3 19.105 3.895 20 5 20H10L12 22L14 20Z" stroke="#161924" stroke-width="1.5" stroke-linecap="round" stroke-linejoin="round"/>
<path fill-rule="evenodd" clip-rule="evenodd" d="M9.0826 15.992H7.7006C7.3916 15.992 7.1416 15.742 7.1416 15.433V11.051C7.1416 10.742 7.3916 10.492 7.7006 10.492H9.0826C9.3916 10.492 9.6416 10.742 9.6416 11.093V15.475C9.6416 15.742 9.3916 15.992 9.0826 15.992V15.992Z" stroke="#161924" stroke-width="1.5" stroke-linecap="round" stroke-linejoin="round"/>
<path d="M9.6416 11.677L11.4876 8.656C12.1986 7.493 13.9896 7.996 13.9896 9.36V10.955H14.8796H15.4996C15.9526 10.955 16.3756 11.182 16.6276 11.561C16.8506 11.896 16.9156 12.313 16.8046 12.7L16.0726 15.262C15.9486 15.694 15.5536 15.992 15.1046 15.992H11.5216C11.2306 15.992 10.9476 15.89 10.7236 15.704L9.6416 14.807" stroke="#161924" stroke-width="1.5" stroke-linecap="round" stroke-linejoin="round"/>
</svg>
