<svg width="24" height="24" viewBox="0 0 24 24" fill="none" xmlns="http://www.w3.org/2000/svg">
<path d="M21.0035 15.0012V19.289C21.0029 20.2358 20.2355 21.0032 19.2888 21.0037H15.001" stroke="#161924" stroke-width="1.5" stroke-linecap="round" stroke-linejoin="round"/>
<path d="M2.99609 8.99872V4.71093C2.99665 3.76415 3.76403 2.99677 4.71081 2.99622H8.99859" stroke="#161924" stroke-width="1.5" stroke-linecap="round" stroke-linejoin="round"/>
<path fill-rule="evenodd" clip-rule="evenodd" d="M3.9379 19.9873H2.55533C2.24647 19.9873 1.99609 19.7369 1.99609 19.428V15.0442C1.99609 14.7354 2.24647 14.485 2.55533 14.485H3.9379C4.09266 14.4875 4.23973 14.5529 4.34524 14.6661C4.45074 14.7794 4.50559 14.9307 4.49714 15.0852V19.4691C4.479 19.7634 4.23278 19.9916 3.9379 19.9873V19.9873Z" stroke="#161924" stroke-width="1.5" stroke-linecap="round" stroke-linejoin="round"/>
<path d="M4.49707 15.6706L6.34384 12.6483C6.65968 12.1346 7.2778 11.8925 7.85849 12.0551C8.43918 12.2177 8.84172 12.7456 8.84488 13.3486V14.9443H10.3555C10.8095 14.9445 11.2332 15.1721 11.484 15.5505C11.7072 15.886 11.7719 16.3026 11.6611 16.69L10.9287 19.2531C10.8048 19.6851 10.4098 19.983 9.96035 19.9834H6.37785C6.08562 19.9837 5.80248 19.8818 5.57752 19.6952L4.49707 18.8029" stroke="#161924" stroke-width="1.5" stroke-linecap="round" stroke-linejoin="round"/>
<path d="M13.0402 6.14551V10.9995" stroke="#161924" stroke-width="1.5" stroke-linecap="round" stroke-linejoin="round"/>
<path d="M20.9641 7.99828V6.14551" stroke="#161924" stroke-width="1.5" stroke-linecap="round" stroke-linejoin="round"/>
<path fill-rule="evenodd" clip-rule="evenodd" d="M15.2494 4.99712H15.3065C15.5446 5.73376 16.2305 6.23286 17.0047 6.23286C17.7788 6.23286 18.4647 5.73376 18.7029 4.99712H18.7599C18.961 5.76051 19.6725 6.27616 20.4606 6.22963C20.9776 6.24875 21.4671 5.9966 21.7517 5.56456C22.0364 5.13252 22.0748 4.58324 21.8532 4.11575L21.1939 2.81521C20.9368 2.31066 20.4176 1.9938 19.8513 1.99586H14.149C13.5837 1.99569 13.0663 2.31317 12.8104 2.81721L12.1521 4.11775C11.9299 4.58521 11.9681 5.13483 12.2528 5.56707C12.5376 5.99932 13.0275 6.25133 13.5447 6.23163C14.3346 6.27913 15.0481 5.76239 15.2494 4.99712Z" stroke="#161924" stroke-width="1.5" stroke-linecap="round" stroke-linejoin="round"/>
<path d="M20.9641 10.9995V6.14551" stroke="#161924" stroke-width="1.5" stroke-linecap="round" stroke-linejoin="round"/>
<path d="M17.0022 10.9996V8.99878" stroke="#161924" stroke-width="1.5" stroke-linecap="round" stroke-linejoin="round"/>
<path d="M12.4443 10.9996H21.5601" stroke="#161924" stroke-width="1.5" stroke-linecap="round" stroke-linejoin="round"/>
</svg>
