<svg width="24" height="24" viewBox="0 0 24 24" fill="none" xmlns="http://www.w3.org/2000/svg">
<path fill-rule="evenodd" clip-rule="evenodd" d="M11.6879 7.21503C11.8148 7.04539 12.0347 6.97409 12.237 7.03702C12.4393 7.09995 12.58 7.28347 12.5883 7.49514V10.7475H15.5015C15.6841 10.7503 15.8507 10.8523 15.9361 11.0137C16.0215 11.1752 16.0121 11.3703 15.9116 11.5228L12.3101 16.785C12.1833 16.9546 11.9633 17.026 11.761 16.963C11.5587 16.9001 11.418 16.7166 11.4098 16.5049V13.2525H8.49855C8.31579 13.2497 8.14915 13.1473 8.06393 12.9856C7.9787 12.8239 7.98846 12.6286 8.08938 12.4762L11.6879 7.21503Z" stroke="#161924" stroke-width="1.5" stroke-linecap="round" stroke-linejoin="round"/>
<path fill-rule="evenodd" clip-rule="evenodd" d="M2.99625 6.998C2.99625 4.78795 4.78785 2.99634 6.99791 2.99634H17.0021C19.2121 2.99634 21.0037 4.78795 21.0037 6.998V17.0022C21.0037 19.2122 19.2121 21.0038 17.0021 21.0038H6.99791C4.78785 21.0038 2.99625 19.2122 2.99625 17.0022V6.998Z" stroke="#161924" stroke-width="1.5" stroke-linecap="round" stroke-linejoin="round"/>
</svg>
