<svg width="24" height="24" viewBox="0 0 24 24" fill="none" xmlns="http://www.w3.org/2000/svg">
<circle cx="12" cy="12.0001" r="9.00375" stroke="#161924" stroke-width="1.5" stroke-linecap="round" stroke-linejoin="round"/>
<path d="M5.5602 5.71143L8.06053 8.21247" stroke="#161924" stroke-width="1.5" stroke-linecap="round" stroke-linejoin="round"/>
<path d="M15.785 15.9395L18.286 18.4412" stroke="#161924" stroke-width="1.5" stroke-linecap="round" stroke-linejoin="round"/>
<path fill-rule="evenodd" clip-rule="evenodd" d="M11.6879 7.21503C11.8148 7.04539 12.0347 6.97409 12.237 7.03702C12.4393 7.09995 12.58 7.28347 12.5882 7.49514V10.7475H15.5015C15.6841 10.7503 15.8507 10.8523 15.9361 11.0137C16.0215 11.1752 16.0121 11.3703 15.9116 11.5228L12.3101 16.785C12.1832 16.9546 11.9633 17.026 11.761 16.963C11.5587 16.9001 11.418 16.7166 11.4097 16.5049V13.2525H8.49854C8.31593 13.2498 8.14934 13.1477 8.06394 12.9863C7.97853 12.8249 7.9879 12.6297 8.08836 12.4772L11.6879 7.21503Z" stroke="#161924" stroke-width="1.5" stroke-linecap="round" stroke-linejoin="round"/>
</svg>
