<svg width="24" height="24" viewBox="0 0 24 24" fill="none" xmlns="http://www.w3.org/2000/svg">
<path d="M22.0041 17.0021V14.0008C22.0041 13.1712 20.3234 12.5002 18.2525 12.5002C16.1817 12.5002 14.502 13.1723 14.501 14.0008V20.0033C14.502 20.8319 16.1806 21.5039 18.2525 21.5039C20.3245 21.5039 22.003 20.8319 22.0041 20.0033V14.0008" stroke="#161924" stroke-width="1.5" stroke-linecap="round" stroke-linejoin="round"/>
<path d="M7.62793 13.8668L11.2855 11.6368V6.98389" stroke="#161924" stroke-width="1.5" stroke-linecap="round" stroke-linejoin="round"/>
<path d="M19.7731 8.99874C18.7247 4.40632 14.3129 1.39892 9.65501 2.10157C4.99714 2.80421 1.66877 6.97924 2.02174 11.6766C2.37471 16.3739 6.28961 20.0046 11.0002 20.0033" stroke="#161924" stroke-width="1.5" stroke-linecap="round" stroke-linejoin="round"/>
<path d="M14.502 14.0009C14.502 14.8294 16.1816 15.5015 18.2535 15.5015C20.3254 15.5015 22.004 14.8294 22.004 14.0009" stroke="#161924" stroke-width="1.5" stroke-linecap="round" stroke-linejoin="round"/>
<path d="M14.502 17.0021C14.502 17.8306 16.1816 18.5027 18.2535 18.5027C20.3254 18.5027 22.0051 17.8306 22.0051 17.0021" stroke="#161924" stroke-width="1.5" stroke-linecap="round" stroke-linejoin="round"/>
</svg>
