<svg width="24" height="24" viewBox="0 0 24 24" fill="none" xmlns="http://www.w3.org/2000/svg">
<path d="M11.4998 7.99854V11.5L13.2685 13.2687" stroke="#161924" stroke-width="1.5" stroke-linecap="round" stroke-linejoin="round"/>
<path d="M14.311 19.5234C10.5629 20.8388 6.40335 19.3865 4.28846 16.0242C2.17357 12.6618 2.66585 8.2836 5.47461 5.47484C8.28337 2.66608 12.6616 2.1738 16.0239 4.28869C19.3863 6.40358 20.8385 10.5631 19.5231 14.3112" stroke="#161924" stroke-width="1.5" stroke-linecap="round" stroke-linejoin="round"/>
<path d="M14.0008 18.0026C14.0008 20.2127 15.7924 22.0043 18.0025 22.0043C20.2126 22.0043 22.0042 20.2127 22.0042 18.0026C22.0042 15.7926 20.2126 14.001 18.0025 14.001C15.7924 14.001 14.0008 15.7926 14.0008 18.0026" stroke="#161924" stroke-width="1.5" stroke-linecap="round" stroke-linejoin="round"/>
<path d="M19.3921 18.0026C19.3921 18.0303 19.3697 18.0527 19.3421 18.0527C19.3144 18.0527 19.292 18.0303 19.292 18.0026C19.292 17.975 19.3144 17.9526 19.3421 17.9526" stroke="#161924" stroke-width="1.5" stroke-linecap="round" stroke-linejoin="round"/>
<path d="M19.3421 17.9525C19.3697 17.9525 19.3921 17.9749 19.3921 18.0025" stroke="#161924" stroke-width="1.5" stroke-linecap="round" stroke-linejoin="round"/>
<path d="M16.719 18.0026C16.719 18.0303 16.6966 18.0527 16.6689 18.0527C16.6413 18.0527 16.6189 18.0303 16.6189 18.0026C16.6189 17.975 16.6413 17.9526 16.6689 17.9526" stroke="#161924" stroke-width="1.5" stroke-linecap="round" stroke-linejoin="round"/>
<path d="M16.6689 17.9525C16.6966 17.9525 16.719 17.9749 16.719 18.0025" stroke="#161924" stroke-width="1.5" stroke-linecap="round" stroke-linejoin="round"/>
</svg>
