<svg width="24" height="24" viewBox="0 0 24 24" fill="none" xmlns="http://www.w3.org/2000/svg">
<rect x="2.99634" y="2.99622" width="18.0075" height="18.0075" rx="5" stroke="#161924" stroke-width="1.5" stroke-linecap="round" stroke-linejoin="round"/>
<path fill-rule="evenodd" clip-rule="evenodd" d="M15.0013 12C15.0013 10.3425 13.6575 8.99875 12 8.99875V5.9975C15.3151 5.9975 18.0025 8.68491 18.0025 12H15.0013Z" stroke="#161924" stroke-width="1.5" stroke-linecap="round" stroke-linejoin="round"/>
<path d="M12.0001 7.52312C11.9151 7.52312 11.8361 7.49811 11.75 7.49811C9.12558 7.49811 6.99805 9.62564 6.99805 12.2501C6.99805 14.8745 9.12558 17.0021 11.75 17.0021C14.3745 17.0021 16.502 14.8745 16.502 12.2501C16.502 12.1641 16.481 12.084 16.477 12" stroke="#161924" stroke-width="1.5" stroke-linecap="round" stroke-linejoin="round"/>
<path d="M11.6999 12.051C11.5619 12.0516 11.4504 12.1638 11.4508 12.3018C11.4512 12.4398 11.5632 12.5514 11.7012 12.5512C11.8392 12.551 11.951 12.4391 11.951 12.3011C11.9513 12.2345 11.9249 12.1706 11.8777 12.1236C11.8305 12.0766 11.7665 12.0505 11.6999 12.051" stroke="#161924" stroke-width="1.5" stroke-linecap="round" stroke-linejoin="round"/>
</svg>
