<svg width="24" height="24" viewBox="0 0 24 24" fill="none" xmlns="http://www.w3.org/2000/svg">
<path d="M18.3643 3.879C21.8793 5.051 21.8793 6.95 18.3643 8.122C14.8493 9.294 9.15125 9.294 5.63625 8.122C2.12125 6.95 2.12125 5.051 5.63625 3.879C9.15125 2.707 14.8493 2.707 18.3643 3.879" stroke="#161924" stroke-width="1.5" stroke-linecap="round" stroke-linejoin="round"/>
<path d="M19.5 11.5C17.902 12.399 15.155 13 12 13C8.845 13 6.098 12.399 4.5 11.5" stroke="#161924" stroke-width="1.5" stroke-linecap="round" stroke-linejoin="round"/>
<path d="M18 16C16.722 16.599 14.524 17 12 17C9.476 17 7.278 16.599 6 16" stroke="#161924" stroke-width="1.5" stroke-linecap="round" stroke-linejoin="round"/>
<path d="M16 20.5C15.148 20.8 13.683 21 12 21C10.317 21 8.852 20.8 8 20.5" stroke="#161924" stroke-width="1.5" stroke-linecap="round" stroke-linejoin="round"/>
</svg>
