<svg width="24" height="24" viewBox="0 0 24 24" fill="none" xmlns="http://www.w3.org/2000/svg">
<path d="M20.21 18.86L21.64 21" stroke="#161924" stroke-width="1.5" stroke-linecap="round" stroke-linejoin="round"/>
<path d="M4 7V17" stroke="#161924" stroke-width="1.5" stroke-linecap="round" stroke-linejoin="round"/>
<path d="M21.4142 3.58579C22.1953 4.36684 22.1953 5.63317 21.4142 6.41422C20.6332 7.19527 19.3668 7.19527 18.5858 6.41422C17.8047 5.63317 17.8047 4.36684 18.5858 3.58579C19.3668 2.80474 20.6332 2.80474 21.4142 3.58579" stroke="#161924" stroke-width="1.5" stroke-linecap="round" stroke-linejoin="round"/>
<path d="M20 7V10C20 11.105 19.105 12 18 12H4" stroke="#161924" stroke-width="1.5" stroke-linecap="round" stroke-linejoin="round"/>
<path d="M13.4142 3.58579C14.1953 4.36684 14.1953 5.63317 13.4142 6.41422C12.6332 7.19527 11.3668 7.19527 10.5858 6.41422C9.80474 5.63317 9.80474 4.36684 10.5858 3.58579C11.3668 2.80474 12.6332 2.80474 13.4142 3.58579" stroke="#161924" stroke-width="1.5" stroke-linecap="round" stroke-linejoin="round"/>
<path d="M5.41422 3.58579C6.19527 4.36684 6.19527 5.63317 5.41422 6.41422C4.63317 7.19527 3.36684 7.19527 2.58579 6.41422C1.80474 5.63317 1.80474 4.36684 2.58579 3.58579C3.36684 2.80474 4.63317 2.80474 5.41422 3.58579" stroke="#161924" stroke-width="1.5" stroke-linecap="round" stroke-linejoin="round"/>
<path d="M13.4142 17.5858C14.1953 18.3668 14.1953 19.6332 13.4142 20.4142C12.6332 21.1953 11.3668 21.1953 10.5858 20.4142C9.80474 19.6332 9.80474 18.3668 10.5858 17.5858C11.3668 16.8047 12.6332 16.8047 13.4142 17.5858" stroke="#161924" stroke-width="1.5" stroke-linecap="round" stroke-linejoin="round"/>
<path d="M5.41422 17.5858C6.19527 18.3668 6.19527 19.6332 5.41422 20.4142C4.63317 21.1953 3.36684 21.1953 2.58579 20.4142C1.80474 19.6332 1.80474 18.3668 2.58579 17.5858C3.36684 16.8047 4.63317 16.8047 5.41422 17.5858" stroke="#161924" stroke-width="1.5" stroke-linecap="round" stroke-linejoin="round"/>
<path d="M12 7V17" stroke="#161924" stroke-width="1.5" stroke-linecap="round" stroke-linejoin="round"/>
<path d="M18.071 18.859H20.21C20.999 18.859 21.64 18.218 21.64 17.429C21.64 16.64 20.999 16 20.21 16H18.071V16.004V21" stroke="#161924" stroke-width="1.5" stroke-linecap="round" stroke-linejoin="round"/>
</svg>
