<svg width="24" height="24" viewBox="0 0 24 24" fill="none" xmlns="http://www.w3.org/2000/svg">
<path d="M8 4L6.5 5.5" stroke="#161924" stroke-width="1.5" stroke-linecap="round" stroke-linejoin="round"/>
<path d="M6.5 2.5L8 4" stroke="#161924" stroke-width="1.5" stroke-linecap="round" stroke-linejoin="round"/>
<path d="M8 4H6C4.343 4 3 5.343 3 7" stroke="#161924" stroke-width="1.5" stroke-linecap="round" stroke-linejoin="round"/>
<path d="M16 20L17.5 18.5" stroke="#161924" stroke-width="1.5" stroke-linecap="round" stroke-linejoin="round"/>
<path d="M17.5 21.5L16 20" stroke="#161924" stroke-width="1.5" stroke-linecap="round" stroke-linejoin="round"/>
<path d="M16 20H18C19.657 20 21 18.657 21 17" stroke="#161924" stroke-width="1.5" stroke-linecap="round" stroke-linejoin="round"/>
<path d="M10.1528 6.15299C10.2948 5.96599 10.4408 5.78099 10.6108 5.61099C12.7498 3.47199 16.2498 3.47199 18.3888 5.61099C20.5278 7.74999 20.5278 11.25 18.3888 13.389C18.2178 13.56 18.0308 13.703 17.8418 13.842" stroke="#161924" stroke-width="1.5" stroke-linecap="round" stroke-linejoin="round"/>
<path d="M9.49998 20C12.525 20 15.001 17.525 15.001 14.501C15.001 11.477 12.525 9 9.49998 9C6.47498 9 4.00098 11.475 4.00098 14.501C4.00098 15.735 4.41798 16.873 5.10998 17.793C6.11598 19.129 7.70998 20 9.49998 20" stroke="#161924" stroke-width="1.5" stroke-linecap="round" stroke-linejoin="round"/>
<path d="M9.5 12.251V11.751" stroke="#161924" stroke-width="1.5" stroke-linecap="round" stroke-linejoin="round"/>
<path d="M9.5 16.751V17.251" stroke="#161924" stroke-width="1.5" stroke-linecap="round" stroke-linejoin="round"/>
<path d="M8.198 16.214C8.392 16.532 8.724 16.752 9.125 16.752H9.5H9.947C10.529 16.752 11 16.28 11 15.699C11 15.216 10.671 14.795 10.203 14.677L8.797 14.324C8.329 14.207 8 13.786 8 13.303C8 12.721 8.472 12.25 9.053 12.25H9.5H9.875C10.275 12.25 10.606 12.469 10.8 12.786" stroke="#161924" stroke-width="1.5" stroke-linecap="round" stroke-linejoin="round"/>
</svg>
