<svg width="24" height="24" viewBox="0 0 24 24" fill="none" xmlns="http://www.w3.org/2000/svg">
<path fill-rule="evenodd" clip-rule="evenodd" d="M6.828 19.828L4.171 17.171C3.421 16.421 3 15.404 3 14.343V9.657C3 8.596 3.421 7.579 4.172 6.829L6.829 4.172C7.579 3.421 8.596 3 9.657 3H14.342C15.403 3 16.42 3.421 17.17 4.172L19.828 6.83C20.579 7.58 21 8.597 21 9.658V14.342C21 15.403 20.579 16.42 19.829 17.17L17.172 19.828C16.422 20.578 15.404 21 14.343 21H9.657C8.596 21 7.579 20.579 6.828 19.828Z" stroke="#161924" stroke-width="1.5" stroke-linecap="round" stroke-linejoin="round"/>
<path d="M8 9.93399H16" stroke="#161924" stroke-width="1.5" stroke-linecap="round" stroke-linejoin="round"/>
<path d="M10.25 9.93399V8.43399C10.25 7.88199 10.642 7.43399 11.125 7.43399H12.875C13.358 7.43399 13.75 7.88199 13.75 8.43399V9.93399" stroke="#161924" stroke-width="1.5" stroke-linecap="round" stroke-linejoin="round"/>
<path d="M8.875 9.93399V15.684C8.875 16.236 9.323 16.684 9.875 16.684H14.125C14.677 16.684 15.125 16.236 15.125 15.684V9.93399" stroke="#161924" stroke-width="1.5" stroke-linecap="round" stroke-linejoin="round"/>
</svg>
