<svg width="24" height="24" viewBox="0 0 24 24" fill="none" xmlns="http://www.w3.org/2000/svg">
<path fill-rule="evenodd" clip-rule="evenodd" d="M16.4591 21.431L14.4631 15.055C14.2521 14.382 14.9411 13.78 15.5801 14.078L21.5331 16.856C22.2391 17.185 22.1201 18.223 21.3581 18.384L18.9071 18.903L17.9971 21.46C17.7361 22.194 16.6911 22.174 16.4591 21.431V21.431Z" stroke="#161924" stroke-width="1.5" stroke-linecap="round" stroke-linejoin="round"/>
<path d="M20 11H15.828C14.266 11 13 9.73399 13 8.17199V8.17199C13 7.42199 13.298 6.70199 13.828 6.17199L16.282 3.71799" stroke="#161924" stroke-width="1.5" stroke-linecap="round" stroke-linejoin="round"/>
<path d="M4.70802 17.438L6.48502 14.773C6.80702 14.29 7.34802 14 7.92802 14V14C8.58502 14 9.18502 13.629 9.47902 13.041L9.61202 12.775C9.85602 12.287 9.85602 11.712 9.61202 11.224L8.47902 8.959C8.18602 8.371 7.58502 8 6.92802 8H2.52002" stroke="#161924" stroke-width="1.5" stroke-linecap="round" stroke-linejoin="round"/>
<path d="M11 2C6.018 2 2 6.018 2 11C2 15.982 6.018 20 11 20" stroke="#161924" stroke-width="1.5" stroke-linecap="round" stroke-linejoin="round"/>
<path d="M20 11C20 6.018 15.982 2 11 2" stroke="#161924" stroke-width="1.5" stroke-linecap="round" stroke-linejoin="round"/>
</svg>
