<svg width="24" height="24" viewBox="0 0 24 24" fill="none" xmlns="http://www.w3.org/2000/svg">
<path fill-rule="evenodd" clip-rule="evenodd" d="M5.63576 5.63601V5.63601C9.15076 2.12101 14.8488 2.12101 18.3638 5.63601V5.63601C21.8788 9.15101 21.8788 14.849 18.3638 18.364V18.364C14.8488 21.879 9.15076 21.879 5.63576 18.364V18.364C2.12076 14.849 2.12076 9.15101 5.63576 5.63601Z" stroke="#161924" stroke-width="1.5" stroke-linecap="round" stroke-linejoin="round"/>
<path fill-rule="evenodd" clip-rule="evenodd" d="M7.90354 15.507L9.03954 9.825C9.11954 9.429 9.42854 9.12 9.82454 9.041L15.5065 7.905C15.8565 7.835 16.1645 8.143 16.0945 8.493L14.9585 14.175C14.8795 14.571 14.5695 14.88 14.1745 14.959L8.49254 16.095C8.14254 16.166 7.83354 15.857 7.90354 15.507Z" stroke="#161924" stroke-width="1.5" stroke-linecap="round" stroke-linejoin="round"/>
<path d="M11.999 11.75C11.861 11.75 11.749 11.862 11.75 12C11.75 12.138 11.862 12.25 12 12.25C12.138 12.25 12.25 12.138 12.25 12C12.25 11.862 12.138 11.75 11.999 11.75" stroke="#161924" stroke-width="1.5" stroke-linecap="round" stroke-linejoin="round"/>
</svg>
