<svg width="24" height="24" viewBox="0 0 24 24" fill="none" xmlns="http://www.w3.org/2000/svg">
<path d="M5.25 12H8.379C9.55 12 10.5 11.05 10.5 9.87899V9.87899C10.5 9.31599 10.277 8.77699 9.879 8.37899L8.038 6.53799" stroke="#161924" stroke-width="1.5" stroke-linecap="round" stroke-linejoin="round"/>
<path d="M16.7191 16.828L15.3861 14.829C15.1451 14.467 14.7391 14.25 14.3041 14.25V14.25C13.8111 14.25 13.3611 13.972 13.1411 13.531L13.0411 13.332C12.8581 12.966 12.8581 12.535 13.0411 12.169L13.8911 10.47C14.1111 10.029 14.5621 9.75101 15.0541 9.75101H18.3601" stroke="#161924" stroke-width="1.5" stroke-linecap="round" stroke-linejoin="round"/>
<path d="M12 5.25C15.737 5.25 18.75 8.263 18.75 12C18.75 15.737 15.737 18.75 12 18.75" stroke="#161924" stroke-width="1.5" stroke-linecap="round" stroke-linejoin="round"/>
<path d="M12 18.75C8.263 18.75 5.25 15.737 5.25 12C5.25 8.263 8.263 5.25 12 5.25" stroke="#161924" stroke-width="1.5" stroke-linecap="round" stroke-linejoin="round"/>
<path d="M4.59033 5.67299C5.09033 5.08799 5.65933 4.56699 6.28233 4.11499" stroke="#161924" stroke-width="1.5" stroke-linecap="round" stroke-linejoin="round"/>
<path d="M17.4171 20.106C15.8671 21.143 14.0051 21.75 12.0001 21.75C11.0121 21.75 10.0601 21.6 9.16113 21.327" stroke="#161924" stroke-width="1.5" stroke-linecap="round" stroke-linejoin="round"/>
<path d="M5.87838 19.583C4.49038 18.461 3.42438 16.965 2.81738 15.25" stroke="#161924" stroke-width="1.5" stroke-linecap="round" stroke-linejoin="round"/>
<path d="M2.81719 8.75C2.45619 9.768 2.25019 10.859 2.25019 12" stroke="#161924" stroke-width="1.5" stroke-linecap="round" stroke-linejoin="round"/>
<path d="M20.085 17.417C21.129 15.867 21.75 14.01 21.75 12C21.75 6.615 17.385 2.25 12 2.25" stroke="#161924" stroke-width="1.5" stroke-linecap="round" stroke-linejoin="round"/>
</svg>
