<svg width="24" height="24" viewBox="0 0 24 24" fill="none" xmlns="http://www.w3.org/2000/svg">
<path d="M22.4994 5.25V11.25C22.4994 11.4489 22.4204 11.6397 22.2798 11.7803C22.1391 11.921 21.9484 12 21.7494 12C21.5505 12 21.3598 11.921 21.2191 11.7803C21.0785 11.6397 20.9994 11.4489 20.9994 11.25V7.06031L13.2801 14.7806C13.2104 14.8504 13.1277 14.9057 13.0366 14.9434C12.9456 14.9812 12.848 15.0006 12.7494 15.0006C12.6509 15.0006 12.5533 14.9812 12.4622 14.9434C12.3712 14.9057 12.2885 14.8504 12.2188 14.7806L8.99944 11.5603L2.78007 17.7806C2.63934 17.9214 2.44846 18.0004 2.24944 18.0004C2.05042 18.0004 1.85955 17.9214 1.71882 17.7806C1.57809 17.6399 1.49902 17.449 1.49902 17.25C1.49902 17.051 1.57809 16.8601 1.71882 16.7194L8.46881 9.96937C8.53847 9.89964 8.62119 9.84432 8.71224 9.80658C8.80328 9.76884 8.90088 9.74941 8.99944 9.74941C9.098 9.74941 9.1956 9.76884 9.28665 9.80658C9.37769 9.84432 9.46041 9.89964 9.53007 9.96937L12.7494 13.1897L19.9391 6H15.7494C15.5505 6 15.3598 5.92098 15.2191 5.78033C15.0785 5.63968 14.9994 5.44891 14.9994 5.25C14.9994 5.05109 15.0785 4.86032 15.2191 4.71967C15.3598 4.57902 15.5505 4.5 15.7494 4.5H21.7494C21.9484 4.5 22.1391 4.57902 22.2798 4.71967C22.4204 4.86032 22.4994 5.05109 22.4994 5.25Z" fill="#161924"/>
</svg>
