<svg width="24" height="24" viewBox="0 0 24 24" fill="none" xmlns="http://www.w3.org/2000/svg">
<path d="M22.4994 12.75V18.75C22.4994 18.9489 22.4204 19.1397 22.2798 19.2803C22.1391 19.421 21.9484 19.5 21.7494 19.5H15.7494C15.5505 19.5 15.3598 19.421 15.2191 19.2803C15.0785 19.1397 14.9994 18.9489 14.9994 18.75C14.9994 18.5511 15.0785 18.3603 15.2191 18.2197C15.3598 18.079 15.5505 18 15.7494 18H19.9391L12.7494 10.8103L9.53007 14.0306C9.46041 14.1003 9.37769 14.1557 9.28665 14.1934C9.1956 14.2312 9.098 14.2506 8.99944 14.2506C8.90088 14.2506 8.80328 14.2312 8.71224 14.1934C8.62119 14.1557 8.53847 14.1003 8.46881 14.0306L1.71882 7.28062C1.57809 7.13988 1.49902 6.94901 1.49902 6.74999C1.49902 6.55097 1.57809 6.36009 1.71882 6.21936C1.85955 6.07863 2.05042 5.99957 2.24944 5.99957C2.44846 5.99957 2.63934 6.07863 2.78007 6.21936L8.99944 12.4397L12.2188 9.21936C12.2885 9.14963 12.3712 9.09431 12.4622 9.05657C12.5533 9.01883 12.6509 8.9994 12.7494 8.9994C12.848 8.9994 12.9456 9.01883 13.0366 9.05657C13.1277 9.09431 13.2104 9.14963 13.2801 9.21936L20.9994 16.9397V12.75C20.9994 12.5511 21.0785 12.3603 21.2191 12.2197C21.3598 12.079 21.5505 12 21.7494 12C21.9484 12 22.1391 12.079 22.2798 12.2197C22.4204 12.3603 22.4994 12.5511 22.4994 12.75Z" fill="#161924"/>
</svg>
