<svg width="24" height="24" viewBox="0 0 24 24" fill="none" xmlns="http://www.w3.org/2000/svg">
<path fill-rule="evenodd" clip-rule="evenodd" d="M16.75 7H17.5C18.0523 7 18.5 7.44772 18.5 8V11C18.5 11.5523 18.0523 12 17.5 12H16.75C16.4185 12 16.1005 11.8683 15.8661 11.6339C15.6317 11.3995 15.5 11.0815 15.5 10.75V8.25C15.5 7.55964 16.0596 7 16.75 7Z" stroke="#161924" stroke-width="1.5" stroke-linecap="round" stroke-linejoin="round"/>
<rect x="22" y="22" width="20" height="20" rx="5" transform="rotate(180 22 22)" stroke="#161924" stroke-width="1.5" stroke-linecap="round" stroke-linejoin="round"/>
<path d="M15.5262 10.9999H11" stroke="#161924" stroke-width="1.5" stroke-linecap="round" stroke-linejoin="round"/>
<circle cx="11" cy="13" r="2" stroke="#161924" stroke-width="1.5" stroke-linecap="round" stroke-linejoin="round"/>
<path d="M15.9998 11.748V12.9996C16 15.761 13.7616 17.9998 11.0002 18H10.9994C8.8497 18.0232 6.93123 16.6551 6.2528 14.6151C5.73863 13.0858 5.9914 11.4026 6.93204 10.0918C7.87269 8.78094 9.3864 8.00255 10.9998 8H15.5261" stroke="#161924" stroke-width="1.5" stroke-linecap="round" stroke-linejoin="round"/>
</svg>
