<svg width="24" height="24" viewBox="0 0 24 24" fill="none" xmlns="http://www.w3.org/2000/svg">
<path d="M21.0036 21.0038V4.99709C21.0036 4.44458 20.5557 3.99667 20.0032 3.99667H3.99651C3.444 3.99667 2.99609 4.44458 2.99609 4.99709V21.0038" stroke="#161924" stroke-width="1.5" stroke-linecap="round" stroke-linejoin="round"/>
<path d="M13.5003 21.0038V18.0025H10.499V21.0038" stroke="#161924" stroke-width="1.5" stroke-linecap="round" stroke-linejoin="round"/>
<path d="M9.99902 18.0025H14.0007" stroke="#161924" stroke-width="1.5" stroke-linecap="round" stroke-linejoin="round"/>
<path d="M1.99609 21.0037H22.0044" stroke="#161924" stroke-width="1.5" stroke-linecap="round" stroke-linejoin="round"/>
<path d="M12.0002 10.8745C11.9671 10.8745 11.9354 10.8877 11.9121 10.9112C11.8888 10.9347 11.8759 10.9665 11.8761 10.9996C11.8761 11.0686 11.9321 11.1246 12.0012 11.1246C12.0703 11.1246 12.1262 11.0686 12.1262 10.9996C12.1252 10.9306 12.0692 10.8751 12.0002 10.8745" stroke="#161924" stroke-width="1.5" stroke-linecap="round" stroke-linejoin="round"/>
<path d="M9.99902 14.0008H14.0007" stroke="#161924" stroke-width="1.5" stroke-linecap="round" stroke-linejoin="round"/>
<path d="M21.0036 9.99915H16.9259L12.438 7.30703C12.1212 7.11694 11.7254 7.11694 11.4086 7.30703L6.92173 9.99915H2.99609" stroke="#161924" stroke-width="1.5" stroke-linecap="round" stroke-linejoin="round"/>
<path d="M6.92208 9.99918V21.0038" stroke="#161924" stroke-width="1.5" stroke-linecap="round" stroke-linejoin="round"/>
<path d="M16.926 21.0038V9.99918" stroke="#161924" stroke-width="1.5" stroke-linecap="round" stroke-linejoin="round"/>
</svg>
