<svg width="24" height="24" viewBox="0 0 24 24" fill="none" xmlns="http://www.w3.org/2000/svg">
<path fill-rule="evenodd" clip-rule="evenodd" d="M12 21C16.9706 21 21 16.9706 21 12C21 7.02944 16.9706 3 12 3C7.02944 3 3 7.02944 3 12C3 16.9706 7.02944 21 12 21Z" stroke="#161924" stroke-width="1.5" stroke-linecap="round" stroke-linejoin="round"/>
<path fill-rule="evenodd" clip-rule="evenodd" d="M7.60724 13.464V13.464C6.79824 12.655 6.79824 11.344 7.60724 10.535V10.535C8.41624 9.726 9.72724 9.726 10.5362 10.535L12.0002 12L10.5362 13.464C9.72724 14.273 8.41524 14.273 7.60724 13.464Z" stroke="#161924" stroke-width="1.5" stroke-linecap="round" stroke-linejoin="round"/>
<path fill-rule="evenodd" clip-rule="evenodd" d="M16.393 10.536V10.536C17.202 11.345 17.202 12.656 16.393 13.465V13.465C15.584 14.274 14.273 14.274 13.464 13.465L12 12L13.464 10.536C14.273 9.72701 15.585 9.72701 16.393 10.536Z" stroke="#161924" stroke-width="1.5" stroke-linecap="round" stroke-linejoin="round"/>
</svg>
