<svg width="24" height="24" viewBox="0 0 24 24" fill="none" xmlns="http://www.w3.org/2000/svg">
<path d="M13.091 9.684C13.97 10.563 13.97 11.987 13.091 12.866C12.212 13.745 10.788 13.745 9.90901 12.866C9.03001 11.987 9.03001 10.563 9.90901 9.684C10.788 8.805 12.212 8.805 13.091 9.684" stroke="#161924" stroke-width="1.5" stroke-linecap="round" stroke-linejoin="round"/>
<path d="M15.666 18C15.252 16.9 14.201 16.113 12.956 16.113H10.044C8.79898 16.113 7.74798 16.9 7.33398 18" stroke="#161924" stroke-width="1.5" stroke-linecap="round" stroke-linejoin="round"/>
<path d="M15 4H7C4.791 4 3 5.791 3 8V17C3 19.209 4.791 21 7 21H16C18.209 21 20 19.209 20 17V9" stroke="#161924" stroke-width="1.5" stroke-linecap="round" stroke-linejoin="round"/>
<path d="M18 5H20" stroke="#161924" stroke-width="1.5" stroke-linecap="round" stroke-linejoin="round"/>
<path d="M19 9C16.791 9 15 7.209 15 5C15 2.791 16.791 1 19 1C21.209 1 23 2.791 23 5C23 7.209 21.209 9 19 9" stroke="#161924" stroke-width="1.5" stroke-linecap="round" stroke-linejoin="round"/>
</svg>
