<svg width="24" height="24" viewBox="0 0 24 24" fill="none" xmlns="http://www.w3.org/2000/svg">
<circle cx="6.99792" cy="5.24728" r="2.25094" stroke="#161924" stroke-width="1.5" stroke-linecap="round" stroke-linejoin="round"/>
<path fill-rule="evenodd" clip-rule="evenodd" d="M4.99708 16.0018V20.0034C4.99708 20.5557 5.44527 21.0039 5.9975 21.0039H7.99833C8.55056 21.0039 8.99875 20.5557 8.99875 20.0034V16.0018L10.0542 15.2985C10.3323 15.1134 10.4994 14.8003 10.4994 14.4661V10.9997C10.4994 10.4475 10.0512 9.99927 9.49896 9.99927H4.49688C3.94465 9.99927 3.49646 10.4475 3.49646 10.9997V14.4661C3.49646 14.8003 3.66353 15.1134 3.94165 15.2985L4.99708 16.0018Z" stroke="#161924" stroke-width="1.5" stroke-linecap="round" stroke-linejoin="round"/>
<path d="M15.0012 2.99634V8.49863" stroke="#161924" stroke-width="1.5" stroke-linecap="round" stroke-linejoin="round"/>
<path d="M18.0025 2.99634V8.49863" stroke="#161924" stroke-width="1.5" stroke-linecap="round" stroke-linejoin="round"/>
<path d="M21.0037 2.99634V8.49863" stroke="#161924" stroke-width="1.5" stroke-linecap="round" stroke-linejoin="round"/>
</svg>
