<svg width="24" height="24" viewBox="0 0 24 24" fill="none" xmlns="http://www.w3.org/2000/svg">
<path d="M14.8638 4.19672C15.679 4.98237 16.1395 6.06582 16.1395 7.19797C16.1395 8.33012 15.679 9.41356 14.8638 10.1992C13.2063 11.8568 10.5189 11.8568 8.86132 10.1992C7.20378 8.54167 7.20378 5.85426 8.86132 4.19672C10.542 2.59605 13.1831 2.59605 14.8638 4.19672" stroke="#161924" stroke-width="1.5" stroke-linecap="round" stroke-linejoin="round"/>
<path d="M3.85941 19.0029V19.0029C3.85445 17.8074 4.32715 16.6595 5.1725 15.8141C6.01785 14.9687 7.16583 14.4961 8.36133 14.501H10.9624" stroke="#161924" stroke-width="1.5" stroke-linecap="round" stroke-linejoin="round"/>
<path d="M22.0043 12.9915H20.7458L19.7394 18.0246H14.7063L14.001 14.5011H20.4437" stroke="#161924" stroke-width="1.5" stroke-linecap="round" stroke-linejoin="round"/>
<path d="M15.1738 20.5066C15.1832 20.497 15.196 20.4916 15.2093 20.4916C15.2227 20.4916 15.2355 20.497 15.2449 20.5066C15.2645 20.5262 15.2645 20.558 15.2449 20.5776C15.2252 20.5972 15.1934 20.5972 15.1738 20.5776C15.1642 20.5683 15.1588 20.5555 15.1588 20.5421C15.1588 20.5287 15.1642 20.5159 15.1738 20.5066" stroke="#161924" stroke-width="1.5" stroke-linecap="round" stroke-linejoin="round"/>
<path d="M19.2002 20.5066C19.2095 20.497 19.2223 20.4916 19.2357 20.4916C19.2491 20.4916 19.2619 20.497 19.2712 20.5066C19.2908 20.5262 19.2908 20.558 19.2712 20.5776C19.2516 20.5972 19.2198 20.5972 19.2002 20.5776C19.1906 20.5683 19.1852 20.5555 19.1852 20.5421C19.1852 20.5287 19.1906 20.5159 19.2002 20.5066" stroke="#161924" stroke-width="1.5" stroke-linecap="round" stroke-linejoin="round"/>
</svg>
