<svg width="24" height="24" viewBox="0 0 24 24" fill="none" xmlns="http://www.w3.org/2000/svg">
<path fill-rule="evenodd" clip-rule="evenodd" d="M12.829 16.682H11.172C10.642 16.682 10.133 16.893 9.758 17.268L8.051 18.975C7.421 19.605 7.867 20.682 8.758 20.682H15.243C16.134 20.682 16.58 19.605 15.95 18.975L14.243 17.268C13.868 16.893 13.359 16.682 12.829 16.682V16.682Z" stroke="#161924" stroke-width="1.5" stroke-linecap="round" stroke-linejoin="round"/>
<path d="M5.16097 17.839C2.13697 14.302 2.29097 8.98201 5.63597 5.63601C9.15097 2.12101 14.849 2.12101 18.364 5.63601C21.71 8.98201 21.863 14.303 18.839 17.839" stroke="#161924" stroke-width="1.5" stroke-linecap="round" stroke-linejoin="round"/>
<path d="M7.66101 15.339C6.00001 13.182 6.13501 10.087 8.11101 8.111C10.259 5.963 13.741 5.963 15.889 8.111C17.866 10.088 18 13.182 16.338 15.339" stroke="#161924" stroke-width="1.5" stroke-linecap="round" stroke-linejoin="round"/>
<path d="M13.579 10.421C14.451 11.293 14.451 12.7069 13.579 13.5789C12.707 14.451 11.2931 14.451 10.4211 13.5789C9.54902 12.7069 9.54902 11.293 10.4211 10.421C11.2931 9.54896 12.707 9.54896 13.579 10.421" stroke="#161924" stroke-width="1.5" stroke-linecap="round" stroke-linejoin="round"/>
</svg>
