<svg width="24" height="24" viewBox="0 0 24 24" fill="none" xmlns="http://www.w3.org/2000/svg">
<path d="M10.421 13.579C9.412 12.57 9.57 10.836 10.896 10.055C11.565 9.66099 12.435 9.66099 13.104 10.055C14.429 10.836 14.588 12.57 13.579 13.579" stroke="#161924" stroke-width="1.5" stroke-linecap="round" stroke-linejoin="round"/>
<path d="M13.579 13.579C12.707 14.451 11.293 14.451 10.421 13.579" stroke="#161924" stroke-width="1.5" stroke-linecap="round" stroke-linejoin="round"/>
<path d="M5.16103 17.839C2.13703 14.302 2.29103 8.98201 5.63603 5.63601C9.15103 2.12101 14.849 2.12101 18.364 5.63601C21.71 8.98201 21.863 14.303 18.839 17.839" stroke="#161924" stroke-width="1.5" stroke-linecap="round" stroke-linejoin="round"/>
<path d="M7.66101 15.339C6.00001 13.182 6.13501 10.087 8.11101 8.111C10.259 5.963 13.741 5.963 15.889 8.111C17.866 10.088 18 13.182 16.338 15.339" stroke="#161924" stroke-width="1.5" stroke-linecap="round" stroke-linejoin="round"/>
<path fill-rule="evenodd" clip-rule="evenodd" d="M7.99005 20.013C8.50505 18.276 10.0951 17 12.0001 17C13.9051 17 15.4951 18.276 16.0101 20.013C13.4851 21.277 10.5151 21.276 7.99005 20.013Z" stroke="#161924" stroke-width="1.5" stroke-linecap="round" stroke-linejoin="round"/>
</svg>
