<svg width="24" height="24" viewBox="0 0 24 24" fill="none" xmlns="http://www.w3.org/2000/svg">
<path fill-rule="evenodd" clip-rule="evenodd" d="M13.0008 14.1259C11.8958 14.1259 11 15.0217 11 16.1267V17.1271C11 18.2322 11.8958 19.128 13.0008 19.128H13.8686V20.6276C13.8686 20.8207 13.9797 20.9965 14.1541 21.0794C14.3284 21.1622 14.5349 21.1374 14.6846 21.0155L16.7266 19.3526C16.9051 19.2073 17.1282 19.1279 17.3583 19.1279H20.0037C21.1088 19.1279 22.0046 18.2321 22.0046 17.1271V16.1267C22.0046 15.0217 21.1088 14.1259 20.0037 14.1259H13.0008Z" stroke="#161924" stroke-width="1.5" stroke-linecap="round" stroke-linejoin="round"/>
<path fill-rule="evenodd" clip-rule="evenodd" d="M3.99693 3.12128C2.8919 3.12128 1.99609 4.01708 1.99609 5.12211V6.12253C1.99609 7.22756 2.8919 8.12336 3.99693 8.12336H6.64237C6.87251 8.12336 7.09562 8.20271 7.27408 8.34803L9.31605 10.0109C9.46576 10.1328 9.67226 10.1577 9.84663 10.0748C10.021 9.9919 10.1321 9.81608 10.1321 9.62301V8.12336H10.9998C12.1049 8.12336 13.0007 7.22756 13.0007 6.12253V5.12211C13.0007 4.01708 12.1049 3.12128 10.9998 3.12128H3.99693Z" stroke="#161924" stroke-width="1.5" stroke-linecap="round" stroke-linejoin="round"/>
<path fill-rule="evenodd" clip-rule="evenodd" d="M1.99609 21.504V21.0978C1.99939 19.9422 2.93537 19.0062 4.09097 19.0029H6.90414C8.05974 19.0062 8.99571 19.9422 8.99901 21.0978V21.504C8.99901 21.7802 8.77506 22.0042 8.4988 22.0042H2.4963C2.22004 22.0042 1.99609 21.7802 1.99609 21.504Z" stroke="#161924" stroke-width="1.5" stroke-linecap="round" stroke-linejoin="round"/>
<circle cx="5.49693" cy="14.501" r="2.00083" stroke="#161924" stroke-width="1.5" stroke-linecap="round" stroke-linejoin="round"/>
<path fill-rule="evenodd" clip-rule="evenodd" d="M15.001 10.4994V10.0932C15.0043 8.93763 15.9403 8.00165 17.0958 7.99835H19.909C21.0646 8.00165 22.0006 8.93763 22.0039 10.0932V10.4994C22.0039 10.7757 21.7799 10.9996 21.5037 10.9996H15.5012C15.2249 10.9996 15.001 10.7757 15.001 10.4994Z" stroke="#161924" stroke-width="1.5" stroke-linecap="round" stroke-linejoin="round"/>
<circle cx="18.5028" cy="3.49644" r="2.00083" stroke="#161924" stroke-width="1.5" stroke-linecap="round" stroke-linejoin="round"/>
</svg>
