<svg width="24" height="24" viewBox="0 0 24 24" fill="none" xmlns="http://www.w3.org/2000/svg">
<path fill-rule="evenodd" clip-rule="evenodd" d="M16.0015 14.7702C14.615 14.7754 13.4867 13.6556 13.4815 12.2691C13.4762 10.8826 14.596 9.75434 15.9825 9.74907C17.369 9.74384 18.4973 10.8636 18.5026 12.2501C18.506 12.9162 18.2442 13.5563 17.775 14.0291C17.3057 14.5019 16.6676 14.7686 16.0015 14.7702V14.7702Z" stroke="#161924" stroke-width="1.5" stroke-linecap="round" stroke-linejoin="round"/>
<path fill-rule="evenodd" clip-rule="evenodd" d="M20.3789 21.0038H11.6253C11.2804 21.0027 11.001 20.7234 11 20.3785V19.7532C11.004 18.3736 12.1214 17.2562 13.501 17.2522H18.5031C19.8827 17.2562 21.0001 18.3736 21.0042 19.7532V20.3785C21.0032 20.7234 20.7238 21.0027 20.3789 21.0038V21.0038Z" stroke="#161924" stroke-width="1.5" stroke-linecap="round" stroke-linejoin="round"/>
<path d="M15.7246 5.99748C13.9676 3.48253 10.7767 2.4061 7.85527 3.34274C4.93381 4.27938 2.96369 7.01045 2.9965 10.0782C3.0293 13.146 5.05736 15.8343 7.99818 16.7082" stroke="#161924" stroke-width="1.5" stroke-linecap="round" stroke-linejoin="round"/>
<path d="M11.3331 9.33188L9.66741 10.9996L8.66699 9.99916" stroke="#161924" stroke-width="1.5" stroke-linecap="round" stroke-linejoin="round"/>
</svg>
