<svg width="24" height="24" viewBox="0 0 24 24" fill="none" xmlns="http://www.w3.org/2000/svg">
<path fill-rule="evenodd" clip-rule="evenodd" d="M1.99609 17.5023V17.0961C1.99939 15.9405 2.93537 15.0045 4.09097 15.0013H6.90414C8.05974 15.0045 8.99571 15.9405 8.99901 17.0961V17.5023C8.99901 17.7786 8.77506 18.0025 8.4988 18.0025H2.4963C2.22004 18.0025 1.99609 17.7786 1.99609 17.5023Z" stroke="#161924" stroke-width="1.5" stroke-linecap="round" stroke-linejoin="round"/>
<path fill-rule="evenodd" clip-rule="evenodd" d="M12.8676 8.99881V10.4984C12.8676 10.6915 12.9787 10.8673 13.1531 10.9502C13.3274 11.0331 13.5339 11.0082 13.6836 10.8863L16.0015 8.99881H18.3699C19.4749 8.99881 20.3707 8.103 20.3707 6.99797V3.99665C20.3707 2.89162 19.4749 1.99582 18.3699 1.99582H11.9999C10.8948 1.99582 9.99902 2.89162 9.99902 3.99665V6.9979C9.99902 8.10293 10.8948 8.99874 11.9999 8.99874L12.8676 8.99881Z" stroke="#161924" stroke-width="1.5" stroke-linecap="round" stroke-linejoin="round"/>
<circle cx="5.49693" cy="10.4994" r="2.00083" stroke="#161924" stroke-width="1.5" stroke-linecap="round" stroke-linejoin="round"/>
<path fill-rule="evenodd" clip-rule="evenodd" d="M15.001 21.504V21.0978C15.0043 19.9422 15.9403 19.0062 17.0958 19.0029H19.909C21.0646 19.0062 22.0006 19.9422 22.0039 21.0978V21.504C22.0039 21.7802 21.7799 22.0042 21.5037 22.0042H15.5012C15.2249 22.0042 15.001 21.7802 15.001 21.504Z" stroke="#161924" stroke-width="1.5" stroke-linecap="round" stroke-linejoin="round"/>
<circle cx="18.5028" cy="14.501" r="2.00083" stroke="#161924" stroke-width="1.5" stroke-linecap="round" stroke-linejoin="round"/>
</svg>
