<svg width="24" height="24" viewBox="0 0 24 24" fill="none" xmlns="http://www.w3.org/2000/svg">
<path d="M21.004 15.0012V14.0008C21.0187 13.2004 20.7072 12.4284 20.1412 11.8624C19.5751 11.2963 18.8032 10.9848 18.0028 10.9995H16.002" stroke="#161924" stroke-width="1.5" stroke-linecap="round" stroke-linejoin="round"/>
<path d="M12.0003 15.0012V14.0008C12.015 13.2004 11.7035 12.4284 11.1375 11.8624C10.5714 11.2963 9.79948 10.9848 8.99909 10.9995H5.99784C5.19745 10.9848 4.42551 11.2963 3.85945 11.8624C3.29339 12.4284 2.98191 13.2004 2.99659 14.0008V15.0012" stroke="#161924" stroke-width="1.5" stroke-linecap="round" stroke-linejoin="round"/>
<circle cx="7.49811" cy="5.49726" r="2.50104" stroke="#161924" stroke-width="1.5" stroke-linecap="round" stroke-linejoin="round"/>
<circle cx="17.0023" cy="5.99754" r="2.00083" stroke="#161924" stroke-width="1.5" stroke-linecap="round" stroke-linejoin="round"/>
<path d="M18.0027 20.1079V17.5508H15.4097" stroke="#161924" stroke-width="1.5" stroke-linecap="round" stroke-linejoin="round"/>
<path d="M5.99756 17.5508C7.15645 19.6791 9.38601 21.0038 11.8094 21.0038C14.2328 21.0038 16.4624 19.6791 17.6213 17.5508" stroke="#161924" stroke-width="1.5" stroke-linecap="round" stroke-linejoin="round"/>
</svg>
