<svg width="24" height="24" viewBox="0 0 24 24" fill="none" xmlns="http://www.w3.org/2000/svg">
<path d="M1 21V21C1 19.001 2.62 17.381 4.619 17.381H8.238C10.237 17.381 11.857 19.001 11.857 21V21" stroke="#161924" stroke-width="1.5" stroke-linecap="round" stroke-linejoin="round"/>
<path d="M8.66812 9.2606C9.90491 10.4974 9.90491 12.5026 8.66812 13.7394C7.43133 14.9762 5.4261 14.9762 4.18931 13.7394C2.95252 12.5026 2.95252 10.4974 4.18931 9.2606C5.4261 8.02381 7.43133 8.02381 8.66812 9.2606" stroke="#161924" stroke-width="1.5" stroke-linecap="round" stroke-linejoin="round"/>
<path d="M18.0964 13.808C20.8044 13.808 23.0004 11.612 23.0004 8.904C23.0004 6.196 20.8054 4 18.0964 4C15.3874 4 13.1924 6.196 13.1924 8.904" stroke="#161924" stroke-width="1.5" stroke-linecap="round" stroke-linejoin="round"/>
<path d="M18.1006 13.813C17.3626 13.813 16.6636 13.65 16.0356 13.359L13.0176 14L13.6486 10.976C13.3556 10.346 13.1916 9.64399 13.1916 8.90399" stroke="#161924" stroke-width="1.5" stroke-linecap="round" stroke-linejoin="round"/>
<path d="M15.8137 8.96464C15.8332 8.98417 15.8332 9.01583 15.8137 9.03536C15.7941 9.05488 15.7625 9.05488 15.743 9.03536C15.7234 9.01583 15.7234 8.98417 15.743 8.96464C15.7625 8.94512 15.7941 8.94512 15.8137 8.96464" stroke="#161924" stroke-width="1.5" stroke-linecap="round" stroke-linejoin="round"/>
<path d="M18.0637 8.96464C18.0832 8.98417 18.0832 9.01583 18.0637 9.03536C18.0441 9.05488 18.0125 9.05488 17.993 9.03536C17.9734 9.01583 17.9734 8.98417 17.993 8.96464C18.0125 8.94512 18.0441 8.94512 18.0637 8.96464" stroke="#161924" stroke-width="1.5" stroke-linecap="round" stroke-linejoin="round"/>
<path d="M20.3137 8.96464C20.3332 8.98417 20.3332 9.01583 20.3137 9.03536C20.2941 9.05488 20.2625 9.05488 20.243 9.03536C20.2234 9.01583 20.2234 8.98417 20.243 8.96464C20.2625 8.94512 20.2941 8.94512 20.3137 8.96464" stroke="#161924" stroke-width="1.5" stroke-linecap="round" stroke-linejoin="round"/>
</svg>
