<svg width="24" height="24" viewBox="0 0 24 24" fill="none" xmlns="http://www.w3.org/2000/svg">
<path fill-rule="evenodd" clip-rule="evenodd" d="M5.4971 12.2501C5.50762 10.8713 6.63197 9.76113 8.01075 9.76807C9.38954 9.77507 10.5026 10.8966 10.4991 12.2754C10.4957 13.6542 9.37698 14.7702 7.99818 14.7702C7.33205 14.7686 6.69394 14.5019 6.2247 14.0291C5.75546 13.5563 5.49368 12.9162 5.4971 12.2501V12.2501Z" stroke="#161924" stroke-width="1.5" stroke-linecap="round" stroke-linejoin="round"/>
<path d="M14.0015 9.74907C13.9003 9.74852 13.8087 9.80911 13.7695 9.90253C13.7304 9.99594 13.7515 10.1037 13.8229 10.1755C13.8943 10.2473 14.002 10.269 14.0956 10.2304C14.1892 10.1917 14.2503 10.1005 14.2503 9.99917C14.2508 9.93292 14.2248 9.86921 14.1781 9.82224C14.1314 9.77526 14.0678 9.74891 14.0015 9.74907" stroke="#161924" stroke-width="1.5" stroke-linecap="round" stroke-linejoin="round"/>
<path d="M17.1139 9.74907C17.0126 9.74852 16.921 9.80911 16.8818 9.90253C16.8427 9.99594 16.8638 10.1037 16.9352 10.1755C17.0066 10.2473 17.1143 10.269 17.2079 10.2304C17.3015 10.1917 17.3626 10.1005 17.3626 9.99917C17.3631 9.93292 17.3371 9.86921 17.2904 9.82224C17.2437 9.77526 17.1801 9.74891 17.1139 9.74907" stroke="#161924" stroke-width="1.5" stroke-linecap="round" stroke-linejoin="round"/>
<path fill-rule="evenodd" clip-rule="evenodd" d="M2.99609 20.3785V19.7532C3.00013 18.3736 4.11752 17.2562 5.49714 17.2522H10.4992C11.8788 17.2562 12.9962 18.3736 13.0003 19.7532V20.3785C12.9992 20.7234 12.7199 21.0027 12.375 21.0038H3.62135C3.27645 21.0027 2.9971 20.7234 2.99609 20.3785V20.3785Z" stroke="#161924" stroke-width="1.5" stroke-linecap="round" stroke-linejoin="round"/>
<path d="M8.27539 5.99748C10.0324 3.48253 13.2233 2.4061 16.1447 3.34274C19.0662 4.27938 21.0363 7.01045 21.0035 10.0782C20.9707 13.146 18.9426 15.8343 16.0018 16.7082" stroke="#161924" stroke-width="1.5" stroke-linecap="round" stroke-linejoin="round"/>
</svg>
