<svg width="24" height="24" viewBox="0 0 24 24" fill="none" xmlns="http://www.w3.org/2000/svg">
<path d="M4 11.906V8.09099C4 6.84299 4.773 5.72499 5.94 5.28399L14.293 2.12999C15.602 1.63699 17 2.60299 17 4.00199V7.35199" stroke="#161924" stroke-width="1.5" stroke-linecap="round" stroke-linejoin="round"/>
<path d="M17.249 14.101C17.111 14.102 17 14.214 17 14.352C17 14.49 17.112 14.602 17.25 14.601C17.388 14.601 17.5 14.489 17.5 14.351C17.5 14.213 17.388 14.101 17.249 14.101" stroke="#161924" stroke-width="1.5" stroke-linecap="round" stroke-linejoin="round"/>
<path d="M10.662 21H18C19.65 21 21 19.65 21 18V10.351C21 8.69401 19.657 7.35101 18 7.35101H6C4.895 7.35101 4 8.24601 4 9.35101V12.257" stroke="#161924" stroke-width="1.5" stroke-linecap="round" stroke-linejoin="round"/>
<path d="M7.5 22C4.463 22 2 19.537 2 16.5C2 13.463 4.463 11 7.5 11C10.538 11 13 13.463 13 16.5C13 19.537 10.538 22 7.5 22" stroke="#161924" stroke-width="1.5" stroke-linecap="round" stroke-linejoin="round"/>
<path d="M9.94366 15.278L6.88766 18.334L5.05566 16.5" stroke="#161924" stroke-width="1.5" stroke-linecap="round" stroke-linejoin="round"/>
</svg>
