<svg width="24" height="24" viewBox="0 0 24 24" fill="none" xmlns="http://www.w3.org/2000/svg">
<path d="M21.0036 9.499V6.49775C21.0036 5.11646 19.8838 3.9967 18.5026 3.9967H5.49714C4.11585 3.9967 2.99609 5.11646 2.99609 6.49775V7.99837" stroke="#161924" stroke-width="1.5" stroke-linecap="round" stroke-linejoin="round"/>
<path d="M21.0043 14.501V17.5022C21.0043 18.8835 19.8846 20.0033 18.5033 20.0033H13.001" stroke="#161924" stroke-width="1.5" stroke-linecap="round" stroke-linejoin="round"/>
<path d="M1.99609 12.6002V19.4031C1.99723 20.2869 3.7877 21.0037 5.99776 21.0037C8.20782 21.0037 9.99829 20.2869 9.99943 19.4031V12.6002" stroke="#161924" stroke-width="1.5" stroke-linecap="round" stroke-linejoin="round"/>
<path d="M9.99829 12.6003C9.99829 13.4841 8.20668 14.201 5.99662 14.201C3.78656 14.201 1.99609 13.4841 1.99609 12.6003C1.99609 11.7154 3.78884 10.9996 5.99776 10.9996C8.20668 10.9996 9.99829 11.7165 9.99943 12.6003" stroke="#161924" stroke-width="1.5" stroke-linecap="round" stroke-linejoin="round"/>
<path d="M1.99609 16.0017C1.99609 16.8855 3.78656 17.6024 5.99662 17.6024C8.20668 17.6024 9.99829 16.8855 9.99829 16.0017" stroke="#161924" stroke-width="1.5" stroke-linecap="round" stroke-linejoin="round"/>
<path fill-rule="evenodd" clip-rule="evenodd" d="M18.503 9.4989H21.004C21.5566 9.4989 22.0045 9.9468 22.0045 10.4993V13.5006C22.0045 14.0531 21.5566 14.501 21.004 14.501H18.503C17.1217 14.501 16.002 13.3812 16.002 11.9999V11.9999C16.002 10.6187 17.1217 9.4989 18.503 9.4989V9.4989Z" stroke="#161924" stroke-width="1.5" stroke-linecap="round" stroke-linejoin="round"/>
</svg>
