<svg width="24" height="24" viewBox="0 0 24 24" fill="none" xmlns="http://www.w3.org/2000/svg">
<path d="M21 9.5V6.5C21 5.11929 19.8807 4 18.5 4H5.5C4.11929 4 3 5.11929 3 6.5V8" stroke="#161924" stroke-width="1.5" stroke-linecap="round" stroke-linejoin="round"/>
<path d="M21 14.5V17.5C21 18.8807 19.8807 20 18.5 20H16" stroke="#161924" stroke-width="1.5" stroke-linecap="round" stroke-linejoin="round"/>
<path fill-rule="evenodd" clip-rule="evenodd" d="M19.5 9.5H21C21.5523 9.5 22 9.94772 22 10.5V13.5C22 14.0523 21.5523 14.5 21 14.5H19.5C18.1193 14.5 17 13.3807 17 12V12C17 10.6193 18.1193 9.5 19.5 9.5V9.5Z" stroke="#161924" stroke-width="1.5" stroke-linecap="round" stroke-linejoin="round"/>
<path d="M6.49902 17.5L9.49902 14.5" stroke="#161924" stroke-width="1.5" stroke-linecap="round" stroke-linejoin="round"/>
<path d="M6.2502 14.3247C6.25035 14.2833 6.28397 14.2499 6.32534 14.25C6.3667 14.25 6.4002 14.2836 6.4002 14.325C6.4002 14.3663 6.3667 14.3999 6.32534 14.4C6.28397 14.4 6.25035 14.3666 6.2502 14.3252V14.3247" stroke="#161924" stroke-width="1.5" stroke-linecap="round" stroke-linejoin="round"/>
<rect x="3" y="11" width="10" height="10" rx="3" stroke="#161924" stroke-width="1.5" stroke-linecap="round" stroke-linejoin="round"/>
<path d="M9.7498 17.6753C9.74965 17.7167 9.71603 17.7501 9.67466 17.75C9.6333 17.75 9.5998 17.7164 9.5998 17.675C9.5998 17.6337 9.6333 17.6001 9.67466 17.6C9.71603 17.6 9.74965 17.6334 9.7498 17.6748V17.6753" stroke="#161924" stroke-width="1.5" stroke-linecap="round" stroke-linejoin="round"/>
</svg>
