<svg width="24" height="24" viewBox="0 0 24 24" fill="none" xmlns="http://www.w3.org/2000/svg">
<path d="M18.5033 6.9511L16.1375 3.79669C15.5003 2.94716 14.3105 2.74335 13.4269 3.33239L7.92871 6.99788" stroke="#161924" stroke-width="1.5" stroke-linecap="round" stroke-linejoin="round"/>
<path fill-rule="evenodd" clip-rule="evenodd" d="M18.503 11.4998H21.004C21.5566 11.4998 22.0045 11.9477 22.0045 12.5002V15.5014C22.0045 16.0539 21.5566 16.5018 21.004 16.5018H18.503C17.1217 16.5018 16.002 15.3821 16.002 14.0008V14.0008C16.002 12.6195 17.1217 11.4998 18.503 11.4998V11.4998Z" stroke="#161924" stroke-width="1.5" stroke-linecap="round" stroke-linejoin="round"/>
<path d="M21.0036 11.4998V9.49897C21.0036 8.11768 19.8838 6.99792 18.5026 6.99792H5.49714C4.11585 6.99792 2.99609 8.11768 2.99609 9.49897V18.5027C2.99609 19.884 4.11585 21.0038 5.49714 21.0038H18.5026C19.8838 21.0038 21.0036 19.884 21.0036 18.5027V16.5019" stroke="#161924" stroke-width="1.5" stroke-linecap="round" stroke-linejoin="round"/>
</svg>
