<svg width="24" height="24" viewBox="0 0 24 24" fill="none" xmlns="http://www.w3.org/2000/svg">
<path d="M17 13.5909V15C17 16.1046 16.1046 17 15 17H9C7.89543 17 7 16.1046 7 15V9C7 7.89543 7.89543 7 9 7H15C16.1046 7 17 7.89543 17 9V10.4091" stroke="#161924" stroke-width="1.5" stroke-linecap="round" stroke-linejoin="round"/>
<path fill-rule="evenodd" clip-rule="evenodd" d="M16.0909 10.4091H17.3636C17.7151 10.4091 18 10.694 18 11.0454V12.9545C18 13.306 17.7151 13.5909 17.3636 13.5909H16.0909C15.2123 13.5909 14.5 12.8786 14.5 12V12C14.5 11.578 14.6676 11.1734 14.966 10.875C15.2643 10.5767 15.669 10.4091 16.0909 10.4091V10.4091Z" stroke="#161924" stroke-width="1.5" stroke-linecap="round" stroke-linejoin="round"/>
<path d="M16 21H18C19.6569 21 21 19.6569 21 18V16" stroke="#161924" stroke-width="1.5" stroke-linecap="round" stroke-linejoin="round"/>
<path d="M16 3H18C19.6569 3 21 4.34315 21 6V8" stroke="#161924" stroke-width="1.5" stroke-linecap="round" stroke-linejoin="round"/>
<path d="M3 16V18C3 19.6569 4.34315 21 6 21H8" stroke="#161924" stroke-width="1.5" stroke-linecap="round" stroke-linejoin="round"/>
<path d="M3 8V6C3 4.34315 4.34315 3 6 3H8" stroke="#161924" stroke-width="1.5" stroke-linecap="round" stroke-linejoin="round"/>
</svg>
