<svg width="24" height="24" viewBox="0 0 24 24" fill="none" xmlns="http://www.w3.org/2000/svg">
<path d="M21.0036 9.49893V6.49768C21.0036 5.1164 19.8838 3.99664 18.5026 3.99664H5.49714C4.11585 3.99664 2.99609 5.1164 2.99609 6.49768V9.99914" stroke="#161924" stroke-width="1.5" stroke-linecap="round" stroke-linejoin="round"/>
<path d="M21.0043 14.501V17.5023C21.0043 18.8836 19.8846 20.0033 18.5033 20.0033H13.001" stroke="#161924" stroke-width="1.5" stroke-linecap="round" stroke-linejoin="round"/>
<path fill-rule="evenodd" clip-rule="evenodd" d="M18.503 9.49896H21.004C21.5566 9.49896 22.0045 9.94686 22.0045 10.4994V13.5006C22.0045 14.0531 21.5566 14.501 21.004 14.501H18.503C17.1217 14.501 16.002 13.3813 16.002 12V12C16.002 10.6187 17.1217 9.49896 18.503 9.49896V9.49896Z" stroke="#161924" stroke-width="1.5" stroke-linecap="round" stroke-linejoin="round"/>
<circle cx="6.49797" cy="16.5019" r="4.50187" stroke="#161924" stroke-width="1.5" stroke-linecap="round" stroke-linejoin="round"/>
<path d="M8.01188 15.6105L6.12109 17.5001L4.98438 16.3668" stroke="#161924" stroke-width="1.5" stroke-linecap="round" stroke-linejoin="round"/>
</svg>
