<svg width="24" height="24" viewBox="0 0 24 24" fill="none" xmlns="http://www.w3.org/2000/svg">
<path d="M11.9983 14.0009V17.0021" stroke="#161924" stroke-width="1.5" stroke-linecap="round" stroke-linejoin="round"/>
<path d="M15.501 17.7804C15.501 17.3506 15.1525 17.0021 14.7226 17.0021H9.27637C8.84651 17.0021 8.49805 17.3506 8.49805 17.7804" stroke="#161924" stroke-width="1.5" stroke-linecap="round" stroke-linejoin="round"/>
<path fill-rule="evenodd" clip-rule="evenodd" d="M9.49846 21.0038H14.5005C15.0531 21.0038 15.501 20.5559 15.501 20.0034V16.4369C15.5009 16.0315 15.4189 15.6303 15.2599 15.2574L14.9817 14.6081C14.8244 14.24 14.4627 14.0011 14.0624 14.0009H9.93665C9.53592 14.0007 9.17375 14.2396 9.01626 14.6081L8.73915 15.2564C8.58013 15.6293 8.49812 16.0305 8.49805 16.4359V20.0034C8.49805 20.5559 8.94595 21.0038 9.49846 21.0038Z" stroke="#161924" stroke-width="1.5" stroke-linecap="round" stroke-linejoin="round"/>
<path d="M5.99734 21.0038H3.99651C3.444 21.0038 2.99609 20.5559 2.99609 20.0033V8.88672C2.99643 8.1607 3.39001 7.49183 4.02452 7.13899L11.0274 3.24837C11.6318 2.91249 12.3668 2.91249 12.9712 3.24837L19.9742 7.13899C20.6094 7.49175 21.0036 8.16113 21.0036 8.88772V20.0033C21.0036 20.5559 20.5557 21.0038 20.0032 21.0038H18.0023" stroke="#161924" stroke-width="1.5" stroke-linecap="round" stroke-linejoin="round"/>
<path d="M10.623 8.99874H13.3762" stroke="#161924" stroke-width="1.5" stroke-linecap="round" stroke-linejoin="round"/>
</svg>
