<svg width="24" height="24" viewBox="0 0 24 24" fill="none" xmlns="http://www.w3.org/2000/svg">
<path d="M9.99805 7.99832H13.9997" stroke="#161924" stroke-width="1.5" stroke-linecap="round" stroke-linejoin="round"/>
<path fill-rule="evenodd" clip-rule="evenodd" d="M5.99734 21.0038H2.99609V7.88729C2.99609 7.16092 3.3897 6.49158 4.02452 6.13856L11.0274 2.24794C11.6318 1.91206 12.3668 1.91206 12.9712 2.24794L19.9742 6.13856C20.6094 6.49132 21.0036 7.16071 21.0036 7.88729V21.0038H18.0023V12H5.99734V21.0038Z" stroke="#161924" stroke-width="1.5" stroke-linecap="round" stroke-linejoin="round"/>
<path d="M11.9983 15.0012V17.7644" stroke="#161924" stroke-width="1.5" stroke-linecap="round" stroke-linejoin="round"/>
<path fill-rule="evenodd" clip-rule="evenodd" d="M9.8554 21.0037H14.1432C14.6167 21.0037 15.0005 20.6199 15.0005 20.1464V17.0891C15.0008 16.7417 14.9303 16.3979 14.7935 16.0787L14.5554 15.5214C14.4204 15.2059 14.1102 15.0012 13.767 15.0012H10.2306C9.88743 15.0015 9.57741 15.206 9.44223 15.5214L9.20513 16.0777C9.0683 16.3969 8.99784 16.7407 8.99805 17.0881V20.1464C8.99805 20.6199 9.3819 21.0037 9.8554 21.0037V21.0037Z" stroke="#161924" stroke-width="1.5" stroke-linecap="round" stroke-linejoin="round"/>
<path d="M15.0005 18.4317C15.0008 18.2546 14.9306 18.0848 14.8054 17.9596C14.6802 17.8344 14.5103 17.7641 14.3333 17.7644H9.66533C9.48827 17.7641 9.31839 17.8344 9.1932 17.9596C9.068 18.0848 8.99778 18.2546 8.99805 18.4317" stroke="#161924" stroke-width="1.5" stroke-linecap="round" stroke-linejoin="round"/>
</svg>
