<svg width="24" height="24" viewBox="0 0 24 24" fill="none" xmlns="http://www.w3.org/2000/svg">
<path d="M6.99609 21.0037H11.9982" stroke="#161924" stroke-width="1.5" stroke-linecap="round" stroke-linejoin="round"/>
<path d="M9.99805 7.99832H13.9997" stroke="#161924" stroke-width="1.5" stroke-linecap="round" stroke-linejoin="round"/>
<path d="M6.99609 15.0012H11.9982" stroke="#161924" stroke-width="1.5" stroke-linecap="round" stroke-linejoin="round"/>
<path d="M6.99609 18.0025H11.9982" stroke="#161924" stroke-width="1.5" stroke-linecap="round" stroke-linejoin="round"/>
<path d="M17.0003 12H6.99609V21.0037" stroke="#161924" stroke-width="1.5" stroke-linecap="round" stroke-linejoin="round"/>
<path d="M11.9998 21.0038H2.99609V7.88729C2.99609 7.16071 3.39032 6.49132 4.02552 6.13856L11.0284 2.24794C11.6328 1.91206 12.3678 1.91206 12.9722 2.24794L19.9752 6.13856C20.61 6.49158 21.0036 7.16092 21.0036 7.88729V12" stroke="#161924" stroke-width="1.5" stroke-linecap="round" stroke-linejoin="round"/>
<path fill-rule="evenodd" clip-rule="evenodd" d="M16.0004 15.0012H21.0025C21.555 15.0012 22.0029 15.4491 22.0029 16.0016V21.0037C22.0029 21.5562 21.555 22.0041 21.0025 22.0041H16.0004C15.4479 22.0041 15 21.5562 15 21.0037V16.0016C15 15.4491 15.4479 15.0012 16.0004 15.0012Z" stroke="#161924" stroke-width="1.5" stroke-linecap="round" stroke-linejoin="round"/>
<path d="M19.6926 17.7584L18.201 19.246L17.3066 18.3537" stroke="#161924" stroke-width="1.5" stroke-linecap="round" stroke-linejoin="round"/>
</svg>
