<svg width="24" height="24" viewBox="0 0 24 24" fill="none" xmlns="http://www.w3.org/2000/svg">
<path fill-rule="evenodd" clip-rule="evenodd" d="M13.7441 7.66019L16.7913 13.0764C17.1401 13.696 17.1338 14.4541 16.775 15.0678C16.4161 15.6815 15.7586 16.0587 15.0476 16.0587H8.95408C8.24313 16.0587 7.58556 15.6815 7.22671 15.0678C6.86786 14.4541 6.86163 13.696 7.21035 13.0764L10.2576 7.66019C10.6122 7.03083 11.2785 6.64145 12.0008 6.64145C12.7232 6.64145 13.3895 7.03083 13.7441 7.66019Z" stroke="#161924" stroke-width="1.5" stroke-linecap="round" stroke-linejoin="round"/>
<path fill-rule="evenodd" clip-rule="evenodd" d="M13.7441 7.66019L16.7913 13.0764C17.1401 13.696 17.1338 14.4541 16.775 15.0678C16.4161 15.6815 15.7586 16.0587 15.0476 16.0587H8.95408C8.24313 16.0587 7.58556 15.6815 7.22671 15.0678C6.86786 14.4541 6.86163 13.696 7.21035 13.0764L10.2576 7.66019C10.6122 7.03083 11.2785 6.64145 12.0008 6.64145C12.7232 6.64145 13.3895 7.03083 13.7441 7.66019Z" stroke="#161924" stroke-width="1.5" stroke-linecap="round" stroke-linejoin="round"/>
<path d="M12.0002 11.4768V9.64102" stroke="#161924" stroke-width="1.5" stroke-linecap="round" stroke-linejoin="round"/>
<path fill-rule="evenodd" clip-rule="evenodd" d="M12.0003 21.0037V21.0037C7.0277 21.0037 2.99658 16.9726 2.99658 12V12C2.99658 7.02736 7.0277 2.99625 12.0003 2.99625V2.99625C16.973 2.99625 21.0041 7.02736 21.0041 12V12C21.0041 16.9726 16.973 21.0037 12.0003 21.0037V21.0037Z" stroke="#161924" stroke-width="1.5" stroke-linecap="round" stroke-linejoin="round"/>
<path d="M12.0002 13.5006C11.9499 13.5006 11.9092 13.5414 11.9092 13.5917C11.9092 13.6419 11.9499 13.6827 12.0002 13.6827C12.0505 13.6827 12.0912 13.6419 12.0912 13.5917C12.0912 13.5414 12.0505 13.5006 12.0002 13.5006" stroke="#161924" stroke-width="1.5" stroke-linecap="round" stroke-linejoin="round"/>
</svg>
