<svg width="24" height="24" viewBox="0 0 24 24" fill="none" xmlns="http://www.w3.org/2000/svg">
<path d="M18.5027 16.634L21.0037 19.1351" stroke="#161924" stroke-width="1.5" stroke-linecap="round" stroke-linejoin="round"/>
<path d="M21.0037 16.634L18.5027 19.1351" stroke="#161924" stroke-width="1.5" stroke-linecap="round" stroke-linejoin="round"/>
<path d="M12.5002 12.0671V8.99878" stroke="#161924" stroke-width="1.5" stroke-linecap="round" stroke-linejoin="round"/>
<path d="M12.5002 15.6777C12.4574 15.6777 12.4164 15.6949 12.3863 15.7253C12.3562 15.7558 12.3396 15.797 12.3401 15.8398C12.3407 15.9283 12.4117 16.0002 12.5002 16.0019C12.5897 16.0019 12.6623 15.9293 12.6623 15.8398C12.6623 15.7503 12.5897 15.6777 12.5002 15.6777" stroke="#161924" stroke-width="1.5" stroke-linecap="round" stroke-linejoin="round"/>
<path d="M20.5495 13.5187L15.8206 5.39727C15.1306 4.21768 13.8667 3.49268 12.5002 3.49268C11.1336 3.49268 9.86971 4.21768 9.1798 5.39727L3.47742 15.1793C2.83849 16.2785 2.83737 17.6357 3.47451 18.7359C4.11164 19.8361 5.28936 20.5107 6.5607 20.5036H15.5374" stroke="#161924" stroke-width="1.5" stroke-linecap="round" stroke-linejoin="round"/>
</svg>
