<svg width="24" height="24" viewBox="0 0 24 24" fill="none" xmlns="http://www.w3.org/2000/svg">
<path d="M9 19V10" stroke="#161924" stroke-width="1.5" stroke-linecap="round" stroke-linejoin="round"/>
<path d="M7 12L9 10" stroke="#161924" stroke-width="1.5" stroke-linecap="round" stroke-linejoin="round"/>
<path d="M11 12L9 10" stroke="#161924" stroke-width="1.5" stroke-linecap="round" stroke-linejoin="round"/>
<path d="M16 19V10" stroke="#161924" stroke-width="1.5" stroke-linecap="round" stroke-linejoin="round"/>
<path d="M14 12L16 10" stroke="#161924" stroke-width="1.5" stroke-linecap="round" stroke-linejoin="round"/>
<path d="M18 12L16 10" stroke="#161924" stroke-width="1.5" stroke-linecap="round" stroke-linejoin="round"/>
<path d="M6.00008 15H3.73908C3.22953 15 2.80147 14.6169 2.74519 14.1105L2.01252 7.51754C1.90662 6.6089 2.43243 5.7447 3.28808 5.42111C8.94154 3.5263 15.0586 3.5263 20.7121 5.42111C21.5677 5.74471 22.0935 6.6089 21.9876 7.51754L21.255 14.1105C21.1987 14.6169 20.7706 15 20.2611 15H19.0001" stroke="#161924" stroke-width="1.5" stroke-linecap="round" stroke-linejoin="round"/>
</svg>
