<svg width="24" height="24" viewBox="0 0 24 24" fill="none" xmlns="http://www.w3.org/2000/svg">
<path d="M8.99875 21.0038H5.9975C4.33995 21.0038 2.99625 19.6601 2.99625 18.0026V5.99759C2.99625 4.34004 4.33995 2.99634 5.9975 2.99634H18.0025C19.66 2.99634 21.0037 4.34004 21.0037 5.99759V9.99925" stroke="#161924" stroke-width="1.5" stroke-linecap="round" stroke-linejoin="round"/>
<path d="M21.0037 7.9985H2.99625" stroke="#161924" stroke-width="1.5" stroke-linecap="round" stroke-linejoin="round"/>
<path d="M12 16.0017H21.0037" stroke="#161924" stroke-width="1.5" stroke-linecap="round" stroke-linejoin="round"/>
<path fill-rule="evenodd" clip-rule="evenodd" d="M19.5031 21.0038H13.5006C12.6719 21.0038 12 20.332 12 19.5032V14.5011C12 13.6723 12.6719 13.0005 13.5006 13.0005H19.5031C20.3319 13.0005 21.0037 13.6723 21.0037 14.5011V19.5032C21.0037 20.332 20.3319 21.0038 19.5031 21.0038Z" stroke="#161924" stroke-width="1.5" stroke-linecap="round" stroke-linejoin="round"/>
</svg>
