<svg width="24" height="24" viewBox="0 0 24 24" fill="none" xmlns="http://www.w3.org/2000/svg">
<path d="M16 20C17 18.4833 17 16.5167 16 15C15 13.4833 15 11.5167 16 10" stroke="#161924" stroke-width="1.5" stroke-linecap="round" stroke-linejoin="round"/>
<path d="M9 20C10 18.4833 10 16.5167 9 15C8 13.4833 8 11.5167 9 10" stroke="#161924" stroke-width="1.5" stroke-linecap="round" stroke-linejoin="round"/>
<path d="M12.5 20C13.5 18.4833 13.5 16.5167 12.5 15C11.5 13.4833 11.5 11.5167 12.5 10" stroke="#161924" stroke-width="1.5" stroke-linecap="round" stroke-linejoin="round"/>
<path d="M19 15H20.261C20.7705 15 21.1986 14.6169 21.2548 14.1105L21.9875 7.51772C22.0935 6.60911 21.5677 5.74493 20.7121 5.42129C15.0588 3.52628 8.94169 3.52624 3.28831 5.42116C2.43294 5.7432 1.90679 6.60636 2.01246 7.51422C2.22146 9.39509 2.57516 12.5776 2.74606 14.1156C2.80254 14.6209 3.2309 15.0023 3.73933 15H5.99997" stroke="#161924" stroke-width="1.5" stroke-linecap="round" stroke-linejoin="round"/>
</svg>
