<svg width="24" height="24" viewBox="0 0 24 24" fill="none" xmlns="http://www.w3.org/2000/svg">
<path d="M16.0016 11.4998L18.0024 13.5006L16.0016 15.5014" stroke="#161924" stroke-width="1.5" stroke-linecap="round" stroke-linejoin="round"/>
<path d="M7.99827 12L5.99744 9.99912L7.99827 7.99829" stroke="#161924" stroke-width="1.5" stroke-linecap="round" stroke-linejoin="round"/>
<path d="M12 13.5006H18.0025" stroke="#161924" stroke-width="1.5" stroke-linecap="round" stroke-linejoin="round"/>
<path d="M5.99744 9.99911H11.9999" stroke="#161924" stroke-width="1.5" stroke-linecap="round" stroke-linejoin="round"/>
<path d="M12 5.99747H19.0029C20.1083 5.99747 21.0037 6.89284 21.0037 7.9983V19.0029C21.0037 20.1083 20.1083 21.0037 19.0029 21.0037H14.0008C12.8953 21.0037 12 20.1083 12 19.0029V4.99705C12 3.89159 11.1046 2.99622 9.99913 2.99622H4.99705C3.89159 2.99622 2.99622 3.89159 2.99622 4.99705V15.0012C2.99622 16.1067 3.89159 17.002 4.99705 17.002H12" stroke="#161924" stroke-width="1.5" stroke-linecap="round" stroke-linejoin="round"/>
</svg>
