<svg width="24" height="24" viewBox="0 0 24 24" fill="none" xmlns="http://www.w3.org/2000/svg">
<path d="M15.6682 21.0038C14.1952 21.0029 13.0013 19.809 13.0004 18.336V18.336C13.0013 16.863 14.1952 15.6691 15.6682 15.6682" stroke="#161924" stroke-width="1.5" stroke-linecap="round" stroke-linejoin="round"/>
<path d="M18.336 15.6682C19.809 15.6691 21.0028 16.863 21.0037 18.336V18.336C21.0028 19.809 19.809 21.0029 18.336 21.0038" stroke="#161924" stroke-width="1.5" stroke-linecap="round" stroke-linejoin="round"/>
<path d="M15.6682 18.3361H18.336" stroke="#161924" stroke-width="1.5" stroke-linecap="round" stroke-linejoin="round"/>
<path d="M9.99916 21.0038H5.9975C4.33995 21.0038 2.99625 19.6601 2.99625 18.0026V5.99759C2.99625 4.34004 4.33995 2.99634 5.9975 2.99634H18.0025C19.66 2.99634 21.0037 4.34004 21.0037 5.99759V13.0005" stroke="#161924" stroke-width="1.5" stroke-linecap="round" stroke-linejoin="round"/>
<path d="M21.0037 7.9985H2.99625" stroke="#161924" stroke-width="1.5" stroke-linecap="round" stroke-linejoin="round"/>
</svg>
