<svg width="24" height="24" viewBox="0 0 24 24" fill="none" xmlns="http://www.w3.org/2000/svg">
<path d="M5 11H10.061C10.829 11 11.597 10.707 12.182 10.121C13.354 8.94899 13.354 7.04999 12.182 5.87799C11.01 4.70599 9.111 4.70599 7.939 5.87799" stroke="#161924" stroke-width="1.5" stroke-linecap="round" stroke-linejoin="round"/>
<path d="M3 15H11.665C12.305 15 12.945 15.244 13.433 15.732C14.409 16.708 14.409 18.291 13.433 19.268C12.457 20.245 10.874 20.244 9.897 19.268" stroke="#161924" stroke-width="1.5" stroke-linecap="round" stroke-linejoin="round"/>
<path d="M15 13H18.657C19.257 13 19.856 12.771 20.314 12.314C21.229 11.399 21.229 9.915 20.314 9C19.399 8.085 17.915 8.085 17 9" stroke="#161924" stroke-width="1.5" stroke-linecap="round" stroke-linejoin="round"/>
</svg>
