<svg width="24" height="24" viewBox="0 0 24 24" fill="none" xmlns="http://www.w3.org/2000/svg">
<path fill-rule="evenodd" clip-rule="evenodd" d="M10.1108 11H13.8888C14.9938 11 15.8888 11.895 15.8888 13V20C15.8888 21.105 14.9938 22 13.8888 22H10.1108C9.00584 22 8.11084 21.105 8.11084 20V13C8.11084 11.895 9.00684 11 10.1108 11Z" stroke="#161924" stroke-width="1.5" stroke-linecap="round" stroke-linejoin="round"/>
<path d="M9 6.24299C10.657 4.58599 13.343 4.58599 15 6.24299" stroke="#161924" stroke-width="1.5" stroke-linecap="round" stroke-linejoin="round"/>
<path d="M10.5 8.243C11.328 7.415 12.672 7.415 13.5 8.243" stroke="#161924" stroke-width="1.5" stroke-linecap="round" stroke-linejoin="round"/>
<path d="M8.111 13.5H7C5.895 13.5 5 12.605 5 11.5V3.5C5 2.395 5.895 1.5 7 1.5H17C18.105 1.5 19 2.395 19 3.5V11.5C19 12.605 18.105 13.5 17 13.5H15.889" stroke="#161924" stroke-width="1.5" stroke-linecap="round" stroke-linejoin="round"/>
<path d="M12.0354 18.9646C12.0549 18.9841 12.0549 19.0158 12.0354 19.0353C12.0158 19.0549 11.9842 19.0549 11.9646 19.0353C11.9451 19.0158 11.9451 18.9841 11.9646 18.9646C11.9842 18.9451 12.0158 18.9451 12.0354 18.9646" stroke="#161924" stroke-width="1.5" stroke-linecap="round" stroke-linejoin="round"/>
</svg>
