<svg width="24" height="24" viewBox="0 0 24 24" fill="none" xmlns="http://www.w3.org/2000/svg">
<path d="M17 7C18.105 7 19 7.895 19 9" stroke="#161924" stroke-width="1.5" stroke-linecap="round" stroke-linejoin="round"/>
<path fill-rule="evenodd" clip-rule="evenodd" d="M13 12V11C13 10.448 13.448 10 14 10H15C15.552 10 16 10.448 16 11V12C16 12.552 15.552 13 15 13H14C13.448 13 13 12.552 13 12Z" stroke="#161924" stroke-width="1.5" stroke-linecap="round" stroke-linejoin="round"/>
<path d="M18 4C20.21 4 22 5.79 22 8" stroke="#161924" stroke-width="1.5" stroke-linecap="round" stroke-linejoin="round"/>
<path d="M19 12V15C19 16.105 18.105 17 17 17H7C5.895 17 5 16.105 5 15V9C5 7.895 5.895 7 7 7H14" stroke="#161924" stroke-width="1.5" stroke-linecap="round" stroke-linejoin="round"/>
<path d="M16 17V18C16 19.105 15.105 20 14 20H4C2.895 20 2 19.105 2 18V12C2 10.895 2.895 10 4 10H5" stroke="#161924" stroke-width="1.5" stroke-linecap="round" stroke-linejoin="round"/>
</svg>
