<svg width="24" height="24" viewBox="0 0 24 24" fill="none" xmlns="http://www.w3.org/2000/svg">
<path d="M16.7593 8.99866C18.417 10.6563 18.417 13.3435 16.7593 15.0012" stroke="#161924" stroke-width="1.5" stroke-linecap="round" stroke-linejoin="round"/>
<path d="M14.38 10.4994C15.2084 11.3277 15.2084 12.6723 14.38 13.5006" stroke="#161924" stroke-width="1.5" stroke-linecap="round" stroke-linejoin="round"/>
<path d="M5.99756 4.99705C5.99756 3.89159 6.89293 2.99622 7.99839 2.99622H20.0034C21.1089 2.99622 22.0042 3.89159 22.0042 4.99705V19.0029C22.0042 20.1083 21.1089 21.0037 20.0034 21.0037H7.99839C6.89293 21.0037 5.99756 20.1083 5.99756 19.0029" stroke="#161924" stroke-width="1.5" stroke-linecap="round" stroke-linejoin="round"/>
<path fill-rule="evenodd" clip-rule="evenodd" d="M1.99609 10.1992V13.8007C1.99609 14.7951 2.80243 15.6014 3.79684 15.6014H9.19909C10.1945 15.6014 10.9998 14.7951 10.9998 13.8007V10.1992C10.9998 9.20377 10.1935 8.39844 9.19909 8.39844H3.79684C2.80243 8.39844 1.99609 9.20377 1.99609 10.1992Z" stroke="#161924" stroke-width="1.5" stroke-linecap="round" stroke-linejoin="round"/>
<path d="M10.9998 11.0996H1.99609" stroke="#161924" stroke-width="1.5" stroke-linecap="round" stroke-linejoin="round"/>
</svg>
