<svg width="24" height="24" viewBox="0 0 24 24" fill="none" xmlns="http://www.w3.org/2000/svg">
<path d="M11 20C6.029 20 2 15.971 2 11C2 6.029 6.029 2 11 2C15.971 2 20 6.029 20 11" stroke="#161924" stroke-width="1.5" stroke-linecap="round" stroke-linejoin="round"/>
<path d="M22 14H20.742L19.736 19.031H14.705L14 15.509H20.44" stroke="#161924" stroke-width="1.5" stroke-linecap="round" stroke-linejoin="round"/>
<path d="M15.1717 21.512C15.1917 21.492 15.2237 21.492 15.2427 21.512C15.2617 21.532 15.2627 21.564 15.2427 21.583C15.2227 21.602 15.1907 21.603 15.1717 21.583C15.1517 21.563 15.1517 21.531 15.1717 21.512" stroke="#161924" stroke-width="1.5" stroke-linecap="round" stroke-linejoin="round"/>
<path d="M19.1971 21.512C19.2171 21.492 19.2491 21.492 19.2681 21.512C19.2871 21.532 19.2881 21.564 19.2681 21.583C19.2481 21.602 19.2161 21.603 19.1971 21.583C19.1771 21.563 19.1771 21.531 19.1971 21.512" stroke="#161924" stroke-width="1.5" stroke-linecap="round" stroke-linejoin="round"/>
<path d="M14.9995 11C14.9995 8.23599 14.2765 5.47199 12.8325 3.05999C11.9855 1.64699 10.0135 1.64699 9.1675 3.05999C6.2775 7.88499 6.2775 14.116 9.1675 18.941C9.5905 19.647 10.2945 20 10.9995 20" stroke="#161924" stroke-width="1.5" stroke-linecap="round" stroke-linejoin="round"/>
<path d="M2.50977 8H18.9998" stroke="#161924" stroke-width="1.5" stroke-linecap="round" stroke-linejoin="round"/>
<path d="M2.50977 14H10.9998" stroke="#161924" stroke-width="1.5" stroke-linecap="round" stroke-linejoin="round"/>
</svg>
