<svg width="24" height="24" viewBox="0 0 24 24" fill="none" xmlns="http://www.w3.org/2000/svg">
<path d="M19.0002 10.5H15.0602C13.5852 10.5 12.3892 9.30401 12.3892 7.82901V7.82901C12.3892 7.12101 12.6702 6.44101 13.1712 5.94001L15.4892 3.62201" stroke="#161924" stroke-width="1.5" stroke-linecap="round" stroke-linejoin="round"/>
<path d="M4.55821 16.58L6.23621 14.063C6.54021 13.607 7.05121 13.333 7.59921 13.333V13.333C8.22021 13.333 8.78621 12.983 9.06421 12.427L9.19021 12.176C9.42021 11.715 9.42021 11.172 9.19021 10.711L8.12021 8.57199C7.84221 8.01699 7.27521 7.66699 6.65421 7.66699H2.49121" stroke="#161924" stroke-width="1.5" stroke-linecap="round" stroke-linejoin="round"/>
<path d="M19 10.5C19 5.795 15.205 2 10.5 2C5.795 2 2 5.795 2 10.5C2 15.205 5.795 19 10.5 19" stroke="#161924" stroke-width="1.5" stroke-linecap="round" stroke-linejoin="round"/>
<path fill-rule="evenodd" clip-rule="evenodd" d="M14 16.2V19.4C14 20.284 14.716 21 15.6 21H20.4C21.284 21 22 20.284 22 19.4V16.2C22 15.316 21.284 14.6 20.4 14.6H15.6C14.716 14.6 14 15.316 14 16.2Z" stroke="#161924" stroke-width="1.5" stroke-linecap="round" stroke-linejoin="round"/>
<path d="M22 17.5H14" stroke="#161924" stroke-width="1.5" stroke-linecap="round" stroke-linejoin="round"/>
</svg>
