<svg width="24" height="24" viewBox="0 0 24 24" fill="none" xmlns="http://www.w3.org/2000/svg">
<path d="M1.5 11.25L3 9.75L4.5 11.25" stroke="#161924" stroke-width="1.5" stroke-linecap="round" stroke-linejoin="round"/>
<path d="M22.5 12.75L21 14.25L19.5 12.75" stroke="#161924" stroke-width="1.5" stroke-linecap="round" stroke-linejoin="round"/>
<path d="M4.67822 6.79C6.31022 4.501 8.97522 3 12.0002 3C16.9702 3 21.0002 7.03 21.0002 12C21.0002 12.684 20.9172 13.348 20.7732 13.988" stroke="#161924" stroke-width="1.5" stroke-linecap="round" stroke-linejoin="round"/>
<path d="M19.3222 6.79001C17.0202 7.56401 14.5632 8.00001 12.0002 8.00001C9.43722 8.00001 6.98022 7.56401 4.67822 6.79001" stroke="#161924" stroke-width="1.5" stroke-linecap="round" stroke-linejoin="round"/>
<path d="M19.3181 17.206C17.6871 19.495 15.0221 20.996 11.9961 20.996C7.02609 20.996 2.99609 16.966 2.99609 11.996C2.99609 11.312 3.07909 10.648 3.22309 10.008" stroke="#161924" stroke-width="1.5" stroke-linecap="round" stroke-linejoin="round"/>
<path d="M4.6748 17.206C6.9768 16.432 9.4338 15.996 11.9968 15.996C14.5598 15.996 17.0168 16.432 19.3188 17.206" stroke="#161924" stroke-width="1.5" stroke-linecap="round" stroke-linejoin="round"/>
<path fill-rule="evenodd" clip-rule="evenodd" d="M12 21C14.0711 21 15.75 16.9706 15.75 12C15.75 7.02944 14.0711 3 12 3C9.92893 3 8.25 7.02944 8.25 12C8.25 16.9706 9.92893 21 12 21Z" stroke="#161924" stroke-width="1.5" stroke-linecap="round" stroke-linejoin="round"/>
</svg>
