<svg width="24" height="24" viewBox="0 0 24 24" fill="none" xmlns="http://www.w3.org/2000/svg">
<circle cx="12" cy="16.5021" r="1.50063" stroke="#161924" stroke-width="1.5" stroke-linecap="round" stroke-linejoin="round"/>
<rect x="2.99622" y="2.99634" width="18.0075" height="18.0075" rx="4" stroke="#161924" stroke-width="1.5" stroke-linecap="round" stroke-linejoin="round"/>
<path d="M12.12 9.00387C12.12 9.07293 12.064 9.12892 11.995 9.12892C11.9259 9.12892 11.8699 9.07293 11.8699 9.00387C11.8699 8.93481 11.9259 8.87882 11.995 8.87882" stroke="#161924" stroke-width="1.5" stroke-linecap="round" stroke-linejoin="round"/>
<path d="M11.9949 8.87884C12.064 8.87884 12.12 8.93483 12.12 9.0039" stroke="#161924" stroke-width="1.5" stroke-linecap="round" stroke-linejoin="round"/>
<path d="M12.13 5.99264C12.13 6.0617 12.074 6.11769 12.005 6.11769C11.9359 6.11769 11.8799 6.0617 11.8799 5.99264C11.8799 5.92358 11.9359 5.86759 12.005 5.86759" stroke="#161924" stroke-width="1.5" stroke-linecap="round" stroke-linejoin="round"/>
<path d="M12.0049 5.86761C12.074 5.86761 12.13 5.9236 12.13 5.99267" stroke="#161924" stroke-width="1.5" stroke-linecap="round" stroke-linejoin="round"/>
<path d="M12.125 12.0002C12.125 12.0693 12.069 12.1253 12 12.1253C11.9309 12.1253 11.8749 12.0693 11.8749 12.0002C11.8749 11.9311 11.9309 11.8752 12 11.8752" stroke="#161924" stroke-width="1.5" stroke-linecap="round" stroke-linejoin="round"/>
<path d="M11.9999 11.8752C12.069 11.8752 12.125 11.9312 12.125 12.0002" stroke="#161924" stroke-width="1.5" stroke-linecap="round" stroke-linejoin="round"/>
</svg>
